<?xml version="1.0" encoding="utf-8"?>
<!-- Generator: Adobe Illustrator 26.0.2, SVG Export Plug-In . SVG Version: 6.00 Build 0)  -->
<svg version="1.1" id="Layer_1" xmlns="http://www.w3.org/2000/svg" xmlns:xlink="http://www.w3.org/1999/xlink" x="0px" y="0px"
	 viewBox="0 0 440 286" style="enable-background:new 0 0 440 286;" xml:space="preserve">
<style type="text/css">
	.st0{fill:none;}
	.st1{fill:#333333;}
	.st2{fill:#DEF4F8;}
	.st3{fill:#558EF2;}
	.st4{fill:#381E0D;}
	.st5{fill:#231107;}
	.st6{fill:#97B9FF;}
	.st7{fill:#FFB09E;}
	.st8{fill:#FFD4CF;}
	.st9{fill:#F97070;}
	.st10{fill:#2B2B2B;}
	.st11{fill:#FFFFFF;}
	.st12{fill-rule:evenodd;clip-rule:evenodd;fill:#E6E6E6;}
	.st13{fill-rule:evenodd;clip-rule:evenodd;fill:#707070;}
	.st14{fill-rule:evenodd;clip-rule:evenodd;fill:#FFFFFF;}
	.st15{fill-rule:evenodd;clip-rule:evenodd;fill:#1992DD;}
	.st16{fill-rule:evenodd;clip-rule:evenodd;fill:#22A1FF;}
	.st17{fill-rule:evenodd;clip-rule:evenodd;fill:#E9AA11;}
	.st18{fill:#F5BFB3;}
	.st19{fill:#EBF3FC;}
	.st20{fill:#ACE7C2;}
	.st21{fill:#6ECBD0;}
	.st22{fill:#DFECFE;}
	.st23{fill:#7774C3;}
	.st24{fill:#69CDE1;}
	.st25{fill:#F9F5E1;}
	.st26{opacity:0.54;fill:#77E8F7;}
	.st27{fill:#C8D2DC;}
	.st28{fill:#FB5858;}
	.st29{fill:#F44545;}
	.st30{fill:#DCE6EB;}
	.st31{fill:#44BFD7;}
	.st32{fill:#7CD2E3;}
	.st33{fill:#A6E0EC;}
	.st34{fill:#FFF5F5;}
	.st35{fill:#007A8E;}
	.st36{fill:#0289A8;}
</style>
<symbol  id="New_Symbol_64" viewBox="-8.7 -5.5 17.4 11">
	<path class="st0" d="M-5.3-0.1c0-2.1,1.5-3.8,3.3-3.8h4c1.6,0,2.9,1.5,2.9,3.4v5.2L-5.3,4.5V-0.1z"/>
	<path class="st1" d="M8.7,3.5H7.6C7.3,3.5,7,3.6,6.8,3.6v1.9L-6.1,5.3l-2.6-1l0.5-1.6l2.2,0v-3.1c0-2.8,2-5.1,4.6-5.1h3.7
		c2.3,0,4.2,2.1,4.2,4.7V2c0.3-0.1,0.7-0.1,1.1-0.1h1.1V3.5z M5.1-0.8C5.1-2.6,3.8-4,2.3-4h-3.7c-1.7,0-3.1,1.6-3.1,3.6v4.2L5.1,4
		V-0.8z"/>
</symbol>
<g>
	<path class="st2" d="M415,181.7c0,77.7-87.3,87.7-195,87.7s-195-10-195-87.7S112.3,41,220,41S415,104,415,181.7z"/>
	<polygon class="st3" points="201.6,269.9 239.7,269.9 238.5,162.9 196.6,164.9 	"/>
	<path class="st4" d="M249.9,126.4h-60.5c-2.9,0-5.3-2.4-5.3-5.3V63.2h71.1v57.9C255.2,124,252.8,126.4,249.9,126.4z"/>
	<rect x="195.2" y="68.1" class="st5" width="48.9" height="58.3"/>
	<g id="XMLID_1839_">
		<path class="st6" d="M253.4,114.2l-1.4,14.7l-0.7,7.4l-1.3,14l-3.6,42.3h-53.6l-4.2-49.1l-0.7-7.4L186,116c0-0.1-0.1-0.2-0.1-0.3
			c0-0.1,0-0.2,0-0.2l0.4-1.3c0,0,0,0,0.1-0.1c0.3-0.5,0.8-1.1,1.4-1.6c3.7-2.9,12.6-5.2,23.8-5.9c0.7,0,1.5-0.1,2.3-0.1
			c0.7,0,1.5-0.1,2.3-0.1c1,0,2,0,3,0c0.6,0,1.3,0,1.9,0c0.5,0,1.1,0,1.6,0c1.6,0,3.2,0.1,4.8,0.2c0.9,0,1.7,0.1,2.6,0.2
			c10.1,0.9,18,3.1,21.1,5.9c0.5,0.4,0.9,0.9,1.2,1.4H253.4z"/>
	</g>
	<path class="st7" d="M220.1,92.2c-1.8,0-3.5-0.2-5.3-0.5v6.3v9.1c0,2.8,2.4,5,5.3,5c0,0,0,0,0,0c0,0,0,0,0,0c3,0,5.3-2.2,5.3-5
		v-9.1v-6.3C223.7,92,221.9,92.1,220.1,92.2"/>
	<polygon class="st3" points="214.8,105.1 220.1,111.8 211.5,119.6 209.3,107 	"/>
	<polygon class="st3" points="225.5,105.2 220.1,111.8 228.5,119.5 230.9,107 	"/>
	<path class="st4" d="M253.4,71.2c1.2-3.3,1.8-6.8,1.8-10.5v-18c0-17.6-14.4-32-32-32h-7.1c-17.6,0-32,14.4-32,32v18
		c0,3.7,0.6,7.2,1.8,10.5H253.4z"/>
	<g>
		<g>
			<g>
				<path class="st7" d="M204.5,68.1c0,4.1-3.6,7.4-8,7.4c-4.4,0-8-3.3-8-7.4c0-4.1,3.6-7.4,8-7.4C200.9,60.6,204.5,64,204.5,68.1z"
					/>
			</g>
		</g>
		<g>
			<g>
				<path class="st7" d="M250.8,68.1c0,4.1-3.6,7.4-8,7.4c-4.4,0-8-3.3-8-7.4c0-4.1,3.6-7.4,8-7.4C247.3,60.6,250.8,64,250.8,68.1z"
					/>
			</g>
		</g>
	</g>
	<path class="st8" d="M228.6,30c-2.7-1.1-5.5-1.7-8.5-1.8v0c0,0,0,0,0,0c0,0,0,0,0,0c0,0,0,0-0.1,0c0,0,0,0-0.1,0c0,0,0,0,0,0
		c0,0,0,0,0,0v0c-3,0-5.8,0.6-8.5,1.8c-11,4.6-19,17.7-19,33.1c0,2,0.2,4,0.5,5.9c0.7,4.1,1.7,10.1,3.5,13.5c4.6,9,12.6,13.4,20,15
		c1.2,0.3,2.3,0.4,3.4,0.4v0c0,0,0,0,0,0c0,0,0,0,0.1,0c0,0,0,0,0.1,0c0,0,0,0,0,0v0c1.1,0,2.3-0.1,3.4-0.4
		c7.4-1.6,15.2-5.6,19.8-14.6c1.8-3.5,3.1-9.9,3.8-13.9c0.3-1.9,0.5-3.9,0.5-5.9C247.6,47.7,239.6,34.6,228.6,30"/>
	<path class="st4" d="M195.2,34.1c0,0,28.6,12.9,55.6,24.5C250.8,58.6,249.6,1,195.2,34.1z"/>
	<path class="st0" d="M196.9,65.2c0,3.6,2.5,6.5,5.7,6.5h6.7c2.7,0,5-2.6,5-5.7v-8.8l-17.3,0.3V65.2z"/>
	<path class="st1" d="M220.6,59.1h-1.9c-0.5,0-1-0.1-1.3-0.2v-3.2l-21.9,0.3l-4.4,1.8l0.8,2.7l3.8-0.1v5.3c0,4.8,3.5,8.7,7.7,8.7
		h6.3c3.9,0,7.1-3.5,7.1-7.9v-4.8c0.6,0.2,1.2,0.3,1.9,0.3h1.9V59.1z M214.5,66.5c0,3-2.1,5.4-4.7,5.4h-6.3c-2.9,0-5.3-2.7-5.3-6.1
		v-7.2l16.3-0.3V66.5z"/>
	<path class="st0" d="M243.1,65.2c0,3.6-2.5,6.5-5.7,6.5h-6.7c-2.7,0-5-2.6-5-5.7v-8.8l17.3,0.3V65.2z"/>
	<path class="st1" d="M219.4,61.9h1.9c0.7,0,1.3-0.1,1.9-0.3v4.8c0,4.4,3.2,7.9,7.1,7.9h6.3c4.3,0,7.7-3.9,7.7-8.7v-5.3l3.8,0.1
		l0.8-2.7l-4.4-1.8l-21.9-0.3v3.2c-0.3,0.1-0.7,0.2-1.3,0.2h-1.9V61.9z M225.5,58.3l16.3,0.3v7.2c0,3.4-2.4,6.1-5.3,6.1h-6.3
		c-2.6,0-4.7-2.4-4.7-5.4V58.3z"/>
	<path class="st9" d="M227.9,77v1.6v2.9c0,3.2-3.3,5.8-7.5,5.8h0c-4.1,0-7.5-2.6-7.5-5.8v-3V77H227.9z"/>
	<g>
		<path class="st10" d="M209.3,67.3L209.3,67.3c-0.9,0-1.7-0.8-1.7-1.7V61c0-0.9,0.8-1.7,1.7-1.7l0,0c0.9,0,1.7,0.8,1.7,1.7v4.6
			C211,66.6,210.2,67.3,209.3,67.3z"/>
		<path class="st10" d="M230,67.3L230,67.3c-0.9,0-1.7-0.8-1.7-1.7V61c0-0.9,0.8-1.7,1.7-1.7l0,0c0.9,0,1.7,0.8,1.7,1.7v4.6
			C231.7,66.6,231,67.3,230,67.3z"/>
	</g>
	<g>
		<path class="st11" d="M267.5,245.7l-1.6-36.5c0-0.8-0.3-1.5-0.8-2.2l-15-20.3c-0.6-0.8-0.9-1.8-0.8-2.8l10.1-64.5
			c0.2-1.4-0.4-2.7-1.5-3.6l-14.7-9.1c-0.8-0.6-1.7-0.9-2.7-1h-0.3c-1.2,0.1-2.5,0.6-3.3,1.6l-8.7,26.1c-0.6,0.7-0.9,1.6-0.9,2.5
			l0.5,21.5l0.1,5.5l2.7,112.3c13.1-0.1,25.7-0.4,37.9-1L267.5,245.7z"/>
		<path class="st11" d="M211.2,163l0.1-5.5l0.5-21.5c0-0.9-0.3-1.8-0.9-2.5l-8.7-26.1c-0.8-1-2-1.6-3.3-1.6h-0.3
			c-0.9,0-1.9,0.3-2.7,1l-14.7,9.1c-1.1,0.9-1.7,2.2-1.5,3.6l10.1,64.5c0.1,1-0.1,2-0.8,2.8l-15,20.3c-0.5,0.6-0.7,1.4-0.8,2.2
			l-1.6,36.5l-1.2,28.4c12.1,0.7,24.8,1.1,37.9,1.2L211.2,163z"/>
		<path class="st2" d="M230.8,275.3c-2.9,0-5.8,0-8.7,0c-4.6,0-9.1,0-13.5-0.1"/>
	</g>
	<g>
		<rect x="82.7" y="122.5" class="st12" width="3.2" height="92.4"/>
		<path class="st13" d="M151.8,214.8h-71c-0.6,0-1.2-0.5-1.2-1.2v-3.9c0-0.6,0.5-1.2,1.2-1.2h71c0.6,0,1.2,0.5,1.2,1.2v3.9
			C152.9,214.2,152.4,214.8,151.8,214.8z"/>
		<rect x="78.4" y="135.7" class="st12" width="35.4" height="3.2"/>
		<path class="st14" d="M145.1,208.5c2.5-5.5,3.9-11.6,3.9-17.4c0-18-12.7-28.3-22.9-34.3v-27.8h2.5c0.6,0,1-0.6,1-1.3v-3.8
			c0-0.7-0.5-1.3-1-1.3h-9.2v86H145.1z"/>
		<path class="st14" d="M93.7,208.5c-2.5-5.5-3.9-11.6-3.9-17.4c0-18,12.7-28.3,22.9-34.3v-27.8h-2.5c-0.6,0-1-0.6-1-1.3v-3.8
			c0-0.7,0.5-1.3,1-1.3h9.2v86H93.7z"/>
		<path class="st15" d="M147,188.4c0.1,0.9,0.1,1.8,0.1,2.6c0,5.5-1,10.8-2.8,15.4h-24.9v-18.1H147z"/>
		<path class="st16" d="M91.8,188.4c-0.1,0.9-0.1,1.8-0.1,2.6c0,5.5,1,10.8,2.8,15.4h24.9v-18.1H91.8z"/>
		<path class="st16" d="M111.2,179.9c-1.9,0-3.5,1.6-3.5,3.5c0,1.9,1.6,3.5,3.5,3.5c1.9,0,3.5-1.6,3.5-3.5
			C114.7,181.5,113.2,179.9,111.2,179.9z"/>
		<path class="st16" d="M115.7,175.9c-1.1,0-2,0.9-2,2c0,1.1,0.9,2,2,2s2-0.9,2-2C117.7,176.8,116.8,175.9,115.7,175.9z"/>
		<path class="st15" d="M125.2,179.3c-1.8,0-3.2,1.4-3.2,3.2c0,1.8,1.4,3.2,3.2,3.2c1.8,0,3.2-1.4,3.2-3.2
			C128.4,180.7,126.9,179.3,125.2,179.3z"/>
		<path class="st17" d="M140.9,156.4c-0.7,0-1.3,0.6-1.3,1.3c0,0.7,0.6,1.3,1.3,1.3c0.7,0,1.3-0.6,1.3-1.3
			C142.3,157,141.7,156.4,140.9,156.4z"/>
		
			<rect x="128.3" y="157.2" transform="matrix(0.6427 -0.7661 0.7661 0.6427 -73.9393 163.9267)" class="st14" width="20.9" height="8.1"/>
		<path class="st15" d="M128,172.2c-1.4,0-2.5,1.1-2.5,2.5c0,1.4,1.1,2.5,2.5,2.5c1.4,0,2.5-1.1,2.5-2.5
			C130.6,173.4,129.4,172.2,128,172.2z"/>
		<path class="st15" d="M136.3,181.5c-0.7,0-1.3,0.6-1.3,1.3c0,0.7,0.6,1.3,1.3,1.3c0.7,0,1.3-0.6,1.3-1.3
			C137.6,182.1,137,181.5,136.3,181.5z"/>
		<path class="st15" d="M136.7,163.1c-0.7,0-1.3,0.6-1.3,1.3c0,0.7,0.6,1.3,1.3,1.3c0.7,0,1.3-0.6,1.3-1.3
			C138.1,163.7,137.5,163.1,136.7,163.1z"/>
		<rect x="109.7" y="132.4" class="st13" width="19.4" height="10.8"/>
		<rect x="109.7" y="132.4" class="st13" width="9.7" height="10.8"/>
		<path class="st14" d="M119.4,141.5c2.1,0,3.7-1.7,3.7-3.7c0-2.1-1.7-3.7-3.7-3.7c-2.1,0-3.7,1.7-3.7,3.7
			C115.6,139.8,117.3,141.5,119.4,141.5z"/>
		<path class="st16" d="M98.4,183c-0.9,0-1.6,0.7-1.6,1.6c0,0.9,0.7,1.6,1.6,1.6c0.9,0,1.6-0.7,1.6-1.6C100,183.8,99.3,183,98.4,183
			z"/>
		<path class="st16" d="M107.8,173.5c-0.7,0-1.3,0.6-1.3,1.3c0,0.7,0.6,1.3,1.3,1.3c0.7,0,1.3-0.6,1.3-1.3
			C109.1,174.1,108.5,173.5,107.8,173.5z"/>
		<path class="st16" d="M104.6,179.9c-1.1,0-2,0.9-2,2c0,1.1,0.9,2,2,2c1.1,0,2-0.9,2-2C106.6,180.8,105.7,179.9,104.6,179.9z"/>
		<circle class="st15" cx="133.2" cy="166.5" r="2"/>
		<path class="st15" d="M140,157c-0.9,0-1.6,0.7-1.6,1.6c0,0.9,0.7,1.6,1.6,1.6c0.9,0,1.6-0.7,1.6-1.6
			C141.6,157.8,140.9,157,140,157z"/>
		<path class="st15" d="M149.2,146.4c-1.6,0-2.8,1.3-2.8,2.8c0,1.6,1.3,2.8,2.8,2.8c1.6,0,2.8-1.3,2.8-2.8
			C152.1,147.7,150.8,146.4,149.2,146.4z"/>
		<path class="st15" d="M149.3,141.6c-0.9,0-1.5,0.7-1.5,1.5c0,0.9,0.7,1.5,1.5,1.5c0.9,0,1.5-0.7,1.5-1.5
			C150.9,142.3,150.2,141.6,149.3,141.6z"/>
		<path class="st15" d="M152.1,137.5c-0.7,0-1.3,0.6-1.3,1.3c0,0.7,0.6,1.3,1.3,1.3c0.7,0,1.3-0.6,1.3-1.3
			C153.4,138.1,152.8,137.5,152.1,137.5z"/>
	</g>
	<path class="st18" d="M286.3,167c-0.6,0.5-1.3,0.7-2,0.6c-0.7-0.1-1.4-0.4-1.8-1c-0.5-0.6-0.7-1.3-0.6-2l6.2-49.6
		c0.1-0.7,0.7-1.2,1.3-1.1c0.7,0.1,1.1,0.6,1.1,1.3l-3.3,49.9C287.2,165.9,286.9,166.5,286.3,167z"/>
	<path class="st7" d="M290.2,165.8c-3.3,2.8-8.6,2.3-11.3-1c-1.4-1.7-1.9-3.8-1.7-6l3-25.4l3.2-24.2c0.4-3.5,3.5-6,7-5.6
		c3.4,0.3,6,3.3,5.8,6.8l-1.5,24.4l-1.8,25.5C292.8,162.5,291.8,164.5,290.2,165.8z"/>
	<path class="st11" d="M287.6,173.6c-2.5,0.9-5.4,0.6-7.7-0.8c-3.2-2-4.8-5.3-4.4-9.1l4.5-40.5l0.3-1.3l15.5,1.5l1.3,0.2l-3.3,41.9
		C293.5,169.2,291.1,172.3,287.6,173.6z"/>
	<path class="st19" d="M297,119.3l-16-1.5c-0.7-0.1-1.4,0.5-1.4,1.2l-0.5,5c-0.1,0.7,0.5,1.4,1.2,1.4l16,1.5
		c0.7,0.1,1.4-0.5,1.4-1.2l0.5-5C298.3,120,297.7,119.3,297,119.3z"/>
	<g id="XMLID_1847_">
		<path class="st11" d="M245.7,126.6c0.4-3.2,2.2-6,4.8-7.8c2.6-1.8,5.9-2.5,9-1.8c3.1,0.7,5.8,2.6,7.5,5.3l25.1,41.8
			c2.1,3.5,1.1,8.2-2.2,10.6c-3.4,2.4-8.1,1.7-10.7-1.5l-30.9-37.7C246.2,132.9,245.3,129.7,245.7,126.6z"/>
	</g>
	<path class="st8" d="M310.1,102.6L310.1,102.6c-0.6-1.6-2.4-2.3-4-1.7l-4.2,1.7l4.5-4.6c1.2-1.3,1.2-3.2,0-4.4
		c-1.2-1.2-3.2-1.1-4.5,0.2l-4.1,4.2l-5.6,6.7l-13-1.7l-1.4-0.8l-0.1,0c-2.2,13.7,9.9,11.8,20.2,8.4c4-1.4,7.8-3,10.3-4
		C309.8,106,310.7,104.2,310.1,102.6z"/>
	<path class="st8" d="M286.8,108.2c4.6-0.3,8.8-3,11-6.9c1-1.7,1.5-3.6,1.5-5.5c0-2.6-0.8-4.9-2.4-6.7c-1.6-1.9-4.9-1.2-5.8,1.2
		l0,0.1c-0.4,1-0.2,2.1,0.5,2.9c0.7,0.8,1,1.8,1,3c0,0.9-0.2,1.7-0.7,2.5c-1,1.8-2.9,3-5,3.2c-1.1,0.1-2.1-0.1-3-0.6
		c-1.6-0.8-2.6-2.4-2.6-4.2c0-0.4,0.1-0.9,0.2-1.3c0.3-1.2,0.1-2.4-0.9-3.1c-2.1-1.5-4.9-0.3-5.5,1.8c0,0,0,0.1,0,0.1
		c-0.3,1-0.4,1.9-0.4,2.9c-0.1,4,2,7.4,5.6,9.3C282.2,107.9,284.5,108.3,286.8,108.2z"/>
	<g>
		<path class="st20" d="M287.2,97.5c3.9-1,6.3-4.7,5.3-8.2l-3.8-14l2.1,7.7l-14.1,3.7l1.7,6.3c0.5,1.7,1.7,3.1,3.3,3.9
			C283.3,97.8,285.3,98,287.2,97.5z"/>
		<path class="st21" d="M288.7,75.3c-1-3.5-4.9-5.5-8.8-4.5c-3.9,1-6.3,4.7-5.3,8.2l2.1,7.7l14.1-3.7L288.7,75.3z"/>
	</g>
	<g>
		<path class="st11" d="M284.5,80.5c0.2-0.3,0.5-0.6,0.9-0.7c0.8-0.2,1.6,0.2,1.8,0.9l2.1,6.8c0.2,0.7-0.3,1.5-1,1.7
			c-0.8,0.2-1.6-0.2-1.8-0.9l-2.1-6.8C284.2,81.2,284.3,80.8,284.5,80.5z"/>
	</g>
	<g>
		<path class="st11" d="M194.9,122c-1.4-2.9-3.9-5.1-6.9-6s-6.4-0.6-9.1,1c-2.8,1.6-4.8,4.3-5.5,7.4l-11,47.5
			c-0.9,4,1.4,8.1,5.4,9.4c4,1.2,8.2-0.8,9.7-4.7l17.8-45.4C196.4,128.2,196.3,124.8,194.9,122z"/>
	</g>
	<path class="st22" d="M238.1,128.8l4.8,5.6L230.2,166l-2.1-3l-0.1-5.5l-0.5-21.5c0-0.9,0.3-1.8,0.9-2.5l8.7-26.1
		c0.8-1,2-1.6,3.3-1.6l3.5,2.7l5.7,9.1L238.1,128.8z"/>
	<path class="st22" d="M201.3,128.8l-4.8,5.6l12.6,31.6l2.1-3l0.1-5.5l0.5-21.5c0-0.9-0.3-1.8-0.9-2.5l-8.7-26.1
		c-0.8-1-2-1.6-3.3-1.6l-3.5,2.7l-5.7,9.1L201.3,128.8z"/>
	<g>
		<g>
			<path class="st23" d="M203.3,151.1l-31.9,39.5c-1.9,2.4-1.5,5.8,0.8,7.7c0,0,23.8,19.2,23.9,19.3c8.7,7.5,12.2-0.2,13.9-2.3
				l31.8-39.5c1.9-2.4,1.5-5.8-0.8-7.7l-23.9-19.3c-1.4-1.1-3.1-1.4-4.7-1.1c-1.1,0.2-2.1,0.8-2.8,1.7c0,0-0.1,0.1-0.1,0.1
				C207.4,148.5,204.8,149.1,203.3,151.1z"/>
			<path class="st11" d="M212.5,147.7l26.6,22.3c0.7,0.6,0.7,1.5,0.2,2.2c-0.1,0.2-0.3,0.3-0.5,0.4c-0.5,0.3-1.2,0.2-1.7-0.2
				l-0.5-0.4L210,149.6l0,0l-0.3-0.3C210.4,148.5,211.4,147.9,212.5,147.7z"/>
		</g>
		<g>
			<path class="st24" d="M196.6,145.8c0.7,0,1.4,0.1,2.1,0.4c0,0,0.1-0.1,0.1-0.1c0.8-0.9,1.8-1.4,2.8-1.7c0.1,0,0.1,0,0.2,0
				c1.7-0.4,3.5,0,5,1.1L231,165l1.2,0.9c2.5,2,2.9,5.7,0.9,8.2l-33.8,41.9c-1.5,1.9-5.4,8.5-12.1,4.4c-0.9-0.5-1.8-1-2.7-1.9
				c-0.1-0.1-25.4-20.4-25.4-20.4c-2.5-2-2.9-5.7-0.9-8.2L192,148C193.2,146.5,194.9,145.8,196.6,145.8z"/>
			<path class="st25" d="M198.8,146.1c0.8-0.9,1.8-1.4,2.8-1.7l27.8,22.5l0.4,0.3c0.9,0.7,1,2.1,0.3,3c-0.2,0.2-0.4,0.4-0.6,0.5
				c-0.7,0.4-1.6,0.3-2.3-0.2l-0.4-0.3l-0.2-0.2l-30-24.2C197.3,145.8,198,145.9,198.8,146.1C198.7,146.2,198.8,146.1,198.8,146.1z"
				/>
			<g>
				<path class="st26" d="M188.4,168.9l1.7-2.1c0.4-0.5,1.2-0.6,1.7-0.2l19.3,15.5c0.5,0.4,0.6,1.2,0.2,1.7l-1.7,2.1
					c-0.4,0.5-1.2,0.6-1.7,0.2l-19.3-15.5C188.1,170.2,188,169.4,188.4,168.9z"/>
				<path class="st26" d="M195,159.8l1.7-2.1c0.4-0.5,1.2-0.6,1.7-0.2l19.3,15.5c0.5,0.4,0.6,1.2,0.2,1.7l-1.7,2.1
					c-0.4,0.5-1.2,0.6-1.7,0.2l-19.3-15.5C194.6,161.1,194.6,160.3,195,159.8z"/>
			</g>
		</g>
		<g>
			<g>
				<path class="st8" d="M219.8,206.6c0.1,0.6,0,1.3-0.2,1.9c-0.5,1.1-1.6,1.8-2.8,1.8c0.1,0.6,0,1.2-0.3,1.8
					c-0.5,1.1-1.6,1.8-2.8,1.8c0,0.8-1.2,1.7-2.1,1.7c-2.9,0-7.7-3.4-10.7-5.9c-1.1-1.2-2.3-2.4-3.3-3.5c-1.9-2-2.3-4.9-1.2-7.3
					l1.3-2.7c0.6-1.3,1.6-2.2,2.9-2.7c1.2-0.5,2.6-0.6,3.9,0c3.2,1.2,6-0.7,8.8-2.9l0.2-0.2c1-0.8,2.2-1.7,3.7-0.7
					c1.1,0.8,1.5,2.3,0.9,3.5c-0.9,1.8-2.4,3.4-4.3,4.4l6.8,3.2c1.5,0.7,2.2,2.6,1.5,4.1C221.6,205.8,220.8,206.4,219.8,206.6z"/>
			</g>
		</g>
		<g id="XMLID_1834_">
			<path class="st18" d="M170.6,170.6c-0.7,0.1-1.3,0.5-1.8,1c-0.5,0.6-0.8,1.2-0.8,1.9c0,0.7,0.2,1.3,0.7,1.6l31.1,25.5
				c0.4,0.4,1.1,0.2,1.5-0.3c0.4-0.5,0.5-1.2,0.1-1.6l-29.1-27.7C171.9,170.7,171.3,170.5,170.6,170.6z"/>
			<path class="st8" d="M174,168.6c-3.9,0.6-7.4,4.6-7.6,8.5c-0.1,2,0.6,3.6,2,4.7l15.8,13.1l15.3,12.3c2.2,1.8,5.7,1.1,8-1.5
				c2.3-2.6,2.5-6.2,0.5-8.1L193.9,184l-15-14.1C177.7,168.8,175.9,168.3,174,168.6z"/>
			<path class="st11" d="M168,165.7c-2.3,1.2-4.2,3.4-5.1,5.9c-1.2,3.4-0.6,6.6,1.7,8.5l25,21.2l0.9,0.6l10.3-11.7l0.8-1.1
				l-24.9-22.8C174.6,164.3,171.2,164,168,165.7z"/>
			<path class="st19" d="M204,191.7L193.2,204c-0.4,0.5-1.2,0.5-1.7,0.1l-2.9-2.5c-0.5-0.4-0.5-1.2-0.1-1.7l10.8-12.3
				c0.4-0.5,1.2-0.5,1.7-0.1l2.9,2.5C204.4,190.5,204.4,191.2,204,191.7z"/>
		</g>
	</g>
	<g>
		<g>
			<path class="st27" d="M283.2,217.9l-5.8-5.8l32-32l5.8,5.8L283.2,217.9z"/>
		</g>
		<g>
			<path class="st28" d="M288.9,209.4c1.2,1.2,1.2,3.1,0,4.3l-10,10c-2.6-2.2-5.1-4.6-7.2-7.2l10-10c1.2-1.2,3.1-1.2,4.3,0
				L288.9,209.4z"/>
		</g>
		<g>
			<path class="st29" d="M250.3,247.1l-1.8-1.8c-2.2-2.2-2.2-5.7,0-7.9l28.2-28.2c0.2-0.2,0.4-0.2,0.6,0l9.1,9.1
				c0.2,0.2,0.2,0.4,0,0.6l-28.2,28.2C256,249.3,252.5,249.3,250.3,247.1z"/>
		</g>
		<g>
			<g>
				<path class="st30" d="M344.8,147.6c14.9,14.9,14.9,38.9,0,53.8c-14.9,14.9-38.9,14.9-53.8,0c-14.9-14.9-14.9-38.9,0-53.8
					S330,132.7,344.8,147.6L344.8,147.6z"/>
			</g>
			<g>
				<path class="st31" d="M341.3,151c12.9,12.9,12.9,33.9,0,46.8c-12.9,12.9-33.9,12.9-46.8,0c-12.9-12.9-12.9-33.9,0-46.8
					C307.4,138.1,328.4,138.1,341.3,151z"/>
			</g>
			<g>
				<path class="st32" d="M296.1,196.3c-12.1-12.1-12.1-31.6,0-43.7s31.6-12.1,43.7,0s12.1,31.6,0,43.7c-2.1,2.1-4.4,3.8-6.9,5.2
					c-9.3-5.1-20.6-5.1-29.8,0C300.5,200.1,298.2,198.4,296.1,196.3L296.1,196.3z"/>
			</g>
			<g>
				<path class="st31" d="M296.1,196.3c-12.1-12.1-12.1-31.6,0-43.7c1.2-1.2,2.4-2.2,3.8-3.2c-8.7,12.1-7.7,29,3.2,39.9
					c10.9,10.9,27.8,11.9,39.9,3.2c-1,1.3-2,2.6-3.2,3.8c-2.4,2.4-5,4.3-7.8,5.7c-4.3-2.3-9.2-3.6-14.4-3.6c-5,0-9.8,1.2-14,3.3
					C300.8,200.4,298.3,198.5,296.1,196.3L296.1,196.3z"/>
			</g>
			<g>
				<path class="st33" d="M341.7,159.6c3.2,5.3,4.5,10.3,3.1,11.2c-1.5,0.9-3.7-4.3-6.8-9.6c-3.2-5.3-6.1-8.7-4.7-9.6
					C334.7,150.7,338.5,154.3,341.7,159.6z"/>
			</g>
			<g>
				<path class="st34" d="M334.7,174.5v2l-2.5,3.5v13.5l2.5,3.5v3.4c-9.7,6.3-22.2,6.6-32.1,0.9c-0.5-0.3,0.6-4.3,0.6-4.3v-20.4
					c0,0,0.7-7.1,4.1-7.1l3.7-1.1v-10.2h15.5v10.2h2C331.9,168.3,334.7,171.1,334.7,174.5z"/>
			</g>
			<g>
				<path class="st2" d="M306.2,203c-1.7-0.7-3.4-1.6-5-2.6v-3.4l1.3-1.1v-18.3l-1.3-1.1v-2c0-3.4,2.7-6.1,6.1-6.1h2v-10.2h4.1v10.2
					c0,1.1-0.9,2-2,2c-3.4,0-6.1,2.7-6.1,6.1v24.8C305.2,202,305.6,202.7,306.2,203C306.2,203,306.2,203,306.2,203L306.2,203z"/>
			</g>
			<g>
				<path class="st35" d="M301.2,176.5v20.4h10.5c0.7,0,1.3-0.6,1.3-1.3v-17.9c0-0.7-0.6-1.3-1.3-1.3L301.2,176.5L301.2,176.5z"/>
			</g>
			<g>
				<path class="st36" d="M326.5,164.2h-17.2v-6.1c0-1.1,0.9-2,2-2h13.1c1.1,0,2,0.9,2,2V164.2z M311.2,176.5v20.4h23.4v-20.4H311.2
					z"/>
			</g>
			<g>
				<path class="st35" d="M307.3,154h21.3c1.1,0,2,0.9,2,2s-0.9,2-2,2h-21.3c-1.1,0-2-0.9-2-2S306.2,154,307.3,154z"/>
			</g>
			<path class="st20" d="M325.7,185.5h-15c-0.9,0-1.6-0.7-1.6-1.6v0c0-0.9,0.7-1.6,1.6-1.6h15c0.9,0,1.6,0.7,1.6,1.6v0
				C327.3,184.8,326.6,185.5,325.7,185.5z"/>
			<path class="st20" d="M325.7,191h-15c-0.9,0-1.6-0.7-1.6-1.6l0,0c0-0.9,0.7-1.6,1.6-1.6h15c0.9,0,1.6,0.7,1.6,1.6l0,0
				C327.3,190.3,326.6,191,325.7,191z"/>
			<circle class="st33" cx="345.9" cy="173.7" r="1.4"/>
		</g>
	</g>
</g>
</svg>
