<svg width="32" height="32" viewBox="0 0 32 32" fill="none" xmlns="http://www.w3.org/2000/svg">
<rect width="32" height="32" rx="16" fill="url(#paint0_linear_1454_136033)"/>
<path d="M20.5116 16.0303L24.9526 21.7564C25.0358 21.8646 25.1446 21.9503 25.2693 22.0059C25.3939 22.0615 25.5305 22.0851 25.6665 22.0746V22.4524H20.7703V22.0746C21.6627 22.0449 21.9185 21.9973 21.9185 21.7564C21.8813 21.5013 21.7586 21.2664 21.5705 21.0901L18.9261 17.6514L18.5335 18.0322V21.0068C18.5335 21.917 19.0451 21.9765 19.8155 22.0836V22.4613H14.9104V22.0836C15.7106 21.9914 16.1776 21.9319 16.1776 21.0068V13.6684C16.1776 12.669 15.5827 12.6392 14.9104 12.5946V12.2139H19.8304V12.5946C19.0302 12.6541 18.5335 12.6839 18.5335 13.9867V17.229" fill="white"/>
<path d="M25.4612 10.3307C25.4507 10.6007 25.361 10.8616 25.2033 11.081C25.0456 11.3004 24.8268 11.4686 24.5743 11.5645C24.3217 11.6605 24.0465 11.6801 23.7829 11.6208C23.5192 11.5615 23.2789 11.426 23.0917 11.2312C22.9046 11.0363 22.7788 10.7907 22.7302 10.5249C22.6816 10.2591 22.7123 9.98491 22.8184 9.73642C22.9244 9.48792 23.1013 9.27611 23.3268 9.12737C23.5524 8.97863 23.8167 8.89952 24.0869 8.8999C24.4588 8.90771 24.8124 9.06276 25.07 9.33101C25.3277 9.59927 25.4684 9.9588 25.4612 10.3307V10.3307Z" fill="white"/>
<path d="M12.3731 6.87158C7.11108 10.4411 4.37743 15.7626 6.26332 18.77C8.14921 21.7773 13.9437 21.3489 19.2028 17.7883C21.4016 16.3518 23.2571 14.4486 24.6374 12.2139H22.1833C21.0448 14.0512 19.5438 15.6372 17.772 16.8751C13.2804 20.0907 8.27712 20.6023 6.59648 18.0471C4.91583 15.492 7.89339 10.0752 12.3702 6.87158H12.3731Z" fill="white"/>
<defs>
<linearGradient id="paint0_linear_1454_136033" x1="16" y1="0" x2="16" y2="32" gradientUnits="userSpaceOnUse">
<stop stop-color="#2C89F1"/>
<stop offset="1" stop-color="#0D69D0"/>
</linearGradient>
</defs>
</svg>
