<svg width="103" height="103" viewBox="0 0 103 103" fill="none" xmlns="http://www.w3.org/2000/svg">
<circle cx="51.5" cy="51.5" r="51.5" fill="white"/>
<path d="M48.7698 36.5344V31.7284H45.7209C45.5653 32.1984 45.3102 32.6293 44.973 32.9917C44.6286 33.3607 44.2334 33.6788 43.7992 33.9364C43.3453 34.209 42.8659 34.4368 42.3678 34.6163C41.8525 34.8024 41.3443 34.9742 40.8398 35.0958L40.074 34.1511C40.6358 33.9901 41.1869 33.8147 41.7201 33.6179C42.224 33.4371 42.7045 33.1968 43.1515 32.9022C43.5464 32.6524 43.8851 32.3234 44.1463 31.936C44.3953 31.539 44.5199 31.0767 44.5042 30.6084V29.8354C44.5284 29.5879 44.4786 29.3388 44.361 29.1197C44.268 28.9873 44.0497 28.9193 43.7098 28.9193H40.5392V27.7599H43.9853C44.2799 27.7552 44.574 27.784 44.862 27.8457C45.0825 27.8925 45.2878 27.9934 45.4597 28.1392C45.622 28.2934 45.7395 28.4888 45.7996 28.7046C45.8782 28.9998 45.9143 29.3046 45.907 29.61V30.5153H48.7698V27.3662H50.169V35.7614C50.1851 35.9673 50.1455 36.1737 50.0545 36.3591C49.9912 36.4263 49.9126 36.4773 49.8254 36.5079C49.7382 36.5384 49.6449 36.5475 49.5535 36.5344H48.7698ZM43.5416 40.0056C43.3999 40.0133 43.2582 39.9911 43.1257 39.9406C42.9932 39.89 42.8727 39.8122 42.7722 39.7121C42.6773 39.6106 42.6035 39.4913 42.5549 39.3611C42.5064 39.2309 42.4842 39.0924 42.4895 38.9535V35.7328H43.8887V38.5276C43.8887 38.6958 43.9388 38.7817 44.0426 38.7817H50.4839V39.4473C50.494 39.5936 50.4479 39.7382 50.3551 39.8517C50.2983 39.903 50.2314 39.9419 50.1587 39.966C50.0859 39.99 50.009 39.9986 49.9328 39.9913L43.5416 40.0056Z" fill="#27BDBE"/>
<path d="M56.979 30.3042C56.9936 30.8996 56.8543 31.4888 56.5747 32.0147C56.3022 32.5018 55.9303 32.9261 55.4832 33.2601C54.9964 33.6239 54.4617 33.9189 53.8943 34.1368C53.2706 34.3834 52.631 34.5878 51.9798 34.7487L51.2104 33.804C51.758 33.6644 52.284 33.4998 52.8172 33.3137C53.3107 33.1423 53.7827 32.9141 54.2236 32.6338C54.613 32.3915 54.949 32.0725 55.2112 31.6962C55.4628 31.3017 55.5876 30.8397 55.5691 30.3722V29.8676C55.5921 29.6206 55.5436 29.3722 55.4295 29.1519C55.3365 29.0195 55.1182 28.9515 54.7747 28.9515H51.5969V27.7599H55.0431C55.3388 27.755 55.6341 27.7838 55.9234 27.8457C56.1427 27.8925 56.3469 27.9934 56.5174 28.1392C56.6811 28.2924 56.7988 28.4882 56.8574 28.7046C56.9371 28.9996 56.9745 29.3044 56.9683 29.61L56.979 30.3042ZM53.1822 37.6115C53.1607 37.128 53.3032 36.6513 53.5866 36.2589C53.8541 35.9105 54.1965 35.6267 54.5886 35.4286C54.9933 35.2222 55.4281 35.0809 55.8768 35.01C56.7265 34.8573 57.5966 34.8573 58.4462 35.01C58.8861 35.0799 59.3116 35.2213 59.7059 35.4286C60.0863 35.6278 60.4157 35.9119 60.6685 36.2589C60.9402 36.6561 61.0758 37.1307 61.055 37.6115C61.0763 38.0891 60.9406 38.5605 60.6685 38.9535C60.4169 39.2971 60.0869 39.5756 59.7059 39.7658C59.3101 39.9658 58.8848 40.1011 58.4462 40.1666C58.0201 40.2345 57.5894 40.2692 57.158 40.2704C56.7182 40.2693 56.2791 40.2347 55.8446 40.1666C55.3978 40.1012 54.9635 39.9685 54.5564 39.773C54.1691 39.588 53.8326 39.3117 53.5759 38.9678C53.2987 38.5715 53.1603 38.0947 53.1822 37.6115ZM54.5814 37.6115C54.5692 37.8931 54.6682 38.1681 54.857 38.3774C55.0453 38.5703 55.272 38.7215 55.5226 38.8211C55.7918 38.9307 56.0747 39.0029 56.3635 39.0358C56.627 39.0694 56.8923 39.0873 57.158 39.0895C57.4212 39.0873 57.6841 39.0694 57.9452 39.0358C58.2284 39.0014 58.5061 38.9317 58.7719 38.8282C59.0199 38.732 59.2418 38.5788 59.4196 38.3809C59.6015 38.1671 59.6949 37.8919 59.6808 37.6115C59.6935 37.3269 59.5976 37.048 59.4124 36.8314C59.2312 36.6299 59.0075 36.471 58.7576 36.3662C58.4961 36.2536 58.2203 36.1777 57.9381 36.1408C57.6832 36.1035 57.4262 36.0832 57.1687 36.0799C56.9029 36.0833 56.6375 36.1036 56.3743 36.1408C56.084 36.1782 55.8 36.254 55.5297 36.3662C55.274 36.4699 55.0443 36.6287 54.857 36.8314C54.668 37.0462 54.5692 37.3257 54.5814 37.6115ZM59.5269 34.67V27.3662H60.9369V30.0931H62.6653V31.3026H60.9369V33.9364C60.9523 34.1324 60.9074 34.3285 60.8081 34.4982C60.7434 34.5634 60.6645 34.6128 60.5776 34.6426C60.4907 34.6724 60.3982 34.6818 60.3071 34.67H59.5269Z" fill="#27BDBE"/>
<path d="M29.0876 52.2481C29.3453 52.1694 29.6173 52.0799 29.9071 51.9833C30.197 51.8867 30.4869 51.7757 30.766 51.6577C31.0428 51.5392 31.3128 51.4054 31.5747 51.2569C31.8186 51.1202 32.0466 50.957 32.2546 50.7702C32.4437 50.6092 32.6218 50.4359 32.7878 50.2513C32.95 50.069 33.0972 49.874 33.228 49.668C33.3568 49.464 33.4579 49.2438 33.5286 49.0131C33.6017 48.7816 33.6391 48.5402 33.6395 48.2974V46.1145C33.6647 45.8709 33.5998 45.6264 33.457 45.4274C33.2356 45.268 32.9618 45.1989 32.6912 45.2342H29.4204V44.0246H32.9346C33.2623 44.0182 33.5895 44.0543 33.9079 44.132C34.1486 44.19 34.3712 44.3068 34.5556 44.472C34.7264 44.6411 34.8498 44.8521 34.9135 45.0839C34.9958 45.3846 35.0344 45.6955 35.028 46.0071V48.2831C35.0322 48.8766 34.8961 49.4627 34.6308 49.9936C34.3637 50.5325 33.9998 51.0178 33.5572 51.4251C33.0801 51.8499 32.5495 52.2108 31.9791 52.4986C31.3048 52.8389 30.5908 53.0937 29.8535 53.2573L29.0876 52.2481ZM37.7513 55.9734V43.334H39.1505V55.1897C39.1711 55.4053 39.1168 55.6214 38.9966 55.8016C38.9276 55.8648 38.8461 55.9128 38.7573 55.9424C38.6685 55.972 38.5744 55.9826 38.4813 55.9734H37.7513Z" fill="#27BDBE"/>
<path d="M39.7512 49.0669H51.3134V49.6395C51.3134 50.0653 51.1166 50.28 50.723 50.28H39.7512V49.0669ZM41.3007 53.6868C41.2917 53.2827 41.4066 52.8856 41.6299 52.5488C41.8628 52.2111 42.1717 51.9329 42.5317 51.7365C42.9548 51.5054 43.4111 51.3413 43.8844 51.2498C44.4394 51.1398 45.0042 51.0871 45.5699 51.0923C46.1099 51.0893 46.6486 51.1445 47.1767 51.2569C47.6455 51.3484 48.0979 51.5101 48.5186 51.7365C48.8798 51.9325 49.1909 52.2093 49.4276 52.5452C49.6516 52.8779 49.7678 53.2715 49.7604 53.6725C49.7669 54.054 49.657 54.4284 49.4455 54.746C49.2213 55.0757 48.9236 55.3489 48.5759 55.544C48.1612 55.7771 47.7136 55.946 47.2482 56.045C46.6968 56.1636 46.134 56.2212 45.5699 56.2168C45.021 56.2196 44.4732 56.168 43.9345 56.0629C43.4625 55.9773 43.0055 55.823 42.5783 55.6049C42.2105 55.4193 41.8917 55.1496 41.6478 54.8176C41.415 54.4871 41.2934 54.091 41.3007 53.6868ZM42.6355 48.0041C42.2935 48.0355 41.9511 47.9483 41.6657 47.7571C41.5536 47.6226 41.4703 47.4665 41.4211 47.2984C41.3718 47.1304 41.3577 46.954 41.3795 46.7802V43.2267H42.0308C42.1372 43.2244 42.2426 43.2479 42.338 43.2953C42.4333 43.3427 42.5158 43.4125 42.5783 43.4987C42.7162 43.6755 42.7905 43.8936 42.7894 44.1178V46.5118C42.7832 46.5908 42.7942 46.6701 42.8216 46.7444C42.8431 46.7874 42.8967 46.8052 42.9826 46.8052H49.8642V47.4422C49.873 47.5917 49.8243 47.739 49.7282 47.8538C49.669 47.9074 49.5993 47.9481 49.5235 47.9734C49.4477 47.9986 49.3675 48.0079 49.288 48.0005L42.6355 48.0041ZM42.7357 53.6868C42.7355 53.8883 42.8065 54.0835 42.9361 54.2379C43.091 54.4194 43.2857 54.5627 43.5051 54.6565C43.7922 54.7839 44.0938 54.8752 44.4033 54.9285C44.7881 54.9989 45.1787 55.0324 45.5699 55.0287C45.9477 55.031 46.3249 54.9998 46.6971 54.9357C47.0005 54.8859 47.2956 54.7944 47.5739 54.6637C47.7912 54.5648 47.9843 54.4195 48.1393 54.2379C48.2689 54.0835 48.3399 53.8883 48.3397 53.6868C48.3402 53.4774 48.2667 53.2746 48.1321 53.1142C47.9747 52.9288 47.7779 52.7809 47.556 52.6812C47.2775 52.5495 46.9826 52.4557 46.6793 52.4021C46.3184 52.3327 45.9516 52.2992 45.5842 52.3019C44.8649 52.2623 44.1459 52.3846 43.4801 52.6597C43.2678 52.7373 43.0835 52.8765 42.9509 53.0595C42.8183 53.2425 42.7434 53.4609 42.7357 53.6868Z" fill="#27BDBE"/>
<path d="M55.3361 45.9678C55.3327 46.3291 55.4188 46.6856 55.5866 47.0056C55.7643 47.3388 55.9966 47.64 56.2737 47.8966C56.5821 48.1874 56.919 48.4463 57.2793 48.6696C57.6586 48.9093 58.063 49.1384 58.4888 49.3602L57.6944 50.2656C57.414 50.1373 57.1427 49.9902 56.882 49.8254C56.5958 49.6501 56.3131 49.4676 56.0411 49.2529C55.7691 49.0382 55.5079 48.8378 55.2645 48.6159C55.0458 48.4182 54.8424 48.204 54.6562 47.9753C54.2943 48.4615 53.8816 48.9078 53.4252 49.3066C52.8814 49.7905 52.2805 50.2063 51.6359 50.5447L50.7126 49.6286C51.1146 49.4269 51.5021 49.1973 51.8721 48.9415C52.2431 48.6887 52.5873 48.3985 52.8991 48.0755C53.1852 47.7782 53.4263 47.4406 53.6148 47.0736C53.7951 46.7277 53.8896 46.3435 53.8904 45.9535V43.5058H54.7993C55.0319 43.5058 55.1751 43.563 55.2359 43.6704C55.3017 43.81 55.3324 43.9635 55.3254 44.1177L55.3361 45.9678ZM60.1421 55.9877V52.767C60.1421 52.6417 60.0884 52.5809 59.9775 52.5809H53.6721V51.3785H60.5035C60.7745 51.3672 61.0404 51.455 61.2514 51.6254C61.351 51.7149 61.4288 51.8258 61.479 51.9498C61.5292 52.0738 61.5505 52.2077 61.5413 52.3412V55.161C61.5617 55.3834 61.5076 55.6062 61.3874 55.7944C61.3217 55.8586 61.243 55.9078 61.1565 55.9387C61.07 55.9696 60.9779 55.9814 60.8864 55.9734L60.1421 55.9877ZM60.1814 50.7058V43.334H61.5771V49.8541C61.5909 50.0713 61.5478 50.2885 61.4518 50.4839C61.3896 50.5611 61.3084 50.6208 61.2162 50.6572C61.124 50.6935 61.0239 50.7053 60.9258 50.6914L60.1814 50.7058Z" fill="#27BDBE"/>
<path d="M62.5649 49.0669H74.1272V49.6394C74.1272 50.0653 73.9304 50.28 73.5367 50.28H69.0492V51.5146H72.524V54.2414C72.5545 54.7084 72.4132 55.1704 72.1268 55.5404C71.9597 55.7058 71.7585 55.8326 71.5371 55.9117C71.3157 55.9909 71.0797 56.0205 70.8457 55.9985H65.3991C65.2421 55.9985 65.0867 55.9668 64.9422 55.9053C64.7977 55.8438 64.6671 55.7538 64.5582 55.6406C64.4327 55.5051 64.3363 55.3453 64.2747 55.1712C64.2132 54.997 64.1879 54.8122 64.2003 54.6279V51.4859H67.6643V50.2514H62.5649V49.0669ZM65.1916 44.6116H63.7602V43.4521H72.9498V44.6116H71.5184V46.3686C71.5191 46.4635 71.5107 46.5581 71.4934 46.6514C71.4755 46.7444 71.454 46.841 71.429 46.9376H73.2361V47.4422C73.2361 47.868 73.0357 48.0828 72.6349 48.0828H63.5276V46.9233H65.2811C65.2546 46.8315 65.2331 46.7383 65.2166 46.6442C65.2009 46.5435 65.1925 46.4419 65.1916 46.34V44.6116ZM70.5379 54.8175C70.6941 54.8257 70.85 54.7963 70.9924 54.7317C71.0997 54.6708 71.1534 54.542 71.1534 54.338V52.6991H65.5888V54.4883C65.5888 54.703 65.6854 54.8104 65.8822 54.8104L70.5379 54.8175ZM69.7184 46.9448C69.7808 46.951 69.8437 46.9407 69.9009 46.915C69.958 46.8892 70.0074 46.8489 70.0441 46.7981C70.1053 46.6699 70.1335 46.5284 70.1264 46.3865V44.6187H66.5765V46.408C66.5686 46.5462 66.5996 46.6838 66.6659 46.8052C66.6987 46.8557 66.7448 46.8962 66.7991 46.9221C66.8534 46.948 66.9138 46.9583 66.9737 46.9519L69.7184 46.9448Z" fill="#27BDBE"/>
<path d="M83.1237 49.1387C83.2015 49.4525 83.2423 49.7744 83.2454 50.0977C83.2454 56.2277 69.0314 61.1912 51.4966 61.1912C33.9618 61.1912 19.7479 56.2206 19.7479 50.0977C19.7525 49.7757 19.7933 49.4552 19.8696 49.1423C17.6258 50.7955 16.3662 52.6528 16.3662 54.6138C16.3662 61.549 32.1117 67.1709 51.4966 67.1709C70.8815 67.1709 86.6306 61.549 86.6306 54.6138C86.6342 52.6528 85.371 50.7955 83.1237 49.1387Z" fill="#FBB040"/>
<path d="M51.5 5.85254C42.4718 5.85254 33.6463 8.52973 26.1395 13.5456C18.6328 18.5614 12.782 25.6906 9.32705 34.0316C5.87208 42.3727 4.96809 51.5509 6.72942 60.4057C8.49075 69.2605 12.8383 77.3941 19.2222 83.7781C25.6062 90.162 33.7398 94.5096 42.5946 96.2709C51.4494 98.0322 60.6276 97.1282 68.9687 93.6733C77.3097 90.2183 84.4389 84.3675 89.4547 76.8608C94.4706 69.354 97.1478 60.5285 97.1478 51.5003C97.1478 45.5057 95.9671 39.5699 93.673 34.0316C91.379 28.4934 88.0166 23.4612 83.7779 19.2225C79.5391 14.9837 74.5069 11.6213 68.9687 9.32727C63.4304 7.03325 57.4946 5.85254 51.5 5.85254ZM51.5 9.01596C59.1048 9.01488 66.5704 11.0547 73.118 14.9226C79.6657 18.7905 85.0552 24.3448 88.7244 31.0058C92.3936 37.6668 94.208 45.1904 93.9781 52.7917C93.7483 60.3929 91.4827 67.7932 87.4177 74.2203H15.6002C11.5336 67.7949 9.26611 60.3959 9.03432 52.7953C8.80254 45.1947 10.615 37.6712 14.2825 31.0099C17.95 24.3486 23.3381 18.7938 29.8846 14.9252C36.4311 11.0565 43.8959 9.01575 51.5 9.01596Z" fill="#27BDBE"/>
<path d="M27.986 80.5217C27.5114 81.2005 26.8391 81.7166 26.0607 81.9996L25.7029 81.3197C26.5868 80.8831 27.553 80.1746 27.553 79.1189V78.4032H28.5049V79.1189C28.5049 80.1352 29.3852 80.8903 30.3478 81.3448L29.99 82.0068C29.2036 81.6954 28.5127 81.1834 27.986 80.5217ZM30.6412 83.0947H26.4401V82.4434H31.5931V84.8267H30.6377L30.6412 83.0947ZM30.6412 78.2529H31.5931V82.0819H30.6377L30.6412 78.2529Z" fill="white"/>
<path d="M35.7652 82.5297H37.8694V84.8343H32.7127V82.5297H34.8133V81.9929H32.4014V81.3452H38.1771V81.9929H35.7616L35.7652 82.5297ZM32.7127 80.2072H33.4284V79.0442H32.7127V78.3965H37.8694V79.0442H37.1537V80.2072H37.8694V80.8549H32.7127V80.2072ZM33.6682 83.1774V84.1866H36.9139V83.1774H33.6682ZM34.3839 79.0442V80.2072H36.2018V79.0442H34.3839Z" fill="white"/>
<path d="M43.7166 83.9428C43.2628 84.1257 42.7733 84.2028 42.2852 84.1682H38.8892V83.5277H42.5321C42.924 83.528 43.3129 83.4589 43.6808 83.3237C43.7202 83.2879 43.7202 78.2422 43.7202 78.2422H44.6685V84.8159H43.7202L43.7166 83.9428ZM40.8967 78.3066C43.4589 78.3066 43.4876 82.7225 40.8967 82.7225C38.3059 82.7225 38.3524 78.3066 40.8967 78.3066ZM40.8967 82.0819C42.1921 82.0819 42.1921 78.9686 40.8967 78.9686C39.6013 78.9686 39.6156 82.0819 40.8967 82.0819Z" fill="white"/>
<path d="M47.1413 78.3209C47.3906 78.3017 47.6411 78.3342 47.8772 78.4164C48.1133 78.4986 48.3299 78.6287 48.5134 78.7986C48.6968 78.9684 48.8432 79.1743 48.9433 79.4034C49.0434 79.6325 49.0951 79.8799 49.0951 80.1299C49.0951 80.3799 49.0434 80.6272 48.9433 80.8563C48.8432 81.0854 48.6968 81.2913 48.5134 81.4612C48.3299 81.631 48.1133 81.7611 47.8772 81.8433C47.6411 81.9255 47.3906 81.958 47.1413 81.9388C44.5576 81.9388 44.5111 78.3209 47.1413 78.3209ZM50.0041 83.0267H45.7922V82.3861H50.9381V84.8267H49.9898L50.0041 83.0267ZM47.1413 81.2374C48.4367 81.2374 48.4296 79.0509 47.1413 79.0509C45.853 79.0509 45.7922 81.2231 47.1413 81.2231V81.2374ZM50.9381 82.0211H49.9898V78.2529H50.9381V79.0509H51.6932V79.7666H50.9381V80.4251H51.6932V81.1408H50.9381V82.0211Z" fill="white"/>
<path d="M55.3326 82.5297H57.4368V84.8343H52.2837V82.5297H54.3879V81.9929H51.9902V81.3452H57.766V81.9929H55.3505L55.3326 82.5297ZM52.2837 80.2072H52.9994V79.0442H52.2837V78.3965H57.4368V79.0442H56.721V80.2072H57.4368V80.8549H52.2837V80.2072ZM53.2356 83.1774V84.1866H56.4813V83.1774H53.2356ZM53.9513 79.0442V80.2072H55.7692V79.0442H53.9513Z" fill="white"/>
<path d="M60.2568 78.3209C62.7868 78.3209 62.7618 82.2251 60.2568 82.2251C57.7518 82.2251 57.7625 78.3209 60.2568 78.3209ZM59.0759 82.7476H60.0242V84.179H64.0608V84.8267H59.0759V82.7476ZM60.2639 81.5094C61.5379 81.5094 61.5057 79.0366 60.2639 79.0366C59.0222 79.0366 59.0079 81.5094 60.2639 81.5094ZM63.982 83.0195H63.0373V78.2529H63.982V79.9098H64.7371V80.6255H63.982V83.0195Z" fill="white"/>
<path d="M67.1528 80.8402C66.6175 81.4629 65.945 81.9529 65.1882 82.2716L64.8303 81.5917C65.7142 81.1157 66.6768 80.4824 66.6768 79.3837V79.0509H65.1953V78.3961H69.078V79.0438H67.6466V79.3694C67.6466 80.3857 68.6021 81.1587 69.4788 81.5917L69.1389 82.2573C68.3604 81.9741 67.6738 81.4842 67.1528 80.8402ZM65.7214 82.6652H66.591V84.179H70.7922V84.8267H65.7321L65.7214 82.6652ZM69.758 80.4179H68.8096V79.7666H69.758V78.2529H70.7063V82.9515H69.758V80.4179Z" fill="white"/>
<path d="M73.5974 82.7009C73.1542 83.3595 72.5458 83.8901 71.8332 84.2397L71.4753 83.592C72.5489 82.8763 73.1358 82.1606 73.1358 80.8222V79.33H71.8726V78.6823H73.1358V78.1025H74.0841V78.6823H75.358V79.33H74.0698V80.8294C74.0616 81.3988 74.2128 81.9592 74.5062 82.4474C74.7996 82.9355 75.2235 83.332 75.7302 83.592L75.3724 84.2397C74.6616 83.8829 74.0514 83.3539 73.5974 82.7009ZM76.2133 81.0656H75.104V80.4178H76.2133V78.2457H77.1616V84.8266H76.2133V81.0656Z" fill="white"/>
</svg>
