<?xml version="1.0" encoding="utf-8"?>
<!-- Generator: Adobe Illustrator 26.0.1, SVG Export Plug-In . SVG Version: 6.00 Build 0)  -->
<svg version="1.1" id="Layer_1" xmlns="http://www.w3.org/2000/svg" xmlns:xlink="http://www.w3.org/1999/xlink" x="0px" y="0px"
	 viewBox="0 0 40 40" style="enable-background:new 0 0 40 40;" xml:space="preserve">
<style type="text/css">
	.st0{fill:none;}
	.st1{fill:#FBFBFB;}
	.st2{fill:#EEF1F1;}
	.st3{fill:#CAD1D5;}
	.st4{fill:#FFFFFF;}
	.st5{fill:#007766;}
	.st6{fill:#747C7F;}
	.st7{fill:#E6F4FF;}
	.st8{fill:#4AA5FF;}
	.st9{fill:#0C77E2;}
	.st10{fill:#005091;}
	.st11{fill:#E7E3FF;}
	.st12{fill:#A994FF;}
	.st13{fill:#543CE5;}
	.st14{fill:#8162FF;}
	.st15{fill:#3B30AA;}
	.st16{fill:none;stroke:#CAD1D5;stroke-width:5;stroke-linecap:round;stroke-linejoin:round;stroke-miterlimit:10;}
	.st17{fill:#E1FFFB;}
	.st18{fill:#57DCCF;}
	.st19{fill:#009B88;}
	.st20{fill:#34D6C6;}
</style>
<g>
	<rect x="0" y="0" class="st0" width="40" height="40"/>
	<path class="st1" d="M34.9,0H5.1C3.8,0,2.5,0.5,1.5,1.5C0.5,2.5,0,3.8,0,5.1v29.7c0,1.4,0.5,2.7,1.5,3.6c1,1,2.3,1.5,3.6,1.5h29.7
		c0.7,0,1.3-0.1,2-0.4c0.6-0.3,1.2-0.6,1.7-1.1c0.5-0.5,0.9-1,1.1-1.7c0.3-0.6,0.4-1.3,0.4-2V5.1c0-0.7-0.1-1.3-0.4-2
		C39.4,2.5,39,2,38.5,1.5c-0.5-0.5-1-0.9-1.7-1.1C36.2,0.1,35.5,0,34.9,0z"/>
	<path class="st2" d="M5.1,37.1c-0.6,0-1.1-0.2-1.6-0.6s-0.6-1-0.6-1.6V5.1c0-0.6,0.2-1.1,0.6-1.6c0.4-0.4,1-0.6,1.6-0.6h29.7
		c0.6,0,1.1,0.2,1.6,0.6s0.6,1,0.6,1.6v29.7c0,0.6-0.2,1.1-0.6,1.6s-1,0.6-1.6,0.6H5.1z"/>
	<path class="st3" d="M34.9,37.7H5.1c-0.7,0-1.5-0.3-2-0.8s-0.8-1.2-0.8-2V5.1c0-0.7,0.3-1.5,0.8-2s1.2-0.8,2-0.8h29.7
		c0.7,0,1.5,0.3,2,0.8c0.5,0.5,0.8,1.2,0.8,2v29.7c0,0.7-0.3,1.5-0.8,2C36.3,37.4,35.6,37.7,34.9,37.7z M5.1,3.6
		C4.7,3.6,4.3,3.7,4,4C3.7,4.3,3.6,4.7,3.6,5.1v29.7c0,0.4,0.2,0.8,0.5,1.1c0.3,0.3,0.7,0.5,1.1,0.5h29.7c0.4,0,0.8-0.2,1.1-0.5
		c0.3-0.3,0.5-0.7,0.5-1.1V5.1c0-0.4-0.2-0.8-0.5-1.1c-0.3-0.3-0.7-0.5-1.1-0.5H5.1z"/>
	<g>
		<g>
			<g>
				<path class="st4" d="M20,12.6c-5.7,0-10.4,4.3-10.9,9.8c0,0.2,0.1,0.4,0.3,0.4h21.2c0.2,0,0.4-0.2,0.3-0.4
					C30.4,16.9,25.7,12.6,20,12.6z"/>
				<path class="st3" d="M20,12.6c5.7,0,10.4,4.3,10.9,9.8c0,0.2-0.1,0.4-0.3,0.4H9.4c-0.2,0-0.4-0.2-0.3-0.4
					C9.6,16.9,14.3,12.6,20,12.6 M20,11.2c-3.1,0-6,1.1-8.3,3.2c-2.3,2.1-3.7,4.9-4,7.9c-0.1,0.5,0.1,1,0.4,1.3
					c0.3,0.4,0.8,0.6,1.3,0.6h21.2c0.5,0,1-0.2,1.3-0.6c0.3-0.4,0.5-0.9,0.4-1.3c-0.3-3-1.7-5.8-4-7.9C26,12.3,23.1,11.2,20,11.2
					L20,11.2z"/>
			</g>
		</g>
		<path class="st5" d="M17.8,22.8h0.1H17.8C17.8,22.7,17.8,22.8,17.8,22.8z"/>
	</g>
	<g>
		<path class="st3" d="M20,22.5c-0.2,0-0.5-0.1-0.6-0.3c-0.2-0.2-0.3-0.4-0.3-0.6v-6c0-0.2,0.1-0.5,0.3-0.6c0.2-0.2,0.4-0.3,0.6-0.3
			c0.1,0,0.2,0,0.3,0.1c0.1,0,0.2,0.1,0.3,0.2c0.1,0.1,0.2,0.2,0.2,0.3c0,0.1,0.1,0.2,0.1,0.3v6c0,0.1,0,0.2-0.1,0.3
			c0,0.1-0.1,0.2-0.2,0.3c-0.1,0.1-0.2,0.2-0.3,0.2C20.2,22.4,20.1,22.5,20,22.5z"/>
	</g>
	<g>
		<path class="st6" d="M20,20.7c-0.4,0-0.7,0.1-1,0.2c-0.8,0.3-1.3,1-1.5,1.8l0.1,0.1h3.6h1.5C22.3,21.7,21.3,20.7,20,20.7z"/>
	</g>
	<path class="st3" d="M20,6.9c-0.3,0-0.5-0.2-0.5-0.5V3.6c0-0.3,0.2-0.5,0.5-0.5s0.5,0.2,0.5,0.5v2.9C20.5,6.7,20.3,6.9,20,6.9z"/>
</g>
</svg>
