<?xml version="1.0" encoding="utf-8"?>
<!-- Generator: Adobe Illustrator 26.0.1, SVG Export Plug-In . SVG Version: 6.00 Build 0)  -->
<svg version="1.1" id="Layer_1" xmlns="http://www.w3.org/2000/svg" xmlns:xlink="http://www.w3.org/1999/xlink" x="0px" y="0px"
	 viewBox="0 0 540 250" style="enable-background:new 0 0 540 250;" xml:space="preserve">
<style type="text/css">
	.st0{fill:#F0F0F0;}
	.st1{fill:#DEDEDE;}
	.st2{fill:#F2F2F2;}
	.st3{fill:#E8E8E8;}
	.st4{fill:#FFFFFF;}
	.st5{fill:#DCDCDC;}
	.st6{fill:#C8C9CA;}
	.st7{fill:#ECECEC;}
	.st8{fill:#FDFDFD;}
	.st9{fill:#FAFAFA;}
	.st10{opacity:0.3;fill:#D9761F;}
	.st11{fill:#F1F1F1;}
	.st12{fill:#E1E1E1;}
	.st13{fill:#F4F4F4;}
	.st14{fill:#DBDCDC;}
	.st15{fill:#EAEAEA;}
	.st16{fill:#DDDDDD;}
	.st17{fill:#FCFCFC;}
	.st18{fill:#F7F7F7;}
	.st19{fill:#E9E9E9;}
	.st20{fill:#E2E2E2;}
	.st21{fill:#EEEEEF;}
	.st22{fill:#D8D8D8;}
</style>
<g>
	<ellipse class="st0" cx="272.6" cy="216.2" rx="251.7" ry="29"/>
	<g>
		<g>
			<path class="st1" d="M430.6,215.7h-88.3c-2.2,0-4-1.8-4-4v-32.4c0-2.2,1.8-4,4-4h88.3c2.2,0,4,1.8,4,4v32.4
				C434.6,213.9,432.8,215.7,430.6,215.7z"/>
			<rect x="354.3" y="97.9" class="st2" width="64.4" height="12.6"/>
			<path class="st1" d="M419.2,215.7h-65.4c-8.5,0-15.4-6.9-15.4-15.4V124c0-8.5,6.9-15.4,15.4-15.4h65.4c8.5,0,15.4,6.9,15.4,15.4
				v76.4C434.6,208.8,427.6,215.7,419.2,215.7z"/>
			<rect x="338.4" y="128.6" class="st3" width="96.2" height="69.2"/>
			<path class="st4" d="M425.9,101.5H347c-1,0-1.8-0.8-1.8-1.8V63.3c0-1,0.8-1.8,1.8-1.8h78.9c1,0,1.8,0.8,1.8,1.8v36.4
				C427.7,100.7,426.9,101.5,425.9,101.5z"/>
			<path class="st5" d="M425.9,61.5c1,0,1.8,0.8,1.8,1.8v36.4c0,1-0.8,1.8-1.8,1.8h-7.2v7h0.5c8.5,0,15.4,6.9,15.4,15.4v55.4v21
				v11.4c0,2.2-1.8,4-4,4h-11.4h-65.4h-11.4c-2.2,0-4-1.8-4-4v-11.4v-21V124c0-8.5,6.9-15.4,15.4-15.4h0.5v-7H347
				c-1,0-1.8-0.8-1.8-1.8V63.3c0-1,0.8-1.8,1.8-1.8H425.9 M425.9,60H347c-1.8,0-3.3,1.5-3.3,3.3v36.4c0,1.8,1.5,3.3,3.3,3.3h5.8v4.2
				c-4.1,0.2-8,2-11,4.9c-3.2,3.2-4.9,7.4-4.9,11.9v55.4v21v11.4c0,3,2.4,5.4,5.4,5.4h11.4h65.4h11.4c3,0,5.4-2.4,5.4-5.4v-11.4v-21
				V124c0-4.5-1.8-8.7-4.9-11.9c-3-3-6.8-4.7-11-4.9V103h5.8c1.8,0,3.3-1.5,3.3-3.3V63.3C429.2,61.5,427.7,60,425.9,60L425.9,60z"/>
		</g>
		<rect x="412.2" y="114" class="st6" width="52" height="86.7"/>
		<rect x="412.2" y="122.2" class="st7" width="52" height="86.7"/>
		<g>
			<g>
				<path class="st8" d="M60.8,130.5H26.1c-1,0-1.8-0.8-1.8-1.8v-7.4c0-1,0.8-1.8,1.8-1.8h34.7c1,0,1.8,0.8,1.8,1.8v7.4
					C62.7,129.7,61.9,130.5,60.8,130.5z"/>
				<path class="st9" d="M67.9,143.1H19.1c-0.7,0-1.3-0.6-1.3-1.3v-12.3c0-0.7,0.6-1.3,1.3-1.3h48.8c0.7,0,1.3,0.6,1.3,1.3v12.3
					C69.2,142.6,68.6,143.1,67.9,143.1z"/>
				<rect x="17.8" y="142.5" class="st7" width="51.3" height="1.4"/>
				<rect x="22.3" y="144.1" class="st10" width="42.3" height="0.7"/>
				<g>
					<rect x="22.3" y="142.5" class="st7" width="42.3" height="73.2"/>
					<g>
						<g>
							<rect x="22.3" y="152" class="st8" width="32.1" height="57.4"/>
							<rect x="58" y="152" class="st8" width="6.6" height="57.4"/>
						</g>
					</g>
				</g>
				<path class="st4" d="M69.9,142.8H17c-0.7,0-1.3-0.6-1.3-1.3v-1.3c0-0.7,0.6-1.3,1.3-1.3h52.9c0.7,0,1.3,0.6,1.3,1.3v1.3
					C71.3,142.2,70.7,142.8,69.9,142.8z"/>
				<g>
					<g>
						<g>
							<path class="st7" d="M70.8,142c0,1.1-0.8,1.9-1.9,1.9c-1,0-1.9-0.9-1.9-1.9c0-1.1,0.8-1.9,1.9-1.9
								C70,140,70.8,140.9,70.8,142z"/>
						</g>
						<g>
							<g>
								<path class="st7" d="M68.9,147.7c-0.3,0-0.6-0.3-0.6-0.6V142c0-0.4,0.3-0.6,0.6-0.6c0.3,0,0.6,0.3,0.6,0.6v5.1
									C69.6,147.4,69.3,147.7,68.9,147.7z"/>
							</g>
						</g>
					</g>
				</g>
				<g>
					<circle class="st4" cx="30.8" cy="160.5" r="5.5"/>
					<g>
						<g>
							<g>
								<g>
									<g>
										<g>
											<path class="st3" d="M30.4,158.6v-0.6h-0.4c0,0.1,0,0.1-0.1,0.2c0,0-0.1,0.1-0.1,0.1c-0.1,0-0.1,0.1-0.2,0.1
												c-0.1,0-0.1,0-0.2,0.1l-0.1-0.1c0.1,0,0.1,0,0.2-0.1c0.1,0,0.1-0.1,0.2-0.1c0.1,0,0.1-0.1,0.1-0.1c0,0,0-0.1,0-0.2v-0.1
												c0,0,0-0.1,0-0.1c0,0,0,0-0.1,0h-0.4v-0.1h0.4c0,0,0.1,0,0.1,0c0,0,0.1,0,0.1,0c0,0,0,0,0,0.1c0,0,0,0.1,0,0.1v0.1h0.3
												v-0.4h0.2v1c0,0,0,0.1,0,0.1C30.6,158.6,30.6,158.6,30.4,158.6L30.4,158.6z M29.8,159.1
												C29.8,159.1,29.7,159.1,29.8,159.1c-0.1-0.1-0.1-0.1-0.1-0.1v-0.4h0.2v0.3c0,0,0,0,0,0h0.8v0.1c0,0,0,0,0,0
												c0,0,0,0-0.1,0H29.8z"/>
										</g>
									</g>
									<g>
										<g>
											<path class="st3" d="M30.6,159.1h-0.8c0,0-0.1,0-0.1,0c0,0,0-0.1,0-0.1v-0.4h0.2v0.4c0,0,0,0,0,0h0.8L30.6,159.1
												C30.7,159,30.7,159,30.6,159.1C30.6,159.1,30.6,159.1,30.6,159.1z M29.7,158.6v0.4c0,0,0,0.1,0,0.1c0,0,0,0,0.1,0h0.8
												c0,0,0,0,0,0c0,0,0,0,0,0v-0.1h-0.8c0,0,0,0,0,0v-0.3H29.7z M30.5,158.7h-0.1v-0.6h-0.3c0,0.1-0.1,0.1-0.1,0.1
												c0,0-0.1,0.1-0.1,0.1c-0.1,0-0.1,0.1-0.2,0.1c-0.1,0-0.1,0-0.2,0.1l0,0l-0.1-0.1l0,0c0.1,0,0.1,0,0.2-0.1
												c0.1,0,0.1-0.1,0.2-0.1c0,0,0.1-0.1,0.1-0.1c0,0,0-0.1,0-0.2v-0.1c0,0,0-0.1,0-0.1c0,0,0,0-0.1,0h-0.4v-0.2h0.4
												c0,0,0.1,0,0.1,0c0,0,0.1,0,0.1,0c0,0,0,0,0,0.1c0,0,0,0.1,0,0.1v0.1h0.3v-0.4h0.2v1C30.6,158.6,30.6,158.6,30.5,158.7
												C30.6,158.7,30.6,158.7,30.5,158.7z M30.5,158.6L30.5,158.6c0.1,0,0.1,0,0.1,0c0,0,0,0,0-0.1v-1h-0.1v0.4h-0.4v-0.1
												c0,0,0-0.1,0-0.1c0,0,0,0,0-0.1c0,0,0,0-0.1,0c0,0-0.1,0-0.1,0h-0.4v0.1h0.4c0,0,0.1,0,0.1,0c0,0,0,0,0,0.1v0.1
												c0,0.1,0,0.1,0,0.2c0,0-0.1,0.1-0.1,0.1c-0.1,0-0.1,0.1-0.2,0.1c-0.1,0-0.1,0-0.2,0.1l0.1,0.1c0.1,0,0.1,0,0.2-0.1
												c0.1,0,0.1,0,0.2-0.1c0.1,0,0.1-0.1,0.1-0.1c0,0,0.1-0.1,0.1-0.1l0,0h0.4V158.6z"/>
										</g>
									</g>
								</g>
								<g>
									<g>
										<g>
											<path class="st3" d="M31.4,157.9c0,0.1,0,0.1,0,0.2c0,0.1-0.1,0.1-0.1,0.2c-0.1,0-0.1,0.1-0.2,0.1
												c-0.1,0-0.2,0.1-0.2,0.1l-0.1-0.1c0.1,0,0.1,0,0.2-0.1c0.1,0,0.1,0,0.2-0.1c0,0,0.1-0.1,0.1-0.1c0,0,0-0.1,0-0.2v-0.1
												c0,0,0-0.1,0-0.1c0,0,0,0-0.1,0h-0.4v-0.1h0.4c0,0,0.1,0,0.1,0c0,0,0.1,0,0.1,0c0,0,0,0,0,0.1
												C31.4,157.7,31.4,157.8,31.4,157.9L31.4,157.9z M31,158.8c0-0.1,0-0.1,0-0.2c0,0,0.1-0.1,0.1-0.1c0,0,0.1,0,0.2-0.1
												c0.1,0,0.1,0,0.2,0c0,0,0.1,0,0.2,0c0.1,0,0.1,0,0.2,0.1c0,0,0.1,0.1,0.1,0.1c0,0,0,0.1,0,0.2c0,0.1,0,0.1,0,0.2
												c0,0-0.1,0.1-0.1,0.1c0,0-0.1,0-0.2,0c-0.1,0-0.1,0-0.2,0c0,0-0.1,0-0.2,0c-0.1,0-0.1,0-0.2,0c0,0-0.1-0.1-0.1-0.1
												C31,158.9,31,158.8,31,158.8z M31.1,158.8C31.1,158.8,31.2,158.8,31.1,158.8c0.1,0.1,0.1,0.1,0.1,0.1c0,0,0.1,0,0.1,0
												c0,0,0.1,0,0.1,0s0.1,0,0.1,0c0,0,0.1,0,0.1,0c0,0,0.1,0,0.1-0.1c0,0,0-0.1,0-0.1s0-0.1,0-0.1c0,0,0,0-0.1-0.1
												c0,0-0.1,0-0.1,0c0,0-0.1,0-0.1,0c0,0-0.1,0-0.1,0c0,0-0.1,0-0.1,0C31.2,158.6,31.2,158.7,31.1,158.8
												C31.2,158.7,31.1,158.7,31.1,158.8z M31.7,158.4v-0.9h0.2v0.3h0.2v0.1h-0.2v0.3c0,0,0,0.1,0,0.1
												C31.9,158.4,31.9,158.4,31.7,158.4L31.7,158.4z"/>
										</g>
									</g>
									<g>
										<g>
											<path class="st3" d="M31.5,159.1c-0.1,0-0.1,0-0.2,0c-0.1,0-0.1,0-0.2,0c0,0-0.1-0.1-0.1-0.1c0,0-0.1-0.1-0.1-0.2
												c0-0.1,0-0.1,0.1-0.2c0,0,0.1-0.1,0.1-0.1c0,0,0.1,0,0.2-0.1c0.1,0,0.1,0,0.2,0c0,0,0.1,0,0.2,0c0.1,0,0.1,0,0.2,0.1
												c0,0,0.1,0.1,0.1,0.1c0,0,0,0.1,0,0.2c0,0.1,0,0.1,0,0.2c0,0-0.1,0.1-0.1,0.1c0,0-0.1,0-0.2,0
												C31.6,159.1,31.5,159.1,31.5,159.1z M31.5,158.5c0,0-0.1,0-0.2,0c-0.1,0-0.1,0-0.2,0c0,0-0.1,0.1-0.1,0.1
												c0,0,0,0.1,0,0.2c0,0.1,0,0.1,0,0.2c0,0,0.1,0.1,0.1,0.1c0,0,0.1,0,0.2,0c0.1,0,0.1,0,0.2,0c0,0,0.1,0,0.2,0
												c0.1,0,0.1,0,0.1,0c0,0,0.1-0.1,0.1-0.1c0,0,0-0.1,0-0.2c0-0.1,0-0.1,0-0.2c0,0-0.1-0.1-0.1-0.1c0,0-0.1,0-0.1,0
												C31.6,158.5,31.5,158.5,31.5,158.5z M31.5,159C31.4,159,31.4,159,31.5,159c-0.1,0-0.2,0-0.2,0c0,0-0.1,0-0.1-0.1
												c0,0,0-0.1,0-0.1c0,0,0-0.1,0-0.1c0,0,0.1,0,0.1-0.1c0,0,0.1,0,0.1,0c0,0,0.1,0,0.1,0c0,0,0.1,0,0.1,0c0,0,0.1,0,0.1,0
												c0,0,0.1,0,0.1,0.1c0,0,0,0.1,0,0.1c0,0,0,0.1,0,0.1c0,0-0.1,0-0.1,0.1C31.6,159,31.6,159,31.5,159
												C31.5,159,31.5,159,31.5,159z M31.5,158.6C31.4,158.6,31.4,158.6,31.5,158.6c-0.1,0-0.2,0-0.2,0c0,0-0.1,0-0.1,0.1
												c0,0,0,0,0,0.1c0,0,0,0.1,0,0.1c0,0,0,0,0.1,0.1c0,0,0.1,0,0.1,0c0,0,0.1,0,0.1,0s0.1,0,0.1,0c0,0,0.1,0,0.1,0
												c0,0,0.1,0,0.1,0c0,0,0,0,0-0.1c0,0,0-0.1,0-0.1c0,0,0,0-0.1-0.1C31.6,158.6,31.6,158.6,31.5,158.6
												C31.5,158.6,31.5,158.6,31.5,158.6z M30.8,158.5L30.8,158.5l-0.1-0.1l0,0c0.1,0,0.1,0,0.2-0.1c0.1,0,0.1,0,0.2-0.1
												c0,0,0.1-0.1,0.1-0.1c0,0,0-0.1,0-0.2v-0.1c0,0,0-0.1,0-0.1c0,0,0,0-0.1,0h-0.4v-0.2h0.4c0,0,0.1,0,0.1,0
												c0,0,0.1,0,0.1,0c0,0,0,0,0,0.1c0,0,0,0.1,0,0.1v0.1c0,0.1,0,0.2-0.1,0.2c0,0.1-0.1,0.1-0.1,0.2c-0.1,0-0.1,0.1-0.2,0.1
												C31,158.4,30.9,158.4,30.8,158.5L30.8,158.5z M30.8,158.3L30.8,158.3c0.1,0.1,0.2,0,0.3,0c0.1,0,0.1-0.1,0.2-0.1
												c0.1,0,0.1-0.1,0.1-0.1c0-0.1,0-0.1,0-0.2v-0.1c0,0,0-0.1,0-0.1c0,0,0,0,0-0.1c0,0,0,0-0.1,0c0,0-0.1,0-0.1,0h-0.4v0.1
												h0.4c0,0,0.1,0,0.1,0c0,0,0,0,0,0.1v0.1c0,0.1,0,0.1,0,0.2c0,0-0.1,0.1-0.1,0.1c0,0-0.1,0.1-0.2,0.1
												C30.9,158.3,30.8,158.3,30.8,158.3z M31.8,158.4h-0.1v-0.9h0.2v0.3h0.2v0.2h-0.2v0.3C31.9,158.4,31.9,158.4,31.8,158.4
												C31.9,158.4,31.9,158.4,31.8,158.4z M31.8,158.4L31.8,158.4c0.1,0,0.1,0,0.1,0c0,0,0,0,0-0.1V158h0.2v-0.1h-0.2v-0.3
												h-0.1V158.4z"/>
										</g>
									</g>
								</g>
								<g>
									<g>
										<g>
											<path class="st3" d="M28.1,160.6C28.1,160.5,28.1,160.5,28.1,160.6c0.1,0,0.2-0.1,0.2-0.1c0,0,0.1,0,0.1,0
												c0,0,0.1,0,0.1-0.1c0,0,0,0,0.1-0.1c0,0,0,0,0.1-0.1c0,0,0-0.1,0-0.1c0,0,0-0.1,0-0.1v-0.3c0,0,0-0.1,0-0.1
												c0,0,0,0-0.1,0h-0.4v-0.1h0.4c0,0,0.1,0,0.1,0c0,0,0.1,0,0.1,0c0,0,0,0,0,0.1c0,0,0,0.1,0,0.1v0.3c0,0.1,0,0.1,0,0.2
												c0,0.1-0.1,0.1-0.1,0.2c-0.1,0-0.1,0.1-0.2,0.1c-0.1,0-0.2,0.1-0.3,0.1L28.1,160.6z M29.1,161v-1.5h0.2v1.4
												c0,0,0,0.1,0,0.1C29.2,161,29.2,161,29.1,161L29.1,161z"/>
										</g>
									</g>
									<g>
										<g>
											<path class="st3" d="M29.2,161h-0.1v-1.6h0.2v1.4C29.3,160.9,29.3,161,29.2,161C29.3,161,29.2,161,29.2,161z M29.1,161
												L29.1,161c0.1,0,0.1,0,0.1,0c0,0,0,0,0-0.1v-1.4h-0.1V161z M28.1,160.7l-0.1-0.1l0,0c0,0,0.1,0,0.1,0c0,0,0.1,0,0.1,0
												c0,0,0.1,0,0.1,0c0,0,0.1,0,0.1-0.1c0,0,0,0,0.1-0.1c0,0,0,0,0.1-0.1c0,0,0,0,0-0.1c0,0,0-0.1,0-0.1v-0.3
												c0,0,0-0.1,0-0.1c0,0,0,0-0.1,0h-0.4v-0.2h0.4c0,0,0.1,0,0.1,0c0,0,0.1,0,0.1,0c0,0,0,0,0,0.1c0,0,0,0.1,0,0.1v0.3
												c0,0.1,0,0.1,0,0.2c0,0.1-0.1,0.1-0.1,0.2c-0.1,0-0.1,0.1-0.2,0.1C28.3,160.6,28.3,160.7,28.1,160.7L28.1,160.7z
												 M28.1,160.6L28.1,160.6c0.2,0.1,0.2,0,0.3,0c0.1,0,0.1-0.1,0.2-0.1c0.1,0,0.1-0.1,0.1-0.2c0-0.1,0-0.1,0-0.2v-0.3
												c0,0,0-0.1,0-0.1c0,0,0-0.1,0-0.1c0,0,0,0-0.1,0c0,0-0.1,0-0.1,0h-0.4v0.1h0.4c0.1,0,0.1,0,0.1,0c0,0,0,0,0,0.1v0.3
												c0,0,0,0.1,0,0.1c0,0,0,0.1,0,0.1c0,0,0,0-0.1,0.1c0,0,0,0-0.1,0.1c0,0-0.1,0-0.1,0.1c0,0-0.1,0-0.1,0
												C28.2,160.5,28.2,160.5,28.1,160.6C28.1,160.5,28.1,160.6,28.1,160.6z"/>
										</g>
									</g>
								</g>
								<g>
									<g>
										<g>
											<path class="st3" d="M29.3,160.2h1.4v0.1c0,0.1,0,0.1-0.1,0.1h-1.3V160.2z M29.5,160.7c0-0.1,0-0.1,0-0.1
												c0,0,0.1-0.1,0.1-0.1c0,0,0.1,0,0.2-0.1c0.1,0,0.1,0,0.2,0c0.1,0,0.1,0,0.2,0c0.1,0,0.1,0,0.2,0.1c0,0,0.1,0.1,0.1,0.1
												c0,0,0,0.1,0,0.1c0,0,0,0.1,0,0.1c0,0-0.1,0.1-0.1,0.1c0,0-0.1,0-0.2,0.1c-0.1,0-0.1,0-0.2,0c-0.1,0-0.1,0-0.2,0
												c-0.1,0-0.1,0-0.2-0.1c0,0-0.1-0.1-0.1-0.1C29.6,160.8,29.5,160.8,29.5,160.7z M29.7,160c-0.1,0-0.1,0-0.1,0
												c0,0,0-0.1,0-0.1v-0.4h0.1c0,0,0,0,0.1,0c0,0,0,0,0,0.1v0.3c0,0,0,0,0,0c0,0,0,0,0,0h0.8v0.1c0,0,0,0,0,0c0,0,0,0-0.1,0
												H29.7z M29.7,160.7C29.7,160.7,29.7,160.8,29.7,160.7c0,0.1,0.1,0.1,0.1,0.1c0,0,0.1,0,0.1,0c0,0,0.1,0,0.1,0
												c0,0,0.1,0,0.1,0c0,0,0.1,0,0.1,0c0,0,0.1,0,0.1-0.1c0,0,0,0,0-0.1c0,0,0,0,0-0.1c0,0,0,0-0.1-0.1c0,0-0.1,0-0.1,0
												c0,0-0.1,0-0.1,0c-0.1,0-0.2,0-0.3,0C29.7,160.6,29.7,160.7,29.7,160.7z"/>
										</g>
									</g>
									<g>
										<g>
											<path class="st3" d="M30.1,161c-0.1,0-0.1,0-0.2,0c-0.1,0-0.1,0-0.2-0.1c0,0-0.1-0.1-0.1-0.1c0,0,0-0.1,0-0.1
												c0-0.1,0-0.1,0-0.1c0,0,0.1-0.1,0.1-0.1c0,0,0.1,0,0.2-0.1c0.1,0,0.1,0,0.2,0c0.1,0,0.1,0,0.2,0c0.1,0,0.1,0,0.2,0.1
												c0,0,0.1,0.1,0.1,0.1c0,0,0,0.1,0,0.1c0,0.1,0,0.1,0,0.1c0,0-0.1,0.1-0.1,0.1c0,0-0.1,0-0.2,0.1
												C30.2,161,30.1,161,30.1,161z M30.1,160.4c-0.1,0-0.1,0-0.2,0c-0.1,0-0.1,0-0.2,0.1c0,0-0.1,0.1-0.1,0.1c0,0,0,0.1,0,0.1
												c0,0.1,0,0.1,0,0.1c0,0,0.1,0.1,0.1,0.1c0,0,0.1,0,0.2,0.1c0.1,0,0.3,0,0.4,0c0.1,0,0.1,0,0.2-0.1c0,0,0.1-0.1,0.1-0.1
												c0,0,0-0.1,0-0.1c0,0,0-0.1,0-0.1c0,0-0.1-0.1-0.1-0.1c0,0-0.1,0-0.2-0.1C30.2,160.4,30.1,160.4,30.1,160.4z M30.1,160.9
												c-0.1,0-0.1,0-0.1,0c0,0-0.1,0-0.1,0c0,0-0.1,0-0.1-0.1c0,0,0,0,0-0.1c0-0.1,0-0.1,0.1-0.1c0.1,0,0.1,0,0.3,0
												c0,0,0.1,0,0.1,0c0,0,0.1,0,0.1,0c0,0,0.1,0,0.1,0.1c0,0,0,0,0,0.1c0,0,0,0.1,0,0.1c0,0,0,0-0.1,0.1c0,0-0.1,0-0.1,0
												C30.1,160.9,30.1,160.9,30.1,160.9z M30.1,160.6c-0.1,0-0.2,0-0.2,0c-0.1,0-0.1,0.1-0.1,0.1c0,0,0,0,0,0.1c0,0,0,0,0.1,0
												c0,0,0.1,0,0.1,0c0,0,0.1,0,0.1,0c0,0,0.1,0,0.1,0c0,0,0.1,0,0.1,0c0,0,0,0,0.1,0c0,0,0,0,0-0.1c0,0,0,0,0-0.1
												c0,0,0,0-0.1,0c0,0-0.1,0-0.1,0C30.1,160.6,30.1,160.6,30.1,160.6z M30.7,160.3h-1.3v-0.2h1.4L30.7,160.3
												C30.8,160.3,30.7,160.3,30.7,160.3z M29.4,160.3h1.3c0,0,0.1,0,0.1-0.1v-0.1h-1.4V160.3z M30.5,160.1h-0.8
												c-0.1,0-0.1,0-0.1,0c0,0,0-0.1,0-0.1v-0.4h0.1c0,0,0.1,0,0.1,0c0,0,0,0.1,0,0.1v0.3c0,0,0,0,0,0c0,0,0,0,0,0h0.8
												L30.5,160.1C30.6,160,30.6,160,30.5,160.1C30.6,160,30.5,160.1,30.5,160.1z M29.6,159.5v0.4c0,0.1,0,0.1,0,0.1
												c0,0,0.1,0,0.1,0h0.8c0,0,0,0,0,0c0,0,0,0,0,0v-0.1h-0.8c0,0,0,0,0,0c0,0,0,0,0,0v-0.3c0,0,0,0,0-0.1
												C29.7,159.5,29.6,159.5,29.6,159.5L29.6,159.5z"/>
										</g>
									</g>
								</g>
								<g>
									<g>
										<g>
											<path class="st3" d="M31.2,159.8c0,0,0,0.1,0,0.1c0,0,0,0.1,0.1,0.1c0,0,0.1,0.1,0.1,0.1c0,0,0.1,0.1,0.1,0.1l-0.1,0.1
												c0,0-0.1,0-0.1-0.1c0,0-0.1,0-0.1-0.1c0,0-0.1-0.1-0.1-0.1c0,0-0.1-0.1-0.1-0.1c0,0.1-0.1,0.1-0.1,0.2
												c-0.1,0.1-0.1,0.1-0.2,0.1l-0.1-0.1c0,0,0.1-0.1,0.1-0.1c0,0,0.1-0.1,0.1-0.1c0,0,0.1-0.1,0.1-0.1c0,0,0-0.1,0-0.1v-0.3
												h0.1c0,0,0,0,0.1,0c0,0,0,0,0,0.1V159.8z M31.8,161v-0.4c0,0,0,0,0,0H31v-0.1h0.8c0,0,0.1,0,0.1,0c0,0,0,0,0,0.1v0.3
												c0,0,0,0.1,0,0.1C32,161,31.9,161,31.8,161L31.8,161z M31.8,160.4v-0.9H32v0.8c0,0,0,0.1,0,0.1
												C32,160.4,31.9,160.4,31.8,160.4L31.8,160.4z"/>
										</g>
									</g>
									<g>
										<g>
											<path class="st3" d="M31.9,161h-0.1v-0.4c0,0,0,0,0,0l0,0c0,0,0,0,0,0H31v-0.2h0.8c0,0,0.1,0,0.1,0c0,0,0,0.1,0,0.1v0.3
												C32,160.9,32,161,31.9,161C32,161,31.9,161,31.9,161z M31.8,161L31.8,161c0.1,0,0.1,0,0.1,0c0,0,0,0,0-0.1v-0.3
												c0,0,0-0.1,0-0.1c0,0,0,0-0.1,0H31v0.1h0.7c0,0,0,0,0,0V161z M31.9,160.4h-0.1v-0.9H32v0.8C32,160.3,32,160.3,31.9,160.4
												C32,160.4,31.9,160.4,31.9,160.4z M31.8,160.3L31.8,160.3c0.1,0,0.1,0,0.1,0c0,0,0,0,0-0.1v-0.8h-0.1V160.3z M30.8,160.4
												l-0.1-0.1l0,0c0,0,0.1-0.1,0.1-0.1c0,0,0.1-0.1,0.1-0.1c0,0,0.1-0.1,0.1-0.1c0,0,0-0.1,0-0.1v-0.3h0.1c0,0,0.1,0,0.1,0
												c0,0,0,0,0,0.1v0.2c0,0,0,0.1,0,0.1c0,0,0,0.1,0.1,0.1c0,0,0.1,0.1,0.1,0.1c0,0,0.1,0.1,0.1,0.1l0,0l-0.1,0.1l0,0
												c0,0-0.1,0-0.1-0.1c0,0-0.1,0-0.1-0.1c0,0-0.1-0.1-0.1-0.1c0,0,0,0-0.1-0.1c0,0-0.1,0.1-0.1,0.1
												C31,160.3,30.9,160.3,30.8,160.4L30.8,160.4z M30.7,160.2L30.7,160.2c0.2,0,0.2,0,0.3-0.1c0.1-0.1,0.1-0.1,0.1-0.2l0,0
												l0,0c0,0,0,0,0.1,0.1c0,0,0.1,0.1,0.1,0.1c0,0,0.1,0,0.1,0.1c0,0,0.1,0,0.1,0l0.1-0.1c0,0-0.1,0-0.1-0.1
												c0,0-0.1-0.1-0.1-0.1c0,0-0.1-0.1-0.1-0.1c0,0,0-0.1,0-0.1v-0.2c0,0,0,0,0,0c0,0,0,0,0,0h-0.1v0.3c0,0,0,0.1,0,0.1
												c0,0-0.1,0.1-0.1,0.1c0,0-0.1,0.1-0.1,0.1C30.8,160.2,30.7,160.2,30.7,160.2z"/>
										</g>
									</g>
								</g>
								<g>
									<g>
										<g>
											<path class="st3" d="M32.1,160.2h1.4v0.1c0,0.1,0,0.1-0.1,0.1h-0.5v0.1h0.4v0.3c0,0.1,0,0.1,0,0.2c0,0-0.1,0.1-0.2,0.1
												h-0.7c0,0-0.1,0-0.1,0c0,0,0-0.1,0-0.1v-0.4h0.4v-0.1h-0.6V160.2z M32.4,159.6h-0.2v-0.1h1.1v0.1h-0.2v0.2c0,0,0,0,0,0
												c0,0,0,0,0,0h0.2v0.1c0,0.1,0,0.1-0.1,0.1h-1.1v-0.1h0.2c0,0,0,0,0,0c0,0,0,0,0,0V159.6z M33.1,160.9
												C33.1,160.9,33.1,160.9,33.1,160.9C33.1,160.8,33.1,160.8,33.1,160.9l0.1-0.3h-0.7v0.2c0,0,0,0,0,0H33.1z M33,159.9
												C33,159.9,33,159.9,33,159.9C33,159.9,33,159.9,33,159.9l0-0.3h-0.4v0.2c0,0,0,0,0,0c0,0,0,0,0,0H33z"/>
										</g>
									</g>
									<g>
										<g>
											<path class="st3" d="M33.1,161h-0.7c0,0-0.1,0-0.1,0c0,0,0-0.1,0-0.1v-0.4h0.4v-0.1h-0.6v-0.2h1.4v0.1
												c0,0.1,0,0.1-0.1,0.1h-0.5v0.1h0.4v0.3c0,0.1,0,0.1-0.1,0.2C33.2,161,33.2,161,33.1,161z M32.3,160.5v0.4
												c0,0,0,0.1,0,0.1c0,0,0.1,0,0.1,0h0.7c0.1,0,0.1,0,0.1-0.1c0,0,0-0.1,0-0.1v-0.3h-0.4v-0.2h0.6c0,0,0.1,0,0.1-0.1v-0.1
												h-1.4v0.1h0.6v0.2H32.3z M33.1,160.9h-0.6c0,0-0.1,0-0.1-0.1v-0.2h0.7L33.1,160.9C33.2,160.8,33.2,160.9,33.1,160.9
												C33.1,160.9,33.1,160.9,33.1,160.9z M32.5,160.6v0.2c0,0,0,0,0,0h0.6c0,0,0,0,0,0c0,0,0,0,0,0v-0.2H32.5z M33.3,160.1
												h-1.1v-0.2h0.2c0,0,0,0,0,0c0,0,0,0,0,0v-0.2h-0.2v-0.2h1.1v0.2h-0.2v0.2c0,0,0,0,0,0c0,0,0,0,0,0h0.2L33.3,160.1
												C33.4,160,33.4,160.1,33.3,160.1z M32.2,160h1.1c0,0,0.1,0,0.1-0.1v0h-0.2l0,0c0,0,0,0,0,0c0,0,0,0,0,0v-0.2h0.2v-0.1
												h-1.1v0.1h0.2v0.2c0,0,0,0,0,0c0,0,0,0,0,0l0,0h-0.2V160z M33,159.9h-0.3c0,0,0,0-0.1,0c0,0,0,0,0-0.1v-0.2H33L33,159.9
												C33,159.9,33,159.9,33,159.9C33,159.9,33,159.9,33,159.9z M32.6,159.6v0.2c0,0,0,0,0,0c0,0,0,0,0,0H33c0,0,0,0,0,0
												c0,0,0,0,0,0v-0.2H32.6z"/>
										</g>
									</g>
								</g>
							</g>
						</g>
						<path class="st11" d="M34.6,160.2c0,0,0,0.1,0,0.1c0,0.7-1.7,1.3-3.8,1.3c-2.1,0-3.8-0.6-3.8-1.3c0,0,0-0.1,0-0.1
							c-0.3,0.2-0.4,0.4-0.4,0.7c0,0.8,1.9,1.5,4.2,1.5s4.2-0.7,4.2-1.5C35,160.6,34.9,160.4,34.6,160.2z"/>
						<path class="st3" d="M30.8,154.9c-3,0-5.5,2.5-5.5,5.5c0,3,2.5,5.5,5.5,5.5c3,0,5.5-2.5,5.5-5.5
							C36.3,157.4,33.8,154.9,30.8,154.9z M30.8,155.3c2.8,0,5.1,2.3,5.1,5.1c0,1-0.3,2-0.8,2.7h-8.7c-0.5-0.8-0.8-1.7-0.8-2.7
							C25.6,157.6,27.9,155.3,30.8,155.3z"/>
						<g>
							<path class="st4" d="M27.9,164c0,0.1-0.1,0.2-0.2,0.2l0-0.1c0.1-0.1,0.2-0.1,0.2-0.3v-0.1H28v0.1c0,0.1,0.1,0.2,0.2,0.3
								l0,0.1C28.1,164.1,28,164,27.9,164z M28.2,164.3h-0.5v-0.1h0.6v0.3h-0.1V164.3z M28.2,163.7h0.1v0.5h-0.1V163.7z"/>
							<path class="st4" d="M28.9,164.2h0.3v0.3h-0.6v-0.3h0.3v-0.1h-0.3v-0.1h0.7v0.1L28.9,164.2L28.9,164.2z M28.5,163.9
								L28.5,163.9l0.1-0.1h-0.1v-0.1h0.6v0.1H29v0.1h0.1v0.1L28.5,163.9L28.5,163.9z M28.6,164.3v0.1H29v-0.1H28.6z M28.7,163.8
								v0.1h0.2v-0.1H28.7z"/>
							<path class="st4" d="M29.8,164.4c-0.1,0-0.1,0-0.2,0h-0.4v-0.1h0.4C29.7,164.3,29.8,164.3,29.8,164.4c0-0.1,0-0.7,0-0.7h0.1
								v0.8h-0.1V164.4z M29.5,163.7c0.3,0,0.3,0.5,0,0.5C29.2,164.2,29.2,163.7,29.5,163.7z M29.5,164.2c0.2,0,0.2-0.4,0-0.4
								C29.3,163.8,29.3,164.2,29.5,164.2z"/>
							<path class="st4" d="M30.2,163.7c0.3,0,0.3,0.4,0,0.4C29.9,164.1,29.9,163.7,30.2,163.7z M30.6,164.3h-0.5v-0.1h0.6v0.3h-0.1
								V164.3z M30.2,164.1c0.2,0,0.2-0.3,0-0.3C30.1,163.8,30.1,164.1,30.2,164.1z M30.7,164.1h-0.1v-0.5h0.1v0.1h0.1v0.1h-0.1v0.1
								h0.1v0.1h-0.1V164.1z"/>
							<path class="st4" d="M31.2,164.2h0.3v0.3h-0.6v-0.3h0.3v-0.1h-0.3v-0.1h0.7v0.1L31.2,164.2L31.2,164.2z M30.9,163.9
								L30.9,163.9l0.1-0.1h-0.1v-0.1h0.6v0.1h-0.1v0.1h0.1v0.1L30.9,163.9L30.9,163.9z M31,164.3v0.1h0.4v-0.1H31z M31.1,163.8v0.1
								h0.2v-0.1H31.1z"/>
							<path class="st4" d="M31.8,163.7c0.3,0,0.3,0.5,0,0.5C31.5,164.2,31.5,163.7,31.8,163.7z M31.7,164.2h0.1v0.2h0.5v0.1h-0.6
								V164.2z M31.8,164.1c0.2,0,0.2-0.3,0-0.3C31.7,163.8,31.7,164.1,31.8,164.1z M32.3,164.3h-0.1v-0.6h0.1v0.2h0.1v0.1h-0.1
								V164.3z"/>
							<path class="st4" d="M32.7,164c0,0-0.2,0.1-0.2,0.2l0-0.1c0.1-0.1,0.2-0.1,0.2-0.3v0h-0.2v-0.1h0.5v0.1h-0.2v0
								c0,0.1,0.1,0.2,0.2,0.3l0,0.1C32.8,164.1,32.7,164.1,32.7,164z M32.5,164.2h0.1v0.2h0.5v0.1h-0.6V164.2z M33,164h-0.1v-0.1
								L33,164v-0.3h0.1v0.6H33V164z"/>
							<path class="st4" d="M33.4,164.2c0,0.1-0.1,0.2-0.2,0.2l0-0.1c0.1-0.1,0.2-0.2,0.2-0.3v-0.2h-0.2v-0.1h0.2v-0.1h0.1v0.1h0.2
								v0.1h-0.2v0.2c0,0.1,0.1,0.3,0.2,0.3l0,0.1C33.6,164.4,33.5,164.3,33.4,164.2z M33.8,164h-0.1V164L33.8,164v-0.3h0.1v0.8
								h-0.1V164z"/>
						</g>
					</g>
				</g>
			</g>
			<path class="st5" d="M60.8,119.4c1,0,1.8,0.8,1.8,1.8v6.9h5.2c0.7,0,1.3,0.6,1.3,1.3v9.3h0.7c0.7,0,1.3,0.6,1.3,1.3v1.3
				c0,0.4-0.2,0.8-0.5,1c-0.2,0.6-0.6,1.1-1.2,1.3v3.3c0,0.3-0.3,0.6-0.6,0.6c-0.3,0-0.6-0.3-0.6-0.6v-3.2h-3.7v0.2v0.7v7.2v57.4
				v6.3H22.3v-6.3V152v-7.2v-0.7v-0.2h-4.5v-1.2H17c-0.7,0-1.3-0.6-1.3-1.3v-1.3c0-0.7,0.6-1.3,1.3-1.3h0.7v-9.3
				c0-0.7,0.6-1.3,1.3-1.3h5.2v-6.9c0-1,0.8-1.8,1.8-1.8H60.8 M60.8,118H26.1c-1.8,0-3.3,1.5-3.3,3.3v5.5h-3.8
				c-1.5,0-2.8,1.2-2.8,2.8v7.9c-1.2,0.3-2,1.4-2,2.7v1.3c0,1.3,0.9,2.4,2.1,2.7v1.3h1.4h3.1v6.6v57.4v6.3v1.4h1.4h42.3h1.4v-1.4
				v-6.3V152v-6.6h0.8v1.7c0,1.1,0.9,2.1,2.1,2.1c1.1,0,2.1-0.9,2.1-2.1v-2.5c0.5-0.4,0.8-0.8,1-1.4c0.4-0.5,0.7-1.1,0.7-1.8v-1.3
				c0-1.3-0.9-2.3-2-2.7v-7.9c0-1.5-1.2-2.8-2.8-2.8h-3.8v-5.5C64.1,119.5,62.7,118,60.8,118L60.8,118z"/>
		</g>
		<g>
			<g>
				<path class="st9" d="M323,215.7H211.6c-2.8,0-5-2.3-5-5v-40.9c0-2.8,2.3-5,5-5H323c2.8,0,5,2.3,5,5v40.9
					C328,213.5,325.8,215.7,323,215.7z"/>
				<rect x="226.7" y="25.3" class="st2" width="81.3" height="15.9"/>
				<path class="st9" d="M309,215.7h-83.3c-10.5,0-19.1-8.6-19.1-19.1V56c0-10.5,8.6-19.1,19.1-19.1H309C319.5,37,328,45.5,328,56
					v140.6C328,207.2,319.5,215.7,309,215.7z"/>
				<rect x="206.6" y="75.7" class="st4" width="121.4" height="118.4"/>
				<path class="st9" d="M317.5,30.2H217.1c-1.1,0-2-0.9-2-2V8.2c0-1.1,0.9-2,2-2h100.4c1.1,0,2,0.9,2,2v20.1
					C319.5,29.3,318.6,30.2,317.5,30.2z"/>
				<rect x="206.6" y="80.9" class="st3" width="121.4" height="107.9"/>
				<g>
					<circle class="st4" cx="267.3" cy="134.9" r="29.5"/>
					<circle class="st4" cx="267.3" cy="134.9" r="30.9"/>
					<g>
						<g>
							<g>
								<g>
									<g>
										<g>
											<path class="st3" d="M265.6,125.2v-3.1h-2c-0.1,0.3-0.3,0.6-0.5,0.8c-0.2,0.2-0.5,0.4-0.8,0.6c-0.3,0.2-0.6,0.3-0.9,0.4
												c-0.3,0.1-0.7,0.2-1,0.3l-0.5-0.6c0.4-0.1,0.7-0.2,1.1-0.3c0.3-0.1,0.7-0.3,0.9-0.5c0.3-0.2,0.5-0.4,0.6-0.6
												c0.2-0.2,0.2-0.5,0.2-0.9v-0.5c0-0.2,0-0.4-0.1-0.5c-0.1-0.1-0.2-0.1-0.4-0.1h-2.1v-0.8h2.2c0.2,0,0.4,0,0.6,0.1
												c0.2,0,0.3,0.1,0.4,0.2c0.1,0.1,0.2,0.2,0.2,0.4c0,0.2,0.1,0.3,0.1,0.6v0.6h1.9v-2h0.9v5.4c0,0.2,0,0.3-0.1,0.4
												c0,0.1-0.2,0.1-0.3,0.1H265.6z M262.2,127.5c-0.2,0-0.4-0.1-0.5-0.2c-0.1-0.1-0.2-0.3-0.2-0.5v-2.1h0.9v1.8
												c0,0.1,0,0.2,0.1,0.2h4.2v0.4c0,0.1,0,0.2-0.1,0.3c-0.1,0.1-0.1,0.1-0.3,0.1H262.2z"/>
										</g>
									</g>
									<g>
										<g>
											<path class="st3" d="M266.3,127.5h-4.1c-0.2,0-0.4-0.1-0.6-0.2c-0.1-0.1-0.2-0.3-0.2-0.5v-2.2h1.1v1.9c0,0.1,0,0.1,0,0.1
												l4.2,0v0.5c0,0.1,0,0.2-0.1,0.3C266.6,127.5,266.5,127.5,266.3,127.5z M261.6,124.8v2c0,0.2,0.1,0.3,0.2,0.4
												c0.1,0.1,0.2,0.2,0.4,0.2h4.1c0.1,0,0.2,0,0.2-0.1c0,0,0.1-0.1,0.1-0.2v-0.3h-4.1c-0.1,0-0.2,0-0.2-0.2v-1.7H261.6z
												 M266.1,125.3h-0.6v-3.1h-1.8c-0.1,0.3-0.3,0.6-0.5,0.8c-0.2,0.2-0.5,0.4-0.8,0.6c-0.3,0.2-0.6,0.3-0.9,0.4
												c-0.3,0.1-0.7,0.2-1,0.3l-0.1,0l-0.6-0.7l0.1,0c0.4-0.1,0.7-0.2,1.1-0.3c0.3-0.1,0.6-0.3,0.9-0.4
												c0.3-0.2,0.5-0.4,0.6-0.6c0.2-0.2,0.2-0.5,0.2-0.8v-0.5c0-0.2,0-0.4-0.1-0.4c0-0.1-0.2-0.1-0.4-0.1h-2.1v-0.9h2.3
												c0.2,0,0.4,0,0.6,0.1c0.2,0,0.3,0.1,0.4,0.2c0.1,0.1,0.2,0.2,0.2,0.4c0,0.2,0.1,0.4,0.1,0.6v0.5h1.7v-2h1.1v5.5
												c0,0.2,0,0.3-0.1,0.4C266.4,125.3,266.3,125.3,266.1,125.3z M265.7,125.1h0.4c0.1,0,0.2,0,0.3-0.1c0,0,0.1-0.1,0.1-0.3
												v-5.3h-0.7v2h-2v-0.7c0-0.2,0-0.4-0.1-0.6c0-0.1-0.1-0.2-0.2-0.3c-0.1-0.1-0.2-0.1-0.3-0.2c-0.1,0-0.3-0.1-0.5-0.1h-2.1
												v0.6h2c0.3,0,0.4,0.1,0.5,0.2c0.1,0.1,0.1,0.3,0.1,0.5v0.5c0,0.3-0.1,0.7-0.3,0.9c-0.2,0.2-0.4,0.5-0.7,0.6
												c-0.3,0.2-0.6,0.3-0.9,0.5c-0.3,0.1-0.6,0.2-1,0.3l0.4,0.5c0.3-0.1,0.6-0.2,0.9-0.3c0.3-0.1,0.6-0.3,0.9-0.4
												c0.3-0.2,0.5-0.4,0.7-0.6c0.2-0.2,0.4-0.5,0.5-0.8l0-0.1h2.1V125.1z"/>
										</g>
									</g>
								</g>
								<g>
									<g>
										<g>
											<path class="st3" d="M270.9,121.2c0,0.4-0.1,0.8-0.3,1.1c-0.2,0.3-0.4,0.6-0.7,0.8c-0.3,0.2-0.6,0.4-1,0.6
												c-0.4,0.2-0.8,0.3-1.2,0.4l-0.5-0.6c0.4-0.1,0.7-0.2,1-0.3c0.3-0.1,0.6-0.3,0.9-0.4c0.3-0.2,0.5-0.4,0.6-0.6
												c0.2-0.2,0.2-0.5,0.2-0.9v-0.3c0-0.2,0-0.4-0.1-0.5c-0.1-0.1-0.2-0.1-0.4-0.1h-2.1v-0.8h2.2c0.2,0,0.4,0,0.6,0.1
												c0.2,0,0.3,0.1,0.4,0.2c0.1,0.1,0.2,0.2,0.2,0.4c0,0.2,0.1,0.3,0.1,0.6V121.2z M268.4,125.9c0-0.4,0.1-0.6,0.3-0.9
												c0.2-0.2,0.4-0.4,0.6-0.5c0.3-0.1,0.5-0.2,0.8-0.3c0.3,0,0.6-0.1,0.8-0.1c0.3,0,0.5,0,0.8,0.1c0.3,0,0.6,0.1,0.8,0.3
												c0.2,0.1,0.5,0.3,0.6,0.5c0.2,0.2,0.2,0.5,0.2,0.9c0,0.4-0.1,0.6-0.2,0.9c-0.2,0.2-0.4,0.4-0.6,0.5
												c-0.2,0.1-0.5,0.2-0.8,0.3c-0.3,0-0.6,0.1-0.8,0.1c-0.3,0-0.5,0-0.8-0.1c-0.3,0-0.6-0.1-0.8-0.3
												c-0.3-0.1-0.5-0.3-0.6-0.5C268.5,126.6,268.4,126.3,268.4,125.9z M269.3,125.9c0,0.2,0.1,0.4,0.2,0.5
												c0.1,0.1,0.3,0.2,0.4,0.3c0.2,0.1,0.3,0.1,0.5,0.1c0.2,0,0.4,0,0.5,0s0.3,0,0.5,0c0.2,0,0.4-0.1,0.5-0.1
												c0.2-0.1,0.3-0.2,0.4-0.3c0.1-0.1,0.2-0.3,0.2-0.5c0-0.2-0.1-0.4-0.2-0.5c-0.1-0.1-0.3-0.2-0.4-0.3
												c-0.2-0.1-0.3-0.1-0.5-0.1c-0.2,0-0.4,0-0.5,0c-0.1,0-0.3,0-0.5,0c-0.2,0-0.4,0.1-0.5,0.1c-0.2,0.1-0.3,0.2-0.4,0.3
												C269.4,125.5,269.3,125.7,269.3,125.9z M272.5,124v-4.7h0.9v1.8h1.1v0.8h-1.1v1.7c0,0.2,0,0.3-0.1,0.4
												c-0.1,0.1-0.2,0.1-0.3,0.1H272.5z"/>
										</g>
									</g>
									<g>
										<g>
											<path class="st3" d="M271,127.7c-0.3,0-0.6,0-0.9-0.1c-0.3,0-0.6-0.1-0.9-0.3c-0.3-0.1-0.5-0.3-0.7-0.5
												c-0.2-0.2-0.3-0.5-0.3-0.9c0-0.4,0.1-0.7,0.3-0.9c0.2-0.2,0.4-0.4,0.7-0.6c0.3-0.1,0.6-0.2,0.9-0.3
												c0.3,0,0.6-0.1,0.8-0.1c0.3,0,0.5,0,0.8,0.1c0.3,0.1,0.6,0.1,0.8,0.3c0.3,0.1,0.5,0.3,0.6,0.6c0.2,0.2,0.3,0.5,0.3,0.9
												c0,0.4-0.1,0.7-0.3,0.9c-0.2,0.2-0.4,0.4-0.6,0.5c-0.3,0.1-0.5,0.2-0.8,0.3C271.5,127.7,271.2,127.7,271,127.7z
												 M271,124.2c-0.2,0-0.5,0-0.8,0.1c-0.3,0-0.6,0.1-0.8,0.3c-0.2,0.1-0.5,0.3-0.6,0.5c-0.2,0.2-0.2,0.5-0.2,0.8
												c0,0.3,0.1,0.6,0.2,0.8c0.2,0.2,0.4,0.4,0.6,0.5c0.2,0.1,0.5,0.2,0.8,0.2c0.3,0,0.6,0.1,0.8,0.1c0.3,0,0.5,0,0.8-0.1
												c0.3,0,0.6-0.1,0.8-0.2c0.2-0.1,0.4-0.3,0.6-0.5c0.2-0.2,0.2-0.5,0.2-0.8c0-0.3-0.1-0.6-0.2-0.8
												c-0.2-0.2-0.4-0.4-0.6-0.5c-0.2-0.1-0.5-0.2-0.8-0.3C271.5,124.3,271.2,124.2,271,124.2z M271,126.9c-0.2,0-0.3,0-0.5,0
												c-0.2,0-0.4-0.1-0.6-0.1c-0.2-0.1-0.3-0.2-0.5-0.3c-0.1-0.1-0.2-0.3-0.2-0.6c0-0.2,0.1-0.4,0.2-0.6
												c0.1-0.1,0.3-0.2,0.5-0.3c0.2-0.1,0.4-0.1,0.6-0.2c0.2,0,0.4,0,0.5,0c0.1,0,0.3,0,0.5,0c0.2,0,0.4,0.1,0.6,0.2
												c0.2,0.1,0.3,0.2,0.5,0.3c0.1,0.1,0.2,0.3,0.2,0.6c0,0.2-0.1,0.4-0.2,0.6c-0.1,0.1-0.3,0.2-0.4,0.3
												c-0.2,0.1-0.4,0.1-0.6,0.1C271.3,126.9,271.1,126.9,271,126.9z M271,125c-0.1,0-0.3,0-0.5,0c-0.2,0-0.4,0.1-0.5,0.1
												c-0.2,0.1-0.3,0.2-0.4,0.3c-0.1,0.1-0.2,0.3-0.2,0.4c0,0.2,0.1,0.3,0.2,0.4c0.1,0.1,0.2,0.2,0.4,0.3
												c0.2,0.1,0.3,0.1,0.5,0.1c0.2,0,0.4,0,0.5,0c0.1,0,0.3,0,0.5,0c0.2,0,0.4-0.1,0.5-0.1c0.2-0.1,0.3-0.2,0.4-0.3
												c0.1-0.1,0.1-0.3,0.1-0.4c0-0.2-0.1-0.3-0.2-0.4c-0.1-0.1-0.2-0.2-0.4-0.3c-0.2-0.1-0.3-0.1-0.5-0.1
												C271.3,125,271.1,125,271,125z M267.6,124.2l-0.6-0.7l0.1,0c0.3-0.1,0.7-0.2,1-0.3c0.3-0.1,0.6-0.3,0.9-0.4
												c0.3-0.2,0.5-0.4,0.6-0.6c0.2-0.2,0.2-0.5,0.2-0.8v-0.3c0-0.2,0-0.4-0.1-0.4c0-0.1-0.2-0.1-0.4-0.1h-2.1v-0.9h2.3
												c0.2,0,0.4,0,0.6,0.1c0.2,0,0.3,0.1,0.4,0.2c0.1,0.1,0.2,0.2,0.2,0.4c0,0.2,0.1,0.4,0.1,0.6v0.4c0,0.4-0.1,0.8-0.3,1.1
												c-0.2,0.3-0.4,0.6-0.7,0.8c-0.3,0.2-0.7,0.4-1,0.6C268.5,123.9,268.1,124,267.6,124.2L267.6,124.2z M267.3,123.5l0.4,0.5
												c0.4-0.1,0.8-0.2,1.2-0.4c0.4-0.2,0.7-0.3,1-0.6c0.3-0.2,0.5-0.5,0.7-0.8c0.2-0.3,0.3-0.7,0.3-1.1v-0.4
												c0-0.2,0-0.4-0.1-0.6c0-0.1-0.1-0.2-0.2-0.3c-0.1-0.1-0.2-0.1-0.3-0.2c-0.1,0-0.3-0.1-0.5-0.1h-2.1v0.6h2
												c0.3,0,0.4,0.1,0.5,0.2c0.1,0.1,0.1,0.3,0.1,0.5v0.3c0,0.3-0.1,0.6-0.3,0.9c-0.2,0.2-0.4,0.5-0.7,0.6
												c-0.3,0.2-0.6,0.3-0.9,0.4C267.9,123.3,267.6,123.4,267.3,123.5z M273,124.1h-0.6v-4.9h1.1v1.8h1.1v0.9h-1.1v1.6
												c0,0.2,0,0.3-0.1,0.4C273.3,124,273.2,124.1,273,124.1z M272.6,123.9h0.4c0.1,0,0.2,0,0.3-0.1c0,0,0.1-0.1,0.1-0.3v-1.8
												h1.1v-0.6h-1.1v-1.8h-0.7V123.9z"/>
										</g>
									</g>
								</g>
								<g>
									<g>
										<g>
											<path class="st3" d="M252.9,135.4c0.2-0.1,0.3-0.1,0.5-0.2c0.2-0.1,0.4-0.1,0.6-0.2c0.2-0.1,0.4-0.2,0.5-0.3
												c0.2-0.1,0.3-0.2,0.4-0.3c0.1-0.1,0.2-0.2,0.3-0.3c0.1-0.1,0.2-0.2,0.3-0.4c0.1-0.1,0.1-0.3,0.2-0.4
												c0-0.1,0.1-0.3,0.1-0.5v-1.4c0-0.2,0-0.4-0.1-0.4c-0.1-0.1-0.2-0.1-0.5-0.1h-2.1v-0.8h2.3c0.2,0,0.5,0,0.6,0.1
												c0.2,0,0.3,0.1,0.4,0.2s0.2,0.2,0.2,0.4c0,0.2,0.1,0.4,0.1,0.6v1.5c0,0.4-0.1,0.8-0.3,1.1c-0.2,0.3-0.4,0.6-0.7,0.9
												c-0.3,0.3-0.6,0.5-1,0.7c-0.4,0.2-0.9,0.4-1.4,0.5L252.9,135.4z M258.5,137.8v-8.2h0.9v7.7c0,0.2,0,0.3-0.1,0.4
												s-0.2,0.1-0.3,0.1H258.5z"/>
										</g>
									</g>
									<g>
										<g>
											<path class="st3" d="M258.9,137.8h-0.6v-8.3h1.1v7.7c0,0.2,0,0.4-0.1,0.4C259.2,137.8,259.1,137.8,258.9,137.8z
												 M258.5,137.7h0.4c0.1,0,0.2,0,0.3-0.1c0,0,0.1-0.1,0.1-0.3v-7.6h-0.7V137.7z M253.3,136.1l-0.6-0.8l0.1,0
												c0.2-0.1,0.3-0.1,0.5-0.2c0.2-0.1,0.4-0.1,0.5-0.2c0.2-0.1,0.3-0.2,0.5-0.3c0.2-0.1,0.3-0.2,0.4-0.3
												c0.1-0.1,0.2-0.2,0.3-0.3c0.1-0.1,0.2-0.2,0.3-0.4c0.1-0.1,0.1-0.3,0.2-0.4c0-0.1,0.1-0.3,0.1-0.4v-1.4
												c0-0.2,0-0.3-0.1-0.4c0,0-0.2-0.1-0.4-0.1H253V130h2.3c0.3,0,0.5,0,0.6,0.1c0.2,0,0.3,0.1,0.5,0.2
												c0.1,0.1,0.2,0.3,0.3,0.4c0.1,0.2,0.1,0.4,0.1,0.6v1.5c0,0.4-0.1,0.8-0.3,1.1c-0.2,0.3-0.4,0.7-0.7,0.9
												c-0.3,0.3-0.6,0.5-1,0.7C254.4,135.8,253.9,136,253.3,136.1L253.3,136.1z M253,135.4l0.4,0.5c0.5-0.1,0.9-0.3,1.3-0.5
												c0.4-0.2,0.7-0.4,1-0.7c0.3-0.3,0.5-0.6,0.7-0.9c0.2-0.3,0.2-0.7,0.2-1.1v-1.5c0-0.2,0-0.4-0.1-0.6
												c0-0.1-0.1-0.3-0.2-0.4c-0.1-0.1-0.2-0.2-0.4-0.2c-0.2,0-0.4-0.1-0.6-0.1h-2.2v0.6h2c0.3,0,0.5,0,0.6,0.2
												c0.1,0.1,0.1,0.3,0.1,0.5v1.4c0,0.2,0,0.3-0.1,0.5c0,0.2-0.1,0.3-0.2,0.4c-0.1,0.1-0.2,0.3-0.3,0.4
												c-0.1,0.1-0.2,0.2-0.4,0.3c-0.1,0.1-0.3,0.2-0.5,0.3c-0.2,0.1-0.3,0.2-0.5,0.3c-0.2,0.1-0.4,0.1-0.6,0.2
												C253.3,135.3,253.1,135.4,253,135.4z"/>
										</g>
									</g>
								</g>
								<g>
									<g>
										<g>
											<path class="st3" d="M259.7,133.3h7.5v0.4c0,0.3-0.1,0.4-0.4,0.4h-7.1V133.3z M260.7,136.3c0-0.3,0.1-0.5,0.2-0.7
												c0.1-0.2,0.3-0.4,0.6-0.5c0.2-0.1,0.5-0.2,0.9-0.3c0.3-0.1,0.7-0.1,1.1-0.1c0.4,0,0.7,0,1,0.1c0.3,0.1,0.6,0.2,0.9,0.3
												c0.2,0.1,0.4,0.3,0.6,0.5c0.1,0.2,0.2,0.5,0.2,0.7c0,0.3-0.1,0.5-0.2,0.7c-0.1,0.2-0.3,0.4-0.6,0.5
												c-0.2,0.1-0.5,0.2-0.9,0.3c-0.3,0.1-0.7,0.1-1.1,0.1c-0.4,0-0.7,0-1.1-0.1c-0.3-0.1-0.6-0.2-0.9-0.3
												c-0.3-0.1-0.5-0.3-0.6-0.5C260.8,136.8,260.7,136.6,260.7,136.3z M261.6,132.6c-0.3,0-0.5-0.1-0.6-0.2
												c-0.1-0.1-0.2-0.3-0.2-0.6v-2.3h0.4c0.1,0,0.3,0.1,0.4,0.2c0.1,0.1,0.1,0.3,0.1,0.4v1.5c0,0.1,0,0.1,0,0.2c0,0,0,0,0.1,0
												h4.4v0.4c0,0.1,0,0.2-0.1,0.3c-0.1,0.1-0.2,0.1-0.3,0.1H261.6z M261.7,136.3c0,0.1,0,0.3,0.1,0.4
												c0.1,0.1,0.2,0.2,0.4,0.3c0.2,0.1,0.4,0.1,0.6,0.2c0.2,0,0.5,0.1,0.8,0.1c0.3,0,0.5,0,0.7-0.1c0.2,0,0.4-0.1,0.6-0.2
												c0.2-0.1,0.3-0.2,0.4-0.3c0.1-0.1,0.1-0.2,0.1-0.4c0-0.1,0-0.3-0.1-0.4s-0.2-0.2-0.4-0.3c-0.2-0.1-0.3-0.1-0.6-0.2
												c-0.2,0-0.5-0.1-0.7-0.1c-0.6,0-1,0.1-1.4,0.2C261.8,135.8,261.7,136,261.7,136.3z"/>
										</g>
									</g>
									<g>
										<g>
											<path class="st3" d="M263.5,138c-0.4,0-0.7,0-1.1-0.1c-0.3-0.1-0.6-0.2-0.9-0.3c-0.3-0.1-0.5-0.3-0.6-0.5
												c-0.2-0.2-0.2-0.5-0.2-0.8c0-0.3,0.1-0.6,0.2-0.8c0.1-0.2,0.4-0.4,0.6-0.5c0.3-0.1,0.6-0.3,0.9-0.3
												c0.3-0.1,0.7-0.1,1.1-0.1c0.4,0,0.7,0,1.1,0.1c0.3,0.1,0.6,0.2,0.9,0.3c0.3,0.1,0.5,0.3,0.6,0.5c0.2,0.2,0.2,0.5,0.2,0.8
												c0,0.3-0.1,0.5-0.2,0.7c-0.1,0.2-0.3,0.4-0.6,0.5c-0.2,0.1-0.5,0.3-0.9,0.3C264.3,138,263.9,138,263.5,138z M263.5,134.7
												c-0.4,0-0.7,0-1.1,0.1c-0.3,0.1-0.6,0.2-0.8,0.3c-0.2,0.1-0.4,0.3-0.6,0.5c-0.1,0.2-0.2,0.4-0.2,0.7
												c0,0.3,0.1,0.5,0.2,0.7c0.1,0.2,0.3,0.4,0.6,0.5c0.2,0.1,0.5,0.2,0.9,0.3c0.7,0.1,1.5,0.1,2.1,0c0.3-0.1,0.6-0.2,0.8-0.3
												c0.2-0.1,0.4-0.3,0.5-0.5c0.1-0.2,0.2-0.4,0.2-0.6c0-0.3-0.1-0.5-0.2-0.7c-0.1-0.2-0.3-0.4-0.6-0.5
												c-0.2-0.1-0.5-0.2-0.8-0.3C264.2,134.7,263.9,134.7,263.5,134.7z M263.5,137.2c-0.3,0-0.5,0-0.8-0.1
												c-0.2,0-0.4-0.1-0.6-0.2c-0.2-0.1-0.3-0.2-0.4-0.3c-0.1-0.1-0.1-0.3-0.1-0.4c0-0.3,0.2-0.6,0.5-0.7
												c0.3-0.2,0.8-0.2,1.4-0.2c0.3,0,0.5,0,0.7,0.1c0.2,0,0.4,0.1,0.6,0.2c0.2,0.1,0.3,0.2,0.4,0.3c0.1,0.1,0.2,0.3,0.2,0.4
												c0,0.2,0,0.3-0.1,0.4c-0.1,0.1-0.2,0.2-0.4,0.3c-0.2,0.1-0.4,0.1-0.6,0.2C264,137.2,263.8,137.2,263.5,137.2z
												 M263.5,135.5c-0.6,0-1,0.1-1.3,0.2c-0.3,0.1-0.4,0.3-0.4,0.6c0,0.1,0,0.2,0.1,0.3c0.1,0.1,0.2,0.2,0.3,0.2
												c0.2,0.1,0.3,0.1,0.6,0.2c0.2,0,0.5,0.1,0.7,0.1c0.3,0,0.5,0,0.7-0.1c0.2,0,0.4-0.1,0.5-0.2c0.1-0.1,0.3-0.2,0.3-0.3
												c0.1-0.1,0.1-0.2,0.1-0.3c0-0.1,0-0.2-0.1-0.3c-0.1-0.1-0.2-0.2-0.3-0.3c-0.2-0.1-0.3-0.1-0.5-0.2
												C264,135.5,263.8,135.5,263.5,135.5z M266.8,134.2h-7.2v-0.9h7.6v0.5C267.3,134,267.1,134.2,266.8,134.2z M259.8,134h7
												c0.2,0,0.3-0.1,0.3-0.3v-0.3h-7.3V134z M265.9,132.7h-4.3c-0.3,0-0.5-0.1-0.7-0.2c-0.1-0.1-0.2-0.3-0.2-0.7v-2.4h0.5
												c0.2,0,0.3,0.1,0.4,0.2c0.1,0.1,0.2,0.3,0.2,0.4v1.5c0,0.1,0,0.1,0,0.1c0,0,0,0,0,0h4.5v0.5c0,0.1,0,0.2-0.1,0.3
												C266.2,132.7,266.1,132.7,265.9,132.7z M260.9,129.6v2.2c0,0.3,0.1,0.5,0.2,0.6c0.1,0.1,0.3,0.1,0.6,0.1h4.3
												c0.1,0,0.2,0,0.2-0.1c0,0,0.1-0.1,0.1-0.2v-0.3h-4.4c-0.1,0-0.1,0-0.2-0.1c0,0,0-0.1,0-0.2v-1.5c0-0.1,0-0.2-0.1-0.3
												c-0.1-0.1-0.2-0.1-0.3-0.1H260.9z"/>
										</g>
									</g>
								</g>
								<g>
									<g>
										<g>
											<path class="st3" d="M269.8,131.3c0,0.2,0.1,0.5,0.2,0.7c0.1,0.2,0.3,0.4,0.4,0.6c0.2,0.2,0.4,0.3,0.6,0.5
												c0.2,0.2,0.5,0.3,0.8,0.4l-0.5,0.6c-0.2-0.1-0.3-0.2-0.5-0.3c-0.2-0.1-0.4-0.2-0.5-0.4c-0.2-0.1-0.3-0.3-0.5-0.4
												c-0.2-0.1-0.3-0.3-0.4-0.4c-0.2,0.3-0.5,0.6-0.8,0.9s-0.7,0.6-1.2,0.8l-0.6-0.6c0.3-0.1,0.5-0.3,0.7-0.4s0.5-0.4,0.7-0.6
												c0.2-0.2,0.4-0.4,0.5-0.6c0.1-0.2,0.2-0.5,0.2-0.7v-1.6h0.6c0.1,0,0.2,0,0.3,0.1c0,0.1,0.1,0.2,0.1,0.3V131.3z
												 M272.9,137.8v-2.1c0-0.1,0-0.1-0.1-0.1h-4.1v-0.8h4.4c0.2,0,0.4,0.1,0.5,0.2c0.1,0.1,0.2,0.3,0.2,0.5v1.8
												c0,0.2,0,0.3-0.1,0.4c-0.1,0.1-0.2,0.1-0.3,0.1H272.9z M272.9,134.4v-4.8h0.9v4.2c0,0.2,0,0.3-0.1,0.4
												c-0.1,0.1-0.2,0.1-0.3,0.1H272.9z"/>
										</g>
									</g>
									<g>
										<g>
											<path class="st3" d="M273.4,137.8h-0.6v-2.2c0,0,0,0,0,0c0,0,0,0,0,0h-4.2v-0.9h4.5c0.2,0,0.4,0.1,0.5,0.2
												c0.1,0.1,0.2,0.3,0.2,0.5v1.8c0,0.2,0,0.4-0.1,0.5C273.7,137.8,273.6,137.8,273.4,137.8z M273,137.7h0.4
												c0.1,0,0.2,0,0.3-0.1c0,0,0.1-0.1,0.1-0.4v-1.8c0-0.2-0.1-0.3-0.2-0.4c-0.1-0.1-0.3-0.1-0.4-0.1h-4.3v0.6h4
												c0.1,0,0.2,0.1,0.2,0.2V137.7z M273.4,134.4h-0.6v-4.9h1.1v4.3c0,0.2,0,0.3-0.1,0.5C273.8,134.4,273.6,134.4,273.4,134.4
												z M273,134.3h0.4c0.1,0,0.2,0,0.3-0.1c0-0.1,0.1-0.2,0.1-0.4v-4.1H273V134.3z M267.4,134.4l-0.7-0.7l0.1-0.1
												c0.2-0.1,0.5-0.3,0.7-0.4c0.2-0.2,0.5-0.3,0.6-0.5c0.2-0.2,0.3-0.4,0.5-0.6c0.1-0.2,0.2-0.4,0.2-0.7v-1.7h0.7
												c0.2,0,0.3,0.1,0.4,0.1c0,0.1,0.1,0.2,0.1,0.3v1.2c0,0.2,0.1,0.4,0.2,0.6c0.1,0.2,0.2,0.4,0.4,0.6
												c0.2,0.2,0.4,0.3,0.6,0.5c0.2,0.2,0.5,0.3,0.8,0.4l0.1,0l-0.6,0.7l-0.1,0c-0.2-0.1-0.3-0.2-0.5-0.3
												c-0.2-0.1-0.4-0.2-0.5-0.4c-0.2-0.1-0.3-0.3-0.5-0.4c-0.1-0.1-0.2-0.2-0.3-0.3c-0.2,0.3-0.4,0.5-0.7,0.8
												C268.3,133.8,267.9,134.1,267.4,134.4L267.4,134.4z M267,133.7l0.5,0.5c0.4-0.2,0.8-0.5,1.1-0.8c0.3-0.3,0.6-0.6,0.8-0.8
												l0.1-0.1l0.1,0.1c0.1,0.1,0.2,0.3,0.4,0.4c0.2,0.1,0.3,0.3,0.5,0.4c0.2,0.1,0.4,0.3,0.5,0.4c0.2,0.1,0.3,0.2,0.5,0.3
												l0.4-0.5c-0.2-0.1-0.5-0.3-0.7-0.4c-0.2-0.2-0.5-0.3-0.7-0.5c-0.2-0.2-0.3-0.4-0.5-0.6c-0.1-0.2-0.2-0.5-0.2-0.7v-1.2
												c0-0.1,0-0.2,0-0.2c0,0-0.1-0.1-0.2-0.1H269v1.5c0,0.3-0.1,0.5-0.2,0.8c-0.1,0.2-0.3,0.5-0.5,0.7
												c-0.2,0.2-0.4,0.4-0.7,0.6C267.4,133.4,267.2,133.6,267,133.7z"/>
										</g>
									</g>
								</g>
								<g>
									<g>
										<g>
											<path class="st3" d="M274.5,133.3h7.5v0.4c0,0.3-0.1,0.4-0.4,0.4h-2.9v0.8h2.2v1.8c0,0.4-0.1,0.6-0.3,0.8
												c-0.2,0.2-0.4,0.3-0.8,0.3h-3.5c-0.2,0-0.4-0.1-0.5-0.2c-0.2-0.1-0.2-0.4-0.2-0.7v-2h2.2v-0.8h-3.3V133.3z M276.2,130.4
												h-0.9v-0.7h5.9v0.7h-0.9v1.1c0,0.1,0,0.1,0,0.2c0,0.1,0,0.1,0,0.2h1.2v0.3c0,0.3-0.1,0.4-0.4,0.4h-5.9v-0.7h1.1
												c0-0.1,0-0.1,0-0.2c0-0.1,0-0.1,0-0.2V130.4z M279.6,137c0.1,0,0.2,0,0.3-0.1c0.1,0,0.1-0.1,0.1-0.3v-1.1h-3.6v1.2
												c0,0.1,0.1,0.2,0.2,0.2H279.6z M279.1,131.9c0.1,0,0.2,0,0.2-0.1c0-0.1,0.1-0.2,0.1-0.3v-1.1h-2.3v1.2
												c0,0.1,0,0.2,0.1,0.3c0,0.1,0.1,0.1,0.2,0.1H279.1z"/>
										</g>
									</g>
									<g>
										<g>
											<path class="st3" d="M279.8,137.9h-3.5c-0.2,0-0.4-0.1-0.6-0.2c-0.2-0.2-0.3-0.4-0.3-0.7v-2.1h2.2v-0.6h-3.3v-0.9h7.6
												v0.5c0,0.3-0.2,0.5-0.5,0.5h-2.8v0.6h2.2v1.9c0,0.4-0.1,0.7-0.3,0.9C280.5,137.8,280.2,137.9,279.8,137.9z M275.6,135
												v1.9c0,0.3,0.1,0.5,0.2,0.6c0.1,0.1,0.3,0.2,0.5,0.2h3.5c0.4,0,0.6-0.1,0.8-0.3c0.2-0.2,0.2-0.4,0.2-0.8V135h-2.2v-1h3
												c0.2,0,0.3-0.1,0.3-0.3v-0.3h-7.3v0.6h3.3v1H275.6z M279.6,137.1h-3c-0.2,0-0.3-0.1-0.3-0.3v-1.2h3.8v1.1
												c0,0.2,0,0.3-0.1,0.3C279.9,137.1,279.8,137.1,279.6,137.1z M276.5,135.7v1.1c0,0.1,0,0.1,0.1,0.1h3c0.1,0,0.2,0,0.3,0
												c0,0,0.1-0.1,0.1-0.2v-1H276.5z M281,132.8h-6v-0.9h1.1c0,0,0-0.1,0-0.1c0-0.1,0-0.1,0-0.2v-1h-0.9v-0.9h6.1v0.9h-0.9
												v1.1c0,0.1,0,0.1,0,0.2c0,0,0,0.1,0,0.1h1.1v0.4C281.4,132.6,281.3,132.8,281,132.8z M275.2,132.6h5.8
												c0.2,0,0.3-0.1,0.3-0.3V132h-1.2l0-0.1c0-0.1,0-0.1,0-0.2c0-0.1,0-0.1,0-0.2v-1.2h0.9v-0.6h-5.8v0.6h0.9v1.2
												c0,0.1,0,0.1,0,0.2c0,0.1,0,0.1,0,0.2l0,0.1h-1.2V132.6z M279.1,132h-1.8c-0.2,0-0.2-0.1-0.3-0.1c0-0.1-0.1-0.2-0.1-0.3
												v-1.2h2.5v1.2c0,0.1,0,0.2-0.1,0.3C279.3,132,279.2,132,279.1,132z M277.1,130.5v1.1c0,0.1,0,0.2,0,0.2
												c0,0,0,0.1,0.1,0.1h1.8c0.1,0,0.1,0,0.1-0.1c0-0.1,0-0.1,0-0.2v-1.1H277.1z"/>
										</g>
									</g>
								</g>
							</g>
						</g>
						<path class="st11" d="M287.8,133.4c0,0.2,0.1,0.4,0.1,0.6c0,4-9.2,7.2-20.5,7.2c-11.3,0-20.5-3.2-20.5-7.2
							c0-0.2,0-0.4,0.1-0.6c-1.4,1.1-2.3,2.3-2.3,3.5c0,4.5,10.2,8.1,22.7,8.1c12.5,0,22.7-3.6,22.7-8.1
							C290,135.6,289.2,134.4,287.8,133.4z"/>
						<path class="st3" d="M267.3,105.4c-16.3,0-29.5,13.2-29.5,29.5c0,16.3,13.2,29.5,29.5,29.5c16.3,0,29.5-13.2,29.5-29.5
							C296.8,118.6,283.6,105.4,267.3,105.4z M267.3,107.5c15.1,0,27.4,12.3,27.4,27.4c0,5.4-1.6,10.4-4.2,14.7h-46.4
							c-2.7-4.2-4.2-9.3-4.2-14.7C239.9,119.7,252.2,107.5,267.3,107.5z"/>
						<g>
							<path class="st4" d="M252.2,153.6c-0.2,0.3-0.8,0.8-1.2,1l-0.2-0.4c0.6-0.3,1.2-0.7,1.2-1.4v-0.5h0.6v0.5
								c0,0.7,0.6,1.1,1.2,1.4l-0.2,0.4C253,154.4,252.5,154,252.2,153.6z M253.9,155.3h-2.7v-0.4h3.3v1.5h-0.6V155.3z M253.9,152.2
								h0.6v2.5h-0.6V152.2z"/>
							<path class="st4" d="M257.2,154.9h1.4v1.5h-3.3v-1.5h1.4v-0.3H255v-0.4h3.7v0.4h-1.6V154.9z M255.2,153.4h0.5v-0.7h-0.5v-0.4
								h3.3v0.4h-0.5v0.7h0.5v0.4h-3.3V153.4z M255.8,155.3v0.7h2.1v-0.7H255.8z M256.3,152.7v0.7h1.2v-0.7H256.3z"/>
							<path class="st4" d="M262.3,155.8c-0.3,0.1-0.6,0.1-0.9,0.1h-2.2v-0.4h2.4c0.3,0,0.5,0,0.7-0.1c0,0,0-3.3,0-3.3h0.6v4.2h-0.6
								V155.8z M260.5,152.2c1.7,0,1.7,2.9,0,2.9C258.8,155,258.8,152.2,260.5,152.2z M260.5,154.6c0.8,0,0.8-2,0-2
								C259.7,152.6,259.7,154.6,260.5,154.6z"/>
							<path class="st4" d="M264.5,152.2c1.7,0,1.7,2.3,0,2.3C262.8,154.5,262.8,152.2,264.5,152.2z M266.4,155.2h-2.7v-0.4h3.3v1.6
								h-0.6V155.2z M264.5,154.1c0.8,0,0.8-1.4,0-1.4C263.7,152.7,263.6,154.1,264.5,154.1z M267,154.6h-0.6v-2.4h0.6v0.5h0.5v0.5
								H267v0.4h0.5v0.5H267V154.6z"/>
							<path class="st4" d="M269.8,154.9h1.4v1.5h-3.3v-1.5h1.4v-0.3h-1.6v-0.4h3.7v0.4h-1.6V154.9z M267.8,153.4h0.5v-0.7h-0.5
								v-0.4h3.3v0.4h-0.5v0.7h0.5v0.4h-3.3V153.4z M268.5,155.3v0.7h2.1v-0.7H268.5z M268.9,152.7v0.7h1.2v-0.7H268.9z"/>
							<path class="st4" d="M273,152.2c1.6,0,1.6,2.5,0,2.5C271.4,154.7,271.4,152.2,273,152.2z M272.2,155.1h0.6v0.9h2.6v0.4h-3.2
								V155.1z M273,154.3c0.8,0,0.8-1.6,0-1.6C272.2,152.7,272.2,154.3,273,154.3z M275.4,155.2h-0.6v-3.1h0.6v1.1h0.5v0.5h-0.5
								V155.2z"/>
							<path class="st4" d="M277.4,153.8c-0.2,0.3-0.8,0.8-1.3,0.9l-0.2-0.4c0.6-0.3,1.2-0.7,1.2-1.4v-0.2h-1v-0.4h2.5v0.4h-0.9v0.2
								c0,0.7,0.6,1.2,1.2,1.4l-0.2,0.4C278.2,154.6,277.7,154.2,277.4,153.8z M276.5,155h0.6v1h2.7v0.4h-3.3V155z M279.1,153.5
								h-0.6v-0.4h0.6v-1h0.6v3h-0.6V153.5z"/>
							<path class="st4" d="M281.6,155c-0.2,0.4-0.7,0.8-1.1,1l-0.2-0.4c0.7-0.5,1.1-0.9,1.1-1.8v-1h-0.8v-0.4h0.8v-0.4h0.6v0.4h0.8
								v0.4h-0.8v1c0,0.8,0.4,1.4,1.1,1.8l-0.2,0.4C282.3,155.8,281.9,155.4,281.6,155z M283.3,154h-0.7v-0.4h0.7v-1.4h0.6v4.3h-0.6
								V154z"/>
						</g>
					</g>
				</g>
			</g>
			<path class="st5" d="M317.5,6.2c1.1,0,2,0.9,2,2v20.1c0,1.1-0.9,2-2,2H308V37h1C319.5,37,328,45.5,328,56v113.8v26.9v14
				c0,2.8-2.3,5-5,5h-14h-83.3h-14c-2.8,0-5-2.3-5-5v-14v-26.9V56c0-10.5,8.6-19.1,19.1-19.1h1v-6.7h-9.6c-1.1,0-2-0.9-2-2V8.2
				c0-1.1,0.9-2,2-2H317.5 M317.5,4.7H217.1c-1.9,0-3.5,1.5-3.5,3.5v20.1c0,1.9,1.5,3.5,3.5,3.5h8.1v3.8c-5.3,0.1-10.3,2.2-14.1,6
				c-3.9,3.9-6,9-6,14.5v113.8v26.9v14c0,3.6,2.9,6.5,6.5,6.5h14H309h14c3.6,0,6.5-2.9,6.5-6.5v-14v-26.9V56c0-5.5-2.1-10.6-6-14.5
				c-3.8-3.8-8.8-5.9-14.1-6v-3.8h8.1c1.9,0,3.5-1.5,3.5-3.5V8.2C321,6.3,319.4,4.7,317.5,4.7L317.5,4.7z"/>
		</g>
		<g>
			<path class="st9" d="M195,195.7h-39.1h-39.1c-1,0-1.8,0.8-1.8,1.8v16.4c0,1,0.8,1.8,1.8,1.8h39.1H195c1,0,1.8-0.8,1.8-1.8v-16.4
				C196.8,196.5,196,195.7,195,195.7z"/>
			<polygon class="st2" points="155.8,192.4 117.6,192.4 117.6,195.7 155.8,195.7 194.1,195.7 194.1,192.4 			"/>
			<path class="st12" d="M195,118.2h-39.1h-39.1c-1,0-1.8,0.8-1.8,1.8v70.6c0,1,0.8,1.8,1.8,1.8h39.1H195c1,0,1.8-0.8,1.8-1.8V120
				C196.8,119,196,118.2,195,118.2z"/>
			<polygon class="st2" points="155.8,113.2 117.6,113.2 117.6,118.2 155.8,118.2 194.1,118.2 194.1,113.2 			"/>
			<path class="st4" d="M195,98.2h-39.1h-39.1c-1,0-1.8,0.8-1.8,1.8v11.4c0,1,0.8,1.8,1.8,1.8h39.1H195c1,0,1.8-0.8,1.8-1.8V100
				C196.8,99,196,98.2,195,98.2z"/>
			<polygon class="st2" points="155.8,95.9 117.6,95.9 117.6,98.2 155.8,98.2 194.1,98.2 194.1,95.9 			"/>
			<path class="st4" d="M192.3,67.8h-36.4h-36.4c-2.5,0-4.6,2-4.6,4.6v23.5h41h41V72.4C196.8,69.9,194.8,67.8,192.3,67.8z"/>
			<g>
				<circle class="st4" cx="129.1" cy="133.7" r="10.1"/>
				<g>
					<g>
						<g>
							<g>
								<g>
									<g>
										<path class="st3" d="M128.5,130.4v-1.1h-0.7c0,0.1-0.1,0.2-0.2,0.3c-0.1,0.1-0.2,0.1-0.3,0.2c-0.1,0.1-0.2,0.1-0.3,0.1
											c-0.1,0-0.2,0.1-0.3,0.1l-0.2-0.2c0.1,0,0.2-0.1,0.4-0.1c0.1,0,0.2-0.1,0.3-0.2c0.1-0.1,0.2-0.1,0.2-0.2
											c0.1-0.1,0.1-0.2,0.1-0.3v-0.2c0-0.1,0-0.1,0-0.2c0,0-0.1,0-0.1,0h-0.7v-0.3h0.8c0.1,0,0.1,0,0.2,0c0.1,0,0.1,0,0.1,0.1
											c0,0,0.1,0.1,0.1,0.1c0,0.1,0,0.1,0,0.2v0.2h0.6v-0.7h0.3v1.9c0,0.1,0,0.1,0,0.1c0,0-0.1,0-0.1,0H128.5z M127.4,131.1
											c-0.1,0-0.1,0-0.2-0.1c0,0-0.1-0.1-0.1-0.2v-0.7h0.3v0.6c0,0,0,0.1,0,0.1h1.4v0.1c0,0,0,0.1,0,0.1c0,0,0,0-0.1,0H127.4z"
											/>
									</g>
								</g>
								<g>
									<g>
										<path class="st3" d="M128.8,131.2h-1.4c-0.1,0-0.1,0-0.2-0.1c0,0-0.1-0.1-0.1-0.2v-0.7h0.4v0.6c0,0,0,0,0,0l1.4,0v0.2
											c0,0,0,0.1,0,0.1C128.9,131.1,128.8,131.2,128.8,131.2z M127.2,130.2v0.7c0,0.1,0,0.1,0.1,0.1c0,0,0.1,0.1,0.1,0.1h1.4
											c0,0,0.1,0,0.1,0c0,0,0,0,0-0.1v-0.1h-1.4c0,0-0.1,0-0.1-0.1v-0.6H127.2z M128.7,130.4h-0.2v-1.1h-0.6
											c0,0.1-0.1,0.2-0.2,0.3c-0.1,0.1-0.2,0.2-0.3,0.2c-0.1,0.1-0.2,0.1-0.3,0.2c-0.1,0-0.2,0.1-0.3,0.1l0,0l-0.2-0.3l0,0
											c0.1,0,0.2-0.1,0.4-0.1c0.1,0,0.2-0.1,0.3-0.2c0.1-0.1,0.2-0.1,0.2-0.2c0.1-0.1,0.1-0.2,0.1-0.3v-0.2c0-0.1,0-0.1,0-0.1
											c0,0,0,0-0.1,0h-0.7v-0.3h0.8c0.1,0,0.1,0,0.2,0c0.1,0,0.1,0,0.1,0.1c0,0,0.1,0.1,0.1,0.1c0,0.1,0,0.1,0,0.2v0.2h0.6v-0.7
											h0.4v1.9c0,0.1,0,0.1,0,0.1C128.8,130.4,128.8,130.4,128.7,130.4z M128.6,130.3h0.1c0,0,0.1,0,0.1,0c0,0,0,0,0-0.1v-1.8
											h-0.3v0.7h-0.7v-0.2c0-0.1,0-0.1,0-0.2c0,0,0-0.1-0.1-0.1c0,0-0.1,0-0.1-0.1c-0.1,0-0.1,0-0.2,0h-0.7v0.2h0.7
											c0.1,0,0.1,0,0.2,0.1c0,0,0,0.1,0,0.2v0.2c0,0.1,0,0.2-0.1,0.3c-0.1,0.1-0.1,0.2-0.2,0.2c-0.1,0.1-0.2,0.1-0.3,0.2
											c-0.1,0-0.2,0.1-0.3,0.1l0.1,0.2c0.1,0,0.2-0.1,0.3-0.1c0.1,0,0.2-0.1,0.3-0.1c0.1-0.1,0.2-0.1,0.3-0.2
											c0.1-0.1,0.1-0.2,0.2-0.3l0,0h0.7V130.3z"/>
									</g>
								</g>
							</g>
							<g>
								<g>
									<g>
										<path class="st3" d="M130.3,129c0,0.1,0,0.3-0.1,0.4c-0.1,0.1-0.1,0.2-0.2,0.3c-0.1,0.1-0.2,0.1-0.4,0.2
											c-0.1,0.1-0.3,0.1-0.4,0.1l-0.2-0.2c0.1,0,0.2-0.1,0.4-0.1c0.1,0,0.2-0.1,0.3-0.1c0.1-0.1,0.2-0.1,0.2-0.2
											c0.1-0.1,0.1-0.2,0.1-0.3v-0.1c0-0.1,0-0.1,0-0.2c0,0-0.1,0-0.1,0h-0.7v-0.3h0.8c0.1,0,0.1,0,0.2,0c0.1,0,0.1,0,0.1,0.1
											c0,0,0.1,0.1,0.1,0.1c0,0.1,0,0.1,0,0.2V129z M129.5,130.6c0-0.1,0-0.2,0.1-0.3c0.1-0.1,0.1-0.1,0.2-0.2
											c0.1,0,0.2-0.1,0.3-0.1c0.1,0,0.2,0,0.3,0c0.1,0,0.2,0,0.3,0c0.1,0,0.2,0,0.3,0.1s0.2,0.1,0.2,0.2
											c0.1,0.1,0.1,0.2,0.1,0.3c0,0.1,0,0.2-0.1,0.3c-0.1,0.1-0.1,0.1-0.2,0.2c-0.1,0-0.2,0.1-0.3,0.1c-0.1,0-0.2,0-0.3,0
											c-0.1,0-0.2,0-0.3,0c-0.1,0-0.2,0-0.3-0.1c-0.1,0-0.2-0.1-0.2-0.2S129.5,130.7,129.5,130.6z M129.8,130.6
											c0,0.1,0,0.1,0.1,0.2c0,0,0.1,0.1,0.1,0.1c0.1,0,0.1,0,0.2,0c0.1,0,0.1,0,0.2,0s0.1,0,0.2,0c0.1,0,0.1,0,0.2,0
											c0.1,0,0.1-0.1,0.1-0.1c0,0,0.1-0.1,0.1-0.2s0-0.1-0.1-0.2c0,0-0.1-0.1-0.1-0.1c-0.1,0-0.1,0-0.2,0c-0.1,0-0.1,0-0.2,0
											c-0.1,0-0.1,0-0.2,0c-0.1,0-0.1,0-0.2,0c-0.1,0-0.1,0.1-0.1,0.1C129.8,130.5,129.8,130.5,129.8,130.6z M130.9,130v-1.6
											h0.3v0.6h0.4v0.3h-0.4v0.6c0,0.1,0,0.1,0,0.1c0,0-0.1,0-0.1,0H130.9z"/>
									</g>
								</g>
								<g>
									<g>
										<path class="st3" d="M130.4,131.2c-0.1,0-0.2,0-0.3,0c-0.1,0-0.2,0-0.3-0.1c-0.1,0-0.2-0.1-0.2-0.2
											c-0.1-0.1-0.1-0.2-0.1-0.3c0-0.1,0-0.2,0.1-0.3c0.1-0.1,0.1-0.1,0.2-0.2c0.1,0,0.2-0.1,0.3-0.1c0.1,0,0.2,0,0.3,0
											c0.1,0,0.2,0,0.3,0c0.1,0,0.2,0,0.3,0.1c0.1,0,0.2,0.1,0.2,0.2c0.1,0.1,0.1,0.2,0.1,0.3c0,0.1,0,0.2-0.1,0.3
											c-0.1,0.1-0.1,0.1-0.2,0.2c-0.1,0-0.2,0.1-0.3,0.1C130.6,131.2,130.5,131.2,130.4,131.2z M130.4,130c-0.1,0-0.2,0-0.3,0
											c-0.1,0-0.2,0-0.3,0.1c-0.1,0-0.2,0.1-0.2,0.2c-0.1,0.1-0.1,0.2-0.1,0.3c0,0.1,0,0.2,0.1,0.3c0.1,0.1,0.1,0.1,0.2,0.2
											c0.1,0,0.2,0.1,0.3,0.1c0.2,0,0.4,0,0.6,0c0.1,0,0.2,0,0.3-0.1c0.1,0,0.1-0.1,0.2-0.2c0.1-0.1,0.1-0.2,0.1-0.3
											c0-0.1,0-0.2-0.1-0.3c-0.1-0.1-0.1-0.1-0.2-0.2c-0.1,0-0.2-0.1-0.3-0.1C130.6,130,130.5,130,130.4,130z M130.4,131
											c-0.1,0-0.1,0-0.2,0c-0.1,0-0.1,0-0.2,0c-0.1,0-0.1-0.1-0.2-0.1c0,0-0.1-0.1-0.1-0.2c0-0.1,0-0.1,0.1-0.2
											c0,0,0.1-0.1,0.2-0.1c0.1,0,0.1,0,0.2-0.1c0.1,0,0.1,0,0.2,0c0.1,0,0.1,0,0.2,0c0.1,0,0.1,0,0.2,0.1
											c0.1,0,0.1,0.1,0.2,0.1c0,0,0.1,0.1,0.1,0.2c0,0.1,0,0.1-0.1,0.2c0,0-0.1,0.1-0.2,0.1c-0.1,0-0.1,0-0.2,0
											C130.5,130.9,130.4,131,130.4,131z M130.4,130.3c-0.1,0-0.1,0-0.2,0c-0.1,0-0.1,0-0.2,0c-0.1,0-0.1,0.1-0.1,0.1
											c0,0-0.1,0.1-0.1,0.2c0,0.1,0,0.1,0.1,0.1c0,0,0.1,0.1,0.1,0.1c0.1,0,0.1,0,0.2,0c0.1,0,0.1,0,0.2,0c0.1,0,0.1,0,0.2,0
											c0.1,0,0.1,0,0.2,0c0.1,0,0.1-0.1,0.1-0.1c0,0,0.1-0.1,0.1-0.2c0-0.1,0-0.1-0.1-0.2c0,0-0.1-0.1-0.1-0.1
											c-0.1,0-0.1,0-0.2,0C130.5,130.3,130.4,130.3,130.4,130.3z M129.2,130l-0.2-0.3l0,0c0.1,0,0.2-0.1,0.4-0.1
											c0.1,0,0.2-0.1,0.3-0.1c0.1-0.1,0.2-0.1,0.2-0.2c0.1-0.1,0.1-0.2,0.1-0.3v-0.1c0-0.1,0-0.1,0-0.1c0,0,0,0-0.1,0h-0.7v-0.3
											h0.8c0.1,0,0.1,0,0.2,0c0.1,0,0.1,0,0.1,0.1c0,0,0.1,0.1,0.1,0.1c0,0.1,0,0.1,0,0.2v0.2c0,0.1,0,0.3-0.1,0.4
											c-0.1,0.1-0.1,0.2-0.2,0.3c-0.1,0.1-0.2,0.1-0.4,0.2C129.5,129.9,129.4,130,129.2,130L129.2,130z M129.1,129.8l0.1,0.2
											c0.1,0,0.3-0.1,0.4-0.1c0.1-0.1,0.2-0.1,0.3-0.2c0.1-0.1,0.2-0.2,0.2-0.3c0.1-0.1,0.1-0.2,0.1-0.4v-0.2c0-0.1,0-0.1,0-0.2
											c0,0,0-0.1-0.1-0.1c0,0-0.1,0-0.1-0.1c-0.1,0-0.1,0-0.2,0h-0.7v0.2h0.7c0.1,0,0.1,0,0.2,0.1c0,0,0,0.1,0,0.2v0.1
											c0,0.1,0,0.2-0.1,0.3c-0.1,0.1-0.1,0.2-0.2,0.2c-0.1,0.1-0.2,0.1-0.3,0.2C129.3,129.7,129.2,129.7,129.1,129.8z
											 M131.1,130h-0.2v-1.7h0.4v0.6h0.4v0.3h-0.4v0.6c0,0.1,0,0.1,0,0.1C131.2,130,131.1,130,131.1,130z M130.9,129.9h0.1
											c0,0,0.1,0,0.1,0c0,0,0-0.1,0-0.1v-0.6h0.4V129h-0.4v-0.6h-0.3V129.9z"/>
									</g>
								</g>
							</g>
							<g>
								<g>
									<g>
										<path class="st3" d="M124.2,133.8c0.1,0,0.1,0,0.2-0.1c0.1,0,0.1,0,0.2-0.1c0.1,0,0.1-0.1,0.2-0.1c0.1,0,0.1-0.1,0.1-0.1
											c0,0,0.1-0.1,0.1-0.1c0,0,0.1-0.1,0.1-0.1s0.1-0.1,0.1-0.1c0-0.1,0-0.1,0-0.2v-0.5c0-0.1,0-0.1,0-0.2c0,0-0.1,0-0.2,0
											h-0.7V132h0.8c0.1,0,0.2,0,0.2,0c0.1,0,0.1,0,0.1,0.1s0.1,0.1,0.1,0.1c0,0.1,0,0.1,0,0.2v0.5c0,0.1,0,0.3-0.1,0.4
											c-0.1,0.1-0.1,0.2-0.2,0.3c-0.1,0.1-0.2,0.2-0.3,0.2c-0.1,0.1-0.3,0.1-0.5,0.2L124.2,133.8z M126.1,134.7v-2.8h0.3v2.6
											c0,0.1,0,0.1,0,0.1s-0.1,0-0.1,0H126.1z"/>
									</g>
								</g>
								<g>
									<g>
										<path class="st3" d="M126.3,134.7h-0.2v-2.8h0.4v2.6c0,0.1,0,0.1,0,0.2C126.4,134.7,126.3,134.7,126.3,134.7z
											 M126.1,134.6h0.1c0,0,0.1,0,0.1,0c0,0,0,0,0-0.1v-2.6h-0.3V134.6z M124.3,134.1l-0.2-0.3l0,0c0.1,0,0.1,0,0.2-0.1
											c0.1,0,0.1,0,0.2-0.1c0.1,0,0.1-0.1,0.2-0.1c0.1,0,0.1-0.1,0.1-0.1c0,0,0.1-0.1,0.1-0.1c0,0,0.1-0.1,0.1-0.1
											c0,0,0-0.1,0.1-0.1c0,0,0-0.1,0-0.2v-0.5c0-0.1,0-0.1,0-0.1c0,0,0,0-0.1,0h-0.7V132h0.8c0.1,0,0.2,0,0.2,0
											c0.1,0,0.1,0,0.2,0.1c0,0,0.1,0.1,0.1,0.1c0,0.1,0,0.1,0,0.2v0.5c0,0.1,0,0.3-0.1,0.4c-0.1,0.1-0.1,0.2-0.2,0.3
											c-0.1,0.1-0.2,0.2-0.4,0.2C124.7,134,124.5,134,124.3,134.1L124.3,134.1z M124.2,133.8l0.1,0.2c0.2,0,0.3-0.1,0.4-0.2
											c0.1-0.1,0.2-0.1,0.3-0.2c0.1-0.1,0.2-0.2,0.2-0.3c0.1-0.1,0.1-0.2,0.1-0.4v-0.5c0-0.1,0-0.1,0-0.2c0-0.1,0-0.1-0.1-0.1
											c0,0-0.1-0.1-0.1-0.1c-0.1,0-0.1,0-0.2,0h-0.7v0.2h0.7c0.1,0,0.2,0,0.2,0.1c0,0,0,0.1,0,0.2v0.5c0,0.1,0,0.1,0,0.2
											c0,0.1,0,0.1-0.1,0.2c0,0-0.1,0.1-0.1,0.1c0,0-0.1,0.1-0.1,0.1c0,0-0.1,0.1-0.2,0.1c-0.1,0-0.1,0.1-0.2,0.1
											c-0.1,0-0.1,0.1-0.2,0.1C124.3,133.8,124.3,133.8,124.2,133.8z"/>
									</g>
								</g>
							</g>
							<g>
								<g>
									<g>
										<path class="st3" d="M126.5,133.1h2.5v0.1c0,0.1,0,0.1-0.1,0.1h-2.4V133.1z M126.9,134.1c0-0.1,0-0.2,0.1-0.3
											c0-0.1,0.1-0.1,0.2-0.2c0.1,0,0.2-0.1,0.3-0.1c0.1,0,0.2,0,0.4,0c0.1,0,0.2,0,0.4,0c0.1,0,0.2,0.1,0.3,0.1
											c0.1,0,0.2,0.1,0.2,0.2c0,0.1,0.1,0.2,0.1,0.2c0,0.1,0,0.2-0.1,0.2c0,0.1-0.1,0.1-0.2,0.2c-0.1,0-0.2,0.1-0.3,0.1
											c-0.1,0-0.2,0-0.4,0c-0.1,0-0.2,0-0.4,0c-0.1,0-0.2-0.1-0.3-0.1c-0.1,0-0.2-0.1-0.2-0.2
											C126.9,134.3,126.9,134.2,126.9,134.1z M127.2,132.9c-0.1,0-0.2,0-0.2-0.1s-0.1-0.1-0.1-0.2v-0.8h0.1c0,0,0.1,0,0.1,0.1
											c0,0,0,0.1,0,0.1v0.5c0,0,0,0,0,0.1c0,0,0,0,0,0h1.5v0.1c0,0,0,0.1,0,0.1c0,0-0.1,0-0.1,0H127.2z M127.2,134.1
											c0,0,0,0.1,0,0.1c0,0,0.1,0.1,0.1,0.1c0.1,0,0.1,0,0.2,0.1c0.1,0,0.2,0,0.3,0c0.1,0,0.2,0,0.2,0c0.1,0,0.1,0,0.2-0.1
											c0.1,0,0.1-0.1,0.1-0.1c0,0,0-0.1,0-0.1c0,0,0-0.1,0-0.1c0,0-0.1-0.1-0.1-0.1s-0.1,0-0.2-0.1c-0.1,0-0.2,0-0.2,0
											c-0.2,0-0.4,0-0.5,0.1C127.3,134,127.2,134.1,127.2,134.1z"/>
									</g>
								</g>
								<g>
									<g>
										<path class="st3" d="M127.8,134.7c-0.1,0-0.3,0-0.4,0c-0.1,0-0.2-0.1-0.3-0.1c-0.1,0-0.2-0.1-0.2-0.2
											c-0.1-0.1-0.1-0.2-0.1-0.3c0-0.1,0-0.2,0.1-0.3c0.1-0.1,0.1-0.1,0.2-0.2c0.1,0,0.2-0.1,0.3-0.1c0.1,0,0.2,0,0.4,0
											c0.1,0,0.2,0,0.4,0c0.1,0,0.2,0.1,0.3,0.1c0.1,0,0.2,0.1,0.2,0.2c0.1,0.1,0.1,0.2,0.1,0.3c0,0.1,0,0.2-0.1,0.3
											c0,0.1-0.1,0.1-0.2,0.2c-0.1,0-0.2,0.1-0.3,0.1C128.1,134.7,128,134.7,127.8,134.7z M127.8,133.6c-0.1,0-0.3,0-0.4,0
											c-0.1,0-0.2,0.1-0.3,0.1c-0.1,0-0.1,0.1-0.2,0.2c0,0.1-0.1,0.1-0.1,0.2c0,0.1,0,0.2,0.1,0.2c0,0.1,0.1,0.1,0.2,0.2
											c0.1,0,0.2,0.1,0.3,0.1c0.1,0,0.2,0,0.4,0c0.1,0,0.3,0,0.4,0c0.1,0,0.2-0.1,0.3-0.1c0.1,0,0.1-0.1,0.2-0.2
											c0-0.1,0.1-0.1,0.1-0.2c0-0.1,0-0.2-0.1-0.2c0-0.1-0.1-0.1-0.2-0.2c-0.1,0-0.2-0.1-0.3-0.1
											C128.1,133.6,127.9,133.6,127.8,133.6z M127.8,134.5c-0.1,0-0.2,0-0.3,0c-0.1,0-0.1,0-0.2-0.1c-0.1,0-0.1-0.1-0.1-0.1
											c0,0,0-0.1,0-0.1c0-0.1,0.1-0.2,0.2-0.2c0.1-0.1,0.3-0.1,0.5-0.1c0.1,0,0.2,0,0.2,0c0.1,0,0.1,0,0.2,0.1
											c0.1,0,0.1,0.1,0.1,0.1c0,0,0.1,0.1,0.1,0.1c0,0.1,0,0.1,0,0.1c0,0-0.1,0.1-0.1,0.1c-0.1,0-0.1,0-0.2,0.1
											C128,134.5,127.9,134.5,127.8,134.5z M127.8,133.9c-0.2,0-0.3,0-0.5,0.1c-0.1,0.1-0.1,0.1-0.1,0.2c0,0,0,0.1,0,0.1
											c0,0,0.1,0.1,0.1,0.1c0.1,0,0.1,0,0.2,0.1c0.1,0,0.2,0,0.3,0c0.1,0,0.2,0,0.2,0c0.1,0,0.1,0,0.2-0.1c0,0,0.1-0.1,0.1-0.1
											c0,0,0-0.1,0-0.1c0,0,0-0.1,0-0.1c0,0-0.1-0.1-0.1-0.1c-0.1,0-0.1,0-0.2-0.1C128,133.9,127.9,133.9,127.8,133.9z
											 M129,133.4h-2.4v-0.3h2.6v0.2C129.1,133.4,129.1,133.4,129,133.4z M126.6,133.4h2.4c0.1,0,0.1,0,0.1-0.1v-0.1h-2.5V133.4
											z M128.6,132.9h-1.5c-0.1,0-0.2,0-0.2-0.1c0,0-0.1-0.1-0.1-0.2v-0.8h0.2c0.1,0,0.1,0,0.1,0.1c0,0,0.1,0.1,0.1,0.2v0.5
											c0,0,0,0,0,0c0,0,0,0,0,0h1.5v0.2c0,0,0,0.1,0,0.1C128.7,132.9,128.7,132.9,128.6,132.9z M126.9,131.9v0.8
											c0,0.1,0,0.2,0.1,0.2c0,0,0.1,0,0.2,0h1.5c0,0,0.1,0,0.1,0c0,0,0,0,0-0.1v-0.1h-1.5c0,0-0.1,0-0.1,0c0,0,0,0,0-0.1V132
											c0,0,0-0.1,0-0.1c0,0-0.1,0-0.1,0H126.9z"/>
									</g>
								</g>
							</g>
							<g>
								<g>
									<g>
										<path class="st3" d="M130,132.4c0,0.1,0,0.2,0.1,0.2c0,0.1,0.1,0.1,0.2,0.2c0.1,0.1,0.1,0.1,0.2,0.2
											c0.1,0.1,0.2,0.1,0.3,0.2l-0.2,0.2c-0.1,0-0.1-0.1-0.2-0.1c-0.1,0-0.1-0.1-0.2-0.1c-0.1,0-0.1-0.1-0.2-0.1
											c-0.1,0-0.1-0.1-0.1-0.1c-0.1,0.1-0.2,0.2-0.3,0.3s-0.2,0.2-0.4,0.3l-0.2-0.2c0.1,0,0.2-0.1,0.3-0.2s0.2-0.1,0.2-0.2
											c0.1-0.1,0.1-0.1,0.2-0.2c0-0.1,0.1-0.2,0.1-0.2v-0.5h0.2c0.1,0,0.1,0,0.1,0c0,0,0,0.1,0,0.1V132.4z M131,134.7v-0.7
											c0,0,0,0,0,0h-1.4v-0.3h1.5c0.1,0,0.1,0,0.2,0.1c0,0,0.1,0.1,0.1,0.2v0.6c0,0.1,0,0.1,0,0.1c0,0-0.1,0-0.1,0H131z
											 M131,133.5v-1.6h0.3v1.4c0,0.1,0,0.1,0,0.1c0,0-0.1,0-0.1,0H131z"/>
									</g>
								</g>
								<g>
									<g>
										<path class="st3" d="M131.2,134.7H131v-0.7c0,0,0,0,0,0l0,0c0,0,0,0,0,0h-1.4v-0.3h1.5c0.1,0,0.1,0,0.2,0.1
											c0,0,0.1,0.1,0.1,0.2v0.6c0,0.1,0,0.1,0,0.2C131.3,134.7,131.3,134.7,131.2,134.7z M131.1,134.6h0.1c0,0,0.1,0,0.1,0
											c0,0,0,0,0-0.1v-0.6c0-0.1,0-0.1-0.1-0.1c0,0-0.1,0-0.1,0h-1.5v0.2h1.4c0,0,0.1,0,0.1,0.1V134.6z M131.2,133.5H131v-1.7
											h0.4v1.5c0,0.1,0,0.1,0,0.2C131.3,133.5,131.3,133.5,131.2,133.5z M131.1,133.5h0.1c0,0,0.1,0,0.1,0c0,0,0-0.1,0-0.1v-1.4
											h-0.3V133.5z M129.2,133.5l-0.2-0.2l0,0c0.1,0,0.2-0.1,0.3-0.1c0.1-0.1,0.2-0.1,0.2-0.2c0.1-0.1,0.1-0.1,0.2-0.2
											c0-0.1,0.1-0.2,0.1-0.2v-0.6h0.2c0.1,0,0.1,0,0.1,0.1c0,0,0,0.1,0,0.1v0.4c0,0.1,0,0.2,0.1,0.2c0,0.1,0.1,0.1,0.1,0.2
											c0.1,0.1,0.1,0.1,0.2,0.2c0.1,0.1,0.2,0.1,0.3,0.2l0,0l-0.2,0.2l0,0c-0.1,0-0.1-0.1-0.2-0.1c-0.1,0-0.1-0.1-0.2-0.1
											c-0.1,0-0.1-0.1-0.2-0.1c0,0-0.1-0.1-0.1-0.1c-0.1,0.1-0.2,0.2-0.3,0.3C129.5,133.3,129.3,133.4,129.2,133.5L129.2,133.5z
											 M129,133.3l0.2,0.2c0.1-0.1,0.3-0.2,0.4-0.3c0.1-0.1,0.2-0.2,0.3-0.3l0,0l0,0c0,0,0.1,0.1,0.1,0.1c0.1,0,0.1,0.1,0.2,0.1
											c0.1,0,0.1,0.1,0.2,0.1c0.1,0,0.1,0.1,0.2,0.1l0.1-0.2c-0.1,0-0.2-0.1-0.2-0.1c-0.1-0.1-0.2-0.1-0.2-0.2
											c-0.1-0.1-0.1-0.1-0.2-0.2c0-0.1-0.1-0.2-0.1-0.2V132c0,0,0-0.1,0-0.1c0,0,0,0-0.1,0h-0.2v0.5c0,0.1,0,0.2-0.1,0.3
											c0,0.1-0.1,0.2-0.2,0.2c-0.1,0.1-0.1,0.1-0.2,0.2C129.2,133.2,129.1,133.2,129,133.3z"/>
									</g>
								</g>
							</g>
							<g>
								<g>
									<g>
										<path class="st3" d="M131.6,133.1h2.5v0.1c0,0.1,0,0.1-0.1,0.1h-1v0.3h0.8v0.6c0,0.1,0,0.2-0.1,0.3
											c-0.1,0.1-0.2,0.1-0.3,0.1h-1.2c-0.1,0-0.1,0-0.2-0.1c-0.1-0.1-0.1-0.1-0.1-0.2v-0.7h0.8v-0.3h-1.1V133.1z M132.2,132.1
											h-0.3v-0.3h2v0.3h-0.3v0.4c0,0,0,0,0,0.1c0,0,0,0,0,0.1h0.4v0.1c0,0.1,0,0.1-0.1,0.1h-2v-0.3h0.4c0,0,0,0,0-0.1
											c0,0,0,0,0-0.1V132.1z M133.3,134.4c0,0,0.1,0,0.1,0c0,0,0,0,0-0.1v-0.4h-1.2v0.4c0,0,0,0.1,0.1,0.1H133.3z M133.2,132.7
											C133.2,132.7,133.2,132.6,133.2,132.7c0.1-0.1,0.1-0.1,0.1-0.1v-0.4h-0.8v0.4c0,0,0,0.1,0,0.1c0,0,0,0,0.1,0H133.2z"/>
									</g>
								</g>
								<g>
									<g>
										<path class="st3" d="M133.4,134.7h-1.2c-0.1,0-0.1,0-0.2-0.1c-0.1-0.1-0.1-0.1-0.1-0.2v-0.7h0.8v-0.2h-1.1v-0.3h2.6v0.2
											c0,0.1-0.1,0.2-0.2,0.2h-1v0.2h0.8v0.6c0,0.1,0,0.2-0.1,0.3C133.6,134.6,133.5,134.7,133.4,134.7z M132,133.7v0.7
											c0,0.1,0,0.2,0.1,0.2c0,0,0.1,0.1,0.2,0.1h1.2c0.1,0,0.2,0,0.3-0.1c0.1-0.1,0.1-0.2,0.1-0.3v-0.6H133v-0.3h1
											c0.1,0,0.1,0,0.1-0.1v-0.1h-2.5v0.2h1.1v0.3H132z M133.3,134.4h-1c-0.1,0-0.1,0-0.1-0.1v-0.4h1.3v0.4c0,0.1,0,0.1,0,0.1
											C133.4,134.4,133.4,134.4,133.3,134.4z M132.3,134v0.4c0,0,0,0,0,0h1c0,0,0.1,0,0.1,0c0,0,0,0,0-0.1V134H132.3z
											 M133.8,132.9h-2v-0.3h0.4c0,0,0,0,0,0c0,0,0,0,0-0.1v-0.4h-0.3v-0.3h2.1v0.3h-0.3v0.4c0,0,0,0,0,0.1c0,0,0,0,0,0h0.4v0.1
											C134,132.9,133.9,132.9,133.8,132.9z M131.8,132.9h2c0.1,0,0.1,0,0.1-0.1v-0.1h-0.4l0,0c0,0,0,0,0-0.1c0,0,0,0,0-0.1v-0.4
											h0.3v-0.2h-2v0.2h0.3v0.4c0,0,0,0,0,0.1c0,0,0,0,0,0.1l0,0h-0.4V132.9z M133.2,132.7h-0.6c-0.1,0-0.1,0-0.1,0
											c0,0,0-0.1,0-0.1v-0.4h0.8v0.4C133.3,132.6,133.3,132.6,133.2,132.7C133.2,132.7,133.2,132.7,133.2,132.7z M132.5,132.2
											v0.4c0,0,0,0.1,0,0.1c0,0,0,0,0,0h0.6c0,0,0,0,0,0c0,0,0,0,0-0.1v-0.4H132.5z"/>
									</g>
								</g>
							</g>
						</g>
					</g>
					<path class="st11" d="M136.1,133.1c0,0.1,0,0.1,0,0.2c0,1.4-3.1,2.4-7,2.4c-3.9,0-7-1.1-7-2.4c0-0.1,0-0.1,0-0.2
						c-0.5,0.4-0.8,0.8-0.8,1.2c0,1.5,3.5,2.8,7.7,2.8c4.3,0,7.7-1.2,7.7-2.8C136.9,133.9,136.6,133.5,136.1,133.1z"/>
					<path class="st3" d="M129.1,123.6c-5.6,0-10.1,4.5-10.1,10.1c0,5.6,4.5,10.1,10.1,10.1c5.6,0,10.1-4.5,10.1-10.1
						C139.2,128.1,134.7,123.6,129.1,123.6z M129.1,124.3c5.2,0,9.4,4.2,9.4,9.4c0,1.8-0.5,3.6-1.5,5h-15.8c-0.9-1.4-1.5-3.2-1.5-5
						C119.8,128.5,124,124.3,129.1,124.3z"/>
					<g>
						<path class="st4" d="M123.9,140.1c-0.1,0.1-0.3,0.3-0.4,0.3l-0.1-0.1c0.2-0.1,0.4-0.3,0.4-0.5v-0.2h0.2v0.2
							c0,0.2,0.2,0.4,0.4,0.5l-0.1,0.1C124.2,140.3,124.1,140.2,123.9,140.1z M124.5,140.6h-0.9v-0.1h1.1v0.5h-0.2V140.6z
							 M124.5,139.6h0.2v0.8h-0.2V139.6z"/>
						<path class="st4" d="M125.7,140.5h0.5v0.5H125v-0.5h0.5v-0.1h-0.5v-0.1h1.3v0.1h-0.5V140.5z M125,140h0.2v-0.3H125v-0.1h1.1
							v0.1H126v0.3h0.2v0.1H125V140z M125.2,140.7v0.2h0.7v-0.2H125.2z M125.4,139.7v0.3h0.4v-0.3H125.4z"/>
						<path class="st4" d="M127.4,140.8c-0.1,0-0.2,0-0.3,0h-0.7v-0.1h0.8c0.1,0,0.2,0,0.3,0c0,0,0-1.1,0-1.1h0.2v1.5h-0.2V140.8z
							 M126.8,139.6c0.6,0,0.6,1,0,1C126.2,140.6,126.2,139.6,126.8,139.6z M126.8,140.4c0.3,0,0.3-0.7,0-0.7
							C126.5,139.7,126.5,140.4,126.8,140.4z"/>
						<path class="st4" d="M128.2,139.6c0.6,0,0.6,0.8,0,0.8C127.6,140.4,127.6,139.6,128.2,139.6z M128.8,140.6h-0.9v-0.1h1.1v0.5
							h-0.2V140.6z M128.2,140.2c0.3,0,0.3-0.5,0-0.5C127.9,139.7,127.9,140.2,128.2,140.2z M129,140.4h-0.2v-0.8h0.2v0.2h0.2v0.2
							H129v0.1h0.2v0.2H129V140.4z"/>
						<path class="st4" d="M130,140.5h0.5v0.5h-1.1v-0.5h0.5v-0.1h-0.5v-0.1h1.3v0.1H130V140.5z M129.3,140h0.2v-0.3h-0.2v-0.1h1.1
							v0.1h-0.2v0.3h0.2v0.1h-1.1V140z M129.5,140.7v0.2h0.7v-0.2H129.5z M129.7,139.7v0.3h0.4v-0.3H129.7z"/>
						<path class="st4" d="M131.1,139.6c0.6,0,0.6,0.9,0,0.9C130.5,140.4,130.5,139.6,131.1,139.6z M130.8,140.6h0.2v0.3h0.9v0.1
							h-1.1V140.6z M131.1,140.3c0.3,0,0.3-0.5,0-0.5C130.8,139.7,130.8,140.3,131.1,140.3z M131.9,140.6h-0.2v-1.1h0.2v0.4h0.2v0.2
							h-0.2V140.6z"/>
						<path class="st4" d="M132.6,140.1c-0.1,0.1-0.3,0.3-0.4,0.3l-0.1-0.1c0.2-0.1,0.4-0.2,0.4-0.5v-0.1h-0.3v-0.1h0.9v0.1h-0.3
							v0.1c0,0.2,0.2,0.4,0.4,0.5l-0.1,0.1C132.9,140.4,132.7,140.3,132.6,140.1z M132.3,140.5h0.2v0.3h0.9v0.1h-1.1V140.5z
							 M133.2,140H133v-0.1h0.2v-0.3h0.2v1h-0.2V140z"/>
						<path class="st4" d="M134,140.5c-0.1,0.1-0.3,0.3-0.4,0.3l-0.1-0.1c0.2-0.2,0.4-0.3,0.4-0.6v-0.3h-0.3v-0.1h0.3v-0.1h0.2v0.1
							h0.3v0.1h-0.3v0.3c0,0.3,0.1,0.5,0.4,0.6l-0.1,0.1C134.2,140.8,134.1,140.7,134,140.5z M134.6,140.2h-0.2V140h0.2v-0.5h0.2
							v1.5h-0.2V140.2z"/>
					</g>
				</g>
			</g>
			<path class="st5" d="M192.3,67.8c2.5,0,4.6,2,4.6,4.6v23.5h-2.7v2.3h0.9c1,0,1.8,0.8,1.8,1.8v11.4c0,1-0.8,1.8-1.8,1.8h-0.9v5
				h0.9c1,0,1.8,0.8,1.8,1.8v70.6c0,1-0.8,1.8-1.8,1.8h-0.9v3.3h0.9c1,0,1.8,0.8,1.8,1.8v16.4c0,1-0.8,1.8-1.8,1.8h-39.1h-39.1
				c-1,0-1.8-0.8-1.8-1.8v-16.4c0-1,0.8-1.8,1.8-1.8h0.9v-3.3h-0.9c-1,0-1.8-0.8-1.8-1.8V120c0-1,0.8-1.8,1.8-1.8h0.9v-5h-0.9
				c-1,0-1.8-0.8-1.8-1.8V100c0-1,0.8-1.8,1.8-1.8h0.9v-2.3h-2.7V72.4c0-2.5,2-4.6,4.6-4.6h36.4H192.3 M192.3,66.4h-36.4h-36.4
				c-3.3,0-6,2.7-6,6v23.5v1.4h1.4c-0.8,0.6-1.4,1.6-1.4,2.6v11.4c0,1.6,1.2,3,2.7,3.2v2.2c-1.5,0.3-2.7,1.6-2.7,3.2v70.6
				c0,1.6,1.2,3,2.7,3.2v0.5c-1.5,0.3-2.7,1.6-2.7,3.2v16.4c0,1.8,1.5,3.3,3.3,3.3h39.1H195c1.8,0,3.3-1.5,3.3-3.3v-16.4
				c0-1.6-1.2-3-2.7-3.2v-0.5c1.5-0.3,2.7-1.6,2.7-3.2V120c0-1.6-1.2-3-2.7-3.2v-2.2c1.5-0.3,2.7-1.6,2.7-3.2V100
				c0-1.1-0.5-2.1-1.4-2.6h1.4v-1.4V72.4C198.3,69.1,195.6,66.4,192.3,66.4L192.3,66.4z"/>
			<g>
				<g>
					<path class="st12" d="M521.9,215.5h-49c-1.3,0-2.4-1.1-2.4-2.4v-21.3c0-1.3,1.1-2.4,2.4-2.4h49c1.3,0,2.4,1.1,2.4,2.4v21.3
						C524.3,214.5,523.2,215.5,521.9,215.5z"/>
					<rect x="479.8" y="139.3" class="st13" width="36" height="8.2"/>
					<rect x="476.6" y="123.8" class="st14" width="42.4" height="8.2"/>
					<path class="st12" d="M515,215.5h-35.2c-5.1,0-9.3-4.2-9.3-9.3v-50.8c0-5.1,4.2-9.3,9.3-9.3H515c5.1,0,9.3,4.2,9.3,9.3v50.8
						C524.3,211.4,520.1,215.5,515,215.5z"/>
					<rect x="470.5" y="160.8" class="st15" width="53.8" height="46.5"/>
					<path class="st4" d="M519.8,137.1H475c-0.4,0-0.7-0.3-0.7-0.7v-9.8c0-0.4,0.3-0.7,0.7-0.7h44.8c0.4,0,0.7,0.3,0.7,0.7v9.8
						C520.5,136.8,520.2,137.1,519.8,137.1z"/>
					<rect x="474.3" y="137.2" class="st4" width="46.2" height="5.3"/>
					<rect x="473.7" y="135.9" class="st13" width="47.5" height="1.5"/>
					<g>
						<circle class="st4" cx="480.9" cy="171.4" r="7.6"/>
						<g>
							<g>
								<g>
									<g>
										<g>
											<g>
												<path class="st3" d="M480.5,168.9v-0.8H480c0,0.1-0.1,0.2-0.1,0.2c-0.1,0.1-0.1,0.1-0.2,0.2c-0.1,0-0.2,0.1-0.2,0.1
													c-0.1,0-0.2,0.1-0.3,0.1l-0.1-0.2c0.1,0,0.2-0.1,0.3-0.1c0.1,0,0.2-0.1,0.2-0.1c0.1,0,0.1-0.1,0.2-0.2
													c0-0.1,0.1-0.1,0.1-0.2v-0.1c0-0.1,0-0.1,0-0.1c0,0-0.1,0-0.1,0h-0.5v-0.2h0.6c0.1,0,0.1,0,0.1,0c0,0,0.1,0,0.1,0
													c0,0,0,0.1,0.1,0.1c0,0,0,0.1,0,0.2v0.2h0.5v-0.5h0.2v1.4c0,0,0,0.1,0,0.1c0,0,0,0-0.1,0H480.5z M479.6,169.5
													c-0.1,0-0.1,0-0.1,0c0,0,0-0.1,0-0.1v-0.5h0.2v0.5c0,0,0,0,0,0h1.1v0.1c0,0,0,0.1,0,0.1c0,0,0,0-0.1,0H479.6z"/>
											</g>
										</g>
										<g>
											<g>
												<path class="st3" d="M480.7,169.5h-1.1c-0.1,0-0.1,0-0.1-0.1c0,0-0.1-0.1-0.1-0.1v-0.6h0.3v0.5c0,0,0,0,0,0l1.1,0v0.1
													C480.8,169.5,480.8,169.5,480.7,169.5C480.7,169.5,480.7,169.5,480.7,169.5z M479.4,168.8v0.5c0,0,0,0.1,0,0.1
													c0,0,0.1,0,0.1,0h1.1c0,0,0,0,0.1,0c0,0,0,0,0-0.1v-0.1h-1.1c0,0,0,0,0-0.1v-0.4H479.4z M480.6,169h-0.2v-0.8H480
													c0,0.1-0.1,0.1-0.1,0.2c-0.1,0.1-0.1,0.1-0.2,0.2c-0.1,0-0.2,0.1-0.2,0.1c-0.1,0-0.2,0.1-0.3,0.1l0,0l-0.2-0.2l0,0
													c0.1,0,0.2-0.1,0.3-0.1c0.1,0,0.2-0.1,0.2-0.1c0.1,0,0.1-0.1,0.2-0.2c0-0.1,0.1-0.1,0.1-0.2v-0.1c0-0.1,0-0.1,0-0.1
													c0,0,0,0-0.1,0h-0.6v-0.2h0.6c0.1,0,0.1,0,0.2,0c0,0,0.1,0,0.1,0.1c0,0,0,0.1,0.1,0.1c0,0,0,0.1,0,0.2v0.1h0.4v-0.5h0.3
													v1.4c0,0.1,0,0.1,0,0.1C480.7,168.9,480.6,169,480.6,169z M480.5,168.9h0.1c0,0,0.1,0,0.1,0c0,0,0,0,0-0.1v-1.4h-0.2
													v0.5H480v-0.2c0-0.1,0-0.1,0-0.1c0,0,0-0.1-0.1-0.1c0,0-0.1,0-0.1,0c0,0-0.1,0-0.1,0h-0.6v0.2h0.5c0.1,0,0.1,0,0.1,0
													c0,0,0,0.1,0,0.1v0.1c0,0.1,0,0.2-0.1,0.2c0,0.1-0.1,0.1-0.2,0.2c-0.1,0-0.2,0.1-0.2,0.1c-0.1,0-0.2,0.1-0.2,0.1
													l0.1,0.1c0.1,0,0.2,0,0.2-0.1c0.1,0,0.2-0.1,0.2-0.1c0.1,0,0.1-0.1,0.2-0.2c0.1-0.1,0.1-0.1,0.1-0.2l0,0h0.5V168.9z"/>
											</g>
										</g>
									</g>
									<g>
										<g>
											<g>
												<path class="st3" d="M481.8,167.9c0,0.1,0,0.2-0.1,0.3c0,0.1-0.1,0.1-0.2,0.2c-0.1,0.1-0.2,0.1-0.3,0.1
													c-0.1,0-0.2,0.1-0.3,0.1l-0.1-0.2c0.1,0,0.2-0.1,0.3-0.1c0.1,0,0.2-0.1,0.2-0.1c0.1,0,0.1-0.1,0.2-0.2
													c0-0.1,0.1-0.1,0.1-0.2v-0.1c0-0.1,0-0.1,0-0.1c0,0-0.1,0-0.1,0h-0.5v-0.2h0.6c0.1,0,0.1,0,0.1,0c0,0,0.1,0,0.1,0
													c0,0,0,0.1,0.1,0.1c0,0,0,0.1,0,0.2V167.9z M481.2,169.1c0-0.1,0-0.2,0.1-0.2c0-0.1,0.1-0.1,0.2-0.1
													c0.1,0,0.1-0.1,0.2-0.1c0.1,0,0.1,0,0.2,0c0.1,0,0.1,0,0.2,0c0.1,0,0.1,0,0.2,0.1c0.1,0,0.1,0.1,0.2,0.1
													c0,0.1,0.1,0.1,0.1,0.2c0,0.1,0,0.2-0.1,0.2c0,0.1-0.1,0.1-0.2,0.1c-0.1,0-0.1,0.1-0.2,0.1c-0.1,0-0.1,0-0.2,0
													c-0.1,0-0.1,0-0.2,0c-0.1,0-0.1,0-0.2-0.1c-0.1,0-0.1-0.1-0.2-0.1C481.2,169.3,481.2,169.2,481.2,169.1z M481.4,169.1
													c0,0.1,0,0.1,0,0.1c0,0,0.1,0.1,0.1,0.1c0,0,0.1,0,0.1,0c0,0,0.1,0,0.1,0c0,0,0.1,0,0.1,0c0,0,0.1,0,0.1,0
													c0,0,0.1,0,0.1-0.1c0,0,0-0.1,0-0.1s0-0.1,0-0.1c0,0-0.1-0.1-0.1-0.1c0,0-0.1,0-0.1,0s-0.1,0-0.1,0c0,0-0.1,0-0.1,0
													c0,0-0.1,0-0.1,0c0,0-0.1,0-0.1,0.1C481.4,169,481.4,169.1,481.4,169.1z M482.3,168.6v-1.2h0.2v0.5h0.3v0.2h-0.3v0.4
													c0,0,0,0.1,0,0.1c0,0,0,0-0.1,0H482.3z"/>
											</g>
										</g>
										<g>
											<g>
												<path class="st3" d="M481.9,169.6c-0.1,0-0.1,0-0.2,0c-0.1,0-0.2,0-0.2-0.1c-0.1,0-0.1-0.1-0.2-0.1
													c0-0.1-0.1-0.1-0.1-0.2c0-0.1,0-0.2,0.1-0.2c0-0.1,0.1-0.1,0.2-0.1c0.1,0,0.1-0.1,0.2-0.1c0.1,0,0.2,0,0.2,0
													c0.1,0,0.1,0,0.2,0c0.1,0,0.2,0,0.2,0.1c0.1,0,0.1,0.1,0.2,0.1c0,0.1,0.1,0.1,0.1,0.2s0,0.2-0.1,0.2
													c0,0.1-0.1,0.1-0.2,0.1c-0.1,0-0.1,0.1-0.2,0.1C482,169.6,481.9,169.6,481.9,169.6z M481.9,168.7c-0.1,0-0.1,0-0.2,0
													c-0.1,0-0.1,0-0.2,0.1c-0.1,0-0.1,0.1-0.2,0.1c0,0.1-0.1,0.1-0.1,0.2c0,0.1,0,0.2,0.1,0.2c0,0.1,0.1,0.1,0.2,0.1
													c0.1,0,0.1,0.1,0.2,0.1c0.1,0,0.1,0,0.2,0c0.1,0,0.1,0,0.2,0c0.1,0,0.1,0,0.2-0.1c0.1,0,0.1-0.1,0.2-0.1
													c0-0.1,0.1-0.1,0.1-0.2c0-0.1,0-0.2-0.1-0.2c0-0.1-0.1-0.1-0.2-0.1c-0.1,0-0.1-0.1-0.2-0.1
													C482,168.7,481.9,168.7,481.9,168.7z M481.9,169.4c0,0-0.1,0-0.1,0c-0.1,0-0.1,0-0.1,0c0,0-0.1,0-0.1-0.1
													c0,0-0.1-0.1-0.1-0.1c0-0.1,0-0.1,0.1-0.1c0,0,0.1-0.1,0.1-0.1c0,0,0.1,0,0.1,0c0.1,0,0.1,0,0.1,0c0,0,0.1,0,0.1,0
													c0,0,0.1,0,0.1,0c0,0,0.1,0,0.1,0.1c0,0,0.1,0.1,0.1,0.1c0,0.1,0,0.1,0,0.1c0,0-0.1,0.1-0.1,0.1c0,0-0.1,0-0.1,0
													C481.9,169.4,481.9,169.4,481.9,169.4z M481.9,168.9c0,0-0.1,0-0.1,0c0,0-0.1,0-0.1,0c0,0-0.1,0-0.1,0.1
													c0,0,0,0.1,0,0.1c0,0,0,0.1,0,0.1c0,0,0.1,0.1,0.1,0.1c0,0,0.1,0,0.1,0c0,0,0.1,0,0.1,0s0.1,0,0.1,0c0,0,0.1,0,0.1,0
													c0,0,0.1,0,0.1-0.1c0,0,0-0.1,0-0.1c0,0,0-0.1,0-0.1c0,0-0.1-0.1-0.1-0.1c0,0-0.1,0-0.1,0
													C481.9,168.9,481.9,168.9,481.9,168.9z M481,168.7l-0.2-0.2l0,0c0.1,0,0.2-0.1,0.3-0.1c0.1,0,0.2-0.1,0.2-0.1
													c0.1,0,0.1-0.1,0.2-0.2c0-0.1,0.1-0.1,0.1-0.2v-0.1c0-0.1,0-0.1,0-0.1c0,0,0,0-0.1,0h-0.6v-0.2h0.6c0.1,0,0.1,0,0.2,0
													c0,0,0.1,0,0.1,0.1c0,0,0,0.1,0.1,0.1c0,0,0,0.1,0,0.2v0.1c0,0.1,0,0.2-0.1,0.3c0,0.1-0.1,0.2-0.2,0.2
													c-0.1,0.1-0.2,0.1-0.3,0.1C481.2,168.6,481.1,168.6,481,168.7L481,168.7z M480.9,168.5l0.1,0.1c0.1,0,0.2-0.1,0.3-0.1
													c0.1,0,0.2-0.1,0.3-0.1c0.1-0.1,0.1-0.1,0.2-0.2c0-0.1,0.1-0.2,0.1-0.3v-0.1c0-0.1,0-0.1,0-0.1c0,0,0-0.1-0.1-0.1
													c0,0-0.1,0-0.1,0c0,0-0.1,0-0.1,0H481v0.2h0.5c0.1,0,0.1,0,0.1,0c0,0,0,0.1,0,0.1v0.1c0,0.1,0,0.2-0.1,0.2
													c0,0.1-0.1,0.1-0.2,0.2c-0.1,0-0.2,0.1-0.2,0.1C481.1,168.4,481,168.5,480.9,168.5z M482.4,168.6h-0.1v-1.3h0.3v0.5h0.3
													v0.2h-0.3v0.4c0,0,0,0.1,0,0.1C482.5,168.6,482.4,168.6,482.4,168.6z M482.3,168.6h0.1c0,0,0.1,0,0.1,0c0,0,0,0,0-0.1
													V168h0.3v-0.2h-0.3v-0.5h-0.2V168.6z"/>
											</g>
										</g>
									</g>
									<g>
										<g>
											<g>
												<path class="st3" d="M477.2,171.6c0,0,0.1,0,0.1,0c0,0,0.1,0,0.1-0.1c0,0,0.1,0,0.1-0.1c0,0,0.1-0.1,0.1-0.1
													c0,0,0.1-0.1,0.1-0.1c0,0,0.1-0.1,0.1-0.1c0,0,0-0.1,0.1-0.1c0,0,0-0.1,0-0.1v-0.4c0-0.1,0-0.1,0-0.1c0,0-0.1,0-0.1,0
													h-0.5v-0.2h0.6c0.1,0,0.1,0,0.2,0c0,0,0.1,0,0.1,0.1s0,0.1,0.1,0.1c0,0,0,0.1,0,0.2v0.4c0,0.1,0,0.2-0.1,0.3
													c0,0.1-0.1,0.2-0.2,0.2c-0.1,0.1-0.2,0.1-0.3,0.2c-0.1,0.1-0.2,0.1-0.4,0.1L477.2,171.6z M478.6,172.2v-2.1h0.2v2
													c0,0,0,0.1,0,0.1c0,0,0,0-0.1,0H478.6z"/>
											</g>
										</g>
										<g>
											<g>
												<path class="st3" d="M478.7,172.2h-0.1V170h0.3v2c0,0.1,0,0.1,0,0.1C478.8,172.2,478.8,172.2,478.7,172.2z M478.6,172.2
													h0.1c0,0,0.1,0,0.1,0c0,0,0,0,0-0.1v-2h-0.2V172.2z M477.3,171.7l-0.2-0.2l0,0c0,0,0.1,0,0.1,0c0,0,0.1,0,0.1-0.1
													c0,0,0.1,0,0.1-0.1c0,0,0.1,0,0.1-0.1c0,0,0.1-0.1,0.1-0.1c0,0,0.1-0.1,0.1-0.1c0,0,0-0.1,0-0.1c0,0,0-0.1,0-0.1v-0.4
													c0,0,0-0.1,0-0.1c0,0,0,0-0.1,0h-0.6v-0.2h0.6c0.1,0,0.1,0,0.2,0c0,0,0.1,0,0.1,0.1c0,0,0.1,0.1,0.1,0.1
													c0,0,0,0.1,0,0.2v0.4c0,0.1,0,0.2-0.1,0.3c0,0.1-0.1,0.2-0.2,0.2c-0.1,0.1-0.2,0.1-0.3,0.2
													C477.6,171.7,477.4,171.7,477.3,171.7L477.3,171.7z M477.2,171.6l0.1,0.1c0.1,0,0.2-0.1,0.3-0.1
													c0.1-0.1,0.2-0.1,0.3-0.2c0.1-0.1,0.1-0.1,0.2-0.2c0-0.1,0.1-0.2,0.1-0.3v-0.4c0-0.1,0-0.1,0-0.1c0,0,0-0.1-0.1-0.1
													c0,0-0.1,0-0.1-0.1c0,0-0.1,0-0.2,0h-0.6v0.2h0.5c0.1,0,0.1,0,0.1,0c0,0,0,0.1,0,0.1v0.4c0,0,0,0.1,0,0.1
													c0,0,0,0.1-0.1,0.1c0,0,0,0.1-0.1,0.1c0,0-0.1,0.1-0.1,0.1c0,0-0.1,0.1-0.1,0.1c0,0-0.1,0-0.1,0.1c0,0-0.1,0-0.1,0.1
													C477.3,171.5,477.2,171.6,477.2,171.6z"/>
											</g>
										</g>
									</g>
									<g>
										<g>
											<g>
												<path class="st3" d="M479,171h1.9v0.1c0,0.1,0,0.1-0.1,0.1H479V171z M479.2,171.8c0-0.1,0-0.1,0.1-0.2
													c0-0.1,0.1-0.1,0.2-0.1c0.1,0,0.1-0.1,0.2-0.1c0.1,0,0.2,0,0.3,0c0.1,0,0.2,0,0.3,0c0.1,0,0.2,0,0.2,0.1
													c0.1,0,0.1,0.1,0.2,0.1c0,0.1,0.1,0.1,0.1,0.2c0,0.1,0,0.1-0.1,0.2c0,0.1-0.1,0.1-0.1,0.1c-0.1,0-0.1,0.1-0.2,0.1
													c-0.1,0-0.2,0-0.3,0c-0.1,0-0.2,0-0.3,0c-0.1,0-0.2,0-0.2-0.1c-0.1,0-0.1-0.1-0.2-0.1
													C479.2,171.9,479.2,171.9,479.2,171.8z M479.4,170.8c-0.1,0-0.1,0-0.2,0c0,0,0-0.1,0-0.2v-0.6h0.1c0,0,0.1,0,0.1,0
													c0,0,0,0.1,0,0.1v0.4c0,0,0,0,0,0c0,0,0,0,0,0h1.1v0.1c0,0,0,0.1,0,0.1c0,0,0,0-0.1,0H479.4z M479.5,171.8
													C479.5,171.8,479.5,171.9,479.5,171.8c0.1,0.1,0.1,0.1,0.1,0.2c0,0,0.1,0,0.1,0c0.1,0,0.1,0,0.2,0c0.1,0,0.1,0,0.2,0
													c0.1,0,0.1,0,0.1,0c0,0,0.1,0,0.1-0.1c0,0,0-0.1,0-0.1c0,0,0-0.1,0-0.1c0,0-0.1-0.1-0.1-0.1c0,0-0.1,0-0.1,0
													c-0.1,0-0.1,0-0.2,0c-0.2,0-0.3,0-0.4,0.1C479.5,171.7,479.5,171.7,479.5,171.8z"/>
											</g>
										</g>
										<g>
											<g>
												<path class="st3" d="M479.9,172.2c-0.1,0-0.2,0-0.3,0c-0.1,0-0.2,0-0.2-0.1c-0.1,0-0.1-0.1-0.2-0.1
													c0-0.1-0.1-0.1-0.1-0.2c0-0.1,0-0.1,0.1-0.2c0-0.1,0.1-0.1,0.2-0.1c0.1,0,0.1-0.1,0.2-0.1c0.1,0,0.2,0,0.3,0
													c0.1,0,0.2,0,0.3,0c0.1,0,0.2,0,0.2,0.1c0.1,0,0.1,0.1,0.2,0.1c0,0.1,0.1,0.1,0.1,0.2c0,0.1,0,0.1-0.1,0.2
													c0,0.1-0.1,0.1-0.2,0.1c-0.1,0-0.1,0.1-0.2,0.1C480.1,172.2,480,172.2,479.9,172.2z M479.9,171.4c-0.1,0-0.2,0-0.3,0
													c-0.1,0-0.2,0-0.2,0.1c-0.1,0-0.1,0.1-0.1,0.1c0,0.1-0.1,0.1-0.1,0.2c0,0.1,0,0.1,0.1,0.2c0,0.1,0.1,0.1,0.1,0.1
													c0.1,0,0.1,0.1,0.2,0.1c0.1,0,0.2,0,0.3,0c0.1,0,0.2,0,0.3,0c0.1,0,0.2,0,0.2-0.1c0.1,0,0.1-0.1,0.1-0.1
													c0,0,0-0.1,0-0.2c0-0.1,0-0.1-0.1-0.2c0-0.1-0.1-0.1-0.1-0.1c-0.1,0-0.1-0.1-0.2-0.1C480.1,171.4,480,171.4,479.9,171.4
													z M479.9,172c-0.1,0-0.1,0-0.2,0c-0.1,0-0.1,0-0.2,0c0,0-0.1,0-0.1-0.1c0,0,0-0.1,0-0.1c0-0.1,0-0.1,0.1-0.2
													c0.1,0,0.2-0.1,0.4-0.1c0.1,0,0.1,0,0.2,0c0.1,0,0.1,0,0.2,0c0,0,0.1,0,0.1,0.1c0,0,0,0.1,0,0.1c0,0,0,0.1,0,0.1
													c0,0-0.1,0.1-0.1,0.1c0,0-0.1,0-0.2,0C480.1,172,480,172,479.9,172z M479.9,171.6c-0.1,0-0.3,0-0.3,0.1
													c-0.1,0-0.1,0.1-0.1,0.2c0,0,0,0.1,0,0.1c0,0,0,0,0.1,0.1c0,0,0.1,0,0.1,0c0.1,0,0.1,0,0.2,0c0.1,0,0.1,0,0.2,0
													c0.1,0,0.1,0,0.1,0c0,0,0.1,0,0.1-0.1c0,0,0,0,0-0.1c0,0,0-0.1,0-0.1c0,0-0.1,0-0.1-0.1c0,0-0.1,0-0.1,0
													C480.1,171.6,480,171.6,479.9,171.6z M480.8,171.3h-1.9V171h2v0.1C480.9,171.2,480.9,171.3,480.8,171.3z M479,171.2h1.8
													c0.1,0,0.1,0,0.1-0.1V171H479V171.2z M480.5,170.9h-1.1c-0.1,0-0.1,0-0.2,0c0,0-0.1-0.1-0.1-0.2V170h0.1
													c0,0,0.1,0,0.1,0.1c0,0,0,0.1,0,0.1v0.4c0,0,0,0,0,0c0,0,0,0,0,0h1.2v0.1C480.7,170.8,480.7,170.8,480.5,170.9
													C480.6,170.9,480.6,170.9,480.5,170.9z M479.2,170.1v0.6c0,0.1,0,0.1,0,0.1c0,0,0.1,0,0.1,0h1.1c0,0,0,0,0.1,0
													c0,0,0,0,0-0.1v-0.1h-1.1c0,0,0,0,0,0c0,0,0,0,0,0v-0.4c0,0,0-0.1,0-0.1C479.4,170.1,479.4,170.1,479.2,170.1
													L479.2,170.1z"/>
											</g>
										</g>
									</g>
									<g>
										<g>
											<g>
												<path class="st3" d="M481.6,170.5c0,0.1,0,0.1,0,0.2c0,0.1,0.1,0.1,0.1,0.1c0,0,0.1,0.1,0.2,0.1c0.1,0,0.1,0.1,0.2,0.1
													l-0.1,0.2c0,0-0.1,0-0.1-0.1s-0.1-0.1-0.1-0.1c0,0-0.1-0.1-0.1-0.1c0,0-0.1-0.1-0.1-0.1c-0.1,0.1-0.1,0.1-0.2,0.2
													c-0.1,0.1-0.2,0.1-0.3,0.2l-0.2-0.2c0.1,0,0.1-0.1,0.2-0.1c0.1,0,0.1-0.1,0.2-0.1c0.1-0.1,0.1-0.1,0.1-0.2
													c0-0.1,0-0.1,0-0.2v-0.4h0.2c0,0,0.1,0,0.1,0c0,0,0,0,0,0.1V170.5z M482.4,172.2v-0.5c0,0,0,0,0,0h-1.1v-0.2h1.1
													c0.1,0,0.1,0,0.1,0c0,0,0,0.1,0,0.1v0.5c0,0.1,0,0.1,0,0.1c0,0,0,0-0.1,0H482.4z M482.4,171.3v-1.2h0.2v1.1
													c0,0,0,0.1,0,0.1c0,0,0,0-0.1,0H482.4z"/>
											</g>
										</g>
										<g>
											<g>
												<path class="st3" d="M482.5,172.2h-0.1v-0.6c0,0,0,0,0,0c0,0,0,0,0,0h-1.1v-0.2h1.2c0.1,0,0.1,0,0.1,0
													c0,0,0.1,0.1,0.1,0.1v0.5C482.6,172.1,482.6,172.1,482.5,172.2C482.6,172.2,482.5,172.2,482.5,172.2z M482.4,172.2h0.1
													c0,0,0.1,0,0.1,0c0,0,0,0,0-0.1v-0.5c0,0,0-0.1,0-0.1c0,0-0.1,0-0.1,0h-1.1v0.2h1c0,0,0,0,0,0.1V172.2z M482.5,171.3
													h-0.1V170h0.3v1.1c0,0.1,0,0.1,0,0.1C482.6,171.3,482.5,171.3,482.5,171.3z M482.4,171.3h0.1c0,0,0.1,0,0.1,0
													c0,0,0-0.1,0-0.1v-1.1h-0.2V171.3z M480.9,171.3l-0.2-0.2l0,0c0.1,0,0.1-0.1,0.2-0.1c0.1,0,0.1-0.1,0.2-0.1
													c0-0.1,0.1-0.1,0.1-0.2c0-0.1,0-0.1,0-0.2v-0.4h0.2c0,0,0.1,0,0.1,0c0,0,0,0,0,0.1v0.3c0,0.1,0,0.1,0,0.2
													c0,0.1,0.1,0.1,0.1,0.1c0,0,0.1,0.1,0.2,0.1c0.1,0,0.1,0.1,0.2,0.1l0,0l-0.2,0.2l0,0c0,0-0.1,0-0.1-0.1
													c0,0-0.1-0.1-0.1-0.1c0,0-0.1-0.1-0.1-0.1c0,0-0.1-0.1-0.1-0.1c0,0.1-0.1,0.1-0.2,0.2
													C481.2,171.2,481.1,171.2,480.9,171.3L480.9,171.3z M480.8,171.1l0.1,0.1c0.1-0.1,0.2-0.1,0.3-0.2
													c0.1-0.1,0.2-0.1,0.2-0.2l0,0l0,0c0,0,0.1,0.1,0.1,0.1c0,0,0.1,0.1,0.1,0.1c0,0,0.1,0.1,0.1,0.1c0,0,0.1,0,0.1,0.1
													l0.1-0.1c-0.1,0-0.1-0.1-0.2-0.1c-0.1,0-0.1-0.1-0.2-0.1c0,0-0.1-0.1-0.1-0.2c0-0.1,0-0.1,0-0.2v-0.3c0,0,0,0,0-0.1
													c0,0,0,0-0.1,0h-0.1v0.4c0,0.1,0,0.1,0,0.2c0,0.1-0.1,0.1-0.1,0.2c-0.1,0.1-0.1,0.1-0.2,0.1
													C480.9,171.1,480.9,171.1,480.8,171.1z"/>
											</g>
										</g>
									</g>
									<g>
										<g>
											<g>
												<path class="st3" d="M482.8,171h1.9v0.1c0,0.1,0,0.1-0.1,0.1h-0.7v0.2h0.6v0.5c0,0.1,0,0.2-0.1,0.2
													c0,0.1-0.1,0.1-0.2,0.1h-0.9c-0.1,0-0.1,0-0.1-0.1c0,0-0.1-0.1-0.1-0.2v-0.5h0.6v-0.2h-0.9V171z M483.2,170.3H483v-0.2
													h1.5v0.2h-0.2v0.3c0,0,0,0,0,0c0,0,0,0,0,0h0.3v0.1c0,0.1,0,0.1-0.1,0.1h-1.5v-0.2h0.3c0,0,0,0,0,0c0,0,0,0,0-0.1V170.3
													z M484.1,172C484.1,172,484.2,172,484.1,172c0.1,0,0.1,0,0.1-0.1v-0.3h-0.9v0.3c0,0,0,0.1,0,0.1H484.1z M484,170.7
													C484,170.7,484,170.7,484,170.7C484,170.6,484,170.6,484,170.7l0.1-0.4h-0.6v0.3c0,0,0,0.1,0,0.1c0,0,0,0,0.1,0H484z"/>
											</g>
										</g>
										<g>
											<g>
												<path class="st3" d="M484.1,172.2h-0.9c-0.1,0-0.1,0-0.2-0.1c0,0-0.1-0.1-0.1-0.2v-0.5h0.6v-0.2h-0.9V171h2v0.1
													c0,0.1,0,0.1-0.1,0.1h-0.7v0.2h0.6v0.5c0,0.1,0,0.2-0.1,0.2C484.3,172.2,484.3,172.2,484.1,172.2z M483.1,171.5v0.5
													c0,0.1,0,0.1,0.1,0.2c0,0,0.1,0.1,0.1,0.1h0.9c0.1,0,0.2,0,0.2-0.1c0,0,0.1-0.1,0.1-0.2v-0.4h-0.6v-0.2h0.8
													c0.1,0,0.1,0,0.1-0.1V171h-1.9v0.2h0.9v0.2H483.1z M484.1,172h-0.8c0,0-0.1,0-0.1-0.1v-0.3h1v0.3
													C484.2,171.9,484.2,172,484.1,172C484.2,172,484.1,172,484.1,172z M483.3,171.7v0.3c0,0,0,0,0,0h0.8c0,0,0.1,0,0.1,0
													c0,0,0,0,0,0v-0.3H483.3z M484.4,170.9h-1.5v-0.2h0.3c0,0,0,0,0,0c0,0,0,0,0-0.1v-0.3h-0.2v-0.2h1.6v0.2h-0.2v0.3
													c0,0,0,0,0,0.1c0,0,0,0,0,0h0.3v0.1C484.6,170.8,484.5,170.9,484.4,170.9z M482.9,170.8h1.5c0.1,0,0.1,0,0.1-0.1v-0.1
													h-0.3l0,0c0,0,0,0,0,0c0,0,0,0,0,0v-0.3h0.2v-0.2H483v0.2h0.2v0.3c0,0,0,0,0,0c0,0,0,0,0,0l0,0h-0.3V170.8z M484,170.7
													h-0.5c0,0-0.1,0-0.1,0c0,0,0,0,0-0.1v-0.3h0.6v0.3C484,170.6,484,170.6,484,170.7C484,170.7,484,170.7,484,170.7z
													 M483.5,170.3v0.3c0,0,0,0,0,0.1c0,0,0,0,0,0h0.5c0,0,0,0,0,0c0,0,0,0,0-0.1v-0.3H483.5z"/>
											</g>
										</g>
									</g>
								</g>
							</g>
							<path class="st11" d="M486.2,171c0,0.1,0,0.1,0,0.2c0,1-2.4,1.9-5.3,1.9c-2.9,0-5.3-0.8-5.3-1.9c0-0.1,0-0.1,0-0.2
								c-0.4,0.3-0.6,0.6-0.6,0.9c0,1.2,2.6,2.1,5.9,2.1s5.9-0.9,5.9-2.1C486.8,171.6,486.6,171.3,486.2,171z"/>
							<path class="st3" d="M480.9,163.8c-4.2,0-7.6,3.4-7.6,7.6c0,4.2,3.4,7.6,7.6,7.6c4.2,0,7.6-3.4,7.6-7.6
								C488.5,167.2,485.1,163.8,480.9,163.8z M480.9,164.3c3.9,0,7.1,3.2,7.1,7.1c0,1.4-0.4,2.7-1.1,3.8h-12
								c-0.7-1.1-1.1-2.4-1.1-3.8C473.8,167.5,477,164.3,480.9,164.3z"/>
							<g>
								<path class="st4" d="M477,176.3c0,0.1-0.2,0.2-0.3,0.2l-0.1-0.1c0.1-0.1,0.3-0.2,0.3-0.4v-0.1h0.2v0.1
									c0,0.2,0.1,0.3,0.3,0.4l-0.1,0.1C477.2,176.5,477.1,176.4,477,176.3z M477.4,176.7h-0.7v-0.1h0.9v0.4h-0.2V176.7z
									 M477.4,175.9h0.2v0.6h-0.2V175.9z"/>
								<path class="st4" d="M478.3,176.6h0.4v0.4h-0.9v-0.4h0.4v-0.1h-0.4v-0.1h1v0.1L478.3,176.6L478.3,176.6z M477.8,176.2h0.1
									V176h-0.1v-0.1h0.9v0.1h-0.1v0.2h0.1v0.1h-0.9V176.2z M477.9,176.7v0.2h0.5v-0.2H477.9z M478.1,176v0.2h0.3V176H478.1z"/>
								<path class="st4" d="M479.6,176.9c-0.1,0-0.1,0-0.2,0h-0.6v-0.1h0.6c0.1,0,0.1,0,0.2,0c0,0,0-0.8,0-0.8h0.2v1.1h-0.2V176.9z
									 M479.1,175.9c0.4,0,0.4,0.7,0,0.7C478.7,176.6,478.7,175.9,479.1,175.9z M479.1,176.5c0.2,0,0.2-0.5,0-0.5
									C478.9,176,478.9,176.5,479.1,176.5z"/>
								<path class="st4" d="M480.2,175.9c0.4,0,0.4,0.6,0,0.6C479.8,176.5,479.8,175.9,480.2,175.9z M480.7,176.7H480v-0.1h0.9v0.4
									h-0.2V176.7z M480.2,176.4c0.2,0,0.2-0.4,0-0.4C480,176,480,176.4,480.2,176.4z M480.8,176.5h-0.2v-0.6h0.2v0.1h0.1v0.1
									h-0.1v0.1h0.1v0.1h-0.1V176.5z"/>
								<path class="st4" d="M481.6,176.6h0.4v0.4H481v-0.4h0.4v-0.1H481v-0.1h1v0.1L481.6,176.6L481.6,176.6z M481,176.2h0.1V176
									H481v-0.1h0.9v0.1h-0.1v0.2h0.1v0.1H481V176.2z M481.2,176.7v0.2h0.5v-0.2H481.2z M481.3,176v0.2h0.3V176H481.3z"/>
								<path class="st4" d="M482.4,175.9c0.4,0,0.4,0.7,0,0.7C482,176.6,482,175.9,482.4,175.9z M482.2,176.7h0.2v0.2h0.7v0.1h-0.8
									V176.7z M482.4,176.4c0.2,0,0.2-0.4,0-0.4C482.2,176,482.2,176.4,482.4,176.4z M483,176.7h-0.2v-0.8h0.2v0.3h0.1v0.1H483
									V176.7z"/>
								<path class="st4" d="M483.5,176.3c-0.1,0.1-0.2,0.2-0.3,0.2l-0.1-0.1c0.1-0.1,0.3-0.2,0.3-0.4V176h-0.2v-0.1h0.6v0.1h-0.2
									v0.1c0,0.2,0.2,0.3,0.3,0.4l-0.1,0.1C483.7,176.5,483.6,176.4,483.5,176.3z M483.3,176.6h0.1v0.3h0.7v0.1h-0.8V176.6z
									 M484,176.3h-0.2v-0.1h0.2v-0.3h0.2v0.8H484V176.3z"/>
								<path class="st4" d="M484.6,176.6c-0.1,0.1-0.2,0.2-0.3,0.3l-0.1-0.1c0.2-0.1,0.3-0.2,0.3-0.5v-0.2h-0.2V176h0.2v-0.1h0.2
									v0.1h0.2v0.1h-0.2v0.3c0,0.2,0.1,0.4,0.3,0.5l-0.1,0.1C484.8,176.9,484.7,176.7,484.6,176.6z M485,176.4h-0.2v-0.1h0.2v-0.4
									h0.2v1.1H485V176.4z"/>
							</g>
						</g>
					</g>
				</g>
				<path class="st5" d="M519,123.8v2.1h0.8c0.4,0,0.7,0.3,0.7,0.7v9.3h0.6v1.5h-0.6v5h-4.7v3.8c4.7,0.4,8.5,4.4,8.5,9.2v36.3v14.5
					v6.9c0,1.3-1.1,2.4-2.4,2.4H515h-35.2h-6.9c-1.3,0-2.4-1.1-2.4-2.4v-6.9v-14.5v-36.3c0-5.1,4.2-9.3,9.3-9.3h0v-3.8h-5.5v-5h-0.6
					v-1.5h0.6v-9.3c0-0.4,0.3-0.7,0.7-0.7h1.6v-2.1H519 M520.5,122.4H519h-42.4h-1.4v1.4v0.6H475c-1.2,0-2.2,1-2.2,2.2v7.9h-0.6v1.4
					v1.5v1.4h0.6v3.6v1.4h1.4h4v1c-5.2,0.7-9.3,5.2-9.3,10.6v36.3v14.5v6.9c0,2.1,1.7,3.8,3.8,3.8h6.9H515h6.9
					c2.1,0,3.8-1.7,3.8-3.8v-6.9v-14.5v-36.3c0-2.7-1-5.3-2.9-7.3c-1.5-1.6-3.5-2.8-5.6-3.2v-1.1h3.3h1.4v-1.4v-3.6h0.6v-1.4v-1.5
					v-1.4h-0.6v-7.9c0-1-0.6-1.8-1.5-2.1v-0.7V122.4L520.5,122.4z"/>
			</g>
			<g>
				<path class="st16" d="M102.7,131.6c-3.1-2.6-6.6-5.6-6.6-10c0-3.9,2.4-6.4,4.3-8.4c2.5-2.6,4.2-4.5,3.4-9.2L96,73.1
					c-0.3-0.2-1.5-0.5-2.6-0.6c0,0-0.1,0-0.1,0c0,0,0,0,0,0c-1.1,0-2.3,0.3-2.6,0.6L82.9,104c-0.9,4.7,0.9,6.6,3.4,9.2
					c1.9,2,4.3,4.6,4.3,8.4c0,4.4-3.5,7.4-6.6,10c-3.5,3-5.8,5.2-5.8,8.1v71.6c0,2.9,1.2,4.4,3.6,4.4H85h16.6h3.3
					c2.4,0,3.6-1.5,3.6-4.4v-71.6C108.5,136.8,106.2,134.6,102.7,131.6z"/>
				<polygon class="st17" points="78.2,144.1 78.2,163.3 78.2,171.3 78.2,175.1 78.2,180.4 78.2,196 96.4,196 96.4,144.1 				"/>
			</g>
			<path class="st5" d="M93.3,72.5C93.3,72.5,93.4,72.5,93.3,72.5c1.2,0,2.4,0.3,2.7,0.6l7.8,30.9c0.9,4.7-0.9,6.6-3.4,9.2
				c-1.9,2-4.3,4.6-4.3,8.4c0,4.4,3.5,7.4,6.6,10c3.5,3,5.8,5.2,5.8,8.1v71.6c0,2.9-1.2,4.4-3.6,4.4h-3.3H85h-3.3
				c-2.4,0-3.6-1.5-3.6-4.4v-71.6c0-2.9,2.3-5.1,5.8-8.1c3.1-2.6,6.6-5.6,6.6-10c0-3.9-2.4-6.4-4.3-8.4c-2.5-2.6-4.2-4.5-3.4-9.2
				l7.8-30.8C90.9,72.9,92.2,72.6,93.3,72.5C93.3,72.5,93.3,72.5,93.3,72.5C93.3,72.5,93.3,72.5,93.3,72.5 M93.3,71.1
				C93.3,71.1,93.3,71.1,93.3,71.1L93.3,71.1L93.3,71.1C93.2,71.1,93.2,71.1,93.3,71.1L93.3,71.1c-0.4,0-2.8,0.1-3.7,1.1l-0.3,0.3
				l-0.1,0.4l-7.8,30.8l0,0l0,0c-1,5.5,1.2,7.8,3.7,10.5c1.9,1.9,4,4.1,4,7.4c0,3.8-3.1,6.4-6.1,8.9c-3.7,3.2-6.3,5.7-6.3,9.2v71.6
				c0,1.8,0.4,3.2,1.2,4.2c0.6,0.7,1.7,1.6,3.8,1.7l0,0h0H85h16.6h3.3h0l0,0c2,0,3.2-0.9,3.8-1.7c0.8-1,1.2-2.4,1.2-4.2v-71.6
				c0-3.5-2.6-6-6.3-9.2c-3-2.6-6.1-5.2-6.1-8.9c0-3.3,2.1-5.5,3.9-7.4c2.6-2.7,4.8-5,3.7-10.5l0,0l0,0l-7.8-30.9l-0.1-0.4L97,72.1
				c-0.9-0.9-3.3-1-3.5-1l0,0L93.3,71.1L93.3,71.1L93.3,71.1L93.3,71.1z"/>
			<g>
				<g>
					<path class="st18" d="M71.2,212.1v-38c0-2,1.6-3.6,3.6-3.6H162c2,0,3.6,1.6,3.6,3.6v38c0,2-1.6,3.6-3.6,3.6H74.8
						C72.8,215.7,71.2,214.1,71.2,212.1z"/>
					<g>
						<g>
							<circle class="st4" cx="152.7" cy="181.7" r="4.5"/>
							<path class="st18" d="M152.7,177.2c-0.1,0-0.2,0-0.2,0v8.9c0.1,0,0.2,0,0.2,0c0.1,0,0.2,0,0.2,0v-8.9
								C152.9,177.2,152.8,177.2,152.7,177.2z"/>
						</g>
						<g>
							<circle class="st4" cx="152.7" cy="204.6" r="4.5"/>
							<path class="st18" d="M152.7,200.1c-0.1,0-0.2,0-0.2,0v8.9c0.1,0,0.2,0,0.2,0c0.1,0,0.2,0,0.2,0v-8.9
								C152.9,200.1,152.8,200.1,152.7,200.1z"/>
						</g>
						<g>
							<circle class="st4" cx="129.8" cy="181.7" r="4.5"/>
							<path class="st18" d="M129.8,177.2c-0.1,0-0.2,0-0.2,0v8.9c0.1,0,0.2,0,0.2,0c0.1,0,0.2,0,0.2,0v-8.9
								C130,177.2,129.9,177.2,129.8,177.2z"/>
						</g>
						<g>
							<circle class="st4" cx="129.8" cy="204.6" r="4.5"/>
							<path class="st18" d="M129.8,200.1c-0.1,0-0.2,0-0.2,0v8.9c0.1,0,0.2,0,0.2,0c0.1,0,0.2,0,0.2,0v-8.9
								C130,200.1,129.9,200.1,129.8,200.1z"/>
						</g>
						<g>
							<circle class="st4" cx="106.9" cy="181.7" r="4.5"/>
							<path class="st18" d="M106.9,177.2c-0.1,0-0.2,0-0.2,0v8.9c0.1,0,0.2,0,0.2,0c0.1,0,0.2,0,0.2,0v-8.9
								C107.1,177.2,107,177.2,106.9,177.2z"/>
						</g>
						<g>
							<circle class="st4" cx="106.9" cy="204.6" r="4.5"/>
							<path class="st18" d="M106.9,200.1c-0.1,0-0.2,0-0.2,0v8.9c0.1,0,0.2,0,0.2,0c0.1,0,0.2,0,0.2,0v-8.9
								C107.1,200.1,107,200.1,106.9,200.1z"/>
						</g>
						<g>
							<circle class="st4" cx="84" cy="181.7" r="4.5"/>
							<path class="st18" d="M84,177.2c-0.1,0-0.2,0-0.2,0v8.9c0.1,0,0.2,0,0.2,0s0.2,0,0.2,0v-8.9C84.2,177.2,84.1,177.2,84,177.2z
								"/>
						</g>
						<g>
							<circle class="st4" cx="84" cy="204.6" r="4.5"/>
							<path class="st18" d="M84,200.1c-0.1,0-0.2,0-0.2,0v8.9c0.1,0,0.2,0,0.2,0s0.2,0,0.2,0v-8.9C84.2,200.1,84.1,200.1,84,200.1z
								"/>
						</g>
					</g>
				</g>
				<path class="st4" d="M77.3,192.7L77.3,192.7c0-0.4,0.3-0.8,0.8-0.8h79.5c0.4,0,0.8,0.3,0.8,0.8l0,0c0,0.4-0.3,0.8-0.8,0.8H78.1
					C77.7,193.4,77.3,193.1,77.3,192.7z"/>
			</g>
			<path class="st5" d="M162,170.5c2,0,3.6,1.6,3.6,3.6v38c0,2-1.6,3.6-3.6,3.6H74.8c-2,0-3.6-1.6-3.6-3.6v-38c0-2,1.6-3.6,3.6-3.6
				H162 M162,169H74.8c-2.8,0-5.1,2.3-5.1,5.1v38c0,2.8,2.3,5.1,5.1,5.1H162c2.8,0,5.1-2.3,5.1-5.1v-38C167,171.3,164.8,169,162,169
				L162,169z"/>
		</g>
		
			<rect x="409.8" y="123.1" transform="matrix(0.7072 -0.707 0.707 0.7072 30.635 326.9055)" class="st7" width="0.6" height="6.8"/>
		<rect x="415.8" y="129.1" class="st19" width="2.5" height="86.7"/>
		<rect x="417.8" y="129.1" class="st19" width="6.7" height="86.7"/>
		<rect x="425.7" y="129.1" class="st19" width="2.4" height="86.7"/>
		<g>
			<path class="st18" d="M457.5,182.9h-38.6c-2,0-3.7-1.6-3.7-3.7V90.6c0-2,1.6-3.7,3.7-3.7h38.6c2,0,3.7,1.6,3.7,3.7v88.6
				C461.2,181.3,459.6,182.9,457.5,182.9z"/>
			<path class="st18" d="M438.2,176.1L438.2,176.1c-0.4,0-0.8-0.3-0.8-0.8V94.6c0-0.4,0.3-0.8,0.8-0.8l0,0c0.4,0,0.8,0.3,0.8,0.8
				v80.7C439,175.7,438.6,176.1,438.2,176.1z"/>
			<g>
				<path class="st4" d="M421.7,106.4L421.7,106.4c-1.1-1-1.3-2.7-0.3-3.8l6.2-7.4c1-1.1,2.7-1.3,3.8-0.3h0c1.1,1,1.3,2.7,0.3,3.8
					l-6.2,7.4C424.6,107.2,422.9,107.4,421.7,106.4z"/>
				<path class="st20" d="M431.4,94.8c-1.1-1-2.9-0.8-3.8,0.3l-3.1,3.7l4.1,3.5l3.1-3.7C432.7,97.5,432.6,95.8,431.4,94.8z"/>
			</g>
			<g>
				<path class="st4" d="M421.7,120.1L421.7,120.1c-1.1-1-1.3-2.7-0.3-3.8l6.2-7.4c1-1.1,2.7-1.3,3.8-0.3h0c1.1,1,1.3,2.7,0.3,3.8
					l-6.2,7.4C424.6,120.9,422.9,121.1,421.7,120.1z"/>
				<path class="st20" d="M431.4,108.6c-1.1-1-2.9-0.8-3.8,0.3l-3.1,3.7l4.1,3.5l3.1-3.7C432.7,111.2,432.6,109.5,431.4,108.6z"/>
			</g>
			<g>
				<path class="st4" d="M421.7,133.8L421.7,133.8c-1.1-1-1.3-2.7-0.3-3.8l6.2-7.4c1-1.1,2.7-1.3,3.8-0.3h0c1.1,1,1.3,2.7,0.3,3.8
					l-6.2,7.4C424.6,134.7,422.9,134.8,421.7,133.8z"/>
				<path class="st20" d="M431.4,122.3c-1.1-1-2.9-0.8-3.8,0.3l-3.1,3.7l4.1,3.5l3.1-3.7C432.7,124.9,432.6,123.2,431.4,122.3z"/>
			</g>
			<g>
				<path class="st4" d="M421.7,161.3L421.7,161.3c-1.1-1-1.3-2.7-0.3-3.8l6.2-7.4c1-1.1,2.7-1.3,3.8-0.3h0c1.1,1,1.3,2.7,0.3,3.8
					l-6.2,7.4C424.6,162.1,422.9,162.3,421.7,161.3z"/>
				<path class="st20" d="M431.4,149.7c-1.1-1-2.9-0.8-3.8,0.3l-3.1,3.7l4.1,3.5l3.1-3.7C432.7,152.4,432.6,150.7,431.4,149.7z"/>
			</g>
			<g>
				<path class="st4" d="M421.7,175L421.7,175c-1.1-1-1.3-2.7-0.3-3.8l6.2-7.4c1-1.1,2.7-1.3,3.8-0.3h0c1.1,1,1.3,2.7,0.3,3.8
					l-6.2,7.4C424.6,175.8,422.9,176,421.7,175z"/>
				<path class="st20" d="M431.4,163.5c-1.1-1-2.9-0.8-3.8,0.3l-3.1,3.7l4.1,3.5l3.1-3.7C432.7,166.1,432.6,164.4,431.4,163.5z"/>
			</g>
			<g>
				<path class="st4" d="M421.7,147.6L421.7,147.6c-1.1-1-1.3-2.7-0.3-3.8l6.2-7.4c1-1.1,2.7-1.3,3.8-0.3h0c1.1,1,1.3,2.7,0.3,3.8
					l-6.2,7.4C424.6,148.4,422.9,148.5,421.7,147.6z"/>
				<path class="st20" d="M431.4,136c-1.1-1-2.9-0.8-3.8,0.3l-3.1,3.7l4.1,3.5l3.1-3.7C432.7,138.7,432.6,137,431.4,136z"/>
			</g>
			<g>
				<path class="st4" d="M445,106.4L445,106.4c-1.1-1-1.3-2.7-0.3-3.8l6.2-7.4c1-1.1,2.7-1.3,3.8-0.3h0c1.1,1,1.3,2.7,0.3,3.8
					l-6.2,7.4C447.9,107.2,446.2,107.4,445,106.4z"/>
				<path class="st20" d="M454.7,94.8c-1.1-1-2.9-0.8-3.8,0.3l-3.1,3.7l4.1,3.5l3.1-3.7C456,97.5,455.8,95.8,454.7,94.8z"/>
			</g>
			<g>
				<path class="st4" d="M445,120.1L445,120.1c-1.1-1-1.3-2.7-0.3-3.8l6.2-7.4c1-1.1,2.7-1.3,3.8-0.3h0c1.1,1,1.3,2.7,0.3,3.8
					l-6.2,7.4C447.9,120.9,446.2,121.1,445,120.1z"/>
				<path class="st20" d="M454.7,108.6c-1.1-1-2.9-0.8-3.8,0.3l-3.1,3.7l4.1,3.5l3.1-3.7C456,111.2,455.8,109.5,454.7,108.6z"/>
			</g>
			<g>
				<path class="st4" d="M445,133.8L445,133.8c-1.1-1-1.3-2.7-0.3-3.8l6.2-7.4c1-1.1,2.7-1.3,3.8-0.3h0c1.1,1,1.3,2.7,0.3,3.8
					l-6.2,7.4C447.9,134.7,446.2,134.8,445,133.8z"/>
				<path class="st20" d="M454.7,122.3c-1.1-1-2.9-0.8-3.8,0.3l-3.1,3.7l4.1,3.5l3.1-3.7C456,124.9,455.8,123.2,454.7,122.3z"/>
			</g>
			<g>
				<path class="st4" d="M445,161.3L445,161.3c-1.1-1-1.3-2.7-0.3-3.8l6.2-7.4c1-1.1,2.7-1.3,3.8-0.3h0c1.1,1,1.3,2.7,0.3,3.8
					l-6.2,7.4C447.9,162.1,446.2,162.3,445,161.3z"/>
				<path class="st20" d="M454.7,149.7c-1.1-1-2.9-0.8-3.8,0.3l-3.1,3.7l4.1,3.5l3.1-3.7C456,152.4,455.8,150.7,454.7,149.7z"/>
			</g>
			<g>
				<path class="st4" d="M445,175L445,175c-1.1-1-1.3-2.7-0.3-3.8l6.2-7.4c1-1.1,2.7-1.3,3.8-0.3h0c1.1,1,1.3,2.7,0.3,3.8l-6.2,7.4
					C447.9,175.8,446.2,176,445,175z"/>
				<path class="st20" d="M454.7,163.5c-1.1-1-2.9-0.8-3.8,0.3l-3.1,3.7l4.1,3.5l3.1-3.7C456,166.1,455.8,164.4,454.7,163.5z"/>
			</g>
			<g>
				<path class="st4" d="M445,147.6L445,147.6c-1.1-1-1.3-2.7-0.3-3.8l6.2-7.4c1-1.1,2.7-1.3,3.8-0.3h0c1.1,1,1.3,2.7,0.3,3.8
					l-6.2,7.4C447.9,148.4,446.2,148.5,445,147.6z"/>
				<path class="st20" d="M454.7,136c-1.1-1-2.9-0.8-3.8,0.3l-3.1,3.7l4.1,3.5l3.1-3.7C456,138.7,455.8,137,454.7,136z"/>
			</g>
		</g>
		
			<rect x="463" y="126.2" transform="matrix(0.7084 -0.7058 0.7058 0.7084 46.7229 366.0288)" class="st7" width="6.8" height="0.6"/>
		<rect x="412.2" y="129.1" class="st21" width="52" height="86.7"/>
		<rect x="448.5" y="137.2" class="st19" width="8.2" height="70.4"/>
		<path class="st22" d="M457.5,87c2,0,3.7,1.6,3.7,3.7V114h3v8.2v6l4.4-4.4l0.4,0.4l-4.8,4.8v71.7v8.2v6.8h-36.1h-2.4h-1.3h-6.2
			h-0.5h-2h-3.6v-6.8v-8.2v-71.7l-4.8-4.8l0.4-0.4l4.4,4.4v-6V114h3V90.6c0-2,1.6-3.7,3.7-3.7H457.5 M457.5,85.5h-38.6
			c-2.8,0-5.1,2.3-5.1,5.1v22h-1.5h-1.4v1.4v8.2v2.5l-1.9-1.9l-1-1l-1,1l-0.4,0.4l-1,1l1,1l4.4,4.4v71.1v8.2v6.8v1.4h1.4h3.6h2h0.5
			h6.2h1.3h2.4h36.1h1.4v-1.4v-6.8v-8.2v-71.1l4.4-4.4l1-1l-1-1l-0.4-0.4l-1-1l-1,1l-1.9,1.9v-2.5V114v-1.4h-1.4h-1.5v-22
			C462.6,87.8,460.3,85.5,457.5,85.5L457.5,85.5z"/>
	</g>
</g>
</svg>
