<?xml version="1.0" encoding="utf-8"?>
<!-- Generator: Adobe Illustrator 26.0.2, SVG Export Plug-In . SVG Version: 6.00 Build 0)  -->
<svg version="1.1" id="Layer_1" xmlns="http://www.w3.org/2000/svg" xmlns:xlink="http://www.w3.org/1999/xlink" x="0px" y="0px"
	 viewBox="0 0 149 34" style="enable-background:new 0 0 149 34;" xml:space="preserve">
<style type="text/css">
	.st0{fill:#F58920;}
	.st1{fill:#8AC441;}
	.st2{fill:#1F1F1F;}
	.st3{fill:#6B6B6B;}
	.st4{fill:#211D1E;}
	.st5{fill:#16A7E0;}
	.st6{fill:#FFFFFF;}
	.st7{fill:#003964;}
	.st8{fill:#ED1A3B;}
	.st9{fill:#575756;}
	.st10{fill:#003685;}
	.st11{fill:url(#SVGID_1_);}
	.st12{fill:url(#SVGID_00000089532670696699000580000010192387713366913690_);}
	.st13{fill:url(#SVGID_00000169528414953284024040000013789153018249394856_);}
	.st14{fill:url(#SVGID_00000018194592796106041960000011738976243938116529_);}
	.st15{fill:url(#SVGID_00000041999339541871754420000003078667631717009810_);}
	.st16{fill:#064485;}
	.st17{fill:#032D59;}
</style>
<g>
	<g>
		<g>
			<path class="st10" d="M58.7,10.9v0.6c0,1.5-0.5,2.5-1.6,3.2c-0.8,0.5-1.8,0.8-3,0.8v-1.3c1.1,0,1.9-0.3,2.5-0.7
				c0.5-0.4,0.7-0.8,0.7-1.4h-3.1v-1.2H58.7z M54.5,16.4h1.3v1.8h5.8v1.2h-6.4c-0.2,0-0.4,0-0.5-0.1c-0.1-0.1-0.2-0.3-0.2-0.6V16.4z
				 M60.2,12.8v-1.9h1.3v5.8h-1.3v-2.7h-2.5v-1.2H60.2z"/>
			<path class="st10" d="M68.3,10.9v0.7c0,1.3-0.5,2.3-1.6,2.9c-0.8,0.5-1.8,0.8-3,0.8V14c1.1,0,1.9-0.3,2.5-0.7
				c0.5-0.3,0.7-0.8,0.7-1.2h-3.1v-1.2H68.3z M70,15.4c0.6,0.5,0.8,1.1,0.8,1.9c0,0.8-0.3,1.4-0.8,1.9c-0.5,0.5-1.1,0.7-1.9,0.7
				c-0.7,0-1.3-0.2-1.8-0.7c-0.6-0.5-0.8-1.1-0.8-1.9c0-0.8,0.3-1.4,0.8-1.9c0.5-0.5,1.1-0.7,1.8-0.7C68.9,14.7,69.5,14.9,70,15.4z
				 M67.3,16.3c-0.3,0.3-0.4,0.6-0.4,1c0,0.4,0.1,0.7,0.4,1c0.3,0.3,0.6,0.4,0.9,0.4c0.4,0,0.7-0.1,0.9-0.4c0.3-0.3,0.4-0.6,0.4-1
				c0-0.4-0.1-0.7-0.4-1c-0.3-0.2-0.6-0.4-0.9-0.4C67.8,15.9,67.5,16.1,67.3,16.3z M71.2,13.6V15h-1.3v-4h1.3v1.4h1.1v1.2H71.2z"/>
			<path class="st10" d="M78,10.9v1c0,2.1-0.5,3.7-1.6,4.7c-0.8,0.7-1.8,1.1-3,1.1v-1.4c1.1,0,1.9-0.4,2.5-1.2
				c0.5-0.7,0.8-1.7,0.8-3h-3.2v-1.2H78z M79.5,10.9h1.3v8.6h-1.3V10.9z"/>
			<path class="st10" d="M90.8,14.3v1.2h-8v-1.2H90.8z M86.1,13.7h-2.4c-0.2,0-0.4,0-0.5-0.1c-0.1-0.1-0.2-0.3-0.2-0.6v-2h1.3v1.6
				h6.1v1.2h-3H86.1z M88.7,15.3c0.6,0.5,0.9,1.1,0.9,1.9c0,0.8-0.3,1.5-0.9,2c-0.6,0.5-1.2,0.7-1.9,0.7c-0.8,0-1.4-0.2-2-0.7
				c-0.6-0.5-0.9-1.2-0.9-2c0-0.7,0.3-1.4,0.9-1.9c0.6-0.5,1.2-0.7,1.9-0.7C87.5,14.6,88.1,14.8,88.7,15.3z M85.7,16.1
				c-0.3,0.3-0.4,0.6-0.4,1.1c0,0.4,0.1,0.8,0.4,1.1c0.3,0.3,0.6,0.4,1,0.4c0.4,0,0.7-0.1,1-0.4c0.3-0.3,0.5-0.6,0.5-1.1
				c0-0.4-0.2-0.8-0.5-1.1c-0.3-0.3-0.6-0.4-1-0.4C86.3,15.7,86,15.8,85.7,16.1z"/>
			<path class="st10" d="M95.8,10.9c0,0.9,0.1,1.6,0.4,2c0.3,0.5,0.8,0.8,1.5,0.9v1.3c-0.6,0-1.1-0.2-1.6-0.5
				c-0.5-0.3-0.8-0.7-1.1-1.1c-0.2,0.5-0.6,0.8-1.1,1.1c-0.5,0.3-1,0.5-1.5,0.5v-1.3c0.7-0.1,1.2-0.4,1.5-0.9c0.3-0.4,0.4-1.1,0.4-2
				H95.8z M100.2,19.4h-1.3V17h-5.7v-1.2h7V19.4z M98.8,10.9h1.3v4.3h-1.3V10.9z"/>
			<path class="st10" d="M105.4,16.3v-0.6h-3.4v-1.2h8v1.2h-3.4v0.6H105.4z M108.8,12.8h1.1v1.1h-7.5v-1.1h1v-0.7h-1v-1.2h7.5v1.2
				h-1.1V12.8z M102.4,16.2h7.5v2.4c0,0.3-0.1,0.5-0.2,0.6c-0.1,0.1-0.3,0.1-0.5,0.1H103c-0.2,0-0.4,0-0.5-0.1
				c-0.1-0.1-0.2-0.3-0.2-0.6V16.2z M108.5,17.3h-4.9v0.9h4.9V17.3z M104.7,12.1v0.7h2.8v-0.7H104.7z"/>
			<path class="st10" d="M112,10.9h4.7v5.9c0,0.3-0.1,0.5-0.2,0.6c-0.1,0.1-0.3,0.1-0.5,0.1h-3.5c-0.2,0-0.4,0-0.5-0.1
				c-0.1-0.1-0.2-0.3-0.2-0.6V10.9z M115.5,12.1h-2.1v4.2h2.1V12.1z M118.2,10.9h1.3v8.6h-1.3V10.9z"/>
			<path class="st10" d="M124.2,12.2h-2.5v-1.2h3.8v3.8H123v1.6h3.2v1.2h-3.9c-0.2,0-0.4,0-0.5-0.1c-0.1-0.1-0.2-0.3-0.2-0.6v-3.3
				h2.5V12.2z M127.9,14.8h-0.5v4.6h-1.2v-8.5h1.2v2.6h0.5v-2.6h1.3v8.5h-1.3V14.8z"/>
			<path class="st10" d="M135.8,15.3v2.4h3.4V19h-8v-1.2h3.4v-2.4H135.8z M137.6,14.2h1v1.2h-7.2v-1.2h1.1v-2h-1.1v-1.2h7.2v1.2h-1
				V14.2z M133.9,12.2v2h2.4v-2H133.9z"/>
			<path class="st10" d="M144.4,12.2H141v-1.2h4.7v2.7h-3.4v0.4h4.2v1.2h-4.9c-0.2,0-0.4-0.1-0.5-0.2c-0.1-0.1-0.2-0.3-0.2-0.6v-1.9
				h3.4V12.2z M141.5,15.8h7v2.8c0,0.3-0.1,0.5-0.2,0.6c-0.1,0.1-0.3,0.1-0.5,0.1h-5.7c-0.2,0-0.4,0-0.5-0.1
				c-0.1-0.1-0.2-0.3-0.2-0.6V15.8z M147.2,17h-4.4v1.2h4.4V17z M147.2,11.9v-1h1.3v4.4h-1.3v-2.2h-1.6v-1.2H147.2z"/>
		</g>
	</g>
	<g>
		<g>
			<path class="st10" d="M54.5,22.3h0.6V24h1.8v-1.7h0.6v4.1h-0.6v-1.9h-1.8v1.9h-0.6V22.3z"/>
			<path class="st10" d="M58.4,24.9c0-1,0.7-1.6,1.4-1.6c0.8,0,1.2,0.6,1.2,1.5c0,0.1,0,0.3,0,0.3h-2c0.1,0.6,0.4,0.9,0.9,0.9
				c0.3,0,0.5-0.1,0.7-0.2l0.2,0.4c-0.3,0.2-0.6,0.3-1,0.3C59.1,26.5,58.4,25.9,58.4,24.9z M60.5,24.6c0-0.5-0.2-0.8-0.7-0.8
				c-0.4,0-0.7,0.3-0.8,0.8H60.5z"/>
			<path class="st10" d="M61.6,25.6c0-0.7,0.6-1,1.8-1.1c0-0.4-0.1-0.7-0.6-0.7c-0.3,0-0.6,0.1-0.9,0.3l-0.2-0.4
				c0.3-0.2,0.7-0.4,1.2-0.4c0.8,0,1.1,0.5,1.1,1.3v1.8h-0.5L63.5,26h0c-0.3,0.2-0.6,0.4-1,0.4C62,26.5,61.6,26.1,61.6,25.6z
				 M63.5,25.6v-0.8c-0.9,0.1-1.2,0.3-1.2,0.7c0,0.3,0.2,0.4,0.5,0.4C63,26,63.2,25.8,63.5,25.6z"/>
			<path class="st10" d="M65.1,25.7V22h0.6v3.7c0,0.2,0.1,0.2,0.2,0.2c0,0,0.1,0,0.1,0l0.1,0.5c-0.1,0-0.2,0.1-0.3,0.1
				C65.3,26.5,65.1,26.2,65.1,25.7z"/>
			<path class="st10" d="M67,25.4v-1.5h-0.4v-0.5l0.5,0l0.1-0.8h0.5v0.8h0.8v0.5h-0.8v1.6c0,0.4,0.1,0.6,0.4,0.6
				c0.1,0,0.2,0,0.3-0.1l0.1,0.5c-0.2,0.1-0.4,0.1-0.6,0.1C67.2,26.5,67,26,67,25.4z"/>
			<path class="st10" d="M69.2,22h0.6v1.2l0,0.6c0.3-0.3,0.6-0.5,1-0.5c0.7,0,0.9,0.4,0.9,1.2v1.9h-0.6v-1.8c0-0.5-0.2-0.7-0.5-0.7
				c-0.3,0-0.5,0.1-0.8,0.4v2.2h-0.6V22z"/>
			<path class="st10" d="M73.9,25.9l0.4-0.4c0.3,0.3,0.7,0.5,1.1,0.5c0.5,0,0.8-0.2,0.8-0.6c0-0.4-0.3-0.5-0.7-0.7l-0.6-0.2
				c-0.4-0.2-0.8-0.5-0.8-1.1c0-0.6,0.6-1.1,1.3-1.1c0.5,0,0.9,0.2,1.2,0.5l-0.3,0.4c-0.3-0.2-0.5-0.4-0.9-0.4
				c-0.4,0-0.7,0.2-0.7,0.5c0,0.4,0.3,0.5,0.7,0.6l0.6,0.2c0.5,0.2,0.8,0.5,0.8,1.1c0,0.7-0.5,1.2-1.4,1.2
				C74.8,26.5,74.3,26.2,73.9,25.9z"/>
			<path class="st10" d="M77.6,25.3v-1.9h0.6v1.8c0,0.5,0.2,0.7,0.5,0.7c0.3,0,0.5-0.1,0.7-0.5v-2.1h0.6v3.1h-0.5l-0.1-0.5h0
				c-0.3,0.3-0.6,0.5-1,0.5C77.9,26.5,77.6,26,77.6,25.3z"/>
			<path class="st10" d="M81.2,23.3h0.5l0.1,0.3h0c0.3-0.2,0.6-0.4,0.9-0.4c0.8,0,1.2,0.6,1.2,1.6c0,1.1-0.6,1.7-1.3,1.7
				c-0.3,0-0.5-0.1-0.8-0.3l0,0.5v1h-0.6V23.3z M83.2,24.8c0-0.6-0.2-1-0.7-1c-0.2,0-0.5,0.1-0.7,0.4v1.5c0.2,0.2,0.5,0.3,0.7,0.3
				C82.9,25.9,83.2,25.5,83.2,24.8z"/>
			<path class="st10" d="M84.8,23.3h0.5l0.1,0.3h0c0.3-0.2,0.6-0.4,0.9-0.4c0.8,0,1.2,0.6,1.2,1.6c0,1.1-0.6,1.7-1.3,1.7
				c-0.3,0-0.5-0.1-0.8-0.3l0,0.5v1h-0.6V23.3z M86.9,24.8c0-0.6-0.2-1-0.7-1c-0.2,0-0.5,0.1-0.7,0.4v1.5c0.2,0.2,0.5,0.3,0.7,0.3
				C86.5,25.9,86.9,25.5,86.9,24.8z"/>
			<path class="st10" d="M88.4,25.7V22H89v3.7c0,0.2,0.1,0.2,0.2,0.2c0,0,0.1,0,0.1,0l0.1,0.5c-0.1,0-0.2,0.1-0.3,0.1
				C88.6,26.5,88.4,26.2,88.4,25.7z"/>
			<path class="st10" d="M89.9,24.9c0-1,0.7-1.6,1.4-1.6c0.8,0,1.2,0.6,1.2,1.5c0,0.1,0,0.3,0,0.3h-2c0,0.6,0.4,0.9,0.9,0.9
				c0.3,0,0.5-0.1,0.7-0.2l0.2,0.4c-0.3,0.2-0.6,0.3-1,0.3C90.6,26.5,89.9,25.9,89.9,24.9z M92,24.6c0-0.5-0.2-0.8-0.7-0.8
				c-0.4,0-0.7,0.3-0.8,0.8H92z"/>
			<path class="st10" d="M93.4,23.3h0.5l0.1,0.4h0c0.3-0.3,0.6-0.5,0.9-0.5c0.5,0,0.7,0.2,0.8,0.6c0.3-0.3,0.6-0.6,1-0.6
				c0.6,0,0.9,0.4,0.9,1.2v1.9h-0.6v-1.8c0-0.5-0.2-0.7-0.5-0.7c-0.2,0-0.4,0.1-0.7,0.4v2.2h-0.6v-1.8c0-0.5-0.2-0.7-0.5-0.7
				c-0.2,0-0.4,0.1-0.7,0.4v2.2h-0.6V23.3z"/>
			<path class="st10" d="M98.5,24.9c0-1,0.7-1.6,1.4-1.6c0.8,0,1.2,0.6,1.2,1.5c0,0.1,0,0.3,0,0.3h-2c0.1,0.6,0.4,0.9,0.9,0.9
				c0.3,0,0.5-0.1,0.7-0.2l0.2,0.4c-0.3,0.2-0.6,0.3-1,0.3C99.2,26.5,98.5,25.9,98.5,24.9z M100.6,24.6c0-0.5-0.2-0.8-0.7-0.8
				c-0.4,0-0.7,0.3-0.8,0.8H100.6z"/>
			<path class="st10" d="M102,23.3h0.5l0.1,0.4h0c0.3-0.3,0.6-0.5,1-0.5c0.7,0,0.9,0.4,0.9,1.2v1.9h-0.6v-1.8c0-0.5-0.2-0.7-0.5-0.7
				c-0.3,0-0.5,0.1-0.8,0.4v2.2H102V23.3z"/>
			<path class="st10" d="M105.7,25.4v-1.5h-0.4v-0.5l0.5,0l0.1-0.8h0.5v0.8h0.8v0.5h-0.8v1.6c0,0.4,0.1,0.6,0.4,0.6
				c0.1,0,0.2,0,0.3-0.1l0.1,0.5c-0.2,0.1-0.4,0.1-0.6,0.1C105.9,26.5,105.7,26,105.7,25.4z"/>
			<path class="st10" d="M107.5,26l0.3-0.4c0.3,0.2,0.5,0.4,0.9,0.4c0.4,0,0.5-0.2,0.5-0.4c0-0.3-0.3-0.4-0.7-0.5
				c-0.4-0.2-0.9-0.4-0.9-0.9c0-0.5,0.4-0.9,1.1-0.9c0.4,0,0.7,0.2,1,0.4l-0.3,0.4c-0.2-0.2-0.4-0.3-0.7-0.3c-0.3,0-0.5,0.2-0.5,0.4
				c0,0.3,0.3,0.4,0.7,0.5c0.4,0.2,0.9,0.4,0.9,0.9c0,0.5-0.4,0.9-1.2,0.9C108.3,26.5,107.8,26.3,107.5,26z"/>
			<path class="st10" d="M112,22.3h2.4v0.5h-1.8v1.3h1.5v0.5h-1.5v1.8H112V22.3z"/>
			<path class="st10" d="M115.1,25.3v-1.9h0.6v1.8c0,0.5,0.2,0.7,0.5,0.7c0.3,0,0.5-0.1,0.7-0.5v-2.1h0.6v3.1h-0.5l0-0.5h0
				c-0.3,0.3-0.6,0.5-1,0.5C115.4,26.5,115.1,26,115.1,25.3z"/>
			<path class="st10" d="M118.8,25.4v-1.5h-0.4v-0.5l0.5,0l0.1-0.8h0.5v0.8h0.8v0.5h-0.8v1.6c0,0.4,0.1,0.6,0.4,0.6
				c0.1,0,0.2,0,0.3-0.1l0.1,0.5c-0.2,0.1-0.4,0.1-0.6,0.1C119,26.5,118.8,26,118.8,25.4z"/>
			<path class="st10" d="M121,25.3v-1.9h0.6v1.8c0,0.5,0.2,0.7,0.5,0.7c0.3,0,0.5-0.1,0.7-0.5v-2.1h0.6v3.1H123l-0.1-0.5h0
				c-0.3,0.3-0.6,0.5-1,0.5C121.3,26.5,121,26,121,25.3z"/>
			<path class="st10" d="M124.6,23.3h0.5l0.1,0.6h0c0.2-0.4,0.5-0.6,0.9-0.6c0.2,0,0.3,0,0.3,0.1l-0.1,0.6c-0.1,0-0.2-0.1-0.3-0.1
				c-0.3,0-0.6,0.2-0.7,0.7v1.9h-0.6V23.3z"/>
			<path class="st10" d="M126.7,24.9c0-1,0.7-1.6,1.4-1.6c0.8,0,1.2,0.6,1.2,1.5c0,0.1,0,0.3,0,0.3h-2c0.1,0.6,0.4,0.9,0.9,0.9
				c0.3,0,0.5-0.1,0.7-0.2l0.2,0.4c-0.3,0.2-0.6,0.3-1,0.3C127.3,26.5,126.7,25.9,126.7,24.9z M128.8,24.6c0-0.5-0.2-0.8-0.7-0.8
				c-0.4,0-0.7,0.3-0.8,0.8H128.8z"/>
			<path class="st10" d="M131.6,22.3h2.4v0.5h-1.8v1.3h1.5v0.5h-1.5v1.8h-0.6V22.3z"/>
			<path class="st10" d="M134.5,24.9c0-1,0.7-1.6,1.4-1.6c0.8,0,1.4,0.6,1.4,1.6c0,1-0.7,1.6-1.4,1.6
				C135.1,26.5,134.5,25.9,134.5,24.9z M136.7,24.9c0-0.7-0.3-1.1-0.8-1.1c-0.5,0-0.8,0.4-0.8,1.1c0,0.6,0.3,1.1,0.8,1.1
				C136.4,25.9,136.7,25.5,136.7,24.9z"/>
			<path class="st10" d="M138.2,23.3h0.5l0.1,0.6h0c0.2-0.4,0.5-0.6,0.9-0.6c0.2,0,0.3,0,0.3,0.1l-0.1,0.6c-0.1,0-0.2-0.1-0.3-0.1
				c-0.3,0-0.6,0.2-0.7,0.7v1.9h-0.6V23.3z"/>
			<path class="st10" d="M140.5,25.3v-1.9h0.6v1.8c0,0.5,0.2,0.7,0.5,0.7c0.3,0,0.5-0.1,0.7-0.5v-2.1h0.6v3.1h-0.5l0-0.5h0
				c-0.3,0.3-0.6,0.5-1,0.5C140.8,26.5,140.5,26,140.5,25.3z"/>
			<path class="st10" d="M144.1,23.3h0.5l0.1,0.4h0c0.3-0.3,0.6-0.5,0.9-0.5c0.5,0,0.7,0.2,0.8,0.6c0.3-0.3,0.6-0.6,1-0.6
				c0.6,0,0.9,0.4,0.9,1.2v1.9h-0.6v-1.8c0-0.5-0.2-0.7-0.5-0.7c-0.2,0-0.4,0.1-0.7,0.4v2.2H146v-1.8c0-0.5-0.2-0.7-0.5-0.7
				c-0.2,0-0.4,0.1-0.7,0.4v2.2h-0.6V23.3z"/>
		</g>
	</g>
	<linearGradient id="SVGID_1_" gradientUnits="userSpaceOnUse" x1="19.9007" y1="10.2818" x2="19.9007" y2="27.7713">
		<stop  offset="0" style="stop-color:#0056A1"/>
		<stop  offset="1" style="stop-color:#07256E"/>
	</linearGradient>
	<path class="st11" d="M20,27.2c-3.7,0-6-2-6-4.9V22h3.9v0.3c0,1.1,0.7,1.8,2.1,1.8c1.3,0,2.1-0.7,2.1-1.8c0-1-0.6-1.7-2.1-2
		l-1.4-0.3c-2.8-0.6-4.5-2-4.5-4.9c0-2.7,2-4.7,5.7-4.7c3.6,0,5.7,2.1,5.7,4.6v0.3h-3.8v-0.3c0-1-0.7-1.6-1.8-1.6
		c-1.2,0-1.9,0.6-1.9,1.6c0,1,0.6,1.6,2.2,1.9l1.4,0.3c3,0.6,4.5,2.2,4.5,5C25.9,25.1,23.8,27.2,20,27.2z"/>
	
		<linearGradient id="SVGID_00000068650980364278322080000010601562232476997775_" gradientUnits="userSpaceOnUse" x1="32.6489" y1="10.2819" x2="32.6489" y2="27.7713">
		<stop  offset="0" style="stop-color:#0056A1"/>
		<stop  offset="1" style="stop-color:#07256E"/>
	</linearGradient>
	<path style="fill:url(#SVGID_00000068650980364278322080000010601562232476997775_);" d="M27.6,10.7h10.2v3.1h-6.3v3.4H37v3.1h-5.6
		v6.5h-3.9V10.7z"/>
	
		<linearGradient id="SVGID_00000122000339082834685840000008807971508035269285_" gradientUnits="userSpaceOnUse" x1="44.3837" y1="10.2819" x2="44.3837" y2="27.7713">
		<stop  offset="0" style="stop-color:#0056A1"/>
		<stop  offset="1" style="stop-color:#07256E"/>
	</linearGradient>
	<path style="fill:url(#SVGID_00000122000339082834685840000008807971508035269285_);" d="M39.3,10.7h10.2v3.1h-6.3v3.4h5.6v3.1
		h-5.6v6.5h-3.9V10.7z"/>
	
		<linearGradient id="SVGID_00000178163171639683733460000003060414759155383169_" gradientUnits="userSpaceOnUse" x1="10.4366" y1="9.5014" x2="10.4366" y2="27.1039">
		<stop  offset="0" style="stop-color:#0056A1"/>
		<stop  offset="1" style="stop-color:#07256E"/>
	</linearGradient>
	<path style="fill:url(#SVGID_00000178163171639683733460000003060414759155383169_);" d="M8.7,11.1c-0.2,0.2-0.3,0.5-0.3,0.8v5.2
		c0.2,0.2,0.3,0.4,0.5,0.6c0,0.1,0.1,0.2,0.1,0.4c0.1,0.2,0.1,0.4,0.3,0.6c0.1,0.2,0.3,0.4,0.4,0.6c0.3,0.3,0.7,0.6,1.4,0.9
		l-0.3,0.2c-0.2,0.2-0.5,0.3-1,0.5c-0.4,0.2-0.9,0.3-1.3,0.4V26c0,0.3,0.1,0.5,0.3,0.7c0.2,0.2,0.5,0.3,0.8,0.3h3V10.8h-3
		C9.2,10.8,8.9,10.9,8.7,11.1z"/>
	
		<linearGradient id="SVGID_00000076595457161666953520000013107335464749324724_" gradientUnits="userSpaceOnUse" x1="5.2351" y1="9.4133" x2="5.2351" y2="27.1041">
		<stop  offset="0" style="stop-color:#0056A1"/>
		<stop  offset="1" style="stop-color:#07256E"/>
	</linearGradient>
	<path style="fill:url(#SVGID_00000076595457161666953520000013107335464749324724_);" d="M7.9,19.4c-1.6-1.6-3.1-0.7-3.1-0.7
		c1.6-1.3,3,0.1,3,0.1c0.1,0.2,0.5,0.5,0.6,0.6c0.7,0.6,1.2,0.7,1.5,0.8c-0.7-0.4-1.2-1-1.4-1.6c-0.4-1.2-1.1-1.8-2.2-1.8
		c-0.4,0-0.7,0.1-1,0.2c-0.3,0.2-0.5,0.3-0.6,0.4c-0.1,0.1-0.2,0.2-0.3,0.4v-6c0-0.3-0.1-0.6-0.3-0.8c-0.2-0.2-0.5-0.3-0.8-0.3
		l-3-0.1V27l3,0.1c0.3,0,0.6-0.1,0.8-0.3c0.2-0.2,0.3-0.5,0.3-0.7v-6.2c0,0.1,0.1,0.2,0.1,0.3c0.1,0.1,0.2,0.2,0.3,0.4
		c0.2,0.2,0.4,0.3,0.7,0.4C6.1,21,6.4,21,6.8,21c1.2,0,2.3-0.3,3.2-0.8C8.6,20.2,8.1,19.6,7.9,19.4z"/>
</g>
</svg>
