<?xml version="1.0" encoding="utf-8"?>
<!-- Generator: Adobe Illustrator 26.0.2, SVG Export Plug-In . SVG Version: 6.00 Build 0)  -->
<svg version="1.1" id="Layer_1" xmlns="http://www.w3.org/2000/svg" xmlns:xlink="http://www.w3.org/1999/xlink" x="0px" y="0px"
	 viewBox="0 0 32 32" style="enable-background:new 0 0 32 32;" xml:space="preserve">
<style type="text/css">
	.st0{fill:#E2E2E2;}
	.st1{fill:#06BE34;}
	.st2{fill:#505050;}
</style>
<g>
	<g>
		<path class="st0" d="M29,32H3c-1.7,0-3-1.4-3-3V3c0-1.7,1.4-3,3-3h26c1.7,0,3,1.4,3,3v26C32,30.6,30.6,32,29,32z M3,1
			C1.9,1,1,1.9,1,3v26c0,1.1,0.9,2,2,2h26c1.1,0,2-0.9,2-2V3c0-1.1-0.9-2-2-2H3z"/>
	</g>
	<g>
		<polygon class="st1" points="21.6,6.3 21.6,16.6 17.8,16.6 14.2,11.4 14.2,16.6 10.4,16.6 10.4,6.3 14.2,6.3 17.8,11.7 17.8,6.3 
					"/>
	</g>
	<g>
		<path class="st2" d="M7.4,22.6C7.4,22.6,7.4,22.6,7.4,22.6c-0.1-0.1-0.1-0.1-0.1-0.1V22c0,0,0,0,0-0.1c0,0,0.1,0,0.1,0h4.3
			c0,0,0.1,0,0.1,0c0,0,0,0,0,0.1v0.4c0,0,0,0.1,0,0.1s0,0-0.1,0H11v1.8h0.8c0,0,0.1,0,0.1,0s0,0,0,0.1v0.4c0,0,0,0.1,0,0.1
			c0,0,0,0-0.1,0H10v1.2h2.6c0,0,0,0,0.1,0c0,0,0,0,0,0.1v0.5c0,0,0,0,0,0.1c0,0,0,0-0.1,0h-6c0,0-0.1,0-0.1,0c0,0,0,0,0-0.1v-0.5
			c0,0,0-0.1,0-0.1c0,0,0,0,0.1,0h2.6V25H7.3c0,0,0,0-0.1,0c0,0,0,0,0-0.1v-0.4c0,0,0,0,0-0.1c0,0,0,0,0.1,0h0.8v-1.8H7.4z
			 M8.9,22.6v1.8h1.4v-1.8H8.9z"/>
		<path class="st2" d="M19,26.2C19.1,26.2,19.1,26.2,19,26.2l0,0.5c0,0,0,0,0,0.1c0,0,0,0-0.1,0h-6c0,0-0.1,0-0.1,0c0,0,0,0,0-0.1
			v-0.4c0-0.1,0-0.1,0.1-0.1L19,26.2C19,26.2,19,26.2,19,26.2z M13.7,25C13.7,25,13.7,25,13.7,25c-0.1,0-0.1,0-0.2-0.1l-0.2-0.4
			c0,0,0-0.1,0-0.1c0,0,0,0,0.1-0.1c0.3-0.1,0.6-0.3,0.9-0.4c0.3-0.1,0.5-0.3,0.7-0.5c0.2-0.2,0.3-0.4,0.4-0.7
			c0.1-0.2,0.2-0.5,0.2-0.9c0,0,0-0.1,0-0.1c0,0,0,0,0.1,0l0.6,0c0.1,0,0.1,0.1,0.1,0.2c0,0.1,0,0.2,0,0.3c0.1,0.2,0.2,0.4,0.3,0.6
			c0.1,0.2,0.3,0.4,0.5,0.6c0.2,0.2,0.4,0.3,0.7,0.4c0.2,0.1,0.5,0.2,0.8,0.3c0,0,0.1,0,0.1,0.1c0,0,0,0.1,0,0.1l-0.2,0.4
			c0,0.1-0.1,0.1-0.2,0.1c-0.2-0.1-0.4-0.1-0.6-0.2c-0.2-0.1-0.4-0.2-0.6-0.4c-0.2-0.1-0.4-0.3-0.5-0.5c-0.2-0.2-0.3-0.3-0.4-0.5
			c-0.2,0.4-0.5,0.7-0.9,1C14.7,24.6,14.3,24.8,13.7,25z"/>
		<path class="st2" d="M25.5,26.2C25.5,26.2,25.5,26.3,25.5,26.2l0,0.5c0,0,0,0,0,0.1c0,0,0,0-0.1,0h-6c0,0-0.1,0-0.1,0
			c0,0,0,0,0-0.1v-0.4c0-0.1,0-0.1,0.1-0.1L25.5,26.2C25.4,26.2,25.4,26.2,25.5,26.2z M24.6,25.1C24.6,25.2,24.6,25.2,24.6,25.1
			l-3.9,0c-0.2,0-0.3,0-0.4-0.1c-0.1-0.1-0.1-0.2-0.1-0.4v-2.4c0-0.2,0-0.3,0.1-0.4c0.1-0.1,0.2-0.1,0.4-0.1h3.8
			c0.1,0,0.1,0,0.1,0.1v0.5c0,0.1,0,0.1-0.1,0.1h-3.3c-0.1,0-0.1,0-0.1,0.1v0.6h3.4c0,0,0,0,0.1,0c0,0,0,0,0,0.1v0.4
			c0,0,0,0.1,0,0.1c0,0,0,0-0.1,0H21v0.6c0,0.1,0,0.1,0,0.1c0,0,0,0,0.1,0h3.4c0,0,0.1,0,0.1,0c0,0,0,0,0,0.1L24.6,25.1
			C24.6,25.1,24.6,25.1,24.6,25.1z"/>
	</g>
</g>
</svg>
