<?xml version="1.0" encoding="utf-8"?>
<!-- Generator: Adobe Illustrator 26.0.1, SVG Export Plug-In . SVG Version: 6.00 Build 0)  -->
<svg version="1.1" id="Layer_1" xmlns="http://www.w3.org/2000/svg" xmlns:xlink="http://www.w3.org/1999/xlink" x="0px" y="0px"
	 viewBox="0 0 340 438" style="enable-background:new 0 0 340 438;" xml:space="preserve">
<style type="text/css">
	.st0{fill:none;}
	.st1{fill:#333333;}
	.st2{fill:#E1F8FF;}
	.st3{fill:#E8E8E8;}
	.st4{fill:#FFFFFF;}
	.st5{fill:#CECECE;}
	.st6{fill:#DD4343;}
	.st7{fill:#949AAA;}
	.st8{fill:#40A2E7;}
	.st9{fill:#FED402;}
	.st10{fill:#00DDC2;}
	.st11{fill:#52C0B2;}
	.st12{fill:#FCD305;}
	.st13{fill:#4A9FD8;}
	.st14{fill:#DC4343;}
	.st15{fill:#3ABFC5;}
	.st16{fill:#2DB9A3;}
	.st17{fill:#DBB227;}
	.st18{fill:#3688C8;}
	.st19{fill:#C52D2E;}
	.st20{fill:#FF7892;}
	.st21{fill:#21D0C3;}
	.st22{fill:#EEFAFF;}
	.st23{fill:#207EA8;}
	.st24{fill:#F2F8F9;}
	.st25{fill:#539FC9;}
	.st26{opacity:0.2;fill:#539FC9;}
	.st27{opacity:0.5;fill:#539FC9;}
	.st28{fill:#EDF4F5;}
	.st29{fill:#DAE6E9;}
	.st30{fill:#D1D3D4;}
	.st31{fill:#00CDCF;}
	.st32{fill:#FBF069;}
	.st33{fill:#808184;}
	.st34{fill:#231F20;}
	.st35{fill-rule:evenodd;clip-rule:evenodd;fill:#E2E3F2;}
	.st36{fill:#151717;}
	.st37{fill-rule:evenodd;clip-rule:evenodd;fill:#CEDEF2;}
	.st38{fill-rule:evenodd;clip-rule:evenodd;fill:#F59DA7;}
	.st39{fill-rule:evenodd;clip-rule:evenodd;fill:#151717;}
	.st40{fill-rule:evenodd;clip-rule:evenodd;fill:#F5FBFD;}
	.st41{fill:#24B5BA;}
	.st42{fill:#F7B429;}
	.st43{fill:#86C2EA;}
	.st44{fill:#FFE22C;}
	.st45{fill:#E9ABCD;}
	.st46{fill:#F9C6D2;}
	.st47{fill:#F07CB0;}
	.st48{fill:#D1D3D8;}
	.st49{fill:#DEF4F8;}
	.st50{fill:#558EF2;}
	.st51{fill:#381E0D;}
	.st52{fill:#231107;}
	.st53{fill:#97B9FF;}
	.st54{fill:#FFB09E;}
	.st55{fill:#FFD4CF;}
	.st56{fill:#F97070;}
	.st57{fill:#2B2B2B;}
	.st58{fill-rule:evenodd;clip-rule:evenodd;fill:#E6E6E6;}
	.st59{fill-rule:evenodd;clip-rule:evenodd;fill:#707070;}
	.st60{fill-rule:evenodd;clip-rule:evenodd;fill:#FFFFFF;}
	.st61{fill-rule:evenodd;clip-rule:evenodd;fill:#1992DD;}
	.st62{fill-rule:evenodd;clip-rule:evenodd;fill:#22A1FF;}
	.st63{fill-rule:evenodd;clip-rule:evenodd;fill:#E9AA11;}
	.st64{fill:#F5BFB3;}
	.st65{fill:#EBF3FC;}
	.st66{fill:#ACE7C2;}
	.st67{fill:#6ECBD0;}
	.st68{fill:#DFECFE;}
	.st69{fill:#7774C3;}
	.st70{fill:#69CDE1;}
	.st71{fill:#F9F5E1;}
	.st72{opacity:0.54;fill:#77E8F7;}
	.st73{fill:#C8D2DC;}
	.st74{fill:#FB5858;}
	.st75{fill:#F44545;}
	.st76{fill:#DCE6EB;}
	.st77{fill:#44BFD7;}
	.st78{fill:#7CD2E3;}
	.st79{fill:#A6E0EC;}
	.st80{fill:#FFF5F5;}
	.st81{fill:#007A8E;}
	.st82{fill:#0289A8;}
	.st83{fill:#11B8DD;}
	.st84{fill:#FEFEFE;}
	.st85{fill:#E9F3FE;}
	.st86{fill:#A5A5A5;}
	.st87{fill:#707070;}
	.st88{fill:#1F9FCC;}
	.st89{fill:#C5FFF9;}
	.st90{fill:#465150;}
	.st91{opacity:0.14;}
	.st92{fill:#3689C9;}
	.st93{fill:#FDD5B5;}
	.st94{fill:#FFBE92;}
	.st95{fill:#EAE9E4;}
	.st96{fill:#683A2A;}
	.st97{fill:#25BCBD;}
	.st98{fill:#FAAF40;}
	.st99{fill:#D6F8FF;}
	.st100{fill:#A2E2EA;}
	.st101{fill:#61A2F9;}
	.st102{fill:#4073C8;}
	.st103{fill:#82C11F;}
	.st104{fill:#679B04;}
	.st105{fill:#BADB47;}
	.st106{fill:#E3F4FF;}
	.st107{fill:#F9F6F9;}
	.st108{fill:#DFEAEF;}
	.st109{fill:#64BDFF;}
	.st110{fill:#EED60F;}
	.st111{fill:#F8E868;}
	.st112{fill:#F6E23D;}
	.st113{fill:#FCF5BE;}
	.st114{fill:#E4F6FF;}
	.st115{fill:#D3EFFB;}
	.st116{fill:#002A35;}
	.st117{fill:#809E39;}
	.st118{fill:#A3CC32;}
	.st119{fill:#B7D636;}
	.st120{fill:#BEE25A;}
	.st121{fill:#B1D13D;}
	.st122{fill:#70432A;}
	.st123{fill:#875035;}
	.st124{fill:#5A361F;}
	.st125{fill:#E2BB17;}
	.st126{fill:#FFDA3E;}
	.st127{fill:#E94444;}
	.st128{fill:#D82E2E;}
	.st129{fill:#00C27A;}
	.st130{fill:#00A05F;}
	.st131{fill:#FAC600;}
	.st132{fill:#F99F00;}
	.st133{fill:#FE9901;}
	.st134{fill:#FB8801;}
	.st135{fill:#E8B800;}
	.st136{fill:#D83131;}
	.st137{fill:#FF9052;}
	.st138{fill:#EA5B13;}
	.st139{fill:#F7F9FA;}
	.st140{fill:#285680;}
	.st141{fill:#4482C3;}
	.st142{fill-rule:evenodd;clip-rule:evenodd;fill:#FDD7AD;}
	.st143{fill-rule:evenodd;clip-rule:evenodd;fill:#EDAD72;}
	.st144{fill-rule:evenodd;clip-rule:evenodd;fill:#F3D55B;}
	.st145{fill:#204E70;}
	.st146{fill:#105A87;}
	.st147{fill:#E48D72;}
	.st148{fill:#FFD7CC;}
	.st149{fill:#AE2B00;}
	.st150{fill:#8E1600;}
	.st151{fill:#D65128;}
	.st152{opacity:0.5;fill:url(#SVGID_1_);enable-background:new    ;}
	.st153{fill:#603813;}
	.st154{fill:#009345;}
	.st155{fill:#BCBB32;}
	.st156{fill:#006838;}
	.st157{fill:#94C03D;}
	.st158{fill:#5B306C;}
	.st159{fill:#682B81;}
	.st160{fill:#59286B;}
	.st161{fill:#83459A;}
	.st162{fill:#B98CBE;}
	.st163{fill:#6F3693;}
	.st164{fill:#AC8CBF;}
	.st165{fill:#DAB0D2;}
	.st166{fill:#C1B1D6;}
	.st167{fill:#638D27;}
	.st168{fill:#95C11F;}
	.st169{fill:url(#SVGID_00000138554333369003044400000003332714828684450238_);}
	.st170{clip-path:url(#SVGID_00000090292347524391684320000000777991797863732643_);fill:#ED7624;}
	.st171{clip-path:url(#SVGID_00000132810309917727105540000013144755108701494161_);fill:#ED7624;}
	.st172{clip-path:url(#SVGID_00000119115584830562765120000011459754572311479440_);fill:#ED7524;}
	.st173{clip-path:url(#SVGID_00000008870214276200015320000001593077356114609280_);fill:#ED7424;}
	.st174{clip-path:url(#SVGID_00000089532611874294978580000011041368515439004838_);fill:#ED7324;}
	.st175{clip-path:url(#SVGID_00000168819897355316153290000010868630697336580232_);fill:#ED7224;}
	.st176{clip-path:url(#SVGID_00000075141435626446621960000007015035101031665298_);fill:#ED7124;}
	.st177{clip-path:url(#SVGID_00000112599553677400693550000006259594417086944948_);fill:#ED7024;}
	.st178{clip-path:url(#SVGID_00000063623415393362061810000013918548767449873803_);fill:#ED6F24;}
	.st179{clip-path:url(#SVGID_00000101810659127367697210000014682884672909059725_);fill:#ED6E24;}
	.st180{clip-path:url(#SVGID_00000106115146713636371850000003073397424522706578_);fill:#ED6D24;}
	.st181{clip-path:url(#SVGID_00000004548064612267524750000001556262787149130915_);fill:#ED6C24;}
	.st182{clip-path:url(#SVGID_00000061446674495232686040000011835383803857841337_);fill:#ED6B24;}
	.st183{clip-path:url(#SVGID_00000134233080668426052510000003363956950313307070_);fill:#ED6A24;}
	.st184{clip-path:url(#SVGID_00000028304413701053515100000014203784030143221154_);fill:#ED6924;}
	.st185{clip-path:url(#SVGID_00000123407318257760877360000013334355668833806783_);fill:#ED6824;}
	.st186{clip-path:url(#SVGID_00000072254800267611572390000002922360879514693285_);fill:#ED6724;}
	.st187{clip-path:url(#SVGID_00000121250029355664040900000002245123828901885328_);fill:#ED6624;}
	.st188{clip-path:url(#SVGID_00000097474906185673925690000010373984238882859184_);fill:#ED6524;}
	.st189{clip-path:url(#SVGID_00000176011875505965831200000001629064332829218185_);fill:#ED6424;}
	.st190{clip-path:url(#SVGID_00000052084415487580782820000004099627243541954225_);fill:#ED6324;}
	.st191{clip-path:url(#SVGID_00000125579931121371108960000006047681883275761333_);fill:#ED6224;}
	.st192{clip-path:url(#SVGID_00000097495804046598630700000008438699692338372018_);fill:#ED6124;}
	.st193{clip-path:url(#SVGID_00000072967609712117652670000017044688500453699991_);fill:#ED6024;}
	.st194{clip-path:url(#SVGID_00000036220024968582107640000012078777440053964702_);fill:#ED5F24;}
	.st195{clip-path:url(#SVGID_00000092435931403260090540000005225038179437694142_);fill:#ED5E24;}
	.st196{clip-path:url(#SVGID_00000150789102137629927940000015014410762808638120_);fill:#ED5D24;}
	.st197{clip-path:url(#SVGID_00000070081879253834151960000016262725391778975389_);fill:#ED5C24;}
	.st198{clip-path:url(#SVGID_00000095328443171652995900000005916160718700581805_);fill:#ED5B24;}
	.st199{clip-path:url(#SVGID_00000088849830884010799950000005231241903193322926_);fill:#ED5A24;}
	.st200{clip-path:url(#SVGID_00000121262898345202231130000010204341025983805840_);fill:#ED5924;}
	.st201{clip-path:url(#SVGID_00000140729605026036628810000007162037563568441785_);fill:#ED5824;}
	.st202{clip-path:url(#SVGID_00000090254562906949957930000009761933724292381061_);fill:#ED5724;}
	.st203{clip-path:url(#SVGID_00000078012904571695180810000013595167976439771050_);fill:#ED5624;}
	.st204{clip-path:url(#SVGID_00000072250274843202805670000018108764574841195446_);fill:#ED5524;}
	.st205{clip-path:url(#SVGID_00000139271845467836099230000005791679956695170947_);fill:#ED5424;}
	.st206{clip-path:url(#SVGID_00000008855905927286882800000006145549860508429749_);fill:#ED5324;}
	.st207{clip-path:url(#SVGID_00000070110070405462393830000005217936388448054930_);fill:#ED5224;}
	.st208{clip-path:url(#SVGID_00000050626380097927358840000016810013398497589128_);fill:#ED5124;}
	.st209{clip-path:url(#SVGID_00000038377509641572164610000004243284957521389707_);fill:#ED5024;}
	.st210{clip-path:url(#SVGID_00000079473516737487458790000004467959817447463334_);fill:#ED4F24;}
	.st211{clip-path:url(#SVGID_00000009560755184937162530000018081322478770800306_);fill:#ED4E24;}
	.st212{clip-path:url(#SVGID_00000148631355777931203620000002943159477424369835_);fill:#ED4D24;}
	.st213{clip-path:url(#SVGID_00000106841922973808360270000016649471287574575543_);fill:#ED4C24;}
	.st214{clip-path:url(#SVGID_00000082325956631266343580000006329547040039331000_);fill:#ED4B24;}
	.st215{clip-path:url(#SVGID_00000151506899040816526110000012448740204368126366_);fill:#ED4A24;}
	.st216{clip-path:url(#SVGID_00000081649054485326263530000010684958209316422073_);fill:#ED4824;}
	.st217{clip-path:url(#SVGID_00000079447069826292394970000011319460274929907631_);fill:#ED4724;}
	.st218{clip-path:url(#SVGID_00000064349308274760617180000005907186374675360928_);fill:#ED4624;}
	.st219{clip-path:url(#SVGID_00000098209883731539667040000005424790879533101460_);fill:#ED4524;}
	.st220{clip-path:url(#SVGID_00000156549902213534094780000010512477816811311282_);fill:#ED4424;}
	.st221{clip-path:url(#SVGID_00000122695590725013714520000011664020015435267463_);fill:#ED4324;}
	.st222{clip-path:url(#SVGID_00000167366717952236939120000009205961547319252412_);fill:#ED4224;}
	.st223{clip-path:url(#SVGID_00000058561454478913441450000000322112692708294563_);fill:#ED4124;}
	.st224{clip-path:url(#SVGID_00000071553095509774683940000007768392507477861289_);fill:#ED4024;}
	.st225{clip-path:url(#SVGID_00000026864997269119064190000009485930354918305944_);fill:#ED3F24;}
	.st226{clip-path:url(#SVGID_00000065057641821158151970000009638097244017255815_);fill:#ED3E24;}
	.st227{clip-path:url(#SVGID_00000053509423157032131610000002541909839491157148_);fill:#ED3D24;}
	.st228{clip-path:url(#SVGID_00000075149716864775163390000006352280760121009832_);fill:#ED3C24;}
	.st229{clip-path:url(#SVGID_00000046298625995857259040000018407964615524202930_);fill:#ED3B24;}
	.st230{clip-path:url(#SVGID_00000101811209441659063200000003806193115870669995_);fill:#ED3A24;}
	.st231{clip-path:url(#SVGID_00000054977244455596163930000001424303138116725938_);fill:#ED3924;}
	.st232{clip-path:url(#SVGID_00000003799398094126690550000006169992777326776974_);fill:#ED3824;}
	.st233{clip-path:url(#SVGID_00000139992153428405984220000016457862931040529539_);fill:#ED3724;}
	.st234{clip-path:url(#SVGID_00000162346114753122088960000006581261096999732392_);fill:#ED3624;}
	.st235{clip-path:url(#SVGID_00000150085504980558374180000003012175309382543016_);fill:#ED3524;}
	.st236{clip-path:url(#SVGID_00000041268266459157330810000006795394718983340715_);fill:#ED3424;}
	.st237{clip-path:url(#SVGID_00000120530666931655426300000005749798069703937439_);fill:#ED3324;}
	.st238{clip-path:url(#SVGID_00000018947299808056591950000014832435987883042475_);fill:#ED3224;}
	.st239{clip-path:url(#SVGID_00000137843293989234342550000000802691329829938565_);fill:#ED3124;}
	.st240{clip-path:url(#SVGID_00000159433389068655975770000005106123723957508256_);fill:#ED3024;}
	.st241{clip-path:url(#SVGID_00000137853242845649168770000009776918843385207682_);fill:#ED2F24;}
	.st242{clip-path:url(#SVGID_00000124850354948937620100000017188182371322596495_);fill:#ED2E24;}
	.st243{clip-path:url(#SVGID_00000147927340886684339880000015293501442062222991_);fill:#ED2D24;}
	.st244{clip-path:url(#SVGID_00000023257383511454312940000016992607012488681349_);fill:#ED2C24;}
	.st245{clip-path:url(#SVGID_00000031923190004483574110000015052329441832825785_);fill:#ED2B24;}
	.st246{clip-path:url(#SVGID_00000111885277604880972620000011480662643004674735_);fill:#ED2A24;}
	.st247{clip-path:url(#SVGID_00000102527861666741511590000010971360084089931694_);fill:#ED2924;}
	.st248{clip-path:url(#SVGID_00000116956869727730948910000017309852875953547924_);fill:#ED2824;}
	.st249{clip-path:url(#SVGID_00000008860951032479890070000000458788175009298878_);fill:#ED2724;}
	.st250{clip-path:url(#SVGID_00000134218584410125865520000015298226138947794321_);fill:#ED2624;}
	.st251{clip-path:url(#SVGID_00000049911335588087565780000001016309158361963152_);fill:#ED2524;}
	.st252{clip-path:url(#SVGID_00000175301964986016071540000016988850909715160508_);fill:#ED2424;}
	.st253{clip-path:url(#SVGID_00000039134509173564135230000009674752770374005378_);fill:#ED2324;}
	.st254{clip-path:url(#SVGID_00000041296340324146904640000013117718880261524360_);fill:#ED2224;}
	.st255{clip-path:url(#SVGID_00000101792281895607248490000016806170848057975212_);fill:#ED2124;}
	.st256{clip-path:url(#SVGID_00000183223395018917899420000014901670191324279181_);fill:#ED2024;}
	.st257{clip-path:url(#SVGID_00000112609438631969908610000014789484201368101545_);fill:#ED1F24;}
	.st258{clip-path:url(#SVGID_00000134929543841850157620000000931867189223361419_);fill:#ED1E24;}
	.st259{clip-path:url(#SVGID_00000008140209804176347730000018143300837660335528_);fill:#ED1D24;}
	.st260{clip-path:url(#SVGID_00000164477906406622528340000013422739735838683273_);fill:#ED1C24;}
	.st261{clip-path:url(#SVGID_00000066492134657347275320000002976566026353586095_);fill:#ED1C24;}
	.st262{clip-path:url(#SVGID_00000173856226003357328880000007951097521022834847_);fill:#EC1C24;}
	.st263{clip-path:url(#SVGID_00000130645083365902679180000002976279816838759613_);fill:#EB1C23;}
	.st264{clip-path:url(#SVGID_00000142895133835189325360000005829136949295119512_);fill:#EA1C23;}
	.st265{clip-path:url(#SVGID_00000127032457500540091500000005609518565262714546_);fill:#E91C22;}
	.st266{clip-path:url(#SVGID_00000125597163995204591950000004780260713002614659_);fill:#E81C22;}
	.st267{clip-path:url(#SVGID_00000049196886412832642530000009249694447507804032_);fill:#E71C22;}
	.st268{clip-path:url(#SVGID_00000102531861351467643790000001552545418605106844_);fill:#E61C21;}
	.st269{clip-path:url(#SVGID_00000114050306674106289230000009354993178080901306_);fill:#E51C21;}
	.st270{clip-path:url(#SVGID_00000121963015317349066730000013018215848939985587_);fill:#E41D20;}
	.st271{clip-path:url(#SVGID_00000062191977839873602820000011963964087341664151_);fill:#E31D20;}
	.st272{clip-path:url(#SVGID_00000028283458977727941200000001794741697036137353_);fill:#E21D20;}
	.st273{clip-path:url(#SVGID_00000133520133483368927720000017254020173875584184_);fill:#E11D1F;}
	.st274{clip-path:url(#SVGID_00000026863259854189233730000015552279363482851235_);fill:#E01D1F;}
	.st275{clip-path:url(#SVGID_00000022536701422832763480000010946888281523116215_);fill:#DF1D1E;}
	.st276{clip-path:url(#SVGID_00000067213278636425495810000007153516917982766988_);fill:#DE1D1E;}
	.st277{clip-path:url(#SVGID_00000004534124553463442340000010051607013819277755_);fill:#DD1D1D;}
	.st278{clip-path:url(#SVGID_00000055682760203634692400000006914538851119505797_);fill:#DC1D1D;}
	.st279{clip-path:url(#SVGID_00000114031852702382611990000009741686519542464189_);fill:#DB1D1D;}
	.st280{clip-path:url(#SVGID_00000080166638441366283880000008980143829574153613_);fill:#DA1D1C;}
	.st281{clip-path:url(#SVGID_00000088106418848112589600000011020564176023391906_);fill:#D91D1C;}
	.st282{clip-path:url(#SVGID_00000121991556571928343280000009601550305664738453_);fill:#D81D1B;}
	.st283{clip-path:url(#SVGID_00000130640772656929628560000016806063428159679125_);fill:#D71D1B;}
	.st284{clip-path:url(#SVGID_00000037670380051988247430000006749427636715207609_);fill:#D61D1B;}
	.st285{clip-path:url(#SVGID_00000173154035515266000180000007901492418600551843_);fill:#D51D1A;}
	.st286{clip-path:url(#SVGID_00000027586082341484379760000001269934520999523260_);fill:#D41D1A;}
	.st287{clip-path:url(#SVGID_00000095336886055476573840000008731800144278477237_);fill:#D31D19;}
	.st288{clip-path:url(#SVGID_00000039844485902644725630000010951141235383178377_);fill:#D21E19;}
	.st289{clip-path:url(#SVGID_00000075841557504963413070000017429042802768071821_);fill:#D11E19;}
	.st290{clip-path:url(#SVGID_00000045578835796997055590000001349494332567523492_);fill:#D01E18;}
	.st291{clip-path:url(#SVGID_00000112607261964823581380000012363979364518946984_);fill:#CF1E18;}
	.st292{clip-path:url(#SVGID_00000181085586714668865380000006801571472867096485_);fill:#CE1E17;}
	.st293{clip-path:url(#SVGID_00000134954383268660132260000001820690504221242524_);fill:#CD1E17;}
	.st294{clip-path:url(#SVGID_00000058574461979720434150000017871860654146769319_);fill:#CC1E17;}
	.st295{clip-path:url(#SVGID_00000088839820680336480750000009120953225380665474_);fill:#CB1E16;}
	.st296{clip-path:url(#SVGID_00000006666423749917363860000013938886736873105542_);fill:#CA1E16;}
	.st297{clip-path:url(#SVGID_00000182517350838977352470000011921096092924558005_);fill:#C91E15;}
	.st298{clip-path:url(#SVGID_00000080188917361591587350000008660540975282257566_);fill:#C81E15;}
	.st299{clip-path:url(#SVGID_00000042007276849555146320000013583758586813782673_);fill:#C71E14;}
	.st300{clip-path:url(#SVGID_00000056397195773738671500000000008205310076265122_);fill:#C61E14;}
	.st301{clip-path:url(#SVGID_00000057136066616491406760000005144901276291376270_);fill:#C51E14;}
	.st302{clip-path:url(#SVGID_00000010999240511366549020000006295599914880995459_);fill:#C41E13;}
	.st303{clip-path:url(#SVGID_00000178896738668952124640000014329830258537856417_);fill:#C31E13;}
	.st304{clip-path:url(#SVGID_00000142895873531244924800000000737207763532710291_);fill:#C21E12;}
	.st305{clip-path:url(#SVGID_00000022560356749650570570000000721944632416474530_);fill:#C11F12;}
	.st306{clip-path:url(#SVGID_00000149380048124422372330000011457051938853700542_);fill:#BF1F12;}
	.st307{clip-path:url(#SVGID_00000140704137990922222750000002914511721035800225_);fill:#BE1F11;}
	.st308{clip-path:url(#SVGID_00000089541415606968561050000011868719390298258585_);fill:#BD1F11;}
	.st309{clip-path:url(#SVGID_00000123413115418517284380000000458337543950875529_);fill:#BC1F10;}
	.st310{clip-path:url(#SVGID_00000114075614981902833020000001734224080911508159_);fill:#BB1F10;}
	.st311{clip-path:url(#SVGID_00000090991033989379508560000014178967811020621490_);fill:#BA1F10;}
	.st312{clip-path:url(#SVGID_00000005255504547234615590000004774402222992394143_);fill:#B91F0F;}
	.st313{clip-path:url(#SVGID_00000152263818918601290490000015764670346080888996_);fill:#B81F0F;}
	.st314{clip-path:url(#SVGID_00000136406280192222576360000003292611449204453535_);fill:#B71F0E;}
	.st315{clip-path:url(#SVGID_00000072991049624528501130000004932318009968297884_);fill:#B61F0E;}
	.st316{clip-path:url(#SVGID_00000047057488304887311080000012744665476766971289_);fill:#B51F0E;}
	.st317{clip-path:url(#SVGID_00000160904610133985603900000014602762549490666925_);fill:#B41F0D;}
	.st318{clip-path:url(#SVGID_00000015332868868544466200000018379637724648063360_);fill:#B31F0D;}
	.st319{clip-path:url(#SVGID_00000120518239671887056830000016337515722786075530_);fill:#B21F0C;}
	.st320{clip-path:url(#SVGID_00000078011162804655330060000012640731625892501168_);fill:#B11F0C;}
	.st321{clip-path:url(#SVGID_00000155826082158110014090000017295586825053528971_);fill:#B01F0B;}
	.st322{clip-path:url(#SVGID_00000111884301178079550960000007030779839979169962_);fill:#AF1F0B;}
	.st323{clip-path:url(#SVGID_00000138538605529820966150000011712666073959779224_);fill:#AE200B;}
	.st324{clip-path:url(#SVGID_00000052063492268150006330000004283471596862898593_);fill:#AD200A;}
	.st325{clip-path:url(#SVGID_00000024714417425832838310000014632105238962304910_);fill:#AC200A;}
	.st326{clip-path:url(#SVGID_00000114068049440329374580000008502089320801621901_);fill:#AB2009;}
	.st327{clip-path:url(#SVGID_00000178171735709161722180000012399014431168714920_);fill:#AA2009;}
	.st328{clip-path:url(#SVGID_00000077324225546865655800000012329115826270641339_);fill:#A92009;}
	.st329{clip-path:url(#SVGID_00000098197662733230545940000000242148601988521354_);fill:#A82008;}
	.st330{clip-path:url(#SVGID_00000160878532255675114190000011560456731886929557_);fill:#A72008;}
	.st331{clip-path:url(#SVGID_00000021096110078038146980000013957701514546621104_);fill:#A62007;}
	.st332{clip-path:url(#SVGID_00000088098710039863824610000003138918104942021816_);fill:#A52007;}
	.st333{clip-path:url(#SVGID_00000013893678151932978730000016247985739135456441_);fill:#A42007;}
	.st334{clip-path:url(#SVGID_00000127729885522601454070000013751771279969283761_);fill:#A32006;}
	.st335{clip-path:url(#SVGID_00000082329089828003277450000017297399650449513392_);fill:#A22006;}
	.st336{clip-path:url(#SVGID_00000147211917625885344780000011372708837782967448_);fill:#A12005;}
	.st337{clip-path:url(#SVGID_00000038404235428198044010000012037735920252880547_);fill:#A02005;}
	.st338{clip-path:url(#SVGID_00000167378715690387516710000002181108339830269839_);fill:#9F2005;}
	.st339{clip-path:url(#SVGID_00000044158280664222303910000015896465980800297145_);fill:#9E2004;}
	.st340{clip-path:url(#SVGID_00000018205867209030798420000016501483362996656030_);fill:#9D2004;}
	.st341{clip-path:url(#SVGID_00000002361106867856070660000009769707184090171835_);fill:#9C2103;}
	.st342{clip-path:url(#SVGID_00000133492290833024607130000010034359252582070206_);fill:#9B2103;}
	.st343{clip-path:url(#SVGID_00000138573839100847549740000009443018905710252454_);fill:#9A2102;}
	.st344{clip-path:url(#SVGID_00000176032057314731178660000017317312681074756759_);fill:#992102;}
	.st345{clip-path:url(#SVGID_00000153666358230593974750000004238851621336354237_);fill:#982102;}
	.st346{clip-path:url(#SVGID_00000124847317402910472990000006338213710447323061_);fill:#972101;}
	.st347{clip-path:url(#SVGID_00000015320548576589111560000017150557778380141453_);fill:#962101;}
	.st348{clip-path:url(#SVGID_00000006680273467272598990000007106054525415217026_);fill:#952100;}
	.st349{clip-path:url(#SVGID_00000179646693390321640380000008087826450249006247_);fill:#942100;}
	.st350{clip-path:url(#SVGID_00000100360314491260762670000009486392245588389308_);fill:#ED7624;}
	.st351{clip-path:url(#SVGID_00000165927291241652545740000008152778420883362212_);fill:#ED7624;}
	.st352{clip-path:url(#SVGID_00000030468684628656767560000002288148872902260662_);fill:#ED7524;}
	.st353{clip-path:url(#SVGID_00000050634716793070197730000013722117820532980145_);fill:#ED7424;}
	.st354{clip-path:url(#SVGID_00000130645214317590709510000011458907939981567158_);fill:#ED7324;}
	.st355{clip-path:url(#SVGID_00000039114398912005574750000017746967609492453515_);fill:#ED7224;}
	.st356{clip-path:url(#SVGID_00000136402024881554380400000009844623214835716240_);fill:#ED7124;}
	.st357{clip-path:url(#SVGID_00000173141710765307293330000002346617962204739482_);fill:#ED7024;}
	.st358{clip-path:url(#SVGID_00000055691633778629502780000012637511352666494897_);fill:#ED6F24;}
	.st359{clip-path:url(#SVGID_00000000219182667838998370000018062194746015521180_);fill:#ED6E24;}
	.st360{clip-path:url(#SVGID_00000155859060535127772930000011624346474719066768_);fill:#ED6D24;}
	.st361{clip-path:url(#SVGID_00000056390832063528829510000011898622279086134974_);fill:#ED6C24;}
	.st362{clip-path:url(#SVGID_00000041273317070392235130000005662130093480487102_);fill:#ED6B24;}
	.st363{clip-path:url(#SVGID_00000039817865905982837480000002079020439908273816_);fill:#ED6A24;}
	.st364{clip-path:url(#SVGID_00000024705615808336323080000014090140666532951430_);fill:#ED6924;}
	.st365{clip-path:url(#SVGID_00000108295663464064590130000003750417094280577425_);fill:#ED6824;}
	.st366{clip-path:url(#SVGID_00000132055936687386564900000016331084697736816043_);fill:#ED6724;}
	.st367{clip-path:url(#SVGID_00000114052865146229299880000001084167326210507137_);fill:#ED6624;}
	.st368{clip-path:url(#SVGID_00000073710631171904217920000001985804082722313650_);fill:#ED6524;}
	.st369{clip-path:url(#SVGID_00000096748926417451615990000008068808524764687241_);fill:#ED6424;}
	.st370{clip-path:url(#SVGID_00000030472257072507366930000006885136038803409832_);fill:#ED6324;}
	.st371{clip-path:url(#SVGID_00000086662793337833537320000006184508331906239399_);fill:#ED6224;}
	.st372{clip-path:url(#SVGID_00000024684415240885395000000008732268319322384001_);fill:#ED6124;}
	.st373{clip-path:url(#SVGID_00000157272731115862455090000014590784788487351216_);fill:#ED6024;}
	.st374{clip-path:url(#SVGID_00000002368912863184908350000001834660074812650881_);fill:#ED5F24;}
	.st375{clip-path:url(#SVGID_00000126298212021849293160000014356429950211452309_);fill:#ED5E24;}
	.st376{clip-path:url(#SVGID_00000083091303854216583440000005472534906141835156_);fill:#ED5D24;}
	.st377{clip-path:url(#SVGID_00000077290704797759032040000002849930735123093414_);fill:#ED5C24;}
	.st378{clip-path:url(#SVGID_00000086693118517202281540000011242286812850348709_);fill:#ED5B24;}
	.st379{clip-path:url(#SVGID_00000000222419296467504710000002360516927048481212_);fill:#ED5A24;}
	.st380{clip-path:url(#SVGID_00000038382094151982963600000010201426592837796498_);fill:#ED5924;}
	.st381{clip-path:url(#SVGID_00000119103767147195718620000013688482236470569874_);fill:#ED5824;}
	.st382{clip-path:url(#SVGID_00000139284094023265244140000018422488822786162617_);fill:#ED5724;}
	.st383{clip-path:url(#SVGID_00000138575081188369270380000014009104805775873201_);fill:#ED5624;}
	.st384{clip-path:url(#SVGID_00000130618212940647271900000014766449934807341740_);fill:#ED5524;}
	.st385{clip-path:url(#SVGID_00000128466852098374078120000000664864151179814802_);fill:#ED5424;}
	.st386{clip-path:url(#SVGID_00000109714308414555055670000012878997345435896459_);fill:#ED5324;}
	.st387{clip-path:url(#SVGID_00000007401402479828223710000015669283079027980422_);fill:#ED5224;}
	.st388{clip-path:url(#SVGID_00000039121398454548867340000004037261598808609710_);fill:#ED5124;}
	.st389{clip-path:url(#SVGID_00000082347039817010403190000015343799959508562826_);fill:#ED5024;}
	.st390{clip-path:url(#SVGID_00000132086239027139945830000006118073936063451045_);fill:#ED4F24;}
	.st391{clip-path:url(#SVGID_00000017484283215069496260000014111448737154838951_);fill:#ED4E24;}
	.st392{clip-path:url(#SVGID_00000137823211277810460400000000642317668028242862_);fill:#ED4D24;}
	.st393{clip-path:url(#SVGID_00000049198151719936978460000005388387398772678547_);fill:#ED4C24;}
	.st394{clip-path:url(#SVGID_00000017517425084373474470000016172309762078178722_);fill:#ED4B24;}
	.st395{clip-path:url(#SVGID_00000089563525488305186060000004999554318236465820_);fill:#ED4A24;}
	.st396{clip-path:url(#SVGID_00000016797558197883205870000011508631878937414027_);fill:#ED4824;}
	.st397{clip-path:url(#SVGID_00000081612901130821668080000001900078967977392799_);fill:#ED4724;}
	.st398{clip-path:url(#SVGID_00000179611248328164602950000010603572962168158856_);fill:#ED4624;}
	.st399{clip-path:url(#SVGID_00000159471483449876673590000010385940684557309601_);fill:#ED4524;}
	.st400{clip-path:url(#SVGID_00000155860393147109893780000013898642210880281985_);fill:#ED4424;}
	.st401{clip-path:url(#SVGID_00000168832102730623416550000010663509220556506295_);fill:#ED4324;}
	.st402{clip-path:url(#SVGID_00000097494765527015676190000008579062625576988292_);fill:#ED4224;}
	.st403{clip-path:url(#SVGID_00000009581094072845992990000012467027934425518738_);fill:#ED4124;}
	.st404{clip-path:url(#SVGID_00000054254204938239582590000008571962292063101581_);fill:#ED4024;}
	.st405{clip-path:url(#SVGID_00000142882944322701123360000009804378849323864202_);fill:#ED3F24;}
	.st406{clip-path:url(#SVGID_00000168823526481112943670000008231382266335217548_);fill:#ED3E24;}
	.st407{clip-path:url(#SVGID_00000150825240626665833960000001910078854989009305_);fill:#ED3D24;}
	.st408{clip-path:url(#SVGID_00000013166475294013663000000013443208446461239681_);fill:#ED3C24;}
	.st409{clip-path:url(#SVGID_00000054265606382977699750000016517632637423064741_);fill:#ED3B24;}
	.st410{clip-path:url(#SVGID_00000039832287405963113600000013445266528250602632_);fill:#ED3A24;}
	.st411{clip-path:url(#SVGID_00000090283262099225560590000009007182226899804800_);fill:#ED3924;}
	.st412{clip-path:url(#SVGID_00000142867387918997532190000001341850358686850699_);fill:#ED3824;}
	.st413{clip-path:url(#SVGID_00000057145569191187841750000008042826418435746961_);fill:#ED3724;}
	.st414{clip-path:url(#SVGID_00000170275654264508511680000010191518198321905320_);fill:#ED3624;}
	.st415{clip-path:url(#SVGID_00000103253446680007943480000004567658357842951849_);fill:#ED3524;}
	.st416{clip-path:url(#SVGID_00000129889323221782111540000000044280513804589198_);fill:#ED3424;}
	.st417{clip-path:url(#SVGID_00000081622211038128415670000002185769149194420878_);fill:#ED3324;}
	.st418{clip-path:url(#SVGID_00000145781417129538006260000002155117053579258249_);fill:#ED3224;}
	.st419{clip-path:url(#SVGID_00000011724104241613131270000001615567090796945080_);fill:#ED3124;}
	.st420{clip-path:url(#SVGID_00000023983967463467828350000001651892399892914608_);fill:#ED3024;}
	.st421{clip-path:url(#SVGID_00000045619917062815580460000009914922362244536708_);fill:#ED2F24;}
	.st422{clip-path:url(#SVGID_00000122719153248956160180000006117476658120236928_);fill:#ED2E24;}
	.st423{clip-path:url(#SVGID_00000139974940987783852880000012159593111887307957_);fill:#ED2D24;}
	.st424{clip-path:url(#SVGID_00000160179299215552970400000013324339291154959275_);fill:#ED2C24;}
	.st425{clip-path:url(#SVGID_00000175292789103234408920000014896890563231482028_);fill:#ED2B24;}
	.st426{clip-path:url(#SVGID_00000085234761780505340200000007672900462569531056_);fill:#ED2A24;}
	.st427{clip-path:url(#SVGID_00000013882980380171945640000016112605353757875379_);fill:#ED2924;}
	.st428{clip-path:url(#SVGID_00000177485643743579977540000004047426904746679485_);fill:#ED2824;}
	.st429{clip-path:url(#SVGID_00000005981558898963542690000001401892834452645046_);fill:#ED2724;}
	.st430{clip-path:url(#SVGID_00000119807866579094875290000005808774303456159890_);fill:#ED2624;}
	.st431{clip-path:url(#SVGID_00000085245230026911217040000009299781135083767429_);fill:#ED2524;}
	.st432{clip-path:url(#SVGID_00000127037535257422341080000005178272138776447874_);fill:#ED2424;}
	.st433{clip-path:url(#SVGID_00000091001590948477087510000018346335956162182029_);fill:#ED2324;}
	.st434{clip-path:url(#SVGID_00000118380508793716882850000008799702729500564147_);fill:#ED2224;}
	.st435{clip-path:url(#SVGID_00000016797605347165704770000005725504007965972651_);fill:#ED2124;}
	.st436{clip-path:url(#SVGID_00000096040716059226728410000000426047028434580130_);fill:#ED2024;}
	.st437{clip-path:url(#SVGID_00000026878333787549409610000004827867834822683816_);fill:#ED1F24;}
	.st438{clip-path:url(#SVGID_00000042705239278330156050000008242977295083362719_);fill:#ED1E24;}
	.st439{clip-path:url(#SVGID_00000013879637563892706920000012284246399062533511_);fill:#ED1D24;}
	.st440{clip-path:url(#SVGID_00000002378890368412483900000005013164089045959317_);fill:#ED1C24;}
	.st441{clip-path:url(#SVGID_00000115477168901561042590000012957854953252007347_);fill:#ED1C24;}
	.st442{clip-path:url(#SVGID_00000018929647054841211270000002366965340774265275_);fill:#EC1C24;}
	.st443{clip-path:url(#SVGID_00000160869248347337453020000018003414872414771120_);fill:#EB1C23;}
	.st444{clip-path:url(#SVGID_00000017499426234408748770000012207569753802768804_);fill:#EA1C23;}
	.st445{clip-path:url(#SVGID_00000085208450689777739980000008809624006425996733_);fill:#E91C22;}
	.st446{clip-path:url(#SVGID_00000033363739778911898040000014223469643382632579_);fill:#E81C22;}
	.st447{clip-path:url(#SVGID_00000071518571590971839950000002342462578088147844_);fill:#E71C22;}
	.st448{clip-path:url(#SVGID_00000068637910062073738970000009944872440061735356_);fill:#E61C21;}
	.st449{clip-path:url(#SVGID_00000092452788909313576470000015931283097928697989_);fill:#E51C21;}
	.st450{clip-path:url(#SVGID_00000136399731508276936880000013146937814557086343_);fill:#E41D20;}
	.st451{clip-path:url(#SVGID_00000002373918483856412420000001391959036469848725_);fill:#E31D20;}
	.st452{clip-path:url(#SVGID_00000019654916024606131890000013639970580487127955_);fill:#E21D20;}
	.st453{clip-path:url(#SVGID_00000088847483235086974810000010751192940112031382_);fill:#E11D1F;}
	.st454{clip-path:url(#SVGID_00000073720452168438425320000006815643763085988536_);fill:#E01D1F;}
	.st455{clip-path:url(#SVGID_00000139285353648691899440000009248337244720450738_);fill:#DF1D1E;}
	.st456{clip-path:url(#SVGID_00000008121030565735551050000006270051253815524535_);fill:#DE1D1E;}
	.st457{clip-path:url(#SVGID_00000046326742303778107660000003678897749312429197_);fill:#DD1D1D;}
	.st458{clip-path:url(#SVGID_00000126299869316318290280000008546262318024176536_);fill:#DC1D1D;}
	.st459{clip-path:url(#SVGID_00000015349727105754505100000007691356091915721894_);fill:#DB1D1D;}
	.st460{clip-path:url(#SVGID_00000175292436716836864170000017546072182190868874_);fill:#DA1D1C;}
	.st461{clip-path:url(#SVGID_00000165215146783902997720000011000173379507195806_);fill:#D91D1C;}
	.st462{clip-path:url(#SVGID_00000054986101481284411900000014068766565052758707_);fill:#D81D1B;}
	.st463{clip-path:url(#SVGID_00000048465256400361857540000006571441645414519429_);fill:#D71D1B;}
	.st464{clip-path:url(#SVGID_00000066508295304469060670000007948298462866825382_);fill:#D61D1B;}
	.st465{clip-path:url(#SVGID_00000126306727350537341160000017161752065001921468_);fill:#D51D1A;}
	.st466{clip-path:url(#SVGID_00000062158378274203048480000008287334255952204947_);fill:#D41D1A;}
	.st467{clip-path:url(#SVGID_00000095329325780070769320000002365478465997733543_);fill:#D31D19;}
	.st468{clip-path:url(#SVGID_00000159448751186064307790000008743177001353931171_);fill:#D21E19;}
	.st469{clip-path:url(#SVGID_00000126282660540181819960000016364701599158054279_);fill:#D11E19;}
	.st470{clip-path:url(#SVGID_00000014598657147130699860000007946073990809433746_);fill:#D01E18;}
	.st471{clip-path:url(#SVGID_00000041987678809204189950000013845452303470290351_);fill:#CF1E18;}
	.st472{clip-path:url(#SVGID_00000109748570975702271340000010040318821688265130_);fill:#CE1E17;}
	.st473{clip-path:url(#SVGID_00000101809383777992862290000016417770900189807256_);fill:#CD1E17;}
	.st474{clip-path:url(#SVGID_00000041995864749538368940000005126028449931768749_);fill:#CC1E17;}
	.st475{clip-path:url(#SVGID_00000117678373877267182610000009689347549328662941_);fill:#CB1E16;}
	.st476{clip-path:url(#SVGID_00000019636494224149171760000011059926355986342281_);fill:#CA1E16;}
	.st477{clip-path:url(#SVGID_00000155829342140096687820000016302576579215383457_);fill:#C91E15;}
	.st478{clip-path:url(#SVGID_00000007424084668985131660000013088884567145455544_);fill:#C81E15;}
	.st479{clip-path:url(#SVGID_00000131331822605407286830000015483228442406121402_);fill:#C71E14;}
	.st480{clip-path:url(#SVGID_00000148661961031349095070000017796749138166349500_);fill:#C61E14;}
	.st481{clip-path:url(#SVGID_00000125594690332197970610000006435171681451909791_);fill:#C51E14;}
	.st482{clip-path:url(#SVGID_00000179621628080319408420000004939499496899896996_);fill:#C41E13;}
	.st483{clip-path:url(#SVGID_00000142865244138767796140000015730893652653877908_);fill:#C31E13;}
	.st484{clip-path:url(#SVGID_00000060016512085389172040000009578111982289459618_);fill:#C21E12;}
	.st485{clip-path:url(#SVGID_00000119815564012413359310000001437673252282394283_);fill:#C11F12;}
	.st486{clip-path:url(#SVGID_00000076594487514539703860000015412557865988930706_);fill:#BF1F12;}
	.st487{clip-path:url(#SVGID_00000043448838862495988380000007903163525897139596_);fill:#BE1F11;}
	.st488{clip-path:url(#SVGID_00000024691901186988210880000002909778132097451967_);fill:#BD1F11;}
	.st489{clip-path:url(#SVGID_00000062172281873704107950000005154960905004242582_);fill:#BC1F10;}
	.st490{clip-path:url(#SVGID_00000031197678401536638720000015184256908097233329_);fill:#BB1F10;}
	.st491{clip-path:url(#SVGID_00000165200962613509143060000004820747374661097864_);fill:#BA1F10;}
	.st492{clip-path:url(#SVGID_00000158729536765768205230000015601543942088209805_);fill:#B91F0F;}
	.st493{clip-path:url(#SVGID_00000126313328631490307660000005859697485048869039_);fill:#B81F0F;}
	.st494{clip-path:url(#SVGID_00000175294729957177231980000018159072035024707200_);fill:#B71F0E;}
	.st495{clip-path:url(#SVGID_00000150816935284169045840000006599082758988876930_);fill:#B61F0E;}
	.st496{clip-path:url(#SVGID_00000075162666089457978460000015166010015420453004_);fill:#B51F0E;}
	.st497{clip-path:url(#SVGID_00000002374573096229994570000012280974685069424285_);fill:#B41F0D;}
	.st498{clip-path:url(#SVGID_00000072245255418454052760000011655097338267586465_);fill:#B31F0D;}
	.st499{clip-path:url(#SVGID_00000043447336914484504970000003127416865818442418_);fill:#B21F0C;}
	.st500{clip-path:url(#SVGID_00000004504522446656939570000016953501212301125550_);fill:#B11F0C;}
	.st501{clip-path:url(#SVGID_00000124127899858898789820000004020367094234224289_);fill:#B01F0B;}
	.st502{clip-path:url(#SVGID_00000146466584425789661420000009052353929656761528_);fill:#AF1F0B;}
	.st503{clip-path:url(#SVGID_00000122698097041649075560000009971367854731374509_);fill:#AE200B;}
	.st504{clip-path:url(#SVGID_00000142890921603675768230000001497534938945352074_);fill:#AD200A;}
	.st505{clip-path:url(#SVGID_00000067200999068319774390000013247568171071433872_);fill:#AC200A;}
	.st506{clip-path:url(#SVGID_00000056385508830338936490000015712995877605118907_);fill:#AB2009;}
	.st507{clip-path:url(#SVGID_00000173855671735325367840000000009553490082964403_);fill:#AA2009;}
	.st508{clip-path:url(#SVGID_00000176727069638378332000000007187759944507745966_);fill:#A92009;}
	.st509{clip-path:url(#SVGID_00000052801891039173618630000006443681472798737803_);fill:#A82008;}
	.st510{clip-path:url(#SVGID_00000160163108743543042500000000816991993041107329_);fill:#A72008;}
	.st511{clip-path:url(#SVGID_00000152944155918569165390000005413988936940033211_);fill:#A62007;}
	.st512{clip-path:url(#SVGID_00000011721177935308612010000018263656068112528292_);fill:#A52007;}
	.st513{clip-path:url(#SVGID_00000061439709221751080400000005283792466641720717_);fill:#A42007;}
	.st514{clip-path:url(#SVGID_00000047057788084133517430000006728228009836709762_);fill:#A32006;}
	.st515{clip-path:url(#SVGID_00000072253323804322287220000005094893586851097268_);fill:#A22006;}
	.st516{clip-path:url(#SVGID_00000173857846848498920340000016398975000887378101_);fill:#A12005;}
	.st517{clip-path:url(#SVGID_00000017481654650873910910000015410531059988168854_);fill:#A02005;}
	.st518{clip-path:url(#SVGID_00000140726195192317303220000018362276697549589640_);fill:#9F2005;}
	.st519{clip-path:url(#SVGID_00000067955399538704184370000005449105254087740323_);fill:#9E2004;}
	.st520{clip-path:url(#SVGID_00000129911821947954550040000015783403702428676519_);fill:#9D2004;}
	.st521{clip-path:url(#SVGID_00000010994490351704653570000000239373255586129037_);fill:#9C2103;}
	.st522{clip-path:url(#SVGID_00000006707774736349633610000003211355795303593355_);fill:#9B2103;}
	.st523{clip-path:url(#SVGID_00000091717249752238493120000006009499152250851980_);fill:#9A2102;}
	.st524{clip-path:url(#SVGID_00000047053781197192486350000010225306116683532451_);fill:#992102;}
	.st525{clip-path:url(#SVGID_00000070816795887508958990000001744369764623918517_);fill:#982102;}
	.st526{clip-path:url(#SVGID_00000110471099429851156840000007825325709728326334_);fill:#972101;}
	.st527{clip-path:url(#SVGID_00000176003218842097318170000008792335942148182194_);fill:#962101;}
	.st528{clip-path:url(#SVGID_00000161593776098602607370000008874463368660963758_);fill:#952100;}
	.st529{clip-path:url(#SVGID_00000131347604823523465150000009387838657423166377_);fill:#942100;}
	.st530{fill:#41AA54;}
	.st531{fill:#40A629;}
	.st532{fill:url(#SVGID_00000016056581090012677000000018293508822498208899_);}
	.st533{fill:url(#SVGID_00000146500822739205405160000001153446830777691789_);}
	.st534{fill:url(#SVGID_00000004523132065330345480000015520990245632186501_);}
	.st535{fill:url(#SVGID_00000021113182169069598200000007439424319161206658_);}
	.st536{fill:url(#SVGID_00000035528658485597131160000006436470414580248755_);}
	.st537{fill:#214902;}
	.st538{fill:url(#SVGID_00000155111131375131333240000013916751882477433223_);}
	.st539{fill:#009D4B;}
	.st540{opacity:0.5;fill:url(#SVGID_00000119077834795699846940000000792231310767176115_);enable-background:new    ;}
	.st541{opacity:0.5;fill:url(#SVGID_00000151535453823410194950000001136840281767213217_);enable-background:new    ;}
	.st542{opacity:0.5;fill:url(#SVGID_00000129922720994742136990000004863080349557717632_);enable-background:new    ;}
	.st543{opacity:0.5;fill:url(#SVGID_00000113324270864140868300000005056319411769486477_);enable-background:new    ;}
	.st544{opacity:0.5;fill:url(#SVGID_00000017480679638458160290000011236412435552784298_);enable-background:new    ;}
	.st545{opacity:0.5;fill:url(#SVGID_00000052798423624884220370000008894308782411040686_);enable-background:new    ;}
	.st546{opacity:0.5;fill:url(#SVGID_00000142871813610348278110000000276168201542499747_);enable-background:new    ;}
	.st547{opacity:0.2;fill:#539FC9;enable-background:new    ;}
	.st548{opacity:0.5;fill:#539FC9;enable-background:new    ;}
	.st549{fill:#D6E5EB;}
	.st550{fill:#FAFAFA;}
	.st551{fill:#FF9CC7;}
	.st552{fill:#DDDDDD;}
	.st553{fill:#666666;}
	.st554{fill:#BAC8CE;}
	.st555{fill:#67B6EF;}
	.st556{fill:#679DEF;}
	.st557{fill:#67DFEF;}
	.st558{fill:#C7B3FA;}
	.st559{fill:#D4DBDF;}
	.st560{fill:#C7CED2;}
	.st561{opacity:0.1;enable-background:new    ;}
	.st562{fill:#DBDBDB;}
	.st563{fill:#2E383B;}
	.st564{fill:#414E52;}
	.st565{fill:#E6E6E6;}
	.st566{fill:#EEF5F9;}
	.st567{fill:#DBE3E8;}
	.st568{fill:url(#SVGID_00000105427578563918229440000008703033508104799397_);}
	.st569{fill:#889AA5;}
	.st570{fill:#586770;}
	.st571{fill:#DFE6EB;}
	.st572{fill:#F3FBFF;}
	.st573{fill:#212B2E;}
	.st574{fill:#01848A;}
	.st575{fill:#ECB700;}
	.st576{fill:#388EF7;}
	.st577{fill:#66CC20;}
	.st578{fill:#FF5C66;}
	.st579{fill:#F2A983;}
	.st580{fill:#D88F69;}
	.st581{fill:#D2DADE;}
	.st582{fill:#313131;}
	.st583{fill:#12333D;}
	.st584{fill:#1F404A;}
	.st585{fill:#9DC2E3;}
	.st586{fill:#90B5D6;}
	.st587{fill:#BD2903;}
	.st588{fill:#AACFF0;}
	.st589{fill:#CFCFCF;}
	.st590{fill:#D8DFE3;}
	.st591{fill:#E9F1F5;}
	.st592{fill:#038093;}
	.st593{fill:#32ABBF;}
	.st594{fill:#899BA6;}
	.st595{fill:#AFC0C9;}
	.st596{fill:#563317;}
	.st597{opacity:0.3;fill:#563317;enable-background:new    ;}
	.st598{fill:#AEB5B9;}
	.st599{fill:url(#SVGID_00000040552951886182306860000017194891129179364022_);}
	.st600{fill:url(#SVGID_00000039135603458624592100000012178067450376304776_);}
	.st601{opacity:0.15;enable-background:new    ;}
	.st602{fill:url(#SVGID_00000062909961998349717610000011584251378596957884_);}
	.st603{fill:url(#SVGID_00000060713669077600972060000004980790606696699547_);}
	.st604{fill:url(#SVGID_00000124150882785629750770000017641248836882119352_);}
	.st605{fill:url(#SVGID_00000158016415541763119870000005829764399034673032_);}
	.st606{fill:url(#SVGID_00000151508713513650413650000017127844634667074718_);}
	.st607{fill:url(#SVGID_00000152982818501819135690000009576706296064680872_);}
	.st608{fill:url(#SVGID_00000182487746374058610180000006242247669035901863_);}
	.st609{fill:url(#SVGID_00000128445325166640016910000008761528800324442506_);}
	.st610{fill:url(#SVGID_00000166674464607233765210000003795826380730093724_);}
	.st611{fill:url(#SVGID_00000091721502833903108100000011410651249242579606_);}
	.st612{fill:url(#SVGID_00000138534882570145990180000007806914506955292808_);}
	.st613{fill:url(#SVGID_00000175306831741124839280000007335529311502181009_);}
	.st614{fill:url(#SVGID_00000151510419872422679710000006840454703234354869_);}
	.st615{fill:url(#SVGID_00000111900935796121089070000016657147069163502015_);}
	.st616{fill:url(#SVGID_00000183241772546270897590000001252846044592140178_);}
	.st617{fill:#F6E5D1;}
	.st618{fill:#EDF8FF;}
	.st619{fill:#BDD7E6;}
	.st620{fill:url(#SVGID_00000153698487421349349290000009132487391880070294_);}
	.st621{opacity:0.5;fill:#DBE3E8;enable-background:new    ;}
	.st622{fill:url(#SVGID_00000119118932432466772230000010447027184951471244_);}
	.st623{fill:#DDCCB8;}
	.st624{fill:#9AD0B8;}
	.st625{fill:#81B79F;}
	.st626{fill:#94C6F8;}
	.st627{fill:#6EA0D2;}
	.st628{fill:#5587B9;}
	.st629{fill:url(#SVGID_00000061468607370251194720000014903244208932120212_);}
	.st630{fill:url(#SVGID_00000117644174531192492300000005390017717370218148_);}
	.st631{fill:url(#SVGID_00000083800242656481544420000013168225052946142115_);}
	.st632{fill:url(#SVGID_00000088855726460033763280000009295826061516541883_);}
	.st633{fill:url(#SVGID_00000164489261583258025930000005138603597971377537_);}
	.st634{fill:url(#SVGID_00000119086024909505551980000013949104585160158632_);}
	.st635{fill:url(#SVGID_00000162313387040793787160000015064832396893157817_);}
	.st636{fill:url(#SVGID_00000022526193938022571670000011821172561317069759_);}
	.st637{fill:url(#SVGID_00000077314127113819472310000006565384694149717659_);}
	.st638{fill:url(#SVGID_00000054260082091399827810000011695222993012717978_);}
	.st639{fill:url(#SVGID_00000109021964730020126030000005756907464514857883_);}
	.st640{fill:#7AACDE;}
	.st641{fill:url(#SVGID_00000159469037695340540140000015042344550572972463_);}
	.st642{fill:url(#SVGID_00000018927398495351359700000000997419091012786100_);}
	.st643{fill:url(#SVGID_00000075161183438556338320000013630807348029879442_);}
	.st644{fill:url(#SVGID_00000142856990093175685720000011919405888654709133_);}
	.st645{fill:url(#SVGID_00000097485160669279127430000013584103848418397573_);}
	.st646{fill:#A2A9AD;}
	.st647{fill:#5486B8;}
	.st648{fill:#AEE0E5;}
	.st649{fill:#D5FFFF;}
	.st650{fill:#C8FAFF;}
	.st651{fill:#E2FFFF;}
	.st652{fill:url(#SVGID_00000157278390507069187080000015128957669255021698_);}
</style>
<symbol  id="New_Symbol_64" viewBox="-8.7 -5.5 17.3 11">
	<path class="st0" d="M-5.3-0.1c0-2.1,1.5-3.8,3.3-3.8H2c1.6,0,2.9,1.5,2.9,3.4v5.2L-5.3,4.5V-0.1z"/>
	<path class="st1" d="M8.7,3.5H7.6C7.3,3.5,7,3.6,6.8,3.6v1.9L-6.1,5.3l-2.6-1l0.5-1.6L-6,2.7v-3.1c0-2.8,2-5.1,4.6-5.1h3.7
		c2.3,0,4.2,2.1,4.2,4.7V2c0.3-0.1,0.7-0.1,1.1-0.1h1.1V3.5z M5.1-0.8C5.1-2.6,3.8-4,2.3-4h-3.7c-1.7,0-3.1,1.6-3.1,3.6v4.2L5.1,4
		V-0.8z"/>
</symbol>
<g>
	<g>
		<g>
			<g>
				<circle class="st99" cx="238.8" cy="346.6" r="61.1"/>
				<path class="st100" d="M238.8,408.1c-33.9,0-61.4-27.6-61.4-61.4s27.6-61.4,61.4-61.4s61.4,27.6,61.4,61.4
					S272.7,408.1,238.8,408.1z M238.8,285.8c-33.5,0-60.8,27.3-60.8,60.8c0,33.5,27.3,60.8,60.8,60.8c33.5,0,60.8-27.3,60.8-60.8
					C299.6,313.1,272.3,285.8,238.8,285.8z"/>
			</g>
			<g>
				<path class="st116" d="M231.2,390.5H226v-7.1h1.4v2.4h2.3v-2.4h1.4V390.5z M227.5,389.2h2.3V387h-2.3V389.2z M234.4,393.2h-1.5
					v-10.8h1.5V393.2z"/>
				<path class="st116" d="M236.2,383.3h5v1.2h-3.6v1.8h3.3v1.2h-3.3v1.8h0.7c0.6,0,1.1,0,1.8,0c0.6,0,1.2-0.1,1.8-0.2l0.2,1.2
					c-0.3,0-0.6,0.1-0.9,0.1c-0.3,0-0.7,0-1,0.1c-0.4,0-0.7,0-1.1,0c-0.4,0-0.7,0-1.1,0h-1.9V383.3z M244.2,386.3h1.5v1.3h-1.5v5.6
					h-1.5v-10.8h1.5V386.3z"/>
				<path class="st116" d="M251.6,388.4h-5.1v-5.3h5.1V388.4z M250.1,384.4h-2.2v2.8h2.2V384.4z M249.5,391.9h5.6v1.2h-7v-3.6h1.5
					V391.9z M254.8,390.1h-1.5v-7.7h1.5V390.1z"/>
			</g>
			<g>
				<g>
					<path class="st131" d="M255.1,342.5l-0.6-1.1c0,0,0,0,0,0l-14.1-24.5c-0.2-0.3-0.5-0.5-0.8-0.5c-0.3,0-0.7,0.1-0.8,0.5
						l-14.1,24.5c0,0,0,0,0,0l-0.6,1.1c-2.9,5.1-3.1,10.7-1.2,15.5c0,0,0,0,0,0c2.5,6.3,8.5,11.1,16.1,11.4c0.1,0,0.2,0,0.2,0
						c0.1,0,0.2,0,0.4,0h0c0,0,0,0,0,0c0,0,0,0,0,0h0c0.1,0,0.2,0,0.4,0c0.1,0,0.2,0,0.2,0c7.6-0.2,13.6-5.1,16.1-11.4c0,0,0,0,0,0
						C258.2,353.2,258,347.6,255.1,342.5z"/>
					<g>
						<path class="st132" d="M231.9,342.5l11.6-20.1l-3.1-5.4c-0.4-0.6-1.3-0.6-1.6,0L224,342.5c-6.9,12,1.7,26.9,15.6,26.9h0
							c1.4,0,2.7-0.1,3.9-0.4C232.1,366.5,225.7,353.3,231.9,342.5L231.9,342.5z"/>
					</g>
				</g>
				<g>
					<g>
						<path class="st133" d="M208,321.9c-1.1,4.6-2.5,6.1-7.1,7.1c-0.6,0.1-0.6,1,0,1.1c4.6,1.1,6.1,2.5,7.1,7.1
							c0.1,0.6,1,0.6,1.1,0c1.1-4.6,2.5-6.1,7.1-7.1c0.6-0.1,0.6-1,0-1.1c-4.6-1.1-6.1-2.5-7.1-7.1C209,321.3,208.2,321.3,208,321.9
							z"/>
					</g>
					<g>
						<g>
							<path class="st134" d="M205.2,327.3c-1,0.8-2.4,1.3-4.3,1.8c-0.6,0.1-0.6,1,0,1.1c4.6,1.1,6.1,2.5,7.1,7.1
								c0.1,0.6,1,0.6,1.1,0c0.5-1.9,1-3.3,1.8-4.3C209.9,329.6,208.6,328.2,205.2,327.3z"/>
						</g>
					</g>
				</g>
				<g>
					<g>
						<path class="st131" d="M216.3,335l-6.7,11.6c-3.1,5.4,0.8,12.2,7,12.2s10.1-6.8,7-12.2l-6.7-11.6
							C216.9,334.8,216.5,334.8,216.3,335z"/>
					</g>
					<g>
						<path class="st132" d="M215.4,346.6l4.2-7.2l-2.5-4.3c-0.2-0.3-0.6-0.3-0.7,0l-6.7,11.6c-3.1,5.4,0.8,12.2,7,12.2
							c1,0,2-0.2,2.9-0.5C215.1,356.6,212.8,351.1,215.4,346.6z"/>
					</g>
				</g>
				<path class="st135" d="M262.9,328.7h-1.7V327c0-0.5-0.4-0.9-0.9-0.9c-0.5,0-0.9,0.4-0.9,0.9v1.7h-1.7c-0.5,0-0.9,0.4-0.9,0.9
					s0.4,0.9,0.9,0.9h1.7v1.7c0,0.5,0.4,0.9,0.9,0.9s0.9-0.4,0.9-0.9v-1.7h1.7c0.5,0,0.9-0.4,0.9-0.9S263.4,328.7,262.9,328.7z"/>
				<path class="st135" d="M226.6,321.6h-2.2v-2.2c0-0.5-0.4-0.9-0.9-0.9c-0.5,0-0.9,0.4-0.9,0.9v2.2h-2.2c-0.5,0-0.9,0.4-0.9,0.9
					s0.4,0.9,0.9,0.9h2.2v2.2c0,0.5,0.4,0.9,0.9,0.9c0.5,0,0.9-0.4,0.9-0.9v-2.2h2.2c0.5,0,0.9-0.4,0.9-0.9S227.1,321.6,226.6,321.6
					z"/>
				<g>
					<path class="st4" d="M235.1,342.2l4.8,13.8l5-13.8h2.4l-6.3,16.7h-2.2l-6.2-16.7H235.1z"/>
				</g>
				<g>
					<path class="st127" d="M274,333.4c-1.7,0-3.4,0.6-4.7,1.5c-0.9,1.3-2.4,3.8-2.4,5.6c0,4.4,3.6,8,8,8c1.7,0,4.3-1.5,5.6-2.4
						c0.9-1.3,1.5-2.9,1.5-4.7C282,336.9,278.5,333.4,274,333.4z"/>
					<path class="st136" d="M267.9,339.5c0-1.7,0.6-3.4,1.5-4.7c-2,1.4-3.3,3.8-3.3,6.5c0,4.4,3.6,8,8,8c2.7,0,5-1.3,6.5-3.3
						c-1.3,0.9-2.9,1.5-4.7,1.5C271.4,347.5,267.9,343.9,267.9,339.5L267.9,339.5z"/>
					<path class="st137" d="M257.3,339.8c-1.4,0-2.6,0.4-3.7,1.1c-0.7,1.1-2,3.2-2,4.6c0,3.7,3,6.6,6.6,6.6c1.4,0,3.5-1.3,4.6-2
						c0.7-1.1,1.1-2.3,1.1-3.7C263.9,342.8,261,339.8,257.3,339.8L257.3,339.8z"/>
					<path class="st138" d="M252.5,344.6c0-1.4,0.4-2.6,1.1-3.7c-1.8,1.2-2.9,3.2-2.9,5.5c0,3.7,3,6.6,6.6,6.6
						c2.3,0,4.3-1.2,5.5-2.9c-1.1,0.7-2.3,1.1-3.7,1.1C255.5,351.3,252.5,348.3,252.5,344.6z"/>
					<path class="st101" d="M268.9,351.4c-1.4,0-2.6,0.4-3.7,1.1c-0.7,1.1-2,3.2-2,4.6c0,3.7,3,6.6,6.6,6.6c1.4,0,3.5-1.3,4.6-2
						c0.7-1.1,1.1-2.3,1.1-3.7C275.6,354.4,272.6,351.4,268.9,351.4z"/>
					<path class="st102" d="M264.1,356.3c0-1.4,0.4-2.6,1.1-3.7c-1.8,1.2-2.9,3.2-2.9,5.5c0,3.7,3,6.6,6.6,6.6
						c2.3,0,4.3-1.2,5.5-2.9c-1.1,0.7-2.3,1.1-3.7,1.1C267.1,362.9,264.1,359.9,264.1,356.3L264.1,356.3z"/>
					<g>
						<path class="st139" d="M260.3,348.5l-2.2-5.8c0,0,0,0,0,0c-0.1-0.3-0.4-0.5-0.7-0.5c0,0,0,0,0,0c-0.3,0-0.6,0.2-0.7,0.5
							c0,0,0,0,0,0l-2.2,5.8c-0.1,0.3,0,0.7,0.4,0.9c0.3,0.1,0.7,0,0.9-0.4l0.4-1h2.6l0.4,1c0.1,0.3,0.4,0.4,0.6,0.4
							c0.1,0,0.2,0,0.2,0C260.2,349.3,260.4,348.9,260.3,348.5L260.3,348.5z M256.5,346.6l0.8-2.1l0.8,2.1H256.5z"/>
						<path class="st139" d="M267.6,361.6c-0.2,0-0.3-0.1-0.5-0.2c-0.1-0.1-0.2-0.3-0.2-0.5c0,0,0-2.1,0-2.9c0-0.7,0-2.9,0-2.9
							c0-0.2,0.1-0.4,0.2-0.5c0.1-0.1,0.3-0.2,0.5-0.2h1.6c1.8,0,3,1.4,3,3.5c0,2-1.2,3.5-2.9,3.5
							C268.8,361.6,267.6,361.6,267.6,361.6C267.6,361.6,267.6,361.6,267.6,361.6L267.6,361.6z M268.3,355.9c0,0.7,0,1.8,0,2.2
							c0,0.5,0,1.5,0,2.2c0.4,0,0.8,0,1,0c0.8,0,1.6-0.7,1.6-2.2c0-1.1-0.4-2.2-1.6-2.2L268.3,355.9L268.3,355.9z"/>
						<path class="st139" d="M272.1,345c-0.2,0-0.3-0.1-0.5-0.2c-0.1-0.1-0.2-0.3-0.2-0.5v-5.9c0-0.4,0.3-0.7,0.7-0.7h1.7
							c1.1,0,2,0.9,2,2c0,0.4-0.1,0.8-0.4,1.2c0.5,0.4,0.9,1.1,0.9,1.8c0,1.2-1,2.3-2.3,2.3C273.6,344.9,272.1,345,272.1,345
							C272.1,345,272.1,345,272.1,345L272.1,345z M272.7,341.8v1.8c0.5,0,1.1,0,1.3,0c0.5,0,0.9-0.4,0.9-0.9s-0.4-0.9-0.9-0.9
							C273.9,341.8,273.2,341.8,272.7,341.8z M272.7,339.1v1.4c0.4,0,0.8,0,1,0c0.4,0,0.7-0.3,0.7-0.7c0-0.4-0.3-0.7-0.7-0.7
							L272.7,339.1L272.7,339.1z"/>
						<path class="st139" d="M278.4,345.1c-0.4,0-0.7-0.3-0.7-0.7v-1.9c0-0.4,0.3-0.7,0.7-0.7s0.7,0.3,0.7,0.7v1.9
							C279,344.8,278.7,345.1,278.4,345.1z"/>
					</g>
				</g>
			</g>
		</g>
		<g>
			<g>
				<circle class="st99" cx="101.2" cy="346.6" r="61.1"/>
				<path class="st100" d="M101.2,408.1c-33.9,0-61.4-27.6-61.4-61.4s27.6-61.4,61.4-61.4s61.4,27.6,61.4,61.4
					S135.1,408.1,101.2,408.1z M101.2,285.8c-33.5,0-60.8,27.3-60.8,60.8c0,33.5,27.3,60.8,60.8,60.8c33.5,0,60.8-27.3,60.8-60.8
					C162,313.1,134.8,285.8,101.2,285.8z"/>
			</g>
			<g>
				<path class="st116" d="M89.8,385c0,0.1-0.1,0.2-0.2,0.4c-0.1,0.1-0.3,0.3-0.5,0.5c-0.3,0.2-0.5,0.5-0.8,0.7s-0.6,0.5-0.9,0.8
					l-0.9-1.1c0.3-0.2,0.6-0.5,0.9-0.8c0.3-0.3,0.6-0.5,0.9-0.8c0.3-0.3,0.5-0.5,0.6-0.8c0.1-0.3,0.2-0.6,0.2-1v-1.4h1.5v1.4
					c0,0.2,0,0.4,0,0.6c0,0.2,0.1,0.3,0.1,0.4c0.1,0.1,0.1,0.3,0.2,0.4c0.1,0.1,0.2,0.2,0.4,0.4c0.3,0.2,0.6,0.5,0.8,0.7
					c0.3,0.2,0.6,0.4,0.9,0.6l-0.8,1c-0.2-0.2-0.5-0.3-0.7-0.5s-0.5-0.4-0.8-0.6c-0.2-0.2-0.4-0.3-0.5-0.4
					C90,385.3,89.9,385.1,89.8,385L89.8,385z M88.3,387.9h7.1v4.1h-1.5v-2.9h-5.7V387.9z M95.4,387.4h-1.5v-6.3h1.5V387.4z"/>
				<path class="st116" d="M100.1,389.3c-0.5,0-0.9-0.1-1.3-0.2c-0.4-0.2-0.6-0.4-0.9-0.6c-0.2-0.3-0.4-0.6-0.5-1
					c-0.1-0.4-0.2-0.8-0.2-1.2V385c0-0.4,0.1-0.9,0.2-1.2c0.1-0.4,0.3-0.7,0.5-1c0.2-0.3,0.5-0.5,0.9-0.6c0.4-0.2,0.8-0.2,1.3-0.2
					c0.5,0,0.9,0.1,1.3,0.2c0.4,0.2,0.6,0.4,0.9,0.6c0.2,0.3,0.4,0.6,0.5,1c0.1,0.4,0.2,0.8,0.2,1.2v1.3c0,0.5-0.1,0.9-0.2,1.2
					c-0.1,0.4-0.3,0.7-0.5,1c-0.2,0.3-0.5,0.5-0.9,0.6C101,389.3,100.6,389.3,100.1,389.3z M100.1,383.1c-0.5,0-0.8,0.2-1.1,0.5
					c-0.2,0.3-0.3,0.8-0.3,1.5v0.9c0,0.7,0.1,1.2,0.3,1.5c0.2,0.3,0.6,0.5,1.1,0.5c0.5,0,0.8-0.2,1.1-0.5c0.2-0.3,0.3-0.8,0.3-1.5
					v-0.9c0-0.7-0.1-1.2-0.3-1.5C100.9,383.3,100.6,383.1,100.1,383.1z M105.8,391.9h-1.5v-10.8h1.5V391.9z"/>
				<path class="st116" d="M110.3,385c0,0.1-0.1,0.2-0.2,0.3c-0.1,0.1-0.3,0.3-0.5,0.5c-0.3,0.2-0.5,0.5-0.8,0.7
					c-0.3,0.2-0.6,0.5-0.9,0.7l-0.9-1.1c0.3-0.2,0.6-0.5,0.9-0.7c0.3-0.2,0.6-0.5,0.8-0.7c0.2-0.2,0.4-0.5,0.6-0.8s0.2-0.6,0.2-1
					v-1.4h1.5v1.4c0,0.2,0,0.4,0,0.5c0,0.2,0.1,0.3,0.1,0.4s0.1,0.3,0.2,0.4c0.1,0.1,0.2,0.2,0.4,0.4c0.2,0.2,0.5,0.4,0.8,0.6
					c0.3,0.2,0.6,0.4,0.9,0.6l-0.8,1c-0.3-0.2-0.5-0.4-0.8-0.5c-0.2-0.2-0.5-0.4-0.7-0.5c-0.2-0.2-0.4-0.3-0.5-0.4
					C110.5,385.2,110.4,385.1,110.3,385L110.3,385z M109.1,387.6h6.8v4.2h-6.8V387.6z M110.6,390.7h3.9v-1.8h-3.9V390.7z
					 M114.5,384.3h-1.9v-1.2h1.9v-2h1.5v6h-1.5V384.3z"/>
				<path class="st116" d="M127.2,387.3v1.2h-2.4v3.4h-1.4v-3.4h-2.2v3.4h-1.4v-3.4h-2.4v-1.2H127.2z M122.3,386.4
					c-0.5,0-1,0-1.5-0.2c-0.4-0.1-0.8-0.2-1.2-0.4c-0.3-0.2-0.6-0.4-0.8-0.7c-0.2-0.3-0.3-0.6-0.3-1v-0.5c0-0.4,0.1-0.7,0.3-1
					c0.2-0.3,0.4-0.5,0.8-0.7c0.3-0.2,0.7-0.3,1.2-0.5c0.4-0.1,0.9-0.2,1.5-0.2c0.5,0,1,0.1,1.5,0.2c0.4,0.1,0.8,0.3,1.2,0.5
					c0.3,0.2,0.6,0.4,0.8,0.7s0.3,0.6,0.3,1v0.5c0,0.4-0.1,0.7-0.3,1s-0.4,0.5-0.8,0.7c-0.3,0.2-0.7,0.3-1.2,0.4
					C123.3,386.4,122.8,386.4,122.3,386.4z M122.3,382.6c-0.3,0-0.6,0-0.9,0.1c-0.3,0.1-0.5,0.1-0.7,0.2s-0.4,0.2-0.5,0.4
					c-0.1,0.1-0.2,0.3-0.2,0.5v0.3c0,0.2,0.1,0.3,0.2,0.5c0.1,0.1,0.3,0.3,0.5,0.4c0.2,0.1,0.4,0.2,0.7,0.2c0.3,0.1,0.6,0.1,0.9,0.1
					s0.6,0,0.9-0.1c0.3-0.1,0.5-0.1,0.7-0.2c0.2-0.1,0.4-0.2,0.5-0.4c0.1-0.1,0.2-0.3,0.2-0.5v-0.3c0-0.2-0.1-0.3-0.2-0.5
					c-0.1-0.1-0.3-0.3-0.5-0.4c-0.2-0.1-0.4-0.2-0.7-0.2C122.9,382.6,122.6,382.6,122.3,382.6z"/>
			</g>
			<g id="Flat_00000177486093284565662080000008928006658582066856_">
				<path class="st117" d="M143.4,327.3c-0.4-0.4-0.9-0.8-1.5-1c-1-0.5-1.7-1.5-1.5-2.7c0.2-1.6-0.3-3.2-1.4-4.3
					c-1.1-1.1-2.7-1.6-4.3-1.4c-1.1,0.2-2.2-0.5-2.7-1.5c-0.2-0.6-0.6-1.1-1-1.5c-2-2-5.1-2-7.1,0c0,0,0,0,0,0l-10.6,10.6l19.4,19.4
					l10.6-10.6C145.3,332.4,145.3,329.3,143.4,327.3C143.4,327.3,143.4,327.3,143.4,327.3z"/>
				<path class="st117" d="M125.4,313.3c-0.6,0-1.2,0.2-1.8,0.5c-1,0.5-2.3,0.3-3-0.6c-1-1.2-2.6-1.8-4.2-1.7c-1.6,0.1-3,1-3.8,2.3
					c-0.6,1-1.8,1.4-2.9,1c-0.6-0.2-1.2-0.2-1.8-0.2c-2.8,0.2-4.8,2.6-4.6,5.4c0,0,0,0,0,0l1.2,14.9l27.4-2.3l-1.2-14.9
					C130.6,315.1,128.2,313.1,125.4,313.3C125.4,313.3,125.4,313.3,125.4,313.3z"/>
				<path class="st118" d="M142.9,341.4c0,2.3-0.3,4.7-1,6.9v0c-0.3,1.2-0.8,2.3-1.3,3.4v0c-4,8.5-12.6,14-22,14
					c-0.7,0-1.4,0-2.1-0.1c-12.4-1-22.2-11.5-22.2-24.2c0-12.7,9.8-23.2,22.3-24.2c0.7-0.1,1.3-0.1,2-0.1c6.3,0,12.4,2.5,17,6.9
					c0.4,0.4,0.8,0.9,1.2,1.3c1.3,1.5,2.4,3.1,3.4,4.9c0.3,0.6,0.6,1.1,0.8,1.7c0.8,1.9,1.3,3.9,1.6,5.9c0.1,0.8,0.2,1.6,0.2,2.4
					C142.9,340.7,142.9,341.1,142.9,341.4L142.9,341.4z"/>
				<path class="st119" d="M134.7,349.2l8.2-8.9c0-0.8-0.1-1.6-0.2-2.4c-0.1,0-0.1,0.1-0.2,0.1l-3.1,3.3l0.3-2.7
					c0-0.5-0.3-0.9-0.8-1c-0.5,0-0.9,0.3-1,0.8l0,0l-0.5,5.1l-2.5,2.8c0.1-2.7,0.1-5.3-0.1-8l6.2-6.3c-0.2-0.6-0.5-1.2-0.8-1.7
					l-5.6,5.7c-0.3-2.4-0.7-4.7-1.3-7l3.6-3.6c-0.4-0.5-0.8-0.9-1.2-1.3l-2.9,2.9c-0.8-2.5-1.9-4.9-3.2-7.2c0,0,0.6,2.5,1.1,6.5
					l-16.1-6.4c-0.5-0.2-1,0-1.2,0.5c-0.2,0.5,0,1,0.5,1.2l6.8,2.7l-2.8,0.5c-0.5,0.1-0.8,0.6-0.7,1c0.1,0.5,0.6,0.8,1,0.7l5.6-1
					c0,0,6.8,2.7,7,2.7c0,0,0.1,0,0.1,0c0.3,2.9,0.5,5.9,0.5,8.9l-15.1-5.5c-0.5-0.2-1,0.1-1.2,0.5s0.1,1,0.5,1.2c0,0,0,0,0,0l7,2.5
					l-3.7,0.6c-0.5,0.1-0.8,0.5-0.8,1c0.1,0.4,0.4,0.8,0.9,0.8c0,0,0.1,0,0.1,0l7-1c0,0,5.1,1.8,5.2,1.8c0,2.7-0.2,5.5-0.6,8.2
					l-4.3-1.7l-2.7-5.8c-0.2-0.4-0.8-0.6-1.2-0.4c-0.4,0.2-0.6,0.7-0.4,1.2l1.9,4.1l-7.8-3c-0.5-0.2-1,0-1.2,0.5
					c-0.2,0.5,0,1,0.5,1.2c0,0,0,0,0,0l14.7,5.7c0.1,0,0.1,0,0.2,0.1c-0.4,2.5-0.9,5-1.7,7.5l-1.3-0.6l-1.8-4.8
					c-0.2-0.5-0.7-0.7-1.2-0.5s-0.7,0.7-0.5,1.2l1.2,3.3l-10.7-4.4c-0.5-0.2-1,0-1.2,0.5s0,1,0.5,1.2c0,0,0,0,0,0l7.3,3l-2.7,0.7
					c-0.5,0.1-0.8,0.6-0.6,1.1c0.1,0.5,0.6,0.8,1.1,0.6l4.9-1.3l4.4,1.8c0,0,0,0,0.1,0c-0.7,2.2-1.6,4.4-2.7,6.6
					c2.6-0.8,5-2,7.1-3.5c0.2-1.1,0.5-2.3,0.7-3.6l7.1-5.8v0c0.5-1.1,0.9-2.2,1.3-3.4l-7.9,6.5C134.2,353,134.5,351.2,134.7,349.2
					L134.7,349.2z"/>
				<path class="st120" d="M114.1,353.3c0,3,2.8,3.7,2.8,7.4c0,2.6-1,3.2-1.9,4.7c-8.1,0-22.4-8.2-22.4-24c0-11.8,7.9-19,13.5-21.7
					c0.5-0.2,1-0.5,1.5-0.7c2.7-0.9,1.2-5.6,1.2-5.6c4.5,0,7.1,1.9,5.8,6.2c-0.2,0.7-0.5,1.4-0.5,2.5c0,1,0.2,1.8,0.5,2.4
					c0.9,1.7,2.3,2.5,2.3,5.4c0,1.8-0.9,3.2-1,3.2c-0.8,1.2-1.8,2.1-1.8,4.5c0,0.8,0.1,1.6,0.5,2.4c0.2,0.4,0.4,0.7,1,1.5
					c0.6,1,1.4,1.9,1.4,3.8c0,3-1.7,3.7-2.5,5.7l0,0C114.3,351.4,114.1,351.6,114.1,353.3L114.1,353.3z"/>
				<g>
					<path class="st121" d="M116.8,330.9c0,0.2-0.1,0.4-0.1,0.6c-0.2,0.5-0.4,1-0.7,1.5c-1.5,0.5-3.4,1.1-4.4,1.5
						c-3.7,1.4-9.7,4.7-13.5,8.1l5.2,0.6c0.5,0.1,0.8,0.5,0.8,1c-0.1,0.5-0.4,0.8-0.9,0.8c0,0-6.8-0.8-6.8-0.8c-1,1.1-2,2.2-2.9,3.4
						c-0.2-0.8-0.4-1.5-0.5-2.3c1.5-1.8,4.2-4.6,7.4-7c0,0,2.3-6.4,2.3-6.4c0.2-0.5,0.7-0.7,1.2-0.5s0.7,0.7,0.5,1.2c0,0,0,0,0,0
						l-1.6,4.2c3.3-2,6.8-3.6,10.4-4.8C113.9,331.8,115.8,331.2,116.8,330.9L116.8,330.9z"/>
					<path class="st121" d="M110.3,330.4c-0.1,0.3-0.5,0.5-0.8,0.5c-0.1,0-0.3,0-0.4-0.1l-5-2.2c-4.5,2.3-8.8,5.9-11,8.1
						c0.2-1.1,0.5-2.2,0.9-3.3c3.7-3.2,8.8-7.5,20.1-10.7c0,0.6,0.2,1.2,0.4,1.7c-3,0.8-6,2-8.3,3.1l3.6,1.6
						C110.3,329.4,110.5,329.9,110.3,330.4C110.3,330.4,110.3,330.4,110.3,330.4L110.3,330.4z"/>
					<path class="st121" d="M113.8,346.9c-0.1,0.4-0.4,0.8-0.9,0.8c0,0-6-0.9-6-0.9c-1.6,1.2-3.1,2.5-4.6,3.9l6.5,0.8
						c0.5,0.1,0.8,0.5,0.8,1c-0.1,0.5-0.4,0.8-0.9,0.8c0,0-7.9-0.9-7.9-1c-1,1.1-2.2,2.6-3.1,3.7c-0.4-0.5-0.8-1-1.1-1.5
						c3-3.9,8-9.2,15.9-13.5c0.4-0.2,1.3-0.7,2-1.1c0,0,0.9,1.5,1,1.5c-0.8,0.4-5.2,2.9-6.5,3.8l4,0.6
						C113.5,346,113.8,346.4,113.8,346.9L113.8,346.9z"/>
					<path class="st121" d="M114.1,353.4c-0.5,0.4-1.1,0.8-1.3,0.9c-3.3,2.2-6.4,4.8-8.8,7.4c-0.5-0.3-1-0.7-1.5-1
						c2.7-3,6.1-5.9,9.8-8.3c0.4-0.3,1.6-1.1,2.1-1.5C114.1,351.6,114.1,353.3,114.1,353.4L114.1,353.4z"/>
				</g>
			</g>
			<g>
				<path class="st122" d="M86.4,345.2l3.8-1.6c3.4-1.4,7.1-2.1,10.7-2.1c1.4,0,2.7,0.5,3.9,1.3c1.1,0.8,2.5,1.3,3.9,1.3h1.3
					l-3.1,4.3c-0.8,1.1-1.2,2.5-1.2,3.8c0,2.8-1.8,5.4-4.5,6.3c-3.8,1.3-7.9,1.9-11.9,1.9h-1L86.4,345.2z"/>
				<path class="st123" d="M104.8,342.7c-1.1-0.8-2.5-1.3-3.9-1.3c-3.7,0-7.3,0.7-10.7,2.1l-3.8,1.6l1.5,12.6
					c3.9,0,7.8-0.7,11.5-1.9c2.7-0.9,4.5-3.4,4.5-6.3c0-1.4,0.4-2.7,1.2-3.8l1.5-2C106,343.5,105.4,343.2,104.8,342.7z"/>
				<path class="st124" d="M98,341.6l2.8-4.5c2.1-3.3,3.2-7.2,3.2-11.1l-2.4,1.6c-1.8,1.2-4,1.9-6.2,1.9c-0.6,0-1.2-0.1-1.8-0.2
					l-4.9-0.8c-3-0.5-6-0.7-9-0.7c-4.8,0-9.4,1.9-12.8,5.3c-1.5,1.6-3.6,2.4-5.8,2.4c0,3.7,2,7.1,5.3,8.9l1,0.6l6.9,0.9
					C82.4,346.9,90.7,345.4,98,341.6z"/>
				<path class="st122" d="M98,341.6l2.8-4.5c2.1-3.3,3.2-7.2,3.2-11.1l-2.4,1.6c-1.8,1.2-4,1.9-6.2,1.9c-0.6,0-1.2-0.1-1.8-0.2
					l-4.9-0.8c-3-0.5-6-0.7-9-0.7c-4.8,0-9.4,1.9-12.8,5.3c-0.9,0.9-2,1.6-3.2,2c0.3,3.4,2.2,6.4,5.2,8c0.7,0.4,1.4,0.6,2.2,0.7
					l5.8,0.8C84,345.5,91.3,344.5,98,341.6L98,341.6z"/>
				<g>
					<path class="st124" d="M99.6,349.6l-1.5,0.8l1.3,2.3c1,1.7,1.6,3.5,1.9,5.4l0,0.2c0.3-0.1,0.5-0.2,0.8-0.3
						c0.3-0.1,0.5-0.3,0.8-0.5c-0.3-2-1-3.9-2-5.7L99.6,349.6z"/>
					<path class="st124" d="M98.3,356.2l-1.3-2.3l-1.5,0.8l1.3,2.3c0.4,0.7,0.8,1.5,1.1,2.3c0.6-0.1,1.1-0.3,1.7-0.4l0-0.1
						C99.2,357.9,98.8,357,98.3,356.2z"/>
					<path class="st124" d="M86,329.5c1.1,1.8,1.7,3.8,1.7,5.9h1.7c0-2.4-0.7-4.8-2-6.8l-0.2-0.4c-0.8-0.1-1.5-0.2-2.3-0.3l0.5,0.6
						L86,329.5z"/>
					<path class="st124" d="M70.5,331.6v-0.7l0.1-0.6c-0.6,0.4-1.2,0.8-1.8,1.2v0.2"/>
					<path class="st124" d="M70.6,339.3L70.6,339.3l1.5-0.8"/>
					<path class="st124" d="M91.6,329.6c1.3,2.3,2,4.9,2,7.6h1.7c0-2.8-0.7-5.5-2-7.9l-2.2-0.4L91.6,329.6z"/>
				</g>
				<path class="st122" d="M82.5,343.2H79c-3.4,0-6.7,0.5-9.9,1.4c-0.8,0.2-1.5,0.3-2.3,0.3c-2.5,0-4.9,1.1-6.5,3l-1.7,2.1l4.3,6
					c4.3,5.9,11.2,9.4,18.5,9.4h1.2"/>
				<path class="st123" d="M69,344.6c-0.8,0.2-1.5,0.3-2.3,0.3c-2.5,0-4.9,1.1-6.5,3l3.4,4.7c4.3,5.9,11.2,9.4,18.5,9.4h0.3v-18.9
					H79C75.6,343.2,72.3,343.6,69,344.6L69,344.6z"/>
				<ellipse class="st125" cx="82.5" cy="354.3" rx="6.9" ry="11.2"/>
				<path class="st126" d="M82.5,343.2c-3.8,0-6.9,5-6.9,11.2c0,2.3,0.5,4.7,1.4,6.8c0.9,1.1,2.3,1.7,3.7,1.8c3.8,0,6.9-5,6.9-11.2
					c0-2.3-0.5-4.7-1.4-6.8C85.3,343.9,83.9,343.2,82.5,343.2L82.5,343.2z"/>
				<path class="st124" d="M71.3,354.3h-1.7c0,3,0.5,6,1.6,8.8c0.8,0.4,1.6,0.7,2.4,1l-0.5-0.8C71.9,360.5,71.3,357.4,71.3,354.3
					L71.3,354.3z"/>
				<path class="st124" d="M67,355.2h-1.7c0,1.4,0.1,2.8,0.4,4.2c0.7,0.6,1.4,1.2,2.2,1.8l-0.3-1C67.2,358.5,67,356.8,67,355.2z"/>
			</g>
			<path class="st127" d="M114.4,339.9c-2,0-3.8,0.6-5.3,1.6c-0.3,0.2-0.8,0.2-1.1,0c-1.5-1-3.4-1.6-5.3-1.6
				c-5.6,0-10.2,4.8-10.2,10.7c0,8.8,3.9,20.3,14.1,19.3c0,0,0.8-0.1,1.6-0.5c0.3-0.1,0.6-0.1,0.9,0c0.8,0.4,1.6,0.5,1.6,0.5
				c10.2,1,14.1-10.5,14.1-19.3C124.6,344.7,120,339.9,114.4,339.9L114.4,339.9z"/>
			<path class="st128" d="M114.4,339.9c-0.5,0-1.1,0-1.6,0.1c2.6,2.8,4.2,6.6,4.4,10.7c0.4,8.4-7.5,15.6-15.6,15.6
				c-1.7,0-3.3-0.3-4.9-0.8c2.2,2.9,5.4,4.8,9.7,4.3c0,0,0.8-0.1,1.6-0.5c0.3-0.1,0.6-0.1,0.9,0c0.8,0.4,1.6,0.5,1.6,0.5
				c10.2,1,14.1-10.5,14.1-19.3C124.6,344.7,120,339.9,114.4,339.9z"/>
			<g>
				<path class="st129" d="M114.1,340.6c0.6-0.7,1.2-1.5,1.5-2.3c0.6-1.3,0.8-2.8,0.5-4.2c0-0.2-0.2-0.3-0.3-0.3
					c-1.4-0.3-2.8-0.1-4.1,0.5c-1.1,0.5-2.1,1.2-2.8,2.1c-1.1,1.5-1.8,3.4-1.6,5.3c0,0.3,0,1,0.5,1.1c0.4,0.1,0.8,0.1,1.2,0.1
					C110.8,342.8,112.8,342,114.1,340.6L114.1,340.6z"/>
				<path class="st130" d="M116.1,334.1c0.3,1.4,0.1,2.9-0.5,4.2c-0.4,0.8-0.9,1.6-1.5,2.3c-1.3,1.4-3.3,2.2-5.2,2.2
					c-0.4,0-0.8,0-1.2-0.1c-0.2,0-0.3-0.1-0.3-0.3c0-0.1-0.1-0.2-0.1-0.3c0,0,0,0,0,0c1.8-0.1,3.7-0.9,5-2.2
					c0.6-0.7,1.2-1.5,1.5-2.3c0.6-1.2,0.8-2.6,0.5-3.9c0.5,0,0.9,0,1.4,0.1C116,333.8,116.1,333.9,116.1,334.1L116.1,334.1z"/>
			</g>
		</g>
	</g>
	<g>
		<g>
			<g>
				<circle class="st99" cx="101.2" cy="91.4" r="61.1"/>
				<path class="st100" d="M101.2,152.8c-33.9,0-61.4-27.6-61.4-61.4s27.6-61.4,61.4-61.4s61.4,27.6,61.4,61.4
					S135.1,152.8,101.2,152.8z M101.2,30.6c-33.5,0-60.8,27.3-60.8,60.8c0,33.5,27.3,60.8,60.8,60.8c33.5,0,60.8-27.3,60.8-60.8
					C162,57.8,134.8,30.6,101.2,30.6z"/>
			</g>
			<g>
				<path class="st116" d="M86.2,127.9h5v1.3h-3.6v2.8c0.4,0,0.8,0,1.1,0c0.4,0,0.7,0,1.1,0c0.3,0,0.7,0,1-0.1
					c0.3,0,0.7-0.1,1.1-0.1l0.1,1.2c-0.3,0-0.7,0.1-1.1,0.1c-0.4,0-0.8,0-1.3,0.1c-0.5,0-1,0-1.6,0c-0.6,0-1.2,0-2,0V127.9z
					 M89.1,136.7h5.5v1.2h-7v-3.6h1.5V136.7z M94.3,129.9h1.4v1.3h-1.4v3.7h-1.5v-7.7h1.5V129.9z"/>
				<path class="st116" d="M100.7,127.8v5.1h-4.3v-5.1h1.4v1.5h1.6v-1.5H100.7z M99.3,131.8v-1.3h-1.6v1.3H99.3z M98,134.1h7.2v4.1
					h-1.5v-2.9H98V134.1z M102.9,129.7h0.9v-2.4h1.4v6.3h-1.4V131h-0.9v2.6h-1.4v-6.1h1.4V129.7z"/>
				<path class="st116" d="M107,127.7h5.6v1.2h-2v0.4c0,0.1,0,0.3,0,0.4c0,0.1,0.1,0.2,0.1,0.3c0.1,0.1,0.1,0.2,0.2,0.3
					c0.1,0.1,0.2,0.2,0.4,0.3c0.2,0.2,0.5,0.3,0.7,0.5c0.3,0.2,0.5,0.3,0.8,0.5l-0.7,1c-0.2-0.2-0.5-0.3-0.7-0.5
					c-0.2-0.2-0.5-0.3-0.7-0.5c-0.5-0.3-0.8-0.5-0.8-0.7h0c-0.1,0.1-0.3,0.4-0.9,0.8c-0.2,0.2-0.5,0.4-0.8,0.6
					c-0.3,0.2-0.6,0.4-0.9,0.6l-0.8-1.1c0.4-0.2,0.7-0.5,1.1-0.7c0.3-0.2,0.6-0.5,0.9-0.7c0.2-0.2,0.4-0.4,0.5-0.5
					c0.1-0.2,0.1-0.4,0.1-0.7v-0.4H107V127.7z M115.3,133.1v3.1h-5.3v0.8h5.7v1.2h-7.1v-3.1h5.3v-0.8h-5.4v-1.2H115.3z M115.3,132.6
					h-1.5v-5.3h1.5V132.6z"/>
			</g>
			<g>
				<path class="st140" d="M88,83.8c-9.9,0-17.8,1.6-17.8,3.7v3h0c0.2,2,8.1,3.6,17.8,3.6c9.7,0,17.7-1.6,17.8-3.6h0v-3
					C105.9,85.5,97.9,83.8,88,83.8z"/>
				<path class="st141" d="M88,50.8c-9.4,0-17,1.5-17,3.3v34c0,1.8,7.6,3.3,17,3.3s17-1.5,17-3.3v-34C105.1,52.3,97.4,50.8,88,50.8z
					"/>
				<g>
					<path id="Path_00000166675944094999723740000003245035786723342481_" class="st142" d="M98,79.4c0,2.9-2.1,5.4-5,5.8
						c-3.5,0.4-7.1-0.3-10.2-2l0,0c-0.7,0.2-1.4,0.1-1.9-0.3c-0.6-0.4-0.9-1-0.9-1.7v-0.8c-0.5-0.8-0.8-1.6-0.9-2.5
						c-0.1-1.2,0.1-2.4,0.6-3.5c1.4-3.1,3.8-9.2,4.4-10.7c0.1-0.2,0.3-0.4,0.5-0.4l4.2-1.2c0.3-0.1,0.5,0,0.7,0.2l2,2
						c0.3,0.3,0.3,0.7,0,1l-1.5,1.5l0,0c0.1,0.1,0.3,0.1,0.5,0.2c0.5,0.2,0.8,0.7,0.8,1.2c0,0.1,0,0.3-0.1,0.4
						c-0.2,0.7-0.9,1-1.6,0.8c-0.7-0.3-1.5-0.4-2.3-0.4c-0.1,0-0.1,0-0.2,0c-0.4,0-0.7-0.2-1-0.5c-0.1,0.5-0.1,1.1,0,1.7
						c0,0.3,0.1,0.7,0.2,1c0.5,1.3,0.7,2.8,0.6,4.2l0,0c0.4-0.5,0.9-0.9,1.4-1.2c2.2-1.1,4.8-1,6.9,0.3c1.5,0.9,2.5,2.5,2.7,4.3
						C98,79,98,79.2,98,79.4L98,79.4z"/>
					<path id="Path_00000096025781979382385400000003314271362037124010_" class="st143" d="M90.1,82.4c-1.2,0.1-2.4-0.2-3.5-0.7
						c-0.3-0.2-0.4-0.7-0.2-1c0.2-0.3,0.7-0.4,1-0.2c0.1,0,2,1.2,6.5-0.1c0.2-0.1,0.5,0,0.7,0.2c0.2,0.2,0.3,0.4,0.2,0.7
						s-0.3,0.4-0.5,0.5"/>
					<g>
						<path id="Path_00000028318236134425423510000015700541845184987780_" class="st144" d="M76,76.8h-2.1c-0.4,0-0.7-0.3-0.7-0.7
							c0-0.4,0.3-0.7,0.7-0.7H76c0.4,0,0.7,0.3,0.7,0.7C76.7,76.5,76.4,76.8,76,76.8z"/>
						<path id="Path_00000115507386806802765600000004577523419072698003_" class="st144" d="M102.2,76.8h-2.1
							c-0.4,0-0.7-0.3-0.7-0.7c0-0.4,0.3-0.7,0.7-0.7h2.1c0.4,0,0.7,0.3,0.7,0.7C102.9,76.5,102.6,76.8,102.2,76.8z"/>
						<path id="Path_00000008848356768732054000000010226776703871932331_" class="st144" d="M98.5,72.2c-0.3,0-0.6-0.2-0.7-0.5
							c-0.1-0.3,0.1-0.6,0.3-0.8l1.8-1.1c0.2-0.1,0.5-0.1,0.7,0c0.2,0.1,0.4,0.4,0.4,0.6s-0.1,0.5-0.4,0.6l-1.8,1.1
							C98.7,72.2,98.6,72.2,98.5,72.2L98.5,72.2z"/>
						<path id="Path_00000034781878294856467400000014582338457999646873_" class="st144" d="M77.6,72.2c-0.1,0-0.2,0-0.4-0.1
							l-1.8-1.1c-0.2-0.1-0.4-0.4-0.4-0.6c0-0.3,0.1-0.5,0.4-0.6c0.2-0.1,0.5-0.1,0.7,0l1.8,1.1c0.3,0.2,0.4,0.5,0.3,0.8
							C78.2,72,77.9,72.2,77.6,72.2z"/>
					</g>
				</g>
				<path class="st145" d="M88,48.5c-9.9,0-17.8,1.6-17.8,3.7v3h0c0.2,2,8.1,3.6,17.8,3.6c9.7,0,17.7-1.6,17.8-3.6h0v-3
					C105.9,50.2,97.9,48.5,88,48.5z"/>
				<ellipse class="st146" cx="88" cy="51.8" rx="17.8" ry="3.3"/>
			</g>
			<g>
				<path id="Path_00000126316119051633912970000013377894049020188837_" class="st60" d="M100,91.1c-0.4,0-0.8-0.3-0.8-0.8
					c0-0.4,0.3-0.8,0.8-0.8c1.3,0,2.3-1,2.3-2.3c0-0.4,0.3-0.8,0.8-0.8c0.4,0,0.8,0.3,0.8,0.8C103.8,89.3,102.1,91.1,100,91.1z"/>
				<g>
					<path class="st147" d="M136.8,96.2c0-9.2-10.4-16.7-23.1-16.7c-4.3,0-8.3,0.9-11.8,2.3c-3.9,1.7-7.9,2.8-11.9,4.1
						c-5.8,1.9-9.7,5.8-9.7,10.3v7.7c0,4.5,4,8.3,9.7,10.3c4,1.3,8,2.4,11.9,4.1c3.5,1.5,7.5,2.3,11.8,2.3
						c12.8,0,23.1-7.5,23.1-16.7V96.2z"/>
					<path class="st148" d="M113.6,79.5c-3.9,0-7.6,0.7-10.8,1.9c-3.8,1.5-7.7,3.1-11.6,4.1c-6.5,1.7-11,5.9-11,10.7
						c0,4.8,4.5,8.9,11,10.7c4,1.1,7.8,2.7,11.6,4.1c3.2,1.2,6.9,1.9,10.8,1.9c12.8,0,23.1-7.5,23.1-16.7
						C136.8,87,126.4,79.5,113.6,79.5z"/>
					<path class="st149" d="M134,98c0.3-1.4-0.7-2.8-2.1-3c-0.2,0-0.3,0-0.5,0h-7.6c-5.1,0-4.9,1.9-4.9,2.6c0,0.6,0.2,1.2,0.7,1.7
						c1.7,1.7,2.4,3.4,2.7,6.5c0.2,1.7,2,2.7,3.5,1.9C130.3,105.3,133.3,101.9,134,98z"/>
					<path class="st149" d="M113.6,87c1.7,1.4,3.6,2.7,5.6,3.6c4.2,2.1,10.2,1.7,10.2,1.7c1.9,0,2.9-2.3,1.6-3.7
						c-3.2-3.5-8.6-5.9-14.8-6.4C111.1,82.1,111.1,84.7,113.6,87z"/>
					<path class="st149" d="M116.4,97.5c0-0.8,0.2-1.5,0.6-2.2c0.7-1.2,0.2-2.8-1-3.5c-1.8-1.1-3.4-2.3-5-3.6
						c-0.1-0.1-0.4-0.3-0.7-0.6c-2.8-2.7-6.9-3.5-10.5-2.2c-3.3,0.9-3.2,4.1-1.7,5.5c4.1,3.9,4.9,10.2,5.1,14.3
						c0,2.6,1.9,3.9,2.6,4.1c2.5,0.7,5.1,1.1,7.7,1c0.4,0,0.7,0,1.1,0c3.2-0.1,5.6-3.1,4.8-6.3c-0.3-1.4-0.8-2.2-1.7-3.1
						C116.9,100.1,116.4,98.8,116.4,97.5z"/>
					<path class="st150" d="M132.5,97.4c-0.6,0-1.1,0.4-1.2,0.9l0,0.1c0,0,0,0,0,0c0,0,0,0,0,0.1c-0.8,2.4-2.9,4.7-5.9,6.4
						c-0.6,0.3-0.8,1.1-0.5,1.7c0.3,0.6,1.1,0.8,1.7,0.5c3.5-2,6-4.7,7.1-7.9c0,0,0,0,0-0.1c0,0,0,0,0-0.1l0,0l0,0c0,0,0-0.1,0-0.1
						v0c0,0,0,0,0,0c0.2-0.7-0.2-1.4-0.9-1.6C132.8,97.4,132.7,97.4,132.5,97.4z"/>
					<g>
						<path class="st150" d="M100.3,102.7c0-3.5-3-12.1-7.5-12.1c-4.5,0-10.1,4.4-8.9,6.4c1.9,3.2,4.9,3.8,8.9,6.2
							C97.4,106,100.3,106.2,100.3,102.7z"/>
						<path class="st151" d="M108.5,89.8c0-1.4-1.7-2.6-3.9-2.6c-2.1,0-3.9,1.2-3.9,2.6c0,1.4,1.7,2.6,3.9,2.6
							C106.8,92.4,108.5,91.2,108.5,89.8z"/>
						<path class="st151" d="M113.6,93.7c0,0.7-0.6,1.3-1.3,1.3c-0.7,0-1.3-0.6-1.3-1.3c0-0.7,0.6-1.3,1.3-1.3
							C113,92.4,113.6,93,113.6,93.7z"/>
						<path class="st149" d="M92.7,93.7c0,0.7-0.6,1.3-1.3,1.3s-1.3-0.6-1.3-1.3c0-0.7,0.6-1.3,1.3-1.3S92.7,93,92.7,93.7z"/>
						<path class="st151" d="M118.8,86c0,0.7-0.6,1.3-1.3,1.3c-0.7,0-1.3-0.6-1.3-1.3c0-0.7,0.6-1.3,1.3-1.3
							C118.2,84.7,118.8,85.3,118.8,86z"/>
						<path class="st151" d="M123.9,98.8c0,0.7-0.6,1.3-1.3,1.3c-0.7,0-1.3-0.6-1.3-1.3c0-0.7,0.6-1.3,1.3-1.3
							C123.3,97.5,123.9,98.1,123.9,98.8z"/>
					</g>
				</g>
			</g>
		</g>
		<g>
			<g>
				<circle class="st99" cx="238.8" cy="91.4" r="61.1"/>
				<path class="st100" d="M238.8,152.8c-33.9,0-61.4-27.6-61.4-61.4s27.6-61.4,61.4-61.4s61.4,27.6,61.4,61.4
					S272.7,152.8,238.8,152.8z M238.8,30.6c-33.5,0-60.8,27.3-60.8,60.8c0,33.5,27.3,60.8,60.8,60.8c33.5,0,60.8-27.3,60.8-60.8
					C299.6,57.8,272.3,30.6,238.8,30.6z"/>
			</g>
			<g>
				<path class="st101" d="M211.3,69.7h29.9v41.5h-29.9V69.7z"/>
				<path class="st102" d="M231.7,69.7h8.8v41.5h-8.8V69.7z"/>
				<path class="st102" d="M211.3,69.7l14.9-7.3l14.9,7.3"/>
				<path class="st102" d="M226.2,63.9c-0.4,0-0.8-0.4-0.8-0.8v-4c0-0.4,0.4-0.8,0.8-0.8c0.4,0,0.8,0.4,0.8,0.8v4
					C227,63.6,226.7,63.9,226.2,63.9z"/>
				<g>
					<path class="st4" d="M230.4,85.6c0,0.3-0.3,0.6-0.6,0.6h-15.6c-0.3,0-0.6-0.3-0.6-0.6c0-0.3,0.3-0.6,0.6-0.6h15.6
						C230.1,85,230.4,85.2,230.4,85.6z"/>
					<path class="st4" d="M230.4,76.2c0,0.3-0.3,0.6-0.6,0.6h-15.6c-0.3,0-0.6-0.3-0.6-0.6c0-0.3,0.3-0.6,0.6-0.6h15.6
						C230.1,75.6,230.4,75.9,230.4,76.2z"/>
				</g>
				<path class="st103" d="M278.3,100.3c-0.4,2.2-1.9,4.1-4.1,5c0,0,0,0-0.1,0c-1,2.2-2.8,4.1-5.2,5.1c-2.3,0.9-4.8,0.9-7,0.1
					c-1.3-0.5-2.4-1.2-3.4-2.2c-0.9-0.9-1.6-2-2.1-3.2c-2-4.9,0.4-10.5,5.2-12.5c0.1,0,0.2-0.1,0.3-0.1c2.3-0.8,4.8-0.7,6.9,0.2
					c0,0,0,0,0.1,0c1.1-0.4,2.2-0.6,3.3-0.5c1.1,0.1,2.2,0.5,3.1,1.2c1.7-0.3,3.5,0.6,4.2,2.3C280.3,97.4,279.7,99.3,278.3,100.3z"
					/>
				<g>
					<path class="st104" d="M262,92.6v17.3c0,0.2,0,0.4-0.1,0.7c-1.3-0.5-2.4-1.2-3.4-2.2c-0.9-0.9-1.6-2-2.1-3.2
						c-2-4.9,0.4-10.5,5.2-12.5C261.8,92.7,261.9,92.7,262,92.6z"/>
					<path class="st104" d="M267.1,105.2c-1.5,1.5-3.4,2.6-5.5,3c-1,0.2-2,0.3-3,0.2c-0.9-0.9-1.6-2-2.1-3.2
						c-2-4.9,0.4-10.5,5.2-12.5c2.4-1,5-0.9,7.3,0c0,0,0,0,0.1,0c1.1-0.4,2.2-0.6,3.3-0.5c0.1,2.1-0.6,4.2-2,5.8
						C270.1,100.8,269,103.3,267.1,105.2z"/>
					<path class="st104" d="M257.7,105.4c-0.4,0-0.7-0.2-0.9-0.6c-0.2-0.5,0-1,0.5-1.2l13.9-5.7c0.5-0.2,1,0,1.2,0.5
						c0.2,0.5,0,1-0.5,1.2l-13.9,5.7C257.9,105.4,257.8,105.4,257.7,105.4z"/>
				</g>
				<path class="st105" d="M270.8,91.2c0.5,2.2-0.2,4.5-1.8,6.2c0,0,0,0-0.1,0.1c0,2.4-0.9,4.9-2.8,6.7c-1.2,1.2-2.6,2-4.1,2.4
					c-0.2,0.1-0.5,0.1-0.7,0.2c-3,0.6-6.3-0.2-8.7-2.6c-1.9-1.9-2.9-4.5-2.8-7c0-2,0.7-3.9,1.9-5.6c0.3-0.3,0.5-0.7,0.8-1
					c1.8-1.9,4.3-2.8,6.7-2.8c0,0,0,0,0.1-0.1c0.8-0.8,1.7-1.4,2.7-1.7c0.2-0.1,0.4-0.1,0.5-0.2c1-0.2,1.9-0.2,2.9,0
					c1.5-1,3.5-0.8,4.8,0.5C271.6,87.8,271.7,89.8,270.8,91.2z"/>
				<g>
					<path class="st103" d="M262,86.2v20.5c-0.2,0.1-0.5,0.1-0.7,0.2c-3,0.6-6.3-0.2-8.7-2.6c-1.9-1.9-2.9-4.5-2.8-7
						c0-2,0.7-3.9,1.9-5.6c0.3-0.3,0.5-0.7,0.8-1c1.8-1.9,4.3-2.8,6.7-2.8c0,0,0,0,0.1-0.1C260.1,87.1,261,86.5,262,86.2z"/>
					<path class="st103" d="M253.4,104c-0.2,0-0.5-0.1-0.7-0.3c-0.4-0.4-0.4-1,0-1.3l10.6-10.7c0.4-0.4,1-0.4,1.3,0
						c0.4,0.4,0.4,1,0,1.3l-10.6,10.7C253.9,104,253.7,104,253.4,104z"/>
				</g>
				<path class="st106" d="M260.6,78.3v31.6c0,0.7-0.6,1.3-1.3,1.3H236c-0.7,0-1.3-0.6-1.3-1.3V78.3c0-4.1,1.1-8.1,3.2-11.6l0.1-0.2
					c0.7-1.1,1.2-2.3,1.7-3.5c0.3-0.7,0.5-1.3,0.7-2c0.5-1.9,0.8-4,0.8-6h12.8c0,2.8,0.5,5.5,1.5,8c0.5,1.2,1,2.4,1.7,3.5l0.1,0.2
					C259.5,70.2,260.6,74.2,260.6,78.3z"/>
				<path class="st107" d="M260.6,78.3v31.6c0,0.7-0.6,1.3-1.3,1.3H236c-0.7,0-1.3-0.6-1.3-1.3V78.3c0-4.1,1.1-8.1,3.2-11.6l0.1-0.2
					c0.7-1.1,1.2-2.3,1.7-3.5h15.8c0.5,1.2,1,2.4,1.7,3.5l0.1,0.2C259.5,70.2,260.6,74.2,260.6,78.3z"/>
				<g>
					<path class="st108" d="M260.6,78.3v31.6c0,0.7-0.6,1.3-1.3,1.3h-18.8C258.7,97.8,255,71.3,253.3,63h2.3c0.5,1.2,1,2.4,1.7,3.5
						l0.1,0.2C259.5,70.2,260.6,74.2,260.6,78.3z"/>
				</g>
				<path class="st109" d="M255.7,56.5h-16c-0.7,0-1.3-0.6-1.3-1.3V52c0-1,0.8-1.8,1.8-1.8h15c1,0,1.8,0.8,1.8,1.8v3.2
					C257,55.9,256.4,56.5,255.7,56.5z"/>
				<path class="st108" d="M250.6,69c-0.5,0-0.9-0.4-1-0.9c0-0.5,0.4-1,0.9-1l0,0c0,0,0,0,0,0c0.5,0,0.9,0.4,0.9,0.9
					C251.6,68.6,251.1,69,250.6,69C250.6,69,250.6,69,250.6,69z"/>
				<g>
					<path class="st110" d="M206.5,114c5,0,11.5-1,14.6-4c0.2-0.2,0.3-0.5,0.2-0.8l-6.1-15.6c-0.1-0.4-0.5-0.5-0.9-0.4
						c-2,0.5-2.4-2.1-1.1-2.7c0.3-0.2,0.5-0.6,0.4-0.9l-1.2-3.2c-0.1-0.3-0.4-0.5-0.7-0.5h-5.2V114z"/>
					<path class="st111" d="M206.5,114c-3.5,0-6.9-1.3-9.4-3.8c-0.2-0.2-0.3-0.5-0.2-0.8l0.9-2.3c0.1-0.3,0.4-0.5,0.6-0.5
						c1.1-0.1,1.8-1.6,1-2.5c-0.2-0.2-0.3-0.5-0.2-0.8l2.4-6.2c0.2-0.4,0.6-0.6,1-0.4c0,0,0.1,0,0.1,0.1c1.8,1.2,3.1-2.4,1-2.7
						c-0.4-0.1-0.7-0.5-0.6-0.9c0,0,0-0.1,0-0.1l2.6-6.7c0.1-0.3,0.4-0.5,0.7-0.5c0.3,0,0.6,0.2,0.7,0.5l8.9,23.1
						c0.1,0.3,0,0.6-0.2,0.8C213.4,112.6,210,114,206.5,114L206.5,114z"/>
					<circle class="st111" cx="209.4" cy="106.6" r="2.2"/>
					<circle class="st112" cx="207.2" cy="101.4" r="2.2"/>
					<g>
						<path class="st110" d="M208.7,108.1c0-1.2,1-2.2,2.2-2.2c0.2,0,0.4,0,0.6,0.1c-0.4-1.2-1.6-1.8-2.8-1.5
							c-1.2,0.4-1.8,1.6-1.5,2.8c0.2,0.7,0.8,1.3,1.5,1.5C208.7,108.5,208.7,108.3,208.7,108.1z"/>
						<path class="st110" d="M206.5,102.9c0-1.2,1-2.2,2.2-2.2c0.2,0,0.4,0,0.6,0.1c-0.4-1.2-1.6-1.8-2.8-1.5
							c-1.2,0.4-1.8,1.6-1.5,2.8c0.2,0.7,0.8,1.3,1.5,1.5C206.5,103.3,206.5,103.1,206.5,102.9z"/>
						<path class="st110" d="M202.8,109.5c0-1.2,1-2.2,2.2-2.2c0.2,0,0.4,0,0.6,0.1c-0.4-1.2-1.6-1.8-2.8-1.5s-1.8,1.6-1.5,2.8
							c0.2,0.7,0.8,1.3,1.5,1.5C202.8,110,202.8,109.7,202.8,109.5z"/>
					</g>
					<circle class="st113" cx="206.5" cy="92.5" r="1.5"/>
					<circle class="st113" cx="208" cy="95.5" r="0.7"/>
				</g>
				<g>
					<path class="st107" d="M243.7,93.8l-0.1,1l-0.2,1.7l-1.5,14.5c-0.1,1.2-1.2,2.2-2.4,2.2h-8.6c-1.2,0-2.3-0.9-2.4-2.2l-1.5-14.5
						l-0.2-1.7l-0.1-1H243.7z"/>
					<path class="st114" d="M243.7,93.8l-0.1,1l-0.2,1.7h-16.5l-0.2-1.7l-0.1-1H243.7z"/>
					<path class="st115" d="M235.6,92.2l8,1.6l-0.1,1h-16.8l-0.1-1L235.6,92.2z"/>
					<path class="st114" d="M225.4,92.8v-3.5c0-0.6,0.5-1,1-1h17.3c0.6,0,1,0.5,1,1v3.5c0,0.6-0.5,1-1,1h-17.3
						C225.9,93.8,225.4,93.3,225.4,92.8z"/>
					<path class="st115" d="M238.3,92.8v-3.5c0-0.6-0.5-1-1-1h6.5c0.6,0,1,0.5,1,1v3.5c0,0.6-0.5,1-1,1h-6.5
						C237.9,93.8,238.3,93.3,238.3,92.8z"/>
					<path class="st108" d="M237.2,113.2c0.6,0,1.1-0.9,1.2-2.2l0.8-14.5l0.1-2.7h4.3l-0.1,1l-0.2,1.7l-1.5,14.5
						c-0.1,1.2-1.2,2.2-2.4,2.2H237.2L237.2,113.2z"/>
					<path class="st115" d="M239.3,93.8h4.3l-0.1,1l-0.2,1.7h-4.2L239.3,93.8z"/>
				</g>
			</g>
			<g>
				<path class="st116" d="M235.8,132.1v1.2h-4.2v3.4h-1.5v-3.4h-4.2v-1.2H235.8z M234.4,126.5v4.5h-7.2v-4.5H234.4z M228.7,129.8
					h4.3v-2.1h-4.3V129.8z"/>
				<path class="st116" d="M236.7,133.3c0.6-0.3,1.1-0.7,1.5-0.9c0.4-0.3,0.7-0.5,1-0.7c0.3-0.2,0.5-0.4,0.6-0.6
					c0.2-0.2,0.3-0.4,0.4-0.6c0.1-0.2,0.1-0.4,0.2-0.7c0-0.2,0-0.5,0-0.8v-0.8h-3.5v-1.3h5v2.1c0,0.4,0,0.7-0.1,1.1
					s-0.1,0.6-0.2,0.9c-0.1,0.3-0.3,0.5-0.5,0.8c-0.2,0.3-0.5,0.5-0.8,0.8c-0.3,0.3-0.7,0.6-1.2,0.9c-0.5,0.3-1,0.7-1.7,1.1
					L236.7,133.3z M245.3,136.7h-1.5v-10.8h1.5V136.7z"/>
				<path class="st116" d="M247.2,126.3h5.6v1.2h-2v0.4c0,0.1,0,0.3,0,0.4c0,0.1,0.1,0.2,0.1,0.3c0.1,0.1,0.1,0.2,0.2,0.3
					c0.1,0.1,0.2,0.2,0.4,0.3c0.2,0.2,0.5,0.3,0.7,0.5c0.3,0.2,0.5,0.3,0.8,0.5l-0.7,1c-0.2-0.2-0.5-0.3-0.7-0.5s-0.5-0.3-0.7-0.5
					c-0.5-0.3-0.8-0.5-0.8-0.7h0c-0.1,0.1-0.3,0.4-0.9,0.8c-0.2,0.2-0.5,0.4-0.8,0.6c-0.3,0.2-0.6,0.4-0.9,0.6l-0.8-1.1
					c0.4-0.2,0.7-0.5,1.1-0.7c0.3-0.2,0.6-0.5,0.9-0.7c0.2-0.2,0.4-0.4,0.5-0.5c0.1-0.2,0.1-0.4,0.1-0.7v-0.4h-2.1V126.3z
					 M255.4,131.7v3.1h-5.3v0.8h5.7v1.2h-7.1v-3.1h5.3v-0.8h-5.4v-1.2H255.4z M255.4,131.2H254v-5.3h1.5V131.2z"/>
			</g>
			<rect x="213.9" y="77.9" class="st2" width="16.1" height="5.9"/>
		</g>
	</g>
	<g>
		<g>
			<g>
				<path class="st25" d="M128.2,173.3v126.2c0,2.5,2,4.6,4.6,4.6h74.5c2.5,0,4.6-2,4.6-4.6V173.3H128.2z"/>
				<path class="st23" d="M128.2,173.3v126.2c0,2.5,2,4.6,4.6,4.6h74.5c2.5,0,4.6-2,4.6-4.6V173.3H128.2z"/>
				<g>
					<rect x="128.2" y="208.1" class="st24" width="83.6" height="61.2"/>
				</g>
				<g>
					<rect x="121.2" y="158.3" class="st25" width="97.7" height="15.4"/>
					<rect x="187.2" y="158.3" class="st26" width="31.6" height="15.4"/>
					<rect x="125.5" y="158.3" class="st27" width="16.7" height="15.4"/>
				</g>
				<g>
					<path class="st28" d="M211.8,154.8c0-0.8-0.7-1.5-1.5-1.5h0v-21.2c0-1.2-1-2.1-2.1-2.1h-76.4c-1.2,0-2.1,1-2.1,2.1v21.2h0
						c-0.8,0-1.5,0.7-1.5,1.5v3.4h83.6V154.8z"/>
					<g>
						<path class="st29" d="M134.7,152.5c0,0.5-0.4,0.9-0.9,0.9l0,0c-0.5,0-0.9-0.4-0.9-0.9v-18.9c0-0.5,0.4-0.9,0.9-0.9l0,0
							c0.5,0,0.9,0.4,0.9,0.9V152.5z"/>
						<path class="st29" d="M140.7,152.5c0,0.5-0.4,0.9-0.9,0.9l0,0c-0.5,0-0.9-0.4-0.9-0.9v-18.9c0-0.5,0.4-0.9,0.9-0.9l0,0
							c0.5,0,0.9,0.4,0.9,0.9V152.5z"/>
						<path class="st29" d="M146.8,152.5c0,0.5-0.4,0.9-0.9,0.9l0,0c-0.5,0-0.9-0.4-0.9-0.9v-18.9c0-0.5,0.4-0.9,0.9-0.9l0,0
							c0.5,0,0.9,0.4,0.9,0.9V152.5z"/>
						<path class="st29" d="M152.8,152.5c0,0.5-0.4,0.9-0.9,0.9l0,0c-0.5,0-0.9-0.4-0.9-0.9v-18.9c0-0.5,0.4-0.9,0.9-0.9l0,0
							c0.5,0,0.9,0.4,0.9,0.9V152.5z"/>
						<path class="st29" d="M158.8,152.5c0,0.5-0.4,0.9-0.9,0.9l0,0c-0.5,0-0.9-0.4-0.9-0.9v-18.9c0-0.5,0.4-0.9,0.9-0.9l0,0
							c0.5,0,0.9,0.4,0.9,0.9V152.5z"/>
						<path class="st29" d="M164.9,152.5c0,0.5-0.4,0.9-0.9,0.9l0,0c-0.5,0-0.9-0.4-0.9-0.9v-18.9c0-0.5,0.4-0.9,0.9-0.9l0,0
							c0.5,0,0.9,0.4,0.9,0.9V152.5z"/>
						<path class="st29" d="M170.9,152.5c0,0.5-0.4,0.9-0.9,0.9l0,0c-0.5,0-0.9-0.4-0.9-0.9v-18.9c0-0.5,0.4-0.9,0.9-0.9l0,0
							c0.5,0,0.9,0.4,0.9,0.9V152.5z"/>
						<path class="st29" d="M177,152.5c0,0.5-0.4,0.9-0.9,0.9l0,0c-0.5,0-0.9-0.4-0.9-0.9v-18.9c0-0.5,0.4-0.9,0.9-0.9l0,0
							c0.5,0,0.9,0.4,0.9,0.9V152.5z"/>
						<path class="st29" d="M183,152.5c0,0.5-0.4,0.9-0.9,0.9l0,0c-0.5,0-0.9-0.4-0.9-0.9v-18.9c0-0.5,0.4-0.9,0.9-0.9l0,0
							c0.5,0,0.9,0.4,0.9,0.9V152.5z"/>
						<path class="st29" d="M189,152.5c0,0.5-0.4,0.9-0.9,0.9l0,0c-0.5,0-0.9-0.4-0.9-0.9v-18.9c0-0.5,0.4-0.9,0.9-0.9l0,0
							c0.5,0,0.9,0.4,0.9,0.9V152.5z"/>
						<path class="st29" d="M195.1,152.5c0,0.5-0.4,0.9-0.9,0.9l0,0c-0.5,0-0.9-0.4-0.9-0.9v-18.9c0-0.5,0.4-0.9,0.9-0.9l0,0
							c0.5,0,0.9,0.4,0.9,0.9V152.5z"/>
						<path class="st29" d="M201.1,152.5c0,0.5-0.4,0.9-0.9,0.9l0,0c-0.5,0-0.9-0.4-0.9-0.9v-18.9c0-0.5,0.4-0.9,0.9-0.9l0,0
							c0.5,0,0.9,0.4,0.9,0.9V152.5z"/>
						<path class="st29" d="M207.1,152.5c0,0.5-0.4,0.9-0.9,0.9l0,0c-0.5,0-0.9-0.4-0.9-0.9v-18.9c0-0.5,0.4-0.9,0.9-0.9l0,0
							c0.5,0,0.9,0.4,0.9,0.9V152.5z"/>
					</g>
				</g>
			</g>
			<g>
				<rect x="140.9" y="252.1" class="st29" width="58.2" height="2.4"/>
				<rect x="140.9" y="259.4" class="st29" width="58.2" height="2.4"/>
			</g>
		</g>
		<g>
			<circle class="st4" cx="170" cy="211.5" r="27.6"/>
			<g>
				<g>
					<g>
						<g>
							<path class="st97" d="M168.6,203.6v-2.5h-1.6c-0.1,0.3-0.2,0.5-0.4,0.7s-0.4,0.4-0.6,0.5c-0.2,0.1-0.5,0.3-0.8,0.4
								s-0.5,0.2-0.8,0.3l-0.4-0.5c0.3-0.1,0.6-0.2,0.9-0.3c0.3-0.1,0.5-0.2,0.8-0.4c0.2-0.1,0.4-0.3,0.5-0.5
								c0.1-0.2,0.2-0.4,0.2-0.7v-0.4c0-0.2,0-0.3-0.1-0.4c0-0.1-0.2-0.1-0.3-0.1h-1.7V199h1.8c0.2,0,0.3,0,0.5,0
								c0.1,0,0.2,0.1,0.3,0.2c0.1,0.1,0.1,0.2,0.2,0.3c0,0.1,0.1,0.3,0.1,0.5v0.5h1.5v-1.7h0.7v4.4c0,0.2,0,0.3-0.1,0.3
								c0,0.1-0.1,0.1-0.3,0.1H168.6z M165.8,205.4c-0.2,0-0.3-0.1-0.4-0.2c-0.1-0.1-0.1-0.2-0.1-0.4v-1.7h0.7v1.5
								c0,0.1,0,0.1,0.1,0.1h3.4v0.4c0,0.1,0,0.2-0.1,0.2c0,0-0.1,0.1-0.2,0.1H165.8z"/>
							<path class="st97" d="M169.2,205.5h-3.4c-0.2,0-0.3-0.1-0.5-0.2c-0.1-0.1-0.2-0.3-0.2-0.4v-1.8h0.9v1.5c0,0.1,0,0.1,0,0.1
								l3.5,0v0.4c0,0.1,0,0.2-0.1,0.3C169.4,205.5,169.3,205.5,169.2,205.5z M165.3,203.3v1.6c0,0.1,0,0.3,0.1,0.4
								c0.1,0.1,0.2,0.1,0.4,0.1h3.4c0.1,0,0.1,0,0.2-0.1c0,0,0.1-0.1,0.1-0.2v-0.3h-3.3c0,0-0.1,0-0.1-0.2v-1.4H165.3z M169,203.7
								h-0.5v-2.5H167c-0.1,0.2-0.2,0.5-0.4,0.6c-0.2,0.2-0.4,0.4-0.6,0.5c-0.2,0.1-0.5,0.3-0.8,0.4c-0.3,0.1-0.5,0.2-0.8,0.3l0,0
								l-0.5-0.6l0.1,0c0.3-0.1,0.6-0.2,0.9-0.3c0.3-0.1,0.5-0.2,0.7-0.4c0.2-0.1,0.4-0.3,0.5-0.5c0.1-0.2,0.2-0.4,0.2-0.7v-0.4
								c0-0.2,0-0.3-0.1-0.3c0-0.1-0.1-0.1-0.3-0.1h-1.7v-0.8h1.9c0.2,0,0.3,0,0.5,0c0.1,0,0.3,0.1,0.3,0.2c0.1,0.1,0.2,0.2,0.2,0.3
								c0,0.1,0.1,0.3,0.1,0.5v0.4h1.4v-1.7h0.9v4.5c0,0.2,0,0.3-0.1,0.4C169.2,203.6,169.1,203.7,169,203.7z M168.6,203.5h0.3
								c0.1,0,0.2,0,0.2-0.1c0,0,0-0.1,0-0.3v-4.4h-0.6v1.7H167v-0.5c0-0.2,0-0.3-0.1-0.5c0-0.1-0.1-0.2-0.2-0.3
								c-0.1-0.1-0.2-0.1-0.3-0.1c-0.1,0-0.3,0-0.4,0h-1.8v0.5h1.6c0.2,0,0.3,0,0.4,0.1c0.1,0.1,0.1,0.2,0.1,0.4v0.4
								c0,0.3-0.1,0.5-0.2,0.7c-0.1,0.2-0.3,0.4-0.5,0.5c-0.2,0.1-0.5,0.3-0.8,0.4c-0.3,0.1-0.5,0.2-0.8,0.3l0.3,0.4
								c0.3-0.1,0.5-0.1,0.8-0.2c0.3-0.1,0.5-0.2,0.7-0.4c0.2-0.1,0.4-0.3,0.6-0.5c0.2-0.2,0.3-0.4,0.4-0.6l0,0h1.7V203.5z"/>
						</g>
						<g>
							<path class="st97" d="M172.9,200.3c0,0.3-0.1,0.6-0.2,0.9c-0.1,0.3-0.3,0.5-0.6,0.7c-0.2,0.2-0.5,0.3-0.8,0.5
								c-0.3,0.1-0.7,0.2-1,0.3l-0.4-0.5c0.3-0.1,0.6-0.2,0.9-0.3c0.3-0.1,0.5-0.2,0.7-0.4c0.2-0.1,0.4-0.3,0.5-0.5
								c0.1-0.2,0.2-0.4,0.2-0.7v-0.3c0-0.2,0-0.3-0.1-0.4c0-0.1-0.2-0.1-0.3-0.1h-1.7V199h1.8c0.2,0,0.3,0,0.5,0
								c0.1,0,0.2,0.1,0.3,0.2c0.1,0.1,0.1,0.2,0.2,0.3c0,0.1,0.1,0.3,0.1,0.5V200.3z M170.9,204.2c0-0.3,0.1-0.5,0.2-0.7
								c0.1-0.2,0.3-0.3,0.5-0.4c0.2-0.1,0.4-0.2,0.7-0.2c0.2,0,0.5-0.1,0.7-0.1c0.2,0,0.4,0,0.7,0.1c0.2,0,0.5,0.1,0.7,0.2
								c0.2,0.1,0.4,0.3,0.5,0.4c0.1,0.2,0.2,0.4,0.2,0.7c0,0.3-0.1,0.5-0.2,0.7c-0.1,0.2-0.3,0.3-0.5,0.4c-0.2,0.1-0.4,0.2-0.7,0.2
								c-0.2,0-0.5,0.1-0.7,0.1c-0.2,0-0.4,0-0.7-0.1c-0.2,0-0.5-0.1-0.7-0.2c-0.2-0.1-0.4-0.2-0.5-0.4
								C171,204.7,170.9,204.5,170.9,204.2z M171.6,204.2c0,0.2,0,0.3,0.1,0.4c0.1,0.1,0.2,0.2,0.4,0.2c0.1,0.1,0.3,0.1,0.4,0.1
								c0.2,0,0.3,0,0.4,0c0.1,0,0.3,0,0.4,0c0.2,0,0.3-0.1,0.4-0.1c0.1-0.1,0.2-0.1,0.3-0.2c0.1-0.1,0.1-0.2,0.1-0.4s0-0.3-0.1-0.4
								c-0.1-0.1-0.2-0.2-0.3-0.2c-0.1-0.1-0.3-0.1-0.4-0.1c-0.2,0-0.3,0-0.4,0c-0.1,0-0.3,0-0.4,0c-0.2,0-0.3,0.1-0.4,0.1
								c-0.1,0.1-0.3,0.1-0.4,0.2C171.7,203.9,171.6,204,171.6,204.2z M174.2,202.6v-3.9h0.7v1.4h0.9v0.6H175v1.4
								c0,0.1,0,0.2-0.1,0.3c0,0.1-0.1,0.1-0.3,0.1H174.2z"/>
							<path class="st97" d="M173,205.6c-0.2,0-0.5,0-0.7-0.1c-0.3,0-0.5-0.1-0.7-0.2c-0.2-0.1-0.4-0.3-0.5-0.4
								c-0.1-0.2-0.2-0.4-0.2-0.8c0-0.3,0.1-0.6,0.2-0.8c0.1-0.2,0.3-0.3,0.6-0.5c0.2-0.1,0.5-0.2,0.7-0.2c0.2,0,0.5-0.1,0.7-0.1
								c0.2,0,0.4,0,0.7,0.1c0.2,0,0.5,0.1,0.7,0.2c0.2,0.1,0.4,0.3,0.5,0.5c0.1,0.2,0.2,0.4,0.2,0.8c0,0.3-0.1,0.6-0.2,0.8
								c-0.1,0.2-0.3,0.3-0.5,0.4c-0.2,0.1-0.4,0.2-0.7,0.2C173.4,205.6,173.2,205.6,173,205.6z M173,202.8c-0.2,0-0.4,0-0.7,0.1
								c-0.2,0-0.5,0.1-0.7,0.2c-0.2,0.1-0.4,0.2-0.5,0.4c-0.1,0.2-0.2,0.4-0.2,0.7c0,0.3,0.1,0.5,0.2,0.7c0.1,0.2,0.3,0.3,0.5,0.4
								c0.2,0.1,0.4,0.2,0.7,0.2c0.2,0,0.5,0.1,0.7,0.1c0.2,0,0.4,0,0.7-0.1c0.2,0,0.5-0.1,0.6-0.2c0.2-0.1,0.4-0.2,0.5-0.4
								c0.1-0.2,0.2-0.4,0.2-0.7s-0.1-0.5-0.2-0.7c-0.1-0.2-0.3-0.3-0.5-0.4c-0.2-0.1-0.4-0.2-0.6-0.2
								C173.4,202.8,173.2,202.8,173,202.8z M173,205c-0.1,0-0.3,0-0.4,0c-0.2,0-0.3-0.1-0.5-0.1c-0.1-0.1-0.3-0.1-0.4-0.3
								c-0.1-0.1-0.2-0.3-0.2-0.5c0-0.2,0.1-0.3,0.2-0.5c0.1-0.1,0.2-0.2,0.4-0.3c0.1-0.1,0.3-0.1,0.5-0.1c0.2,0,0.3,0,0.4,0
								c0.1,0,0.3,0,0.4,0c0.2,0,0.3,0.1,0.5,0.1c0.1,0.1,0.3,0.2,0.4,0.3c0.1,0.1,0.2,0.3,0.2,0.5c0,0.2-0.1,0.3-0.2,0.5
								c-0.1,0.1-0.2,0.2-0.4,0.3c-0.1,0.1-0.3,0.1-0.5,0.1C173.3,205,173.1,205,173,205z M173,203.4c-0.1,0-0.3,0-0.4,0
								c-0.2,0-0.3,0.1-0.4,0.1c-0.1,0.1-0.2,0.1-0.3,0.2c-0.1,0.1-0.1,0.2-0.1,0.4c0,0.2,0,0.3,0.1,0.4c0.1,0.1,0.2,0.2,0.3,0.2
								c0.1,0.1,0.3,0.1,0.4,0.1c0.2,0,0.3,0,0.4,0s0.3,0,0.4,0c0.1,0,0.3-0.1,0.4-0.1c0.1,0,0.2-0.1,0.3-0.2
								c0.1-0.1,0.1-0.2,0.1-0.4c0-0.2,0-0.3-0.1-0.4c-0.1-0.1-0.2-0.2-0.3-0.2c-0.1-0.1-0.3-0.1-0.4-0.1
								C173.2,203.4,173.1,203.4,173,203.4z M170.2,202.7l-0.5-0.6l0.1,0c0.3-0.1,0.6-0.2,0.8-0.3c0.3-0.1,0.5-0.2,0.7-0.4
								c0.2-0.1,0.4-0.3,0.5-0.5c0.1-0.2,0.2-0.4,0.2-0.7v-0.3c0-0.2,0-0.3-0.1-0.3c0-0.1-0.1-0.1-0.3-0.1H170v-0.8h1.9
								c0.2,0,0.3,0,0.5,0c0.1,0,0.3,0.1,0.3,0.2c0.1,0.1,0.2,0.2,0.2,0.3c0,0.1,0.1,0.3,0.1,0.5v0.4c0,0.4-0.1,0.7-0.2,0.9
								c-0.1,0.3-0.3,0.5-0.6,0.7c-0.2,0.2-0.5,0.3-0.9,0.5C171,202.5,170.6,202.6,170.2,202.7L170.2,202.7z M170,202.2l0.3,0.4
								c0.3-0.1,0.7-0.2,1-0.3c0.3-0.1,0.6-0.3,0.8-0.5c0.2-0.2,0.4-0.4,0.6-0.6c0.1-0.2,0.2-0.5,0.2-0.9v-0.4c0-0.2,0-0.3-0.1-0.5
								c0-0.1-0.1-0.2-0.2-0.3c-0.1-0.1-0.2-0.1-0.3-0.1c-0.1,0-0.3,0-0.4,0h-1.8v0.5h1.6c0.2,0,0.3,0,0.4,0.1
								c0.1,0.1,0.1,0.2,0.1,0.4v0.3c0,0.3-0.1,0.5-0.2,0.7c-0.1,0.2-0.3,0.4-0.5,0.5c-0.2,0.1-0.5,0.3-0.8,0.4
								C170.5,202,170.2,202.1,170,202.2z M174.7,202.7h-0.5v-4h0.9v1.4h0.9v0.8h-0.9v1.3c0,0.2,0,0.3-0.1,0.3
								C174.9,202.6,174.8,202.7,174.7,202.7z M174.3,202.5h0.3c0.1,0,0.2,0,0.2-0.1c0,0,0.1-0.1,0.1-0.3v-1.5h0.9v-0.5h-0.9v-1.4
								h-0.6V202.5z"/>
						</g>
						<g>
							<path class="st97" d="M158.1,211.9c0.1,0,0.3-0.1,0.4-0.1c0.2-0.1,0.3-0.1,0.5-0.2c0.1-0.1,0.3-0.1,0.4-0.2
								c0.1-0.1,0.3-0.2,0.4-0.3c0.1-0.1,0.2-0.2,0.3-0.3c0.1-0.1,0.2-0.2,0.2-0.3c0.1-0.1,0.1-0.2,0.2-0.3c0-0.1,0.1-0.2,0.1-0.4
								v-1.2c0-0.2,0-0.3-0.1-0.4c-0.1-0.1-0.2-0.1-0.4-0.1h-1.7v-0.6h1.9c0.2,0,0.4,0,0.5,0.1c0.1,0,0.3,0.1,0.3,0.2
								c0.1,0.1,0.2,0.2,0.2,0.3c0,0.1,0.1,0.3,0.1,0.5v1.2c0,0.3-0.1,0.6-0.2,0.9c-0.1,0.3-0.3,0.5-0.6,0.7
								c-0.2,0.2-0.5,0.4-0.8,0.6c-0.3,0.2-0.7,0.3-1.1,0.4L158.1,211.9z M162.7,213.9v-6.7h0.7v6.3c0,0.2,0,0.3-0.1,0.3
								c-0.1,0.1-0.1,0.1-0.3,0.1H162.7z"/>
							<path class="st97" d="M163.1,214h-0.5v-6.8h0.9v6.3c0,0.2,0,0.3-0.1,0.4C163.4,213.9,163.3,214,163.1,214z M162.8,213.8h0.3
								c0.1,0,0.2,0,0.2-0.1c0,0,0.1-0.1,0.1-0.3v-6.2h-0.6V213.8z M158.5,212.5l-0.5-0.6l0.1,0c0.1,0,0.3-0.1,0.4-0.1
								c0.2-0.1,0.3-0.1,0.4-0.2c0.1-0.1,0.3-0.1,0.4-0.2c0.1-0.1,0.2-0.2,0.3-0.2c0.1-0.1,0.2-0.2,0.3-0.3c0.1-0.1,0.2-0.2,0.2-0.3
								c0.1-0.1,0.1-0.2,0.2-0.3c0-0.1,0.1-0.2,0.1-0.4v-1.2c0-0.2,0-0.3-0.1-0.3c0,0-0.1-0.1-0.4-0.1h-1.8v-0.8h1.9
								c0.2,0,0.4,0,0.5,0.1c0.2,0,0.3,0.1,0.4,0.2c0.1,0.1,0.2,0.2,0.2,0.4c0,0.1,0.1,0.3,0.1,0.5v1.2c0,0.3-0.1,0.6-0.2,0.9
								c-0.1,0.3-0.3,0.5-0.6,0.8c-0.2,0.2-0.5,0.4-0.8,0.6C159.4,212.3,159,212.4,158.5,212.5L158.5,212.5z M158.3,211.9l0.3,0.4
								c0.4-0.1,0.8-0.2,1.1-0.4c0.3-0.2,0.6-0.4,0.8-0.6c0.2-0.2,0.4-0.5,0.6-0.7c0.1-0.3,0.2-0.6,0.2-0.9v-1.2
								c0-0.2,0-0.3-0.1-0.5c0-0.1-0.1-0.2-0.2-0.3c-0.1-0.1-0.2-0.1-0.3-0.2c-0.1,0-0.3-0.1-0.5-0.1h-1.8v0.5h1.7
								c0.2,0,0.4,0,0.5,0.1c0.1,0.1,0.1,0.2,0.1,0.4v1.2c0,0.1,0,0.3-0.1,0.4c0,0.1-0.1,0.2-0.2,0.4c-0.1,0.1-0.2,0.2-0.2,0.3
								c-0.1,0.1-0.2,0.2-0.3,0.3c-0.1,0.1-0.2,0.2-0.4,0.3c-0.1,0.1-0.3,0.2-0.4,0.2c-0.1,0.1-0.3,0.1-0.5,0.2
								C158.5,211.9,158.4,211.9,158.3,211.9z"/>
						</g>
						<g>
							<path class="st97" d="M163.8,210.2h6.1v0.3c0,0.2-0.1,0.3-0.3,0.3h-5.8V210.2z M164.6,212.7c0-0.2,0.1-0.4,0.2-0.6
								c0.1-0.2,0.3-0.3,0.5-0.4c0.2-0.1,0.4-0.2,0.7-0.3c0.3-0.1,0.6-0.1,0.9-0.1c0.3,0,0.6,0,0.9,0.1c0.3,0.1,0.5,0.1,0.7,0.3
								c0.2,0.1,0.4,0.3,0.5,0.4c0.1,0.2,0.2,0.4,0.2,0.6c0,0.2-0.1,0.4-0.2,0.6c-0.1,0.2-0.3,0.3-0.5,0.4c-0.2,0.1-0.4,0.2-0.7,0.3
								c-0.3,0.1-0.6,0.1-0.9,0.1c-0.3,0-0.6,0-0.9-0.1c-0.3-0.1-0.5-0.1-0.7-0.2c-0.2-0.1-0.4-0.2-0.5-0.4
								C164.7,213.1,164.6,212.9,164.6,212.7z M165.3,209.7c-0.2,0-0.4,0-0.5-0.1c-0.1-0.1-0.2-0.3-0.2-0.5v-1.9h0.3
								c0.1,0,0.2,0,0.3,0.1c0.1,0.1,0.1,0.2,0.1,0.3v1.3c0,0.1,0,0.1,0,0.1c0,0,0,0,0.1,0h3.6v0.3c0,0.1,0,0.2-0.1,0.2
								c0,0.1-0.1,0.1-0.2,0.1H165.3z M165.4,212.7c0,0.1,0,0.2,0.1,0.3c0.1,0.1,0.2,0.2,0.3,0.2c0.1,0.1,0.3,0.1,0.5,0.1
								c0.2,0,0.4,0.1,0.6,0.1c0.2,0,0.4,0,0.6,0c0.2,0,0.3-0.1,0.5-0.1c0.1-0.1,0.2-0.1,0.3-0.2c0.1-0.1,0.1-0.2,0.1-0.3
								c0-0.1,0-0.2-0.1-0.3c-0.1-0.1-0.2-0.2-0.3-0.2c-0.1-0.1-0.3-0.1-0.5-0.1c-0.2,0-0.4-0.1-0.6-0.1c-0.5,0-0.8,0.1-1.1,0.2
								C165.5,212.3,165.4,212.4,165.4,212.7z"/>
							<path class="st97" d="M166.9,214.1c-0.3,0-0.6,0-0.9-0.1c-0.3-0.1-0.5-0.1-0.7-0.2c-0.2-0.1-0.4-0.3-0.5-0.4
								c-0.1-0.2-0.2-0.4-0.2-0.6c0-0.2,0.1-0.5,0.2-0.6c0.1-0.2,0.3-0.3,0.5-0.4c0.2-0.1,0.5-0.2,0.7-0.3c0.3-0.1,0.6-0.1,0.9-0.1
								c0.3,0,0.6,0,0.9,0.1c0.3,0.1,0.5,0.2,0.7,0.3c0.2,0.1,0.4,0.3,0.5,0.4c0.1,0.2,0.2,0.4,0.2,0.6c0,0.2-0.1,0.4-0.2,0.6
								c-0.1,0.2-0.3,0.3-0.5,0.4c-0.2,0.1-0.4,0.2-0.7,0.3C167.5,214.1,167.2,214.1,166.9,214.1z M166.9,211.4
								c-0.3,0-0.6,0-0.9,0.1c-0.3,0.1-0.5,0.1-0.7,0.2c-0.2,0.1-0.3,0.2-0.5,0.4c-0.1,0.2-0.2,0.3-0.2,0.6c0,0.2,0.1,0.4,0.2,0.6
								c0.1,0.2,0.3,0.3,0.5,0.4c0.2,0.1,0.4,0.2,0.7,0.2c0.3,0.1,0.6,0.1,0.9,0.1c0.3,0,0.6,0,0.9-0.1c0.3-0.1,0.5-0.1,0.7-0.3
								c0.2-0.1,0.3-0.2,0.4-0.4c0.1-0.2,0.2-0.3,0.2-0.5c0-0.2-0.1-0.4-0.2-0.6c-0.1-0.2-0.3-0.3-0.5-0.4c-0.2-0.1-0.4-0.2-0.7-0.3
								C167.4,211.4,167.2,211.4,166.9,211.4z M166.9,213.5c-0.2,0-0.4,0-0.6-0.1c-0.2,0-0.4-0.1-0.5-0.1c-0.1-0.1-0.2-0.1-0.3-0.2
								c-0.1-0.1-0.1-0.2-0.1-0.3c0-0.3,0.1-0.5,0.4-0.6c0.3-0.1,0.7-0.2,1.1-0.2c0.2,0,0.4,0,0.6,0.1c0.2,0,0.3,0.1,0.5,0.2
								c0.1,0.1,0.2,0.2,0.3,0.2c0.1,0.1,0.1,0.2,0.1,0.3c0,0.1,0,0.2-0.1,0.3c-0.1,0.1-0.2,0.2-0.3,0.2c-0.1,0.1-0.3,0.1-0.5,0.1
								C167.3,213.4,167.1,213.5,166.9,213.5z M166.9,212c-0.5,0-0.8,0.1-1.1,0.2c-0.2,0.1-0.4,0.3-0.4,0.5c0,0.1,0,0.2,0.1,0.3
								c0.1,0.1,0.2,0.1,0.3,0.2c0.1,0.1,0.3,0.1,0.5,0.1c0.2,0,0.4,0.1,0.6,0.1c0.2,0,0.4,0,0.6,0c0.2,0,0.3-0.1,0.4-0.1
								c0.1-0.1,0.2-0.1,0.3-0.2c0.1-0.1,0.1-0.2,0.1-0.3c0-0.1,0-0.2-0.1-0.3c-0.1-0.1-0.2-0.2-0.3-0.2c-0.1-0.1-0.3-0.1-0.4-0.1
								C167.3,212,167.1,212,166.9,212z M169.6,210.9h-5.9v-0.8h6.2v0.4C170,210.8,169.8,210.9,169.6,210.9z M163.9,210.8h5.7
								c0.2,0,0.2-0.1,0.2-0.3v-0.2h-6V210.8z M168.8,209.7h-3.5c-0.3,0-0.4,0-0.6-0.1c-0.1-0.1-0.2-0.3-0.2-0.6v-1.9h0.4
								c0.1,0,0.3,0.1,0.3,0.2c0.1,0.1,0.1,0.2,0.1,0.4v1.3c0,0.1,0,0.1,0,0.1c0,0,0,0,0,0h3.7v0.4c0,0.1,0,0.2-0.1,0.3
								C169.1,209.7,169,209.7,168.8,209.7z M164.7,207.2v1.8c0,0.2,0,0.4,0.1,0.5c0.1,0.1,0.2,0.1,0.5,0.1h3.5c0.1,0,0.2,0,0.2-0.1
								c0,0,0.1-0.1,0.1-0.2v-0.3h-3.6c-0.1,0-0.1,0-0.1-0.1c0,0,0-0.1,0-0.2v-1.3c0-0.1,0-0.2-0.1-0.3c-0.1-0.1-0.1-0.1-0.2-0.1
								H164.7z"/>
						</g>
						<g>
							<path class="st97" d="M172,208.6c0,0.2,0,0.4,0.1,0.5c0.1,0.2,0.2,0.3,0.4,0.5c0.2,0.1,0.3,0.3,0.5,0.4
								c0.2,0.1,0.4,0.2,0.6,0.4l-0.4,0.5c-0.1-0.1-0.3-0.1-0.4-0.2c-0.2-0.1-0.3-0.2-0.4-0.3c-0.1-0.1-0.3-0.2-0.4-0.3
								c-0.1-0.1-0.2-0.2-0.3-0.3c-0.2,0.2-0.4,0.5-0.7,0.7c-0.3,0.2-0.6,0.5-0.9,0.7l-0.5-0.5c0.2-0.1,0.4-0.2,0.6-0.4
								c0.2-0.1,0.4-0.3,0.5-0.5c0.2-0.2,0.3-0.3,0.4-0.5c0.1-0.2,0.1-0.4,0.1-0.6v-1.3h0.5c0.1,0,0.2,0,0.2,0.1c0,0.1,0,0.1,0,0.2
								V208.6z M174.6,213.9v-1.7c0-0.1,0-0.1-0.1-0.1h-3.3v-0.6h3.6c0.2,0,0.3,0,0.4,0.1c0.1,0.1,0.2,0.2,0.2,0.4v1.5
								c0,0.2,0,0.3-0.1,0.3c-0.1,0.1-0.1,0.1-0.3,0.1H174.6z M174.6,211.1v-3.9h0.7v3.4c0,0.2,0,0.3-0.1,0.3c0,0.1-0.1,0.1-0.3,0.1
								H174.6z"/>
							<path class="st97" d="M175,214h-0.5v-1.8c0,0,0,0,0,0c0,0,0,0,0,0h-3.4v-0.8h3.7c0.2,0,0.3,0,0.4,0.1
								c0.1,0.1,0.2,0.2,0.2,0.4v1.5c0,0.2,0,0.3-0.1,0.4C175.2,213.9,175.1,214,175,214z M174.6,213.8h0.3c0.1,0,0.2,0,0.2-0.1
								c0,0,0.1-0.1,0.1-0.3V212c0-0.1,0-0.3-0.1-0.3c-0.1-0.1-0.2-0.1-0.4-0.1h-3.5v0.5h3.3c0.1,0,0.2,0.1,0.2,0.2V213.8z
								 M175,211.2h-0.5v-4h0.9v3.5c0,0.2,0,0.3-0.1,0.4C175.3,211.1,175.1,211.2,175,211.2z M174.7,211h0.3c0.1,0,0.2,0,0.2-0.1
								c0-0.1,0.1-0.2,0.1-0.3v-3.4h-0.6V211z M170.1,211.1l-0.6-0.6l0.1,0c0.2-0.1,0.4-0.2,0.6-0.4c0.2-0.1,0.4-0.3,0.5-0.4
								c0.2-0.2,0.3-0.3,0.4-0.5c0.1-0.2,0.1-0.4,0.1-0.6v-1.4h0.5c0.1,0,0.2,0,0.3,0.1c0,0.1,0.1,0.2,0.1,0.3v1
								c0,0.2,0,0.4,0.1,0.5c0.1,0.2,0.2,0.3,0.3,0.5c0.1,0.1,0.3,0.3,0.5,0.4c0.2,0.1,0.4,0.2,0.6,0.4l0.1,0l-0.5,0.6l0,0
								c-0.1-0.1-0.3-0.1-0.4-0.2c-0.2-0.1-0.3-0.2-0.4-0.3c-0.1-0.1-0.3-0.2-0.4-0.3c-0.1-0.1-0.2-0.2-0.3-0.3
								c-0.2,0.2-0.4,0.4-0.6,0.6C170.8,210.7,170.5,210.9,170.1,211.1L170.1,211.1z M169.7,210.5l0.4,0.4c0.3-0.2,0.6-0.4,0.9-0.6
								c0.3-0.2,0.5-0.5,0.6-0.7l0.1-0.1l0.1,0.1c0.1,0.1,0.2,0.2,0.3,0.3c0.1,0.1,0.3,0.2,0.4,0.3c0.1,0.1,0.3,0.2,0.4,0.3
								c0.1,0.1,0.3,0.2,0.4,0.2l0.3-0.4c-0.2-0.1-0.4-0.2-0.6-0.3c-0.2-0.1-0.4-0.3-0.5-0.4c-0.2-0.1-0.3-0.3-0.4-0.5
								c-0.1-0.2-0.1-0.4-0.1-0.6v-1c0-0.1,0-0.2,0-0.2c0,0-0.1-0.1-0.2-0.1h-0.4v1.2c0,0.2-0.1,0.4-0.2,0.6
								c-0.1,0.2-0.2,0.4-0.4,0.5c-0.2,0.2-0.3,0.3-0.6,0.5C170.1,210.3,169.9,210.5,169.7,210.5z"/>
						</g>
						<g>
							<path class="st97" d="M175.9,210.2h6.1v0.3c0,0.2-0.1,0.3-0.3,0.3h-2.4v0.7h1.8v1.5c0,0.3-0.1,0.5-0.2,0.7
								c-0.1,0.2-0.4,0.2-0.7,0.2h-2.9c-0.2,0-0.3-0.1-0.4-0.2c-0.1-0.1-0.2-0.3-0.2-0.5v-1.7h1.8v-0.7h-2.7V210.2z M177.2,207.9
								h-0.8v-0.6h4.9v0.6h-0.8v0.9c0,0.1,0,0.1,0,0.2c0,0,0,0.1,0,0.2h1v0.3c0,0.2-0.1,0.3-0.3,0.3h-4.8v-0.6h0.9c0,0,0-0.1,0-0.1
								c0-0.1,0-0.1,0-0.2V207.9z M180.1,213.3c0.1,0,0.2,0,0.2,0c0.1,0,0.1-0.1,0.1-0.2v-0.9h-2.9v1c0,0.1,0.1,0.2,0.2,0.2H180.1z
								 M179.6,209.1c0.1,0,0.1,0,0.2-0.1c0-0.1,0-0.1,0-0.2v-0.9H178v0.9c0,0.1,0,0.2,0,0.2c0,0.1,0.1,0.1,0.2,0.1H179.6z"/>
							<path class="st97" d="M180.2,214h-2.9c-0.2,0-0.4-0.1-0.5-0.2c-0.1-0.1-0.2-0.3-0.2-0.6v-1.7h1.8v-0.5h-2.7v-0.8h6.2v0.4
								c0,0.3-0.1,0.4-0.4,0.4h-2.3v0.5h1.8v1.5c0,0.3-0.1,0.6-0.2,0.7C180.8,213.9,180.6,214,180.2,214z M176.8,211.6v1.6
								c0,0.2,0.1,0.4,0.2,0.5c0.1,0.1,0.2,0.2,0.4,0.2h2.9c0.3,0,0.5-0.1,0.6-0.2c0.1-0.1,0.2-0.4,0.2-0.6v-1.4h-1.8v-0.8h2.4
								c0.2,0,0.2-0.1,0.2-0.3v-0.2h-6v0.5h2.7v0.8H176.8z M180.1,213.3h-2.5c-0.1,0-0.2-0.1-0.2-0.2v-1h3.1v0.9
								c0,0.1,0,0.2-0.1,0.3C180.3,213.3,180.2,213.3,180.1,213.3z M177.5,212.2v0.9c0,0.1,0,0.1,0.1,0.1h2.5c0.1,0,0.2,0,0.2,0
								c0,0,0-0.1,0-0.1v-0.8H177.5z M181.2,209.8h-4.9V209h0.9c0,0,0,0,0-0.1c0-0.1,0-0.1,0-0.2v-0.9h-0.8v-0.7h5v0.7h-0.8v0.9
								c0,0.1,0,0.1,0,0.2c0,0,0,0,0,0.1h0.9v0.3C181.6,209.6,181.4,209.8,181.2,209.8z M176.4,209.7h4.7c0.2,0,0.3-0.1,0.3-0.3
								v-0.2h-1l0-0.1c0-0.1,0-0.1,0-0.1c0,0,0-0.1,0-0.1v-1h0.8v-0.5h-4.7v0.5h0.8v1c0,0.1,0,0.1,0,0.2c0,0,0,0.1,0,0.1l0,0.1h-1
								V209.7z M179.6,209.2h-1.5c-0.1,0-0.2-0.1-0.2-0.1c0-0.1-0.1-0.1-0.1-0.2v-1h2v1c0,0.1,0,0.2-0.1,0.3
								C179.8,209.1,179.8,209.2,179.6,209.2z M178,207.9v0.9c0,0.1,0,0.1,0,0.2c0,0,0,0,0.1,0h1.5c0.1,0,0.1,0,0.1,0
								c0,0,0-0.1,0-0.2v-0.9H178z"/>
						</g>
					</g>
				</g>
				<path class="st98" d="M186.7,210.3c0,0.2,0.1,0.3,0.1,0.5c0,3.2-7.5,5.9-16.8,5.9c-9.3,0-16.8-2.6-16.8-5.9c0-0.2,0-0.3,0.1-0.5
					c-1.2,0.9-1.9,1.9-1.9,2.9c0,3.7,8.3,6.6,18.6,6.6s18.6-3,18.6-6.6C188.6,212.1,187.9,211.1,186.7,210.3z"/>
				<path class="st97" d="M170,187.4c-13.3,0-24.1,10.8-24.1,24.2c0,13.3,10.8,24.1,24.1,24.1c13.3,0,24.1-10.8,24.1-24.1
					C194.1,198.2,183.3,187.4,170,187.4z M170,189c12.4,0,22.5,10.1,22.5,22.5c0,4.4-1.3,8.5-3.5,12h-38c-2.2-3.5-3.5-7.6-3.5-12
					C147.5,199.1,157.6,189,170,189z"/>
				<g>
					<path class="st4" d="M157.6,226.9c-0.1,0.2-0.6,0.7-1,0.8l-0.2-0.4c0.5-0.2,1-0.6,1-1.2v-0.4h0.5v0.4c0,0.5,0.5,0.9,1,1.2
						l-0.2,0.4C158.2,227.5,157.8,227.2,157.6,226.9z M159,228.2h-2.2v-0.3h2.7v1.3H159V228.2z M159,225.7h0.5v2H159V225.7z"/>
					<path class="st4" d="M161.7,227.9h1.1v1.2h-2.7v-1.2h1.1v-0.3h-1.3v-0.3h3.1v0.3h-1.3V227.9z M160.1,226.7h0.4v-0.6h-0.4v-0.3
						h2.7v0.3h-0.4v0.6h0.4v0.3h-2.7V226.7z M160.6,228.3v0.5h1.7v-0.5H160.6z M160.9,226.1v0.6h1v-0.6H160.9z"/>
					<path class="st4" d="M165.9,228.7c-0.3,0.1-0.5,0.1-0.8,0.1h-1.8v-0.3h1.9c0.2,0,0.4,0,0.6-0.1c0,0,0-2.7,0-2.7h0.5v3.5h-0.5
						V228.7z M164.4,225.7c1.4,0,1.4,2.3,0,2.3C163,228,163,225.7,164.4,225.7z M164.4,227.7c0.7,0,0.7-1.6,0-1.6
						C163.7,226.1,163.7,227.7,164.4,227.7z"/>
					<path class="st4" d="M167.7,225.7c1.4,0,1.4,1.9,0,1.9C166.3,227.6,166.3,225.7,167.7,225.7z M169.2,228.2H167v-0.3h2.7v1.3
						h-0.5V228.2z M167.7,227.2c0.7,0,0.7-1.2,0-1.2C167,226.1,167,227.2,167.7,227.2z M169.7,227.7h-0.5v-2h0.5v0.4h0.4v0.4h-0.4
						v0.3h0.4v0.4h-0.4V227.7z"/>
					<path class="st4" d="M172,227.9h1.1v1.2h-2.7v-1.2h1.1v-0.3h-1.3v-0.3h3.1v0.3H172V227.9z M170.4,226.7h0.4v-0.6h-0.4v-0.3h2.7
						v0.3h-0.4v0.6h0.4v0.3h-2.7V226.7z M170.9,228.3v0.5h1.7v-0.5H170.9z M171.3,226.1v0.6h1v-0.6H171.3z"/>
					<path class="st4" d="M174.6,225.7c1.3,0,1.3,2.1,0,2.1C173.3,227.8,173.3,225.7,174.6,225.7z M174,228h0.5v0.8h2.1v0.3H174V228
						z M174.6,227.4c0.7,0,0.7-1.3,0-1.3C174,226.1,174,227.4,174.6,227.4z M176.6,228.2h-0.5v-2.5h0.5v0.9h0.4v0.4h-0.4V228.2z"/>
					<path class="st4" d="M178.3,227c-0.2,0.2-0.7,0.6-1,0.8l-0.2-0.4c0.5-0.3,1-0.6,1-1.2v-0.2h-0.8v-0.3h2.1v0.3h-0.8v0.2
						c0,0.5,0.5,1,1,1.2l-0.2,0.4C178.9,227.7,178.5,227.3,178.3,227z M177.5,228h0.5v0.8h2.2v0.3h-2.7V228z M179.7,226.8h-0.5v-0.3
						h0.5v-0.8h0.5v2.5h-0.5V226.8z"/>
					<path class="st4" d="M181.7,228c-0.2,0.3-0.6,0.7-0.9,0.8l-0.2-0.3c0.6-0.4,0.9-0.8,0.9-1.5v-0.8h-0.7v-0.3h0.7v-0.3h0.5v0.3
						h0.7v0.3h-0.7v0.8c0,0.6,0.3,1.1,0.9,1.5l-0.2,0.3C182.3,228.7,181.9,228.3,181.7,228z M183.1,227.2h-0.6v-0.3h0.6v-1.1h0.5
						v3.5h-0.5V227.2z"/>
				</g>
			</g>
		</g>
	</g>
</g>
</svg>
