<svg width="32" height="32" viewBox="0 0 32 32" fill="none" xmlns="http://www.w3.org/2000/svg">
<rect width="32" height="32" rx="16" fill="#1EC800"/>
<g clip-path="url(#clip0_1454_136039)">
<path d="M11.7658 19.2433V14.5253C11.7658 13.4353 10.9104 13.2929 10.9104 13.2929V11.4038C10.9104 11.4038 13.3933 11.562 13.538 14.5839V19.2433H11.7658Z" fill="white"/>
<path d="M14.7034 16.7116C14.7016 16.3408 14.7788 15.974 14.9298 15.6358C15.0887 15.2861 15.3148 14.9716 15.595 14.7102C15.8784 14.448 16.208 14.2414 16.5668 14.1011C16.9304 13.9601 17.3171 13.8887 17.7068 13.8907C18.1027 13.8886 18.4956 13.9599 18.8657 14.1011C19.225 14.2396 19.5544 14.4464 19.8359 14.7102C20.1121 14.9676 20.3336 15.2787 20.4869 15.6247C20.6343 15.9676 20.7103 16.3372 20.7103 16.7108C20.7103 17.0844 20.6343 17.454 20.4869 17.7969C20.3344 18.1434 20.1128 18.4546 19.8359 18.7114C19.5552 18.9763 19.2256 19.1833 18.8657 19.3205C18.4957 19.4623 18.1028 19.5341 17.7068 19.5325C17.317 19.534 16.9303 19.4621 16.5668 19.3205C16.2074 19.1814 15.8776 18.9747 15.595 18.7114C15.3152 18.4503 15.0891 18.1364 14.9298 17.7875C14.779 17.4492 14.7018 17.0824 14.7034 16.7116V16.7116ZM16.5055 16.7005C16.5027 16.8625 16.5325 17.0233 16.593 17.1734C16.6535 17.3234 16.7435 17.4597 16.8577 17.5739C16.9665 17.6896 17.098 17.7815 17.2439 17.8436C17.3898 17.9056 17.5469 17.9366 17.7052 17.9346C18.0305 17.9346 18.3425 17.8046 18.5725 17.5731C18.8025 17.3417 18.9318 17.0278 18.9318 16.7005C18.9318 16.3732 18.8025 16.0593 18.5725 15.8279C18.3425 15.5965 18.0305 15.4665 17.7052 15.4665C17.5469 15.4644 17.3898 15.4954 17.2439 15.5575C17.098 15.6196 16.9665 15.7114 16.8577 15.8272C16.7435 15.9414 16.6535 16.0776 16.593 16.2277C16.5325 16.3778 16.5027 16.5386 16.5055 16.7005V16.7005Z" fill="white"/>
<path d="M9.81294 14.7421C9.41983 14.2864 8.76411 13.8909 8.13512 13.9115C7.3992 13.9352 6.77493 14.0697 6.30476 14.4763H6.28275V11.562H4.54517V19.1863H6.28275V18.8224H6.30476C6.75861 19.1609 7.3125 19.3359 7.87723 19.3192C8.64302 19.3192 9.34592 19.0993 9.80508 18.5788C10.2642 18.0582 10.4907 17.5678 10.4907 16.7087C10.5003 15.9936 10.2604 15.2977 9.81294 14.7421V14.7421ZM8.32381 17.5899C8.21236 17.7062 8.07837 17.7982 7.93015 17.8602C7.78193 17.9223 7.62262 17.9531 7.4621 17.9507C7.30396 17.9527 7.14712 17.9217 7.0015 17.8596C6.85589 17.7975 6.72465 17.7057 6.61611 17.5899C6.39205 17.3563 6.26684 17.0444 6.26684 16.7198C6.26684 16.3951 6.39205 16.0832 6.61611 15.8496C6.72458 15.7336 6.85575 15.6416 7.00136 15.5792C7.14698 15.5169 7.30386 15.4856 7.4621 15.4873C7.70435 15.4887 7.94077 15.5621 8.14163 15.6984C8.34248 15.8347 8.49879 16.0276 8.5909 16.2531C8.68301 16.4785 8.7068 16.7263 8.65928 16.9653C8.61175 17.2043 8.49504 17.4238 8.32381 17.5963V17.5899Z" fill="white"/>
<path d="M25.7295 13.943V14.3606H25.706C25.2861 13.9762 24.8568 13.8101 24.1759 13.8101C23.4149 13.8101 22.7497 14.0648 22.289 14.6122C21.8282 15.1596 21.5876 15.8969 21.5876 16.8272C21.5876 17.6562 21.7973 18.3175 22.2166 18.8112C22.4352 19.0594 22.7055 19.2562 23.0083 19.3875C23.3111 19.5187 23.6389 19.5813 23.9684 19.5706C24.7357 19.5706 25.316 19.3697 25.7107 18.8191H25.7343V19.1751C25.7343 20.0959 24.7625 20.5642 24.0564 20.493V21.8773C24.9024 21.9992 25.9088 21.9517 26.6133 21.2777C27.2077 20.7097 27.4608 19.8933 27.4608 18.5549V13.943H25.7295ZM25.3962 17.5819C25.2847 17.6981 25.1507 17.7901 25.0025 17.8522C24.8543 17.9142 24.695 17.945 24.5345 17.9426C24.3763 17.9446 24.2195 17.9136 24.0739 17.8515C23.9282 17.7894 23.797 17.6976 23.6885 17.5819C23.4644 17.3483 23.3392 17.0363 23.3392 16.7117C23.3392 16.3871 23.4644 16.0751 23.6885 15.8415C23.7969 15.7256 23.9281 15.6335 24.0737 15.5711C24.2193 15.5088 24.3762 15.4775 24.5345 15.4792C24.7767 15.4806 25.0131 15.5541 25.214 15.6903C25.4148 15.8266 25.5712 16.0196 25.6633 16.245C25.7554 16.4704 25.7792 16.7182 25.7316 16.9572C25.6841 17.1962 25.5674 17.4158 25.3962 17.5882V17.5819Z" fill="white"/>
</g>
<defs>
<clipPath id="clip0_1454_136039">
<rect width="22.9093" height="10.5259" fill="white" transform="translate(4.54517 11.4038)"/>
</clipPath>
</defs>
</svg>
