<svg width="283" height="31" viewBox="0 0 283 31" fill="none" xmlns="http://www.w3.org/2000/svg">
<path d="M134.277 9.58887V21.2043H132.24V15.7043H128.32L128.282 15.7812C128.089 16.1273 127.859 16.4735 127.513 16.7812C127.167 17.0889 126.744 17.435 126.206 17.7427C125.668 18.0889 125.015 18.435 124.246 18.7812C123.516 19.1273 122.632 19.5504 121.633 19.9735L120.787 18.3196C121.979 17.7812 122.978 17.3581 123.746 16.9735C124.515 16.5889 125.13 16.2043 125.553 15.8581C125.976 15.5119 126.283 15.1273 126.437 14.7427C126.591 14.3581 126.667 13.935 126.667 13.435V12.3196H121.479V10.6273H128.704V14.0119H132.24V9.58887H134.277Z" fill="#2C2F31"/>
<path d="M134.546 24.1658V25.8581H123.785V20.5889H125.861V24.1658H134.546Z" fill="#2C2F31"/>
<path d="M151.803 13.3196V15.0504H149.574V19.2042H147.537V9.58887H149.574V13.3196H151.803Z" fill="#2C2F31"/>
<path d="M149.305 21.3963C149.074 21.0117 148.728 20.6656 148.306 20.3963C147.883 20.1271 147.345 19.8963 146.73 19.7425C146.115 19.5886 145.423 19.5117 144.655 19.5117C143.886 19.5117 143.194 19.5886 142.579 19.7425C141.964 19.8963 141.426 20.1271 141.003 20.3963C140.581 20.6656 140.235 21.0117 140.004 21.3963C139.774 21.7809 139.658 22.204 139.658 22.6656V23.4348C139.658 23.8963 139.774 24.3194 140.004 24.704C140.235 25.0886 140.581 25.4348 141.003 25.704C141.426 25.9733 141.964 26.204 142.579 26.3579C143.194 26.5117 143.886 26.5886 144.655 26.5886C145.423 26.5886 146.115 26.5117 146.73 26.3579C147.345 26.204 147.883 25.9733 148.306 25.704C148.728 25.4348 149.074 25.0886 149.305 24.704C149.536 24.3194 149.651 23.8963 149.651 23.4348V22.6656C149.651 22.204 149.536 21.7809 149.305 21.3963ZM147.652 23.2425C147.652 23.4348 147.575 23.6656 147.422 23.8579C147.268 24.0502 147.076 24.2425 146.807 24.3963C146.538 24.5502 146.23 24.6656 145.846 24.7809C145.462 24.8579 145.039 24.9348 144.578 24.9348C144.116 24.9348 143.694 24.8963 143.309 24.7809C142.925 24.6656 142.618 24.5502 142.349 24.3963C142.079 24.2425 141.887 24.0502 141.734 23.8579C141.58 23.6656 141.503 23.4733 141.503 23.2425V22.7809C141.503 22.5886 141.58 22.3579 141.734 22.1656C141.887 21.9733 142.079 21.8194 142.349 21.6271C142.618 21.4733 142.925 21.3579 143.309 21.2425C143.694 21.1656 144.116 21.0886 144.578 21.0886C145.039 21.0886 145.462 21.1271 145.846 21.2425C146.23 21.3194 146.538 21.4733 146.807 21.6271C147.076 21.7809 147.268 21.9733 147.422 22.1656C147.575 22.3579 147.652 22.5886 147.652 22.7809V23.2425Z" fill="#2C2F31"/>
<path d="M144.5 10.5889V13.3581C144.5 13.8196 144.461 14.2427 144.385 14.6273C144.308 14.9735 144.154 15.3581 143.962 15.6658C143.77 15.9735 143.501 16.2812 143.155 16.5889C142.809 16.8966 142.386 17.2043 141.848 17.5119C141.31 17.8196 140.695 18.1273 139.965 18.4735C139.273 18.7812 138.427 19.1658 137.543 19.5504L136.736 17.8966C137.966 17.3966 138.965 16.935 139.696 16.5889C140.464 16.2043 141.079 15.8581 141.502 15.5119C141.925 15.1658 142.194 14.8196 142.348 14.435C142.463 14.0889 142.54 13.6658 142.54 13.1658V12.2812H137.428V10.5889H144.5Z" fill="#2C2F31"/>
<path d="M160.987 11.0888V14.2811C160.987 14.858 160.949 15.3964 160.911 15.8964C160.834 16.358 160.718 16.8195 160.565 17.2426C160.411 17.6657 160.142 18.0503 159.834 18.4349C159.527 18.8195 159.104 19.2426 158.605 19.6272C158.105 20.0503 157.49 20.5118 156.76 20.9734C156.068 21.4349 155.223 21.9734 154.262 22.5503L153.186 20.9734C154.031 20.4734 154.8 20.0118 155.415 19.5888C156.03 19.1657 156.606 18.7811 157.029 18.4349C157.452 18.0888 157.798 17.7426 158.067 17.3964C158.336 17.0888 158.528 16.7426 158.643 16.3964C158.758 16.0503 158.874 15.7041 158.912 15.358C158.95 15.0118 158.95 14.5888 158.95 14.1272V12.7811H153.455V11.0503L160.987 11.0888Z" fill="#2C2F31"/>
<path d="M166.368 9.58887H164.293V26.0119H166.368V9.58887Z" fill="#2C2F31"/>
<path d="M180.857 21.7427C180.588 21.3581 180.204 21.0504 179.704 20.8196C179.205 20.5889 178.667 20.3966 178.013 20.2812C177.36 20.1658 176.668 20.0889 175.938 20.0889C175.208 20.0889 174.516 20.1658 173.863 20.2812C173.209 20.3966 172.633 20.5889 172.171 20.8196C171.71 21.0504 171.326 21.3581 171.018 21.7427C170.749 22.0889 170.596 22.5504 170.596 23.0504V23.5889C170.596 24.0889 170.749 24.5119 171.018 24.8966C171.287 25.2812 171.672 25.5889 172.171 25.8196C172.671 26.0504 173.209 26.2427 173.863 26.3581C175.169 26.6273 176.707 26.6273 178.013 26.3581C178.667 26.2427 179.243 26.0504 179.704 25.8196C180.166 25.5889 180.55 25.2812 180.857 24.8966C181.126 24.5504 181.28 24.0889 181.28 23.5889V23.0504C181.242 22.5119 181.126 22.0889 180.857 21.7427ZM179.243 23.435C179.243 23.7043 179.128 23.8966 178.936 24.0889C178.744 24.2812 178.474 24.435 178.167 24.5504C177.86 24.6658 177.514 24.7812 177.129 24.8196C176.745 24.8966 176.361 24.935 175.938 24.935C175.515 24.935 175.131 24.8966 174.746 24.8196C174.362 24.7427 174.016 24.6658 173.709 24.5504C173.401 24.435 173.132 24.2812 172.94 24.0889C172.748 23.8966 172.633 23.6658 172.633 23.435V23.1658C172.633 22.935 172.748 22.7042 172.94 22.5119C173.132 22.3196 173.401 22.1658 173.709 22.0504C174.016 21.935 174.362 21.8196 174.746 21.7812C175.515 21.6658 176.361 21.6658 177.129 21.7812C177.514 21.8581 177.86 21.935 178.167 22.0504C178.474 22.1658 178.744 22.3196 178.936 22.5119C179.128 22.7042 179.243 22.935 179.243 23.1658V23.435Z" fill="#2C2F31"/>
<path d="M181.319 14.089V15.7044H170.52V10.1274H172.556V14.089H181.319Z" fill="#2C2F31"/>
<path d="M183.509 17.3198H168.328V18.9352H183.509V17.3198Z" fill="#2C2F31"/>
<path d="M198.037 9.58887H196V19.0889H198.037V9.58887Z" fill="#2C2F31"/>
<path d="M198.038 20.0889V26.2042H196.001V21.7427H187.123V20.0889H198.038Z" fill="#2C2F31"/>
<path d="M194.233 17.0119L193.08 18.3965C192.773 18.1658 192.427 17.8965 192.043 17.6273C191.62 17.3196 191.197 16.9734 190.813 16.6658C190.505 16.3965 190.236 16.2042 190.006 16.0119C189.814 15.8196 189.66 15.6658 189.621 15.5504L189.583 15.4734H189.391L189.352 15.5504C189.314 15.6658 189.199 15.8581 189.007 16.0504C188.814 16.2811 188.545 16.5119 188.276 16.7427C187.854 17.1273 187.469 17.4734 187.046 17.8581C186.662 18.2042 186.201 18.5504 185.663 18.9735L184.395 17.5119C184.817 17.1658 185.278 16.8196 185.74 16.435C186.239 16.0119 186.701 15.5888 187.123 15.2042C187.546 14.7811 187.892 14.3196 188.084 13.8965C188.276 13.4734 188.392 12.935 188.392 12.3196V10.2427H190.467V12.2427C190.467 12.5888 190.467 12.8581 190.505 13.1273C190.544 13.3965 190.621 13.6273 190.698 13.8196C190.774 14.0504 190.928 14.2427 191.082 14.435C191.236 14.6273 191.428 14.8196 191.697 15.0504C192.12 15.435 192.581 15.7811 193.042 16.1273C193.426 16.3965 193.811 16.7042 194.233 17.0119Z" fill="#2C2F31"/>
<path d="M215.41 18.9348V17.3579H200.229V18.9348H206.801V20.5118H202.381V26.0118H213.257V20.5118H208.838V18.9348H215.41ZM211.22 22.0887V24.4733H204.379V22.0887H211.22Z" fill="#2C2F31"/>
<path d="M211.604 14.4736V11.6659H213.525V10.1274H202.072V11.6659H203.994V14.4736H201.957V16.0121H213.641V14.4736H211.604ZM209.605 14.4736H206.031V11.6659H209.605V14.4736Z" fill="#2C2F31"/>
<path d="M233.55 21.3966C233.281 21.0119 232.936 20.7043 232.474 20.435C232.013 20.1658 231.475 19.9735 230.822 19.8196C230.207 19.6658 229.515 19.5889 228.785 19.5889C228.055 19.5889 227.363 19.6658 226.709 19.8196C226.094 19.9735 225.556 20.1658 225.095 20.435C224.634 20.7043 224.288 21.0119 224.019 21.3966C223.75 21.7812 223.635 22.2043 223.635 22.6658V23.435C223.635 23.8966 223.75 24.3581 224.019 24.7043C224.288 25.0889 224.634 25.3966 225.095 25.6658C225.556 25.935 226.094 26.1273 226.709 26.2812C227.324 26.435 228.016 26.4735 228.785 26.4735C229.515 26.4735 230.207 26.3966 230.822 26.2812C231.437 26.1273 232.013 25.935 232.474 25.6658C232.936 25.3966 233.281 25.0889 233.55 24.7043C233.82 24.3196 233.935 23.8966 233.935 23.435V22.6658C233.935 22.2043 233.82 21.7812 233.55 21.3966ZM231.936 23.2812C231.936 23.5119 231.821 23.7427 231.667 23.9735C231.475 24.1658 231.245 24.3581 230.975 24.4735C230.706 24.6273 230.361 24.7427 229.976 24.8196C229.592 24.8966 229.208 24.935 228.823 24.935C228.4 24.935 228.016 24.8966 227.67 24.8196C227.286 24.7427 226.978 24.6273 226.671 24.4735C226.364 24.3196 226.133 24.1658 225.979 23.9735C225.787 23.7812 225.71 23.5504 225.71 23.2812V22.8581C225.71 22.6273 225.825 22.3966 225.979 22.1658C226.171 21.9735 226.402 21.8196 226.671 21.6658C226.94 21.5119 227.286 21.3966 227.67 21.3196C228.4 21.1658 229.284 21.1658 230.015 21.3196C230.399 21.3966 230.706 21.5119 231.014 21.6658C231.283 21.8196 231.552 21.9735 231.706 22.1658C231.898 22.3581 231.975 22.5889 231.975 22.8581L231.936 23.2812Z" fill="#0349C3"/>
<path d="M229.976 17.3963L228.899 18.781C228.131 18.281 227.401 17.781 226.786 17.3194C226.401 17.0502 226.094 16.8194 225.863 16.6271C225.556 16.3963 225.517 16.281 225.479 16.2425L225.44 16.1656H225.248L225.21 16.2425C225.21 16.281 225.133 16.4348 224.825 16.704C224.595 16.9348 224.249 17.204 223.826 17.5502C223.442 17.8579 223.058 18.1656 222.635 18.4733C222.25 18.7425 221.866 19.0502 221.443 19.3194L220.252 17.8579C220.79 17.5117 221.29 17.1271 221.789 16.7425C222.289 16.3579 222.75 15.9733 223.134 15.6271C223.442 15.3579 223.711 15.0117 223.903 14.6656C224.095 14.3194 224.172 13.8963 224.172 13.4348V12.204H220.905V10.5117H229.361V12.204H226.209V13.4348C226.209 13.6656 226.209 13.8579 226.248 14.0502C226.286 14.2425 226.363 14.4348 226.44 14.5886C226.517 14.781 226.67 14.9348 226.824 15.0886C226.978 15.2425 227.17 15.4348 227.439 15.6271C227.823 15.9348 228.246 16.204 228.669 16.5117C229.13 16.8579 229.553 17.1271 229.976 17.3963Z" fill="#0349C3"/>
<path d="M233.895 9.58887V19.2812H231.858V15.3966H229.168V13.7043H231.858V9.58887H233.895Z" fill="#0349C3"/>
<path d="M244.695 22.2427V19.2811H249.192V10.7427H247.155V13.3965H240.198V10.7427H238.161V19.2811H242.658V22.2427H236.086V23.935H251.267V22.2427H244.695ZM240.198 17.6273V15.0888H247.155V17.6273H240.198Z" fill="#0349C3"/>
<path d="M260.644 22.2812V19.2043H265.64V17.5504H263.527V12.5504H265.487V10.9351H253.726V12.5889H255.763V17.5889H253.611V19.2428H258.607V22.3197H252.035V23.9735H267.216V22.3197H260.644V22.2812ZM257.8 17.5504V12.5504H261.49V17.5504H257.8Z" fill="#0349C3"/>
<path d="M282.206 24.6659V26.2043H271.406V21.7428H279.746V20.3197H271.291V18.7812H281.706V23.2043H273.366V24.6659H282.206Z" fill="#0349C3"/>
<path d="M277.594 17.2813C277.095 17.3197 276.595 17.3582 276.057 17.3967C275.48 17.4351 274.789 17.4736 274.058 17.4736C273.328 17.4736 272.483 17.5121 271.599 17.5121C270.715 17.5121 269.754 17.5121 268.678 17.5121V10.1274H276.287V11.6659H270.676V13.0505H275.903V14.589H270.676V15.9736H270.792C272.021 15.9736 273.213 15.9736 274.251 15.9351C275.288 15.8967 276.364 15.8582 277.44 15.7428L277.594 17.2813Z" fill="#0349C3"/>
<path d="M281.515 9.85791V18.0502H279.478V14.6656H276.826V13.1271H279.478V9.85791H281.515Z" fill="#0349C3"/>
<path d="M66.0913 13.7541V10.3565C66.0913 9.9828 65.7857 9.67702 65.4123 9.67702H50.474C50.1005 9.67702 49.795 9.9828 49.795 10.3565V14.7734C49.795 15.1471 50.1005 15.4529 50.474 15.4529H65.7518C66.3968 15.4529 67.0079 15.5548 67.5851 15.7927C69.2826 16.4382 70.5388 18.0011 70.8104 19.8697C70.8104 19.9717 70.8443 20.1076 70.8443 20.2095C70.8443 20.3114 70.8443 20.4473 70.8443 20.5493V25.6456C70.8443 27.4463 69.8937 29.0432 68.4678 29.9606C67.7888 30.4022 66.974 30.674 66.0913 30.742C65.9894 30.742 65.8536 30.742 65.7518 30.742H50.1345C50.0326 30.742 49.8968 30.742 49.795 30.742C47.1468 30.5721 45.0419 28.3637 45.0419 25.6456V23.8789L49.795 21.9083V25.3059C49.795 25.6796 50.1005 25.9854 50.474 25.9854H65.4123C65.7857 25.9854 66.0913 25.6796 66.0913 25.3059V20.889C66.0913 20.5153 65.7857 20.2095 65.4123 20.2095H50.1345C49.4894 20.2095 48.8783 20.0736 48.3011 19.8697C46.7055 19.2582 45.4832 17.8312 45.1437 16.1324C45.1098 15.8946 45.0758 15.6907 45.0758 15.4529C45.0758 15.351 45.0758 15.2151 45.0758 15.1131V10.0168C45.0758 9.91485 45.0758 9.77894 45.0758 9.67702C45.0758 9.64304 45.0758 9.60907 45.0758 9.57509C45.1098 9.13341 45.2116 8.7257 45.3474 8.31799C46.0264 6.34739 47.9277 4.92041 50.1345 4.92041H65.7518C65.8536 4.92041 65.9894 4.92041 66.0913 4.92041C67.2795 4.98836 68.332 5.46402 69.1468 6.21149C70.1993 7.16281 70.8443 8.48787 70.8443 10.0168V11.7835L66.0913 13.7541ZM106.153 4.92041V23.5391L90.5357 4.92041H85.1036V30.742H89.8567V12.1912L105.406 30.742H110.906V4.92041H106.153ZM80.3505 4.92041H75.5974V30.742H80.3505V4.92041ZM18.9339 22.5878C18.3567 22.8256 17.7116 22.9276 17.0326 22.9276C16.4555 22.9276 15.9123 22.8256 15.369 22.6897C14.9277 22.5538 14.4863 22.8596 14.4863 23.3353V30.776H19.2394V22.8596C19.2394 22.6558 19.0697 22.5199 18.9339 22.5878ZM35.5357 4.92041V15.4529H24.5018C23.3814 15.4529 22.4647 16.3702 22.4647 17.4914C22.4647 18.3408 22.261 19.1563 21.9215 19.8697C21.8536 20.0396 21.9555 20.2095 22.1252 20.2095H35.5357V30.742H40.2888V4.92041H35.5357Z" fill="url(#paint0_linear_125_942)"/>
<path d="M21.2766 6.27941C19.7828 6.27941 18.5606 7.50254 18.5606 8.99748C18.5606 9.91482 19.0019 10.7302 19.7149 11.2059C19.8167 11.2399 19.8846 11.3078 19.9865 11.3758C20.36 11.5796 20.8013 11.7155 21.2766 11.7155C22.7704 11.7155 23.9927 10.4924 23.9927 8.99748C23.9927 7.50254 22.7704 6.27941 21.2766 6.27941ZM3.6223 3.56135C2.12847 3.56135 0.90625 4.78448 0.90625 6.27941C0.90625 7.77435 2.12847 8.99748 3.6223 8.99748C5.11613 8.99748 6.33835 7.77435 6.33835 6.27941C6.33835 4.78448 5.11613 3.56135 3.6223 3.56135ZM7.73032 10.3565C6.98341 10.3565 6.3723 10.9681 6.3723 11.7155C6.3723 12.463 6.98341 13.0746 7.73032 13.0746C8.47724 13.0746 9.08835 12.463 9.08835 11.7155C9.08835 10.9681 8.47724 10.3565 7.73032 10.3565ZM21.4124 17.4574C21.4124 19.9037 19.4433 21.9083 16.9649 21.9083C14.5204 21.9083 12.5174 19.9037 12.5174 17.4574C12.5174 16.7779 12.6871 16.1324 12.9587 15.5208C12.9927 15.4868 12.9927 15.4529 13.0266 15.4189C13.4001 14.7394 13.6038 13.9579 13.6038 13.1085C13.6038 11.036 12.3476 9.26928 10.5143 8.52182H10.4803C10.4464 8.52182 10.4464 8.52182 10.4124 8.48784C10.3785 8.48784 10.3445 8.45386 10.3106 8.45386C10.3106 8.45386 10.2766 8.45386 10.2766 8.41989H10.2427C8.71489 7.77435 7.66242 6.24544 7.66242 4.4787C7.66242 2.67798 8.78279 1.14908 10.3445 0.503536C10.8538 0.299681 11.397 0.197754 11.9742 0.197754C12.5513 0.197754 13.0945 0.299681 13.6038 0.503536C15.1655 1.14908 16.2859 2.67798 16.2859 4.4787C16.2859 5.09026 16.1501 5.66785 15.9124 6.21146V6.24544C15.9124 6.24544 15.9124 6.27941 15.8785 6.27941C15.8445 6.34737 15.8106 6.44929 15.7427 6.51725C15.4371 7.16278 15.3013 7.8423 15.3013 8.58977C15.3013 10.7302 16.6593 12.5649 18.5606 13.2784C18.5945 13.2784 18.5945 13.2784 18.6285 13.3124C20.2581 13.9579 21.4124 15.5888 21.4124 17.4574Z" fill="url(#paint1_linear_125_942)"/>
<defs>
<linearGradient id="paint0_linear_125_942" x1="-0.686643" y1="-2.51437" x2="141.511" y2="43.0629" gradientUnits="userSpaceOnUse">
<stop stop-color="#072A83"/>
<stop offset="0.858" stop-color="#0349C3"/>
</linearGradient>
<linearGradient id="paint1_linear_125_942" x1="2.53703" y1="-0.181993" x2="28.6966" y2="22.7276" gradientUnits="userSpaceOnUse">
<stop offset="0.2191" stop-color="#D5FF92"/>
<stop offset="0.6543" stop-color="#35D6C6"/>
</linearGradient>
</defs>
</svg>
