<?xml version="1.0" encoding="utf-8"?>
<!-- Generator: Adobe Illustrator 26.0.2, SVG Export Plug-In . SVG Version: 6.00 Build 0)  -->
<svg version="1.1" id="Layer_1" xmlns="http://www.w3.org/2000/svg" xmlns:xlink="http://www.w3.org/1999/xlink" x="0px" y="0px"
	 viewBox="0 0 151 34" style="enable-background:new 0 0 151 34;" xml:space="preserve">
<style type="text/css">
	.st0{fill:#F58920;}
	.st1{fill:#8AC441;}
	.st2{fill:#1F1F1F;}
	.st3{fill:#6B6B6B;}
	.st4{fill:#211D1E;}
	.st5{fill:#16A7E0;}
	.st6{fill:#FFFFFF;}
	.st7{fill:#003964;}
	.st8{fill:#ED1A3B;}
	.st9{fill:#575756;}
	.st10{fill:#003685;}
	.st11{fill:url(#SVGID_1_);}
	.st12{fill:url(#SVGID_00000011718116971525535180000001965326706874751622_);}
	.st13{fill:url(#SVGID_00000031910722189675378580000012424912415269300609_);}
	.st14{fill:url(#SVGID_00000049937437359691129000000009175619689807736705_);}
	.st15{fill:url(#SVGID_00000012433341790766904080000005218799565553462149_);}
	.st16{fill:#064485;}
	.st17{fill:#032D59;}
</style>
<g>
	<g>
		<g>
			<g>
				<g>
					<g>
						<g>
							<path class="st7" d="M25.2,16.3c-2.8-1.9-6.4-1.1-8.3,1.7c-1.6,2.4-4,2.7-4.9,2.7c-3,0-5.1-2.1-5.7-4.3h0c0,0,0,0,0-0.1
								c0,0,0,0,0-0.1C6,15.4,6,14.9,6,13.9C6,8.7,11.4,2.9,19.1,2.9c7.9,0,12.5,6,13.6,9.4c0-0.1,0-0.1-0.1-0.2
								C30.4,5.5,24.2,0.8,16.9,0.8C7.7,0.8,0.2,8.3,0.2,17.5c0,8.2,5.9,15.3,14.2,15.3c6.6,0,11-3.7,13-8.8
								C28.5,21.2,27.7,18,25.2,16.3z"/>
						</g>
						<g>
							<path class="st8" d="M32.8,12.6c-1-3.3-5.5-9.7-13.7-9.7C11.4,2.9,6,8.7,6,13.9c0,1,0.1,1.4,0.3,2.3
								c-0.1-0.4-0.2-0.8-0.2-1.2c0-5.4,5.5-9.2,11.1-9.2c7.6,0,13.8,6.2,13.8,13.7c0,6-3.4,11.1-8.4,13.6l0,0
								c6.4-2.3,11-8.5,11-15.7C33.5,15.8,33.3,14.3,32.8,12.6z"/>
						</g>
					</g>
				</g>
			</g>
		</g>
	</g>
	<g>
		<path class="st9" d="M45.2,10.7l4.2,5.7l-1.3,0.9l-2.9-4l-2.9,4.1L41,16.5L45.2,10.7z M42.2,18.8h10.7v5.2h-1.7v-3.8h-9V18.8z
			 M51.2,10.9h1.7V18h-1.7V10.9z"/>
		<path class="st9" d="M66.4,19.6V24H56.2v-4.4h4.3v-1.2h-5.3V17h12.3v1.4h-5.3v1.2H66.4z M55.9,16v-1.4h1.8v-2.2h-1.8v-1.4h10.7
			v1.4h-1.8v2.2h1.8V16H55.9z M64.8,20.9h-7v1.7h7V20.9z M63.2,12.5h-3.9v2.2h3.9V12.5z"/>
		<path class="st9" d="M77.8,21.2v1.4h-8.9v-1.4H77.8z M77,15.1c0,0.5-0.1,1-0.3,1.4c-0.2,0.4-0.5,0.8-0.8,1.2
			c-0.3,0.3-0.7,0.6-1.2,0.8c-0.5,0.2-0.9,0.3-1.5,0.3c-0.5,0-1-0.1-1.5-0.3c-0.5-0.2-0.9-0.5-1.2-0.8c-0.3-0.3-0.6-0.7-0.8-1.2
			c-0.2-0.4-0.3-0.9-0.3-1.4c0-0.5,0.1-1,0.3-1.4c0.2-0.4,0.5-0.8,0.8-1.2c0.3-0.3,0.7-0.6,1.2-0.8c0.5-0.2,1-0.3,1.5-0.3
			c0.5,0,1,0.1,1.5,0.3c0.5,0.2,0.9,0.5,1.2,0.8c0.3,0.3,0.6,0.7,0.8,1.2C76.9,14.1,77,14.6,77,15.1z M75.4,15.1
			c0-0.3-0.1-0.6-0.2-0.8c-0.1-0.3-0.3-0.5-0.5-0.7c-0.2-0.2-0.4-0.3-0.7-0.5c-0.3-0.1-0.5-0.2-0.8-0.2c-0.3,0-0.6,0.1-0.8,0.2
			c-0.3,0.1-0.5,0.3-0.7,0.5c-0.2,0.2-0.3,0.4-0.5,0.7c-0.1,0.3-0.2,0.5-0.2,0.8c0,0.3,0.1,0.6,0.2,0.8c0.1,0.3,0.3,0.5,0.5,0.7
			c0.2,0.2,0.4,0.3,0.7,0.5c0.3,0.1,0.5,0.2,0.8,0.2c0.3,0,0.6-0.1,0.8-0.2c0.3-0.1,0.5-0.3,0.7-0.5c0.2-0.2,0.4-0.4,0.5-0.7
			C75.3,15.7,75.4,15.4,75.4,15.1z M78.8,10.9h1.6v13.3h-1.6V10.9z"/>
		<path class="st9" d="M89.8,14.3c0,0.4-0.1,0.9-0.3,1.3c-0.2,0.4-0.4,0.7-0.8,1c-0.3,0.3-0.7,0.5-1.1,0.7c-0.4,0.2-0.9,0.3-1.3,0.3
			c-0.5,0-0.9-0.1-1.4-0.3s-0.8-0.4-1.1-0.7c-0.3-0.3-0.6-0.6-0.8-1c-0.2-0.4-0.3-0.8-0.3-1.3c0-0.4,0.1-0.9,0.3-1.3
			c0.2-0.4,0.4-0.7,0.8-1c0.3-0.3,0.7-0.5,1.1-0.7c0.4-0.2,0.9-0.3,1.4-0.3c0.5,0,0.9,0.1,1.3,0.3c0.4,0.2,0.8,0.4,1.1,0.7
			c0.3,0.3,0.6,0.6,0.8,1C89.7,13.4,89.8,13.8,89.8,14.3z M83.2,18.8h10.5v5.2h-1.6v-3.7h-8.8V18.8z M88.2,14.3c0-0.5-0.2-1-0.6-1.3
			c-0.4-0.4-0.8-0.6-1.3-0.6c-0.5,0-1,0.2-1.3,0.6c-0.4,0.4-0.5,0.8-0.5,1.3c0,0.5,0.2,1,0.5,1.3c0.4,0.4,0.8,0.5,1.3,0.5
			c0.5,0,1-0.2,1.3-0.5C88,15.2,88.2,14.8,88.2,14.3z M93.7,18h-1.6v-7.1h1.6v1.2h1.9v1.4h-1.9v1.4h1.9v1.4h-1.9V18z"/>
		<path class="st9" d="M108.5,19.6V24H98.2v-4.4h4.3v-1.2h-5.3V17h12.3v1.4h-5.3v1.2H108.5z M98,16v-1.4h1.8v-2.2H98v-1.4h10.7v1.4
			h-1.8v2.2h1.8V16H98z M106.8,20.9h-7v1.7h7V20.9z M105.3,12.5h-3.9v2.2h3.9V12.5z"/>
		<path class="st9" d="M118.5,14.7c0,0.5-0.1,0.9-0.3,1.4c-0.2,0.4-0.5,0.8-0.8,1.1c-0.3,0.3-0.7,0.6-1.2,0.8
			c-0.4,0.2-0.9,0.3-1.4,0.3c-0.5,0-1-0.1-1.4-0.3c-0.4-0.2-0.8-0.4-1.2-0.8c-0.3-0.3-0.6-0.7-0.8-1.1c-0.2-0.4-0.3-0.9-0.3-1.4
			c0-0.5,0.1-0.9,0.3-1.4c0.2-0.4,0.5-0.8,0.8-1.1c0.3-0.3,0.7-0.6,1.2-0.8c0.4-0.2,0.9-0.3,1.4-0.3c0.5,0,1,0.1,1.4,0.3
			c0.4,0.2,0.8,0.4,1.2,0.8c0.3,0.3,0.6,0.7,0.8,1.1C118.4,13.7,118.5,14.2,118.5,14.7z M113.6,19.5v3h9v1.5h-10.6v-4.5H113.6z
			 M116.9,14.7c0-0.3-0.1-0.6-0.2-0.8c-0.1-0.3-0.3-0.5-0.5-0.7c-0.2-0.2-0.4-0.4-0.7-0.5c-0.3-0.1-0.5-0.2-0.8-0.2
			c-0.3,0-0.6,0.1-0.8,0.2c-0.3,0.1-0.5,0.3-0.7,0.5c-0.2,0.2-0.3,0.4-0.5,0.7c-0.1,0.3-0.2,0.5-0.2,0.8c0,0.3,0.1,0.6,0.2,0.8
			c0.1,0.3,0.3,0.5,0.5,0.7c0.2,0.2,0.4,0.4,0.7,0.5c0.3,0.1,0.5,0.2,0.8,0.2c0.3,0,0.5-0.1,0.8-0.2c0.3-0.1,0.5-0.3,0.7-0.5
			c0.2-0.2,0.3-0.4,0.5-0.7C116.8,15.2,116.9,14.9,116.9,14.7z M122.2,19.4h-1.6v-8.5h1.6v2.9h1.9v1.6h-1.9V19.4z"/>
		<path class="st9" d="M125.3,12.7v-1.4h7.6v1.4h-3.2l3.4,4.7l-1.2,0.9l-2.7-3.9l-2.7,4l-1.2-0.9l3.4-4.8H125.3z M126.2,23.9v-4.5
			h1.6v3h9.3v1.5H126.2z M135.4,19.4v-4.1h-2.5v-1.5h2.5v-3h1.7v8.5H135.4z"/>
		<path class="st9" d="M142.4,12.2v-1.4h1.8v1.4h3.2v1.4H144l3.7,8.3l-1.4,0.6l-3-6.8l-3,6.9l-1.4-0.6l3.7-8.4h-3.5v-1.4H142.4z
			 M149.1,17.6h-2.5v-1.5h2.5v-5.3h1.7v13.3h-1.7V17.6z"/>
	</g>
</g>
</svg>
