<?xml version="1.0" encoding="utf-8"?>
<!-- Generator: Adobe Illustrator 26.0.1, SVG Export Plug-In . SVG Version: 6.00 Build 0)  -->
<svg version="1.1" id="Layer_1" xmlns="http://www.w3.org/2000/svg" xmlns:xlink="http://www.w3.org/1999/xlink" x="0px" y="0px"
	 viewBox="0 0 100 100" style="enable-background:new 0 0 100 100;" xml:space="preserve">
<style type="text/css">
	.st0{fill:#A0CC43;}
	.st1{fill:#37BAE2;}
	.st2{fill:#57C7DF;}
	.st3{fill:#FFFFFF;}
</style>
<g>
	<g>
		<path class="st0" d="M71.1,63c-0.3,0-0.5-0.1-0.8-0.2c-0.7-0.4-1-1.4-0.5-2.1c0.3-0.5,0.6-1.1,0.9-1.7c0.4-0.8,1.3-1.1,2-0.7
			c0.8,0.4,1.1,1.3,0.7,2c-0.3,0.6-0.7,1.3-1,1.9C72.1,62.7,71.6,63,71.1,63z M73.8,56.5c-0.1,0-0.3,0-0.4,0c-0.8-0.2-1.3-1-1.1-1.9
			c0.2-0.6,0.3-1.2,0.4-1.8c0.1-0.8,0.9-1.4,1.8-1.2c0.8,0.1,1.4,0.9,1.2,1.8c-0.1,0.7-0.3,1.4-0.4,2.1
			C75.1,56.1,74.5,56.5,73.8,56.5z M74.6,49.6c-0.8,0-1.5-0.7-1.5-1.5c0-0.6-0.1-1.3-0.1-1.9c-0.1-0.8,0.5-1.6,1.3-1.7
			c0.8-0.1,1.6,0.5,1.7,1.3c0.1,0.7,0.1,1.4,0.2,2.1C76.1,48.8,75.5,49.5,74.6,49.6C74.6,49.6,74.6,49.6,74.6,49.6z M73.4,42.7
			c-0.6,0-1.2-0.4-1.4-1.1c-0.2-0.6-0.4-1.2-0.7-1.8c-0.3-0.8,0-1.7,0.8-2c0.8-0.3,1.7,0,2,0.8c0.3,0.7,0.5,1.3,0.7,2
			c0.3,0.8-0.2,1.7-1,1.9C73.7,42.6,73.5,42.7,73.4,42.7z M70.3,36.4c-0.5,0-1-0.2-1.3-0.7c-0.4-0.5-0.7-1-1.1-1.5
			c-0.5-0.7-0.4-1.6,0.2-2.1c0.7-0.5,1.6-0.4,2.1,0.2c0.4,0.5,0.9,1.1,1.3,1.7c0.5,0.7,0.3,1.6-0.4,2.1
			C70.9,36.3,70.5,36.4,70.3,36.4z M65.5,31.2c-0.3,0-0.7-0.1-1-0.3c-0.5-0.4-1-0.8-1.5-1.1c-0.7-0.5-0.9-1.4-0.4-2.1
			c0.5-0.7,1.4-0.9,2.1-0.4c0.6,0.4,1.2,0.8,1.7,1.3c0.7,0.5,0.7,1.5,0.2,2.1C66.4,31,65.9,31.2,65.5,31.2z M37.2,29.2
			c-0.5,0-1-0.3-1.3-0.7c-0.4-0.7-0.2-1.7,0.5-2.1c0.6-0.4,1.2-0.7,1.9-1c0.8-0.4,1.7-0.1,2,0.7c0.4,0.8,0.1,1.7-0.7,2
			c-0.6,0.3-1.1,0.6-1.7,0.9C37.8,29.1,37.5,29.2,37.2,29.2z M59.5,27.6c-0.2,0-0.4,0-0.6-0.1c-0.6-0.2-1.2-0.5-1.8-0.7
			c-0.8-0.3-1.2-1.1-1-1.9c0.3-0.8,1.1-1.2,1.9-1c0.7,0.2,1.3,0.5,2,0.7c0.8,0.3,1.1,1.2,0.8,2C60.6,27.3,60.1,27.6,59.5,27.6z
			 M43.7,26.5c-0.7,0-1.3-0.5-1.5-1.1c-0.2-0.8,0.3-1.6,1.1-1.9c0.7-0.2,1.4-0.3,2.1-0.5c0.8-0.1,1.6,0.4,1.8,1.2
			c0.1,0.8-0.4,1.6-1.2,1.8c-0.6,0.1-1.2,0.2-1.8,0.4C44,26.5,43.8,26.5,43.7,26.5z M52.7,25.8c-0.1,0-0.1,0-0.2,0
			c-0.6-0.1-1.3-0.1-1.9-0.1c-0.8,0-1.5-0.7-1.5-1.6c0-0.8,0.8-1.5,1.6-1.5c0.7,0,1.4,0.1,2.1,0.2c0.8,0.1,1.4,0.8,1.3,1.7
			C54.1,25.3,53.5,25.8,52.7,25.8z"/>
		<path class="st0" d="M67.4,67.8c-0.4,0-0.8-0.1-1.1-0.4c-0.6-0.6-0.6-1.6,0-2.2c0.2-0.2,0.4-0.5,0.7-0.7c0.6-0.6,1.5-0.7,2.2-0.1
			c0.6,0.6,0.7,1.5,0.1,2.2c-0.2,0.3-0.5,0.5-0.7,0.8C68.1,67.6,67.8,67.8,67.4,67.8z"/>
	</g>
	<g>
		<path class="st1" d="M32.5,67.8c-0.4,0-0.8-0.1-1.1-0.4c-0.3-0.3-0.5-0.5-0.7-0.8c-0.6-0.6-0.5-1.6,0.1-2.2
			c0.6-0.6,1.6-0.5,2.2,0.1c0.2,0.2,0.4,0.5,0.7,0.7c0.6,0.6,0.6,1.6,0,2.2C33.3,67.6,32.9,67.8,32.5,67.8z"/>
		<path class="st1" d="M28.5,62.6c-0.5,0-1-0.3-1.3-0.8c-0.4-0.7-0.8-1.4-1.1-2.1c-0.3-0.8,0-1.7,0.8-2c0.8-0.4,1.7,0,2,0.8
			c0.3,0.6,0.6,1.3,1,1.9c0.4,0.7,0.2,1.7-0.6,2.1C29,62.5,28.8,62.6,28.5,62.6z M25.8,55.3c-0.7,0-1.3-0.5-1.5-1.2
			c-0.2-0.8-0.3-1.6-0.4-2.3c-0.1-0.8,0.5-1.6,1.3-1.7c0.8-0.1,1.6,0.5,1.7,1.3c0.1,0.7,0.2,1.4,0.3,2.1c0.2,0.8-0.4,1.6-1.2,1.8
			C26,55.3,25.9,55.3,25.8,55.3z M25.4,47.6c-0.1,0-0.1,0-0.2,0c-0.8-0.1-1.4-0.8-1.3-1.7c0.1-0.8,0.2-1.6,0.4-2.3
			c0.2-0.8,1-1.4,1.8-1.2c0.8,0.2,1.4,1,1.2,1.8c-0.1,0.7-0.2,1.4-0.3,2.1C26.9,47,26.2,47.6,25.4,47.6z M27.5,40.1
			c-0.2,0-0.4,0-0.6-0.1c-0.8-0.3-1.1-1.3-0.8-2c0.3-0.7,0.7-1.4,1.1-2.1c0.4-0.7,1.3-1,2.1-0.6c0.7,0.4,1,1.3,0.6,2.1
			c-0.3,0.6-0.7,1.2-0.9,1.9C28.6,39.8,28.1,40.1,27.5,40.1z"/>
		<path class="st1" d="M31.8,33.6c-0.4,0-0.7-0.1-1-0.4c-0.6-0.6-0.7-1.5-0.1-2.2c0.2-0.3,0.5-0.5,0.7-0.8c0.6-0.6,1.6-0.6,2.2,0
			c0.6,0.6,0.6,1.6,0,2.2c-0.2,0.2-0.4,0.5-0.7,0.7C32.6,33.5,32.2,33.6,31.8,33.6z"/>
	</g>
	<g>
		<g>
			<circle class="st2" cx="50.2" cy="40" r="5.2"/>
			<path class="st2" d="M68.2,58.9l-9.8-12c-0.5-0.6-1.2-0.9-1.9-0.9v0h-3.1H47h-3.2v0c-0.7,0.1-1.3,0.4-1.8,0.9l-9.8,12
				c-0.2,0.2-0.2,0.6,0.1,0.8l3.1,2.5c0.2,0.2,0.6,0.2,0.8-0.1l7.4-9.1v6.2c0,0,0,0.1,0,0.1l-6.3,17.2c-0.1,0.4,0.1,0.8,0.5,0.8h5.9
				c0.2,0,0.5-0.2,0.5-0.4l5.3-14.4h1.4l5.5,14.8h6.3c0.4,0,0.7-0.4,0.5-0.8l-6.4-17.2c0,0,0-0.1,0-0.1V53l7.4,9.1
				c0.2,0.2,0.6,0.3,0.8,0.1l3.1-2.5C68.4,59.5,68.4,59.1,68.2,58.9z"/>
		</g>
	</g>
	<path class="st3" d="M50.2,49.3c0.3-0.3,0.6-0.6,0.9-0.8c0.8-0.6,2-0.5,2.8,0.2c0.7,0.7,0.8,2,0.1,2.7c-1.1,1.2-2.3,2.3-3.5,3.4
		c-0.2,0.1-0.7,0.1-0.9-0.1c-1.1-1-2.2-2.1-3.2-3.2c-0.8-0.9-0.8-2.1,0-2.9c0.8-0.8,2-0.8,2.9-0.1C49.7,48.8,50,49,50.2,49.3z"/>
</g>
</svg>
