<?xml version="1.0" encoding="utf-8"?>
<!-- Generator: Adobe Illustrator 26.0.2, SVG Export Plug-In . SVG Version: 6.00 Build 0)  -->
<svg version="1.1" id="Layer_1" xmlns="http://www.w3.org/2000/svg" xmlns:xlink="http://www.w3.org/1999/xlink" x="0px" y="0px"
	 viewBox="0 0 286 200" style="enable-background:new 0 0 286 200;" xml:space="preserve">
<style type="text/css">
	.st0{fill:#11B8DD;}
	.st1{fill:#FFFFFF;}
	.st2{fill:#E9F3FE;}
	.st3{fill:#1F9FCC;}
	.st4{fill:#C5FFF9;}
	.st5{fill:#465150;}
	.st6{opacity:0.14;}
	.st7{fill:#3689C9;}
	.st8{fill:#FEFEFE;}
	.st9{fill:#A5A5A5;}
	.st10{fill:#707070;}
</style>
<g>
	<g>
		<g>
			<circle class="st0" cx="68.7" cy="73" r="61.5"/>
			<g>
				<path class="st1" d="M58.3,83.3c1.6-8-3.5-15.8-11.5-17.4c-8-1.6-15.8,3.5-17.4,11.5c-0.5,2.4-0.4,4.8,0.3,7.1
					c1.4,4.8,0,10.1-3.6,13.5l-8.8,8.8c4.6,6.9,10.5,12.8,17.4,17.4l8.8-8.8c3.5-3.6,8.8-5,13.5-3.6c7.8,2.3,16.1-2.2,18.3-10
					c2.3-7.8-2.2-16.1-10-18.3C63.1,83,60.7,82.8,58.3,83.3L58.3,83.3z"/>
				<path class="st1" d="M79,62.7c-1.6,8,3.5,15.8,11.5,17.4c8,1.6,15.8-3.5,17.4-11.5c0.5-2.4,0.4-4.8-0.3-7.1
					c-1.4-4.8,0-10.1,3.6-13.5l8.8-8.8c-4.6-6.9-10.5-12.8-17.4-17.4l-8.8,8.8c-3.5,3.6-8.8,5-13.5,3.6c-7.8-2.3-16.1,2.2-18.3,10
					c-2.2,7.8,2.2,16.1,10,18.3C74.2,63,76.6,63.2,79,62.7L79,62.7L79,62.7z"/>
			</g>
			<g>
				<path class="st2" d="M71.5,101.3c-3.8,3.8-9.6,6.2-15,6.2c-3.3,0-6.4-0.8-9.3-2.2L31,121.5c1.2,0.9,2.5,1.9,3.8,2.7l8.8-8.8
					c3.5-3.6,8.8-5,13.5-3.6c7.8,2.3,16.1-2.2,18.3-10c0.7-2.4,0.8-4.8,0.3-7.2C74.8,97.3,73.4,99.5,71.5,101.3z"/>
				<path class="st2" d="M120,39.1c-0.9-1.3-1.8-2.6-2.7-3.8l-16.5,16.5c0.4,1.7,0.7,3.6,0.8,5.4c0.1,2.9-0.5,5.6-1.8,8.2
					c-0.9,2.6-2.3,4.9-4.4,6.8c-2.7,2.7-6.4,4.7-10.2,5.6c1.6,1.1,3.4,1.9,5.4,2.3c8,1.6,15.8-3.5,17.4-11.5
					c0.5-2.4,0.4-4.8-0.3-7.1c-1.4-4.8,0-10.1,3.6-13.5L120,39.1z"/>
			</g>
			<g>
				<g>
					<rect x="58.8" y="122.2" class="st3" width="4.9" height="4.9"/>
					<rect x="14.5" y="77.9" class="st3" width="4.9" height="4.9"/>
					<rect x="83.4" y="114.8" class="st3" width="4.9" height="4.9"/>
					<rect x="19.5" y="55.8" class="st3" width="4.9" height="4.9"/>
					<rect x="49" y="23.8" class="st3" width="4.9" height="4.9"/>
					<rect x="71.1" y="18.9" class="st3" width="4.9" height="4.9"/>
					<rect x="85.9" y="90.2" class="st4" width="4.9" height="4.9"/>
					<rect x="44.1" y="45.9" class="st3" width="4.9" height="4.9"/>
					<rect x="117.9" y="68.1" class="st3" width="4.9" height="4.9"/>
					<rect x="108" y="92.7" class="st3" width="4.9" height="4.9"/>
				</g>
			</g>
			<g>
				<path class="st5" d="M87.2,53.5C75.6,43.3,58,44.6,47.9,56.1S39,85.3,50.6,95.4c9.6,8.3,23.6,9.1,34.1,2l23,20
					c2.9,2.5,7.3,2.2,9.8-0.7c2.5-2.9,2.2-7.3-0.7-9.8l-23-20C99.5,75.5,96.7,61.8,87.2,53.5z"/>
				<g class="st6">
					<path d="M89.9,92.8c-1.5,1.7-3.3,3.3-5.3,4.6l1.3,1.2c3.9-2.7,7.1-6.3,9.1-10.5l-1.3-1.2C92.7,89,91.4,90.9,89.9,92.8z"/>
				</g>
				<circle class="st0" cx="69.2" cy="74.5" r="21.2"/>
				<g>
					<path class="st7" d="M66.5,53.2L66.5,53.2L66.5,53.2z"/>
					<path class="st7" d="M82.7,57.7L82.7,57.7c0.1,0.1,0.3,0.2,0.4,0.4C83.1,57.9,82.8,57.8,82.7,57.7z"/>
					<path class="st7" d="M89.6,79.2c0.2-0.9,0.4-1.7,0.5-2.5c-0.1,0.8-0.3,1.6-0.5,2.4V79.2z"/>
					<path class="st1" d="M83.1,58.5c-0.4-0.4-0.8-0.7-1.2-1c-1.7,0.4-3.3,1.6-4,3.3l-2.7,5.9c-1.1,2.4-0.4,5.1,1.5,6.8l0.7,0.6
						c3.2-3.4,8.5-3.7,12-0.7c0.4,0.3,0.7,0.7,0.9,1C90.4,68.4,87.7,62.6,83.1,58.5z"/>
					<path class="st7" d="M88.9,81.3c0.2-0.5,0.4-1,0.5-1.5c-0.1,0.3-0.2,0.6-0.3,0.9C89.1,80.9,89,81.1,88.9,81.3z"/>
					<path class="st7" d="M90.1,76.7L90.1,76.7L90.1,76.7z"/>
					<path class="st7" d="M88.8,81.6c0.1-0.1,0.1-0.2,0.1-0.4C88.9,81.4,88.8,81.5,88.8,81.6z"/>
					<path class="st7" d="M89.4,79.8c0.1-0.2,0.1-0.4,0.1-0.6C89.6,79.4,89.5,79.6,89.4,79.8L89.4,79.8z"/>
				</g>
				<g class="st6">
					<path d="M77.4,74.2l-0.1-0.1l0,0l1.5,1.4c1.4,1.3,2.2,3.3,2,5.1c-0.2,2,0.5,3.9,2,5.1l0.4,0.4c0.8,0.7,1.8,1.2,2.8,1.3
						c2.8-3.7,4.3-8.2,4.4-12.8c-0.3-0.4-0.7-0.8-1.1-1.2c-0.4-0.4-0.9-0.7-1.3-0.9C84.5,70.5,80.1,71.3,77.4,74.2z"/>
				</g>
				<g>
					<path class="st1" d="M71.3,53.5c-3.8-0.4-7.5,0.2-10.9,1.8c-1.8,3.4-0.5,7.6,2.8,9.4c3.4,1.8,7.6,0.5,9.4-2.8
						C74.2,59,73.6,55.6,71.3,53.5z"/>
					<path class="st1" d="M53.2,88.3c5.7,0.7,10.9-3.5,11.6-9.2c0.7-5.7-3.5-10.9-9.2-11.6c-2.4-0.3-4.8,0.3-6.7,1.5
						C46.9,75.8,48.6,83,53.2,88.3z"/>
					<circle class="st1" cx="70" cy="89.2" r="3.5"/>
				</g>
			</g>
		</g>
		<g>
			<path d="M23,157.2v1.1H11.6v-1.1H16v-2h1.5v2H23z M14.3,163.7h7.6v1.1h-9v-3.3h7.3v-1.1h-7.3v-1.1h8.7v3.2h-7.3V163.7z
				 M19.9,156.5c0.2-1,0.2-1.8,0.2-2.5h-7.2v-1.2h8.7v0.8c0,0.8,0,1.8-0.2,3L19.9,156.5z"/>
			<path d="M26.4,160.7c2,0,3.6-0.1,5.4-0.4l0.2,1.2c-1.9,0.4-3.6,0.4-5.9,0.4h-1v-8.4h5.9v1.2h-4.4V160.7z M36.2,158.4h-2v6.6h-1.4
				v-12.7h1.4v4.9h2V158.4z"/>
			<path d="M48.7,158.1v1.2H37.3v-1.2h4.5v-2.3h1.5v2.3H48.7z M47.4,162.6c0,1.5-1.7,2.4-4.4,2.4c-2.7,0-4.5-0.9-4.5-2.4
				c0-1.5,1.7-2.4,4.5-2.4C45.7,160.3,47.4,161.2,47.4,162.6z M45.6,157.2c0.3-1.2,0.3-2.2,0.3-3.1h-7.3v-1.2h8.7v1.1
				c0,1,0,2.1-0.4,3.4L45.6,157.2z M46,162.6c0-0.8-1.1-1.2-3-1.2c-1.9,0-3,0.5-3,1.2c0,0.8,1.1,1.3,3,1.3
				C44.8,163.9,46,163.4,46,162.6z"/>
			<path d="M61.6,158.3v1.2H50.2v-1.2H61.6z M50.7,156.5c2.4-0.2,4-1.2,4.2-2.4h-3.7V153h9.3v1.2h-3.7c0.2,1.1,1.8,2.2,4.2,2.4
				l-0.5,1.1c-2.2-0.2-4-1.1-4.6-2.5c-0.7,1.3-2.4,2.2-4.6,2.5L50.7,156.5z M60.2,162.7c0,1.5-1.6,2.3-4.4,2.3
				c-2.7,0-4.4-0.8-4.4-2.3s1.7-2.3,4.4-2.3C58.6,160.3,60.2,161.2,60.2,162.7z M58.8,162.7c0-0.8-1.1-1.2-2.9-1.2s-2.9,0.4-2.9,1.2
				c0,0.8,1,1.2,2.9,1.2S58.8,163.4,58.8,162.7z"/>
			<path d="M75.8,158.4h-6v-5.5h1.4v1.7h3.1v-1.7h1.4V158.4z M72.5,163.7h7.1v1.1h-8.6v-3.3h6.7v-1.1h-6.7v-1.1h8.2v3.2h-6.7V163.7z
				 M74.3,155.6h-3.1v1.6h3.1V155.6z M81,154.9v1.2h-1.8v2.7h-1.4v-6.5h1.4v2.6H81z"/>
			<path d="M87.8,159.2c-1.1-0.4-1.9-1.3-2.4-2.3c-0.5,1.2-1.3,2.1-2.5,2.7l-0.8-1.1c1.7-0.8,2.5-2.4,2.5-3.8v-1.6h1.4v1.6
				c0,1.4,0.8,2.8,2.5,3.4L87.8,159.2z M93,162.7c0,1.4-1.7,2.3-4.3,2.3c-2.6,0-4.3-0.9-4.3-2.3c0-1.5,1.7-2.3,4.3-2.3
				C91.4,160.3,93,161.2,93,162.7z M91.6,162.7c0-0.8-1.1-1.2-2.8-1.2c-1.8,0-2.8,0.4-2.8,1.2c0,0.8,1.1,1.2,2.8,1.2
				C90.5,163.9,91.6,163.4,91.6,162.7z M90.2,159.7h-1.4v-7.1h1.4v3h1.3v-3.2h1.4v7.8h-1.4v-3.3h-1.3V159.7z"/>
			<path d="M106.6,159.7c-1.1,0.2-2.3,0.3-3.4,0.4v4.4h-1.4v-4.4c-1.2,0-2.3,0.1-3.3,0.1l-0.2-1.2c2.3,0,5.5,0,8.2-0.4L106.6,159.7z
				 M99.1,155.5c0-1.6,1.4-2.6,3.3-2.6s3.3,1.1,3.3,2.6c0,1.6-1.4,2.7-3.3,2.7S99.1,157.1,99.1,155.5z M100.5,155.5
				c0,0.9,0.8,1.5,1.9,1.5c1.1,0,1.9-0.6,1.9-1.5c0-0.9-0.8-1.5-1.9-1.5C101.3,154.1,100.5,154.6,100.5,155.5z M108.7,152.3V165
				h-1.4v-12.7H108.7z"/>
			<path d="M118.5,154.7h-7.3v-1.1h2.9v-1.3h1.5v1.3h2.9V154.7z M114.9,159.8c-1.7,0-3-0.9-3-2.3c0-1.3,1.2-2.3,3-2.3
				c1.7,0,3,0.9,3,2.3C117.8,158.9,116.6,159.8,114.9,159.8z M114.9,158.7c0.9,0,1.6-0.5,1.6-1.2c0-0.7-0.7-1.2-1.6-1.2
				s-1.6,0.5-1.6,1.2C113.3,158.2,113.9,158.7,114.9,158.7z M113.3,160.6h8.3v4.2h-8.3V160.6z M114.7,163.7h5.5v-1.9h-5.5V163.7z
				 M121.6,152.3v7.7h-1.4v-2.7h-1.9v-1.2h1.9v-3.8H121.6z"/>
			<path d="M27.5,169.9c0,3.3-2.2,5.6-5.9,6.6l-0.6-1.1c3-0.8,4.7-2.3,4.9-4.2h-4.3v-1.2H27.5z M22.9,176.8H31v4.8h-8.1V176.8z
				 M24.4,180.5h5.2V178h-5.2V180.5z M32.8,173.3H31v3h-1.4v-7.1H31v2.9h1.8V173.3z"/>
			<path d="M45.5,179v1.2H34V179H39v-3h1.4v3H45.5z M44.4,176.3c-2.1-0.4-3.9-1.7-4.7-3.3c-0.8,1.7-2.6,2.9-4.7,3.3l-0.6-1.2
				c2.5-0.4,4.5-2.3,4.5-4.3v-1h1.5v1c0,2,2,3.8,4.5,4.3L44.4,176.3z"/>
			<path d="M53.8,169.4h1.3v11.8h-1.3v-6.1h-1.3c-0.1,2.5-1.2,4-2.7,4c-1.6,0-2.7-1.7-2.7-4.5s1.1-4.5,2.7-4.5
				c1.5,0,2.5,1.4,2.7,3.8h1.4V169.4z M51.1,174.6c0-2-0.5-3.1-1.4-3.1c-0.9,0-1.4,1.1-1.4,3.1s0.5,3.1,1.4,3.1
				C50.6,177.7,51.1,176.6,51.1,174.6z M57.7,169.1v12.6h-1.4v-12.6H57.7z"/>
			<path d="M74.4,179.1v1.2H62.9v-1.2h5v-3h-3.6v-6H73v1.2h-7.2v3.7h7.3v1.2h-3.7v3H74.4z"/>
			<path d="M82.2,176.1v1.3h3.6v4.2h-8.7v-4.2h3.6v-1.3h-5V175h11.4v1.2H82.2z M77,171.8c0-1.5,1.8-2.4,4.5-2.4
				c2.8,0,4.5,0.9,4.5,2.4c0,1.5-1.8,2.4-4.5,2.4C78.8,174.1,77,173.2,77,171.8z M78.5,171.8c0,0.8,1.1,1.3,3,1.3c1.9,0,3-0.5,3-1.3
				c0-0.8-1.1-1.3-3-1.3C79.6,170.5,78.5,170.9,78.5,171.8z M84.4,178.5h-5.8v1.9h5.8V178.5z"/>
			<path d="M100.1,174.4v1.1H88.7v-1.1H100.1z M89.9,171.5c0-1.4,1.7-2.2,4.5-2.2c2.8,0,4.5,0.8,4.5,2.2c0,1.4-1.7,2.2-4.5,2.2
				C91.6,173.7,89.9,172.9,89.9,171.5z M91.5,180.6h7.6v1.1h-9v-3.2h7.2v-0.9H90v-1.1h8.7v3h-7.2V180.6z M91.4,171.5
				c0,0.7,1.1,1.1,3,1.1c2,0,3-0.4,3-1.1c0-0.7-1.1-1.1-3-1.1C92.4,170.4,91.4,170.8,91.4,171.5z"/>
			<path d="M111.1,176v1.4h3.6v4.2h-8.7v-4.2h3.6V176h-5v-1.2h11.4v1.2H111.1z M105.3,173.1c2.3-0.2,3.9-1.2,4.2-2.4h-3.7v-1.2h9.3
				v1.2h-3.7c0.2,1.1,1.8,2.1,4.2,2.4l-0.5,1.1c-2.2-0.2-4-1.2-4.6-2.5c-0.7,1.3-2.4,2.2-4.6,2.5L105.3,173.1z M113.3,178.6h-5.8
				v1.9h5.8V178.6z"/>
		</g>
	</g>
	<g>
		<g>
			<circle class="st0" cx="217.3" cy="73" r="61.5"/>
			<g>
				<path class="st8" d="M246.1,49.1c0.7,2,1.6,3.8,1.8,5.9c0.4,3.7-0.4,7.2-1.1,10.8c-0.9,4.7-2.5,7.3-4.3,11.7
					c-1.5,3.7-2.1,7.5-1.9,11.5c0.2,5.6,0,11.1-1.7,16.4c-0.4,1.3-0.9,2.6-1.7,3.7c-1.3,1.7-2.7,1.9-4.3,0.4
					c-1.6-1.5-2.5-3.5-3.6-5.4c-2-3.5-3.6-7.2-6-10.4c-0.8-1.1-1.7-2.1-2.7-2.9c-1.9-1.4-3.8-1.3-5.7,0.1c-1.7,1.3-3,3-4,4.8
					c-1.9,3.3-3.6,6.5-5.4,9.8c-0.8,1.4-1.7,2.9-2.9,4.1c-0.7,0.7-1.5,1.2-2.6,0.9c-2.4-1.3-3.1-3.6-3.7-6
					c-1.2-4.5-1.7-9.1-1.4-13.7c0.4-5.6-0.7-10.9-2.9-16c-2.6-6-4.1-10.4-4.4-16.9c-0.5-8.9,5.8-14.9,13.3-15.2
					c2.7-0.1,5.1,0.6,7.6,1.7c5.5,2.6,11.1,3,16.8,0.8c1.3-0.5,2.6-1.2,4-1.7c5.5-1.8,10.4-1,14.7,3c0.7,0.7,1.4,1.4,2,2.2
					C245.9,49.1,245.9,49.2,246.1,49.1L246.1,49.1z"/>
				<path class="st2" d="M195.4,75.7c-0.1-0.1-0.1-0.2-0.1-0.4c-2.7-4.1-4.4-9-4.9-13.7c-0.4-1-0.4-2.2-0.2-3.4
					c0.1-0.4,0.1-0.9,0.3-1.4c0-1.6,0.2-3.2,0.7-4.7c-0.9,0-1.8,0-2.7-0.1c-0.6,1.7-0.8,3.6-0.7,5.7c0.4,6.5,1.9,10.9,4.4,16.9
					c2.2,5.1,3.3,10.4,2.9,16c-0.3,4.6,0.1,9.3,1.4,13.7c0.7,2.3,1.3,4.7,3.7,6c1,0.1,1.9-0.3,2.6-0.9c0.7-0.6,1.2-1.2,1.6-2
					c-4.1-4.1-5.2-10.8-5.9-16.6C197.7,85.7,197.5,80.9,195.4,75.7z"/>
				<path class="st2" d="M229.3,97.9c-2.2-2-6.1-10-9.9-8.1c-0.2,0.1-0.4,0.2-0.7,0.3c0.7,0.1,1.3,0.4,1.9,0.9
					c1.1,0.8,2,1.8,2.7,2.9c2.4,3.3,4.1,6.9,6,10.4c1,1.9,2,3.8,3.6,5.4c1.6,1.5,3,1.4,4.3-0.4c0.9-1.1,1.4-2.4,1.7-3.7
					c0.3-1,0.6-2.1,0.8-3.1C235.9,102.4,232.3,100.6,229.3,97.9z"/>
				<path class="st9" d="M188.2,63.4c3.3-4.1,7.9-6.3,12.2-9.2c2.1-1.4,4.2-3,5.2-5.4c1.1-2.5,0.3-4.1-1.2-5.8
					c-1.2-0.2-2.3-0.4-3.5-0.3c-7.5,0.2-13.8,6.3-13.3,15.2C187.6,59.9,187.9,61.7,188.2,63.4z"/>
				<path class="st10" d="M195.3,44.1c-4.8,2.2-8.1,7.2-7.7,13.8c0.1,2,0.4,3.8,0.7,5.4c0.9-1,1-1.3,2-2.1
					C190.3,55.1,191.6,49.2,195.3,44.1z"/>
				<path class="st9" d="M238.1,67c0.9-4.3-1.1-8.8-6.4-10.1c-0.7-0.1-1.2-0.2-1.8-0.3c0,0-0.1,0-0.2,0c-4.2-0.1-6.5,3.1-7.2,6.5
					s1.7,6.1,1,10.3c-0.5,2.7,0.9,5.4,3.7,5.9c0.7,0.1,1.3,0.2,1.9,0.1c0.1,0,0.4-0.1,0.4-0.1c1.9-0.5,3.4-2,3.8-4
					C233.9,72,237.5,70.3,238.1,67L238.1,67z"/>
				<path class="st10" d="M229,79.4c0.1,0,0.3,0.1,0.4,0.1c-0.7,0.2-1.5,0.2-2.3,0.1c-2.7-0.5-4.6-3.3-4.1-6.2
					c0.7-4.3-1.7-6.9-0.9-10.3c0.7-3.5,3.5-6.7,7.8-6.6c-3.3,0.7-5.4,3.5-5.9,6.4c-0.7,3.4,1.7,6.1,0.9,10.3
					C224.4,76,226.2,78.9,229,79.4L229,79.4z"/>
				<g>
					<g>
						<path class="st10" d="M226.3,67.2c-0.4,0-0.9-0.3-1-0.8L225,65c-0.1-0.5,0.2-1.1,0.8-1.2c0.5-0.1,1.1,0.2,1.2,0.8l0.3,1.4
							c0.1,0.5-0.2,1.1-0.8,1.2C226.5,67.2,226.4,67.2,226.3,67.2z"/>
					</g>
					<g>
						<path class="st10" d="M232.8,62.8c-0.3,0-0.5-0.1-0.7-0.3l-0.9-1.1c-0.4-0.4-0.4-1,0.1-1.4s1-0.4,1.4,0.1l0.9,1
							c0.4,0.4,0.4,1-0.1,1.4C233.3,62.7,233,62.8,232.8,62.8z"/>
					</g>
					<g>
						<path class="st10" d="M230.4,73.1c-0.1,0-0.3,0-0.4-0.1c-0.5-0.2-0.7-0.8-0.5-1.3l0.6-1.3c0.2-0.5,0.8-0.7,1.3-0.5
							c0.5,0.2,0.7,0.8,0.5,1.3l-0.6,1.3C231.2,72.9,230.8,73.1,230.4,73.1z"/>
					</g>
					<g>
						<path class="st10" d="M234.6,67.6c-0.5,0-0.9-0.4-1-0.9l-0.2-1.4c-0.1-0.6,0.3-1.1,0.8-1.2c0.6-0.1,1.1,0.3,1.2,0.8l0.2,1.4
							c0.1,0.6-0.3,1.1-0.8,1.2C234.6,67.6,234.6,67.6,234.6,67.6z"/>
					</g>
				</g>
				<circle class="st10" cx="227.4" cy="61.4" r="1"/>
				<circle class="st10" cx="230.4" cy="65.5" r="1"/>
				<circle class="st10" cx="227.4" cy="69.4" r="1"/>
				<circle class="st10" cx="228.3" cy="75.5" r="1"/>
				<g>
					<g>
						<g>
							<path class="st10" d="M200.1,48.8c-0.4,0-0.8-0.3-0.9-0.7c-0.1-0.5,0.1-1.1,0.7-1.3l1.4-0.4c0.5-0.1,1.1,0.1,1.3,0.7
								c0.1,0.5-0.1,1.1-0.7,1.3l-1.4,0.4C200.3,48.8,200.1,48.8,200.1,48.8z"/>
						</g>
						<g>
							<path class="st10" d="M194.7,54.8c-0.1,0-0.3,0-0.4-0.1c-0.5-0.2-0.7-0.8-0.5-1.3l0.6-1.3c0.2-0.5,0.8-0.7,1.3-0.5
								c0.5,0.2,0.7,0.8,0.5,1.3l-0.7,1.2C195.4,54.6,195.1,54.8,194.7,54.8z"/>
						</g>
					</g>
					<circle class="st10" cx="196.5" cy="49.1" r="1"/>
				</g>
			</g>
		</g>
		<g>
			<path d="M198.7,159.6v1.1c2.3,0.1,3.6,0.9,3.6,2.1c0,1.4-1.6,2.1-4.4,2.1c-2.7,0-4.4-0.8-4.4-2.1c0-1.2,1.4-2,3.7-2.1v-1.1h-5
				v-1.1h11.4v1.1H198.7z M192.9,156.8c2.5-0.2,4.1-1.1,4.3-2.2h-3.7v-1.1h3.9v-1.2h1.4v1.2h3.9v1.1h-3.7c0.2,1.1,1.8,2,4.3,2.2
				l-0.4,1.1c-2.2-0.2-3.9-0.9-4.7-2c-0.8,1.1-2.5,1.8-4.7,2L192.9,156.8z M198,161.8c-1.9,0-2.9,0.4-2.9,1.1s1,1,2.9,1
				c1.9,0,2.9-0.4,2.9-1S199.9,161.8,198,161.8z"/>
			<path d="M210,156.4c0,2,1.2,4,3.2,4.9l-0.8,1.1c-1.4-0.6-2.5-1.9-3.1-3.5c-0.6,1.7-1.7,3.1-3.1,3.7l-0.8-1.1c2-0.9,3.2-3,3.2-5.1
				v-0.7h-2.8v-1.2h2.8v-1.9h1.4v1.9h2.7v1.2H210V156.4z M215.6,152.3V165h-1.5v-12.6H215.6z"/>
			<path d="M224.5,158.4h-6v-5.5h1.4v1.7h3.1v-1.7h1.4V158.4z M221.2,163.7h7.1v1.1h-8.6v-3.3h6.7v-1.1h-6.7v-1.1h8.2v3.2h-6.7
				V163.7z M223,155.6h-3.1v1.6h3.1V155.6z M229.7,154.9v1.2h-1.8v2.7h-1.4v-6.5h1.4v2.6H229.7z"/>
			<path d="M236.5,159.2c-1.1-0.4-1.9-1.3-2.4-2.3c-0.5,1.2-1.3,2.1-2.5,2.7l-0.8-1.1c1.7-0.8,2.5-2.4,2.5-3.8v-1.6h1.4v1.6
				c0,1.4,0.8,2.8,2.5,3.4L236.5,159.2z M241.7,162.7c0,1.4-1.7,2.3-4.3,2.3c-2.6,0-4.3-0.9-4.3-2.3c0-1.5,1.7-2.3,4.3-2.3
				C240.1,160.3,241.7,161.2,241.7,162.7z M240.3,162.7c0-0.8-1.1-1.2-2.8-1.2c-1.8,0-2.8,0.4-2.8,1.2c0,0.8,1.1,1.2,2.8,1.2
				C239.2,163.9,240.3,163.4,240.3,162.7z M238.9,159.7h-1.4v-7.1h1.4v3h1.3v-3.2h1.4v7.8h-1.4v-3.3h-1.3V159.7z"/>
			<path d="M163.7,176.5c-1.1,0.2-2.3,0.3-3.4,0.4v4.4h-1.4v-4.4c-1.2,0-2.3,0.1-3.3,0.1l-0.2-1.2c2.3,0,5.5,0,8.2-0.4L163.7,176.5z
				 M156.2,172.3c0-1.6,1.4-2.6,3.3-2.6c1.9,0,3.3,1.1,3.3,2.6c0,1.6-1.4,2.7-3.3,2.7C157.6,175,156.2,173.9,156.2,172.3z
				 M157.6,172.3c0,0.9,0.8,1.5,1.9,1.5c1.1,0,1.9-0.6,1.9-1.5c0-0.9-0.8-1.5-1.9-1.5C158.4,170.9,157.6,171.4,157.6,172.3z
				 M165.8,169.1v12.7h-1.4v-12.7H165.8z"/>
			<path d="M175.6,171.5h-7.3v-1.1h2.9V169h1.5v1.3h2.9V171.5z M172,176.6c-1.7,0-3-0.9-3-2.3c0-1.3,1.2-2.3,3-2.3
				c1.7,0,3,0.9,3,2.3C174.9,175.7,173.7,176.6,172,176.6z M172,175.5c0.9,0,1.6-0.5,1.6-1.2c0-0.7-0.7-1.2-1.6-1.2
				c-0.9,0-1.6,0.5-1.6,1.2C170.4,175,171,175.5,172,175.5z M170.4,177.4h8.3v4.2h-8.3V177.4z M171.8,180.5h5.5v-1.9h-5.5V180.5z
				 M178.7,169.1v7.7h-1.4v-2.7h-1.9v-1.2h1.9v-3.8H178.7z"/>
			<path d="M190.7,169.9c0,3.3-2.2,5.6-5.9,6.6l-0.6-1.1c3-0.8,4.7-2.3,4.9-4.2h-4.3v-1.2H190.7z M186.1,176.8h8.1v4.8h-8.1V176.8z
				 M187.5,180.5h5.2V178h-5.2V180.5z M196,173.3h-1.8v3h-1.4v-7.1h1.4v2.9h1.8V173.3z"/>
			<path d="M208.6,179v1.2h-11.5V179h4.9v-3h1.4v3H208.6z M207.5,176.3c-2.1-0.4-3.9-1.7-4.7-3.3c-0.8,1.7-2.6,2.9-4.7,3.3l-0.6-1.2
				c2.5-0.4,4.5-2.3,4.5-4.3v-1h1.5v1c0,2,2,3.8,4.5,4.3L207.5,176.3z"/>
			<path d="M216.9,169.4h1.3v11.8h-1.3v-6.1h-1.3c-0.1,2.5-1.2,4-2.7,4c-1.6,0-2.7-1.7-2.7-4.5s1.1-4.5,2.7-4.5
				c1.5,0,2.5,1.4,2.7,3.8h1.4V169.4z M214.3,174.6c0-2-0.5-3.1-1.4-3.1c-0.9,0-1.4,1.1-1.4,3.1s0.5,3.1,1.4,3.1
				C213.8,177.7,214.3,176.6,214.3,174.6z M220.8,169.1v12.6h-1.4v-12.6H220.8z"/>
			<path d="M237.5,179.1v1.2h-11.5v-1.2h5v-3h-3.6v-6h8.7v1.2h-7.2v3.7h7.3v1.2h-3.7v3H237.5z"/>
			<path d="M245.4,176.1v1.3h3.6v4.2h-8.7v-4.2h3.6v-1.3h-5V175h11.4v1.2H245.4z M240.2,171.8c0-1.5,1.8-2.4,4.5-2.4
				c2.8,0,4.5,0.9,4.5,2.4c0,1.5-1.8,2.4-4.5,2.4C241.9,174.1,240.2,173.2,240.2,171.8z M241.6,171.8c0,0.8,1.1,1.3,3,1.3
				c1.9,0,3-0.5,3-1.3c0-0.8-1.1-1.3-3-1.3C242.8,170.5,241.6,170.9,241.6,171.8z M247.6,178.5h-5.8v1.9h5.8V178.5z"/>
			<path d="M263.3,174.4v1.1h-11.5v-1.1H263.3z M253,171.5c0-1.4,1.7-2.2,4.5-2.2c2.8,0,4.5,0.8,4.5,2.2c0,1.4-1.7,2.2-4.5,2.2
				C254.7,173.7,253,172.9,253,171.5z M254.6,180.6h7.6v1.1h-9v-3.2h7.2v-0.9h-7.2v-1.1h8.7v3h-7.2V180.6z M254.5,171.5
				c0,0.7,1,1.1,3,1.1c2,0,3-0.4,3-1.1c0-0.7-1-1.1-3-1.1C255.6,170.4,254.5,170.8,254.5,171.5z"/>
			<path d="M274.3,176v1.4h3.6v4.2h-8.7v-4.2h3.6V176h-5v-1.2h11.4v1.2H274.3z M268.4,173.1c2.3-0.2,3.9-1.2,4.2-2.4h-3.7v-1.2h9.3
				v1.2h-3.7c0.2,1.1,1.8,2.1,4.2,2.4l-0.5,1.1c-2.2-0.2-4-1.2-4.6-2.5c-0.7,1.3-2.4,2.2-4.6,2.5L268.4,173.1z M276.5,178.6h-5.8
				v1.9h5.8V178.6z"/>
		</g>
	</g>
</g>
</svg>
