<?xml version="1.0" encoding="utf-8"?>
<!-- Generator: Adobe Illustrator 26.0.1, SVG Export Plug-In . SVG Version: 6.00 Build 0)  -->
<svg version="1.1" id="Layer_1" xmlns="http://www.w3.org/2000/svg" xmlns:xlink="http://www.w3.org/1999/xlink" x="0px" y="0px"
	 viewBox="0 0 420 280" style="enable-background:new 0 0 420 280;" xml:space="preserve">
<style type="text/css">
	.st0{fill:#D0EDFB;}
	.st1{fill:#FFFFFF;}
	.st2{fill:#E4E4E4;}
	.st3{fill:#223F99;}
	.st4{fill:#273C82;}
	.st5{opacity:5.000000e-02;}
	.st6{fill:#F5F5F5;}
	.st7{fill:#52C0B2;}
	.st8{fill:#FCD305;}
	.st9{fill:#4A9FD8;}
	.st10{fill:#DC4343;}
	.st11{fill:#3ABFC5;}
	.st12{fill:#2DB9A3;}
	.st13{fill:#DBB227;}
	.st14{fill:#3688C8;}
	.st15{fill:#C52D2E;}
</style>
<g>
	<path class="st0" d="M413.8,243c0,24.5-93.9,27.9-209.8,27.9S6.6,267.5,6.6,243s81.6-44.4,197.5-44.4S413.8,218.5,413.8,243z"/>
	<g>
		<g>
			<g>
				<polygon class="st1" points="230.5,256.3 169.3,256.3 172.3,211.4 227.5,211.4 				"/>
			</g>
			<g>
				<rect x="157.6" y="251.8" class="st1" width="84.6" height="4.6"/>
			</g>
			<g>
				<polygon class="st2" points="227.5,211.4 172.3,211.4 171.2,228 228.6,228 				"/>
			</g>
			<g>
				<path class="st3" d="M337.8,186H62V46.2c0-5,4.1-9.1,9.1-9.1h257.6c5,0,9.1,4.1,9.1,9.1V186z"/>
			</g>
			<g>
				<rect x="62" y="183" class="st4" width="275.8" height="3"/>
			</g>
			<g>
				<path class="st4" d="M334.6,39.3v123.6h3.2V46.2C337.8,43.5,336.6,41,334.6,39.3z"/>
			</g>
			<g class="st5">
				<path class="st6" d="M184.9,37.1H71.1c-5,0-9.1,4.1-9.1,9.1V160C103,119,144,78.1,184.9,37.1z"/>
			</g>
			<g class="st5">
				<path class="st6" d="M62,184.2v13.5c53.5-53.5,107.1-107.1,160.6-160.6h-13.5L62,184.2z"/>
			</g>
			<g>
				<path class="st1" d="M62,186v21.7c0,5,4.1,9.1,9.1,9.1h257.6c5,0,9.1-4.1,9.1-9.1V186H62z"/>
			</g>
		</g>
		<g>
			<g>
				<g>
					<path class="st1" d="M200.5,103.9v-2.5c0-0.3-0.2-0.5-0.5-0.5h-11.2c-0.3,0-0.5,0.2-0.5,0.5v3.3c0,0.3,0.2,0.5,0.5,0.5h11.4
						c0.5,0,0.9,0.1,1.4,0.3c1.3,0.5,2.2,1.6,2.4,3c0,0.1,0,0.2,0,0.3c0,0.1,0,0.2,0,0.3v3.8c0,1.4-0.7,2.5-1.8,3.2
						c-0.5,0.3-1.1,0.5-1.8,0.6c-0.1,0-0.2,0-0.3,0h-11.7c-0.1,0-0.2,0-0.3,0c-2-0.1-3.6-1.8-3.6-3.8v-1.3l3.6-1.5v2.5
						c0,0.3,0.2,0.5,0.5,0.5H200c0.3,0,0.5-0.2,0.5-0.5v-3.3c0-0.3-0.2-0.5-0.5-0.5h-11.4c-0.5,0-0.9-0.1-1.4-0.3
						c-1.2-0.5-2.1-1.5-2.4-2.8c0-0.2-0.1-0.3-0.1-0.5c0-0.1,0-0.2,0-0.3v-3.8c0-0.1,0-0.2,0-0.3c0,0,0-0.1,0-0.1
						c0-0.3,0.1-0.6,0.2-0.9c0.5-1.5,1.9-2.5,3.6-2.5h11.7c0.1,0,0.2,0,0.3,0c0.9,0.1,1.7,0.4,2.3,1c0.8,0.7,1.3,1.7,1.3,2.8v1.3
						L200.5,103.9z M230.4,97.3v13.9l-11.7-13.9h-4.1v19.3h3.6v-13.8l11.6,13.8h4.1V97.3H230.4z M211.1,97.3h-3.6v19.3h3.6V97.3z
						 M165.3,110.5c-0.4,0.2-0.9,0.3-1.4,0.3c-0.4,0-0.8-0.1-1.2-0.2c-0.3-0.1-0.7,0.1-0.7,0.5v5.6h3.6v-5.9
						C165.5,110.6,165.4,110.5,165.3,110.5z M177.7,97.3v7.9h-8.2c-0.8,0-1.5,0.7-1.5,1.5v0c0,0.6-0.1,1.2-0.4,1.8
						c-0.1,0.1,0,0.3,0.2,0.3l10,0v7.9h3.6V97.3H177.7z"/>
					<path class="st1" d="M166.8,106.7c0,0.8-0.3,1.5-0.8,2.1c-0.6,0.6-1.4,1-2.3,1c-1.7,0-3.1-1.4-3.1-3.1c0-0.4,0.1-0.7,0.2-1
						c0,0,0,0,0,0c0,0,0-0.1,0-0.1c0.2-0.5,0.3-1,0.3-1.5c0-0.2,0-0.4,0-0.5c-0.2-1.4-1.1-2.7-2.3-3.3c0,0-0.1,0-0.1-0.1
						c-1-0.5-1.6-1.5-1.6-2.7c0-1.7,1.4-3.1,3.1-3.1c1.7,0,3.1,1.4,3.1,3.1c0,0.3,0,0.6-0.1,0.9c0,0.1-0.1,0.2-0.1,0.3
						c0,0,0,0.1,0,0.1c0,0,0,0,0,0c-0.1,0.4-0.2,0.9-0.2,1.3c0,0.9,0.3,1.8,0.8,2.5c0.4,0.5,0.9,1,1.4,1.3c0,0,0,0,0,0
						c0.1,0,0.1,0.1,0.2,0.1c0,0,0.1,0,0.1,0c0,0,0,0,0,0c0.5,0.3,0.9,0.7,1.1,1.1C166.7,105.6,166.8,106.1,166.8,106.7z M167,99.4
						c-1.1,0-2.1,0.9-2.1,2.1c0,0.7,0.3,1.3,0.9,1.7c0.1,0,0.1,0.1,0.2,0.1c0,0,0,0,0,0c0.3,0.2,0.6,0.2,1,0.2
						c1.1,0,2.1-0.9,2.1-2.1C169,100.3,168.1,99.4,167,99.4z M153.1,96.9c-1,0-1.8,0.8-1.8,1.8c0,1,0.8,1.8,1.8,1.8
						c1,0,1.8-0.8,1.8-1.8C154.9,97.7,154.1,96.9,153.1,96.9z M157.2,101.3c-0.7,0-1.3,0.6-1.3,1.3c0,0.7,0.6,1.3,1.3,1.3
						s1.3-0.6,1.3-1.3C158.5,101.9,158,101.3,157.2,101.3z"/>
				</g>
				<g>
					<g>
						<path class="st1" d="M153.6,127.8v7.7h-1.3v-3.6h-2.6l0,0c-0.1,0.2-0.3,0.4-0.5,0.7c-0.2,0.2-0.5,0.4-0.9,0.6
							c-0.4,0.2-0.8,0.5-1.3,0.7c-0.5,0.2-1.1,0.5-1.7,0.8l-0.5-1.1c0.8-0.3,1.5-0.6,2-0.9c0.5-0.3,0.9-0.5,1.2-0.7
							c0.3-0.2,0.5-0.5,0.6-0.7c0.1-0.2,0.1-0.5,0.1-0.9v-0.7h-3.4v-1.1h4.8v2.2h2.3v-2.9H153.6z"/>
						<polygon class="st1" points="153.8,137.4 153.8,138.5 146.7,138.5 146.7,135 148,135 148,137.4 						"/>
						<polygon class="st1" points="165.1,130.2 165.1,131.4 163.7,131.4 163.7,134.1 162.3,134.1 162.3,127.8 163.7,127.8 
							163.7,130.2 						"/>
						<path class="st1" d="M163.5,135.6c-0.2-0.3-0.4-0.5-0.7-0.7c-0.3-0.2-0.6-0.3-1.1-0.4c-0.4-0.1-0.9-0.2-1.4-0.2
							c-0.5,0-1,0.1-1.4,0.2c-0.4,0.1-0.8,0.2-1.1,0.4c-0.3,0.2-0.5,0.4-0.7,0.7c-0.2,0.3-0.2,0.5-0.2,0.8v0.5
							c0,0.3,0.1,0.6,0.2,0.8c0.2,0.3,0.4,0.5,0.7,0.7c0.3,0.2,0.6,0.3,1.1,0.4c0.4,0.1,0.9,0.1,1.4,0.1c0.5,0,1-0.1,1.4-0.1
							c0.4-0.1,0.8-0.2,1.1-0.4c0.3-0.2,0.5-0.4,0.7-0.7c0.2-0.2,0.2-0.5,0.2-0.8v-0.5C163.7,136.1,163.6,135.8,163.5,135.6z
							 M162.4,136.8c0,0.1-0.1,0.3-0.1,0.4c-0.1,0.1-0.2,0.2-0.4,0.3c-0.2,0.1-0.4,0.2-0.6,0.3c-0.2,0.1-0.5,0.1-0.8,0.1
							c-0.3,0-0.6,0-0.8-0.1c-0.2-0.1-0.5-0.1-0.6-0.3c-0.2-0.1-0.3-0.2-0.4-0.3c-0.1-0.1-0.1-0.3-0.1-0.4v-0.3c0-0.1,0-0.3,0.1-0.4
							c0.1-0.1,0.2-0.2,0.4-0.3c0.2-0.1,0.4-0.2,0.6-0.3c0.2-0.1,0.5-0.1,0.8-0.1c0.3,0,0.6,0,0.8,0.1c0.2,0.1,0.5,0.1,0.6,0.3
							c0.2,0.1,0.3,0.2,0.4,0.3c0.1,0.1,0.1,0.3,0.1,0.4V136.8z"/>
						<path class="st1" d="M160.3,128.4v1.8c0,0.3,0,0.6-0.1,0.8c-0.1,0.2-0.2,0.5-0.3,0.7c-0.1,0.2-0.3,0.4-0.5,0.6
							c-0.2,0.2-0.5,0.4-0.9,0.6c-0.3,0.2-0.8,0.4-1.2,0.6c-0.5,0.2-1,0.4-1.6,0.7l-0.5-1.1c0.8-0.3,1.5-0.6,2-0.9
							c0.5-0.3,0.9-0.5,1.2-0.7c0.3-0.2,0.5-0.5,0.6-0.7c0.1-0.2,0.1-0.5,0.1-0.8v-0.6h-3.4v-1.1H160.3z"/>
						<path class="st1" d="M171.2,128.8v2.1c0,0.4,0,0.7-0.1,1.1c0,0.3-0.1,0.6-0.2,0.9c-0.1,0.3-0.3,0.5-0.5,0.8
							c-0.2,0.3-0.5,0.5-0.8,0.8c-0.3,0.3-0.7,0.6-1.2,0.9c-0.5,0.3-1,0.7-1.6,1l-0.7-1c0.6-0.3,1.1-0.6,1.5-0.9
							c0.4-0.3,0.8-0.5,1.1-0.8c0.3-0.2,0.5-0.5,0.7-0.7c0.2-0.2,0.3-0.4,0.4-0.6c0.1-0.2,0.1-0.5,0.2-0.7c0-0.2,0-0.5,0-0.8v-0.9
							h-3.6v-1.1H171.2z"/>
						<rect x="173.4" y="127.8" class="st1" width="1.4" height="10.8"/>
						<path class="st1" d="M184.3,135.8c-0.2-0.2-0.4-0.4-0.7-0.6c-0.3-0.2-0.7-0.3-1.1-0.4c-0.4-0.1-0.9-0.1-1.4-0.1
							c-0.5,0-0.9,0-1.4,0.1c-0.4,0.1-0.8,0.2-1.1,0.4c-0.3,0.2-0.6,0.4-0.7,0.6c-0.2,0.2-0.3,0.5-0.3,0.9v0.4
							c0,0.3,0.1,0.6,0.3,0.9c0.2,0.2,0.4,0.4,0.7,0.6c0.3,0.2,0.7,0.3,1.1,0.4c0.9,0.2,1.9,0.2,2.7,0c0.4-0.1,0.8-0.2,1.1-0.4
							c0.3-0.2,0.6-0.4,0.7-0.6c0.2-0.2,0.3-0.5,0.3-0.9v-0.4C184.6,136.3,184.5,136,184.3,135.8z M183.3,136.9
							c0,0.2-0.1,0.3-0.2,0.4c-0.1,0.1-0.3,0.2-0.5,0.3c-0.2,0.1-0.4,0.1-0.7,0.2c-0.3,0-0.5,0.1-0.8,0.1c-0.3,0-0.5,0-0.8-0.1
							c-0.3,0-0.5-0.1-0.7-0.2c-0.2-0.1-0.4-0.2-0.5-0.3c-0.1-0.1-0.2-0.3-0.2-0.4v-0.2c0-0.2,0.1-0.3,0.2-0.4
							c0.1-0.1,0.3-0.2,0.5-0.3c0.2-0.1,0.4-0.1,0.7-0.2c0.5-0.1,1.1-0.1,1.6,0c0.3,0,0.5,0.1,0.7,0.2c0.2,0.1,0.4,0.2,0.5,0.3
							c0.1,0.1,0.2,0.3,0.2,0.4V136.9z"/>
						<polygon class="st1" points="184.6,130.7 184.6,131.8 177.5,131.8 177.5,128.1 178.8,128.1 178.8,130.7 						"/>
						<rect x="176.1" y="132.9" class="st1" width="10" height="1.1"/>
						<rect x="194.3" y="127.8" class="st1" width="1.3" height="6.3"/>
						<polygon class="st1" points="195.7,134.7 195.7,138.7 194.3,138.7 194.3,135.8 188.5,135.8 188.5,134.7 						"/>
						<path class="st1" d="M193.1,132.7l-0.8,0.9c-0.2-0.2-0.4-0.3-0.7-0.5c-0.3-0.2-0.5-0.4-0.8-0.6c-0.2-0.2-0.4-0.3-0.5-0.4
							c-0.1-0.1-0.2-0.2-0.3-0.3l0-0.1h-0.1l0,0.1c0,0.1-0.1,0.2-0.2,0.3c-0.1,0.1-0.3,0.3-0.5,0.5c-0.3,0.2-0.5,0.5-0.8,0.7
							c-0.3,0.2-0.6,0.5-0.9,0.7l-0.8-1c0.3-0.2,0.6-0.5,0.9-0.7c0.3-0.3,0.6-0.5,0.9-0.8c0.3-0.3,0.5-0.6,0.6-0.9
							c0.1-0.3,0.2-0.6,0.2-1v-1.4h1.4v1.3c0,0.2,0,0.4,0,0.6c0,0.2,0.1,0.3,0.1,0.5c0.1,0.1,0.1,0.3,0.2,0.4
							c0.1,0.1,0.2,0.3,0.4,0.4c0.3,0.2,0.6,0.5,0.9,0.7C192.6,132.3,192.9,132.5,193.1,132.7z"/>
						<path class="st1" d="M207.1,133.9v-1h-10v1h4.3v1h-2.9v3.6h7.2V135h-2.9v-1H207.1z M204.4,136v1.6h-4.5V136H204.4z"/>
						<path class="st1" d="M204.6,131v-1.8h1.3v-1h-7.6v1h1.3v1.8h-1.4v1h7.7v-1H204.6z M203.3,131h-2.4v-1.8h2.4V131z"/>
					</g>
					<g>
						<path class="st1" d="M219.1,135.6c-0.2-0.3-0.4-0.5-0.7-0.6c-0.3-0.2-0.7-0.3-1.1-0.4c-0.4-0.1-0.9-0.1-1.4-0.1
							c-0.5,0-0.9,0-1.4,0.1c-0.4,0.1-0.8,0.2-1.1,0.4c-0.3,0.2-0.5,0.4-0.7,0.6c-0.2,0.2-0.3,0.5-0.3,0.8v0.5
							c0,0.3,0.1,0.6,0.3,0.8c0.2,0.2,0.4,0.5,0.7,0.6c0.3,0.2,0.7,0.3,1.1,0.4c0.4,0.1,0.9,0.1,1.4,0.1c0.5,0,0.9,0,1.4-0.1
							c0.4-0.1,0.8-0.2,1.1-0.4c0.3-0.2,0.5-0.4,0.7-0.6c0.2-0.2,0.3-0.5,0.3-0.8v-0.5C219.4,136.1,219.3,135.8,219.1,135.6z
							 M218,136.8c0,0.2-0.1,0.3-0.2,0.4c-0.1,0.1-0.3,0.2-0.5,0.3c-0.2,0.1-0.4,0.2-0.7,0.2c-0.2,0.1-0.5,0.1-0.8,0.1
							c-0.3,0-0.5,0-0.8-0.1c-0.2-0.1-0.5-0.1-0.7-0.2c-0.2-0.1-0.4-0.2-0.5-0.3c-0.1-0.1-0.2-0.3-0.2-0.4v-0.3
							c0-0.2,0.1-0.3,0.2-0.4c0.1-0.1,0.3-0.2,0.5-0.3c0.2-0.1,0.4-0.2,0.6-0.2c0.5-0.1,1.1-0.1,1.5,0c0.2,0.1,0.5,0.1,0.7,0.2
							c0.2,0.1,0.3,0.2,0.5,0.3c0.1,0.1,0.2,0.3,0.2,0.4V136.8z"/>
						<path class="st1" d="M216.7,132.9l-0.7,0.9c-0.5-0.3-1-0.7-1.4-1c-0.2-0.2-0.5-0.3-0.6-0.5c-0.2-0.2-0.2-0.2-0.2-0.3l0-0.1
							h-0.1l0,0.1c0,0-0.1,0.1-0.3,0.3c-0.2,0.2-0.4,0.3-0.7,0.5c-0.2,0.2-0.5,0.4-0.8,0.6c-0.3,0.2-0.5,0.4-0.8,0.6l-0.8-1
							c0.4-0.2,0.7-0.5,1-0.7c0.3-0.3,0.6-0.5,0.9-0.7c0.2-0.2,0.4-0.4,0.5-0.6c0.1-0.2,0.2-0.5,0.2-0.8v-0.8h-2.2v-1.1h5.6v1.1
							h-2.1v0.8c0,0.1,0,0.3,0,0.4c0,0.1,0.1,0.2,0.1,0.4c0.1,0.1,0.1,0.2,0.3,0.3c0.1,0.1,0.2,0.2,0.4,0.3c0.3,0.2,0.5,0.4,0.8,0.6
							C216.2,132.6,216.5,132.8,216.7,132.9z"/>
						<polygon class="st1" points="219.3,127.8 219.3,134.2 218,134.2 218,131.6 216.2,131.6 216.2,130.5 218,130.5 218,127.8 
													"/>
						<path class="st1" d="M226.5,136.1v-2h3v-5.6h-1.3v1.8h-4.6v-1.8h-1.3v5.6h3v2h-4.3v1.1h10v-1.1H226.5z M223.5,133.1v-1.7h4.6
							v1.7H223.5z"/>
						<path class="st1" d="M237,136.1v-2h3.3V133h-1.4v-3.3h1.3v-1.1h-7.8v1.1h1.4v3.3h-1.4v1.1h3.3v2h-4.3v1.1h10v-1.1H237z
							 M235.1,133v-3.3h2.4v3.3H235.1z"/>
						<polygon class="st1" points="251.2,137.7 251.2,138.7 244.1,138.7 244.1,135.8 249.6,135.8 249.6,134.9 244,134.9 244,133.8 
							250.9,133.8 250.9,136.8 245.4,136.8 245.4,137.7 						"/>
						<path class="st1" d="M248.2,132.8c-0.3,0-0.7,0.1-1,0.1c-0.4,0-0.8,0-1.3,0.1c-0.5,0-1,0-1.6,0c-0.6,0-1.2,0-1.9,0v-4.9h5v1
							h-3.7v0.9h3.5v1h-3.5v0.9h0.1c0.8,0,1.6,0,2.3,0c0.7,0,1.4-0.1,2.1-0.1L248.2,132.8z"/>
						<g>
							<polygon class="st1" points="250.8,128 250.8,133.4 249.4,133.4 249.4,131.1 247.7,131.1 247.7,130.1 249.4,130.1 249.4,128 
															"/>
						</g>
					</g>
				</g>
			</g>
		</g>
	</g>
	<path class="st0" d="M369.1,103.5h-3.9v-3.9c0-1.1-0.9-2-2-2c-1.1,0-2,0.9-2,2v3.9h-3.9c-1.1,0-2,0.9-2,2s0.9,2,2,2h3.9v3.9
		c0,1.1,0.9,2,2,2c1.1,0,2-0.9,2-2v-3.9h3.9c1.1,0,2-0.9,2-2C371,104.4,370.1,103.5,369.1,103.5z"/>
	<path class="st0" d="M386.3,94.3l-2.7-2.7l2.7-2.7c0.8-0.8,0.8-2,0-2.8c-0.8-0.8-2-0.8-2.8,0l-2.7,2.7L378,86c-0.8-0.8-2-0.8-2.8,0
		c-0.8,0.8-0.8,2,0,2.8l2.7,2.7l-2.7,2.7c-0.8,0.8-0.8,2,0,2.8c0.8,0.8,2,0.8,2.8,0l2.7-2.7l2.7,2.7c0.8,0.8,2,0.8,2.8,0
		C387,96.3,387,95.1,386.3,94.3z"/>
	<path class="st0" d="M47.5,27.3h-3.9v-3.9c0-1.1-0.9-2-2-2c-1.1,0-2,0.9-2,2v3.9h-3.9c-1.1,0-2,0.9-2,2c0,1.1,0.9,2,2,2h3.9v3.9
		c0,1.1,0.9,2,2,2c1.1,0,2-0.9,2-2v-3.9h3.9c1.1,0,2-0.9,2-2C49.5,28.2,48.6,27.3,47.5,27.3z"/>
	<path class="st0" d="M64.7,18.1L62,15.4l2.7-2.7c0.8-0.8,0.8-2,0-2.8c-0.8-0.8-2-0.8-2.8,0l-2.7,2.7l-2.7-2.7c-0.8-0.8-2-0.8-2.8,0
		s-0.8,2,0,2.8l2.7,2.7l-2.7,2.7c-0.8,0.8-0.8,2,0,2.8c0.8,0.8,2,0.8,2.8,0l2.7-2.7l2.7,2.7c0.8,0.8,2,0.8,2.8,0
		C65.5,20.1,65.5,18.9,64.7,18.1z"/>
	<g>
		<g>
			<g>
				<path class="st3" d="M360,248.8h-45.7c-3.9,0-7.1-3.2-7.1-7.1V140c0-3.9,3.2-7.1,7.1-7.1H360c3.9,0,7.1,3.2,7.1,7.1v101.8
					C367.1,245.7,363.9,248.8,360,248.8z"/>
				<path class="st1" d="M360,132.8c3.9,0,7.1,3.2,7.1,7.1v101.8c0,3.9-3.2,7.1-7.1,7.1h-45.7c-3.9,0-7.1-3.2-7.1-7.1V140
					c0-3.9,3.2-7.1,7.1-7.1H360 M360,130.8h-45.7c-5,0-9.1,4.1-9.1,9.1v101.8c0,5,4.1,9.1,9.1,9.1H360c5,0,9.1-4.1,9.1-9.1V140
					C369.1,134.9,365,130.8,360,130.8L360,130.8z"/>
			</g>
			<g>
				<path class="st4" d="M363.5,133.8v87c0,3.4-2,5.6-4.4,6.4c-1.1,0.8-2.4,1.3-4.1,1.3h-47.8v13.2c0,3.9,3.2,7.1,7.1,7.1H360
					c3.9,0,7.1-3.2,7.1-7.1V140C367.1,137.3,365.7,135,363.5,133.8z"/>
			</g>
			<g>
				<g>
					<path class="st1" d="M307.2,232.4v8.9c0,4.2,3,7.5,6.7,7.5h46.5c3.7,0,6.7-3.4,6.7-7.5v-8.9H307.2z"/>
					<path class="st1" d="M367.1,232.4v8.9c0,4.2-3,7.5-6.7,7.5h-46.5c-3.7,0-6.7-3.4-6.7-7.5v-8.9H367.1 M368.1,231.4h-1h-60h-1v1
						v8.9c0,4.7,3.5,8.5,7.7,8.5h46.5c4.3,0,7.7-3.8,7.7-8.5v-8.9V231.4L368.1,231.4z"/>
				</g>
			</g>
			<circle class="st2" cx="337.1" cy="241" r="4.5"/>
		</g>
		<g>
			<path class="st7" d="M382.2,201.1L382.2,201.1c3.3,0,6,2.7,6,6v6h-12.1v-6C376.1,203.8,378.8,201.1,382.2,201.1z"/>
			<path class="st8" d="M366.1,195.1L366.1,195.1c3.3,0,6,2.7,6,6v12.1h-12.1v-12.1C360.1,197.8,362.8,195.1,366.1,195.1z"/>
			<path class="st9" d="M350,185L350,185c3.3,0,6,2.7,6,6v22.1H344v-22.1C344,187.7,346.7,185,350,185z"/>
			<path class="st10" d="M333.9,170.9L333.9,170.9c3.3,0,6,2.7,6,6v36.2h-12.1V177C327.9,173.6,330.6,170.9,333.9,170.9z"/>
			<g>
				<path class="st11" d="M333.2,159.8C333.2,159.8,333.2,159.8,333.2,159.8c0.8,0.8,2.1,0.8,2.9,0l0,0c0.8-0.8,0.7-2-0.1-2.8
					c0,0,0,0,0,0c-0.8-0.8-2-0.8-2.8,0l0,0C332.4,157.7,332.4,159,333.2,159.8z"/>
				<path class="st11" d="M327.8,151L327.8,151c-0.9,0.8-1,2-0.2,2.9c0,0,0,0,0,0c0.7,0.8,2,0.9,2.8,0.1l0,0c0.8-0.7,0.9-2,0.1-2.8
					c0,0,0,0,0,0C329.8,150.4,328.6,150.3,327.8,151z"/>
				<path class="st11" d="M381.8,179.6L381.8,179.6c-1,0.5-1.4,1.7-1,2.7l1.3,2.8c-14.7-4.8-28.5-12.6-40.3-22.8
					c-0.8-0.7-2.1-0.6-2.8,0.2l0,0c-0.7,0.8-0.7,2.1,0.2,2.9c12.2,10.5,26.4,18.5,41.6,23.5l-2.8,1.3c-1,0.5-1.4,1.7-1,2.7l0,0
					c0.5,1,1.7,1.4,2.7,1l7.2-3.4c1-0.5,1.4-1.7,1-2.7l-3.4-7.2C384,179.6,382.8,179.2,381.8,179.6z"/>
			</g>
			<path class="st12" d="M376.1,209.2h12.1v4h-12.1V209.2z"/>
			<path class="st13" d="M360.1,209.2h12.1v4h-12.1V209.2z"/>
			<path class="st14" d="M344,209.2H356v4H344V209.2z"/>
			<path class="st15" d="M327.9,209.2h12.1v4h-12.1V209.2z"/>
			<path class="st1" d="M333.9,183L333.9,183c1.1,0,2,0.9,2,2l0,0c0,1.1-0.9,2-2,2l0,0c-1.1,0-2-0.9-2-2l0,0
				C331.9,183.9,332.8,183,333.9,183z"/>
			<path class="st1" d="M333.9,174.8L333.9,174.8c1.1,0,2,0.9,2,2l0,0c0,1.1-0.9,2-2,2l0,0c-1.1,0-2-0.9-2-2l0,0
				C331.9,175.7,332.8,174.8,333.9,174.8z"/>
			<path class="st1" d="M333.9,191.1L333.9,191.1c1.1,0,2,0.9,2,2l0,0c0,1.1-0.9,2-2,2l0,0c-1.1,0-2-0.9-2-2l0,0
				C331.9,192,332.8,191.1,333.9,191.1z"/>
		</g>
	</g>
</g>
<rect x="186.8" y="197.7" class="st2" width="26.1" height="3.4"/>
</svg>
