<?xml version="1.0" encoding="utf-8"?>
<!-- Generator: Adobe Illustrator 26.0.1, SVG Export Plug-In . SVG Version: 6.00 Build 0)  -->
<svg version="1.1" id="Layer_1" xmlns="http://www.w3.org/2000/svg" xmlns:xlink="http://www.w3.org/1999/xlink" x="0px" y="0px"
	 viewBox="0 0 914 350" style="enable-background:new 0 0 914 350;" xml:space="preserve">
<style type="text/css">
	.st0{fill:none;}
	.st1{fill:#333333;}
	.st2{fill:#E1F8FF;}
	.st3{fill:#E8E8E8;}
	.st4{fill:#FFFFFF;}
	.st5{fill:#CECECE;}
	.st6{fill:#DD4343;}
	.st7{fill:#949AAA;}
	.st8{fill:#40A2E7;}
	.st9{fill:#FED402;}
	.st10{fill:#00DDC2;}
	.st11{fill:#52C0B2;}
	.st12{fill:#FCD305;}
	.st13{fill:#4A9FD8;}
	.st14{fill:#DC4343;}
	.st15{fill:#3ABFC5;}
	.st16{fill:#2DB9A3;}
	.st17{fill:#DBB227;}
	.st18{fill:#3688C8;}
	.st19{fill:#C52D2E;}
	.st20{fill:#FF7892;}
	.st21{fill:#21D0C3;}
	.st22{fill:#EEFAFF;}
	.st23{fill:#207EA8;}
	.st24{fill:#F2F8F9;}
	.st25{fill:#539FC9;}
	.st26{opacity:0.2;fill:#539FC9;}
	.st27{opacity:0.5;fill:#539FC9;}
	.st28{fill:#EDF4F5;}
	.st29{fill:#DAE6E9;}
	.st30{fill:#D1D3D4;}
	.st31{fill:#00CDCF;}
	.st32{fill:#FBF069;}
	.st33{fill:#808184;}
	.st34{fill:#231F20;}
	.st35{fill-rule:evenodd;clip-rule:evenodd;fill:#E2E3F2;}
	.st36{fill:#151717;}
	.st37{fill-rule:evenodd;clip-rule:evenodd;fill:#CEDEF2;}
	.st38{fill-rule:evenodd;clip-rule:evenodd;fill:#F59DA7;}
	.st39{fill-rule:evenodd;clip-rule:evenodd;fill:#151717;}
	.st40{fill-rule:evenodd;clip-rule:evenodd;fill:#F5FBFD;}
	.st41{fill:#24B5BA;}
	.st42{fill:#F7B429;}
	.st43{fill:#86C2EA;}
	.st44{fill:#FFE22C;}
	.st45{fill:#E9ABCD;}
	.st46{fill:#F9C6D2;}
	.st47{fill:#F07CB0;}
	.st48{fill:#D1D3D8;}
	.st49{fill:#DEF4F8;}
	.st50{fill:#558EF2;}
	.st51{fill:#381E0D;}
	.st52{fill:#231107;}
	.st53{fill:#97B9FF;}
	.st54{fill:#FFB09E;}
	.st55{fill:#FFD4CF;}
	.st56{fill:#F97070;}
	.st57{fill:#2B2B2B;}
	.st58{fill-rule:evenodd;clip-rule:evenodd;fill:#E6E6E6;}
	.st59{fill-rule:evenodd;clip-rule:evenodd;fill:#707070;}
	.st60{fill-rule:evenodd;clip-rule:evenodd;fill:#FFFFFF;}
	.st61{fill-rule:evenodd;clip-rule:evenodd;fill:#1992DD;}
	.st62{fill-rule:evenodd;clip-rule:evenodd;fill:#22A1FF;}
	.st63{fill-rule:evenodd;clip-rule:evenodd;fill:#E9AA11;}
	.st64{fill:#F5BFB3;}
	.st65{fill:#EBF3FC;}
	.st66{fill:#ACE7C2;}
	.st67{fill:#6ECBD0;}
	.st68{fill:#DFECFE;}
	.st69{fill:#7774C3;}
	.st70{fill:#69CDE1;}
	.st71{fill:#F9F5E1;}
	.st72{opacity:0.54;fill:#77E8F7;}
	.st73{fill:#C8D2DC;}
	.st74{fill:#FB5858;}
	.st75{fill:#F44545;}
	.st76{fill:#DCE6EB;}
	.st77{fill:#44BFD7;}
	.st78{fill:#7CD2E3;}
	.st79{fill:#A6E0EC;}
	.st80{fill:#FFF5F5;}
	.st81{fill:#007A8E;}
	.st82{fill:#0289A8;}
	.st83{fill:#11B8DD;}
	.st84{fill:#FEFEFE;}
	.st85{fill:#E9F3FE;}
	.st86{fill:#A5A5A5;}
	.st87{fill:#707070;}
	.st88{fill:#1F9FCC;}
	.st89{fill:#C5FFF9;}
	.st90{fill:#465150;}
	.st91{opacity:0.14;}
	.st92{fill:#3689C9;}
	.st93{fill:#FDD5B5;}
	.st94{fill:#FFBE92;}
	.st95{fill:#EAE9E4;}
	.st96{fill:#683A2A;}
	.st97{fill:#25BCBD;}
	.st98{fill:#FAAF40;}
	.st99{fill:#D6F8FF;}
	.st100{fill:#A2E2EA;}
	.st101{fill:#61A2F9;}
	.st102{fill:#4073C8;}
	.st103{fill:#82C11F;}
	.st104{fill:#679B04;}
	.st105{fill:#BADB47;}
	.st106{fill:#E3F4FF;}
	.st107{fill:#F9F6F9;}
	.st108{fill:#DFEAEF;}
	.st109{fill:#64BDFF;}
	.st110{fill:#EED60F;}
	.st111{fill:#F8E868;}
	.st112{fill:#F6E23D;}
	.st113{fill:#FCF5BE;}
	.st114{fill:#E4F6FF;}
	.st115{fill:#D3EFFB;}
	.st116{fill:#002A35;}
	.st117{fill:#809E39;}
	.st118{fill:#A3CC32;}
	.st119{fill:#B7D636;}
	.st120{fill:#BEE25A;}
	.st121{fill:#B1D13D;}
	.st122{fill:#70432A;}
	.st123{fill:#875035;}
	.st124{fill:#5A361F;}
	.st125{fill:#E2BB17;}
	.st126{fill:#FFDA3E;}
	.st127{fill:#E94444;}
	.st128{fill:#D82E2E;}
	.st129{fill:#00C27A;}
	.st130{fill:#00A05F;}
	.st131{fill:#FAC600;}
	.st132{fill:#F99F00;}
	.st133{fill:#FE9901;}
	.st134{fill:#FB8801;}
	.st135{fill:#E8B800;}
	.st136{fill:#D83131;}
	.st137{fill:#FF9052;}
	.st138{fill:#EA5B13;}
	.st139{fill:#F7F9FA;}
	.st140{fill:#285680;}
	.st141{fill:#4482C3;}
	.st142{fill-rule:evenodd;clip-rule:evenodd;fill:#FDD7AD;}
	.st143{fill-rule:evenodd;clip-rule:evenodd;fill:#EDAD72;}
	.st144{fill-rule:evenodd;clip-rule:evenodd;fill:#F3D55B;}
	.st145{fill:#204E70;}
	.st146{fill:#105A87;}
	.st147{fill:#E48D72;}
	.st148{fill:#FFD7CC;}
	.st149{fill:#AE2B00;}
	.st150{fill:#8E1600;}
	.st151{fill:#D65128;}
	.st152{opacity:0.5;fill:url(#SVGID_1_);enable-background:new    ;}
	.st153{fill:#603813;}
	.st154{fill:#009345;}
	.st155{fill:#BCBB32;}
	.st156{fill:#006838;}
	.st157{fill:#94C03D;}
	.st158{fill:#5B306C;}
	.st159{fill:#682B81;}
	.st160{fill:#59286B;}
	.st161{fill:#83459A;}
	.st162{fill:#B98CBE;}
	.st163{fill:#6F3693;}
	.st164{fill:#AC8CBF;}
	.st165{fill:#DAB0D2;}
	.st166{fill:#C1B1D6;}
	.st167{fill:#638D27;}
	.st168{fill:#95C11F;}
	.st169{fill:url(#SVGID_00000068643562863910642980000009536601542321128868_);}
	.st170{clip-path:url(#SVGID_00000064355444923762516720000018180719212343563681_);fill:#ED7624;}
	.st171{clip-path:url(#SVGID_00000128455731017458047610000006638210727236119487_);fill:#ED7624;}
	.st172{clip-path:url(#SVGID_00000067198282532564430210000010568354435983830707_);fill:#ED7524;}
	.st173{clip-path:url(#SVGID_00000161620067752344316300000015180313759805745316_);fill:#ED7424;}
	.st174{clip-path:url(#SVGID_00000137810401479850726070000017665709242276680076_);fill:#ED7324;}
	.st175{clip-path:url(#SVGID_00000033355154779259926530000005580150382101580198_);fill:#ED7224;}
	.st176{clip-path:url(#SVGID_00000168804074672194535020000011207808759707322043_);fill:#ED7124;}
	.st177{clip-path:url(#SVGID_00000066486800831617558930000003514810845967947678_);fill:#ED7024;}
	.st178{clip-path:url(#SVGID_00000145744820827172200220000003197143058669310126_);fill:#ED6F24;}
	.st179{clip-path:url(#SVGID_00000130624902977688994970000004193938547094157209_);fill:#ED6E24;}
	.st180{clip-path:url(#SVGID_00000065775084083418269050000017372378934573943995_);fill:#ED6D24;}
	.st181{clip-path:url(#SVGID_00000171695226057609743620000004581064599614179734_);fill:#ED6C24;}
	.st182{clip-path:url(#SVGID_00000145765515840855250920000016645173675127413922_);fill:#ED6B24;}
	.st183{clip-path:url(#SVGID_00000093173652233629472320000011289277259915335566_);fill:#ED6A24;}
	.st184{clip-path:url(#SVGID_00000080923490629556010310000013432196587905590410_);fill:#ED6924;}
	.st185{clip-path:url(#SVGID_00000010278763245409110530000005975645635746852266_);fill:#ED6824;}
	.st186{clip-path:url(#SVGID_00000117670829986710243370000016573818035466720947_);fill:#ED6724;}
	.st187{clip-path:url(#SVGID_00000163049705239888733480000015693006184699631796_);fill:#ED6624;}
	.st188{clip-path:url(#SVGID_00000052815432737674569260000012690086686488115126_);fill:#ED6524;}
	.st189{clip-path:url(#SVGID_00000111179219315734277690000017067307791678730880_);fill:#ED6424;}
	.st190{clip-path:url(#SVGID_00000011032596062211132790000012791113132370781083_);fill:#ED6324;}
	.st191{clip-path:url(#SVGID_00000093857982932066497000000007676453213701611665_);fill:#ED6224;}
	.st192{clip-path:url(#SVGID_00000025443848026766886860000001729834034698647970_);fill:#ED6124;}
	.st193{clip-path:url(#SVGID_00000039843221909601152050000009006577416031259777_);fill:#ED6024;}
	.st194{clip-path:url(#SVGID_00000037674589436388232420000003595635680160566916_);fill:#ED5F24;}
	.st195{clip-path:url(#SVGID_00000163030873714462347670000008358156070397260173_);fill:#ED5E24;}
	.st196{clip-path:url(#SVGID_00000082349520659790205110000010088285703886395306_);fill:#ED5D24;}
	.st197{clip-path:url(#SVGID_00000069360388738021458090000015924954365303089301_);fill:#ED5C24;}
	.st198{clip-path:url(#SVGID_00000038372949279314497870000018090479926242970002_);fill:#ED5B24;}
	.st199{clip-path:url(#SVGID_00000145028923884567456710000017681882517773823891_);fill:#ED5A24;}
	.st200{clip-path:url(#SVGID_00000117665462524827013210000012018408391004752537_);fill:#ED5924;}
	.st201{clip-path:url(#SVGID_00000062884579981714399120000004681265345610722955_);fill:#ED5824;}
	.st202{clip-path:url(#SVGID_00000057116720247036575640000014799849364179331472_);fill:#ED5724;}
	.st203{clip-path:url(#SVGID_00000085936012131639709170000009226507874075748753_);fill:#ED5624;}
	.st204{clip-path:url(#SVGID_00000038393359603741310570000001270864341870618281_);fill:#ED5524;}
	.st205{clip-path:url(#SVGID_00000132049383797265673860000006363572467936223922_);fill:#ED5424;}
	.st206{clip-path:url(#SVGID_00000115493265689395981840000009477447017785136518_);fill:#ED5324;}
	.st207{clip-path:url(#SVGID_00000021108486068453067570000002271253507923507615_);fill:#ED5224;}
	.st208{clip-path:url(#SVGID_00000137819716857815526770000000236530488376055219_);fill:#ED5124;}
	.st209{clip-path:url(#SVGID_00000074441859978781280630000000136440462377357956_);fill:#ED5024;}
	.st210{clip-path:url(#SVGID_00000106105725975662593770000012961689902801868163_);fill:#ED4F24;}
	.st211{clip-path:url(#SVGID_00000147935175258364184130000003287232346798118576_);fill:#ED4E24;}
	.st212{clip-path:url(#SVGID_00000112595551879484476960000013570198326631012783_);fill:#ED4D24;}
	.st213{clip-path:url(#SVGID_00000034770014735412301880000001243156268582871476_);fill:#ED4C24;}
	.st214{clip-path:url(#SVGID_00000114049081591023825390000008831945663376423557_);fill:#ED4B24;}
	.st215{clip-path:url(#SVGID_00000176742916395669054970000003638165076199163301_);fill:#ED4A24;}
	.st216{clip-path:url(#SVGID_00000179632436470708784160000004582422715577920389_);fill:#ED4824;}
	.st217{clip-path:url(#SVGID_00000057111037040674613010000013766143659615601840_);fill:#ED4724;}
	.st218{clip-path:url(#SVGID_00000021813991366378239490000008957598513038451849_);fill:#ED4624;}
	.st219{clip-path:url(#SVGID_00000140700187046195967620000017441836033719030447_);fill:#ED4524;}
	.st220{clip-path:url(#SVGID_00000043428786536918116130000003091152714707343272_);fill:#ED4424;}
	.st221{clip-path:url(#SVGID_00000111900857082488728820000006294432116329387711_);fill:#ED4324;}
	.st222{clip-path:url(#SVGID_00000085243219776058706630000011387214773891774387_);fill:#ED4224;}
	.st223{clip-path:url(#SVGID_00000062878445839487500650000017798237575734998403_);fill:#ED4124;}
	.st224{clip-path:url(#SVGID_00000152961524132909384070000018316633056661633951_);fill:#ED4024;}
	.st225{clip-path:url(#SVGID_00000165225632533850944130000004508847064599612348_);fill:#ED3F24;}
	.st226{clip-path:url(#SVGID_00000059308202495597531590000015060443102599567527_);fill:#ED3E24;}
	.st227{clip-path:url(#SVGID_00000134218674065350861400000018211685566504496284_);fill:#ED3D24;}
	.st228{clip-path:url(#SVGID_00000152253768533386038280000010620827518023076229_);fill:#ED3C24;}
	.st229{clip-path:url(#SVGID_00000158026197304542380720000016582068563994555312_);fill:#ED3B24;}
	.st230{clip-path:url(#SVGID_00000168828621931249248320000010334001775050302854_);fill:#ED3A24;}
	.st231{clip-path:url(#SVGID_00000096025708155896621350000005609506576442795143_);fill:#ED3924;}
	.st232{clip-path:url(#SVGID_00000111183894104864105320000001183950877230432130_);fill:#ED3824;}
	.st233{clip-path:url(#SVGID_00000174598962903098503200000011350939489367879333_);fill:#ED3724;}
	.st234{clip-path:url(#SVGID_00000000222615436739314180000008791860646161291696_);fill:#ED3624;}
	.st235{clip-path:url(#SVGID_00000106831520653322235140000012625668037709813179_);fill:#ED3524;}
	.st236{clip-path:url(#SVGID_00000024723487183067065150000002419131224195685037_);fill:#ED3424;}
	.st237{clip-path:url(#SVGID_00000029750596293349216810000003672796887556681891_);fill:#ED3324;}
	.st238{clip-path:url(#SVGID_00000109024079931505322100000015832303158053496197_);fill:#ED3224;}
	.st239{clip-path:url(#SVGID_00000085936208785343200970000014050533817969954751_);fill:#ED3124;}
	.st240{clip-path:url(#SVGID_00000018231019583129539430000018189499483183203233_);fill:#ED3024;}
	.st241{clip-path:url(#SVGID_00000016767461589726735010000004407812508706120582_);fill:#ED2F24;}
	.st242{clip-path:url(#SVGID_00000060018568855761257160000002120418171557977760_);fill:#ED2E24;}
	.st243{clip-path:url(#SVGID_00000034070210186028029040000002009486724747842492_);fill:#ED2D24;}
	.st244{clip-path:url(#SVGID_00000090267283776939044850000010825148616755184033_);fill:#ED2C24;}
	.st245{clip-path:url(#SVGID_00000165938678993459973160000006859285148264025990_);fill:#ED2B24;}
	.st246{clip-path:url(#SVGID_00000041256881324761733680000003588380115237708440_);fill:#ED2A24;}
	.st247{clip-path:url(#SVGID_00000083773664574882177700000015606152181547965861_);fill:#ED2924;}
	.st248{clip-path:url(#SVGID_00000031888927638478602800000010993934126439317636_);fill:#ED2824;}
	.st249{clip-path:url(#SVGID_00000170983264294099671760000003963661015213297835_);fill:#ED2724;}
	.st250{clip-path:url(#SVGID_00000022557809153989559910000016029809323145575333_);fill:#ED2624;}
	.st251{clip-path:url(#SVGID_00000049939836317465361060000014450147576058276488_);fill:#ED2524;}
	.st252{clip-path:url(#SVGID_00000114760387919763737690000012768607475943633312_);fill:#ED2424;}
	.st253{clip-path:url(#SVGID_00000059297450634335712940000007247023635136444601_);fill:#ED2324;}
	.st254{clip-path:url(#SVGID_00000085218673265668183580000017046578177579927937_);fill:#ED2224;}
	.st255{clip-path:url(#SVGID_00000167359956622747884950000008831408445346951847_);fill:#ED2124;}
	.st256{clip-path:url(#SVGID_00000013884839591514604560000009496561356682001565_);fill:#ED2024;}
	.st257{clip-path:url(#SVGID_00000005267257157200614860000000074999745664107188_);fill:#ED1F24;}
	.st258{clip-path:url(#SVGID_00000067932092801017594000000003534088389891587517_);fill:#ED1E24;}
	.st259{clip-path:url(#SVGID_00000157285764588987053400000015373161966947583136_);fill:#ED1D24;}
	.st260{clip-path:url(#SVGID_00000117672920719822025710000005069386596759285645_);fill:#ED1C24;}
	.st261{clip-path:url(#SVGID_00000168078654890572641310000006377058317848876205_);fill:#ED1C24;}
	.st262{clip-path:url(#SVGID_00000096754443999785670490000006401616423173260217_);fill:#EC1C24;}
	.st263{clip-path:url(#SVGID_00000079443612263317048300000000422498055379294848_);fill:#EB1C23;}
	.st264{clip-path:url(#SVGID_00000047046371481469733210000018133779405897983881_);fill:#EA1C23;}
	.st265{clip-path:url(#SVGID_00000049203747205472359530000004110930212180591269_);fill:#E91C22;}
	.st266{clip-path:url(#SVGID_00000152960760564856449800000005486069098978863758_);fill:#E81C22;}
	.st267{clip-path:url(#SVGID_00000009560808453091028060000003722791662156464022_);fill:#E71C22;}
	.st268{clip-path:url(#SVGID_00000148638468926744984930000018312965742047969434_);fill:#E61C21;}
	.st269{clip-path:url(#SVGID_00000136394945877543567130000018343280832516873385_);fill:#E51C21;}
	.st270{clip-path:url(#SVGID_00000078747813342731740220000009235918715263893145_);fill:#E41D20;}
	.st271{clip-path:url(#SVGID_00000008117337491235420480000002602245001816663181_);fill:#E31D20;}
	.st272{clip-path:url(#SVGID_00000132785185515832529000000010839143427217674137_);fill:#E21D20;}
	.st273{clip-path:url(#SVGID_00000086682039898712522680000002947482737616942214_);fill:#E11D1F;}
	.st274{clip-path:url(#SVGID_00000183222658136363088880000017829856588228409493_);fill:#E01D1F;}
	.st275{clip-path:url(#SVGID_00000090997806275199158990000010600177856341036172_);fill:#DF1D1E;}
	.st276{clip-path:url(#SVGID_00000183955428312197748280000017996428555475393420_);fill:#DE1D1E;}
	.st277{clip-path:url(#SVGID_00000167372474683810148050000002256639745315319446_);fill:#DD1D1D;}
	.st278{clip-path:url(#SVGID_00000086669423539018926740000003493022589850775717_);fill:#DC1D1D;}
	.st279{clip-path:url(#SVGID_00000042011438370184546580000001469622670120415616_);fill:#DB1D1D;}
	.st280{clip-path:url(#SVGID_00000085965356900831252530000013349850454959099054_);fill:#DA1D1C;}
	.st281{clip-path:url(#SVGID_00000010298238968037683930000007162091878723683991_);fill:#D91D1C;}
	.st282{clip-path:url(#SVGID_00000055675663559363488350000002293598885536486298_);fill:#D81D1B;}
	.st283{clip-path:url(#SVGID_00000155142738206742686540000004427512696618797189_);fill:#D71D1B;}
	.st284{clip-path:url(#SVGID_00000075154800246346975190000009105690419819281033_);fill:#D61D1B;}
	.st285{clip-path:url(#SVGID_00000049223484685641604710000009540077802403316625_);fill:#D51D1A;}
	.st286{clip-path:url(#SVGID_00000173856603160658936950000007984164469465595325_);fill:#D41D1A;}
	.st287{clip-path:url(#SVGID_00000026129598614278728180000010952316749632022960_);fill:#D31D19;}
	.st288{clip-path:url(#SVGID_00000109708014197761188850000016003658173304425889_);fill:#D21E19;}
	.st289{clip-path:url(#SVGID_00000172414770376420117880000009260336352503520137_);fill:#D11E19;}
	.st290{clip-path:url(#SVGID_00000008830516015346974420000002108094010729963661_);fill:#D01E18;}
	.st291{clip-path:url(#SVGID_00000162347816805017899900000003615816454140904856_);fill:#CF1E18;}
	.st292{clip-path:url(#SVGID_00000132800697972800196880000004598703720180886704_);fill:#CE1E17;}
	.st293{clip-path:url(#SVGID_00000080916514010826843520000013203651270334298758_);fill:#CD1E17;}
	.st294{clip-path:url(#SVGID_00000087374173252290766670000015242635368066144443_);fill:#CC1E17;}
	.st295{clip-path:url(#SVGID_00000180337548022159199820000011648285250895225247_);fill:#CB1E16;}
	.st296{clip-path:url(#SVGID_00000127017190724733110580000007305008121295825066_);fill:#CA1E16;}
	.st297{clip-path:url(#SVGID_00000100384921790739942860000000935139405994308256_);fill:#C91E15;}
	.st298{clip-path:url(#SVGID_00000003783927346813854480000015431639452262452151_);fill:#C81E15;}
	.st299{clip-path:url(#SVGID_00000104686425473774859510000003802356055687112883_);fill:#C71E14;}
	.st300{clip-path:url(#SVGID_00000160882859067671778680000002148506943509378453_);fill:#C61E14;}
	.st301{clip-path:url(#SVGID_00000101784259817401334920000005254244240248201131_);fill:#C51E14;}
	.st302{clip-path:url(#SVGID_00000173847474390047375080000016505005049619923641_);fill:#C41E13;}
	.st303{clip-path:url(#SVGID_00000135683682609978558030000008423297111318354826_);fill:#C31E13;}
	.st304{clip-path:url(#SVGID_00000106123133180532192180000003813148813126165168_);fill:#C21E12;}
	.st305{clip-path:url(#SVGID_00000062170912611343617950000001810302174270877848_);fill:#C11F12;}
	.st306{clip-path:url(#SVGID_00000006669022428065059070000016274600473291024060_);fill:#BF1F12;}
	.st307{clip-path:url(#SVGID_00000009564512455128243220000005728656419986940088_);fill:#BE1F11;}
	.st308{clip-path:url(#SVGID_00000028313324397639842200000018233391556979298435_);fill:#BD1F11;}
	.st309{clip-path:url(#SVGID_00000086669543176137889690000011780171155309642667_);fill:#BC1F10;}
	.st310{clip-path:url(#SVGID_00000044869846823387308640000006471784871125163151_);fill:#BB1F10;}
	.st311{clip-path:url(#SVGID_00000140000694963169900660000013953105551201319335_);fill:#BA1F10;}
	.st312{clip-path:url(#SVGID_00000032623454014784004250000013385155338582244538_);fill:#B91F0F;}
	.st313{clip-path:url(#SVGID_00000079488289578135753600000017710618543249607093_);fill:#B81F0F;}
	.st314{clip-path:url(#SVGID_00000147221920337741028170000001799223117157818554_);fill:#B71F0E;}
	.st315{clip-path:url(#SVGID_00000150782956158638692570000007929655563607482789_);fill:#B61F0E;}
	.st316{clip-path:url(#SVGID_00000051354542453118325970000000067291175109264262_);fill:#B51F0E;}
	.st317{clip-path:url(#SVGID_00000149342045222094805040000011168547928326740110_);fill:#B41F0D;}
	.st318{clip-path:url(#SVGID_00000018222667372078086380000007477642079581527684_);fill:#B31F0D;}
	.st319{clip-path:url(#SVGID_00000009571716167776275450000000836153326871404965_);fill:#B21F0C;}
	.st320{clip-path:url(#SVGID_00000009581484861665628930000014572175437447017109_);fill:#B11F0C;}
	.st321{clip-path:url(#SVGID_00000056405457799295573510000009307815338092683412_);fill:#B01F0B;}
	.st322{clip-path:url(#SVGID_00000151511274864611180610000006080395665442006426_);fill:#AF1F0B;}
	.st323{clip-path:url(#SVGID_00000147898874669380799070000006047702143165660075_);fill:#AE200B;}
	.st324{clip-path:url(#SVGID_00000077319158139685760970000016765802255204303784_);fill:#AD200A;}
	.st325{clip-path:url(#SVGID_00000069380659951245904680000000677436780780712851_);fill:#AC200A;}
	.st326{clip-path:url(#SVGID_00000085241153111868386220000014998498978504163766_);fill:#AB2009;}
	.st327{clip-path:url(#SVGID_00000108293742367659912650000008581102912005010844_);fill:#AA2009;}
	.st328{clip-path:url(#SVGID_00000156579557886414206940000014138597956919222944_);fill:#A92009;}
	.st329{clip-path:url(#SVGID_00000155827851307530195350000012004858460675841417_);fill:#A82008;}
	.st330{clip-path:url(#SVGID_00000072977616564622672100000010241793703788870024_);fill:#A72008;}
	.st331{clip-path:url(#SVGID_00000005982124763079670860000002254534451653086850_);fill:#A62007;}
	.st332{clip-path:url(#SVGID_00000074423758269095692820000012485437673856352392_);fill:#A52007;}
	.st333{clip-path:url(#SVGID_00000158733446143565887270000008844834559340015519_);fill:#A42007;}
	.st334{clip-path:url(#SVGID_00000153689583577489335740000001329563534527791799_);fill:#A32006;}
	.st335{clip-path:url(#SVGID_00000052790487562917700090000015473431466397990530_);fill:#A22006;}
	.st336{clip-path:url(#SVGID_00000162319623151421929190000015204713801919715491_);fill:#A12005;}
	.st337{clip-path:url(#SVGID_00000163772065303753849950000012610034066580849067_);fill:#A02005;}
	.st338{clip-path:url(#SVGID_00000130615426270283278180000018163656323846254980_);fill:#9F2005;}
	.st339{clip-path:url(#SVGID_00000156551261861635830770000015940609407795852942_);fill:#9E2004;}
	.st340{clip-path:url(#SVGID_00000097491638117025802430000016898103976064362680_);fill:#9D2004;}
	.st341{clip-path:url(#SVGID_00000095305714762244261530000002760463748290669237_);fill:#9C2103;}
	.st342{clip-path:url(#SVGID_00000022520836422267493170000018092354137776719295_);fill:#9B2103;}
	.st343{clip-path:url(#SVGID_00000014616377361257631720000018133910350466481567_);fill:#9A2102;}
	.st344{clip-path:url(#SVGID_00000137841461982596016230000014086166213605986443_);fill:#992102;}
	.st345{clip-path:url(#SVGID_00000121968664997269809180000003076293919044273840_);fill:#982102;}
	.st346{clip-path:url(#SVGID_00000103971326665074437990000012044434731162673086_);fill:#972101;}
	.st347{clip-path:url(#SVGID_00000072245150359956403750000008541936139675308980_);fill:#962101;}
	.st348{clip-path:url(#SVGID_00000165208722356727602290000008623344234979408519_);fill:#952100;}
	.st349{clip-path:url(#SVGID_00000080895926190317669980000006266641600527739808_);fill:#942100;}
	.st350{clip-path:url(#SVGID_00000108297722185172801910000012053103012695977640_);fill:#ED7624;}
	.st351{clip-path:url(#SVGID_00000014617666691383304260000014739814436335575193_);fill:#ED7624;}
	.st352{clip-path:url(#SVGID_00000178902770470228948180000015727624497350781071_);fill:#ED7524;}
	.st353{clip-path:url(#SVGID_00000150799673861790018260000011906982713396059293_);fill:#ED7424;}
	.st354{clip-path:url(#SVGID_00000110469918293157441400000011209285161819790783_);fill:#ED7324;}
	.st355{clip-path:url(#SVGID_00000168818860245072536400000010446556027915595708_);fill:#ED7224;}
	.st356{clip-path:url(#SVGID_00000152959756721171264020000008201876839059314360_);fill:#ED7124;}
	.st357{clip-path:url(#SVGID_00000041274851043604133040000017449835370236183222_);fill:#ED7024;}
	.st358{clip-path:url(#SVGID_00000041272118005197764130000002574075673370627233_);fill:#ED6F24;}
	.st359{clip-path:url(#SVGID_00000047047662308844735560000012494160082830128786_);fill:#ED6E24;}
	.st360{clip-path:url(#SVGID_00000052095046630351973360000015466587273999409807_);fill:#ED6D24;}
	.st361{clip-path:url(#SVGID_00000000222976173164729320000012260162528979180442_);fill:#ED6C24;}
	.st362{clip-path:url(#SVGID_00000073697277093728679370000003548396108241844396_);fill:#ED6B24;}
	.st363{clip-path:url(#SVGID_00000054945406137734960050000007619420030089612182_);fill:#ED6A24;}
	.st364{clip-path:url(#SVGID_00000049223267148660453510000011085438247933115314_);fill:#ED6924;}
	.st365{clip-path:url(#SVGID_00000159447432226900516870000007870183811105292705_);fill:#ED6824;}
	.st366{clip-path:url(#SVGID_00000064340451840946935990000006029074833177633186_);fill:#ED6724;}
	.st367{clip-path:url(#SVGID_00000013907006049439258140000009005514531202447268_);fill:#ED6624;}
	.st368{clip-path:url(#SVGID_00000151541991884771339360000005243892921770120116_);fill:#ED6524;}
	.st369{clip-path:url(#SVGID_00000075129130589922223830000000308668852486339467_);fill:#ED6424;}
	.st370{clip-path:url(#SVGID_00000176734014340421848440000000388661124688219812_);fill:#ED6324;}
	.st371{clip-path:url(#SVGID_00000031208237446758595240000001221804703110289287_);fill:#ED6224;}
	.st372{clip-path:url(#SVGID_00000010299123445682589670000009476341447960975013_);fill:#ED6124;}
	.st373{clip-path:url(#SVGID_00000036238868656400931540000018445921430754942372_);fill:#ED6024;}
	.st374{clip-path:url(#SVGID_00000098909213859010359540000008428142728983212948_);fill:#ED5F24;}
	.st375{clip-path:url(#SVGID_00000006670647655634911300000007900932609096968603_);fill:#ED5E24;}
	.st376{clip-path:url(#SVGID_00000018958877698006256310000012190355155357466006_);fill:#ED5D24;}
	.st377{clip-path:url(#SVGID_00000065037703895023420350000000423605757353015196_);fill:#ED5C24;}
	.st378{clip-path:url(#SVGID_00000000191972198529788110000000590712981251332737_);fill:#ED5B24;}
	.st379{clip-path:url(#SVGID_00000075129310560174018390000000052402557484486323_);fill:#ED5A24;}
	.st380{clip-path:url(#SVGID_00000053514013101731841010000001097108225505933454_);fill:#ED5924;}
	.st381{clip-path:url(#SVGID_00000057137207807868811840000007852006111079412668_);fill:#ED5824;}
	.st382{clip-path:url(#SVGID_00000093145856360933845950000000480411963141144724_);fill:#ED5724;}
	.st383{clip-path:url(#SVGID_00000057144453131681318880000010330698269275058873_);fill:#ED5624;}
	.st384{clip-path:url(#SVGID_00000066517789680708676930000002008021229896280993_);fill:#ED5524;}
	.st385{clip-path:url(#SVGID_00000001640458036975546530000011010081203768090778_);fill:#ED5424;}
	.st386{clip-path:url(#SVGID_00000006675164972625075590000013215853937652434615_);fill:#ED5324;}
	.st387{clip-path:url(#SVGID_00000127030551292545876930000014796585908393994659_);fill:#ED5224;}
	.st388{clip-path:url(#SVGID_00000128480774183418621320000005953627145440055986_);fill:#ED5124;}
	.st389{clip-path:url(#SVGID_00000130643075765919891520000016201384670784009344_);fill:#ED5024;}
	.st390{clip-path:url(#SVGID_00000044136257060270275860000008802705506025512583_);fill:#ED4F24;}
	.st391{clip-path:url(#SVGID_00000150825465011750925710000013186758725863304590_);fill:#ED4E24;}
	.st392{clip-path:url(#SVGID_00000000908226992997955800000012848976112627469187_);fill:#ED4D24;}
	.st393{clip-path:url(#SVGID_00000183939863268223586990000010021970974922308754_);fill:#ED4C24;}
	.st394{clip-path:url(#SVGID_00000116198342045821518130000008156954650017343422_);fill:#ED4B24;}
	.st395{clip-path:url(#SVGID_00000142161233418960220430000001676620526176824710_);fill:#ED4A24;}
	.st396{clip-path:url(#SVGID_00000038403186482507938800000012883144485220077987_);fill:#ED4824;}
	.st397{clip-path:url(#SVGID_00000053512766107912868680000005848768442667823027_);fill:#ED4724;}
	.st398{clip-path:url(#SVGID_00000001634622208264718310000010543562555855586697_);fill:#ED4624;}
	.st399{clip-path:url(#SVGID_00000086691009887451886300000010619778479170188445_);fill:#ED4524;}
	.st400{clip-path:url(#SVGID_00000172418164449571757450000005223870655657944983_);fill:#ED4424;}
	.st401{clip-path:url(#SVGID_00000083790123497610081990000005834847331885523594_);fill:#ED4324;}
	.st402{clip-path:url(#SVGID_00000147216856619753772890000001307063896053751188_);fill:#ED4224;}
	.st403{clip-path:url(#SVGID_00000010311869319669281860000004549709327288100790_);fill:#ED4124;}
	.st404{clip-path:url(#SVGID_00000138549513752741619570000003429968895127100075_);fill:#ED4024;}
	.st405{clip-path:url(#SVGID_00000114052737694527265190000007801837894057746331_);fill:#ED3F24;}
	.st406{clip-path:url(#SVGID_00000166655041632723324910000013224010671261334923_);fill:#ED3E24;}
	.st407{clip-path:url(#SVGID_00000156575213752723246100000004811752534882860978_);fill:#ED3D24;}
	.st408{clip-path:url(#SVGID_00000016793754019222741140000009370478207020737706_);fill:#ED3C24;}
	.st409{clip-path:url(#SVGID_00000102534551022901700690000008616677398180071842_);fill:#ED3B24;}
	.st410{clip-path:url(#SVGID_00000167369740164692587060000005115265287087992479_);fill:#ED3A24;}
	.st411{clip-path:url(#SVGID_00000051370151163397640240000013789709630111357105_);fill:#ED3924;}
	.st412{clip-path:url(#SVGID_00000019654393493621064260000010777537159001538201_);fill:#ED3824;}
	.st413{clip-path:url(#SVGID_00000065046240623629107980000012540207537502545843_);fill:#ED3724;}
	.st414{clip-path:url(#SVGID_00000044150660519080918060000004268952573979603892_);fill:#ED3624;}
	.st415{clip-path:url(#SVGID_00000164506444724495068280000006866241745986092204_);fill:#ED3524;}
	.st416{clip-path:url(#SVGID_00000069371253211339431060000017007424356995799203_);fill:#ED3424;}
	.st417{clip-path:url(#SVGID_00000047763882735323530460000012466960810354787754_);fill:#ED3324;}
	.st418{clip-path:url(#SVGID_00000151505734027475405340000017457631818901497529_);fill:#ED3224;}
	.st419{clip-path:url(#SVGID_00000122713016455072022910000003069228652189302185_);fill:#ED3124;}
	.st420{clip-path:url(#SVGID_00000088826721131563685580000004818973729255529393_);fill:#ED3024;}
	.st421{clip-path:url(#SVGID_00000119840216265955083630000006420621938811028635_);fill:#ED2F24;}
	.st422{clip-path:url(#SVGID_00000158746640266735829160000012328940905935028611_);fill:#ED2E24;}
	.st423{clip-path:url(#SVGID_00000167360923539962461740000011108118809566354570_);fill:#ED2D24;}
	.st424{clip-path:url(#SVGID_00000016754186206042003790000017975716217858773181_);fill:#ED2C24;}
	.st425{clip-path:url(#SVGID_00000160896817917561143320000006565935838032407992_);fill:#ED2B24;}
	.st426{clip-path:url(#SVGID_00000053523339686889127830000001884765003490490265_);fill:#ED2A24;}
	.st427{clip-path:url(#SVGID_00000078042512460164331410000008450333915823406246_);fill:#ED2924;}
	.st428{clip-path:url(#SVGID_00000156566278567082651740000010189944667965323944_);fill:#ED2824;}
	.st429{clip-path:url(#SVGID_00000039103838161453028510000004339784052859886982_);fill:#ED2724;}
	.st430{clip-path:url(#SVGID_00000121997132410007611290000009595490679223118489_);fill:#ED2624;}
	.st431{clip-path:url(#SVGID_00000145765122676248761440000014630490742806868654_);fill:#ED2524;}
	.st432{clip-path:url(#SVGID_00000147192397123801747750000002225132306117341591_);fill:#ED2424;}
	.st433{clip-path:url(#SVGID_00000061445015975414053410000017989978618905473694_);fill:#ED2324;}
	.st434{clip-path:url(#SVGID_00000147917342413064142210000007334085882293062302_);fill:#ED2224;}
	.st435{clip-path:url(#SVGID_00000102527109438892954990000006387261351658740155_);fill:#ED2124;}
	.st436{clip-path:url(#SVGID_00000132766884298447104960000010711635013996750269_);fill:#ED2024;}
	.st437{clip-path:url(#SVGID_00000007414886832740937450000014885782943319834280_);fill:#ED1F24;}
	.st438{clip-path:url(#SVGID_00000031904506942280270680000001825987068533484679_);fill:#ED1E24;}
	.st439{clip-path:url(#SVGID_00000139269673041442951990000017916024041274504338_);fill:#ED1D24;}
	.st440{clip-path:url(#SVGID_00000047031454149021822260000016806933158486856365_);fill:#ED1C24;}
	.st441{clip-path:url(#SVGID_00000135689640191281688070000006480614888207406777_);fill:#ED1C24;}
	.st442{clip-path:url(#SVGID_00000144303826384499750890000012363038482860701317_);fill:#EC1C24;}
	.st443{clip-path:url(#SVGID_00000174602188284322840230000010830255067128782011_);fill:#EB1C23;}
	.st444{clip-path:url(#SVGID_00000034775563593447625830000013584692956276028052_);fill:#EA1C23;}
	.st445{clip-path:url(#SVGID_00000080173982688467115980000017968148493597371549_);fill:#E91C22;}
	.st446{clip-path:url(#SVGID_00000116229832928611389490000013008930307988404390_);fill:#E81C22;}
	.st447{clip-path:url(#SVGID_00000018220791453288866280000002662252476809019823_);fill:#E71C22;}
	.st448{clip-path:url(#SVGID_00000145745062528969745820000004421777609694283955_);fill:#E61C21;}
	.st449{clip-path:url(#SVGID_00000010298927059108414360000003132817113479692477_);fill:#E51C21;}
	.st450{clip-path:url(#SVGID_00000173879492586597549200000008002659853694592387_);fill:#E41D20;}
	.st451{clip-path:url(#SVGID_00000183218926471530827750000002833654546860639105_);fill:#E31D20;}
	.st452{clip-path:url(#SVGID_00000005267924735102501100000016930667156079046794_);fill:#E21D20;}
	.st453{clip-path:url(#SVGID_00000005987766874074769950000017897871166597994371_);fill:#E11D1F;}
	.st454{clip-path:url(#SVGID_00000137814068992732571820000016698352184608696740_);fill:#E01D1F;}
	.st455{clip-path:url(#SVGID_00000043420075579462129750000013972853956802732457_);fill:#DF1D1E;}
	.st456{clip-path:url(#SVGID_00000085238707886443804540000008005387189491540903_);fill:#DE1D1E;}
	.st457{clip-path:url(#SVGID_00000099645103453462491150000006728201226665920435_);fill:#DD1D1D;}
	.st458{clip-path:url(#SVGID_00000124126841147245850360000008483538014005607325_);fill:#DC1D1D;}
	.st459{clip-path:url(#SVGID_00000151534301105261460320000016897923023496497830_);fill:#DB1D1D;}
	.st460{clip-path:url(#SVGID_00000161628278593848048390000002572612157619261066_);fill:#DA1D1C;}
	.st461{clip-path:url(#SVGID_00000033329786779338181920000018128277124465148085_);fill:#D91D1C;}
	.st462{clip-path:url(#SVGID_00000047763473802656400860000007525479085978225028_);fill:#D81D1B;}
	.st463{clip-path:url(#SVGID_00000173142216962500367360000009565773600963421343_);fill:#D71D1B;}
	.st464{clip-path:url(#SVGID_00000174599798680486911820000008092914970177945777_);fill:#D61D1B;}
	.st465{clip-path:url(#SVGID_00000101065248477533528620000013221914589232828043_);fill:#D51D1A;}
	.st466{clip-path:url(#SVGID_00000173129196088510437080000001335697811840599966_);fill:#D41D1A;}
	.st467{clip-path:url(#SVGID_00000065764857606136403860000014507638797592862108_);fill:#D31D19;}
	.st468{clip-path:url(#SVGID_00000104695851942000268760000010639781486706591934_);fill:#D21E19;}
	.st469{clip-path:url(#SVGID_00000142171352089044458180000012491928781309970585_);fill:#D11E19;}
	.st470{clip-path:url(#SVGID_00000038405631794927211720000016134335493001458594_);fill:#D01E18;}
	.st471{clip-path:url(#SVGID_00000142860203305149302670000009878124008285457839_);fill:#CF1E18;}
	.st472{clip-path:url(#SVGID_00000103264152409231003480000010927166313722046607_);fill:#CE1E17;}
	.st473{clip-path:url(#SVGID_00000042008863422057848580000010883544590624087195_);fill:#CD1E17;}
	.st474{clip-path:url(#SVGID_00000036212447063751431830000017805845304585527472_);fill:#CC1E17;}
	.st475{clip-path:url(#SVGID_00000029757966754133713130000009177464388877898895_);fill:#CB1E16;}
	.st476{clip-path:url(#SVGID_00000117640373515761933320000015991576501536665274_);fill:#CA1E16;}
	.st477{clip-path:url(#SVGID_00000137097222402671646040000008929569742143358341_);fill:#C91E15;}
	.st478{clip-path:url(#SVGID_00000171703838451093781350000009348215494514253459_);fill:#C81E15;}
	.st479{clip-path:url(#SVGID_00000004513838553700749220000012158606151829614765_);fill:#C71E14;}
	.st480{clip-path:url(#SVGID_00000178920985401689117710000016896569981486447039_);fill:#C61E14;}
	.st481{clip-path:url(#SVGID_00000142163103584636429600000011973933550820491446_);fill:#C51E14;}
	.st482{clip-path:url(#SVGID_00000129900455526521668930000017524699677748928427_);fill:#C41E13;}
	.st483{clip-path:url(#SVGID_00000127742319229037439210000013819823330212187568_);fill:#C31E13;}
	.st484{clip-path:url(#SVGID_00000082368782610601773240000013357301309208154536_);fill:#C21E12;}
	.st485{clip-path:url(#SVGID_00000000938775866153636370000001344574795432445623_);fill:#C11F12;}
	.st486{clip-path:url(#SVGID_00000117661557171862307050000004123614425466035109_);fill:#BF1F12;}
	.st487{clip-path:url(#SVGID_00000161604897209100048350000011584551684653354902_);fill:#BE1F11;}
	.st488{clip-path:url(#SVGID_00000078037612469812343190000001928876850461091262_);fill:#BD1F11;}
	.st489{clip-path:url(#SVGID_00000085215882335054856450000014583282420327208850_);fill:#BC1F10;}
	.st490{clip-path:url(#SVGID_00000096776351838594067500000014724016681690569610_);fill:#BB1F10;}
	.st491{clip-path:url(#SVGID_00000013888387757484437850000008822164498284525993_);fill:#BA1F10;}
	.st492{clip-path:url(#SVGID_00000102503186901396897010000010739242721062758576_);fill:#B91F0F;}
	.st493{clip-path:url(#SVGID_00000116219644139006915550000004534160538534288806_);fill:#B81F0F;}
	.st494{clip-path:url(#SVGID_00000112634123970769891620000000698306747346366116_);fill:#B71F0E;}
	.st495{clip-path:url(#SVGID_00000152226266965387050150000008183053541211467148_);fill:#B61F0E;}
	.st496{clip-path:url(#SVGID_00000093892024639285578860000017156294484934757001_);fill:#B51F0E;}
	.st497{clip-path:url(#SVGID_00000092424647462717181850000016242373039963941790_);fill:#B41F0D;}
	.st498{clip-path:url(#SVGID_00000057854461205475176470000011696616430733778853_);fill:#B31F0D;}
	.st499{clip-path:url(#SVGID_00000103975309582464867060000012638113963888903854_);fill:#B21F0C;}
	.st500{clip-path:url(#SVGID_00000044861390072890114400000007256998138073188244_);fill:#B11F0C;}
	.st501{clip-path:url(#SVGID_00000135665449950517497790000001347078643367742136_);fill:#B01F0B;}
	.st502{clip-path:url(#SVGID_00000158020006788141346320000006362372675558943386_);fill:#AF1F0B;}
	.st503{clip-path:url(#SVGID_00000095312531591640929830000014510679554880085122_);fill:#AE200B;}
	.st504{clip-path:url(#SVGID_00000000904675228925701370000008180150886922655645_);fill:#AD200A;}
	.st505{clip-path:url(#SVGID_00000060714756022316736270000014675164852899344278_);fill:#AC200A;}
	.st506{clip-path:url(#SVGID_00000072278700646272100770000002677956268989164929_);fill:#AB2009;}
	.st507{clip-path:url(#SVGID_00000098181287763131012150000006776961943941994661_);fill:#AA2009;}
	.st508{clip-path:url(#SVGID_00000157993470272678394590000017853166998229745310_);fill:#A92009;}
	.st509{clip-path:url(#SVGID_00000025440756602166453020000011400491516740796571_);fill:#A82008;}
	.st510{clip-path:url(#SVGID_00000165226989808530744570000013567918822690421179_);fill:#A72008;}
	.st511{clip-path:url(#SVGID_00000127743905568683997540000013776933225648312195_);fill:#A62007;}
	.st512{clip-path:url(#SVGID_00000103975568193070565590000008578210130512063650_);fill:#A52007;}
	.st513{clip-path:url(#SVGID_00000060720117849953526860000007726575432241810560_);fill:#A42007;}
	.st514{clip-path:url(#SVGID_00000089571480959209601000000011988828078087385016_);fill:#A32006;}
	.st515{clip-path:url(#SVGID_00000170962951272448597000000007484457893552002983_);fill:#A22006;}
	.st516{clip-path:url(#SVGID_00000163767229294948262610000014706076817375470987_);fill:#A12005;}
	.st517{clip-path:url(#SVGID_00000110442700061437709110000012016901286827875259_);fill:#A02005;}
	.st518{clip-path:url(#SVGID_00000104670565470826216530000011793338034820033939_);fill:#9F2005;}
	.st519{clip-path:url(#SVGID_00000002357312217727450440000009293045175810394007_);fill:#9E2004;}
	.st520{clip-path:url(#SVGID_00000045583421721336252520000010026242128768043939_);fill:#9D2004;}
	.st521{clip-path:url(#SVGID_00000011008997339573112800000010427721457260627596_);fill:#9C2103;}
	.st522{clip-path:url(#SVGID_00000052071267994266359040000002164481221942306713_);fill:#9B2103;}
	.st523{clip-path:url(#SVGID_00000000935351132607652570000003660191535240369849_);fill:#9A2102;}
	.st524{clip-path:url(#SVGID_00000041297198051357729170000014177654389341122993_);fill:#992102;}
	.st525{clip-path:url(#SVGID_00000004532845407030134390000015129273325990686351_);fill:#982102;}
	.st526{clip-path:url(#SVGID_00000039824817867037411140000003173951900396484013_);fill:#972101;}
	.st527{clip-path:url(#SVGID_00000039132711407097114350000016400654965201189816_);fill:#962101;}
	.st528{clip-path:url(#SVGID_00000063621656777637160590000009252568526953904828_);fill:#952100;}
	.st529{clip-path:url(#SVGID_00000034067824571618973950000009411927393100838290_);fill:#942100;}
	.st530{fill:#41AA54;}
	.st531{fill:#40A629;}
	.st532{fill:url(#SVGID_00000098941054255412577910000009121202633887593385_);}
	.st533{fill:url(#SVGID_00000146479926292551618250000017021871399957741736_);}
	.st534{fill:url(#SVGID_00000183930087534316147280000008800203071453033637_);}
	.st535{fill:url(#SVGID_00000146474998649115536820000009911387613413922985_);}
	.st536{fill:url(#SVGID_00000007404793421965849780000015808993332260155322_);}
	.st537{fill:#214902;}
	.st538{fill:url(#SVGID_00000015338254420033576900000002369509092153880243_);}
	.st539{fill:#009D4B;}
	.st540{opacity:0.5;fill:url(#SVGID_00000018194547292118234220000018283894051569633462_);enable-background:new    ;}
	.st541{opacity:0.5;fill:url(#SVGID_00000121267676577964210010000008721788809416464797_);enable-background:new    ;}
	.st542{opacity:0.5;fill:url(#SVGID_00000092427017452248780530000006207383319974671013_);enable-background:new    ;}
	.st543{opacity:0.5;fill:url(#SVGID_00000061473282708868119780000013449244139407555477_);enable-background:new    ;}
	.st544{opacity:0.5;fill:url(#SVGID_00000137133218093621445800000007224038715503169471_);enable-background:new    ;}
	.st545{opacity:0.5;fill:url(#SVGID_00000012456573760272628640000003201441308191915688_);enable-background:new    ;}
	.st546{opacity:0.5;fill:url(#SVGID_00000038375402733822436700000004216728754268201147_);enable-background:new    ;}
	.st547{opacity:0.2;fill:#539FC9;enable-background:new    ;}
	.st548{opacity:0.5;fill:#539FC9;enable-background:new    ;}
	.st549{fill:#D6E5EB;}
	.st550{fill:#FAFAFA;}
	.st551{fill:#FF9CC7;}
	.st552{fill:#DDDDDD;}
	.st553{fill:#666666;}
	.st554{fill:#BAC8CE;}
	.st555{fill:#67B6EF;}
	.st556{fill:#679DEF;}
	.st557{fill:#67DFEF;}
	.st558{fill:#C7B3FA;}
	.st559{fill:#D4DBDF;}
	.st560{fill:#C7CED2;}
	.st561{opacity:0.1;enable-background:new    ;}
	.st562{fill:#DBDBDB;}
	.st563{fill:#2E383B;}
	.st564{fill:#414E52;}
	.st565{fill:#E6E6E6;}
	.st566{fill:#EEF5F9;}
	.st567{fill:#DBE3E8;}
	.st568{fill:url(#SVGID_00000003823303688730351020000001290459851539122106_);}
	.st569{fill:#889AA5;}
	.st570{fill:#586770;}
	.st571{fill:#DFE6EB;}
	.st572{fill:#F3FBFF;}
	.st573{fill:#212B2E;}
	.st574{fill:#01848A;}
	.st575{fill:#ECB700;}
	.st576{fill:#388EF7;}
	.st577{fill:#66CC20;}
	.st578{fill:#FF5C66;}
	.st579{fill:#F2A983;}
	.st580{fill:#D88F69;}
	.st581{fill:#D2DADE;}
	.st582{fill:#313131;}
	.st583{fill:#12333D;}
	.st584{fill:#1F404A;}
	.st585{fill:#9DC2E3;}
	.st586{fill:#90B5D6;}
	.st587{fill:#BD2903;}
	.st588{fill:#AACFF0;}
	.st589{fill:#CFCFCF;}
	.st590{fill:#D8DFE3;}
	.st591{fill:#E9F1F5;}
	.st592{fill:#038093;}
	.st593{fill:#32ABBF;}
	.st594{fill:#899BA6;}
	.st595{fill:#AFC0C9;}
	.st596{fill:#563317;}
	.st597{opacity:0.3;fill:#563317;enable-background:new    ;}
	.st598{fill:#AEB5B9;}
	.st599{fill:url(#SVGID_00000075152587256264174290000008748700304620812936_);}
	.st600{fill:url(#SVGID_00000150787182430443592340000014824620807140061370_);}
	.st601{opacity:0.15;enable-background:new    ;}
	.st602{fill:url(#SVGID_00000014602065350880375070000014956572223394866613_);}
	.st603{fill:url(#SVGID_00000176021037288354807760000003511190243669461894_);}
	.st604{fill:url(#SVGID_00000089549377560963850090000008768230387037449113_);}
	.st605{fill:url(#SVGID_00000101062311628043463280000012224215662591927206_);}
	.st606{fill:url(#SVGID_00000170963193066007049730000013113352341062821311_);}
	.st607{fill:url(#SVGID_00000015328265677918883600000012009749093364548271_);}
	.st608{fill:url(#SVGID_00000003783417049608183660000003892221757395269773_);}
	.st609{fill:url(#SVGID_00000086657396291197380880000017368077355758769087_);}
	.st610{fill:url(#SVGID_00000144326437339040100070000016820758595174672017_);}
	.st611{fill:url(#SVGID_00000032617737604530863900000005885260322681516952_);}
	.st612{fill:url(#SVGID_00000015320707497815685960000010960209187415795879_);}
	.st613{fill:url(#SVGID_00000134236770671090231210000016561787545156886952_);}
	.st614{fill:url(#SVGID_00000160879602071781320420000007348801939809381250_);}
	.st615{fill:url(#SVGID_00000155853500005889778610000012969985387192746666_);}
	.st616{fill:url(#SVGID_00000081610598926045046760000002579621957552910250_);}
	.st617{fill:#F6E5D1;}
	.st618{fill:#EDF8FF;}
	.st619{fill:#BDD7E6;}
	.st620{fill:url(#SVGID_00000183938457147210809890000018023352996502267551_);}
	.st621{opacity:0.5;fill:#DBE3E8;enable-background:new    ;}
	.st622{fill:url(#SVGID_00000175321658031144956680000008433673472791793337_);}
	.st623{fill:#DDCCB8;}
	.st624{fill:#9AD0B8;}
	.st625{fill:#81B79F;}
	.st626{fill:#94C6F8;}
	.st627{fill:#6EA0D2;}
	.st628{fill:#5587B9;}
	.st629{fill:url(#SVGID_00000132779488005790746220000003811977609081620915_);}
	.st630{fill:url(#SVGID_00000178885211553518141810000004358882193389217205_);}
	.st631{fill:url(#SVGID_00000156585482544556958380000000197384333620149425_);}
	.st632{fill:url(#SVGID_00000117640557005865355650000017214857469413313939_);}
	.st633{fill:url(#SVGID_00000000901711498325281310000017209450048843989409_);}
	.st634{fill:url(#SVGID_00000088098448682820662020000017564194476904008332_);}
	.st635{fill:url(#SVGID_00000103957381130392438750000014379486806022618534_);}
	.st636{fill:url(#SVGID_00000020370919295443030470000007502993777944102035_);}
	.st637{fill:url(#SVGID_00000049181244035436918530000018001117458116253082_);}
	.st638{fill:url(#SVGID_00000142880755909785562150000000609165052460414359_);}
	.st639{fill:url(#SVGID_00000070817539519041338720000009747291435594516611_);}
	.st640{fill:#7AACDE;}
	.st641{fill:url(#SVGID_00000029755635645309760790000013642495743205116560_);}
	.st642{fill:url(#SVGID_00000155868757898059926040000017497435217303860381_);}
	.st643{fill:url(#SVGID_00000091736181351073017850000004661837409779765903_);}
	.st644{fill:url(#SVGID_00000028324315202994115360000008060617070610813608_);}
	.st645{fill:url(#SVGID_00000123442647852790761520000017556142166157782683_);}
	.st646{fill:#A2A9AD;}
	.st647{fill:#5486B8;}
	.st648{fill:#AEE0E5;}
	.st649{fill:#D5FFFF;}
	.st650{fill:#C8FAFF;}
	.st651{fill:#E2FFFF;}
	.st652{fill:url(#SVGID_00000086661169651596849500000003654626240548918185_);}
</style>
<symbol  id="New_Symbol_64" viewBox="-8.7 -5.5 17.3 11">
	<path class="st0" d="M-5.3-0.1c0-2.1,1.5-3.8,3.3-3.8H2c1.6,0,2.9,1.5,2.9,3.4v5.2L-5.3,4.5V-0.1z"/>
	<path class="st1" d="M8.7,3.5H7.6C7.3,3.5,7,3.6,6.8,3.6v1.9L-6.1,5.3l-2.6-1l0.5-1.6L-6,2.7v-3.1c0-2.8,2-5.1,4.6-5.1h3.7
		c2.3,0,4.2,2.1,4.2,4.7V2c0.3-0.1,0.7-0.1,1.1-0.1h1.1V3.5z M5.1-0.8C5.1-2.6,3.8-4,2.3-4h-3.7c-1.7,0-3.1,1.6-3.1,3.6v4.2L5.1,4
		V-0.8z"/>
</symbol>
<g>
	<circle class="st99" cx="318" cy="213.5" r="99.2"/>
	<path class="st100" d="M318,313.2c-55,0-99.7-44.7-99.7-99.7s44.7-99.7,99.7-99.7s99.7,44.7,99.7,99.7S373,313.2,318,313.2z
		 M318,114.8c-54.4,0-98.7,44.3-98.7,98.7c0,54.4,44.3,98.7,98.7,98.7s98.7-44.3,98.7-98.7C416.7,159.1,372.5,114.8,318,114.8z"/>
</g>
<g>
	<path class="st101" d="M273.4,178.2h48.4v67.3h-48.4V178.2z"/>
	<path class="st102" d="M306.6,178.2h14.3v67.3h-14.3V178.2z"/>
	<path class="st102" d="M273.4,178.2l24.2-11.9l24.2,11.9"/>
	<path class="st102" d="M297.6,168.9c-0.7,0-1.3-0.6-1.3-1.3v-6.5c0-0.7,0.6-1.3,1.3-1.3c0.7,0,1.3,0.6,1.3,1.3v6.5
		C298.9,168.3,298.3,168.9,297.6,168.9z"/>
	<g>
		<path class="st4" d="M304.4,204.1c0,0.5-0.4,1-1,1H278c-0.5,0-1-0.4-1-1c0-0.5,0.4-1,1-1h25.4
			C303.9,203.1,304.4,203.5,304.4,204.1z"/>
		<path class="st4" d="M304.4,188.9c0,0.5-0.4,1-1,1H278c-0.5,0-1-0.4-1-1c0-0.5,0.4-1,1-1h25.4
			C303.9,187.9,304.4,188.3,304.4,188.9z"/>
	</g>
	<path class="st103" d="M382.1,228c-0.7,3.5-3.1,6.6-6.7,8.1c0,0-0.1,0-0.1,0c-1.5,3.6-4.5,6.7-8.4,8.3c-3.8,1.5-7.8,1.5-11.3,0.2
		c-2-0.8-3.9-1.9-5.5-3.5c-1.5-1.4-2.6-3.2-3.5-5.2c-3.2-7.9,0.6-17,8.5-20.2c0.2-0.1,0.4-0.1,0.6-0.2c3.8-1.4,7.8-1.2,11.2,0.2
		c0,0,0.1,0,0.1-0.1c1.7-0.7,3.6-0.9,5.3-0.8c1.8,0.2,3.6,0.8,5.1,1.9c2.8-0.5,5.7,1,6.8,3.8C385.4,223.3,384.4,226.4,382.1,228z"/>
	<g>
		<path class="st104" d="M355.7,215.5v28c0,0.4,0,0.7-0.1,1.1c-2-0.8-3.9-1.9-5.5-3.5c-1.5-1.4-2.6-3.2-3.5-5.2
			c-3.2-7.9,0.6-17,8.5-20.2C355.3,215.6,355.5,215.5,355.7,215.5z"/>
		<path class="st104" d="M364,235.9c-2.5,2.5-5.6,4.2-9,4.9c-1.6,0.3-3.2,0.4-4.9,0.3c-1.5-1.4-2.6-3.2-3.5-5.2
			c-3.2-7.9,0.6-17,8.5-20.2c3.9-1.6,8.1-1.5,11.8,0c0,0,0.1,0,0.1-0.1c1.7-0.7,3.6-0.9,5.3-0.8c0.2,3.4-1,6.8-3.3,9.4
			C368.9,228.7,367,232.7,364,235.9z"/>
		<path class="st104" d="M348.7,236.2c-0.6,0-1.2-0.4-1.4-1c-0.3-0.8,0.1-1.7,0.8-2l22.6-9.2c0.8-0.3,1.7,0.1,2,0.8
			c0.3,0.8-0.1,1.7-0.8,2l-22.6,9.2C349.1,236.2,348.9,236.2,348.7,236.2z"/>
	</g>
	<path class="st105" d="M369.9,213.3c0.7,3.5-0.2,7.3-3,10c0,0-0.1,0.1-0.1,0.1c0,3.9-1.5,7.9-4.5,10.9c-1.9,1.9-4.2,3.2-6.6,4
		c-0.4,0.1-0.8,0.2-1.2,0.3c-4.9,1-10.2-0.4-14.1-4.2c-3.1-3.1-4.7-7.2-4.6-11.3c0.1-3.2,1.1-6.4,3.1-9c0.4-0.6,0.9-1.1,1.4-1.6
		c3-3,6.9-4.5,10.9-4.6c0,0,0.1-0.1,0.1-0.1c1.3-1.3,2.8-2.2,4.4-2.7c0.3-0.1,0.6-0.2,0.9-0.2c1.5-0.4,3.2-0.4,4.7-0.1
		c2.4-1.6,5.6-1.3,7.8,0.8C371.2,207.6,371.5,210.8,369.9,213.3z"/>
	<g>
		<path class="st103" d="M355.7,205v33.2c-0.4,0.1-0.8,0.2-1.2,0.3c-4.9,1-10.2-0.4-14.1-4.2c-3.1-3.1-4.7-7.2-4.6-11.3
			c0.1-3.2,1.1-6.4,3.1-9c0.4-0.6,0.9-1.1,1.4-1.6c3-3,6.9-4.5,10.9-4.6c0,0,0.1-0.1,0.1-0.1C352.6,206.5,354.1,205.6,355.7,205z"/>
		<path class="st103" d="M341.8,234c-0.4,0-0.8-0.1-1.1-0.4c-0.6-0.6-0.6-1.6,0-2.2l17.2-17.3c0.6-0.6,1.6-0.6,2.2,0
			c0.6,0.6,0.6,1.6,0,2.2l-17.2,17.3C342.6,233.9,342.2,234,341.8,234z"/>
	</g>
	<path class="st106" d="M353.5,192.3v51.2c0,1.1-0.9,2-2,2h-38c-1.1,0-2-0.9-2-2v-51.2c0-6.6,1.8-13.1,5.2-18.8l0.2-0.4
		c1.1-1.8,2-3.7,2.8-5.7c0.4-1.1,0.8-2.2,1.1-3.3c0.9-3.2,1.3-6.4,1.3-9.7h20.8c0,4.5,0.8,8.9,2.4,13c0.8,2,1.7,3.9,2.8,5.7l0.2,0.4
		C351.7,179.2,353.5,185.7,353.5,192.3z"/>
	<path class="st107" d="M353.5,192.3v51.2c0,1.1-0.9,2-2,2h-38c-1.1,0-2-0.9-2-2v-51.2c0-6.6,1.8-13.1,5.2-18.8l0.2-0.4
		c1.1-1.8,2-3.7,2.8-5.7h25.7c0.8,2,1.7,3.9,2.8,5.7l0.2,0.4C351.7,179.2,353.5,185.7,353.5,192.3z"/>
	<g>
		<path class="st108" d="M353.5,192.3v51.2c0,1.1-0.9,2-2,2h-30.5c29.4-21.7,23.3-64.7,20.6-78.1h3.8c0.8,2,1.7,3.9,2.8,5.7l0.2,0.4
			C351.7,179.2,353.5,185.7,353.5,192.3z"/>
	</g>
	<path class="st109" d="M345.4,156.8h-26c-1.1,0-2-0.9-2-2v-5.2c0-1.6,1.3-2.9,2.9-2.9h24.4c1.6,0,2.9,1.3,2.9,2.9v5.2
		C347.5,155.9,346.6,156.8,345.4,156.8z"/>
	<path class="st108" d="M337.2,177.2c-0.8,0-1.5-0.7-1.5-1.5c0-0.8,0.7-1.5,1.5-1.6l0,0c0,0,0,0,0,0c0.8,0,1.5,0.7,1.5,1.5
		C338.7,176.5,338.1,177.2,337.2,177.2C337.2,177.2,337.2,177.2,337.2,177.2z"/>
	<g>
		<path class="st110" d="M265.6,250.1c8.2,0,18.7-1.7,23.6-6.5c0.3-0.3,0.5-0.8,0.3-1.3l-9.8-25.3c-0.2-0.6-0.8-0.9-1.4-0.7
			c-3.3,0.9-3.9-3.3-1.7-4.4c0.6-0.3,0.8-0.9,0.6-1.5l-2-5.1c-0.2-0.5-0.6-0.8-1.1-0.8h-8.4V250.1z"/>
		<path class="st111" d="M265.6,250.1c-5.7,0-11.2-2.2-15.2-6.1c-0.3-0.3-0.5-0.8-0.3-1.3l1.5-3.8c0.2-0.4,0.6-0.7,1-0.8
			c1.8-0.1,3-2.6,1.5-4c-0.3-0.3-0.4-0.8-0.3-1.3l3.9-10.1c0.2-0.6,1-0.9,1.6-0.7c0.1,0,0.1,0.1,0.2,0.1c3,1.9,5.1-3.8,1.7-4.4
			c-0.7-0.1-1.1-0.7-1-1.4c0-0.1,0-0.1,0.1-0.2l4.2-10.9c0.2-0.5,0.6-0.8,1.1-0.8c0.5,0,0.9,0.3,1.1,0.8l14.4,37.4
			c0.2,0.4,0.1,1-0.3,1.3C276.7,247.9,271.3,250.1,265.6,250.1L265.6,250.1z"/>
		<circle class="st111" cx="270.4" cy="238.1" r="3.6"/>
		<circle class="st112" cx="266.8" cy="229.7" r="3.6"/>
		<g>
			<path class="st110" d="M269.2,240.5c0-2,1.6-3.6,3.6-3.6c0.4,0,0.7,0.1,1,0.2c-0.6-1.9-2.6-3-4.5-2.4c-1.9,0.6-3,2.6-2.4,4.5
				c0.3,1.2,1.2,2.1,2.4,2.4C269.2,241.2,269.2,240.9,269.2,240.5z"/>
			<path class="st110" d="M265.6,232.1c0-2,1.6-3.6,3.6-3.6c0.4,0,0.7,0.1,1,0.2c-0.6-1.9-2.6-3-4.5-2.4c-1.9,0.6-3,2.6-2.4,4.5
				c0.3,1.2,1.2,2.1,2.4,2.4C265.6,232.8,265.6,232.5,265.6,232.1z"/>
			<path class="st110" d="M259.6,242.9c0-2,1.6-3.6,3.6-3.6c0.4,0,0.7,0.1,1,0.2c-0.6-1.9-2.6-3-4.5-2.4c-1.9,0.6-3,2.6-2.4,4.5
				c0.3,1.2,1.2,2.1,2.4,2.4C259.6,243.6,259.6,243.3,259.6,242.9z"/>
		</g>
		<circle class="st113" cx="265.6" cy="215.3" r="2.4"/>
		<circle class="st113" cx="268" cy="220.1" r="1.2"/>
	</g>
	<g>
		<path class="st107" d="M325.9,217.4l-0.2,1.6l-0.3,2.8l-2.5,23.5c-0.2,2-1.9,3.5-3.9,3.5h-13.9c-2,0-3.7-1.5-3.9-3.5l-2.5-23.5
			l-0.3-2.8l-0.2-1.6H325.9z"/>
		<path class="st114" d="M325.9,217.4l-0.2,1.6l-0.3,2.8h-26.7l-0.3-2.8l-0.2-1.6H325.9z"/>
		<path class="st115" d="M312.9,214.8l13,2.6l-0.2,1.6h-27.3l-0.2-1.6L312.9,214.8z"/>
		<path class="st114" d="M296.4,215.7v-5.7c0-0.9,0.8-1.7,1.7-1.7h28c0.9,0,1.7,0.8,1.7,1.7v5.7c0,0.9-0.8,1.7-1.7,1.7h-28
			C297.1,217.4,296.4,216.7,296.4,215.7z"/>
		<path class="st115" d="M317.3,215.7v-5.7c0-0.9-0.8-1.7-1.7-1.7h10.5c0.9,0,1.7,0.8,1.7,1.7v5.7c0,0.9-0.8,1.7-1.7,1.7h-10.5
			C316.5,217.4,317.3,216.7,317.3,215.7z"/>
		<path class="st108" d="M315.5,248.8c1,0,1.8-1.5,1.9-3.5l1.2-23.5l0.2-4.4h7l-0.2,1.6l-0.3,2.8l-2.5,23.5c-0.2,2-1.9,3.5-3.9,3.5
			H315.5L315.5,248.8z"/>
		<path class="st115" d="M318.9,217.4h7l-0.2,1.6l-0.3,2.8h-6.8L318.9,217.4z"/>
	</g>
</g>
<g>
	<circle class="st99" cx="114" cy="130.1" r="99.2"/>
	<path class="st100" d="M114,229.8c-55,0-99.7-44.7-99.7-99.7S59,30.4,114,30.4s99.7,44.7,99.7,99.7S168.9,229.8,114,229.8z
		 M114,31.4c-54.4,0-98.7,44.3-98.7,98.7c0,54.4,44.3,98.7,98.7,98.7s98.7-44.3,98.7-98.7C212.7,75.7,168.4,31.4,114,31.4z"/>
</g>
<g>
	<g>
		<circle class="st99" cx="592" cy="213.5" r="99.2"/>
		<path class="st100" d="M592,313.2c-55,0-99.7-44.7-99.7-99.7s44.7-99.7,99.7-99.7s99.7,44.7,99.7,99.7S647,313.2,592,313.2z
			 M592,114.8c-54.4,0-98.7,44.3-98.7,98.7c0,54.4,44.3,98.7,98.7,98.7s98.7-44.3,98.7-98.7C690.7,159.1,646.4,114.8,592,114.8z"/>
	</g>
	<g>
		<circle class="st99" cx="796.1" cy="130.1" r="99.2"/>
		<path class="st100" d="M796.1,229.8c-55,0-99.7-44.7-99.7-99.7s44.7-99.7,99.7-99.7s99.7,44.7,99.7,99.7S851.1,229.8,796.1,229.8z
			 M796.1,31.4c-54.4,0-98.7,44.3-98.7,98.7c0,54.4,44.3,98.7,98.7,98.7s98.7-44.3,98.7-98.7C894.8,75.7,850.5,31.4,796.1,31.4z"/>
	</g>
</g>
<g>
	<g>
		<path class="st25" d="M407.1,185.6v153.1c0,3.1,2.5,5.5,5.5,5.5H503c3.1,0,5.5-2.5,5.5-5.5V185.6H407.1z"/>
		<path class="st23" d="M407.1,185.6v153.1c0,3.1,2.5,5.5,5.5,5.5H503c3.1,0,5.5-2.5,5.5-5.5V185.6H407.1z"/>
		<g>
			<rect x="407.1" y="227.8" class="st24" width="101.5" height="74.3"/>
		</g>
		<g>
			<rect x="398.5" y="167.3" class="st25" width="118.5" height="18.7"/>
			<rect x="478.7" y="167.3" class="st26" width="38.4" height="18.7"/>
			<rect x="403.7" y="167.3" class="st27" width="20.3" height="18.7"/>
		</g>
		<g>
			<path class="st28" d="M508.5,163.1c0-1-0.8-1.8-1.8-1.8h0v-25.7c0-1.4-1.2-2.6-2.6-2.6h-92.7c-1.4,0-2.6,1.2-2.6,2.6v25.7h0
				c-1,0-1.8,0.8-1.8,1.8v4.2h101.5V163.1z"/>
			<g>
				<path class="st29" d="M414.9,160.4c0,0.6-0.5,1.1-1.1,1.1l0,0c-0.6,0-1.1-0.5-1.1-1.1v-23c0-0.6,0.5-1.1,1.1-1.1l0,0
					c0.6,0,1.1,0.5,1.1,1.1V160.4z"/>
				<path class="st29" d="M422.3,160.4c0,0.6-0.5,1.1-1.1,1.1l0,0c-0.6,0-1.1-0.5-1.1-1.1v-23c0-0.6,0.5-1.1,1.1-1.1l0,0
					c0.6,0,1.1,0.5,1.1,1.1V160.4z"/>
				<path class="st29" d="M429.6,160.4c0,0.6-0.5,1.1-1.1,1.1l0,0c-0.6,0-1.1-0.5-1.1-1.1v-23c0-0.6,0.5-1.1,1.1-1.1l0,0
					c0.6,0,1.1,0.5,1.1,1.1V160.4z"/>
				<path class="st29" d="M436.9,160.4c0,0.6-0.5,1.1-1.1,1.1l0,0c-0.6,0-1.1-0.5-1.1-1.1v-23c0-0.6,0.5-1.1,1.1-1.1l0,0
					c0.6,0,1.1,0.5,1.1,1.1V160.4z"/>
				<path class="st29" d="M444.2,160.4c0,0.6-0.5,1.1-1.1,1.1l0,0c-0.6,0-1.1-0.5-1.1-1.1v-23c0-0.6,0.5-1.1,1.1-1.1l0,0
					c0.6,0,1.1,0.5,1.1,1.1V160.4z"/>
				<path class="st29" d="M451.6,160.4c0,0.6-0.5,1.1-1.1,1.1l0,0c-0.6,0-1.1-0.5-1.1-1.1v-23c0-0.6,0.5-1.1,1.1-1.1l0,0
					c0.6,0,1.1,0.5,1.1,1.1V160.4z"/>
				<path class="st29" d="M458.9,160.4c0,0.6-0.5,1.1-1.1,1.1l0,0c-0.6,0-1.1-0.5-1.1-1.1v-23c0-0.6,0.5-1.1,1.1-1.1l0,0
					c0.6,0,1.1,0.5,1.1,1.1V160.4z"/>
				<path class="st29" d="M466.2,160.4c0,0.6-0.5,1.1-1.1,1.1l0,0c-0.6,0-1.1-0.5-1.1-1.1v-23c0-0.6,0.5-1.1,1.1-1.1l0,0
					c0.6,0,1.1,0.5,1.1,1.1V160.4z"/>
				<path class="st29" d="M473.5,160.4c0,0.6-0.5,1.1-1.1,1.1l0,0c-0.6,0-1.1-0.5-1.1-1.1v-23c0-0.6,0.5-1.1,1.1-1.1l0,0
					c0.6,0,1.1,0.5,1.1,1.1V160.4z"/>
				<path class="st29" d="M480.9,160.4c0,0.6-0.5,1.1-1.1,1.1l0,0c-0.6,0-1.1-0.5-1.1-1.1v-23c0-0.6,0.5-1.1,1.1-1.1l0,0
					c0.6,0,1.1,0.5,1.1,1.1V160.4z"/>
				<path class="st29" d="M488.2,160.4c0,0.6-0.5,1.1-1.1,1.1l0,0c-0.6,0-1.1-0.5-1.1-1.1v-23c0-0.6,0.5-1.1,1.1-1.1l0,0
					c0.6,0,1.1,0.5,1.1,1.1V160.4z"/>
				<path class="st29" d="M495.5,160.4c0,0.6-0.5,1.1-1.1,1.1l0,0c-0.6,0-1.1-0.5-1.1-1.1v-23c0-0.6,0.5-1.1,1.1-1.1l0,0
					c0.6,0,1.1,0.5,1.1,1.1V160.4z"/>
				<path class="st29" d="M502.9,160.4c0,0.6-0.5,1.1-1.1,1.1l0,0c-0.6,0-1.1-0.5-1.1-1.1v-23c0-0.6,0.5-1.1,1.1-1.1l0,0
					c0.6,0,1.1,0.5,1.1,1.1V160.4z"/>
			</g>
		</g>
	</g>
	<g>
		<rect x="422.4" y="281.3" class="st29" width="70.7" height="3"/>
		<rect x="422.4" y="290.1" class="st29" width="70.7" height="3"/>
	</g>
</g>
<g>
	<path class="st116" d="M89.6,189.4h8.2v2h-5.8v4.5c0.7,0,1.3,0,1.9,0c0.6,0,1.2,0,1.7,0s1.1,0,1.7-0.1s1.1-0.1,1.7-0.2l0.2,2
		c-0.6,0.1-1.2,0.1-1.8,0.2s-1.3,0.1-2.1,0.1s-1.6,0-2.5,0c-0.9,0-2,0-3.2,0V189.4z M94.2,203.6h8.9v2H91.9v-5.8h2.4V203.6z
		 M102.7,192.7h2.3v2.1h-2.3v6h-2.4v-12.4h2.4V192.7z"/>
	<path class="st116" d="M113.1,189.2v8.3h-7v-8.3h2.2v2.4h2.6v-2.4H113.1z M110.9,195.6v-2h-2.6v2H110.9z M108.7,199.3h11.7v6.7
		h-2.4v-4.7h-9.4V199.3z M116.7,192.3h1.5v-4h2.3v10.2h-2.3v-4.2h-1.5v4.2h-2.2v-9.9h2.2V192.3z"/>
	<path class="st116" d="M123.3,189h9v2h-3.3v0.6c0,0.2,0,0.4,0.1,0.6s0.1,0.3,0.2,0.5c0.1,0.2,0.2,0.3,0.4,0.5
		c0.2,0.2,0.4,0.3,0.7,0.5c0.4,0.2,0.8,0.5,1.2,0.8c0.4,0.3,0.9,0.5,1.3,0.8l-1.2,1.7c-0.4-0.2-0.8-0.5-1.2-0.7
		c-0.4-0.2-0.8-0.5-1.2-0.7c-0.8-0.5-1.2-0.9-1.4-1.1h0c-0.1,0.2-0.6,0.6-1.4,1.2c-0.4,0.3-0.8,0.6-1.3,0.9c-0.5,0.3-1,0.7-1.5,1
		l-1.3-1.7c0.6-0.4,1.2-0.8,1.7-1.1c0.6-0.4,1-0.7,1.4-1.1c0.4-0.3,0.6-0.6,0.8-0.9c0.1-0.3,0.2-0.6,0.2-1.1V191h-3.4V189z
		 M136.8,197.8v5h-8.7v1.3h9.2v1.9h-11.5v-5h8.7v-1.3h-8.7v-1.9H136.8z M136.8,197h-2.4v-8.7h2.4V197z"/>
</g>
<g>
	<path class="st116" d="M783.8,201.3h-8.4v-11.6h2.3v3.9h3.7v-3.9h2.3V201.3z M777.7,199.3h3.7v-3.6h-3.7V199.3z M788.9,205.8h-2.4
		v-17.5h2.4V205.8z"/>
	<path class="st116" d="M791.8,189.7h8.2v2h-5.8v2.9h5.4v2h-5.4v2.9h1.2c0.9,0,1.9,0,2.9-0.1s2-0.1,2.9-0.3l0.2,2
		c-0.4,0.1-0.9,0.1-1.4,0.2c-0.5,0-1.1,0.1-1.6,0.1c-0.6,0-1.1,0-1.7,0c-0.6,0-1.2,0-1.7,0h-3V189.7z M804.8,194.6h2.4v2.1h-2.4v9.2
		h-2.4v-17.5h2.4V194.6z"/>
	<path class="st116" d="M816.8,197.9h-8.2v-8.5h8.2V197.9z M814.5,191.3h-3.5v4.6h3.5V191.3z M813.4,203.6h9v2H811v-5.9h2.4V203.6z
		 M822.1,200.7h-2.4v-12.4h2.4V200.7z"/>
</g>
<g>
	<path class="st116" d="M313.1,279.5v2h-6.8v5.5H304v-5.5h-6.8v-2H313.1z M311,270.4v7.4h-11.6v-7.4H311z M301.7,275.8h6.9v-3.4
		h-6.9V275.8z"/>
	<path class="st116" d="M314.6,281.5c0.9-0.6,1.7-1.1,2.4-1.5c0.7-0.4,1.2-0.8,1.7-1.2s0.8-0.7,1.1-1.1c0.3-0.3,0.5-0.7,0.6-1
		c0.1-0.3,0.2-0.7,0.3-1.1c0-0.4,0.1-0.8,0.1-1.3v-1.3h-5.7v-2h8.1v3.5c0,0.6,0,1.2-0.1,1.7c-0.1,0.5-0.2,1-0.4,1.4
		s-0.4,0.9-0.8,1.3c-0.3,0.4-0.8,0.8-1.3,1.3c-0.5,0.4-1.2,0.9-1.9,1.4s-1.7,1.1-2.7,1.7L314.6,281.5z M328.5,286.9h-2.4v-17.5h2.4
		V286.9z"/>
	<path class="st116" d="M331.6,270.2h9v2h-3.3v0.6c0,0.2,0,0.4,0.1,0.6s0.1,0.3,0.2,0.5s0.2,0.3,0.4,0.5c0.2,0.2,0.4,0.3,0.7,0.5
		c0.4,0.2,0.8,0.5,1.2,0.8c0.4,0.3,0.9,0.5,1.3,0.8l-1.2,1.7c-0.4-0.2-0.8-0.5-1.2-0.7s-0.8-0.5-1.2-0.7c-0.8-0.5-1.2-0.9-1.4-1.1h0
		c-0.1,0.2-0.5,0.6-1.4,1.2c-0.4,0.3-0.8,0.6-1.3,0.9c-0.5,0.3-1,0.7-1.5,1l-1.3-1.7c0.6-0.4,1.2-0.8,1.7-1.1c0.5-0.4,1-0.7,1.4-1.1
		c0.4-0.3,0.6-0.6,0.8-0.9c0.1-0.3,0.2-0.6,0.2-1.1v-0.6h-3.4V270.2z M345,278.9v5h-8.7v1.3h9.2v1.9h-11.5v-5h8.7v-1.3H334v-1.9H345
		z M345,278.2h-2.4v-8.7h2.4V278.2z"/>
</g>
<g>
	<path class="st116" d="M573.6,275.8c0,0.2-0.2,0.4-0.4,0.6s-0.5,0.5-0.8,0.7c-0.4,0.4-0.9,0.8-1.3,1.2s-0.9,0.8-1.5,1.3l-1.5-1.7
		c0.5-0.4,1-0.8,1.5-1.2c0.5-0.4,1-0.9,1.4-1.3c0.5-0.4,0.8-0.9,1-1.3c0.2-0.4,0.3-1,0.3-1.6v-2.3h2.4v2.2c0,0.3,0,0.6,0.1,0.9
		c0,0.3,0.1,0.5,0.2,0.7c0.1,0.2,0.2,0.4,0.4,0.6c0.2,0.2,0.4,0.4,0.6,0.6c0.5,0.4,0.9,0.8,1.4,1.1c0.5,0.4,0.9,0.7,1.4,1l-1.4,1.7
		c-0.4-0.3-0.8-0.6-1.2-0.9c-0.4-0.3-0.8-0.7-1.3-1c-0.3-0.3-0.6-0.5-0.8-0.7C573.8,276.2,573.7,276,573.6,275.8L573.6,275.8z
		 M571,280.5h11.6v6.7h-2.4v-4.7H571V280.5z M582.6,279.7h-2.4v-10.2h2.4V279.7z"/>
	<path class="st116" d="M590.2,282.8c-0.8,0-1.5-0.1-2.1-0.4s-1-0.6-1.4-1.1c-0.4-0.5-0.6-1-0.8-1.6c-0.2-0.6-0.3-1.3-0.3-2v-2.1
		c0-0.7,0.1-1.4,0.3-2s0.4-1.2,0.8-1.6c0.4-0.5,0.8-0.8,1.4-1.1s1.3-0.4,2.1-0.4c0.8,0,1.5,0.1,2.1,0.4s1,0.6,1.4,1.1
		c0.4,0.5,0.6,1,0.8,1.6s0.3,1.3,0.3,2v2.1c0,0.7-0.1,1.4-0.3,2c-0.2,0.6-0.4,1.1-0.8,1.6c-0.4,0.5-0.8,0.8-1.4,1.1
		S591,282.8,590.2,282.8z M590.2,272.7c-0.8,0-1.4,0.3-1.7,0.8c-0.3,0.6-0.5,1.4-0.5,2.4v1.5c0,1.1,0.2,1.9,0.5,2.4
		c0.3,0.5,0.9,0.8,1.7,0.8c0.8,0,1.4-0.3,1.7-0.8c0.3-0.6,0.5-1.4,0.5-2.4V276c0-1.1-0.2-1.9-0.5-2.4S591,272.7,590.2,272.7z
		 M599.5,286.9h-2.4v-17.5h2.4V286.9z"/>
	<path class="st116" d="M606.8,275.8c-0.1,0.2-0.2,0.3-0.3,0.5c-0.2,0.2-0.4,0.5-0.8,0.8c-0.4,0.4-0.9,0.8-1.4,1.1
		c-0.5,0.4-1,0.8-1.5,1.2l-1.4-1.7c0.5-0.4,1.1-0.8,1.5-1.1c0.5-0.4,0.9-0.8,1.4-1.2c0.4-0.4,0.7-0.8,0.9-1.2s0.3-1,0.3-1.6v-2.3
		h2.4v2.3c0,0.3,0,0.6,0,0.8c0,0.2,0.1,0.5,0.2,0.7s0.2,0.4,0.4,0.6c0.2,0.2,0.4,0.4,0.6,0.6c0.4,0.3,0.8,0.6,1.3,1s1,0.7,1.4,1
		l-1.3,1.7c-0.4-0.3-0.9-0.6-1.3-0.9s-0.8-0.6-1.1-0.9c-0.3-0.2-0.6-0.5-0.9-0.7C607,276.1,606.9,275.9,606.8,275.8L606.8,275.8z
		 M604.9,280.1H616v6.9h-11.1V280.1z M607.2,285h6.4V282h-6.4V285z M613.6,274.7h-3.1v-2h3.1v-3.2h2.4v9.8h-2.4V274.7z"/>
	<path class="st116" d="M634.2,279.4v2h-3.8v5.4H628v-5.4h-3.6v5.4H622v-5.4h-3.8v-2H634.2z M626.2,278.1c-0.9,0-1.7-0.1-2.4-0.2
		c-0.7-0.2-1.4-0.4-1.9-0.7c-0.5-0.3-1-0.7-1.3-1.2c-0.3-0.5-0.5-1-0.5-1.6v-0.8c0-0.6,0.2-1.1,0.5-1.6c0.3-0.5,0.7-0.9,1.3-1.2
		c0.5-0.3,1.2-0.6,1.9-0.7s1.5-0.3,2.4-0.3s1.7,0.1,2.4,0.3s1.4,0.4,1.9,0.7c0.5,0.3,1,0.7,1.3,1.2s0.5,1,0.5,1.6v0.8
		c0,0.6-0.2,1.1-0.5,1.6c-0.3,0.5-0.7,0.9-1.3,1.2c-0.5,0.3-1.2,0.6-1.9,0.7C627.8,278,627,278.1,626.2,278.1z M626.2,271.8
		c-0.5,0-1,0-1.5,0.1c-0.4,0.1-0.8,0.2-1.2,0.4s-0.6,0.4-0.8,0.6s-0.3,0.5-0.3,0.8v0.6c0,0.3,0.1,0.5,0.3,0.8s0.4,0.4,0.8,0.6
		s0.7,0.3,1.2,0.4c0.4,0.1,0.9,0.1,1.5,0.1s1,0,1.5-0.1c0.4-0.1,0.8-0.2,1.2-0.4c0.3-0.2,0.6-0.4,0.8-0.6s0.3-0.5,0.3-0.8v-0.6
		c0-0.3-0.1-0.5-0.3-0.8s-0.4-0.4-0.8-0.6c-0.3-0.2-0.7-0.3-1.2-0.4C627.2,271.9,626.7,271.8,626.2,271.8z"/>
</g>
<g>
	<circle class="st4" cx="457.8" cy="232" r="33.5"/>
	<g>
		<g>
			<g>
				<g>
					<path class="st97" d="M456,222.4v-3.1h-2c-0.1,0.3-0.3,0.6-0.5,0.8c-0.2,0.2-0.5,0.4-0.8,0.6c-0.3,0.2-0.6,0.3-0.9,0.4
						c-0.3,0.1-0.7,0.2-1,0.3l-0.5-0.6c0.4-0.1,0.7-0.2,1.1-0.3c0.3-0.1,0.6-0.3,0.9-0.4c0.3-0.2,0.5-0.4,0.6-0.6
						c0.2-0.2,0.2-0.5,0.2-0.9v-0.5c0-0.2,0-0.4-0.1-0.5c-0.1-0.1-0.2-0.1-0.4-0.1h-2v-0.8h2.2c0.2,0,0.4,0,0.6,0.1
						c0.2,0,0.3,0.1,0.4,0.2c0.1,0.1,0.2,0.2,0.2,0.4c0,0.2,0.1,0.3,0.1,0.6v0.6h1.8v-2h0.9v5.4c0,0.2,0,0.3-0.1,0.4
						c0,0.1-0.2,0.1-0.3,0.1H456z M452.7,224.6c-0.2,0-0.4-0.1-0.5-0.2c-0.1-0.1-0.2-0.3-0.2-0.5v-2.1h0.9v1.8c0,0.1,0,0.2,0.1,0.2
						h4.1v0.4c0,0.1,0,0.2-0.1,0.3c-0.1,0.1-0.1,0.1-0.3,0.1H452.7z"/>
					<path class="st97" d="M456.8,224.7h-4.1c-0.2,0-0.4-0.1-0.6-0.2c-0.1-0.1-0.2-0.3-0.2-0.5v-2.1h1.1v1.9c0,0.1,0,0.1,0,0.1
						l4.2,0v0.5c0,0.1,0,0.2-0.1,0.3C457,224.6,456.9,224.7,456.8,224.7z M452.1,221.9v2c0,0.2,0.1,0.3,0.2,0.4
						c0.1,0.1,0.2,0.2,0.4,0.2h4.1c0.1,0,0.2,0,0.2-0.1c0,0,0.1-0.1,0.1-0.2v-0.3H453c-0.1,0-0.2,0-0.2-0.2v-1.7H452.1z
						 M456.5,222.4H456v-3.1h-1.8c-0.1,0.3-0.3,0.6-0.5,0.8c-0.2,0.2-0.5,0.4-0.8,0.6c-0.3,0.2-0.6,0.3-0.9,0.4
						c-0.3,0.1-0.7,0.2-1,0.3l-0.1,0l-0.6-0.7l0.1,0c0.4-0.1,0.7-0.2,1.1-0.3c0.3-0.1,0.6-0.3,0.9-0.4c0.3-0.2,0.5-0.4,0.6-0.6
						c0.1-0.2,0.2-0.5,0.2-0.8v-0.5c0-0.2,0-0.4-0.1-0.4c0-0.1-0.2-0.1-0.4-0.1h-2.1v-0.9h2.3c0.2,0,0.4,0,0.6,0.1
						c0.2,0,0.3,0.1,0.4,0.2c0.1,0.1,0.2,0.2,0.2,0.4c0,0.2,0.1,0.4,0.1,0.6v0.5h1.7v-2h1.1v5.5c0,0.2,0,0.3-0.1,0.4
						C456.9,222.4,456.7,222.4,456.5,222.4z M456.1,222.3h0.4c0.1,0,0.2,0,0.3-0.1c0,0,0.1-0.1,0.1-0.3v-5.3h-0.7v2h-2v-0.7
						c0-0.2,0-0.4-0.1-0.6c0-0.1-0.1-0.2-0.2-0.3c-0.1-0.1-0.2-0.1-0.3-0.2c-0.1,0-0.3-0.1-0.5-0.1h-2.1v0.6h2
						c0.2,0,0.4,0.1,0.5,0.2c0.1,0.1,0.1,0.3,0.1,0.5v0.5c0,0.3-0.1,0.6-0.3,0.9c-0.2,0.2-0.4,0.5-0.7,0.6c-0.3,0.2-0.6,0.3-0.9,0.5
						c-0.3,0.1-0.6,0.2-0.9,0.3l0.4,0.5c0.3-0.1,0.6-0.2,0.9-0.3c0.3-0.1,0.6-0.3,0.9-0.4c0.3-0.2,0.5-0.4,0.7-0.6
						c0.2-0.2,0.4-0.5,0.5-0.8l0-0.1h2.1V222.3z"/>
				</g>
				<g>
					<path class="st97" d="M461.3,218.4c0,0.4-0.1,0.8-0.3,1.1c-0.2,0.3-0.4,0.6-0.7,0.8c-0.3,0.2-0.6,0.4-1,0.6
						c-0.4,0.2-0.8,0.3-1.2,0.4l-0.5-0.6c0.4-0.1,0.7-0.2,1-0.3c0.3-0.1,0.6-0.3,0.9-0.4c0.3-0.2,0.5-0.4,0.6-0.6
						c0.2-0.2,0.2-0.5,0.2-0.8v-0.3c0-0.2,0-0.4-0.1-0.5c-0.1-0.1-0.2-0.1-0.4-0.1h-2v-0.8h2.2c0.2,0,0.4,0,0.6,0.1
						c0.2,0,0.3,0.1,0.4,0.2c0.1,0.1,0.2,0.2,0.2,0.4c0,0.2,0.1,0.3,0.1,0.6V218.4z M458.9,223c0-0.4,0.1-0.6,0.3-0.9
						c0.2-0.2,0.4-0.4,0.6-0.5c0.3-0.1,0.5-0.2,0.8-0.3c0.3,0,0.6-0.1,0.8-0.1c0.3,0,0.5,0,0.8,0.1c0.3,0,0.6,0.1,0.8,0.3
						c0.2,0.1,0.5,0.3,0.6,0.5c0.2,0.2,0.2,0.5,0.2,0.9c0,0.4-0.1,0.6-0.2,0.9c-0.2,0.2-0.4,0.4-0.6,0.5c-0.2,0.1-0.5,0.2-0.8,0.3
						c-0.3,0-0.6,0.1-0.8,0.1c-0.3,0-0.5,0-0.8-0.1c-0.3,0-0.6-0.1-0.8-0.3c-0.3-0.1-0.5-0.3-0.6-0.5
						C458.9,223.7,458.9,223.4,458.9,223z M459.8,223c0,0.2,0.1,0.4,0.2,0.5c0.1,0.1,0.3,0.2,0.4,0.3c0.2,0.1,0.3,0.1,0.5,0.1
						c0.2,0,0.4,0,0.5,0c0.1,0,0.3,0,0.5,0c0.2,0,0.4-0.1,0.5-0.1c0.2-0.1,0.3-0.2,0.4-0.3c0.1-0.1,0.2-0.3,0.2-0.5
						c0-0.2-0.1-0.4-0.2-0.5c-0.1-0.1-0.3-0.2-0.4-0.3c-0.2-0.1-0.3-0.1-0.5-0.1c-0.2,0-0.4,0-0.5,0c-0.1,0-0.3,0-0.5,0
						c-0.2,0-0.4,0.1-0.5,0.1c-0.2,0.1-0.3,0.2-0.4,0.3C459.8,222.7,459.8,222.8,459.8,223z M462.9,221.2v-4.7h0.9v1.8h1.1v0.8h-1.1
						v1.7c0,0.2,0,0.3-0.1,0.4c-0.1,0.1-0.2,0.1-0.3,0.1H462.9z"/>
					<path class="st97" d="M461.4,224.8c-0.3,0-0.6,0-0.9-0.1c-0.3,0-0.6-0.1-0.9-0.3c-0.3-0.1-0.5-0.3-0.7-0.5
						c-0.2-0.2-0.3-0.5-0.3-0.9c0-0.4,0.1-0.7,0.3-0.9c0.2-0.2,0.4-0.4,0.7-0.6c0.3-0.1,0.5-0.2,0.9-0.3c0.3,0,0.6-0.1,0.8-0.1
						c0.3,0,0.5,0,0.8,0.1c0.3,0,0.6,0.1,0.8,0.3c0.3,0.1,0.5,0.3,0.6,0.6c0.2,0.2,0.3,0.5,0.3,0.9c0,0.4-0.1,0.7-0.3,0.9
						c-0.2,0.2-0.4,0.4-0.6,0.5c-0.3,0.1-0.5,0.2-0.8,0.3C462,224.8,461.7,224.8,461.4,224.8z M461.4,221.4c-0.2,0-0.5,0-0.8,0.1
						c-0.3,0-0.6,0.1-0.8,0.3c-0.2,0.1-0.5,0.3-0.6,0.5c-0.2,0.2-0.2,0.5-0.2,0.8c0,0.3,0.1,0.6,0.2,0.8c0.2,0.2,0.4,0.4,0.6,0.5
						c0.2,0.1,0.5,0.2,0.8,0.2c0.3,0,0.6,0.1,0.8,0.1c0.3,0,0.5,0,0.8-0.1c0.3,0,0.5-0.1,0.8-0.2c0.2-0.1,0.4-0.3,0.6-0.5
						c0.2-0.2,0.2-0.5,0.2-0.8s-0.1-0.6-0.2-0.8c-0.2-0.2-0.4-0.4-0.6-0.5c-0.2-0.1-0.5-0.2-0.8-0.3
						C461.9,221.4,461.7,221.4,461.4,221.4z M461.4,224.1c-0.2,0-0.3,0-0.5,0c-0.2,0-0.4-0.1-0.6-0.1c-0.2-0.1-0.3-0.2-0.5-0.3
						c-0.1-0.1-0.2-0.3-0.2-0.5c0-0.2,0.1-0.4,0.2-0.6c0.1-0.1,0.3-0.2,0.5-0.3c0.2-0.1,0.4-0.1,0.6-0.2c0.2,0,0.4,0,0.5,0
						c0.1,0,0.3,0,0.5,0c0.2,0,0.4,0.1,0.5,0.2c0.2,0.1,0.3,0.2,0.4,0.3c0.1,0.1,0.2,0.3,0.2,0.6c0,0.2-0.1,0.4-0.2,0.5
						c-0.1,0.1-0.3,0.2-0.4,0.3c-0.2,0.1-0.4,0.1-0.6,0.1C461.7,224.1,461.6,224.1,461.4,224.1z M461.4,222.1c-0.1,0-0.3,0-0.5,0
						c-0.2,0-0.4,0.1-0.5,0.1c-0.2,0.1-0.3,0.2-0.4,0.3c-0.1,0.1-0.2,0.3-0.2,0.4c0,0.2,0.1,0.3,0.2,0.4c0.1,0.1,0.2,0.2,0.4,0.3
						c0.2,0.1,0.3,0.1,0.5,0.1c0.2,0,0.4,0,0.5,0c0.1,0,0.3,0,0.5,0c0.2,0,0.4-0.1,0.5-0.1c0.2-0.1,0.3-0.1,0.4-0.3
						c0.1-0.1,0.1-0.3,0.1-0.4c0-0.2,0-0.3-0.2-0.4c-0.1-0.1-0.2-0.2-0.4-0.3c-0.2-0.1-0.3-0.1-0.5-0.1
						C461.7,222.2,461.6,222.1,461.4,222.1z M458.1,221.3l-0.6-0.7l0.1,0c0.3-0.1,0.7-0.2,1-0.3c0.3-0.1,0.6-0.3,0.9-0.4
						c0.3-0.2,0.5-0.4,0.6-0.6c0.1-0.2,0.2-0.5,0.2-0.8v-0.3c0-0.2,0-0.4-0.1-0.4c0-0.1-0.2-0.1-0.4-0.1h-2.1v-0.9h2.3
						c0.2,0,0.4,0,0.6,0.1c0.2,0,0.3,0.1,0.4,0.2c0.1,0.1,0.2,0.2,0.2,0.4c0,0.2,0.1,0.4,0.1,0.6v0.4c0,0.4-0.1,0.8-0.3,1.1
						c-0.2,0.3-0.4,0.6-0.7,0.8c-0.3,0.2-0.6,0.4-1,0.6C459,221,458.5,221.2,458.1,221.3L458.1,221.3z M457.7,220.6l0.4,0.5
						c0.4-0.1,0.8-0.2,1.2-0.4c0.4-0.1,0.7-0.3,1-0.6c0.3-0.2,0.5-0.5,0.7-0.8c0.2-0.3,0.2-0.7,0.2-1.1v-0.4c0-0.2,0-0.4-0.1-0.6
						c0-0.1-0.1-0.2-0.2-0.3c-0.1-0.1-0.2-0.1-0.3-0.2c-0.1,0-0.3-0.1-0.5-0.1h-2.1v0.6h2c0.2,0,0.4,0.1,0.5,0.2
						c0.1,0.1,0.1,0.3,0.1,0.5v0.3c0,0.3-0.1,0.6-0.3,0.9c-0.2,0.2-0.4,0.5-0.7,0.6c-0.3,0.2-0.6,0.3-0.9,0.4
						C458.4,220.5,458,220.6,457.7,220.6z M463.4,221.2h-0.6v-4.9h1.1v1.8h1.1v0.9h-1.1v1.6c0,0.2,0,0.3-0.1,0.4
						C463.7,221.2,463.6,221.2,463.4,221.2z M463,221.1h0.4c0.1,0,0.2,0,0.3-0.1c0,0,0.1-0.1,0.1-0.3v-1.8h1.1v-0.6h-1.1v-1.8H463
						V221.1z"/>
				</g>
				<g>
					<path class="st97" d="M443.4,232.4c0.2-0.1,0.3-0.1,0.5-0.2c0.2-0.1,0.4-0.1,0.6-0.2c0.2-0.1,0.4-0.2,0.5-0.3
						c0.2-0.1,0.3-0.2,0.4-0.3c0.1-0.1,0.2-0.2,0.3-0.3c0.1-0.1,0.2-0.2,0.3-0.4c0.1-0.1,0.1-0.3,0.2-0.4c0-0.1,0.1-0.3,0.1-0.5
						v-1.4c0-0.2,0-0.4-0.1-0.4c-0.1-0.1-0.2-0.1-0.5-0.1h-2.1v-0.8h2.3c0.2,0,0.5,0,0.6,0.1c0.2,0,0.3,0.1,0.4,0.2
						c0.1,0.1,0.2,0.2,0.2,0.4c0,0.2,0.1,0.4,0.1,0.6v1.5c0,0.4-0.1,0.8-0.3,1.1c-0.2,0.3-0.4,0.6-0.7,0.9c-0.3,0.3-0.6,0.5-1,0.7
						c-0.4,0.2-0.9,0.4-1.4,0.5L443.4,232.4z M449,234.8v-8.1h0.9v7.6c0,0.2,0,0.3-0.1,0.4c-0.1,0.1-0.2,0.1-0.3,0.1H449z"/>
					<path class="st97" d="M449.4,234.9h-0.5v-8.3h1.1v7.7c0,0.2,0,0.4-0.1,0.4C449.7,234.9,449.6,234.9,449.4,234.9z M449,234.8
						h0.4c0.1,0,0.2,0,0.3-0.1c0,0,0.1-0.1,0.1-0.3v-7.5H449V234.8z M443.8,233.2l-0.6-0.8l0.1,0c0.2-0.1,0.3-0.1,0.5-0.2
						c0.2-0.1,0.4-0.1,0.5-0.2c0.2-0.1,0.3-0.2,0.5-0.3c0.2-0.1,0.3-0.2,0.4-0.3c0.1-0.1,0.2-0.2,0.3-0.3c0.1-0.1,0.2-0.2,0.3-0.4
						c0.1-0.1,0.1-0.3,0.2-0.4c0-0.1,0.1-0.3,0.1-0.4v-1.4c0-0.2,0-0.3-0.1-0.4c0,0-0.1-0.1-0.4-0.1h-2.2v-0.9h2.3
						c0.3,0,0.5,0,0.6,0.1c0.2,0,0.3,0.1,0.4,0.2c0.1,0.1,0.2,0.3,0.3,0.4c0.1,0.2,0.1,0.4,0.1,0.6v1.5c0,0.4-0.1,0.8-0.3,1.1
						c-0.2,0.3-0.4,0.7-0.7,0.9c-0.3,0.3-0.6,0.5-1,0.7C444.9,232.9,444.4,233,443.8,233.2L443.8,233.2z M443.5,232.5l0.4,0.5
						c0.5-0.1,0.9-0.3,1.3-0.5c0.4-0.2,0.7-0.4,1-0.7c0.3-0.3,0.5-0.6,0.7-0.9c0.2-0.3,0.2-0.7,0.2-1.1v-1.5c0-0.2,0-0.4-0.1-0.6
						c0-0.1-0.1-0.3-0.2-0.4c-0.1-0.1-0.2-0.2-0.4-0.2c-0.2,0-0.4-0.1-0.6-0.1h-2.2v0.6h2c0.3,0,0.5,0,0.6,0.1
						c0.1,0.1,0.1,0.3,0.1,0.5v1.4c0,0.2,0,0.3-0.1,0.5c0,0.2-0.1,0.3-0.2,0.4c-0.1,0.1-0.2,0.3-0.3,0.4c-0.1,0.1-0.2,0.2-0.3,0.3
						c-0.1,0.1-0.3,0.2-0.4,0.3c-0.2,0.1-0.3,0.2-0.5,0.3c-0.2,0.1-0.4,0.1-0.6,0.2C443.8,232.4,443.7,232.4,443.5,232.5z"/>
				</g>
				<g>
					<path class="st97" d="M450.2,230.4h7.4v0.4c0,0.3-0.1,0.4-0.4,0.4h-7V230.4z M451.2,233.4c0-0.3,0.1-0.5,0.2-0.7
						c0.1-0.2,0.3-0.4,0.6-0.5c0.2-0.1,0.5-0.2,0.9-0.3c0.3-0.1,0.7-0.1,1.1-0.1c0.4,0,0.7,0,1,0.1c0.3,0.1,0.6,0.2,0.9,0.3
						c0.2,0.1,0.4,0.3,0.6,0.5c0.1,0.2,0.2,0.4,0.2,0.7c0,0.3-0.1,0.5-0.2,0.7c-0.1,0.2-0.3,0.4-0.6,0.5c-0.2,0.1-0.5,0.2-0.9,0.3
						c-0.3,0.1-0.7,0.1-1.1,0.1c-0.4,0-0.7,0-1-0.1c-0.3-0.1-0.6-0.2-0.9-0.3c-0.2-0.1-0.4-0.3-0.6-0.5
						C451.3,233.9,451.2,233.7,451.2,233.4z M452.1,229.7c-0.3,0-0.5-0.1-0.6-0.2c-0.1-0.1-0.2-0.3-0.2-0.6v-2.3h0.4
						c0.1,0,0.3,0.1,0.3,0.2c0.1,0.1,0.1,0.2,0.1,0.4v1.5c0,0.1,0,0.1,0,0.1c0,0,0,0,0.1,0h4.4v0.4c0,0.1,0,0.2-0.1,0.3
						c-0.1,0.1-0.2,0.1-0.3,0.1H452.1z M452.2,233.4c0,0.1,0,0.2,0.1,0.4c0.1,0.1,0.2,0.2,0.4,0.3c0.2,0.1,0.4,0.1,0.6,0.2
						c0.2,0,0.5,0.1,0.7,0.1c0.3,0,0.5,0,0.7-0.1c0.2,0,0.4-0.1,0.6-0.2c0.2-0.1,0.3-0.2,0.4-0.3c0.1-0.1,0.1-0.2,0.1-0.4
						c0-0.1,0-0.3-0.1-0.4s-0.2-0.2-0.4-0.3c-0.2-0.1-0.3-0.1-0.6-0.2c-0.2,0-0.5-0.1-0.7-0.1c-0.6,0-1,0.1-1.3,0.2
						C452.3,232.9,452.2,233.1,452.2,233.4z"/>
					<path class="st97" d="M454,235.1c-0.4,0-0.7,0-1.1-0.1c-0.3-0.1-0.6-0.2-0.9-0.3c-0.3-0.1-0.5-0.3-0.6-0.5
						c-0.2-0.2-0.2-0.5-0.2-0.8c0-0.3,0.1-0.6,0.2-0.8c0.1-0.2,0.4-0.4,0.6-0.5c0.3-0.1,0.6-0.3,0.9-0.3c0.3-0.1,0.7-0.1,1.1-0.1
						c0.4,0,0.7,0,1.1,0.1c0.3,0.1,0.6,0.2,0.9,0.3c0.3,0.1,0.5,0.3,0.6,0.5c0.2,0.2,0.2,0.5,0.2,0.8c0,0.3-0.1,0.5-0.2,0.7
						c-0.1,0.2-0.3,0.4-0.6,0.5c-0.2,0.1-0.5,0.3-0.9,0.3C454.7,235,454.4,235.1,454,235.1z M454,231.8c-0.4,0-0.7,0-1.1,0.1
						c-0.3,0.1-0.6,0.2-0.8,0.3c-0.2,0.1-0.4,0.3-0.6,0.5c-0.1,0.2-0.2,0.4-0.2,0.7c0,0.3,0.1,0.5,0.2,0.7c0.1,0.2,0.3,0.4,0.6,0.5
						c0.2,0.1,0.5,0.2,0.9,0.3c0.3,0.1,0.7,0.1,1,0.1c0.4,0,0.7,0,1.1-0.1c0.3-0.1,0.6-0.2,0.8-0.3c0.2-0.1,0.4-0.3,0.5-0.5
						c0.1-0.2,0.2-0.4,0.2-0.6c0-0.3-0.1-0.5-0.2-0.7c-0.1-0.2-0.3-0.4-0.6-0.5c-0.2-0.1-0.5-0.2-0.8-0.3
						C454.7,231.8,454.3,231.8,454,231.8z M454,234.3c-0.3,0-0.5,0-0.8-0.1c-0.2,0-0.4-0.1-0.6-0.2c-0.2-0.1-0.3-0.2-0.4-0.3
						c-0.1-0.1-0.1-0.3-0.1-0.4c0-0.3,0.2-0.5,0.5-0.7c0.3-0.2,0.8-0.2,1.4-0.2c0.3,0,0.5,0,0.7,0.1c0.2,0,0.4,0.1,0.6,0.2
						c0.2,0.1,0.3,0.2,0.4,0.3c0.1,0.1,0.1,0.3,0.1,0.4c0,0.1,0,0.3-0.1,0.4c-0.1,0.1-0.2,0.2-0.4,0.3c-0.2,0.1-0.4,0.1-0.6,0.2
						C454.5,234.3,454.2,234.3,454,234.3z M454,232.6c-0.6,0-1,0.1-1.3,0.2c-0.3,0.1-0.4,0.3-0.4,0.6c0,0.1,0,0.2,0.1,0.3
						c0.1,0.1,0.2,0.2,0.3,0.2c0.2,0.1,0.3,0.1,0.6,0.2c0.2,0,0.5,0.1,0.7,0.1c0.3,0,0.5,0,0.7-0.1c0.2,0,0.4-0.1,0.5-0.2
						c0.1-0.1,0.3-0.2,0.3-0.3c0.1-0.1,0.1-0.2,0.1-0.3c0-0.1,0-0.2-0.1-0.3c-0.1-0.1-0.2-0.2-0.3-0.3c-0.2-0.1-0.3-0.1-0.5-0.2
						C454.5,232.6,454.2,232.6,454,232.6z M457.3,231.3h-7.1v-0.9h7.6v0.4C457.7,231.1,457.6,231.3,457.3,231.3z M450.3,231.1h7
						c0.2,0,0.3-0.1,0.3-0.3v-0.3h-7.3V231.1z M456.4,229.8h-4.3c-0.3,0-0.5-0.1-0.7-0.2c-0.1-0.1-0.2-0.3-0.2-0.7v-2.4h0.5
						c0.2,0,0.3,0.1,0.4,0.2c0.1,0.1,0.2,0.3,0.2,0.4v1.5c0,0.1,0,0.1,0,0.1c0,0,0,0,0,0h4.5v0.5c0,0.1,0,0.2-0.1,0.3
						C456.6,229.8,456.5,229.8,456.4,229.8z M451.4,226.7v2.2c0,0.3,0.1,0.5,0.2,0.6c0.1,0.1,0.3,0.1,0.6,0.1h4.3
						c0.1,0,0.2,0,0.2-0.1c0,0,0.1-0.1,0.1-0.2V229h-4.3c-0.1,0-0.1,0-0.2-0.1c0,0,0-0.1,0-0.2v-1.5c0-0.1,0-0.2-0.1-0.3
						c-0.1-0.1-0.2-0.1-0.3-0.1H451.4z"/>
				</g>
				<g>
					<path class="st97" d="M460.2,228.4c0,0.2,0.1,0.5,0.2,0.7c0.1,0.2,0.3,0.4,0.4,0.6c0.2,0.2,0.4,0.3,0.6,0.5
						c0.2,0.2,0.5,0.3,0.8,0.4l-0.5,0.6c-0.2-0.1-0.3-0.2-0.5-0.3c-0.2-0.1-0.4-0.2-0.5-0.4c-0.2-0.1-0.3-0.3-0.5-0.4
						c-0.2-0.1-0.3-0.3-0.4-0.4c-0.2,0.3-0.5,0.6-0.8,0.9c-0.3,0.3-0.7,0.6-1.2,0.8l-0.6-0.6c0.3-0.1,0.5-0.3,0.7-0.4
						c0.2-0.2,0.5-0.4,0.7-0.6c0.2-0.2,0.4-0.4,0.5-0.6c0.1-0.2,0.2-0.5,0.2-0.7v-1.6h0.6c0.1,0,0.2,0,0.3,0.1
						c0,0.1,0.1,0.2,0.1,0.3V228.4z M463.3,234.8v-2.1c0-0.1,0-0.1-0.1-0.1h-4v-0.8h4.4c0.2,0,0.4,0.1,0.5,0.2
						c0.1,0.1,0.2,0.3,0.2,0.5v1.8c0,0.2,0,0.3-0.1,0.4c-0.1,0.1-0.2,0.1-0.3,0.1H463.3z M463.4,231.4v-4.7h0.9v4.2
						c0,0.2,0,0.3-0.1,0.4c-0.1,0.1-0.2,0.1-0.3,0.1H463.4z"/>
					<path class="st97" d="M463.8,234.9h-0.6v-2.1c0,0,0,0,0,0c0,0,0,0,0,0h-4.1v-0.9h4.5c0.2,0,0.4,0.1,0.5,0.2
						c0.1,0.1,0.2,0.3,0.2,0.5v1.8c0,0.2,0,0.4-0.1,0.5C464.1,234.9,464,234.9,463.8,234.9z M463.4,234.8h0.4c0.1,0,0.2,0,0.3-0.1
						c0,0,0.1-0.1,0.1-0.4v-1.8c0-0.2-0.1-0.3-0.2-0.4c-0.1-0.1-0.2-0.1-0.4-0.1h-4.3v0.6h4c0.1,0,0.2,0.1,0.2,0.2V234.8z
						 M463.8,231.5h-0.6v-4.9h1.1v4.3c0,0.2,0,0.3-0.1,0.4C464.2,231.5,464,231.5,463.8,231.5z M463.4,231.4h0.4
						c0.1,0,0.2,0,0.3-0.1c0-0.1,0.1-0.2,0.1-0.4v-4.1h-0.7V231.4z M457.9,231.5l-0.7-0.7l0.1-0.1c0.2-0.1,0.5-0.3,0.7-0.4
						c0.2-0.2,0.5-0.3,0.6-0.5c0.2-0.2,0.3-0.4,0.5-0.6c0.1-0.2,0.2-0.4,0.2-0.7v-1.7h0.7c0.2,0,0.3,0.1,0.4,0.1
						c0,0.1,0.1,0.2,0.1,0.3v1.2c0,0.2,0.1,0.4,0.2,0.6c0.1,0.2,0.2,0.4,0.4,0.6c0.2,0.2,0.4,0.3,0.6,0.5c0.2,0.2,0.5,0.3,0.8,0.4
						l0.1,0l-0.6,0.7l-0.1,0c-0.2-0.1-0.3-0.2-0.5-0.3c-0.2-0.1-0.4-0.2-0.5-0.4c-0.2-0.1-0.3-0.3-0.5-0.4c-0.1-0.1-0.2-0.2-0.3-0.3
						c-0.2,0.3-0.4,0.5-0.7,0.8C458.7,230.9,458.3,231.2,457.9,231.5L457.9,231.5z M457.4,230.8l0.5,0.5c0.4-0.2,0.8-0.5,1.1-0.8
						c0.3-0.3,0.6-0.6,0.8-0.8l0.1-0.1l0.1,0.1c0.1,0.1,0.2,0.3,0.4,0.4c0.2,0.1,0.3,0.3,0.5,0.4c0.2,0.1,0.4,0.3,0.5,0.4
						c0.2,0.1,0.3,0.2,0.5,0.3l0.4-0.5c-0.2-0.1-0.5-0.3-0.7-0.4c-0.2-0.2-0.5-0.3-0.7-0.5c-0.2-0.2-0.3-0.4-0.5-0.6
						c-0.1-0.2-0.2-0.5-0.2-0.7v-1.2c0-0.1,0-0.2,0-0.2c0,0-0.1-0.1-0.2-0.1h-0.5v1.5c0,0.3-0.1,0.5-0.2,0.8
						c-0.1,0.2-0.3,0.5-0.5,0.7c-0.2,0.2-0.4,0.4-0.7,0.6C457.9,230.5,457.6,230.7,457.4,230.8z"/>
				</g>
				<g>
					<path class="st97" d="M464.9,230.4h7.4v0.4c0,0.3-0.1,0.4-0.4,0.4h-2.9v0.8h2.2v1.8c0,0.4-0.1,0.6-0.3,0.8
						c-0.2,0.2-0.4,0.3-0.8,0.3h-3.5c-0.2,0-0.4-0.1-0.5-0.2c-0.2-0.1-0.2-0.4-0.2-0.6v-2h2.2v-0.8h-3.3V230.4z M466.6,227.5h-0.9
						v-0.7h5.9v0.7h-0.9v1.1c0,0.1,0,0.1,0,0.2c0,0.1,0,0.1,0,0.2h1.2v0.3c0,0.3-0.1,0.4-0.4,0.4h-5.8V229h1.1c0-0.1,0-0.1,0-0.2
						c0-0.1,0-0.1,0-0.2V227.5z M470,234.1c0.1,0,0.2,0,0.3-0.1c0.1,0,0.1-0.1,0.1-0.3v-1.1h-3.6v1.2c0,0.1,0.1,0.2,0.2,0.2H470z
						 M469.5,229c0.1,0,0.2,0,0.2-0.1c0-0.1,0.1-0.2,0.1-0.3v-1.1h-2.3v1.1c0,0.1,0,0.2,0.1,0.3c0,0.1,0.1,0.1,0.2,0.1H469.5z"/>
					<path class="st97" d="M470.2,234.9h-3.5c-0.2,0-0.4-0.1-0.6-0.2c-0.2-0.2-0.3-0.4-0.3-0.7v-2.1h2.2v-0.6h-3.3v-0.9h7.6v0.4
						c0,0.3-0.2,0.5-0.5,0.5h-2.8v0.6h2.2v1.8c0,0.4-0.1,0.7-0.3,0.9C470.9,234.8,470.6,234.9,470.2,234.9z M466,232.1v1.9
						c0,0.3,0.1,0.5,0.2,0.6c0.1,0.1,0.3,0.2,0.5,0.2h3.5c0.4,0,0.6-0.1,0.8-0.3c0.2-0.2,0.2-0.4,0.2-0.8v-1.7H469v-1h3
						c0.2,0,0.3-0.1,0.3-0.3v-0.3H465v0.6h3.3v1H466z M470,234.2h-3c-0.2,0-0.3-0.1-0.3-0.3v-1.2h3.7v1.1c0,0.2,0,0.3-0.1,0.3
						C470.3,234.2,470.1,234.2,470,234.2z M466.9,232.8v1.1c0,0.1,0,0.1,0.1,0.1h3c0.1,0,0.2,0,0.3,0c0.1,0,0.1-0.1,0.1-0.2v-1
						H466.9z M471.3,229.9h-5.9V229h1.1c0,0,0-0.1,0-0.1c0-0.1,0-0.1,0-0.2v-1h-0.9v-0.9h6.1v0.9h-0.9v1c0,0.1,0,0.1,0,0.2
						c0,0,0,0.1,0,0.1h1.1v0.4C471.8,229.7,471.6,229.9,471.3,229.9z M465.6,229.7h5.8c0.2,0,0.3-0.1,0.3-0.3v-0.3h-1.2l0-0.1
						c0-0.1,0-0.1,0-0.2c0-0.1,0-0.1,0-0.2v-1.2h0.9v-0.6h-5.7v0.6h0.9v1.2c0,0.1,0,0.1,0,0.2c0,0.1,0,0.1,0,0.2l0,0.1h-1.2V229.7z
						 M469.5,229.1h-1.8c-0.2,0-0.2-0.1-0.3-0.1c0-0.1-0.1-0.2-0.1-0.3v-1.2h2.4v1.2c0,0.1,0,0.2-0.1,0.3
						C469.7,229,469.6,229.1,469.5,229.1z M467.5,227.6v1.1c0,0.1,0,0.2,0,0.2c0,0,0,0.1,0.1,0.1h1.8c0.1,0,0.1,0,0.1-0.1
						c0,0,0-0.1,0-0.2v-1.1H467.5z"/>
				</g>
			</g>
		</g>
		<path class="st98" d="M478.1,230.4c0,0.2,0.1,0.4,0.1,0.6c0,3.9-9.1,7.1-20.4,7.1c-11.3,0-20.4-3.2-20.4-7.1c0-0.2,0-0.4,0.1-0.6
			c-1.4,1.1-2.3,2.3-2.3,3.5c0,4.5,10.1,8.1,22.6,8.1c12.5,0,22.6-3.6,22.6-8.1C480.3,232.7,479.5,231.5,478.1,230.4z"/>
		<path class="st97" d="M457.8,202.7c-16.2,0-29.3,13.1-29.3,29.3c0,16.2,13.1,29.3,29.3,29.3c16.2,0,29.3-13.1,29.3-29.3
			C487.1,215.8,474,202.7,457.8,202.7z M457.8,204.7c15.1,0,27.3,12.2,27.3,27.3c0,5.4-1.6,10.4-4.2,14.6h-46.1
			c-2.7-4.2-4.2-9.2-4.2-14.6C430.5,216.9,442.7,204.7,457.8,204.7z"/>
		<g>
			<path class="st4" d="M442.7,250.6c-0.2,0.3-0.8,0.8-1.2,0.9l-0.2-0.4c0.6-0.3,1.2-0.7,1.2-1.4v-0.5h0.6v0.5
				c0,0.7,0.6,1.1,1.2,1.4l-0.2,0.4C443.5,251.4,443,251,442.7,250.6z M444.4,252.3h-2.7v-0.4h3.3v1.5h-0.6V252.3z M444.4,249.1h0.6
				v2.5h-0.6V249.1z"/>
			<path class="st4" d="M447.7,251.9h1.4v1.5h-3.3v-1.5h1.4v-0.3h-1.6v-0.4h3.7v0.4h-1.6V251.9z M445.7,250.4h0.5v-0.7h-0.5v-0.4
				h3.3v0.4h-0.5v0.7h0.5v0.4h-3.3V250.4z M446.3,252.3v0.6h2.1v-0.6H446.3z M446.8,249.7v0.7h1.2v-0.7H446.8z"/>
			<path class="st4" d="M452.8,252.8c-0.3,0.1-0.6,0.1-0.9,0.1h-2.2v-0.4h2.3c0.3,0,0.5,0,0.7-0.1c0,0,0-3.3,0-3.3h0.6v4.2h-0.6
				V252.8z M451,249.2c1.6,0,1.7,2.8,0,2.8C449.3,252,449.3,249.2,451,249.2z M451,251.6c0.8,0,0.8-2,0-2
				C450.2,249.6,450.2,251.6,451,251.6z"/>
			<path class="st4" d="M455,249.2c1.7,0,1.7,2.3,0,2.3C453.3,251.5,453.3,249.2,455,249.2z M456.8,252.2h-2.7v-0.4h3.3v1.6h-0.6
				V252.2z M455,251c0.8,0,0.8-1.4,0-1.4C454.1,249.6,454.1,251,455,251z M457.4,251.6h-0.6v-2.4h0.6v0.5h0.5v0.5h-0.5v0.4h0.5v0.5
				h-0.5V251.6z"/>
			<path class="st4" d="M460.2,251.9h1.4v1.5h-3.3v-1.5h1.4v-0.3h-1.6v-0.4h3.7v0.4h-1.6V251.9z M458.3,250.4h0.5v-0.7h-0.5v-0.4
				h3.3v0.4h-0.5v0.7h0.5v0.4h-3.3V250.4z M458.9,252.3v0.6h2.1v-0.6H458.9z M459.4,249.7v0.7h1.2v-0.7H459.4z"/>
			<path class="st4" d="M463.4,249.2c1.6,0,1.6,2.5,0,2.5C461.8,251.7,461.8,249.2,463.4,249.2z M462.6,252h0.6v0.9h2.6v0.4h-3.2
				V252z M463.4,251.2c0.8,0,0.8-1.6,0-1.6C462.6,249.6,462.6,251.2,463.4,251.2z M465.8,252.2h-0.6v-3.1h0.6v1.1h0.5v0.5h-0.5
				V252.2z"/>
			<path class="st4" d="M467.8,250.8c-0.2,0.3-0.8,0.8-1.3,0.9l-0.2-0.4c0.6-0.3,1.2-0.7,1.2-1.4v-0.2h-1v-0.4h2.5v0.4h-0.9v0.2
				c0,0.7,0.6,1.2,1.2,1.4l-0.2,0.4C468.6,251.6,468.1,251.2,467.8,250.8z M466.9,252h0.6v1h2.7v0.4h-3.3V252z M469.5,250.5h-0.6
				v-0.4h0.6v-1h0.6v3h-0.6V250.5z"/>
			<path class="st4" d="M472,252c-0.2,0.4-0.7,0.8-1.1,1l-0.2-0.4c0.7-0.5,1.1-0.9,1.1-1.8v-1h-0.8v-0.4h0.8V249h0.6v0.4h0.8v0.4
				h-0.8v1c0,0.8,0.4,1.4,1.1,1.8l-0.2,0.4C472.7,252.8,472.2,252.4,472,252z M473.7,250.9h-0.7v-0.4h0.7v-1.4h0.6v4.2h-0.6V250.9z"
				/>
		</g>
	</g>
</g>
<g id="Flat_00000114052109003417532330000013247665268516434619_">
	<path class="st117" d="M660.4,182.2c-0.7-0.7-1.5-1.3-2.4-1.7c-1.7-0.7-2.7-2.5-2.5-4.3c0.4-2.5-0.5-5.1-2.3-6.9
		c-1.8-1.8-4.4-2.7-6.9-2.3c-1.8,0.3-3.6-0.8-4.3-2.5c-0.4-0.9-1-1.7-1.7-2.4c-3.2-3.2-8.3-3.2-11.5,0c0,0,0,0,0,0l-17.2,17.2
		l31.6,31.6l17.2-17.2C663.6,190.5,663.6,185.3,660.4,182.2C660.4,182.2,660.4,182.2,660.4,182.2z"/>
	<path class="st117" d="M631.3,159.5c-1,0.1-2,0.3-2.8,0.8c-1.7,0.8-3.7,0.5-4.9-0.9c-1.7-1.9-4.2-3-6.8-2.7
		c-2.6,0.2-4.9,1.6-6.2,3.8c-1,1.6-2.9,2.2-4.7,1.7c-1-0.3-1.9-0.4-2.9-0.3c-4.5,0.4-7.8,4.3-7.4,8.8c0,0,0,0,0,0l2,24.3l44.5-3.7
		l-2-24.3C639.7,162.4,635.8,159.1,631.3,159.5C631.3,159.5,631.3,159.5,631.3,159.5z"/>
	<path class="st118" d="M659.7,205.1c0,3.8-0.5,7.6-1.6,11.2v0c-0.6,1.9-1.3,3.7-2.1,5.5v0c-6.5,13.8-20.4,22.7-35.6,22.7
		c-1.1,0-2.2,0-3.3-0.1c-20.2-1.7-36-18.6-36-39.2c0-20.6,15.9-37.6,36.1-39.2c1.1-0.1,2.1-0.1,3.2-0.1c10.3,0,20.2,4,27.5,11.2
		c0.7,0.7,1.4,1.4,2,2.1c2.1,2.4,4,5.1,5.4,8c0.5,0.9,0.9,1.9,1.3,2.8c1.3,3.1,2.2,6.3,2.6,9.6c0.2,1.3,0.3,2.5,0.4,3.8
		C659.6,203.9,659.7,204.5,659.7,205.1L659.7,205.1z"/>
	<path class="st119" d="M646.3,217.7l13.3-14.4c-0.1-1.3-0.2-2.6-0.4-3.8c-0.1,0.1-0.2,0.1-0.3,0.2l-5,5.3l0.4-4.4
		c0.1-0.8-0.5-1.5-1.3-1.6s-1.5,0.5-1.6,1.3l0,0l-0.8,8.2l-4.1,4.5c0.2-4.3,0.2-8.6-0.1-13l10.1-10.2c-0.4-1-0.8-1.9-1.3-2.8
		l-9.1,9.2c-0.4-3.8-1.1-7.7-2.1-11.4l5.8-5.8c-0.6-0.7-1.3-1.4-2-2.1l-4.7,4.7c-1.3-4.1-3-8-5.2-11.7c0,0,1,4,1.8,10.6L613.6,170
		c-0.7-0.3-1.6,0.1-1.9,0.8c-0.3,0.7,0.1,1.6,0.8,1.9l11,4.4l-4.5,0.8c-0.8,0.1-1.3,0.9-1.2,1.7s0.9,1.3,1.7,1.2l9.1-1.7
		c0,0,11.1,4.4,11.3,4.4c0.1,0,0.1,0,0.2,0c0.5,4.8,0.8,9.6,0.8,14.4l-24.4-8.9c-0.8-0.3-1.6,0.1-1.9,0.8c-0.3,0.8,0.1,1.6,0.8,1.9
		c0,0,0,0,0,0l11.3,4.1l-6.1,0.9c-0.8,0.1-1.4,0.9-1.2,1.7c0.1,0.7,0.7,1.3,1.5,1.3c0.1,0,0.1,0,0.2,0l11.4-1.7c0,0,8.2,3,8.4,3
		c-0.1,4.4-0.4,8.9-0.9,13.3l-6.9-2.7l-4.4-9.4c-0.4-0.7-1.2-1-2-0.7c-0.7,0.3-1,1.2-0.7,1.9l3.1,6.6l-12.6-4.9
		c-0.7-0.3-1.6,0-1.9,0.8c-0.3,0.7,0,1.6,0.8,1.9c0,0,0,0,0.1,0l23.8,9.3c0.1,0,0.2,0.1,0.3,0.1c-0.6,4.1-1.5,8.2-2.7,12.2l-2.2-0.9
		l-2.9-7.8c-0.3-0.8-1.1-1.1-1.9-0.9c-0.8,0.3-1.1,1.1-0.9,1.9l2,5.3l-17.4-7.2c-0.7-0.3-1.6,0-1.9,0.8s0,1.6,0.8,1.9c0,0,0,0,0,0
		l11.8,4.9l-4.3,1.2c-0.8,0.2-1.2,1-1,1.8s1,1.2,1.8,1l8-2.2l7.1,3c0,0,0.1,0,0.1,0c-1.2,3.6-2.6,7.2-4.3,10.6
		c4.1-1.3,8.1-3.2,11.6-5.7c0.4-1.8,0.8-3.8,1.2-5.8l11.5-9.4v0c0.8-1.8,1.5-3.6,2.1-5.5l-12.9,10.5
		C645.6,223.9,646,220.9,646.3,217.7L646.3,217.7z"/>
	<path class="st120" d="M613,224.4c0,4.8,4.5,6,4.5,12c0,4.2-1.7,5.3-3,7.6c-13.1,0-36.3-13.3-36.3-38.9c0-19.2,12.8-30.8,21.9-35.3
		c0.8-0.4,1.6-0.7,2.4-1.1c4.5-1.5,2-9,2-9c7.3,0,11.5,3,9.3,10c-0.3,1.1-0.8,2.3-0.8,4c0,1.6,0.2,2.9,0.8,3.8
		c1.5,2.8,3.7,4.1,3.8,8.7c0.1,2.9-1.5,5.2-1.6,5.3c-1.3,2-3,3.5-3,7.3c0,1.3,0.2,2.6,0.8,3.9c0.3,0.6,0.7,1.2,1.5,2.5
		c1.1,1.6,2.2,3.1,2.2,6.2c0,4.9-2.8,6-4,9.2l0,0C613.3,221.2,613,221.6,613,224.4L613,224.4z"/>
	<g>
		<path class="st121" d="M617.4,188c-0.1,0.3-0.1,0.7-0.2,1c-0.2,0.9-0.6,1.7-1.1,2.4c-2.4,0.8-5.5,1.8-7.1,2.4
			c-6,2.3-15.8,7.6-22,13.2l8.4,0.9c0.8,0.1,1.4,0.8,1.3,1.6c-0.1,0.7-0.7,1.3-1.4,1.3c-0.1,0-11-1.2-11-1.2
			c-1.7,1.8-3.3,3.6-4.7,5.6c-0.3-1.2-0.6-2.5-0.8-3.7c2.4-2.9,6.8-7.5,12-11.3c0,0,3.7-10.3,3.7-10.3c0.3-0.8,1.1-1.1,1.9-0.9
			c0.8,0.3,1.1,1.1,0.9,1.9c0,0,0,0,0,0l-2.5,6.8c5.3-3.3,11-5.9,16.9-7.8C612.7,189.4,615.6,188.5,617.4,188L617.4,188z"/>
		<path class="st121" d="M606.8,187.1c-0.2,0.5-0.8,0.9-1.3,0.9c-0.2,0-0.4,0-0.6-0.1l-8.1-3.6c-7.2,3.7-14.2,9.6-17.8,13.2
			c0.4-1.8,0.8-3.6,1.5-5.4c6-5.3,14.2-12.2,32.6-17.3c0.1,1,0.3,1.9,0.7,2.8c-4.9,1.3-9.7,3.3-13.5,5l5.9,2.6
			C606.8,185.5,607.1,186.4,606.8,187.1C606.8,187.1,606.8,187.1,606.8,187.1L606.8,187.1z"/>
		<path class="st121" d="M612.4,214c-0.1,0.7-0.7,1.2-1.4,1.3c-0.1,0-9.7-1.4-9.7-1.4c-2.6,2-5.1,4.1-7.4,6.4l10.5,1.2
			c0.8,0.1,1.4,0.8,1.3,1.6c-0.1,0.7-0.7,1.3-1.5,1.3c-0.1,0-12.8-1.5-12.9-1.5c-1.6,1.7-3.6,4.2-4.9,6c-0.6-0.8-1.2-1.6-1.8-2.5
			c4.8-6.3,13-14.9,25.9-21.8c0.6-0.3,2.1-1.2,3.3-1.8c0,0.1,1.5,2.4,1.5,2.5c-1.3,0.7-8.4,4.7-10.6,6.2l6.5,0.9
			C611.9,212.4,612.5,213.2,612.4,214L612.4,214z"/>
		<path class="st121" d="M613,224.5c-0.8,0.6-1.7,1.2-2.1,1.5c-5.3,3.6-10.3,7.8-14.3,12.1c-0.8-0.5-1.7-1.1-2.4-1.7
			c4.4-4.8,10-9.5,15.9-13.4c0.7-0.4,2.6-1.8,3.5-2.4C613,221.6,612.9,224.3,613,224.5L613,224.5z"/>
	</g>
</g>
<g>
	<path class="st122" d="M568,211.2l6.2-2.6c5.5-2.3,11.4-3.5,17.4-3.5c2.3,0,4.5,0.7,6.3,2.1c1.8,1.4,4,2.1,6.3,2.1h2.1l-5,7
		c-1.3,1.8-2,4-2,6.2c0,4.6-2.9,8.7-7.3,10.2c-6.2,2.1-12.7,3.1-19.3,3.1H571L568,211.2z"/>
	<path class="st123" d="M597.9,207.2c-1.8-1.4-4-2.1-6.3-2.1c-6,0-11.9,1.2-17.4,3.5l-6.2,2.6l2.5,20.4c6.3-0.1,12.6-1.1,18.6-3.1
		c4.4-1.4,7.3-5.5,7.3-10.2c0-2.2,0.7-4.4,2-6.2l2.4-3.3C599.8,208.4,598.8,207.9,597.9,207.2z"/>
	<path class="st124" d="M586.7,205.4l4.6-7.3c3.4-5.4,5.2-11.7,5.2-18l-3.8,2.5c-3,2-6.5,3-10,3c-1,0-2-0.1-3-0.2l-8-1.3
		c-4.8-0.8-9.7-1.2-14.6-1.2c-7.8,0-15.3,3.1-20.8,8.6c-2.5,2.5-5.9,3.9-9.5,3.9c0,6,3.3,11.5,8.6,14.4l1.7,0.9l11.3,1.5
		C561.5,213.9,574.9,211.6,586.7,205.4z"/>
	<path class="st122" d="M586.8,205.3l4.5-7.3c3.4-5.4,5.2-11.7,5.2-18l-3.8,2.5c-3,2-6.5,3-10,3c-1,0-2-0.1-3-0.2l-8-1.3
		c-4.8-0.8-9.7-1.2-14.6-1.2c-7.8,0-15.3,3.1-20.8,8.6c-1.5,1.5-3.3,2.6-5.2,3.2c0.4,5.5,3.6,10.4,8.5,13c1.1,0.6,2.3,1,3.6,1.2
		l9.4,1.3C564.2,211.7,576,210,586.8,205.3L586.8,205.3z"/>
	<g>
		<path class="st124" d="M589.3,218.3l-2.4,1.4l2.1,3.7c1.6,2.7,2.6,5.7,3,8.8l0.1,0.3c0.4-0.2,0.9-0.3,1.3-0.5
			c0.5-0.2,0.9-0.5,1.3-0.8c-0.5-3.2-1.6-6.3-3.2-9.2L589.3,218.3z"/>
		<path class="st124" d="M587.3,229l-2.1-3.7l-2.4,1.4l2.1,3.7c0.7,1.2,1.3,2.4,1.7,3.7c0.9-0.2,1.8-0.4,2.7-0.7l0-0.1
			C588.7,231.8,588,230.4,587.3,229z"/>
		<path class="st124" d="M567.3,185.8c1.8,2.9,2.7,6.2,2.7,9.6h2.8c0-3.9-1.1-7.7-3.2-11l-0.4-0.6c-1.2-0.2-2.5-0.3-3.7-0.4l0.8,1
			L567.3,185.8z"/>
		<path class="st124" d="M542.1,189.1v-1.2l0.1-1c-1,0.6-2,1.2-2.9,1.9v0.3"/>
		<path class="st124" d="M542.3,201.6L542.3,201.6l2.5-1.3"/>
		<path class="st124" d="M576.5,185.8c2.1,3.8,3.3,8,3.3,12.3h2.8c0-4.5-1.1-8.9-3.2-12.8l-3.5-0.6L576.5,185.8z"/>
	</g>
	<path class="st122" d="M561.6,207.9h-5.7c-5.5,0-10.9,0.8-16.1,2.3c-1.2,0.3-2.5,0.5-3.8,0.5c-4.1,0-7.9,1.8-10.6,4.9l-2.8,3.4
		l7,9.8c7,9.6,18.2,15.3,30.1,15.3h2"/>
	<path class="st123" d="M539.8,210.2c-1.2,0.3-2.5,0.5-3.8,0.5c-4.1,0-7.9,1.8-10.5,4.9l5.5,7.6c7,9.6,18.2,15.3,30.1,15.3h0.6
		v-30.7h-5.7C550.5,207.9,545,208.7,539.8,210.2L539.8,210.2z"/>
	<ellipse class="st125" cx="561.6" cy="226" rx="11.1" ry="18.1"/>
	<path class="st126" d="M561.6,207.9c-6.1,0-11.1,8.1-11.1,18.1c0,3.8,0.7,7.6,2.3,11c1.5,1.8,3.7,2.8,6,2.9
		c6.1,0,11.1-8.1,11.1-18.1c0-3.8-0.7-7.6-2.3-11C566.2,209,564,208,561.6,207.9L561.6,207.9z"/>
	<path class="st124" d="M543.5,226h-2.8c0,4.9,0.9,9.7,2.6,14.3c1.3,0.6,2.5,1.1,3.8,1.6l-0.8-1.4C544.5,236,543.5,231,543.5,226
		L543.5,226z"/>
	<path class="st124" d="M536.6,227.4h-2.8c0,2.3,0.2,4.5,0.6,6.7c1.1,1,2.3,2,3.5,2.9l-0.5-1.7C536.8,232.7,536.6,230.1,536.6,227.4
		z"/>
</g>
<path class="st127" d="M613.3,202.7c-3.2,0-6.1,0.9-8.6,2.6c-0.6,0.4-1.3,0.4-1.8,0c-2.5-1.6-5.5-2.6-8.6-2.6
	c-9.1,0-16.6,7.8-16.6,17.4c0,14.3,6.3,33,22.8,31.4c0,0,1.3-0.2,2.6-0.7c0.4-0.2,0.9-0.2,1.4,0c1.3,0.6,2.6,0.7,2.6,0.7
	c16.5,1.6,22.8-17,22.8-31.4C629.9,210.4,622.5,202.7,613.3,202.7L613.3,202.7z"/>
<path class="st128" d="M613.3,202.7c-0.9,0-1.7,0.1-2.6,0.2c4.2,4.6,6.9,10.7,7.2,17.4c0.6,13.7-12.1,25.4-25.4,25.4
	c-2.8,0-5.4-0.5-7.9-1.3c3.6,4.7,8.8,7.7,15.8,7c0,0,1.3-0.2,2.6-0.7c0.4-0.2,0.9-0.2,1.4,0c1.3,0.6,2.6,0.7,2.6,0.7
	c16.5,1.6,22.8-17,22.8-31.4C629.9,210.4,622.5,202.7,613.3,202.7z"/>
<g>
	<path class="st129" d="M612.9,203.7c1-1.1,1.9-2.4,2.5-3.7c1-2.1,1.3-4.5,0.8-6.8c-0.1-0.3-0.3-0.5-0.5-0.5
		c-2.3-0.5-4.6-0.2-6.7,0.8c-1.7,0.8-3.4,1.9-4.5,3.4c-1.8,2.4-3,5.5-2.6,8.6c0.1,0.5,0,1.7,0.8,1.8c0.6,0.1,1.3,0.2,2,0.2
		C607.6,207.3,610.8,205.9,612.9,203.7L612.9,203.7z"/>
	<path class="st130" d="M616.2,193.2c0.5,2.3,0.2,4.7-0.8,6.8c-0.6,1.4-1.5,2.7-2.5,3.8c-2.1,2.2-5.3,3.6-8.4,3.6
		c-0.7,0-1.3-0.1-2-0.2c-0.3,0-0.5-0.2-0.5-0.5c0-0.2-0.1-0.4-0.1-0.5c0,0,0,0,0-0.1c3-0.1,6-1.5,8.1-3.6c1-1.1,1.9-2.4,2.5-3.7
		c0.9-2,1.2-4.2,0.9-6.4c0.8,0,1.5,0.1,2.3,0.2C615.9,192.7,616.1,192.9,616.2,193.2L616.2,193.2z"/>
</g>
<g>
	<g>
		<path class="st131" d="M822.6,123.4l-1-1.8c0,0,0,0,0.1,0l-22.9-39.7c-0.3-0.5-0.8-0.8-1.4-0.8c-0.5,0-1.1,0.2-1.4,0.8l-22.9,39.7
			c0,0,0,0,0.1,0l-1,1.8c-4.8,8.3-5,17.4-1.9,25.2c0,0-0.1,0-0.1,0c4,10.2,13.7,18.1,26.1,18.5c0.1,0,0.3,0,0.4,0c0.2,0,0.4,0,0.6,0
			h0c0,0,0,0,0,0c0,0,0,0,0,0h0c0.2,0,0.4,0,0.6,0c0.1,0,0.3,0,0.4,0c12.4-0.4,22.1-8.3,26.1-18.5c0,0-0.1,0-0.1,0
			C827.5,140.8,827.3,131.6,822.6,123.4z"/>
		<g>
			<path class="st132" d="M785,123.4l18.8-32.7l-5.1-8.8c-0.6-1-2.1-1-2.6,0l-23.9,41.5c-11.2,19.4,2.8,43.7,25.2,43.7h0
				c2.2,0,4.4-0.2,6.4-0.7C785.3,162.3,774.9,140.9,785,123.4L785,123.4z"/>
		</g>
	</g>
	<g>
		<g>
			<path class="st133" d="M746.2,90c-1.8,7.5-4.1,9.8-11.6,11.6c-0.9,0.2-0.9,1.6,0,1.8c7.5,1.8,9.8,4.1,11.6,11.6
				c0.2,0.9,1.6,0.9,1.8,0c1.8-7.5,4.1-9.8,11.6-11.6c0.9-0.2,0.9-1.6,0-1.8c-7.5-1.8-9.8-4.1-11.6-11.6C747.7,89,746.4,89,746.2,90
				z"/>
		</g>
		<g>
			<g>
				<path class="st134" d="M741.6,98.7c-1.7,1.3-3.9,2.1-7.1,2.9c-0.9,0.2-0.9,1.6,0,1.8c7.5,1.8,9.8,4.1,11.6,11.6
					c0.2,0.9,1.6,0.9,1.8,0c0.7-3.2,1.6-5.4,2.9-7.1C749.2,102.5,747,100.3,741.6,98.7z"/>
			</g>
		</g>
	</g>
	<g>
		<g>
			<path class="st131" d="M759.6,111.3l-10.8,18.7c-5.1,8.8,1.3,19.7,11.4,19.7c10.1,0,16.5-11,11.4-19.7l-10.8-18.7
				C760.6,110.9,759.9,110.9,759.6,111.3z"/>
		</g>
		<g>
			<path class="st132" d="M758.1,130.1l6.7-11.7l-4.1-7.1c-0.3-0.5-0.9-0.5-1.2,0l-10.8,18.7c-5.1,8.8,1.3,19.7,11.4,19.7
				c1.7,0,3.2-0.3,4.7-0.8C757.6,146.3,753.9,137.4,758.1,130.1z"/>
		</g>
	</g>
	<path class="st135" d="M835.2,101.1h-2.8v-2.8c0-0.8-0.6-1.4-1.4-1.4c-0.8,0-1.4,0.6-1.4,1.4v2.8h-2.8c-0.8,0-1.4,0.6-1.4,1.4
		s0.6,1.4,1.4,1.4h2.8v2.8c0,0.8,0.6,1.4,1.4,1.4c0.8,0,1.4-0.6,1.4-1.4v-2.8h2.8c0.8,0,1.4-0.6,1.4-1.4S836,101.1,835.2,101.1z"/>
	<path class="st135" d="M776.3,89.6h-3.6V86c0-0.8-0.6-1.4-1.4-1.4c-0.8,0-1.4,0.6-1.4,1.4v3.6h-3.6c-0.8,0-1.4,0.6-1.4,1.4
		s0.6,1.4,1.4,1.4h3.6V96c0,0.8,0.6,1.4,1.4,1.4c0.8,0,1.4-0.6,1.4-1.4v-3.6h3.6c0.8,0,1.4-0.6,1.4-1.4S777.1,89.6,776.3,89.6z"/>
	<g>
		<path class="st4" d="M790.1,122.9l7.9,22.4l8-22.4h3.8L799.6,150h-3.5L786,122.9H790.1z"/>
	</g>
	<g>
		<path class="st127" d="M853.3,108.6c-2.8,0-5.4,0.9-7.6,2.4c-1.5,2.1-3.9,6.2-3.9,9c0,7.1,5.8,12.9,12.9,12.9c2.8,0,6.9-2.4,9-3.9
			c1.5-2.1,2.4-4.7,2.4-7.6C866.2,114.4,860.4,108.6,853.3,108.6z"/>
		<path class="st136" d="M843.3,118.6c0-2.8,0.9-5.4,2.4-7.6c-3.2,2.3-5.4,6.2-5.4,10.5c0,7.1,5.8,12.9,12.9,12.9
			c4.3,0,8.1-2.1,10.5-5.4c-2.1,1.5-4.7,2.4-7.6,2.4C849.1,131.6,843.3,125.8,843.3,118.6L843.3,118.6z"/>
		<path class="st137" d="M826.1,119.1c-2.2,0-4.3,0.7-6,1.8c-1.2,1.7-3.3,5.2-3.3,7.5c0,5.9,4.8,10.8,10.8,10.8
			c2.2,0,5.7-2.1,7.5-3.3c1.2-1.7,1.8-3.8,1.8-6C836.9,123.9,832.1,119.1,826.1,119.1L826.1,119.1z"/>
		<path class="st138" d="M818.3,126.9c0-2.2,0.7-4.3,1.8-6c-2.9,1.9-4.7,5.2-4.7,8.9c0,5.9,4.8,10.8,10.8,10.8c3.7,0,7-1.9,8.9-4.7
			c-1.7,1.2-3.8,1.8-6,1.8C823.1,137.6,818.3,132.8,818.3,126.9z"/>
		<path class="st101" d="M845,137.9c-2.2,0-4.3,0.7-6,1.8c-1.2,1.7-3.3,5.2-3.3,7.5c0,5.9,4.8,10.8,10.8,10.8c2.2,0,5.7-2.1,7.5-3.3
			c1.2-1.7,1.8-3.8,1.8-6C855.8,142.7,850.9,137.9,845,137.9z"/>
		<path class="st102" d="M837.2,145.8c0-2.2,0.7-4.3,1.8-6c-2.9,1.9-4.7,5.2-4.7,8.9c0,5.9,4.8,10.8,10.8,10.8c3.7,0,7-1.9,8.9-4.7
			c-1.7,1.2-3.8,1.8-6,1.8C842,156.5,837.2,151.7,837.2,145.8L837.2,145.8z"/>
		<g>
			<path class="st139" d="M830.9,133.2l-3.6-9.4c0,0,0,0,0,0c-0.2-0.5-0.7-0.8-1.2-0.8c0,0,0,0,0,0c-0.5,0-1,0.3-1.2,0.8
				c0,0,0,0,0,0l-3.6,9.4c-0.2,0.6,0.1,1.2,0.6,1.4c0.6,0.2,1.2-0.1,1.4-0.6l0.6-1.6h4.3l0.6,1.6c0.2,0.4,0.6,0.7,1,0.7
				c0.1,0,0.3,0,0.4-0.1C830.9,134.4,831.2,133.7,830.9,133.2L830.9,133.2z M824.8,130.1l1.3-3.4l1.3,3.4H824.8z"/>
			<path class="st139" d="M842.8,154.4c-0.3,0-0.6-0.1-0.8-0.3c-0.2-0.2-0.3-0.5-0.3-0.8c0,0,0-3.4,0-4.7c0-1.1,0-4.6,0-4.6
				c0-0.3,0.1-0.6,0.3-0.8c0.2-0.2,0.5-0.3,0.8-0.3h2.6c2.9,0,4.8,2.3,4.8,5.7c0,3.3-2,5.7-4.7,5.7
				C844.8,154.4,842.9,154.4,842.8,154.4C842.8,154.4,842.8,154.4,842.8,154.4L842.8,154.4z M843.9,145.1c0,1.1,0,2.9,0,3.5
				c0,0.8,0,2.5,0,3.6c0.6,0,1.2,0,1.6,0c1.3,0,2.6-1.1,2.6-3.5c0-1.7-0.7-3.5-2.7-3.5L843.9,145.1L843.9,145.1z"/>
			<path class="st139" d="M850.1,127.4c-0.3,0-0.6-0.1-0.8-0.3c-0.2-0.2-0.3-0.5-0.3-0.8v-9.6c0-0.6,0.5-1.1,1.1-1.1h2.8
				c1.8,0,3.3,1.5,3.3,3.3c0,0.7-0.2,1.3-0.6,1.9c0.9,0.7,1.4,1.7,1.4,2.9c0,2-1.6,3.7-3.7,3.7C852.6,127.4,850.1,127.4,850.1,127.4
				C850.1,127.4,850.1,127.4,850.1,127.4L850.1,127.4z M851.2,122.3v3c0.8,0,1.8,0,2.2,0c0.8,0,1.5-0.7,1.5-1.5s-0.7-1.5-1.5-1.5
				C853,122.2,851.9,122.3,851.2,122.3z M851.2,117.8v2.2c0.6,0,1.3,0,1.7,0c0.6,0,1.1-0.5,1.1-1.1c0-0.6-0.5-1.1-1.1-1.1
				L851.2,117.8L851.2,117.8z"/>
			<path class="st139" d="M860.3,127.7c-0.6,0-1.1-0.5-1.1-1.1v-3.1c0-0.6,0.5-1.1,1.1-1.1c0.6,0,1.1,0.5,1.1,1.1v3.1
				C861.4,127.2,860.9,127.7,860.3,127.7z"/>
		</g>
	</g>
</g>
<g>
	<path class="st140" d="M92.6,117.9c-16,0-29,2.7-29,5.9v4.8h0c0.3,3.2,13.1,5.8,28.9,5.8c15.8,0,28.7-2.6,28.9-5.8h0v-4.8
		C121.5,120.5,108.6,117.9,92.6,117.9z"/>
	<path class="st141" d="M92.6,64.2c-15.3,0-27.6,2.4-27.6,5.3v55.1c0,2.9,12.4,5.3,27.6,5.3s27.6-2.4,27.6-5.3V69.5
		C120.2,66.6,107.8,64.2,92.6,64.2z"/>
	<g>
		<path id="Path_00000003067901016283420460000013425553303143256993_" class="st142" d="M108.7,110.6c0,4.7-3.5,8.7-8.1,9.4
			c-5.7,0.7-11.5-0.5-16.5-3.3l0,0c-1.1,0.3-2.2,0.2-3.1-0.5c-0.9-0.7-1.4-1.7-1.4-2.8v-1.3c-0.8-1.2-1.3-2.6-1.4-4.1
			c-0.2-1.9,0.2-3.9,1-5.6c2.3-5,6.1-14.9,7.1-17.3c0.1-0.3,0.4-0.6,0.8-0.7l6.8-1.9c0.4-0.1,0.8,0,1.2,0.3l3.3,3.3
			c0.4,0.4,0.4,1.2,0,1.6l-2.4,2.4l0,0c0.2,0.1,0.5,0.2,0.7,0.3c0.8,0.3,1.3,1.1,1.3,1.9c0,0.2,0,0.4-0.1,0.6
			c-0.4,1.1-1.5,1.6-2.6,1.3c-1.2-0.4-2.5-0.6-3.7-0.7c-0.1,0-0.2,0-0.3,0c-0.6,0-1.2-0.3-1.7-0.7c-0.1,0.9-0.2,1.8,0,2.7
			c0.1,0.6,0.2,1.1,0.4,1.7c0.8,2.2,1.1,4.5,1,6.8l0,0c0.6-0.8,1.4-1.4,2.3-1.9c3.5-1.8,7.7-1.6,11.1,0.5c2.4,1.5,4,4.1,4.3,6.9
			C108.7,109.9,108.7,110.3,108.7,110.6L108.7,110.6z"/>
		<path id="Path_00000134245170144010176880000005133023602635641278_" class="st143" d="M96,115.5c-1.9,0.1-3.9-0.3-5.6-1.2
			c-0.5-0.3-0.7-1.1-0.3-1.6c0.3-0.5,1.1-0.7,1.6-0.3c0.1,0.1,3.3,1.9,10.6-0.1c0.4-0.1,0.8,0,1.1,0.3c0.3,0.3,0.4,0.7,0.3,1.1
			s-0.4,0.7-0.8,0.8"/>
		<g>
			<path id="Path_00000076577274600110639650000013849548662323061166_" class="st144" d="M73,106.5h-3.5c-0.6,0-1.2-0.5-1.2-1.2
				c0-0.6,0.5-1.2,1.2-1.2H73c0.6,0,1.2,0.5,1.2,1.2C74.2,105.9,73.7,106.5,73,106.5z"/>
			<path id="Path_00000036973839505291973280000015922536255806903230_" class="st144" d="M115.6,106.5h-3.5c-0.6,0-1.2-0.5-1.2-1.2
				c0-0.6,0.5-1.2,1.2-1.2h3.5c0.6,0,1.2,0.5,1.2,1.2C116.8,105.9,116.2,106.5,115.6,106.5z"/>
			<path id="Path_00000170971192949901194450000010774012889912491954_" class="st144" d="M109.5,99c-0.5,0-1-0.3-1.1-0.9
				c-0.1-0.5,0.1-1,0.5-1.3l3-1.7c0.4-0.2,0.8-0.2,1.2,0s0.6,0.6,0.6,1s-0.2,0.8-0.6,1l-3,1.7C109.9,98.9,109.7,99,109.5,99
				L109.5,99z"/>
			<path id="Path_00000136413446592069414630000018403535760734833539_" class="st144" d="M75.6,99c-0.2,0-0.4-0.1-0.6-0.2l-3-1.7
				c-0.4-0.2-0.6-0.6-0.6-1s0.2-0.8,0.6-1c0.4-0.2,0.8-0.2,1.2,0l3,1.7c0.5,0.3,0.7,0.8,0.5,1.3C76.6,98.6,76.2,99,75.6,99z"/>
		</g>
	</g>
	<path class="st145" d="M92.6,60.6c-16,0-29,2.7-29,5.9v4.8h0c0.3,3.2,13.1,5.8,28.9,5.8c15.8,0,28.7-2.6,28.9-5.8h0v-4.8
		C121.5,63.2,108.6,60.6,92.6,60.6z"/>
	<ellipse class="st146" cx="92.6" cy="65.9" rx="28.9" ry="5.3"/>
</g>
<g>
	<path id="Path_00000098214371059946121010000017619829502566469803_" class="st60" d="M111.9,129.6c-0.7,0-1.3-0.6-1.3-1.3
		c0-0.7,0.6-1.3,1.3-1.3c2.1,0,3.8-1.7,3.8-3.8c0-0.7,0.6-1.3,1.3-1.3s1.3,0.6,1.3,1.3C118.2,126.7,115.4,129.6,111.9,129.6z"/>
	<g>
		<path class="st147" d="M171.6,138c0-15-16.8-27.1-37.5-27.1c-7,0-13.5,1.4-19.1,3.8c-6.3,2.7-12.8,4.5-19.3,6.7
			c-9.4,3.1-15.8,9.4-15.8,16.6v12.5c0,7.3,6.4,13.5,15.8,16.7c6.5,2.1,13,4,19.3,6.7c5.6,2.4,12.1,3.8,19.1,3.8
			c20.7,0,37.5-12.1,37.5-27.1V138z"/>
		<path class="st148" d="M134.1,110.9c-6.3,0-12.3,1.1-17.5,3.1c-6.2,2.4-12.4,5-18.9,6.7c-10.5,2.8-17.9,9.5-17.9,17.3
			s7.4,14.4,17.9,17.3c6.4,1.7,12.6,4.3,18.9,6.7c5.2,2,11.2,3.1,17.5,3.1c20.7,0,37.5-12.1,37.5-27.1
			C171.6,123,154.8,110.9,134.1,110.9z"/>
		<path class="st149" d="M167.2,140.9c0.4-2.3-1.1-4.5-3.4-4.9c-0.3,0-0.5-0.1-0.8-0.1h-12.3c-8.3,0-8,3.2-8,4.2c0,1,0.4,2,1.1,2.7
			c2.8,2.8,3.9,5.4,4.4,10.5c0.3,2.8,3.3,4.3,5.7,3.1C161.1,152.7,166,147.2,167.2,140.9z"/>
		<path class="st149" d="M134.1,123c2.8,2.3,5.8,4.3,9,5.9c6.8,3.4,16.6,2.8,16.6,2.8c3.1,0,4.7-3.7,2.5-6
			c-5.2-5.6-13.9-9.6-23.9-10.5C129.9,115,129.9,119.2,134.1,123z"/>
		<path class="st149" d="M138.6,140.1c0-1.3,0.3-2.5,0.9-3.6c1.1-2,0.4-4.5-1.6-5.6c-2.9-1.7-5.6-3.7-8-5.9c-0.2-0.2-0.6-0.5-1.1-1
			c-4.5-4.4-11.1-5.8-17-3.6c-5.4,1.5-5.2,6.6-2.7,9c6.7,6.4,8,16.6,8.3,23.3c0,4.2,3,6.3,4.2,6.6c4.1,1.1,8.3,1.7,12.5,1.7
			c0.6,0,1.2,0,1.8,0c5.2-0.2,9-5.1,7.9-10.2c-0.5-2.3-1.4-3.6-2.8-5C139.5,144.2,138.6,142.2,138.6,140.1z"/>
		<path class="st150" d="M164.8,139.9c-0.9,0-1.7,0.6-2,1.5l0,0.2c0,0,0,0.1,0,0.1c0,0,0,0.1,0,0.1c-1.3,4-4.7,7.6-9.5,10.4
			c-1,0.6-1.4,1.8-0.8,2.8c0.6,1,1.8,1.4,2.8,0.8c5.7-3.2,9.8-7.6,11.5-12.7c0,0,0-0.1,0-0.1c0,0,0-0.1,0-0.1l0,0l0,0
			c0-0.1,0-0.1,0.1-0.2v0c0,0,0,0,0,0c0.3-1.1-0.3-2.2-1.4-2.6C165.2,139.9,165,139.9,164.8,139.9z"/>
		<g>
			<path class="st150" d="M112.5,148.5c0-5.7-4.9-19.6-12.2-19.6c-7.3,0-16.4,7.2-14.5,10.4c3.1,5.2,7.9,6.1,14.5,10.1
				C107.8,153.8,112.5,154.1,112.5,148.5z"/>
			<path class="st151" d="M125.8,127.6c0-2.3-2.8-4.2-6.3-4.2c-3.5,0-6.3,1.9-6.3,4.2c0,2.3,2.8,4.2,6.3,4.2
				C123,131.7,125.8,129.9,125.8,127.6z"/>
			<path class="st151" d="M134.1,133.8c0,1.2-0.9,2.1-2.1,2.1c-1.2,0-2.1-0.9-2.1-2.1c0-1.2,0.9-2.1,2.1-2.1
				C133.2,131.7,134.1,132.7,134.1,133.8z"/>
			<path class="st149" d="M100.2,133.8c0,1.2-0.9,2.1-2.1,2.1S96,135,96,133.8c0-1.2,0.9-2.1,2.1-2.1S100.2,132.7,100.2,133.8z"/>
			<path class="st151" d="M142.4,121.3c0,1.2-0.9,2.1-2.1,2.1c-1.2,0-2.1-0.9-2.1-2.1c0-1.2,0.9-2.1,2.1-2.1
				C141.5,119.2,142.4,120.2,142.4,121.3z"/>
			<path class="st151" d="M150.8,142.2c0,1.2-0.9,2.1-2.1,2.1c-1.2,0-2.1-0.9-2.1-2.1c0-1.2,0.9-2.1,2.1-2.1
				C149.8,140.1,150.8,141,150.8,142.2z"/>
		</g>
	</g>
</g>
<rect x="277.6" y="191.6" class="st2" width="26.2" height="9.6"/>
</svg>
