<?xml version="1.0" encoding="utf-8"?>
<!-- Generator: Adobe Illustrator 26.0.1, SVG Export Plug-In . SVG Version: 6.00 Build 0)  -->
<svg version="1.1" id="Layer_1" xmlns="http://www.w3.org/2000/svg" xmlns:xlink="http://www.w3.org/1999/xlink" x="0px" y="0px"
	 viewBox="0 0 440 286" style="enable-background:new 0 0 440 286;" xml:space="preserve">
<style type="text/css">
	.st0{fill:none;}
	.st1{fill:#333333;}
	.st2{fill:#E1F8FF;}
	.st3{fill:#E8E8E8;}
	.st4{fill:#FFFFFF;}
	.st5{fill:#CECECE;}
	.st6{fill:#DD4343;}
	.st7{fill:#949AAA;}
	.st8{fill:#40A2E7;}
	.st9{fill:#FED402;}
	.st10{fill:#00DDC2;}
	.st11{fill:#52C0B2;}
	.st12{fill:#FCD305;}
	.st13{fill:#4A9FD8;}
	.st14{fill:#DC4343;}
	.st15{fill:#3ABFC5;}
	.st16{fill:#2DB9A3;}
	.st17{fill:#DBB227;}
	.st18{fill:#3688C8;}
	.st19{fill:#C52D2E;}
	.st20{fill:#FF7892;}
	.st21{fill:#21D0C3;}
	.st22{fill:#EEFAFF;}
	.st23{fill:#207EA8;}
	.st24{fill:#F2F8F9;}
	.st25{fill:#539FC9;}
	.st26{opacity:0.2;fill:#539FC9;}
	.st27{opacity:0.5;fill:#539FC9;}
	.st28{fill:#EDF4F5;}
	.st29{fill:#DAE6E9;}
	.st30{fill:#D1D3D4;}
	.st31{fill:#00CDCF;}
	.st32{fill:#FBF069;}
	.st33{fill:#808184;}
	.st34{fill:#231F20;}
	.st35{fill-rule:evenodd;clip-rule:evenodd;fill:#E2E3F2;}
	.st36{fill:#151717;}
	.st37{fill-rule:evenodd;clip-rule:evenodd;fill:#CEDEF2;}
	.st38{fill-rule:evenodd;clip-rule:evenodd;fill:#F59DA7;}
	.st39{fill-rule:evenodd;clip-rule:evenodd;fill:#151717;}
	.st40{fill-rule:evenodd;clip-rule:evenodd;fill:#F5FBFD;}
	.st41{fill:#24B5BA;}
	.st42{fill:#F7B429;}
	.st43{fill:#86C2EA;}
	.st44{fill:#FFE22C;}
	.st45{fill:#E9ABCD;}
	.st46{fill:#F9C6D2;}
	.st47{fill:#F07CB0;}
	.st48{fill:#D1D3D8;}
	.st49{fill:#DEF4F8;}
	.st50{fill:#558EF2;}
	.st51{fill:#381E0D;}
	.st52{fill:#231107;}
	.st53{fill:#97B9FF;}
	.st54{fill:#FFB09E;}
	.st55{fill:#FFD4CF;}
	.st56{fill:#F97070;}
	.st57{fill:#2B2B2B;}
	.st58{fill-rule:evenodd;clip-rule:evenodd;fill:#E6E6E6;}
	.st59{fill-rule:evenodd;clip-rule:evenodd;fill:#707070;}
	.st60{fill-rule:evenodd;clip-rule:evenodd;fill:#FFFFFF;}
	.st61{fill-rule:evenodd;clip-rule:evenodd;fill:#1992DD;}
	.st62{fill-rule:evenodd;clip-rule:evenodd;fill:#22A1FF;}
	.st63{fill-rule:evenodd;clip-rule:evenodd;fill:#E9AA11;}
	.st64{fill:#F5BFB3;}
	.st65{fill:#EBF3FC;}
	.st66{fill:#ACE7C2;}
	.st67{fill:#6ECBD0;}
	.st68{fill:#DFECFE;}
	.st69{fill:#7774C3;}
	.st70{fill:#69CDE1;}
	.st71{fill:#F9F5E1;}
	.st72{opacity:0.54;fill:#77E8F7;}
	.st73{fill:#C8D2DC;}
	.st74{fill:#FB5858;}
	.st75{fill:#F44545;}
	.st76{fill:#DCE6EB;}
	.st77{fill:#44BFD7;}
	.st78{fill:#7CD2E3;}
	.st79{fill:#A6E0EC;}
	.st80{fill:#FFF5F5;}
	.st81{fill:#007A8E;}
	.st82{fill:#0289A8;}
	.st83{fill:#11B8DD;}
	.st84{fill:#FEFEFE;}
	.st85{fill:#E9F3FE;}
	.st86{fill:#A5A5A5;}
	.st87{fill:#707070;}
	.st88{fill:#1F9FCC;}
	.st89{fill:#C5FFF9;}
	.st90{fill:#465150;}
	.st91{opacity:0.14;}
	.st92{fill:#3689C9;}
	.st93{fill:#FDD5B5;}
	.st94{fill:#FFBE92;}
	.st95{fill:#EAE9E4;}
	.st96{fill:#683A2A;}
	.st97{fill:#25BCBD;}
	.st98{fill:#FAAF40;}
	.st99{fill:#D6F8FF;}
	.st100{fill:#A2E2EA;}
	.st101{fill:#61A2F9;}
	.st102{fill:#4073C8;}
	.st103{fill:#82C11F;}
	.st104{fill:#679B04;}
	.st105{fill:#BADB47;}
	.st106{fill:#E3F4FF;}
	.st107{fill:#F9F6F9;}
	.st108{fill:#DFEAEF;}
	.st109{fill:#64BDFF;}
	.st110{fill:#EED60F;}
	.st111{fill:#F8E868;}
	.st112{fill:#F6E23D;}
	.st113{fill:#FCF5BE;}
	.st114{fill:#E4F6FF;}
	.st115{fill:#D3EFFB;}
	.st116{fill:#002A35;}
	.st117{fill:#809E39;}
	.st118{fill:#A3CC32;}
	.st119{fill:#B7D636;}
	.st120{fill:#BEE25A;}
	.st121{fill:#B1D13D;}
	.st122{fill:#70432A;}
	.st123{fill:#875035;}
	.st124{fill:#5A361F;}
	.st125{fill:#E2BB17;}
	.st126{fill:#FFDA3E;}
	.st127{fill:#E94444;}
	.st128{fill:#D82E2E;}
	.st129{fill:#00C27A;}
	.st130{fill:#00A05F;}
	.st131{fill:#FAC600;}
	.st132{fill:#F99F00;}
	.st133{fill:#FE9901;}
	.st134{fill:#FB8801;}
	.st135{fill:#E8B800;}
	.st136{fill:#D83131;}
	.st137{fill:#FF9052;}
	.st138{fill:#EA5B13;}
	.st139{fill:#F7F9FA;}
	.st140{fill:#285680;}
	.st141{fill:#4482C3;}
	.st142{fill-rule:evenodd;clip-rule:evenodd;fill:#FDD7AD;}
	.st143{fill-rule:evenodd;clip-rule:evenodd;fill:#EDAD72;}
	.st144{fill-rule:evenodd;clip-rule:evenodd;fill:#F3D55B;}
	.st145{fill:#204E70;}
	.st146{fill:#105A87;}
	.st147{fill:#E48D72;}
	.st148{fill:#FFD7CC;}
	.st149{fill:#AE2B00;}
	.st150{fill:#8E1600;}
	.st151{fill:#D65128;}
	.st152{opacity:0.5;fill:url(#SVGID_1_);enable-background:new    ;}
	.st153{fill:#603813;}
	.st154{fill:#009345;}
	.st155{fill:#BCBB32;}
	.st156{fill:#006838;}
	.st157{fill:#94C03D;}
	.st158{fill:#5B306C;}
	.st159{fill:#682B81;}
	.st160{fill:#59286B;}
	.st161{fill:#83459A;}
	.st162{fill:#B98CBE;}
	.st163{fill:#6F3693;}
	.st164{fill:#AC8CBF;}
	.st165{fill:#DAB0D2;}
	.st166{fill:#C1B1D6;}
	.st167{fill:#638D27;}
	.st168{fill:#95C11F;}
	.st169{fill:url(#SVGID_00000161597076640248289480000009401050133876999067_);}
	.st170{clip-path:url(#SVGID_00000149353294286271745520000005198996449973603001_);fill:#ED7624;}
	.st171{clip-path:url(#SVGID_00000058566348508436157230000006536735308522301826_);fill:#ED7624;}
	.st172{clip-path:url(#SVGID_00000098937975055904756490000003175207489270812314_);fill:#ED7524;}
	.st173{clip-path:url(#SVGID_00000150102060575125026270000004934042544791661443_);fill:#ED7424;}
	.st174{clip-path:url(#SVGID_00000164490219657544148560000013866762881451940001_);fill:#ED7324;}
	.st175{clip-path:url(#SVGID_00000057839755145237561390000004732944976528954253_);fill:#ED7224;}
	.st176{clip-path:url(#SVGID_00000162348069423743494440000013377740045424163463_);fill:#ED7124;}
	.st177{clip-path:url(#SVGID_00000088117136926932445330000012472818275953619644_);fill:#ED7024;}
	.st178{clip-path:url(#SVGID_00000111177214656928713730000005654861814836919439_);fill:#ED6F24;}
	.st179{clip-path:url(#SVGID_00000060020037671708392100000007781012338953806223_);fill:#ED6E24;}
	.st180{clip-path:url(#SVGID_00000005230159448376162080000011559760478469627572_);fill:#ED6D24;}
	.st181{clip-path:url(#SVGID_00000115510041978593352190000003255513979900815250_);fill:#ED6C24;}
	.st182{clip-path:url(#SVGID_00000168079861982529874750000014546032643008567218_);fill:#ED6B24;}
	.st183{clip-path:url(#SVGID_00000072270052143063247650000002229307417329015702_);fill:#ED6A24;}
	.st184{clip-path:url(#SVGID_00000108271232882102930950000004708682855098301868_);fill:#ED6924;}
	.st185{clip-path:url(#SVGID_00000170984652558138174010000007293026385091559820_);fill:#ED6824;}
	.st186{clip-path:url(#SVGID_00000048496513744245893220000016435878843560321973_);fill:#ED6724;}
	.st187{clip-path:url(#SVGID_00000116957311363158707600000013718782782046051749_);fill:#ED6624;}
	.st188{clip-path:url(#SVGID_00000096747940091779202200000002061125444795935935_);fill:#ED6524;}
	.st189{clip-path:url(#SVGID_00000007408034168842340740000011631008512757567384_);fill:#ED6424;}
	.st190{clip-path:url(#SVGID_00000123439272321032666580000016671926906010650016_);fill:#ED6324;}
	.st191{clip-path:url(#SVGID_00000078006389801232086070000000047856532517444743_);fill:#ED6224;}
	.st192{clip-path:url(#SVGID_00000071520067472660097460000012805421084545128363_);fill:#ED6124;}
	.st193{clip-path:url(#SVGID_00000022554386340775157970000009844782326009303225_);fill:#ED6024;}
	.st194{clip-path:url(#SVGID_00000090288766966381293510000014720678784295492487_);fill:#ED5F24;}
	.st195{clip-path:url(#SVGID_00000153664380800950225580000011672452210726328458_);fill:#ED5E24;}
	.st196{clip-path:url(#SVGID_00000034804119260851754020000001062481707927712698_);fill:#ED5D24;}
	.st197{clip-path:url(#SVGID_00000057112956151469397850000014772927317438498968_);fill:#ED5C24;}
	.st198{clip-path:url(#SVGID_00000165206910312171850050000018261751725325033143_);fill:#ED5B24;}
	.st199{clip-path:url(#SVGID_00000025422324733898490050000012933122642762737059_);fill:#ED5A24;}
	.st200{clip-path:url(#SVGID_00000150791316810095396420000011340626830617972866_);fill:#ED5924;}
	.st201{clip-path:url(#SVGID_00000050632311404158860100000000987015962378434213_);fill:#ED5824;}
	.st202{clip-path:url(#SVGID_00000168089491318054850770000001267801873985398934_);fill:#ED5724;}
	.st203{clip-path:url(#SVGID_00000036962427703986456320000006738583729682206641_);fill:#ED5624;}
	.st204{clip-path:url(#SVGID_00000021831839094079956900000006284521385646683553_);fill:#ED5524;}
	.st205{clip-path:url(#SVGID_00000098218131694422292810000006113743006702504117_);fill:#ED5424;}
	.st206{clip-path:url(#SVGID_00000041268282365467687470000014054098658578707893_);fill:#ED5324;}
	.st207{clip-path:url(#SVGID_00000111893885332871661980000004989648042437104285_);fill:#ED5224;}
	.st208{clip-path:url(#SVGID_00000018196448736981503370000015956433995062863551_);fill:#ED5124;}
	.st209{clip-path:url(#SVGID_00000115482291157066225420000002018510131642976402_);fill:#ED5024;}
	.st210{clip-path:url(#SVGID_00000097473928676753591450000012093444083923547323_);fill:#ED4F24;}
	.st211{clip-path:url(#SVGID_00000032609779250839321850000002145753449194521769_);fill:#ED4E24;}
	.st212{clip-path:url(#SVGID_00000008828204030451282340000013403033030132465055_);fill:#ED4D24;}
	.st213{clip-path:url(#SVGID_00000084495011797253476120000014815219270504174476_);fill:#ED4C24;}
	.st214{clip-path:url(#SVGID_00000106133079302023684930000003385524205196288429_);fill:#ED4B24;}
	.st215{clip-path:url(#SVGID_00000168836664431456754900000008626991406964876964_);fill:#ED4A24;}
	.st216{clip-path:url(#SVGID_00000096031999324751775960000008105732250836221113_);fill:#ED4824;}
	.st217{clip-path:url(#SVGID_00000027592801209015364470000013072434106240811953_);fill:#ED4724;}
	.st218{clip-path:url(#SVGID_00000086653879713407438320000017525684182921954233_);fill:#ED4624;}
	.st219{clip-path:url(#SVGID_00000091724303591512266420000005788677822586523301_);fill:#ED4524;}
	.st220{clip-path:url(#SVGID_00000018215598912648701670000000065854366487337875_);fill:#ED4424;}
	.st221{clip-path:url(#SVGID_00000151536305835329576400000004835830616057920671_);fill:#ED4324;}
	.st222{clip-path:url(#SVGID_00000173840612656987978160000007994031396557509292_);fill:#ED4224;}
	.st223{clip-path:url(#SVGID_00000165234258437937479530000002660856670602953652_);fill:#ED4124;}
	.st224{clip-path:url(#SVGID_00000082357394338526673200000006929052164864198310_);fill:#ED4024;}
	.st225{clip-path:url(#SVGID_00000173136932302677483130000016515975718317828287_);fill:#ED3F24;}
	.st226{clip-path:url(#SVGID_00000104688548838747134180000003881521020051777925_);fill:#ED3E24;}
	.st227{clip-path:url(#SVGID_00000164502758823006337490000001361217398824744837_);fill:#ED3D24;}
	.st228{clip-path:url(#SVGID_00000130648382259034149980000010315809838085786783_);fill:#ED3C24;}
	.st229{clip-path:url(#SVGID_00000142160864965062502090000014151671610499572915_);fill:#ED3B24;}
	.st230{clip-path:url(#SVGID_00000052064440110361672960000002690002446466856627_);fill:#ED3A24;}
	.st231{clip-path:url(#SVGID_00000075147249594411930030000000819222508621074364_);fill:#ED3924;}
	.st232{clip-path:url(#SVGID_00000083810178803760621030000010732560753994777014_);fill:#ED3824;}
	.st233{clip-path:url(#SVGID_00000146489093088463781050000002076487961549325744_);fill:#ED3724;}
	.st234{clip-path:url(#SVGID_00000111154235880385780390000012142968223047778706_);fill:#ED3624;}
	.st235{clip-path:url(#SVGID_00000135653333237862385840000015910339591379438761_);fill:#ED3524;}
	.st236{clip-path:url(#SVGID_00000106837338693953146680000008948118344905539250_);fill:#ED3424;}
	.st237{clip-path:url(#SVGID_00000052091786664613473080000012958732167295980979_);fill:#ED3324;}
	.st238{clip-path:url(#SVGID_00000119106188078457314840000007338165964422558129_);fill:#ED3224;}
	.st239{clip-path:url(#SVGID_00000179648403713602524660000002145174851675714722_);fill:#ED3124;}
	.st240{clip-path:url(#SVGID_00000155850541397190006830000004629428092876550275_);fill:#ED3024;}
	.st241{clip-path:url(#SVGID_00000051364944164358942500000002545500210271868595_);fill:#ED2F24;}
	.st242{clip-path:url(#SVGID_00000165221970583767546020000015901735303056309648_);fill:#ED2E24;}
	.st243{clip-path:url(#SVGID_00000011033707948725572770000008121348324706202524_);fill:#ED2D24;}
	.st244{clip-path:url(#SVGID_00000129203282401079513970000015766313351356978343_);fill:#ED2C24;}
	.st245{clip-path:url(#SVGID_00000054238655683011397690000012289120332171630993_);fill:#ED2B24;}
	.st246{clip-path:url(#SVGID_00000182515918845139703300000016824911230727095737_);fill:#ED2A24;}
	.st247{clip-path:url(#SVGID_00000015339663760908019120000000699655049041822098_);fill:#ED2924;}
	.st248{clip-path:url(#SVGID_00000004528096870075880480000000248515860874312609_);fill:#ED2824;}
	.st249{clip-path:url(#SVGID_00000130608124173464383680000016871660309512382643_);fill:#ED2724;}
	.st250{clip-path:url(#SVGID_00000168108575602215715650000009182703250209787052_);fill:#ED2624;}
	.st251{clip-path:url(#SVGID_00000001651921523089944510000002374679865433324425_);fill:#ED2524;}
	.st252{clip-path:url(#SVGID_00000016069331001170876010000002723514056624129193_);fill:#ED2424;}
	.st253{clip-path:url(#SVGID_00000183228638328768332610000011370439701215524236_);fill:#ED2324;}
	.st254{clip-path:url(#SVGID_00000108295745179356887310000000283074975274187427_);fill:#ED2224;}
	.st255{clip-path:url(#SVGID_00000029738507626408809450000008092662381985016226_);fill:#ED2124;}
	.st256{clip-path:url(#SVGID_00000157273941016034792100000014057648516824515468_);fill:#ED2024;}
	.st257{clip-path:url(#SVGID_00000176738502610948643750000010146105607820651193_);fill:#ED1F24;}
	.st258{clip-path:url(#SVGID_00000027572505549769341780000001145574451733268356_);fill:#ED1E24;}
	.st259{clip-path:url(#SVGID_00000059998321355814276070000005474532808565369271_);fill:#ED1D24;}
	.st260{clip-path:url(#SVGID_00000080204501267398728500000009796630666707772303_);fill:#ED1C24;}
	.st261{clip-path:url(#SVGID_00000132065897579273358910000005753114028133047684_);fill:#ED1C24;}
	.st262{clip-path:url(#SVGID_00000080909878585884648760000007604436941529853839_);fill:#EC1C24;}
	.st263{clip-path:url(#SVGID_00000107547831756543145610000007128948659099296412_);fill:#EB1C23;}
	.st264{clip-path:url(#SVGID_00000009564878523497466510000012967807274156382637_);fill:#EA1C23;}
	.st265{clip-path:url(#SVGID_00000078004308773200345490000006382190063549192093_);fill:#E91C22;}
	.st266{clip-path:url(#SVGID_00000014598401467206957930000002811518973844954046_);fill:#E81C22;}
	.st267{clip-path:url(#SVGID_00000043448559090160229220000001916437866326854796_);fill:#E71C22;}
	.st268{clip-path:url(#SVGID_00000070812788777500891740000009506739835593669553_);fill:#E61C21;}
	.st269{clip-path:url(#SVGID_00000173127441729992137800000015392243589951252125_);fill:#E51C21;}
	.st270{clip-path:url(#SVGID_00000146469830323940076350000007083335984195435658_);fill:#E41D20;}
	.st271{clip-path:url(#SVGID_00000134239003816213049600000014564654123227699095_);fill:#E31D20;}
	.st272{clip-path:url(#SVGID_00000026161225466050037340000013224555089106261166_);fill:#E21D20;}
	.st273{clip-path:url(#SVGID_00000103252307492348537460000013317257716385060273_);fill:#E11D1F;}
	.st274{clip-path:url(#SVGID_00000011018541672762441560000010849383512600674983_);fill:#E01D1F;}
	.st275{clip-path:url(#SVGID_00000144336574156144910740000013535178767675554193_);fill:#DF1D1E;}
	.st276{clip-path:url(#SVGID_00000096041018822795975250000014744568957171631490_);fill:#DE1D1E;}
	.st277{clip-path:url(#SVGID_00000054239608561865595460000016719266132690422668_);fill:#DD1D1D;}
	.st278{clip-path:url(#SVGID_00000030465299936847819060000009108916603760490422_);fill:#DC1D1D;}
	.st279{clip-path:url(#SVGID_00000114762543115881408990000007981259783041658553_);fill:#DB1D1D;}
	.st280{clip-path:url(#SVGID_00000111886590647766270290000008017857841787858337_);fill:#DA1D1C;}
	.st281{clip-path:url(#SVGID_00000143578722518291543170000009002014151176970903_);fill:#D91D1C;}
	.st282{clip-path:url(#SVGID_00000047743455969728396320000011983136019941124236_);fill:#D81D1B;}
	.st283{clip-path:url(#SVGID_00000059280760584616707390000001748102752796428722_);fill:#D71D1B;}
	.st284{clip-path:url(#SVGID_00000020365245752537089930000003315087592771333822_);fill:#D61D1B;}
	.st285{clip-path:url(#SVGID_00000169522902163844195680000013029288040439570864_);fill:#D51D1A;}
	.st286{clip-path:url(#SVGID_00000163055397402587275620000002597822416442201757_);fill:#D41D1A;}
	.st287{clip-path:url(#SVGID_00000064333305479530498840000012971076518101320628_);fill:#D31D19;}
	.st288{clip-path:url(#SVGID_00000054947612153563010980000014550335884134198950_);fill:#D21E19;}
	.st289{clip-path:url(#SVGID_00000026862697555625124410000005620704438241451454_);fill:#D11E19;}
	.st290{clip-path:url(#SVGID_00000039132594801350346130000013446083755510787258_);fill:#D01E18;}
	.st291{clip-path:url(#SVGID_00000079468440859945893360000003374061694115467446_);fill:#CF1E18;}
	.st292{clip-path:url(#SVGID_00000146463696000514237770000007201293003473287590_);fill:#CE1E17;}
	.st293{clip-path:url(#SVGID_00000165199530426634317530000009982926542455405241_);fill:#CD1E17;}
	.st294{clip-path:url(#SVGID_00000096746899614556990340000008896772188540255138_);fill:#CC1E17;}
	.st295{clip-path:url(#SVGID_00000140693571981310332910000013557614713348788391_);fill:#CB1E16;}
	.st296{clip-path:url(#SVGID_00000054264789698251048250000017476574555192499584_);fill:#CA1E16;}
	.st297{clip-path:url(#SVGID_00000024709690172050150400000010247425131431078317_);fill:#C91E15;}
	.st298{clip-path:url(#SVGID_00000072257973769696968010000014098968743620900749_);fill:#C81E15;}
	.st299{clip-path:url(#SVGID_00000070799887231913112460000008038912298839896454_);fill:#C71E14;}
	.st300{clip-path:url(#SVGID_00000018216199779167356270000008892940046441295284_);fill:#C61E14;}
	.st301{clip-path:url(#SVGID_00000162334768061958523100000007000237733235020696_);fill:#C51E14;}
	.st302{clip-path:url(#SVGID_00000103250649808703764340000018288253924694805146_);fill:#C41E13;}
	.st303{clip-path:url(#SVGID_00000094605012568083444270000011469476424396029326_);fill:#C31E13;}
	.st304{clip-path:url(#SVGID_00000162343996221909973020000012773068996298616739_);fill:#C21E12;}
	.st305{clip-path:url(#SVGID_00000180365269892967416340000001321708524035706033_);fill:#C11F12;}
	.st306{clip-path:url(#SVGID_00000069390772610947786620000003278343566211216520_);fill:#BF1F12;}
	.st307{clip-path:url(#SVGID_00000076600477630564383700000010168421916154442681_);fill:#BE1F11;}
	.st308{clip-path:url(#SVGID_00000164504523734111851200000017348083160457105340_);fill:#BD1F11;}
	.st309{clip-path:url(#SVGID_00000128479508182360254840000012804283574117213102_);fill:#BC1F10;}
	.st310{clip-path:url(#SVGID_00000091695082593082916060000006972292090839929015_);fill:#BB1F10;}
	.st311{clip-path:url(#SVGID_00000168074498640070377450000003223157735652775860_);fill:#BA1F10;}
	.st312{clip-path:url(#SVGID_00000129888966910820313960000003103223647636023175_);fill:#B91F0F;}
	.st313{clip-path:url(#SVGID_00000037694365788881563980000011984802736963959198_);fill:#B81F0F;}
	.st314{clip-path:url(#SVGID_00000122699614584887791310000010304594152311062407_);fill:#B71F0E;}
	.st315{clip-path:url(#SVGID_00000108304942957786388100000008499620015080521883_);fill:#B61F0E;}
	.st316{clip-path:url(#SVGID_00000048468194281965945290000000334621663708897417_);fill:#B51F0E;}
	.st317{clip-path:url(#SVGID_00000023963907671082016990000008029742333786699946_);fill:#B41F0D;}
	.st318{clip-path:url(#SVGID_00000129164743223549842850000012398426801766982787_);fill:#B31F0D;}
	.st319{clip-path:url(#SVGID_00000176723943865755441160000015701226553102578055_);fill:#B21F0C;}
	.st320{clip-path:url(#SVGID_00000042727662892612987000000013689319037742569390_);fill:#B11F0C;}
	.st321{clip-path:url(#SVGID_00000051378719213666619790000010486191371756688298_);fill:#B01F0B;}
	.st322{clip-path:url(#SVGID_00000005960582681237538770000005681665066499144632_);fill:#AF1F0B;}
	.st323{clip-path:url(#SVGID_00000102508935885120844080000000930933123073141155_);fill:#AE200B;}
	.st324{clip-path:url(#SVGID_00000136373371129181498500000016428724726804218040_);fill:#AD200A;}
	.st325{clip-path:url(#SVGID_00000126303645493797328130000002148045770137185190_);fill:#AC200A;}
	.st326{clip-path:url(#SVGID_00000134941867538182730840000013941426391323642805_);fill:#AB2009;}
	.st327{clip-path:url(#SVGID_00000047036088415478045870000011777067707685876370_);fill:#AA2009;}
	.st328{clip-path:url(#SVGID_00000124851675404333373280000008288722402731185855_);fill:#A92009;}
	.st329{clip-path:url(#SVGID_00000129177257150564792080000015948278485847277496_);fill:#A82008;}
	.st330{clip-path:url(#SVGID_00000070112816169063907770000000877496518223033771_);fill:#A72008;}
	.st331{clip-path:url(#SVGID_00000127738060079420432140000005612907323652384698_);fill:#A62007;}
	.st332{clip-path:url(#SVGID_00000061462326293518898340000014991403252227399315_);fill:#A52007;}
	.st333{clip-path:url(#SVGID_00000097462765947870001460000010280382503050465966_);fill:#A42007;}
	.st334{clip-path:url(#SVGID_00000063606492107224588950000009558130053434471859_);fill:#A32006;}
	.st335{clip-path:url(#SVGID_00000024687889447134560880000004498956565421688204_);fill:#A22006;}
	.st336{clip-path:url(#SVGID_00000079469307177864491420000011273013441468290714_);fill:#A12005;}
	.st337{clip-path:url(#SVGID_00000045612741728589750140000003810841789216060863_);fill:#A02005;}
	.st338{clip-path:url(#SVGID_00000109745346482282672930000005529698543981189538_);fill:#9F2005;}
	.st339{clip-path:url(#SVGID_00000127755294464657016760000000989413333366408834_);fill:#9E2004;}
	.st340{clip-path:url(#SVGID_00000019674245133907110630000016771735571149555367_);fill:#9D2004;}
	.st341{clip-path:url(#SVGID_00000113325800157932405870000004434187983567846017_);fill:#9C2103;}
	.st342{clip-path:url(#SVGID_00000171700335587943614300000002090396021904301722_);fill:#9B2103;}
	.st343{clip-path:url(#SVGID_00000021096303235525467840000003122301989587643814_);fill:#9A2102;}
	.st344{clip-path:url(#SVGID_00000158009495207197157400000016749124467659832196_);fill:#992102;}
	.st345{clip-path:url(#SVGID_00000161612692048898132340000017950630824588142015_);fill:#982102;}
	.st346{clip-path:url(#SVGID_00000081633303819919129840000010638275226940346290_);fill:#972101;}
	.st347{clip-path:url(#SVGID_00000049223015550152558880000017632212952986205880_);fill:#962101;}
	.st348{clip-path:url(#SVGID_00000003072669305010344650000013659736771311291025_);fill:#952100;}
	.st349{clip-path:url(#SVGID_00000077322971792173154020000014569048719511531431_);fill:#942100;}
	.st350{clip-path:url(#SVGID_00000116236450883946408070000011937845727327965118_);fill:#ED7624;}
	.st351{clip-path:url(#SVGID_00000026138465152177166130000015809201304007861687_);fill:#ED7624;}
	.st352{clip-path:url(#SVGID_00000062189524473622071420000008058079001332919480_);fill:#ED7524;}
	.st353{clip-path:url(#SVGID_00000078735960900057637220000006535915604213288634_);fill:#ED7424;}
	.st354{clip-path:url(#SVGID_00000032608109332205707910000010301682999884191390_);fill:#ED7324;}
	.st355{clip-path:url(#SVGID_00000030482065081792260170000002888323759521120652_);fill:#ED7224;}
	.st356{clip-path:url(#SVGID_00000041257465158200364520000016873544705273415312_);fill:#ED7124;}
	.st357{clip-path:url(#SVGID_00000070830017710646554100000001333175318704420010_);fill:#ED7024;}
	.st358{clip-path:url(#SVGID_00000034781716067780519810000003362271914340484772_);fill:#ED6F24;}
	.st359{clip-path:url(#SVGID_00000147190090543424143030000015534153234858222259_);fill:#ED6E24;}
	.st360{clip-path:url(#SVGID_00000067933165268607128780000015388798429798372766_);fill:#ED6D24;}
	.st361{clip-path:url(#SVGID_00000084489102674992325290000013158688468481789106_);fill:#ED6C24;}
	.st362{clip-path:url(#SVGID_00000154418486008057395350000000666595419149857197_);fill:#ED6B24;}
	.st363{clip-path:url(#SVGID_00000159456604862145517110000013159750976630213000_);fill:#ED6A24;}
	.st364{clip-path:url(#SVGID_00000065069414854036677080000017399762331094772660_);fill:#ED6924;}
	.st365{clip-path:url(#SVGID_00000045601228672330375090000012897338557152847768_);fill:#ED6824;}
	.st366{clip-path:url(#SVGID_00000017511397805901416170000012069145314604037524_);fill:#ED6724;}
	.st367{clip-path:url(#SVGID_00000147899330974401660970000006281866797781516933_);fill:#ED6624;}
	.st368{clip-path:url(#SVGID_00000067922447638407686290000014619626048128175023_);fill:#ED6524;}
	.st369{clip-path:url(#SVGID_00000180331961982657596050000004261911870728900763_);fill:#ED6424;}
	.st370{clip-path:url(#SVGID_00000060742369801734994980000005326018669829438390_);fill:#ED6324;}
	.st371{clip-path:url(#SVGID_00000015329047340481420460000001726365434651283843_);fill:#ED6224;}
	.st372{clip-path:url(#SVGID_00000023252776694891063450000000111257277558589870_);fill:#ED6124;}
	.st373{clip-path:url(#SVGID_00000031913881857553637100000012390336961052257435_);fill:#ED6024;}
	.st374{clip-path:url(#SVGID_00000042724866815985380760000000725781846661054851_);fill:#ED5F24;}
	.st375{clip-path:url(#SVGID_00000102527146502558212350000004239640094474103177_);fill:#ED5E24;}
	.st376{clip-path:url(#SVGID_00000112616959642657425080000009543480347226053537_);fill:#ED5D24;}
	.st377{clip-path:url(#SVGID_00000166643685283944945150000013679560053756485806_);fill:#ED5C24;}
	.st378{clip-path:url(#SVGID_00000057139006106458749690000018198734845918330778_);fill:#ED5B24;}
	.st379{clip-path:url(#SVGID_00000146490738046587823280000003669323653946277263_);fill:#ED5A24;}
	.st380{clip-path:url(#SVGID_00000146487411125330526620000011088660131504583594_);fill:#ED5924;}
	.st381{clip-path:url(#SVGID_00000100364610989507883360000017635880673475756932_);fill:#ED5824;}
	.st382{clip-path:url(#SVGID_00000067217266240196847530000009324184273685326269_);fill:#ED5724;}
	.st383{clip-path:url(#SVGID_00000020372678190539838740000016075393640400429231_);fill:#ED5624;}
	.st384{clip-path:url(#SVGID_00000134968512706547903260000003666076039713330819_);fill:#ED5524;}
	.st385{clip-path:url(#SVGID_00000006665378371424105030000003384737285631272066_);fill:#ED5424;}
	.st386{clip-path:url(#SVGID_00000174592938330858327760000001847929655014267305_);fill:#ED5324;}
	.st387{clip-path:url(#SVGID_00000069363941547481766480000016274177267738605718_);fill:#ED5224;}
	.st388{clip-path:url(#SVGID_00000002377613702940306690000011646459508809814194_);fill:#ED5124;}
	.st389{clip-path:url(#SVGID_00000044898552043140545240000004402042731020380032_);fill:#ED5024;}
	.st390{clip-path:url(#SVGID_00000176022944155859605160000001960950539509066392_);fill:#ED4F24;}
	.st391{clip-path:url(#SVGID_00000111889204574177066360000001831100473095827596_);fill:#ED4E24;}
	.st392{clip-path:url(#SVGID_00000144296903255449465060000003419633592908571524_);fill:#ED4D24;}
	.st393{clip-path:url(#SVGID_00000054228142602217820770000001110424332945485983_);fill:#ED4C24;}
	.st394{clip-path:url(#SVGID_00000134228077233983392970000015416851024228746117_);fill:#ED4B24;}
	.st395{clip-path:url(#SVGID_00000119103104896786304420000004605684226048290463_);fill:#ED4A24;}
	.st396{clip-path:url(#SVGID_00000092428989893922414210000014644479736974590103_);fill:#ED4824;}
	.st397{clip-path:url(#SVGID_00000095304565842350080550000007577225458289883014_);fill:#ED4724;}
	.st398{clip-path:url(#SVGID_00000111152001552448408050000003601617250857921462_);fill:#ED4624;}
	.st399{clip-path:url(#SVGID_00000023982594346931078100000006321612883571855510_);fill:#ED4524;}
	.st400{clip-path:url(#SVGID_00000098932659322446918350000008520504011735568289_);fill:#ED4424;}
	.st401{clip-path:url(#SVGID_00000070076923351488623680000007004452037206242964_);fill:#ED4324;}
	.st402{clip-path:url(#SVGID_00000011748842444610008850000013309156481849543595_);fill:#ED4224;}
	.st403{clip-path:url(#SVGID_00000150802555636461573380000010792966254951378571_);fill:#ED4124;}
	.st404{clip-path:url(#SVGID_00000158007622986971609670000008867697199670394763_);fill:#ED4024;}
	.st405{clip-path:url(#SVGID_00000158013147252493341830000006577668275574293177_);fill:#ED3F24;}
	.st406{clip-path:url(#SVGID_00000107580088471787152350000010492342234726204838_);fill:#ED3E24;}
	.st407{clip-path:url(#SVGID_00000130610816282055252080000001555488271094303151_);fill:#ED3D24;}
	.st408{clip-path:url(#SVGID_00000153665977227900488060000013788007325057337499_);fill:#ED3C24;}
	.st409{clip-path:url(#SVGID_00000018236843504259593750000016126503205636520366_);fill:#ED3B24;}
	.st410{clip-path:url(#SVGID_00000107564858891267351030000004871397253416021377_);fill:#ED3A24;}
	.st411{clip-path:url(#SVGID_00000139268782667032652390000007479543575724892859_);fill:#ED3924;}
	.st412{clip-path:url(#SVGID_00000124851960585667967690000004323369550761805204_);fill:#ED3824;}
	.st413{clip-path:url(#SVGID_00000108285659896000255510000009367998873371120550_);fill:#ED3724;}
	.st414{clip-path:url(#SVGID_00000109004407327953149630000003319967164578536321_);fill:#ED3624;}
	.st415{clip-path:url(#SVGID_00000048485495506754445710000009289677399289129357_);fill:#ED3524;}
	.st416{clip-path:url(#SVGID_00000079463109524784027120000008193739281587587984_);fill:#ED3424;}
	.st417{clip-path:url(#SVGID_00000019670475248331925780000017896143880257419149_);fill:#ED3324;}
	.st418{clip-path:url(#SVGID_00000129892039471398169410000002938781579918378129_);fill:#ED3224;}
	.st419{clip-path:url(#SVGID_00000160184996673454800080000002160550138044998577_);fill:#ED3124;}
	.st420{clip-path:url(#SVGID_00000026870684032776386750000016961917392369645204_);fill:#ED3024;}
	.st421{clip-path:url(#SVGID_00000111909224034198296340000004525024187344253844_);fill:#ED2F24;}
	.st422{clip-path:url(#SVGID_00000090255520979627236560000005809644424760194471_);fill:#ED2E24;}
	.st423{clip-path:url(#SVGID_00000104684691139648975630000017109559298561138567_);fill:#ED2D24;}
	.st424{clip-path:url(#SVGID_00000161603934837459575010000010263966961902969994_);fill:#ED2C24;}
	.st425{clip-path:url(#SVGID_00000067919608330687147630000006992535129677214869_);fill:#ED2B24;}
	.st426{clip-path:url(#SVGID_00000018929207897985846300000007599025921209613977_);fill:#ED2A24;}
	.st427{clip-path:url(#SVGID_00000034809607650260853820000005965329986432102814_);fill:#ED2924;}
	.st428{clip-path:url(#SVGID_00000183233256699571927150000012633498407698286751_);fill:#ED2824;}
	.st429{clip-path:url(#SVGID_00000001655554878535287640000017342386551643379329_);fill:#ED2724;}
	.st430{clip-path:url(#SVGID_00000123428740183649572420000002930824798893905318_);fill:#ED2624;}
	.st431{clip-path:url(#SVGID_00000165227325711863882480000010756904712514623894_);fill:#ED2524;}
	.st432{clip-path:url(#SVGID_00000059303493350599454080000017734659344595886742_);fill:#ED2424;}
	.st433{clip-path:url(#SVGID_00000085241605544038305210000008202091921394419621_);fill:#ED2324;}
	.st434{clip-path:url(#SVGID_00000075876703837859809110000015626305019576157612_);fill:#ED2224;}
	.st435{clip-path:url(#SVGID_00000010281921204229811490000016197254254690077076_);fill:#ED2124;}
	.st436{clip-path:url(#SVGID_00000170240992560567515540000006062943309523668615_);fill:#ED2024;}
	.st437{clip-path:url(#SVGID_00000080891617977501585190000002617350097263479179_);fill:#ED1F24;}
	.st438{clip-path:url(#SVGID_00000018934591643498303100000018066564434102058373_);fill:#ED1E24;}
	.st439{clip-path:url(#SVGID_00000000204698232305565140000004555086799808012457_);fill:#ED1D24;}
	.st440{clip-path:url(#SVGID_00000127017570605550494290000012805822815756100501_);fill:#ED1C24;}
	.st441{clip-path:url(#SVGID_00000176749053528418479130000002224518769263781551_);fill:#ED1C24;}
	.st442{clip-path:url(#SVGID_00000125563886154296964290000015294902419490113941_);fill:#EC1C24;}
	.st443{clip-path:url(#SVGID_00000009570343214787181960000001399404338680174978_);fill:#EB1C23;}
	.st444{clip-path:url(#SVGID_00000155136441591613220290000011333644993850854025_);fill:#EA1C23;}
	.st445{clip-path:url(#SVGID_00000158001907111233622420000016277825127538744715_);fill:#E91C22;}
	.st446{clip-path:url(#SVGID_00000165233430214195057970000007915317383938235793_);fill:#E81C22;}
	.st447{clip-path:url(#SVGID_00000137110131370890980680000008886983940221380515_);fill:#E71C22;}
	.st448{clip-path:url(#SVGID_00000170996759806000938860000006996354618120314753_);fill:#E61C21;}
	.st449{clip-path:url(#SVGID_00000026861367804070488400000008672582601664063149_);fill:#E51C21;}
	.st450{clip-path:url(#SVGID_00000131333442126930511280000005153860316188233373_);fill:#E41D20;}
	.st451{clip-path:url(#SVGID_00000090282934438595927160000003556571846655160211_);fill:#E31D20;}
	.st452{clip-path:url(#SVGID_00000146488208430041804380000002028596203739218309_);fill:#E21D20;}
	.st453{clip-path:url(#SVGID_00000086652981684663593440000016657623058927095177_);fill:#E11D1F;}
	.st454{clip-path:url(#SVGID_00000178175812648675760850000010628404685112836540_);fill:#E01D1F;}
	.st455{clip-path:url(#SVGID_00000085246761005476016000000015430884035095949972_);fill:#DF1D1E;}
	.st456{clip-path:url(#SVGID_00000061460458536136314670000003609091261463046277_);fill:#DE1D1E;}
	.st457{clip-path:url(#SVGID_00000164507267435059095170000009687444055707634056_);fill:#DD1D1D;}
	.st458{clip-path:url(#SVGID_00000157996307916151017820000005282887927427088038_);fill:#DC1D1D;}
	.st459{clip-path:url(#SVGID_00000070095648239606869570000009735139392237679293_);fill:#DB1D1D;}
	.st460{clip-path:url(#SVGID_00000081611751539260103900000005560781163936292537_);fill:#DA1D1C;}
	.st461{clip-path:url(#SVGID_00000120545049070211363760000011133556295843571091_);fill:#D91D1C;}
	.st462{clip-path:url(#SVGID_00000092421512232279817760000017014770783799441848_);fill:#D81D1B;}
	.st463{clip-path:url(#SVGID_00000018195293848254420110000007561017697936884628_);fill:#D71D1B;}
	.st464{clip-path:url(#SVGID_00000094611936153704682350000000588361574012673942_);fill:#D61D1B;}
	.st465{clip-path:url(#SVGID_00000105429258284023890690000017881735083885246608_);fill:#D51D1A;}
	.st466{clip-path:url(#SVGID_00000039855452470306681260000015318860526171284878_);fill:#D41D1A;}
	.st467{clip-path:url(#SVGID_00000077302995802688842910000009275042127774807981_);fill:#D31D19;}
	.st468{clip-path:url(#SVGID_00000152230659746142361590000002593211940179713953_);fill:#D21E19;}
	.st469{clip-path:url(#SVGID_00000148632201565947458230000001426190288975268482_);fill:#D11E19;}
	.st470{clip-path:url(#SVGID_00000073697036002063741570000013181364286333770415_);fill:#D01E18;}
	.st471{clip-path:url(#SVGID_00000163776930508409681890000008628258575483072952_);fill:#CF1E18;}
	.st472{clip-path:url(#SVGID_00000060742282245662531140000013308077203359321985_);fill:#CE1E17;}
	.st473{clip-path:url(#SVGID_00000070836505005445672680000003703820377830965125_);fill:#CD1E17;}
	.st474{clip-path:url(#SVGID_00000174588313076422199360000012701447173515638684_);fill:#CC1E17;}
	.st475{clip-path:url(#SVGID_00000182496170867991412010000000517837405422173860_);fill:#CB1E16;}
	.st476{clip-path:url(#SVGID_00000119839674769988645420000001949602822020243367_);fill:#CA1E16;}
	.st477{clip-path:url(#SVGID_00000111902772982917377620000014045141454509785502_);fill:#C91E15;}
	.st478{clip-path:url(#SVGID_00000132782168223694998210000008498631900014001305_);fill:#C81E15;}
	.st479{clip-path:url(#SVGID_00000154411269360957279010000009929770704353052332_);fill:#C71E14;}
	.st480{clip-path:url(#SVGID_00000107578684064794587510000007451588355861557143_);fill:#C61E14;}
	.st481{clip-path:url(#SVGID_00000096758068252852141320000007625955586863473035_);fill:#C51E14;}
	.st482{clip-path:url(#SVGID_00000047750815778090730280000004810613870383626914_);fill:#C41E13;}
	.st483{clip-path:url(#SVGID_00000006667499069832844670000013493000697261659027_);fill:#C31E13;}
	.st484{clip-path:url(#SVGID_00000150791029018407368400000005239037339702270898_);fill:#C21E12;}
	.st485{clip-path:url(#SVGID_00000146498987654780274350000003446184409991026861_);fill:#C11F12;}
	.st486{clip-path:url(#SVGID_00000080923766154574811790000009965853942080864672_);fill:#BF1F12;}
	.st487{clip-path:url(#SVGID_00000011032193947394113710000013473538025081035433_);fill:#BE1F11;}
	.st488{clip-path:url(#SVGID_00000100347102259186108550000008927231947012536217_);fill:#BD1F11;}
	.st489{clip-path:url(#SVGID_00000009584233565529964830000003178849391421694887_);fill:#BC1F10;}
	.st490{clip-path:url(#SVGID_00000146463744437041333600000004621592842411900341_);fill:#BB1F10;}
	.st491{clip-path:url(#SVGID_00000018232627954396303770000013721420304432373666_);fill:#BA1F10;}
	.st492{clip-path:url(#SVGID_00000156547481335580732780000002043197603754359426_);fill:#B91F0F;}
	.st493{clip-path:url(#SVGID_00000042699638078962010150000010894365382214481550_);fill:#B81F0F;}
	.st494{clip-path:url(#SVGID_00000129922427358559773140000013518211055152642701_);fill:#B71F0E;}
	.st495{clip-path:url(#SVGID_00000119811908901033644000000014652548826052766897_);fill:#B61F0E;}
	.st496{clip-path:url(#SVGID_00000047048965764012932510000004354765253595351208_);fill:#B51F0E;}
	.st497{clip-path:url(#SVGID_00000141449580126199013350000001490706756182657964_);fill:#B41F0D;}
	.st498{clip-path:url(#SVGID_00000045604718502544362990000006624126400359367050_);fill:#B31F0D;}
	.st499{clip-path:url(#SVGID_00000127745360345454363250000006667555758874570891_);fill:#B21F0C;}
	.st500{clip-path:url(#SVGID_00000111908224362056325170000009097163282501657490_);fill:#B11F0C;}
	.st501{clip-path:url(#SVGID_00000088130893366105149870000011544378994971445933_);fill:#B01F0B;}
	.st502{clip-path:url(#SVGID_00000114037032941316396870000016325158843588641458_);fill:#AF1F0B;}
	.st503{clip-path:url(#SVGID_00000181079417268807028320000008592913014460608662_);fill:#AE200B;}
	.st504{clip-path:url(#SVGID_00000037653535727238851600000008865503765401787267_);fill:#AD200A;}
	.st505{clip-path:url(#SVGID_00000004546142629798514280000001214718980825843862_);fill:#AC200A;}
	.st506{clip-path:url(#SVGID_00000035491946012822352730000012471759806402349442_);fill:#AB2009;}
	.st507{clip-path:url(#SVGID_00000114041721950229637620000012313850074174018725_);fill:#AA2009;}
	.st508{clip-path:url(#SVGID_00000126314757609624680050000006094440065930558632_);fill:#A92009;}
	.st509{clip-path:url(#SVGID_00000097484003841306171270000015762790833571376774_);fill:#A82008;}
	.st510{clip-path:url(#SVGID_00000069378492852120387980000006662822293171326115_);fill:#A72008;}
	.st511{clip-path:url(#SVGID_00000017497190063672411760000014279268666133146780_);fill:#A62007;}
	.st512{clip-path:url(#SVGID_00000150815562859852491020000017406026316184883350_);fill:#A52007;}
	.st513{clip-path:url(#SVGID_00000021817871701819446380000004691032451219866287_);fill:#A42007;}
	.st514{clip-path:url(#SVGID_00000150082145755041600390000015138748650432972442_);fill:#A32006;}
	.st515{clip-path:url(#SVGID_00000027590926565024640180000011067858881302807947_);fill:#A22006;}
	.st516{clip-path:url(#SVGID_00000163763628702222183430000013810159799586224785_);fill:#A12005;}
	.st517{clip-path:url(#SVGID_00000171701162119049177930000009872710923437266872_);fill:#A02005;}
	.st518{clip-path:url(#SVGID_00000108269973223193464720000008559995412467925668_);fill:#9F2005;}
	.st519{clip-path:url(#SVGID_00000118392951081230563740000006589697344057614990_);fill:#9E2004;}
	.st520{clip-path:url(#SVGID_00000029753286879156388780000012194927520508719242_);fill:#9D2004;}
	.st521{clip-path:url(#SVGID_00000081611897688474054970000008724119043799689885_);fill:#9C2103;}
	.st522{clip-path:url(#SVGID_00000078725346600518034700000007492927815819766181_);fill:#9B2103;}
	.st523{clip-path:url(#SVGID_00000060721121532236132310000009130660334737359782_);fill:#9A2102;}
	.st524{clip-path:url(#SVGID_00000154423777705104796070000001057257144800902078_);fill:#992102;}
	.st525{clip-path:url(#SVGID_00000165197383318037896570000005858982287165097626_);fill:#982102;}
	.st526{clip-path:url(#SVGID_00000158734147858345360330000005973291475328503739_);fill:#972101;}
	.st527{clip-path:url(#SVGID_00000060004752476290430590000003918117517553022113_);fill:#962101;}
	.st528{clip-path:url(#SVGID_00000006665348939517652820000000962157805834621862_);fill:#952100;}
	.st529{clip-path:url(#SVGID_00000098916966096059251990000015379330910240657316_);fill:#942100;}
	.st530{fill:#41AA54;}
	.st531{fill:#40A629;}
	.st532{fill:url(#SVGID_00000171703562777195744860000004129093760362894231_);}
	.st533{fill:url(#SVGID_00000171686327516509890560000015456736027272674963_);}
	.st534{fill:url(#SVGID_00000091004441571500022160000006800157902458312593_);}
	.st535{fill:url(#SVGID_00000181793364544643403710000011633105141613857410_);}
	.st536{fill:url(#SVGID_00000096764392326639108930000006840524875896954524_);}
	.st537{fill:#214902;}
	.st538{fill:url(#SVGID_00000020395655376807328570000010854189673287526027_);}
	.st539{fill:#009D4B;}
	.st540{opacity:0.5;fill:url(#SVGID_00000124155135244458400270000015162082380042274999_);enable-background:new    ;}
	.st541{opacity:0.5;fill:url(#SVGID_00000147933569403405716190000011521987679744568199_);enable-background:new    ;}
	.st542{opacity:0.5;fill:url(#SVGID_00000178202413038371224970000008520659890451330223_);enable-background:new    ;}
	.st543{opacity:0.5;fill:url(#SVGID_00000164497155100833318020000005889963655512118690_);enable-background:new    ;}
	.st544{opacity:0.5;fill:url(#SVGID_00000178195578126689561280000013442883085857526149_);enable-background:new    ;}
	.st545{opacity:0.5;fill:url(#SVGID_00000093870811224326301340000013448238846890041216_);enable-background:new    ;}
	.st546{opacity:0.5;fill:url(#SVGID_00000048475751098894993110000005769628737504873915_);enable-background:new    ;}
	.st547{opacity:0.2;fill:#539FC9;enable-background:new    ;}
	.st548{opacity:0.5;fill:#539FC9;enable-background:new    ;}
	.st549{fill:#D6E5EB;}
	.st550{fill:#FAFAFA;}
	.st551{fill:#FF9CC7;}
	.st552{fill:#DDDDDD;}
	.st553{fill:#666666;}
	.st554{fill:#BAC8CE;}
	.st555{fill:#67B6EF;}
	.st556{fill:#679DEF;}
	.st557{fill:#67DFEF;}
	.st558{fill:#C7B3FA;}
	.st559{fill:#D4DBDF;}
	.st560{fill:#C7CED2;}
	.st561{opacity:0.1;enable-background:new    ;}
	.st562{fill:#DBDBDB;}
	.st563{fill:#2E383B;}
	.st564{fill:#414E52;}
	.st565{fill:#E6E6E6;}
	.st566{fill:#EEF5F9;}
	.st567{fill:#DBE3E8;}
	.st568{fill:url(#SVGID_00000113330102098935651230000011651733027903638708_);}
	.st569{fill:#889AA5;}
	.st570{fill:#586770;}
	.st571{fill:#DFE6EB;}
	.st572{fill:#F3FBFF;}
	.st573{fill:#212B2E;}
	.st574{fill:#01848A;}
	.st575{fill:#ECB700;}
	.st576{fill:#388EF7;}
	.st577{fill:#66CC20;}
	.st578{fill:#FF5C66;}
	.st579{fill:#F2A983;}
	.st580{fill:#D88F69;}
	.st581{fill:#D2DADE;}
	.st582{fill:#313131;}
	.st583{fill:#12333D;}
	.st584{fill:#1F404A;}
	.st585{fill:#9DC2E3;}
	.st586{fill:#90B5D6;}
	.st587{fill:#BD2903;}
	.st588{fill:#AACFF0;}
	.st589{fill:#CFCFCF;}
	.st590{fill:#D8DFE3;}
	.st591{fill:#E9F1F5;}
	.st592{fill:#038093;}
	.st593{fill:#32ABBF;}
	.st594{fill:#899BA6;}
	.st595{fill:#AFC0C9;}
	.st596{fill:#563317;}
	.st597{opacity:0.3;fill:#563317;enable-background:new    ;}
	.st598{fill:#AEB5B9;}
	.st599{fill:url(#SVGID_00000078022372662383451450000011568530241410225599_);}
	.st600{fill:url(#SVGID_00000004520519238932966660000007788346240013883019_);}
	.st601{opacity:0.15;enable-background:new    ;}
	.st602{fill:url(#SVGID_00000125596310378543116400000006441022900330837403_);}
	.st603{fill:url(#SVGID_00000082357508816577076350000002509962442504439214_);}
	.st604{fill:url(#SVGID_00000129920164183828281580000014585379682545098114_);}
	.st605{fill:url(#SVGID_00000127725016334411596990000000636527786742210199_);}
	.st606{fill:url(#SVGID_00000126292147644808147380000005405885891101443227_);}
	.st607{fill:url(#SVGID_00000158009351590144309740000017074759471968334000_);}
	.st608{fill:url(#SVGID_00000095323902014929424950000017389516344483942026_);}
	.st609{fill:url(#SVGID_00000152968630321315156920000009197852449808940689_);}
	.st610{fill:url(#SVGID_00000049920793386829434150000009071084356446321315_);}
	.st611{fill:url(#SVGID_00000044157715924042791700000017540535360100738720_);}
	.st612{fill:url(#SVGID_00000072973533119185797250000007282544712968663742_);}
	.st613{fill:url(#SVGID_00000014616232754085701290000013066513596438198944_);}
	.st614{fill:url(#SVGID_00000109708635608846704000000014439602632735236239_);}
	.st615{fill:url(#SVGID_00000118381556696586428270000005439596066486420866_);}
	.st616{fill:url(#SVGID_00000095318102902669119090000009162742704102313897_);}
	.st617{fill:#F6E5D1;}
	.st618{fill:#EDF8FF;}
	.st619{fill:#BDD7E6;}
	.st620{fill:url(#SVGID_00000000202248238428241440000016929825610817046445_);}
	.st621{opacity:0.5;fill:#DBE3E8;enable-background:new    ;}
	.st622{fill:url(#SVGID_00000011010560277283369010000010197831415945441212_);}
	.st623{fill:#DDCCB8;}
	.st624{fill:#9AD0B8;}
	.st625{fill:#81B79F;}
	.st626{fill:#94C6F8;}
	.st627{fill:#6EA0D2;}
	.st628{fill:#5587B9;}
	.st629{fill:url(#SVGID_00000076563843538745090890000003229639875045412776_);}
	.st630{fill:url(#SVGID_00000121265541518831297190000011874236169440808382_);}
	.st631{fill:url(#SVGID_00000147197199790686341450000001599806892646475659_);}
	.st632{fill:url(#SVGID_00000072989217436855100780000005868662619256405135_);}
	.st633{fill:url(#SVGID_00000180367745425692026960000008103684538204594580_);}
	.st634{fill:url(#SVGID_00000047042459769467363210000003428560349072839049_);}
	.st635{fill:url(#SVGID_00000134972581348110086520000008786967517578148495_);}
	.st636{fill:url(#SVGID_00000062889213150322662410000008642053670549295494_);}
	.st637{fill:url(#SVGID_00000001661221491591755820000017685926395792506754_);}
	.st638{fill:url(#SVGID_00000093869284067617672030000006887157664930511505_);}
	.st639{fill:url(#SVGID_00000109031501215588541110000010077697551021806223_);}
	.st640{fill:#7AACDE;}
	.st641{fill:url(#SVGID_00000168075380932733494270000012745100504149947798_);}
	.st642{fill:url(#SVGID_00000054230576092865243690000002495931720729373575_);}
	.st643{fill:url(#SVGID_00000152969473459073874680000002831591009961198002_);}
	.st644{fill:url(#SVGID_00000152960901886518951770000004303576027961044152_);}
	.st645{fill:url(#SVGID_00000169542389567124251340000017524075295813978768_);}
	.st646{fill:#A2A9AD;}
	.st647{fill:#5486B8;}
	.st648{fill:#AEE0E5;}
	.st649{fill:#D5FFFF;}
	.st650{fill:#C8FAFF;}
	.st651{fill:#E2FFFF;}
	.st652{fill:url(#SVGID_00000086673187452069230400000013924606068929119917_);}
</style>
<symbol  id="New_Symbol_64" viewBox="-8.7 -5.5 17.3 11">
	<path class="st0" d="M-5.3-0.1c0-2.1,1.5-3.8,3.3-3.8H2c1.6,0,2.9,1.5,2.9,3.4v5.2L-5.3,4.5V-0.1z"/>
	<path class="st1" d="M8.7,3.5H7.6C7.3,3.5,7,3.6,6.8,3.6v1.9L-6.1,5.3l-2.6-1l0.5-1.6L-6,2.7v-3.1c0-2.8,2-5.1,4.6-5.1h3.7
		c2.3,0,4.2,2.1,4.2,4.7V2c0.3-0.1,0.7-0.1,1.1-0.1h1.1V3.5z M5.1-0.8C5.1-2.6,3.8-4,2.3-4h-3.7c-1.7,0-3.1,1.6-3.1,3.6v4.2L5.1,4
		V-0.8z"/>
</symbol>
<g>
	<rect x="276.2" y="24.5" class="st3" width="136" height="172.6"/>
	<g>
		<g>
			<rect x="268.2" y="15.6" class="st4" width="134.5" height="173.4"/>
			<path class="st5" d="M403.7,189.9H267.2V14.6h136.5V189.9z M269.2,187.9h132.5V16.6H269.2V187.9z"/>
		</g>
	</g>
	<g>
		<g>
			<rect x="310.6" y="122.9" class="st6" width="7.2" height="7.2"/>
			<rect x="324.1" y="125.1" class="st7" width="46.3" height="4"/>
			<rect x="310.6" y="134.5" class="st8" width="7.2" height="7.2"/>
			<rect x="324.1" y="136.7" class="st7" width="28.4" height="4.6"/>
			<rect x="310.6" y="146.2" class="st9" width="7.2" height="7.2"/>
			<rect x="324.1" y="148.4" class="st7" width="37.1" height="4"/>
			<rect x="310.6" y="157.8" class="st10" width="7.2" height="7.2"/>
			<rect x="327.2" y="160" class="st7" width="27.7" height="4"/>
		</g>
	</g>
	<g>
		<path class="st11" d="M367.4,89.3L367.4,89.3c3.6,0,6.5,2.9,6.5,6.5v6.5h-13.1v-6.5C360.8,92.2,363.8,89.3,367.4,89.3z"/>
		<path class="st12" d="M349.9,82.7L349.9,82.7c3.6,0,6.5,2.9,6.5,6.5v13.1h-13.1V89.3C343.4,85.7,346.3,82.7,349.9,82.7z"/>
		<path class="st13" d="M332.5,71.8L332.5,71.8c3.6,0,6.5,2.9,6.5,6.5v24h-13.1v-24C325.9,74.8,328.8,71.8,332.5,71.8z"/>
		<path class="st14" d="M315,56.6L315,56.6c3.6,0,6.5,2.9,6.5,6.5v39.3h-13.1V63.1C308.5,59.5,311.4,56.6,315,56.6z"/>
		<g>
			<path class="st15" d="M314.2,44.5C314.2,44.5,314.2,44.5,314.2,44.5c0.9,0.9,2.3,0.8,3.1,0l0,0c0.8-0.9,0.8-2.2-0.1-3
				c0,0,0,0,0,0c-0.8-0.8-2.2-0.8-3,0l0,0C313.4,42.2,313.3,43.6,314.2,44.5z"/>
			<path class="st15" d="M308.3,34.9L308.3,34.9c-0.9,0.8-1.1,2.2-0.3,3.1c0,0,0,0,0,0c0.8,0.9,2.2,1,3.1,0.1l0,0
				c0.9-0.8,0.9-2.1,0.1-3c0,0,0,0,0,0C310.6,34.3,309.2,34.2,308.3,34.9z"/>
			<path class="st15" d="M367,66L367,66c-1.1,0.5-1.6,1.8-1.1,2.9l1.4,3c-15.9-5.2-30.9-13.7-43.7-24.7c-0.9-0.8-2.2-0.7-3,0.2v0
				c-0.8,0.9-0.7,2.3,0.2,3.1c13.2,11.4,28.7,20.1,45.1,25.5l-3.1,1.4c-1.1,0.5-1.6,1.8-1.1,2.9l0,0c0.5,1.1,1.8,1.6,2.9,1.1
				l7.8-3.6c1.1-0.5,1.6-1.8,1.1-2.9l-3.6-7.8C369.4,66,368.1,65.5,367,66z"/>
		</g>
		<path class="st16" d="M360.8,98h13.1v4.4h-13.1V98z"/>
		<path class="st17" d="M343.4,98h13.1v4.4h-13.1V98z"/>
		<path class="st18" d="M325.9,98H339v4.4h-13.1V98z"/>
		<path class="st19" d="M308.5,98h13.1v4.4h-13.1V98z"/>
		<path class="st4" d="M315,69.7L315,69.7c1.2,0,2.2,1,2.2,2.2v0c0,1.2-1,2.2-2.2,2.2l0,0c-1.2,0-2.2-1-2.2-2.2v0
			C312.8,70.6,313.8,69.7,315,69.7z"/>
		<path class="st4" d="M315,60.7L315,60.7c1.2,0,2.2,1,2.2,2.2v0c0,1.2-1,2.2-2.2,2.2l0,0c-1.2,0-2.2-1-2.2-2.2v0
			C312.8,61.7,313.8,60.7,315,60.7z"/>
		<path class="st4" d="M315,78.4L315,78.4c1.2,0,2.2,1,2.2,2.2l0,0c0,1.2-1,2.2-2.2,2.2l0,0c-1.2,0-2.2-1-2.2-2.2l0,0
			C312.8,79.4,313.8,78.4,315,78.4z"/>
	</g>
</g>
<ellipse class="st22" cx="197.6" cy="250.7" rx="97.5" ry="19"/>
<g>
	<g>
		<path class="st23" d="M200.7,102.3V245c0,2.8,2.3,5.2,5.2,5.2h84.2c2.8,0,5.2-2.3,5.2-5.2V102.3H200.7z"/>
		<g>
			<rect x="200.7" y="141.6" class="st24" width="94.5" height="69.2"/>
		</g>
		<g>
			<rect x="192.7" y="85.3" class="st25" width="110.4" height="17.4"/>
			<rect x="267.4" y="85.3" class="st26" width="35.8" height="17.4"/>
			<rect x="197.6" y="85.3" class="st27" width="18.9" height="17.4"/>
		</g>
		<g>
			<path class="st28" d="M295.2,81.3c0-0.9-0.8-1.7-1.7-1.7h0v-24c0-1.3-1.1-2.4-2.4-2.4h-86.3c-1.3,0-2.4,1.1-2.4,2.4v24h0
				c-0.9,0-1.7,0.8-1.7,1.7v3.9h94.5V81.3z"/>
			<g>
				<path class="st29" d="M208,78.8c0,0.5-0.5,1-1,1l0,0c-0.6,0-1-0.4-1-1V57.3c0-0.5,0.5-1,1-1l0,0c0.6,0,1,0.4,1,1V78.8z"/>
				<path class="st29" d="M214.9,78.8c0,0.5-0.5,1-1,1l0,0c-0.6,0-1-0.4-1-1V57.3c0-0.5,0.5-1,1-1l0,0c0.6,0,1,0.4,1,1V78.8z"/>
				<path class="st29" d="M221.7,78.8c0,0.5-0.5,1-1,1l0,0c-0.6,0-1-0.4-1-1V57.3c0-0.5,0.5-1,1-1l0,0c0.6,0,1,0.4,1,1V78.8z"/>
				<path class="st29" d="M228.5,78.8c0,0.5-0.5,1-1,1l0,0c-0.6,0-1-0.4-1-1V57.3c0-0.5,0.5-1,1-1l0,0c0.6,0,1,0.4,1,1V78.8z"/>
				<path class="st29" d="M235.3,78.8c0,0.5-0.5,1-1,1l0,0c-0.6,0-1-0.4-1-1V57.3c0-0.5,0.5-1,1-1l0,0c0.6,0,1,0.4,1,1V78.8z"/>
				<path class="st29" d="M242.2,78.8c0,0.5-0.5,1-1,1l0,0c-0.6,0-1-0.4-1-1V57.3c0-0.5,0.5-1,1-1l0,0c0.6,0,1,0.4,1,1V78.8z"/>
				<path class="st29" d="M249,78.8c0,0.5-0.5,1-1,1l0,0c-0.6,0-1-0.4-1-1V57.3c0-0.5,0.5-1,1-1l0,0c0.6,0,1,0.4,1,1V78.8z"/>
				<path class="st29" d="M255.8,78.8c0,0.5-0.5,1-1,1l0,0c-0.6,0-1-0.4-1-1V57.3c0-0.5,0.5-1,1-1l0,0c0.6,0,1,0.4,1,1V78.8z"/>
				<path class="st29" d="M262.6,78.8c0,0.5-0.5,1-1,1l0,0c-0.6,0-1-0.4-1-1V57.3c0-0.5,0.5-1,1-1l0,0c0.6,0,1,0.4,1,1V78.8z"/>
				<path class="st29" d="M269.5,78.8c0,0.5-0.5,1-1,1l0,0c-0.6,0-1-0.4-1-1V57.3c0-0.5,0.5-1,1-1l0,0c0.6,0,1,0.4,1,1V78.8z"/>
				<path class="st29" d="M276.3,78.8c0,0.5-0.5,1-1,1l0,0c-0.6,0-1-0.4-1-1V57.3c0-0.5,0.5-1,1-1l0,0c0.6,0,1,0.4,1,1V78.8z"/>
				<path class="st29" d="M283.1,78.8c0,0.5-0.5,1-1,1l0,0c-0.6,0-1-0.4-1-1V57.3c0-0.5,0.5-1,1-1l0,0c0.6,0,1,0.4,1,1V78.8z"/>
				<path class="st29" d="M290,78.8c0,0.5-0.5,1-1,1l0,0c-0.6,0-1-0.4-1-1V57.3c0-0.5,0.5-1,1-1l0,0c0.6,0,1,0.4,1,1V78.8z"/>
			</g>
		</g>
	</g>
	<g>
		<rect x="213" y="174.9" class="st30" width="65.9" height="2.8"/>
		<rect x="213" y="183.1" class="st30" width="65.9" height="2.8"/>
		<rect x="213" y="191.4" class="st30" width="65.9" height="2.8"/>
		<rect x="213" y="199.7" class="st30" width="65.9" height="2.8"/>
	</g>
</g>
<path class="st83" d="M214.9,194.2c0.5-0.7-28.1-30.9-34.2-37.3c5-10.4,7.7-22.1,7.7-34.4c0-44.3-35.9-80.2-80.2-80.2
	s-80.2,35.9-80.2,80.2s35.9,80.2,80.2,80.2c23.1,0,43.9-9.8,58.5-25.4L214.9,194.2z"/>
<g>
	<path class="st4" d="M59.5,111.7h-2.6l1.5-4.4h1.8L59.5,111.7z"/>
	<path class="st4" d="M67,108.6c0.8,0,1.5,0.1,2.2,0.3c0.7,0.2,1.3,0.6,1.9,1.1c0.5,0.5,1,1.1,1.3,1.9c0.3,0.8,0.5,1.7,0.5,2.7v2.3
		c0,1.1-0.2,2-0.5,2.8c-0.3,0.8-0.7,1.4-1.3,1.9c-0.5,0.5-1.2,0.8-1.9,1c-0.7,0.2-1.5,0.3-2.3,0.3c-0.8,0-1.5-0.1-2.3-0.3
		c-0.7-0.2-1.3-0.6-1.9-1s-1-1.1-1.3-1.9c-0.3-0.8-0.5-1.7-0.5-2.8v-2.3c0-1.1,0.2-2,0.5-2.7c0.3-0.8,0.7-1.4,1.3-1.9
		c0.5-0.5,1.2-0.8,1.9-1.1C65.5,108.7,66.3,108.6,67,108.6z M67,120.6c0.5,0,0.9-0.1,1.3-0.2c0.4-0.1,0.8-0.3,1.1-0.6
		c0.3-0.3,0.5-0.7,0.7-1.2c0.2-0.5,0.3-1.2,0.3-2v-1.7c0-0.8-0.1-1.5-0.3-2c-0.2-0.5-0.4-0.9-0.7-1.2c-0.3-0.3-0.7-0.5-1.1-0.6
		s-0.9-0.2-1.3-0.2c-0.5,0-0.9,0.1-1.3,0.2c-0.4,0.1-0.8,0.3-1.1,0.6c-0.3,0.3-0.5,0.7-0.7,1.2c-0.2,0.5-0.3,1.2-0.3,2v1.7
		c0,0.8,0.1,1.5,0.3,2c0.2,0.5,0.4,0.9,0.7,1.2c0.3,0.3,0.7,0.5,1.1,0.6C66.2,120.5,66.6,120.6,67,120.6z"/>
	<path class="st4" d="M80.5,108.6c0.8,0,1.5,0.1,2.2,0.3c0.7,0.2,1.3,0.6,1.9,1.1c0.5,0.5,1,1.1,1.3,1.9c0.3,0.8,0.5,1.7,0.5,2.7
		v2.3c0,1.1-0.2,2-0.5,2.8c-0.3,0.8-0.7,1.4-1.3,1.9s-1.2,0.8-1.9,1c-0.7,0.2-1.5,0.3-2.3,0.3c-0.8,0-1.5-0.1-2.3-0.3
		c-0.7-0.2-1.3-0.6-1.9-1s-1-1.1-1.3-1.9c-0.3-0.8-0.5-1.7-0.5-2.8v-2.3c0-1.1,0.2-2,0.5-2.7c0.3-0.8,0.7-1.4,1.3-1.9
		c0.5-0.5,1.2-0.8,1.9-1.1C79,108.7,79.7,108.6,80.5,108.6z M80.5,120.6c0.5,0,0.9-0.1,1.3-0.2c0.4-0.1,0.8-0.3,1.1-0.6
		c0.3-0.3,0.5-0.7,0.7-1.2c0.2-0.5,0.3-1.2,0.3-2v-1.7c0-0.8-0.1-1.5-0.3-2c-0.2-0.5-0.4-0.9-0.7-1.2c-0.3-0.3-0.7-0.5-1.1-0.6
		c-0.4-0.1-0.9-0.2-1.3-0.2c-0.5,0-0.9,0.1-1.3,0.2s-0.8,0.3-1.1,0.6c-0.3,0.3-0.5,0.7-0.7,1.2c-0.2,0.5-0.3,1.2-0.3,2v1.7
		c0,0.8,0.1,1.5,0.3,2c0.2,0.5,0.4,0.9,0.7,1.2c0.3,0.3,0.7,0.5,1.1,0.6C79.6,120.5,80,120.6,80.5,120.6z"/>
	<path class="st4" d="M96.7,115.5h-8.4v-7.9h2.4v2.2h3.7v-2.2h2.4V115.5z M101.7,116.8v5h-8.8v1.3h9.3v1.9H90.6v-5h8.8v-1.3h-8.9
		v-1.9H101.7z M90.6,113.5h3.7v-1.8h-3.7V113.5z M101.7,110.4h2.3v2.1h-2.3v3.5h-2.4v-9h2.4V110.4z"/>
	<path class="st4" d="M112.1,117c-0.3-0.3-0.6-0.5-1-0.9c-0.4-0.3-0.7-0.6-0.9-0.8c-0.3-0.3-0.5-0.5-0.7-0.7
		c-0.2-0.2-0.3-0.3-0.3-0.5h0c-0.1,0.2-0.2,0.3-0.3,0.5c-0.1,0.2-0.4,0.4-0.6,0.7c-0.3,0.3-0.6,0.6-1,1c-0.4,0.4-0.9,0.8-1.3,1.3
		l-1.6-1.6c0.4-0.4,0.8-0.7,1.2-1.1c0.4-0.4,0.8-0.8,1.2-1.2c0.2-0.2,0.4-0.5,0.6-0.7c0.2-0.2,0.3-0.5,0.4-0.7
		c0.1-0.2,0.2-0.5,0.2-0.8c0-0.3,0-0.6,0-0.9v-2.7h2.4v2.6c0,0.3,0,0.6,0,0.9c0,0.3,0.1,0.5,0.2,0.7c0.1,0.2,0.2,0.5,0.3,0.7
		c0.1,0.2,0.3,0.5,0.6,0.7c0.7,0.7,1.4,1.3,2.1,2L112.1,117z M114.2,125.4c-0.8,0-1.6-0.1-2.3-0.2c-0.7-0.2-1.3-0.4-1.8-0.7
		c-0.5-0.3-0.9-0.6-1.2-1.1c-0.3-0.4-0.4-0.9-0.4-1.4v-0.8c0-0.5,0.1-1,0.4-1.4c0.3-0.4,0.7-0.8,1.2-1.1c0.5-0.3,1.1-0.5,1.8-0.7
		c0.7-0.2,1.5-0.2,2.3-0.2c0.8,0,1.6,0.1,2.3,0.2c0.7,0.2,1.3,0.4,1.8,0.7c0.5,0.3,0.9,0.6,1.2,1.1c0.3,0.4,0.4,0.9,0.4,1.4v0.8
		c0,0.5-0.1,1-0.4,1.4c-0.3,0.4-0.7,0.8-1.2,1.1c-0.5,0.3-1.1,0.5-1.8,0.7C115.8,125.3,115,125.4,114.2,125.4z M114.2,119.8
		c-0.4,0-0.9,0-1.3,0.1c-0.4,0.1-0.8,0.2-1.1,0.3c-0.3,0.1-0.6,0.3-0.7,0.5c-0.2,0.2-0.3,0.4-0.3,0.6v0.4c0,0.2,0.1,0.4,0.3,0.6
		c0.2,0.2,0.4,0.4,0.7,0.5c0.3,0.1,0.7,0.3,1.1,0.3c0.4,0.1,0.8,0.1,1.3,0.1c0.4,0,0.9,0,1.3-0.1c0.4-0.1,0.8-0.2,1.1-0.3
		c0.3-0.1,0.6-0.3,0.7-0.5c0.2-0.2,0.3-0.4,0.3-0.6v-0.4c0-0.2-0.1-0.4-0.3-0.6c-0.2-0.2-0.4-0.4-0.7-0.5c-0.3-0.1-0.7-0.3-1.1-0.3
		C115,119.8,114.6,119.8,114.2,119.8z M116.1,111h1.5v-4h2.3v10.7h-2.3v-4.7h-1.5v3.9h-2.3v-9.8h2.3V111z"/>
	<path class="st4" d="M126.5,116.5c1.5,0,2.8,0,3.9,0c1.2,0,2.2,0,3.1-0.1c0.9,0,1.7-0.1,2.4-0.1c0.7,0,1.3-0.1,1.9-0.2l0.2,2.1
		c-0.6,0.1-1.3,0.1-2.1,0.2c-0.8,0-1.7,0.1-2.7,0.1v5.9h-2.4v-5.8c-0.7,0-1.3,0-2.1,0c-0.7,0-1.5,0-2.3,0V116.5z M132.1,115.2
		c-0.7,0-1.4-0.1-1.9-0.3c-0.6-0.2-1.1-0.4-1.5-0.8c-0.4-0.3-0.7-0.7-0.9-1.2c-0.2-0.4-0.3-0.9-0.3-1.4V111c0-0.5,0.1-1,0.3-1.4
		c0.2-0.4,0.5-0.8,0.9-1.2c0.4-0.3,0.9-0.6,1.5-0.8c0.6-0.2,1.2-0.3,1.9-0.3c0.7,0,1.3,0.1,1.9,0.3c0.6,0.2,1.1,0.4,1.5,0.8
		c0.4,0.3,0.7,0.7,0.9,1.2c0.2,0.4,0.3,0.9,0.3,1.4v0.6c0,0.5-0.1,1-0.3,1.4c-0.2,0.4-0.5,0.8-0.9,1.2c-0.4,0.3-0.9,0.6-1.5,0.8
		C133.4,115.1,132.8,115.2,132.1,115.2z M132.1,109.4c-0.3,0-0.7,0-1,0.1c-0.3,0.1-0.5,0.2-0.8,0.4c-0.2,0.2-0.4,0.3-0.5,0.6
		c-0.1,0.2-0.2,0.4-0.2,0.7v0.3c0,0.2,0.1,0.5,0.2,0.7c0.1,0.2,0.3,0.4,0.5,0.6c0.2,0.2,0.5,0.3,0.8,0.4c0.3,0.1,0.6,0.1,1,0.1
		s0.7,0,1-0.1c0.3-0.1,0.5-0.2,0.8-0.4c0.2-0.2,0.4-0.3,0.5-0.6c0.1-0.2,0.2-0.4,0.2-0.7v-0.3c0-0.2-0.1-0.5-0.2-0.7
		s-0.3-0.4-0.5-0.6c-0.2-0.2-0.5-0.3-0.8-0.4C132.7,109.4,132.4,109.4,132.1,109.4z M141.2,124.9h-2.4V107h2.4V124.9z"/>
	<path class="st4" d="M149.7,108.7h4v2h-10.3v-2h3.9v-1.9h2.4V108.7z M148.5,117.7c-0.7,0-1.3-0.1-1.8-0.2c-0.5-0.1-1-0.3-1.3-0.6
		c-0.4-0.3-0.6-0.6-0.8-0.9c-0.2-0.4-0.3-0.7-0.3-1.2v-0.6c0-0.4,0.1-0.8,0.3-1.1c0.2-0.4,0.5-0.7,0.8-0.9c0.4-0.3,0.8-0.5,1.3-0.6
		c0.5-0.1,1.1-0.2,1.8-0.2c0.7,0,1.3,0.1,1.8,0.2c0.5,0.1,1,0.4,1.3,0.6c0.4,0.3,0.6,0.6,0.8,0.9c0.2,0.4,0.3,0.7,0.3,1.1v0.6
		c0,0.4-0.1,0.8-0.3,1.2c-0.2,0.4-0.5,0.7-0.8,0.9c-0.4,0.3-0.8,0.5-1.3,0.6C149.8,117.6,149.2,117.7,148.5,117.7z M148.5,113.2
		c-0.7,0-1.1,0.1-1.5,0.4c-0.3,0.2-0.5,0.5-0.5,0.8v0.3c0,0.3,0.2,0.5,0.5,0.8c0.3,0.2,0.8,0.4,1.5,0.4c0.7,0,1.1-0.1,1.5-0.4
		s0.5-0.5,0.5-0.8v-0.3c0-0.3-0.2-0.5-0.5-0.8S149.2,113.2,148.5,113.2z M146.7,118.6h11.3v6.3h-11.3V118.6z M149.1,122.9h6.5v-2.3
		h-6.5V122.9z M155.6,114.6h-2.1v-2.1h2.1V107h2.4v10.8h-2.4V114.6z"/>
	<path class="st4" d="M43,143.2c1.4-0.5,2.5-1,3.3-1.4c0.8-0.4,1.4-0.8,1.9-1.1c0.4-0.4,0.7-0.7,0.8-1.1c0.1-0.4,0.2-0.8,0.2-1.3
		v-0.7h-5.4v-2.1h7.8v2.9c0,0.5,0,1-0.1,1.4c-0.1,0.4-0.3,0.8-0.5,1.2c-0.2,0.4-0.5,0.7-0.9,1c-0.4,0.3-0.9,0.6-1.4,1
		c-0.6,0.3-1.2,0.6-2,1c-0.8,0.3-1.7,0.7-2.7,1.1L43,143.2z M45.9,145.4H57v7H45.9V145.4z M48.3,150.4h6.3v-3h-6.3V150.4z M57,138.5
		h2.3v2.1H57v4h-2.4v-10H57V138.5z"/>
	<path class="st4" d="M66.9,148.2v-3.6h2.4v3.6h7v2.1H59.9v-2.1H66.9z M68.2,141.4c-0.1,0.2-0.3,0.5-0.6,0.7
		c-0.3,0.2-0.7,0.5-1.2,0.9c-0.5,0.3-1.1,0.7-1.8,1.1c-0.7,0.4-1.5,0.9-2.4,1.4l-1.2-1.9c0.7-0.4,1.4-0.8,2.1-1.2
		c0.7-0.4,1.4-0.8,1.9-1.2c0.4-0.3,0.7-0.5,1-0.8c0.2-0.3,0.4-0.5,0.6-0.8c0.1-0.3,0.3-0.6,0.3-0.9c0.1-0.3,0.1-0.7,0.1-1.1v-1.8
		h2.5v1.8c0,0.4,0,0.8,0.1,1.1c0.1,0.3,0.2,0.6,0.3,0.9c0.1,0.3,0.3,0.6,0.6,0.8c0.2,0.3,0.6,0.5,1,0.8c0.6,0.4,1.2,0.8,1.9,1.2
		c0.7,0.4,1.4,0.8,2.1,1.2l-1.2,1.9c-0.9-0.5-1.7-1-2.4-1.4c-0.7-0.4-1.3-0.8-1.8-1.1c-0.5-0.3-0.9-0.6-1.2-0.9
		C68.5,141.9,68.3,141.6,68.2,141.4L68.2,141.4z"/>
	<path class="st4" d="M81.3,148.1c-1.4,0-2.4-0.4-3-1.3s-1-2.1-1-3.7V141c0-1.6,0.3-2.9,1-3.7s1.6-1.3,3-1.3c1.4,0,2.4,0.4,3,1.3
		c0.6,0.9,1,2.1,1,3.7h1.4v-6H89v16.6h-2.3v-8.5h-1.4c0,1.6-0.3,2.9-1,3.7C83.6,147.7,82.6,148.1,81.3,148.1z M81.3,138.1
		c-0.7,0-1.1,0.3-1.4,0.8c-0.2,0.5-0.4,1.3-0.4,2.4v1.5c0,1,0.1,1.8,0.4,2.4c0.2,0.5,0.7,0.8,1.4,0.8c0.7,0,1.1-0.3,1.4-0.8
		c0.2-0.5,0.4-1.3,0.4-2.4v-1.5c0-1-0.1-1.8-0.4-2.4C82.4,138.3,81.9,138.1,81.3,138.1z M92.6,152.5h-2.3v-17.9h2.3V152.5z"/>
	<path class="st4" d="M107.9,144.7v3.5h7v2.1H98.5v-2.1h7v-3.5h-4.9V136h11.9v2.1H103v4.5h9.8v2.1H107.9z"/>
	<path class="st4" d="M122.6,146.2v-1.6h-7v-2H132v2h-7v1.6h4.7v6.2h-11.8v-6.2H122.6z M123.8,141.8c-0.9,0-1.6-0.1-2.4-0.2
		s-1.3-0.3-1.9-0.6c-0.5-0.3-0.9-0.6-1.2-1c-0.3-0.4-0.4-0.9-0.4-1.4V138c0-0.5,0.1-1,0.4-1.4c0.3-0.4,0.7-0.7,1.2-1
		c0.5-0.3,1.1-0.5,1.9-0.6s1.5-0.2,2.4-0.2c0.9,0,1.6,0.1,2.4,0.2c0.7,0.1,1.3,0.3,1.9,0.6c0.5,0.3,0.9,0.6,1.2,1
		c0.3,0.4,0.4,0.9,0.4,1.4v0.5c0,0.5-0.1,1-0.4,1.4c-0.3,0.4-0.7,0.7-1.2,1c-0.5,0.3-1.1,0.5-1.9,0.6
		C125.4,141.7,124.6,141.8,123.8,141.8z M120.3,150.5h7v-2.4h-7V150.5z M123.8,136.7c-0.5,0-0.9,0-1.4,0.1c-0.4,0.1-0.8,0.2-1.1,0.3
		c-0.3,0.1-0.5,0.3-0.7,0.4c-0.2,0.2-0.3,0.4-0.3,0.6v0.3c0,0.2,0.1,0.4,0.3,0.6c0.2,0.2,0.4,0.3,0.7,0.4c0.3,0.1,0.7,0.2,1.1,0.3
		c0.4,0.1,0.9,0.1,1.4,0.1c0.5,0,0.9,0,1.4-0.1c0.4-0.1,0.8-0.2,1.1-0.3c0.3-0.1,0.5-0.3,0.7-0.4c0.2-0.2,0.3-0.4,0.3-0.6v-0.3
		c0-0.2-0.1-0.4-0.3-0.6c-0.2-0.2-0.4-0.3-0.7-0.4c-0.3-0.1-0.7-0.2-1.1-0.3C124.7,136.8,124.3,136.7,123.8,136.7z"/>
	<path class="st4" d="M149,142.2v1.9h-16.4v-1.9H149z M146.8,145.1v4.6h-9.5v1.1h10v1.8h-12.3V148h9.5v-1.1h-9.6v-1.8H146.8z
		 M140.9,141.3c-0.9,0-1.7-0.1-2.4-0.2c-0.7-0.1-1.3-0.4-1.8-0.6c-0.5-0.3-0.9-0.6-1.2-1c-0.3-0.4-0.4-0.8-0.4-1.3v-0.5
		c0-0.5,0.1-0.9,0.4-1.3c0.3-0.4,0.7-0.7,1.2-1c0.5-0.3,1.1-0.5,1.8-0.6c0.7-0.1,1.5-0.2,2.4-0.2c0.9,0,1.7,0.1,2.4,0.2
		c0.7,0.1,1.3,0.4,1.8,0.6c0.5,0.3,0.9,0.6,1.2,1c0.3,0.4,0.4,0.8,0.4,1.3v0.5c0,0.5-0.1,0.9-0.4,1.3c-0.3,0.4-0.7,0.7-1.2,1
		c-0.5,0.3-1.1,0.5-1.8,0.6C142.5,141.3,141.7,141.3,140.9,141.3z M140.9,136.6c-0.6,0-1.2,0-1.6,0.1c-0.4,0.1-0.8,0.2-1.1,0.3
		s-0.5,0.3-0.6,0.4c-0.1,0.2-0.2,0.3-0.2,0.4v0.3c0,0.1,0.1,0.3,0.2,0.4c0.1,0.2,0.3,0.3,0.6,0.4c0.3,0.1,0.6,0.2,1.1,0.3
		c0.4,0.1,1,0.1,1.6,0.1c0.6,0,1.2,0,1.6-0.1c0.4-0.1,0.8-0.2,1.1-0.3c0.3-0.1,0.5-0.3,0.6-0.4c0.1-0.2,0.2-0.3,0.2-0.4v-0.3
		c0-0.1-0.1-0.3-0.2-0.4c-0.1-0.2-0.3-0.3-0.6-0.4c-0.3-0.1-0.6-0.2-1.1-0.3C142,136.6,141.5,136.6,140.9,136.6z"/>
	<path class="st4" d="M163.6,144.6v1.7h4.7v6.3h-11.8v-6.3h4.7v-1.7h-7v-2h16.4v2H163.6z M156.3,135.2h12.1v2h-4.9v0
		c0,0.4,0.1,0.7,0.3,0.9c0.2,0.2,0.5,0.5,1,0.6c0.7,0.3,1.4,0.6,2.1,0.8c0.7,0.2,1.4,0.5,2.2,0.7l-0.7,1.9c-0.8-0.3-1.5-0.5-2.2-0.8
		c-0.7-0.2-1.3-0.5-2-0.7c-1.1-0.4-1.7-0.8-1.9-1.1h0c-0.2,0.3-0.8,0.7-1.9,1.1c-0.6,0.2-1.3,0.5-2,0.7c-0.7,0.2-1.4,0.5-2.2,0.8
		l-0.8-1.9c0.8-0.2,1.5-0.5,2.2-0.7c0.7-0.2,1.4-0.5,2.1-0.8c0.5-0.2,0.8-0.4,1-0.6c0.2-0.2,0.3-0.5,0.3-0.9v0h-4.9V135.2z
		 M158.9,150.5h7v-2.4h-7V150.5z"/>
	<path class="st4" d="M171.7,135.1h2.6l-1.5,4.4h-1.8L171.7,135.1z"/>
</g>
<g>
	<path class="st4" d="M71.4,95.9h-4.2V81.1h4.2v1.4h-2.6v12.1h2.6V95.9z"/>
	<path class="st4" d="M72.9,91c0.8-0.5,1.6-0.9,2.1-1.3c0.6-0.4,1.1-0.7,1.5-1.1c0.4-0.3,0.7-0.6,0.9-0.9c0.2-0.3,0.4-0.6,0.5-0.8
		c0.1-0.3,0.2-0.6,0.2-0.9c0-0.3,0-0.6,0-1v-1.4h-5v-1.3h6.5V85c0,0.5,0,0.9,0,1.3c0,0.4-0.1,0.7-0.2,1.1s-0.3,0.7-0.6,1
		c-0.2,0.3-0.6,0.7-1,1.1c-0.4,0.4-1,0.8-1.7,1.2c-0.7,0.5-1.5,1-2.4,1.5L72.9,91z M82.8,95.5V80.9h1.6v14.6H82.8z"/>
	<path class="st4" d="M99.7,87.7V89H86.3v-1.3H99.7z M89.9,81.4v3.5h7.9v1.3h-9.4v-4.8H89.9z M93,95.9c-0.7,0-1.3-0.1-1.9-0.2
		c-0.6-0.1-1-0.3-1.4-0.6s-0.7-0.5-0.9-0.8c-0.2-0.3-0.3-0.7-0.3-1v-0.5c0-0.4,0.1-0.7,0.3-1.1c0.2-0.3,0.5-0.6,0.9-0.8
		s0.9-0.4,1.4-0.5c0.6-0.1,1.2-0.2,1.9-0.2s1.3,0.1,1.9,0.2c0.6,0.1,1,0.3,1.4,0.6c0.4,0.2,0.7,0.5,0.9,0.8c0.2,0.3,0.3,0.7,0.3,1
		v0.5c0,0.4-0.1,0.7-0.3,1c-0.2,0.3-0.5,0.6-0.9,0.8c-0.4,0.2-0.9,0.4-1.4,0.6C94.3,95.8,93.7,95.9,93,95.9z M93,91.4
		c-0.4,0-0.8,0-1.2,0.1c-0.4,0.1-0.7,0.2-0.9,0.3c-0.3,0.1-0.5,0.3-0.6,0.5c-0.1,0.2-0.2,0.4-0.2,0.5v0.3c0,0.2,0.1,0.4,0.2,0.5
		c0.1,0.2,0.4,0.3,0.6,0.5c0.3,0.1,0.6,0.2,0.9,0.3c0.4,0.1,0.8,0.1,1.2,0.1s0.8,0,1.2-0.1c0.4-0.1,0.7-0.2,0.9-0.3
		c0.3-0.1,0.5-0.3,0.6-0.5c0.1-0.2,0.2-0.4,0.2-0.5v-0.3c0-0.2-0.1-0.4-0.2-0.5c-0.1-0.2-0.4-0.3-0.6-0.5c-0.3-0.1-0.6-0.2-0.9-0.3
		C93.9,91.4,93.4,91.4,93,91.4z"/>
	<path class="st4" d="M104.8,86c0,0.1-0.2,0.3-0.4,0.6c-0.2,0.2-0.4,0.5-0.7,0.7c-0.3,0.3-0.7,0.6-1.1,1c-0.4,0.4-0.9,0.7-1.3,1.1
		l-0.9-1.1c0.5-0.4,1-0.8,1.4-1.2c0.5-0.4,0.8-0.7,1.1-1c0.2-0.2,0.4-0.4,0.5-0.6c0.1-0.2,0.2-0.4,0.3-0.6c0.1-0.2,0.1-0.4,0.2-0.6
		c0-0.2,0-0.5,0-0.7v-2h1.6v1.9c0,0.2,0,0.5,0,0.7c0,0.2,0.1,0.4,0.1,0.5c0.1,0.2,0.1,0.3,0.2,0.5c0.1,0.2,0.3,0.3,0.4,0.5
		c0.4,0.3,0.8,0.7,1.2,1c0.4,0.4,0.9,0.7,1.4,1l-0.9,1.1c-0.4-0.3-0.8-0.6-1.2-0.9c-0.4-0.3-0.8-0.6-1.1-0.9
		c-0.2-0.2-0.4-0.4-0.6-0.6C105,86.2,104.9,86.1,104.8,86L104.8,86z M103.6,92.5c0-0.4,0.1-0.7,0.3-1.1s0.5-0.6,0.9-0.9
		c0.4-0.3,0.9-0.5,1.4-0.6c0.6-0.1,1.2-0.2,1.9-0.2c0.7,0,1.3,0.1,1.9,0.2c0.6,0.1,1,0.3,1.4,0.6c0.4,0.3,0.7,0.5,0.9,0.9
		s0.3,0.7,0.3,1.1v0.6c0,0.4-0.1,0.7-0.3,1.1s-0.5,0.6-0.9,0.9c-0.4,0.3-0.9,0.4-1.4,0.6c-0.6,0.1-1.2,0.2-1.9,0.2
		c-0.7,0-1.3-0.1-1.9-0.2c-0.6-0.1-1-0.3-1.4-0.6c-0.4-0.3-0.7-0.5-0.9-0.9s-0.3-0.7-0.3-1.1V92.5z M111,92.6c0-0.2-0.1-0.4-0.2-0.6
		c-0.1-0.2-0.3-0.4-0.6-0.5c-0.3-0.2-0.6-0.3-0.9-0.4c-0.4-0.1-0.8-0.1-1.2-0.1c-0.5,0-0.9,0-1.2,0.1c-0.4,0.1-0.7,0.2-0.9,0.4
		c-0.3,0.2-0.4,0.3-0.6,0.5c-0.1,0.2-0.2,0.4-0.2,0.6V93c0,0.2,0.1,0.4,0.2,0.6c0.1,0.2,0.3,0.4,0.6,0.5c0.3,0.2,0.6,0.3,0.9,0.4
		c0.4,0.1,0.8,0.1,1.2,0.1c0.5,0,0.9,0,1.2-0.1c0.4-0.1,0.7-0.2,0.9-0.4c0.3-0.2,0.4-0.3,0.6-0.5c0.1-0.2,0.2-0.4,0.2-0.6V92.6z
		 M110.9,89.5v-4.1H108V84h2.9v-3.1h1.5v8.6H110.9z"/>
	<path class="st4" d="M126.4,87.8v1.3h-2.4v3.1h3.7v1.3h-13.4v-1.3h3.7v-3.1h-2.4v-1.3h2v-4.4h-1.9v-1.3h10.3v1.3h-1.9v4.4H126.4z
		 M119.4,87.8h3.4v-4.4h-3.4V87.8z M119.7,92.2h2.8v-3.1h-2.8V92.2z"/>
	<path class="st4" d="M133.1,88.2c-0.1,0.2-0.2,0.4-0.3,0.5c-0.1,0.2-0.3,0.4-0.6,0.7c-0.3,0.4-0.7,0.7-1.1,1.2
		c-0.4,0.4-0.9,0.9-1.4,1.4l-1-1.1c1-0.9,1.8-1.7,2.5-2.4c0.2-0.3,0.4-0.5,0.6-0.8c0.2-0.2,0.3-0.5,0.4-0.7c0.1-0.2,0.2-0.5,0.2-0.7
		c0-0.2,0.1-0.5,0.1-0.8v-3.6h1.6v3.6c0,0.3,0,0.6,0.1,0.8c0,0.2,0.1,0.5,0.2,0.7c0.1,0.2,0.2,0.5,0.4,0.7c0.2,0.2,0.4,0.5,0.6,0.7
		c0.3,0.4,0.7,0.7,1.1,1.1c0.4,0.4,0.8,0.7,1.3,1.2l-1,1.1c-0.5-0.5-1-0.9-1.4-1.3c-0.4-0.4-0.7-0.7-1-1.1c-0.2-0.2-0.4-0.5-0.6-0.7
		C133.3,88.5,133.1,88.3,133.1,88.2L133.1,88.2z M139,95.5V80.9h1.6v14.6H139z"/>
	<path class="st4" d="M142.7,94.6h2.6V82.5h-2.6v-1.4h4.2v14.8h-4.2V94.6z"/>
</g>
<g>
	<circle class="st4" cx="246" cy="141" r="27.5"/>
	<g>
		<g>
			<g>
				<g>
					<path class="st97" d="M244.6,133.2v-2.5H243c-0.1,0.3-0.2,0.5-0.4,0.7c-0.2,0.2-0.4,0.4-0.6,0.5c-0.2,0.1-0.5,0.3-0.8,0.4
						c-0.3,0.1-0.5,0.2-0.8,0.3l-0.4-0.5c0.3-0.1,0.6-0.2,0.9-0.3c0.3-0.1,0.5-0.2,0.7-0.4c0.2-0.1,0.4-0.3,0.5-0.5
						c0.1-0.2,0.2-0.4,0.2-0.7v-0.4c0-0.2,0-0.3-0.1-0.4c0-0.1-0.2-0.1-0.3-0.1h-1.7v-0.6h1.8c0.2,0,0.3,0,0.5,0
						c0.1,0,0.2,0.1,0.3,0.2c0.1,0.1,0.1,0.2,0.2,0.3c0,0.1,0.1,0.3,0.1,0.5v0.5h1.5v-1.7h0.7v4.4c0,0.1,0,0.3-0.1,0.3
						c0,0.1-0.1,0.1-0.3,0.1H244.6z M241.8,135c-0.2,0-0.3-0.1-0.4-0.2c-0.1-0.1-0.1-0.2-0.1-0.4v-1.7h0.7v1.5c0,0.1,0,0.1,0.1,0.1
						h3.4v0.4c0,0.1,0,0.2-0.1,0.2c0,0-0.1,0.1-0.2,0.1H241.8z"/>
					<path class="st97" d="M245.2,135.1h-3.4c-0.2,0-0.3-0.1-0.5-0.2c-0.1-0.1-0.2-0.3-0.2-0.4v-1.8h0.9v1.5c0,0.1,0,0.1,0,0.1
						l3.5,0v0.4c0,0.1,0,0.2-0.1,0.3C245.4,135,245.3,135.1,245.2,135.1z M241.4,132.8v1.6c0,0.1,0,0.3,0.1,0.4
						c0.1,0.1,0.2,0.1,0.4,0.1h3.4c0.1,0,0.1,0,0.2-0.1c0,0,0.1-0.1,0.1-0.2v-0.3h-3.3c0,0-0.1,0-0.1-0.2v-1.4H241.4z M245,133.2
						h-0.5v-2.5H243c-0.1,0.2-0.2,0.5-0.4,0.6c-0.2,0.2-0.4,0.4-0.6,0.5c-0.2,0.1-0.5,0.3-0.8,0.4c-0.3,0.1-0.5,0.2-0.8,0.3l0,0
						l-0.5-0.6l0.1,0c0.3-0.1,0.6-0.2,0.9-0.3c0.3-0.1,0.5-0.2,0.7-0.4c0.2-0.1,0.4-0.3,0.5-0.5c0.1-0.2,0.2-0.4,0.2-0.7v-0.4
						c0-0.2,0-0.3-0.1-0.3c0,0-0.1-0.1-0.3-0.1h-1.7v-0.8h1.9c0.2,0,0.3,0,0.5,0c0.1,0,0.3,0.1,0.3,0.2c0.1,0.1,0.2,0.2,0.2,0.3
						c0,0.1,0.1,0.3,0.1,0.5v0.4h1.4v-1.7h0.9v4.5c0,0.2,0,0.3-0.1,0.4C245.3,133.2,245.2,133.2,245,133.2z M244.7,133.1h0.3
						c0.1,0,0.2,0,0.2-0.1c0,0,0-0.1,0-0.3v-4.4h-0.6v1.7H243v-0.5c0-0.2,0-0.3-0.1-0.5c0-0.1-0.1-0.2-0.2-0.3
						c-0.1-0.1-0.2-0.1-0.3-0.1c-0.1,0-0.3,0-0.4,0h-1.7v0.5h1.6c0.2,0,0.3,0,0.4,0.1c0.1,0.1,0.1,0.2,0.1,0.4v0.4
						c0,0.3-0.1,0.5-0.2,0.7c-0.1,0.2-0.3,0.4-0.5,0.5c-0.2,0.1-0.5,0.3-0.8,0.4c-0.3,0.1-0.5,0.2-0.8,0.3l0.3,0.4
						c0.2-0.1,0.5-0.1,0.8-0.2c0.3-0.1,0.5-0.2,0.7-0.4c0.2-0.1,0.4-0.3,0.6-0.5c0.2-0.2,0.3-0.4,0.4-0.6l0,0h1.7V133.1z"/>
				</g>
				<g>
					<path class="st97" d="M248.9,129.9c0,0.3-0.1,0.6-0.2,0.9c-0.1,0.3-0.3,0.5-0.6,0.7c-0.2,0.2-0.5,0.3-0.8,0.5
						c-0.3,0.1-0.7,0.2-1,0.3l-0.4-0.5c0.3-0.1,0.6-0.2,0.8-0.3c0.3-0.1,0.5-0.2,0.7-0.4c0.2-0.1,0.4-0.3,0.5-0.5
						c0.1-0.2,0.2-0.4,0.2-0.7v-0.3c0-0.2,0-0.3-0.1-0.4c0-0.1-0.2-0.1-0.3-0.1h-1.7v-0.6h1.8c0.2,0,0.3,0,0.5,0
						c0.1,0,0.2,0.1,0.3,0.2c0.1,0.1,0.1,0.2,0.2,0.3c0,0.1,0.1,0.3,0.1,0.5V129.9z M246.9,133.7c0-0.3,0.1-0.5,0.2-0.7
						c0.1-0.2,0.3-0.3,0.5-0.4c0.2-0.1,0.4-0.2,0.7-0.2c0.2,0,0.5-0.1,0.7-0.1c0.2,0,0.4,0,0.7,0.1c0.2,0,0.5,0.1,0.7,0.2
						c0.2,0.1,0.4,0.3,0.5,0.4c0.1,0.2,0.2,0.4,0.2,0.7c0,0.3-0.1,0.5-0.2,0.7c-0.1,0.2-0.3,0.3-0.5,0.4c-0.2,0.1-0.4,0.2-0.7,0.2
						c-0.2,0-0.5,0.1-0.7,0.1c-0.2,0-0.4,0-0.7-0.1c-0.2,0-0.5-0.1-0.7-0.2c-0.2-0.1-0.4-0.2-0.5-0.4
						C247,134.3,246.9,134,246.9,133.7z M247.6,133.7c0,0.2,0,0.3,0.1,0.4c0.1,0.1,0.2,0.2,0.4,0.2c0.1,0.1,0.3,0.1,0.4,0.1
						c0.2,0,0.3,0,0.4,0c0.1,0,0.3,0,0.4,0c0.2,0,0.3-0.1,0.4-0.1c0.1-0.1,0.2-0.1,0.3-0.2c0.1-0.1,0.1-0.2,0.1-0.4s0-0.3-0.1-0.4
						c-0.1-0.1-0.2-0.2-0.3-0.2c-0.1-0.1-0.3-0.1-0.4-0.1c-0.2,0-0.3,0-0.4,0c-0.1,0-0.3,0-0.4,0c-0.2,0-0.3,0.1-0.4,0.1
						c-0.1,0.1-0.3,0.1-0.4,0.2C247.7,133.4,247.6,133.6,247.6,133.7z M250.3,132.2v-3.8h0.7v1.4h0.9v0.6H251v1.4
						c0,0.1,0,0.2-0.1,0.3c0,0.1-0.1,0.1-0.3,0.1H250.3z"/>
					<path class="st97" d="M249,135.2c-0.2,0-0.5,0-0.7-0.1c-0.3,0-0.5-0.1-0.7-0.2c-0.2-0.1-0.4-0.3-0.5-0.4
						c-0.1-0.2-0.2-0.4-0.2-0.8c0-0.3,0.1-0.6,0.2-0.8c0.1-0.2,0.3-0.3,0.5-0.5c0.2-0.1,0.4-0.2,0.7-0.2c0.2,0,0.5-0.1,0.7-0.1
						c0.2,0,0.4,0,0.7,0.1c0.2,0,0.5,0.1,0.7,0.2c0.2,0.1,0.4,0.3,0.5,0.5c0.1,0.2,0.2,0.4,0.2,0.8c0,0.3-0.1,0.6-0.2,0.7
						c-0.1,0.2-0.3,0.3-0.5,0.4c-0.2,0.1-0.4,0.2-0.7,0.2C249.5,135.2,249.2,135.2,249,135.2z M249,132.4c-0.2,0-0.4,0-0.7,0.1
						c-0.2,0-0.5,0.1-0.7,0.2c-0.2,0.1-0.4,0.2-0.5,0.4c-0.1,0.2-0.2,0.4-0.2,0.7c0,0.3,0.1,0.5,0.2,0.7c0.1,0.2,0.3,0.3,0.5,0.4
						c0.2,0.1,0.4,0.2,0.7,0.2c0.2,0,0.5,0.1,0.7,0.1c0.2,0,0.4,0,0.7-0.1c0.2,0,0.4-0.1,0.6-0.2c0.2-0.1,0.4-0.2,0.5-0.4
						c0.1-0.2,0.2-0.4,0.2-0.7c0-0.3-0.1-0.5-0.2-0.7c-0.1-0.2-0.3-0.3-0.5-0.4c-0.2-0.1-0.4-0.2-0.6-0.2
						C249.4,132.4,249.2,132.4,249,132.4z M249,134.6c-0.1,0-0.3,0-0.4,0c-0.2,0-0.3-0.1-0.5-0.1c-0.1-0.1-0.3-0.1-0.4-0.2
						c-0.1-0.1-0.2-0.3-0.2-0.4c0-0.2,0.1-0.3,0.2-0.5c0.1-0.1,0.2-0.2,0.4-0.3c0.1-0.1,0.3-0.1,0.5-0.1c0.2,0,0.3,0,0.4,0
						c0.1,0,0.3,0,0.4,0c0.2,0,0.3,0.1,0.4,0.1c0.1,0.1,0.3,0.2,0.4,0.3c0.1,0.1,0.2,0.3,0.2,0.5c0,0.2-0.1,0.3-0.2,0.5
						c-0.1,0.1-0.2,0.2-0.4,0.3c-0.1,0.1-0.3,0.1-0.5,0.1C249.3,134.6,249.1,134.6,249,134.6z M249,133c-0.1,0-0.3,0-0.4,0
						c-0.2,0-0.3,0.1-0.4,0.1c-0.1,0.1-0.2,0.1-0.3,0.2c-0.1,0.1-0.1,0.2-0.1,0.4c0,0.2,0,0.3,0.1,0.4c0.1,0.1,0.2,0.2,0.3,0.2
						c0.1,0.1,0.3,0.1,0.4,0.1c0.2,0,0.3,0,0.4,0s0.3,0,0.4,0c0.1,0,0.3-0.1,0.4-0.1c0.1,0,0.2-0.1,0.3-0.2c0.1-0.1,0.1-0.2,0.1-0.4
						c0-0.2,0-0.3-0.1-0.4c-0.1-0.1-0.2-0.2-0.3-0.2c-0.1-0.1-0.3-0.1-0.4-0.1C249.3,133,249.1,133,249,133z M246.3,132.3l-0.5-0.6
						l0.1,0c0.3-0.1,0.6-0.2,0.8-0.3c0.3-0.1,0.5-0.2,0.7-0.4c0.2-0.1,0.4-0.3,0.5-0.5c0.1-0.2,0.2-0.4,0.2-0.7v-0.3
						c0-0.2,0-0.3-0.1-0.3c0,0-0.1-0.1-0.3-0.1H246v-0.8h1.9c0.2,0,0.3,0,0.5,0c0.1,0,0.3,0.1,0.3,0.2c0.1,0.1,0.2,0.2,0.2,0.3
						c0,0.1,0.1,0.3,0.1,0.5v0.4c0,0.4-0.1,0.7-0.2,0.9c-0.1,0.3-0.3,0.5-0.6,0.7c-0.2,0.2-0.5,0.3-0.9,0.5
						C247,132.1,246.7,132.2,246.3,132.3L246.3,132.3z M246,131.8l0.3,0.4c0.3-0.1,0.7-0.2,1-0.3c0.3-0.1,0.6-0.3,0.8-0.5
						c0.2-0.2,0.4-0.4,0.6-0.6c0.1-0.2,0.2-0.5,0.2-0.9v-0.4c0-0.2,0-0.3-0.1-0.5c0-0.1-0.1-0.2-0.2-0.3c-0.1-0.1-0.2-0.1-0.3-0.1
						c-0.1,0-0.3,0-0.4,0h-1.7v0.5h1.6c0.2,0,0.3,0,0.4,0.1c0.1,0.1,0.1,0.2,0.1,0.4v0.3c0,0.3-0.1,0.5-0.2,0.7
						c-0.1,0.2-0.3,0.4-0.5,0.5c-0.2,0.1-0.5,0.3-0.8,0.4C246.5,131.6,246.2,131.7,246,131.8z M250.7,132.2h-0.5v-4h0.9v1.4h0.9v0.8
						h-0.9v1.3c0,0.2,0,0.3-0.1,0.3C250.9,132.2,250.8,132.2,250.7,132.2z M250.3,132.1h0.3c0.1,0,0.2,0,0.2-0.1
						c0,0,0.1-0.1,0.1-0.3v-1.5h0.9v-0.5h-0.9v-1.4h-0.6V132.1z"/>
				</g>
				<g>
					<path class="st97" d="M234.2,141.4c0.1,0,0.3-0.1,0.4-0.1c0.2-0.1,0.3-0.1,0.5-0.2c0.1-0.1,0.3-0.1,0.4-0.2
						c0.1-0.1,0.3-0.2,0.4-0.3c0.1-0.1,0.2-0.2,0.3-0.3c0.1-0.1,0.2-0.2,0.2-0.3c0.1-0.1,0.1-0.2,0.2-0.3c0-0.1,0.1-0.2,0.1-0.4
						v-1.1c0-0.2,0-0.3-0.1-0.4c-0.1-0.1-0.2-0.1-0.4-0.1h-1.7v-0.6h1.8c0.2,0,0.4,0,0.5,0.1c0.1,0,0.3,0.1,0.3,0.2
						c0.1,0.1,0.2,0.2,0.2,0.3c0,0.1,0.1,0.3,0.1,0.5v1.2c0,0.3-0.1,0.6-0.2,0.9c-0.1,0.3-0.3,0.5-0.6,0.7c-0.2,0.2-0.5,0.4-0.8,0.6
						c-0.3,0.2-0.7,0.3-1.1,0.4L234.2,141.4z M238.8,143.4v-6.7h0.7v6.2c0,0.2,0,0.3-0.1,0.3c-0.1,0.1-0.1,0.1-0.3,0.1H238.8z"/>
					<path class="st97" d="M239.2,143.5h-0.5v-6.8h0.9v6.3c0,0.2,0,0.3-0.1,0.4C239.4,143.4,239.3,143.5,239.2,143.5z M238.9,143.3
						h0.3c0.1,0,0.2,0,0.2-0.1c0,0,0.1-0.1,0.1-0.3v-6.2h-0.6V143.3z M234.6,142l-0.5-0.6l0.1,0c0.1,0,0.3-0.1,0.4-0.1
						c0.2-0.1,0.3-0.1,0.4-0.2c0.1-0.1,0.3-0.1,0.4-0.2c0.1-0.1,0.2-0.2,0.3-0.2c0.1-0.1,0.2-0.2,0.3-0.3c0.1-0.1,0.2-0.2,0.2-0.3
						c0.1-0.1,0.1-0.2,0.2-0.3c0-0.1,0.1-0.2,0.1-0.4v-1.1c0-0.2,0-0.3-0.1-0.3c0,0-0.1-0.1-0.4-0.1h-1.8V137h1.9
						c0.2,0,0.4,0,0.5,0.1c0.1,0,0.3,0.1,0.4,0.2c0.1,0.1,0.2,0.2,0.2,0.4c0,0.1,0.1,0.3,0.1,0.5v1.2c0,0.3-0.1,0.6-0.2,0.9
						c-0.1,0.3-0.3,0.5-0.6,0.8c-0.2,0.2-0.5,0.4-0.8,0.6C235.4,141.8,235.1,141.9,234.6,142L234.6,142z M234.3,141.5l0.3,0.4
						c0.4-0.1,0.8-0.2,1.1-0.4c0.3-0.2,0.6-0.4,0.8-0.6c0.2-0.2,0.4-0.5,0.6-0.7c0.1-0.3,0.2-0.6,0.2-0.9v-1.2c0-0.2,0-0.3-0.1-0.5
						c0-0.1-0.1-0.2-0.2-0.3c-0.1-0.1-0.2-0.1-0.3-0.2c-0.1,0-0.3-0.1-0.5-0.1h-1.8v0.5h1.7c0.2,0,0.4,0,0.5,0.1
						c0.1,0.1,0.1,0.2,0.1,0.4v1.1c0,0.1,0,0.3-0.1,0.4c0,0.1-0.1,0.2-0.2,0.4c-0.1,0.1-0.1,0.2-0.2,0.3c-0.1,0.1-0.2,0.2-0.3,0.3
						c-0.1,0.1-0.2,0.2-0.4,0.3c-0.1,0.1-0.3,0.2-0.4,0.2c-0.1,0.1-0.3,0.1-0.5,0.2C234.6,141.4,234.4,141.4,234.3,141.5z"/>
				</g>
				<g>
					<path class="st97" d="M239.8,139.8h6.1v0.3c0,0.2-0.1,0.3-0.3,0.3h-5.8V139.8z M240.7,142.2c0-0.2,0.1-0.4,0.2-0.6
						c0.1-0.2,0.3-0.3,0.5-0.4c0.2-0.1,0.4-0.2,0.7-0.3c0.3-0.1,0.6-0.1,0.9-0.1c0.3,0,0.6,0,0.8,0.1c0.3,0.1,0.5,0.1,0.7,0.3
						c0.2,0.1,0.4,0.3,0.5,0.4c0.1,0.2,0.2,0.4,0.2,0.6c0,0.2-0.1,0.4-0.2,0.6c-0.1,0.2-0.3,0.3-0.5,0.4c-0.2,0.1-0.4,0.2-0.7,0.3
						c-0.3,0.1-0.6,0.1-0.9,0.1c-0.3,0-0.6,0-0.9-0.1c-0.3-0.1-0.5-0.1-0.7-0.2c-0.2-0.1-0.4-0.2-0.5-0.4
						C240.7,142.6,240.7,142.4,240.7,142.2z M241.4,139.2c-0.2,0-0.4,0-0.5-0.1c-0.1-0.1-0.2-0.3-0.2-0.5v-1.9h0.3
						c0.1,0,0.2,0,0.3,0.1c0.1,0.1,0.1,0.2,0.1,0.3v1.3c0,0.1,0,0.1,0,0.1c0,0,0,0,0.1,0h3.6v0.3c0,0.1,0,0.2-0.1,0.2
						c0,0.1-0.1,0.1-0.2,0.1H241.4z M241.4,142.2c0,0.1,0,0.2,0.1,0.3c0.1,0.1,0.2,0.2,0.3,0.2c0.1,0.1,0.3,0.1,0.5,0.1
						c0.2,0,0.4,0.1,0.6,0.1c0.2,0,0.4,0,0.6,0c0.2,0,0.3-0.1,0.5-0.1c0.1-0.1,0.2-0.1,0.3-0.2c0.1-0.1,0.1-0.2,0.1-0.3
						c0-0.1,0-0.2-0.1-0.3c-0.1-0.1-0.2-0.2-0.3-0.2c-0.1-0.1-0.3-0.1-0.5-0.1c-0.2,0-0.4-0.1-0.6-0.1c-0.5,0-0.8,0.1-1.1,0.2
						C241.5,141.8,241.4,142,241.4,142.2z"/>
					<path class="st97" d="M242.9,143.6c-0.3,0-0.6,0-0.9-0.1c-0.3-0.1-0.5-0.1-0.7-0.2c-0.2-0.1-0.4-0.3-0.5-0.4
						c-0.1-0.2-0.2-0.4-0.2-0.6c0-0.2,0.1-0.5,0.2-0.6c0.1-0.2,0.3-0.3,0.5-0.4c0.2-0.1,0.5-0.2,0.7-0.3c0.3-0.1,0.6-0.1,0.9-0.1
						c0.3,0,0.6,0,0.9,0.1c0.3,0.1,0.5,0.1,0.7,0.3c0.2,0.1,0.4,0.3,0.5,0.4c0.1,0.2,0.2,0.4,0.2,0.6c0,0.2-0.1,0.4-0.2,0.6
						c-0.1,0.2-0.3,0.3-0.5,0.4c-0.2,0.1-0.4,0.2-0.7,0.3C243.5,143.6,243.2,143.6,242.9,143.6z M242.9,140.9c-0.3,0-0.6,0-0.9,0.1
						c-0.3,0.1-0.5,0.1-0.7,0.2c-0.2,0.1-0.3,0.2-0.5,0.4c-0.1,0.2-0.2,0.3-0.2,0.6c0,0.2,0.1,0.4,0.2,0.6c0.1,0.2,0.3,0.3,0.5,0.4
						c0.2,0.1,0.4,0.2,0.7,0.2c0.3,0.1,0.6,0.1,0.8,0.1c0.3,0,0.6,0,0.9-0.1c0.3-0.1,0.5-0.1,0.7-0.3c0.2-0.1,0.3-0.2,0.4-0.4
						c0.1-0.2,0.2-0.3,0.2-0.5c0-0.2-0.1-0.4-0.2-0.6c-0.1-0.2-0.3-0.3-0.5-0.4c-0.2-0.1-0.4-0.2-0.7-0.3
						C243.5,140.9,243.2,140.9,242.9,140.9z M242.9,143c-0.2,0-0.4,0-0.6-0.1c-0.2,0-0.4-0.1-0.5-0.1c-0.1-0.1-0.2-0.1-0.3-0.2
						c-0.1-0.1-0.1-0.2-0.1-0.3c0-0.3,0.1-0.4,0.4-0.6c0.3-0.1,0.7-0.2,1.1-0.2c0.2,0,0.4,0,0.6,0.1c0.2,0,0.3,0.1,0.5,0.2
						c0.1,0.1,0.2,0.1,0.3,0.2c0.1,0.1,0.1,0.2,0.1,0.3c0,0.1,0,0.2-0.1,0.3c-0.1,0.1-0.2,0.2-0.3,0.2c-0.1,0.1-0.3,0.1-0.5,0.1
						C243.3,142.9,243.1,143,242.9,143z M242.9,141.5c-0.5,0-0.8,0.1-1.1,0.2c-0.2,0.1-0.4,0.3-0.4,0.5c0,0.1,0,0.2,0.1,0.2
						c0.1,0.1,0.2,0.1,0.3,0.2c0.1,0.1,0.3,0.1,0.5,0.1c0.2,0,0.4,0.1,0.6,0.1c0.2,0,0.4,0,0.6,0c0.2,0,0.3-0.1,0.4-0.1
						c0.1-0.1,0.2-0.1,0.3-0.2c0.1-0.1,0.1-0.2,0.1-0.2c0-0.1,0-0.2-0.1-0.3c-0.1-0.1-0.2-0.2-0.3-0.2c-0.1-0.1-0.3-0.1-0.4-0.1
						C243.3,141.5,243.1,141.5,242.9,141.5z M245.6,140.5h-5.8v-0.8h6.2v0.4C246,140.3,245.9,140.5,245.6,140.5z M239.9,140.3h5.7
						c0.2,0,0.2-0.1,0.2-0.3v-0.2h-6V140.3z M244.9,139.3h-3.5c-0.3,0-0.4,0-0.6-0.1c-0.1-0.1-0.2-0.3-0.2-0.6v-1.9h0.4
						c0.1,0,0.3,0.1,0.3,0.2c0.1,0.1,0.1,0.2,0.1,0.4v1.3c0,0.1,0,0.1,0,0.1c0,0,0,0,0,0h3.7v0.4c0,0.1,0,0.2-0.1,0.3
						C245.1,139.2,245,139.3,244.9,139.3z M240.8,136.7v1.8c0,0.2,0,0.4,0.1,0.5c0.1,0.1,0.2,0.1,0.5,0.1h3.5c0.1,0,0.2,0,0.2-0.1
						c0,0,0.1-0.1,0.1-0.2v-0.3h-3.6c-0.1,0-0.1,0-0.1-0.1c0,0,0-0.1,0-0.2v-1.3c0-0.1,0-0.2-0.1-0.3c-0.1-0.1-0.1-0.1-0.2-0.1
						H240.8z"/>
				</g>
				<g>
					<path class="st97" d="M248,138.1c0,0.2,0,0.4,0.1,0.5c0.1,0.2,0.2,0.3,0.4,0.5c0.2,0.1,0.3,0.3,0.5,0.4
						c0.2,0.1,0.4,0.2,0.6,0.4l-0.4,0.5c-0.1-0.1-0.3-0.1-0.4-0.2c-0.2-0.1-0.3-0.2-0.4-0.3c-0.1-0.1-0.3-0.2-0.4-0.3
						c-0.1-0.1-0.2-0.2-0.3-0.3c-0.2,0.2-0.4,0.5-0.6,0.7c-0.3,0.2-0.6,0.5-0.9,0.7l-0.5-0.5c0.2-0.1,0.4-0.2,0.6-0.4
						s0.4-0.3,0.5-0.5c0.2-0.2,0.3-0.3,0.4-0.5c0.1-0.2,0.1-0.4,0.1-0.6v-1.3h0.5c0.1,0,0.2,0,0.2,0.1c0,0.1,0,0.1,0,0.2V138.1z
						 M250.6,143.4v-1.7c0-0.1,0-0.1-0.1-0.1h-3.3V141h3.6c0.2,0,0.3,0,0.4,0.1c0.1,0.1,0.2,0.2,0.2,0.4v1.5c0,0.2,0,0.3-0.1,0.3
						c-0.1,0.1-0.1,0.1-0.3,0.1H250.6z M250.6,140.6v-3.9h0.7v3.4c0,0.1,0,0.3-0.1,0.3c0,0.1-0.1,0.1-0.3,0.1H250.6z"/>
					<path class="st97" d="M251,143.5h-0.5v-1.8c0,0,0,0,0,0c0,0,0,0,0,0h-3.4v-0.8h3.7c0.2,0,0.3,0,0.4,0.1
						c0.1,0.1,0.2,0.2,0.2,0.4v1.5c0,0.2,0,0.3-0.1,0.4C251.2,143.4,251.1,143.5,251,143.5z M250.6,143.3h0.3c0.1,0,0.2,0,0.2-0.1
						c0,0,0.1-0.1,0.1-0.3v-1.5c0-0.1,0-0.3-0.1-0.3c-0.1-0.1-0.2-0.1-0.4-0.1h-3.5v0.5h3.3c0.1,0,0.2,0.1,0.2,0.2V143.3z
						 M251,140.7h-0.5v-4h0.9v3.5c0,0.2,0,0.3-0.1,0.4C251.3,140.6,251.2,140.7,251,140.7z M250.7,140.5h0.3c0.1,0,0.2,0,0.2-0.1
						c0-0.1,0.1-0.2,0.1-0.3v-3.4h-0.6V140.5z M246.1,140.6l-0.6-0.6l0.1,0c0.2-0.1,0.4-0.2,0.6-0.4c0.2-0.1,0.4-0.3,0.5-0.4
						c0.2-0.2,0.3-0.3,0.4-0.5c0.1-0.2,0.1-0.4,0.1-0.6v-1.4h0.5c0.1,0,0.2,0,0.3,0.1c0,0.1,0.1,0.2,0.1,0.3v1c0,0.2,0,0.4,0.1,0.5
						c0.1,0.2,0.2,0.3,0.3,0.5c0.1,0.1,0.3,0.3,0.5,0.4c0.2,0.1,0.4,0.2,0.6,0.4l0.1,0l-0.5,0.6l0,0c-0.1-0.1-0.3-0.1-0.4-0.2
						c-0.2-0.1-0.3-0.2-0.4-0.3c-0.1-0.1-0.3-0.2-0.4-0.3c-0.1-0.1-0.2-0.2-0.3-0.3c-0.2,0.2-0.4,0.4-0.6,0.6
						C246.8,140.2,246.5,140.4,246.1,140.6L246.1,140.6z M245.7,140.1l0.4,0.4c0.3-0.2,0.6-0.4,0.9-0.6c0.3-0.2,0.5-0.5,0.6-0.7
						l0.1-0.1l0.1,0.1c0.1,0.1,0.2,0.2,0.3,0.3c0.1,0.1,0.3,0.2,0.4,0.3c0.1,0.1,0.3,0.2,0.4,0.3c0.1,0.1,0.3,0.2,0.4,0.2l0.3-0.4
						c-0.2-0.1-0.4-0.2-0.6-0.3c-0.2-0.1-0.4-0.3-0.5-0.4c-0.2-0.1-0.3-0.3-0.4-0.5c-0.1-0.2-0.1-0.4-0.1-0.6v-1c0-0.1,0-0.2,0-0.2
						c0,0-0.1-0.1-0.2-0.1h-0.4v1.2c0,0.2-0.1,0.4-0.2,0.6c-0.1,0.2-0.2,0.4-0.4,0.5c-0.2,0.2-0.3,0.3-0.6,0.5
						C246.1,139.9,245.9,140,245.7,140.1z"/>
				</g>
				<g>
					<path class="st97" d="M251.9,139.8h6.1v0.3c0,0.2-0.1,0.3-0.3,0.3h-2.4v0.7h1.8v1.4c0,0.3-0.1,0.5-0.2,0.7
						c-0.1,0.2-0.4,0.2-0.7,0.2h-2.9c-0.2,0-0.3-0.1-0.4-0.2c-0.1-0.1-0.2-0.3-0.2-0.5V141h1.8v-0.7h-2.7V139.8z M253.2,137.4h-0.8
						v-0.6h4.8v0.6h-0.8v0.9c0,0.1,0,0.1,0,0.2c0,0,0,0.1,0,0.2h1v0.3c0,0.2-0.1,0.3-0.3,0.3h-4.8v-0.6h0.9c0,0,0-0.1,0-0.1
						c0-0.1,0-0.1,0-0.2V137.4z M256.1,142.8c0.1,0,0.2,0,0.2,0c0.1,0,0.1-0.1,0.1-0.2v-0.9h-2.9v0.9c0,0.1,0.1,0.2,0.2,0.2H256.1z
						 M255.6,138.6c0.1,0,0.1,0,0.2-0.1c0-0.1,0-0.1,0-0.2v-0.9H254v0.9c0,0.1,0,0.2,0,0.2c0,0.1,0.1,0.1,0.2,0.1H255.6z"/>
					<path class="st97" d="M256.2,143.5h-2.9c-0.2,0-0.4-0.1-0.5-0.2c-0.1-0.1-0.2-0.3-0.2-0.6V141h1.8v-0.5h-2.7v-0.8h6.2v0.4
						c0,0.3-0.1,0.4-0.4,0.4h-2.3v0.5h1.8v1.5c0,0.3-0.1,0.6-0.2,0.7C256.8,143.4,256.5,143.5,256.2,143.5z M252.8,141.1v1.6
						c0,0.2,0.1,0.4,0.2,0.5c0.1,0.1,0.2,0.2,0.4,0.2h2.9c0.3,0,0.5-0.1,0.6-0.2c0.1-0.1,0.2-0.4,0.2-0.6v-1.4h-1.8v-0.8h2.4
						c0.2,0,0.2-0.1,0.2-0.3v-0.2h-6v0.5h2.7v0.8H252.8z M256.1,142.9h-2.5c-0.1,0-0.2-0.1-0.2-0.2v-1h3.1v0.9c0,0.1,0,0.2-0.1,0.3
						C256.3,142.8,256.2,142.9,256.1,142.9z M253.5,141.7v0.9c0,0.1,0,0.1,0.1,0.1h2.5c0.1,0,0.2,0,0.2,0c0,0,0-0.1,0-0.1v-0.8
						H253.5z M257.2,139.3h-4.9v-0.7h0.9c0,0,0,0,0-0.1c0-0.1,0-0.1,0-0.2v-0.9h-0.8v-0.7h5v0.7h-0.8v0.9c0,0.1,0,0.1,0,0.2
						c0,0,0,0,0,0.1h0.9v0.3C257.5,139.2,257.4,139.3,257.2,139.3z M252.4,139.2h4.7c0.2,0,0.3-0.1,0.3-0.3v-0.2h-1l0-0.1
						c0,0,0-0.1,0-0.1c0,0,0-0.1,0-0.1v-1h0.8v-0.5h-4.7v0.5h0.8v1c0,0.1,0,0.1,0,0.1c0,0,0,0.1,0,0.1l0,0.1h-0.9V139.2z
						 M255.6,138.7h-1.4c-0.1,0-0.2-0.1-0.2-0.1c0-0.1-0.1-0.1-0.1-0.2v-1h2v1c0,0.1,0,0.2-0.1,0.2
						C255.8,138.6,255.8,138.7,255.6,138.7z M254,137.5v0.9c0,0.1,0,0.1,0,0.2c0,0,0,0,0.1,0h1.4c0.1,0,0.1,0,0.1,0c0,0,0-0.1,0-0.2
						v-0.9H254z"/>
				</g>
			</g>
		</g>
		<path class="st98" d="M262.7,139.8c0,0.2,0.1,0.3,0.1,0.5c0,3.2-7.5,5.8-16.7,5.8c-9.2,0-16.7-2.6-16.7-5.8c0-0.2,0-0.3,0.1-0.5
			c-1.2,0.9-1.8,1.8-1.8,2.9c0,3.7,8.3,6.6,18.5,6.6s18.5-3,18.5-6.6C264.5,141.6,263.9,140.7,262.7,139.8z"/>
		<path class="st97" d="M246,117c-13.3,0-24,10.8-24,24c0,13.3,10.8,24,24,24c13.3,0,24-10.8,24-24C270.1,127.8,259.3,117,246,117z
			 M246,118.7c12.4,0,22.4,10,22.4,22.4c0,4.4-1.3,8.5-3.5,12h-37.8c-2.2-3.5-3.5-7.6-3.5-12C223.7,128.7,233.7,118.7,246,118.7z"/>
		<g>
			<path class="st4" d="M233.6,156.3c-0.1,0.2-0.6,0.7-1,0.8l-0.2-0.4c0.5-0.2,1-0.6,1-1.2v-0.4h0.5v0.4c0,0.5,0.5,0.9,1,1.2
				l-0.2,0.3C234.3,157,233.9,156.6,233.6,156.3z M235,157.7h-2.2v-0.3h2.7v1.3H235V157.7z M235,155.1h0.5v2H235V155.1z"/>
			<path class="st4" d="M237.7,157.4h1.1v1.2h-2.7v-1.2h1.1v-0.3H236v-0.3h3v0.3h-1.3V157.4z M236.1,156.2h0.4v-0.6h-0.4v-0.3h2.7
				v0.3h-0.4v0.6h0.4v0.3h-2.7V156.2z M236.6,157.7v0.5h1.7v-0.5H236.6z M237,155.5v0.6h1v-0.6H237z"/>
			<path class="st4" d="M241.9,158.1c-0.3,0.1-0.5,0.1-0.8,0.1h-1.8v-0.3h1.9c0.2,0,0.4,0,0.6-0.1c0,0,0-2.7,0-2.7h0.5v3.5h-0.5
				V158.1z M240.4,155.2c1.3,0,1.4,2.3,0,2.3C239.1,157.5,239.1,155.2,240.4,155.2z M240.4,157.2c0.7,0,0.7-1.6,0-1.6
				C239.8,155.5,239.8,157.2,240.4,157.2z"/>
			<path class="st4" d="M243.7,155.2c1.4,0,1.4,1.9,0,1.9C242.4,157.1,242.3,155.2,243.7,155.2z M245.2,157.6H243v-0.3h2.7v1.3h-0.5
				V157.6z M243.7,156.7c0.7,0,0.7-1.2,0-1.2C243,155.5,243,156.7,243.7,156.7z M245.7,157.1h-0.5v-2h0.5v0.4h0.4v0.4h-0.4v0.3h0.4
				v0.4h-0.4V157.1z"/>
			<path class="st4" d="M248,157.4h1.1v1.2h-2.7v-1.2h1.1v-0.3h-1.3v-0.3h3v0.3H248V157.4z M246.4,156.2h0.4v-0.6h-0.4v-0.3h2.7v0.3
				h-0.4v0.6h0.4v0.3h-2.7V156.2z M246.9,157.7v0.5h1.7v-0.5H246.9z M247.3,155.5v0.6h1v-0.6H247.3z"/>
			<path class="st4" d="M250.6,155.2c1.3,0,1.3,2.1,0,2.1C249.3,157.2,249.3,155.2,250.6,155.2z M250,157.5h0.5v0.8h2.1v0.3H250
				V157.5z M250.6,156.8c0.7,0,0.7-1.3,0-1.3C250,155.5,250,156.8,250.6,156.8z M252.6,157.6h-0.5v-2.5h0.5v0.9h0.4v0.4h-0.4V157.6z
				"/>
			<path class="st4" d="M254.3,156.5c-0.2,0.2-0.7,0.6-1,0.8l-0.2-0.4c0.5-0.3,1-0.6,1-1.2v-0.2h-0.8v-0.3h2v0.3h-0.8v0.2
				c0,0.5,0.5,1,1,1.2l-0.2,0.3C254.9,157.1,254.5,156.8,254.3,156.5z M253.5,157.5h0.5v0.8h2.2v0.3h-2.7V157.5z M255.6,156.3h-0.5
				v-0.3h0.5v-0.8h0.5v2.5h-0.5V156.3z"/>
			<path class="st4" d="M257.7,157.5c-0.2,0.3-0.6,0.7-0.9,0.8l-0.2-0.3c0.6-0.4,0.9-0.8,0.9-1.5v-0.8h-0.7v-0.3h0.7v-0.3h0.5v0.3
				h0.7v0.3h-0.7v0.8c0,0.6,0.3,1.1,0.9,1.5l-0.2,0.3C258.2,158.1,257.9,157.8,257.7,157.5z M259,156.6h-0.6v-0.3h0.6v-1.1h0.5v3.5
				H259V156.6z"/>
		</g>
	</g>
</g>
</svg>
