<?xml version="1.0" encoding="utf-8"?>
<!-- Generator: Adobe Illustrator 26.0.2, SVG Export Plug-In . SVG Version: 6.00 Build 0)  -->
<svg version="1.1" id="Layer_1" xmlns="http://www.w3.org/2000/svg" xmlns:xlink="http://www.w3.org/1999/xlink" x="0px" y="0px"
	 viewBox="0 0 141 34" style="enable-background:new 0 0 141 34;" xml:space="preserve">
<style type="text/css">
	.st0{fill:#F58920;}
	.st1{fill:#8AC441;}
	.st2{fill:#1F1F1F;}
	.st3{fill:#6B6B6B;}
	.st4{fill:#211D1E;}
	.st5{fill:#16A7E0;}
	.st6{fill:#FFFFFF;}
	.st7{fill:#003964;}
	.st8{fill:#ED1A3B;}
	.st9{fill:#575756;}
	.st10{fill:#003685;}
	.st11{fill:url(#SVGID_1_);}
	.st12{fill:url(#SVGID_00000183251311206507313740000002006309100605907597_);}
	.st13{fill:url(#SVGID_00000049210749120300188130000003851296386177918609_);}
	.st14{fill:url(#SVGID_00000078760000337133105330000002654720360692726448_);}
	.st15{fill:url(#SVGID_00000113314560305138617020000002315460097611149453_);}
	.st16{fill:#064485;}
	.st17{fill:#032D59;}
</style>
<g>
	<path class="st0" d="M13.6,11c-1.5-1.3-3.3-2-5.3-2c-2.1,0-4.1,0.8-5.6,2.3c-1.5,1.5-2.3,3.5-2.3,5.6v7.9c0,0.6,0.5,1.1,1.1,1.1
		c0.6,0,1.1-0.5,1.1-1.1v-6.5h8.5c0.6,0,1.1-0.5,1.1-1.1s-0.5-1.1-1.1-1.1H2.7c0.2-1.2,0.7-2.3,1.6-3.2c1.1-1.1,2.5-1.7,4-1.7
		c1.4,0,2.8,0.5,3.8,1.5c0.2,0.2,0.5,0.3,0.7,0.3c0.3,0,0.6-0.1,0.8-0.3c0.2-0.2,0.3-0.5,0.3-0.8C14,11.5,13.9,11.2,13.6,11z"/>
	<path class="st1" d="M19.1,14.7c-3.2,0-5.8,2.6-5.8,5.8c0,3.2,2.6,5.8,5.8,5.8c3.2,0,5.8-2.6,5.8-5.8
		C24.9,17.3,22.3,14.7,19.1,14.7z M23,20.5c0,2.1-1.7,3.9-3.9,3.9c-2.1,0-3.9-1.7-3.9-3.9c0-2.1,1.7-3.9,3.9-3.9
		C21.3,16.6,23,18.4,23,20.5z"/>
	<path class="st1" d="M31.9,14.7c-3.2,0-5.8,2.6-5.8,5.8c0,3.2,2.6,5.8,5.8,5.8c3.2,0,5.8-2.6,5.8-5.8
		C37.7,17.3,35.1,14.7,31.9,14.7z M35.8,20.5c0,2.2-1.8,3.9-3.9,3.9c-2.2,0-3.9-1.8-3.9-3.9c0-2.2,1.8-3.9,3.9-3.9
		C34.1,16.6,35.8,18.3,35.8,20.5z"/>
	<g>
		<path class="st2" d="M65.2,9.5c-0.1-0.1-0.3-0.1-0.5-0.1c-0.2,0-0.3,0-0.5,0.1c-0.1,0.1-0.3,0.2-0.3,0.5v8.1
			c0,0.3,0.1,0.4,0.3,0.5c0.1,0.1,0.3,0.1,0.5,0.1c0.2,0,0.3,0,0.5-0.1c0.1-0.1,0.2-0.2,0.2-0.5V10C65.4,9.7,65.3,9.6,65.2,9.5z"/>
		<path class="st2" d="M57.3,15.2c0.1-0.2,0.3-0.3,0.3-0.5c0.1,0.1,0.2,0.3,0.3,0.5c0.2,0.3,0.6,0.6,1,0.9c0.4,0.3,0.8,0.6,1.1,0.9
			c0.4,0.3,0.7,0.5,0.9,0.7c0.2,0.1,0.4,0.2,0.5,0.1c0.2,0,0.3-0.1,0.4-0.3c0.1-0.1,0.2-0.3,0.1-0.5c0-0.2-0.1-0.3-0.3-0.5
			c-0.3-0.2-0.7-0.5-1-0.8c-0.4-0.3-0.8-0.6-1.2-0.9c-0.4-0.4-0.7-0.7-0.9-1.1c-0.2-0.4-0.3-0.9-0.3-1.5v-1.7c0-0.3-0.1-0.4-0.3-0.5
			c-0.1-0.1-0.3-0.1-0.5-0.1c-0.2,0-0.3,0-0.5,0.1c-0.1,0.1-0.3,0.2-0.3,0.5v1.8c0,0.6-0.1,1.1-0.3,1.5c-0.2,0.4-0.5,0.8-0.9,1.1
			c-0.4,0.4-0.8,0.7-1.2,1c-0.4,0.3-0.8,0.6-1.3,0.9c-0.2,0.1-0.3,0.3-0.3,0.5c0,0.2,0,0.4,0.2,0.5c0.1,0.1,0.2,0.2,0.4,0.3
			c0,0,0.1,0,0.1,0c0.1,0,0.3,0,0.4-0.1c0.4-0.3,0.8-0.6,1.2-0.9c0.4-0.3,0.8-0.6,1.2-0.9C56.7,15.8,57.1,15.5,57.3,15.2z"/>
		<path class="st2" d="M65.1,19.7c-0.2-0.2-0.5-0.3-1-0.3h-8.4c-0.2,0-0.4,0.1-0.4,0.2c-0.1,0.1-0.1,0.3-0.1,0.5
			c0,0.2,0,0.3,0.1,0.4c0.1,0.1,0.2,0.2,0.4,0.2h8c0.2,0,0.2,0.1,0.2,0.2v3.9c0,0.2,0.1,0.4,0.2,0.5c0.1,0.1,0.3,0.1,0.5,0.1
			c0.2,0,0.3,0,0.5-0.1c0.1-0.1,0.3-0.2,0.3-0.5v-4.1C65.4,20.2,65.3,19.9,65.1,19.7L65.1,19.7z"/>
		<path class="st2" d="M81.5,17.1c-0.1-0.1-0.2-0.2-0.4-0.2H67.7c-0.2,0-0.4,0.1-0.4,0.2c-0.1,0.1-0.1,0.3-0.1,0.4
			c0,0.2,0,0.3,0.1,0.4c0.1,0.1,0.2,0.2,0.4,0.2h6v1.6h-3.2c-0.5,0-0.8,0.1-1,0.3c-0.2,0.2-0.3,0.5-0.3,1V24c0,0.5,0.1,0.8,0.3,1
			c0.2,0.2,0.5,0.3,1,0.3h7.9c0.5,0,0.8-0.1,1-0.3c0.2-0.2,0.3-0.5,0.3-1v-2.9c0-0.5-0.1-0.8-0.3-1c-0.2-0.2-0.5-0.3-1-0.3h-3.2
			v-1.6h6c0.2,0,0.4-0.1,0.4-0.2c0.1-0.1,0.1-0.3,0.1-0.4C81.7,17.4,81.6,17.2,81.5,17.1L81.5,17.1z M70.7,21.2c0,0,0,0,0.2,0h7.1
			c0.1,0,0.2,0,0.2,0c0,0,0,0,0,0.2v2.4c0,0.1,0,0.2-0.2,0.2h-7.1c-0.2,0-0.2-0.1-0.2-0.2v-2.4C70.6,21.2,70.7,21.2,70.7,21.2z"/>
		<path class="st2" d="M69.2,14.4c-0.2,0-0.3,0.1-0.4,0.2c-0.1,0.1-0.1,0.3-0.1,0.4c0,0.1,0,0.3,0.1,0.4c0.1,0.1,0.2,0.2,0.4,0.2
			h10.4c0.2,0,0.3-0.1,0.4-0.2c0.1-0.1,0.1-0.3,0.1-0.4c0-0.2,0-0.3-0.1-0.4c-0.1-0.1-0.2-0.2-0.4-0.2h-1.9v-3.1h1.8
			c0.2,0,0.3-0.1,0.4-0.2C80,11,80,10.8,80,10.7c0-0.2,0-0.3-0.1-0.4c-0.1-0.1-0.2-0.2-0.4-0.2H69.3c-0.2,0-0.3,0.1-0.4,0.2
			c-0.1,0.1-0.1,0.3-0.1,0.4c0,0.1,0,0.3,0.1,0.4c0.1,0.1,0.2,0.2,0.4,0.2h1.8v3.1H69.2z M72.6,14.4v-3.1h3.7v3.1H72.6z"/>
		<path class="st2" d="M86.1,18.2c0.7,0,1.3-0.1,1.8-0.3c0.5-0.2,0.9-0.5,1.2-0.9c0.3-0.4,0.6-0.8,0.7-1.3c0.2-0.5,0.2-1,0.2-1.6
			c0-0.6-0.1-1.1-0.2-1.6c-0.2-0.5-0.4-0.9-0.7-1.3c-0.3-0.4-0.7-0.7-1.2-0.9c-0.5-0.2-1.1-0.3-1.8-0.3c-0.7,0-1.3,0.1-1.8,0.3
			c-0.5,0.2-0.9,0.5-1.2,0.9c-0.3,0.4-0.6,0.8-0.7,1.3c-0.2,0.5-0.2,1-0.2,1.6c0,0.5,0.1,1.1,0.2,1.6c0.2,0.5,0.4,0.9,0.7,1.3
			c0.3,0.4,0.7,0.6,1.2,0.9C84.8,18.1,85.4,18.2,86.1,18.2z M83.7,15.2c-0.1-0.3-0.1-0.7-0.1-1c0-0.4,0-0.7,0.1-1
			c0.1-0.3,0.2-0.6,0.4-0.9c0.2-0.2,0.5-0.4,0.8-0.6c0.3-0.1,0.7-0.2,1.2-0.2s0.8,0.1,1.2,0.2c0.3,0.1,0.6,0.3,0.8,0.6
			c0.2,0.2,0.3,0.5,0.4,0.9c0.1,0.3,0.1,0.7,0.1,1c0,0.4,0,0.7-0.1,1c-0.1,0.3-0.2,0.6-0.4,0.8c-0.2,0.2-0.5,0.4-0.8,0.6
			c-0.3,0.1-0.7,0.2-1.2,0.2s-0.8-0.1-1.2-0.2c-0.3-0.1-0.6-0.3-0.8-0.6C84,15.8,83.8,15.5,83.7,15.2z"/>
		<path class="st2" d="M96.1,13.9H94V10c0-0.3-0.1-0.4-0.3-0.5c-0.1-0.1-0.3-0.1-0.5-0.1c-0.2,0-0.3,0-0.5,0.1
			c-0.2,0.1-0.2,0.3-0.2,0.5v10.5c0,0.2,0.1,0.4,0.2,0.5c0.1,0.1,0.3,0.1,0.5,0.1c0.2,0,0.3,0,0.5-0.1c0.1-0.1,0.3-0.2,0.3-0.5v-5.3
			h2.1c0.3,0,0.4-0.1,0.4-0.2c0.1-0.1,0.1-0.3,0.1-0.4c0-0.2,0-0.3-0.1-0.5C96.4,14,96.3,13.9,96.1,13.9z"/>
		<path class="st2" d="M93.9,23.7h-8c-0.2,0-0.2-0.1-0.2-0.2v-3.4c0-0.3-0.1-0.4-0.3-0.5c-0.1-0.1-0.3-0.1-0.5-0.1
			c-0.2,0-0.3,0-0.5,0.1c-0.1,0.1-0.3,0.2-0.3,0.5v3.6c0,0.5,0.1,0.8,0.3,1c0.2,0.2,0.5,0.3,1,0.3h8.4c0.3,0,0.4-0.1,0.4-0.2
			c0.1-0.1,0.1-0.3,0.1-0.4c0-0.2,0-0.3-0.1-0.4C94.3,23.8,94.1,23.7,93.9,23.7z"/>
		<path class="st2" d="M109.4,23.7h-8.2c-0.2,0-0.2-0.1-0.2-0.2v-3.4c0-0.3-0.1-0.4-0.3-0.5c-0.1-0.1-0.3-0.1-0.5-0.1
			c-0.2,0-0.3,0-0.5,0.1c-0.1,0.1-0.3,0.2-0.3,0.5v3.6c0,0.5,0.1,0.8,0.3,1c0.2,0.2,0.5,0.3,1,0.3h8.6c0.3,0,0.4-0.1,0.4-0.2
			c0.1-0.1,0.1-0.3,0.1-0.4c0-0.2,0-0.3-0.1-0.4C109.7,23.8,109.6,23.7,109.4,23.7z"/>
		<path class="st2" d="M104.8,13.9c-0.1,0.1-0.1,0.3-0.1,0.4c0,0.2,0,0.3,0.1,0.5c0.1,0.1,0.2,0.2,0.4,0.2h2.8v5.4
			c0,0.2,0.1,0.4,0.2,0.5c0.1,0.1,0.3,0.1,0.5,0.1c0.2,0,0.3,0,0.5-0.1c0.1-0.1,0.2-0.2,0.2-0.5V10c0-0.3-0.1-0.4-0.2-0.5
			c-0.1-0.1-0.3-0.1-0.5-0.1c-0.2,0-0.3,0-0.5,0.1c-0.2,0.1-0.2,0.3-0.2,0.5v3.7h-2.8C105,13.7,104.8,13.8,104.8,13.9z"/>
		<path class="st2" d="M101.2,15.9c0.1-0.2,0.2-0.3,0.3-0.5c0.1,0.1,0.2,0.3,0.3,0.5c0.2,0.3,0.6,0.6,1,1c0.4,0.3,0.8,0.6,1.1,0.9
			c0.3,0.3,0.6,0.5,0.9,0.7c0.2,0.1,0.4,0.2,0.5,0.1c0.2,0,0.3-0.1,0.4-0.3c0.1-0.2,0.2-0.3,0.1-0.5c0-0.2-0.1-0.3-0.3-0.5
			c-0.3-0.2-0.6-0.5-1-0.8c-0.4-0.3-0.8-0.6-1.1-0.9c-0.4-0.4-0.8-0.8-0.9-1.2c-0.2-0.4-0.3-0.9-0.3-1.5v-1.2h3
			c0.2,0,0.4-0.1,0.4-0.2c0.1-0.1,0.1-0.3,0.1-0.4c0-0.2,0-0.3-0.1-0.5c-0.1-0.1-0.2-0.2-0.4-0.2h-7.6c-0.2,0-0.4,0.1-0.4,0.2
			c-0.1,0.1-0.1,0.3-0.1,0.5c0,0.2,0,0.3,0.1,0.4c0.1,0.1,0.2,0.2,0.4,0.2h3.1V13c0,0.6-0.1,1.1-0.3,1.5c-0.2,0.4-0.5,0.8-0.9,1.2
			c-0.4,0.3-0.8,0.7-1.2,1c-0.4,0.3-0.8,0.6-1.2,0.9c-0.2,0.1-0.3,0.3-0.3,0.5c0,0.2,0.1,0.3,0.2,0.5c0.1,0.1,0.2,0.2,0.4,0.3
			c0,0,0.1,0,0.1,0c0.1,0,0.3,0,0.4-0.1c0.4-0.3,0.7-0.5,1.1-0.8c0.4-0.3,0.8-0.6,1.2-0.9C100.6,16.6,100.9,16.2,101.2,15.9z"/>
		<path class="st2" d="M125.4,14.7h-2.1V10c0-0.3-0.1-0.4-0.3-0.5c-0.1-0.1-0.3-0.1-0.5-0.1c-0.2,0-0.3,0-0.5,0.1
			c-0.2,0.1-0.2,0.3-0.2,0.5v13.6c0,0.2,0.1,0.4,0.2,0.5c0.1,0.1,0.3,0.1,0.5,0.1c0.2,0,0.3,0,0.5-0.1c0.1-0.1,0.3-0.2,0.3-0.5V16
			h2.1c0.3,0,0.4-0.1,0.4-0.2c0.1-0.1,0.1-0.3,0.1-0.5c0-0.2,0-0.3-0.1-0.4C125.7,14.8,125.6,14.7,125.4,14.7z"/>
		<path class="st2" d="M120.5,18.7c-0.1-0.1-0.3-0.2-0.4-0.1c-1,0.1-2.1,0.2-3.1,0.3c-1,0.1-2.2,0.1-3.4,0.1c-0.2,0-0.2-0.1-0.2-0.2
			V11c0-0.3-0.1-0.4-0.3-0.5c-0.1-0.1-0.3-0.1-0.5-0.1c-0.2,0-0.3,0-0.5,0.1c-0.1,0.1-0.3,0.2-0.3,0.5V19c0,0.5,0.1,0.8,0.3,1
			c0.2,0.2,0.5,0.3,1,0.3c0.8,0,1.5,0,2.2,0c0.7,0,1.3,0,1.9-0.1c0.6,0,1.1-0.1,1.6-0.1c0.5-0.1,1-0.1,1.4-0.2
			c0.2,0,0.3-0.1,0.4-0.3c0.1-0.1,0.1-0.3,0.1-0.5C120.7,18.9,120.6,18.8,120.5,18.7z"/>
		<path class="st2" d="M135.2,19.1c-0.1-0.1-0.3-0.2-0.4-0.1c-1,0.1-2.1,0.3-3.1,0.3c-1.1,0.1-2.2,0.1-3.5,0.1
			c-0.2,0-0.2-0.1-0.2-0.2v-2.8c0-0.1,0-0.2,0.2-0.2h4.1c0.5,0,0.8-0.1,1-0.3c0.2-0.2,0.3-0.5,0.3-1v-3.2c0-0.5-0.1-0.8-0.3-1l0,0
			c-0.2-0.2-0.5-0.3-1-0.3H127c-0.2,0-0.4,0.1-0.4,0.2c-0.1,0.1-0.1,0.3-0.1,0.4c0,0.2,0,0.3,0.1,0.5c0.1,0.1,0.2,0.2,0.4,0.2h4.8
			c0.2,0,0.2,0.1,0.2,0.2v2.7c0,0.2-0.1,0.2-0.2,0.2h-4.1c-0.5,0-0.8,0.1-1,0.3c-0.2,0.2-0.3,0.5-0.3,1v3.3c0,0.5,0.1,0.8,0.3,1
			c0.2,0.2,0.5,0.3,1,0.3c0.8,0,1.6,0,2.2,0c0.7,0,1.3,0,1.9-0.1c0.6,0,1.1-0.1,1.6-0.1c0.5-0.1,1-0.1,1.4-0.2
			c0.2,0,0.3-0.1,0.4-0.3c0.1-0.1,0.1-0.3,0.1-0.5C135.3,19.3,135.3,19.2,135.2,19.1z"/>
		<path class="st2" d="M140.4,14.9c-0.1-0.1-0.2-0.2-0.4-0.2h-2.1V10c0-0.3-0.1-0.4-0.3-0.5c-0.1-0.1-0.3-0.1-0.5-0.1
			c-0.2,0-0.3,0-0.5,0.1c-0.2,0.1-0.2,0.3-0.2,0.5v13.6c0,0.2,0.1,0.4,0.2,0.5c0.1,0.1,0.3,0.1,0.5,0.1c0.2,0,0.3,0,0.5-0.1
			c0.1-0.1,0.3-0.2,0.3-0.5V16h2.1c0.3,0,0.4-0.1,0.4-0.2c0.1-0.1,0.1-0.3,0.1-0.5C140.6,15.2,140.5,15,140.4,14.9z"/>
	</g>
	<g>
		<path class="st3" d="M16.8,10.5c0.1-0.1,0.1-0.1,0.1-0.2h0c0,0,0,0.1,0.1,0.2c0.1,0.1,0.2,0.2,0.3,0.3c0.1,0.1,0.2,0.2,0.3,0.2
			c0.1,0.1,0.2,0.1,0.3,0.2c0,0,0.1,0,0.1,0c0,0,0.1,0,0.1-0.1c0,0,0-0.1,0-0.1c0,0,0-0.1-0.1-0.1c-0.1-0.1-0.2-0.1-0.3-0.2
			c-0.1-0.1-0.2-0.2-0.3-0.3c-0.1-0.1-0.2-0.2-0.3-0.3c-0.1-0.1-0.1-0.3-0.1-0.4V9.3c0,0,0-0.1-0.1-0.1c0,0-0.1,0-0.1,0
			c0,0-0.1,0-0.1,0c0,0-0.1,0.1-0.1,0.1v0.5c0,0.2,0,0.3-0.1,0.4c-0.1,0.1-0.1,0.2-0.3,0.3c-0.1,0.1-0.2,0.2-0.3,0.3
			c-0.1,0.1-0.2,0.2-0.3,0.3c0,0-0.1,0.1-0.1,0.1c0,0,0,0.1,0,0.1c0,0,0.1,0.1,0.1,0.1c0,0,0.1,0,0.1,0c0.1-0.1,0.2-0.2,0.3-0.2
			c0.1-0.1,0.2-0.2,0.3-0.3C16.7,10.7,16.8,10.6,16.8,10.5z"/>
		<path class="st3" d="M18.9,9c0,0-0.1,0-0.1,0c0,0-0.1,0.1-0.1,0.1v2.2c0,0.1,0,0.1,0.1,0.1c0,0,0.1,0,0.1,0c0,0,0.1,0,0.1,0
			c0,0,0.1-0.1,0.1-0.1V9.1c0,0,0-0.1-0.1-0.1C19,9,18.9,9,18.9,9z"/>
		<path class="st3" d="M18.7,11.7h-2.3c0,0-0.1,0-0.1,0c0,0,0,0.1,0,0.1c0,0,0,0.1,0,0.1c0,0,0,0,0.1,0h2.2c0.1,0,0.1,0,0.1,0.1v1.1
			c0,0,0,0.1,0.1,0.1c0,0,0.1,0,0.1,0c0,0,0.1,0,0.1,0c0,0,0.1-0.1,0.1-0.1v-1.1c0-0.1,0-0.2-0.1-0.2C18.9,11.8,18.8,11.7,18.7,11.7
			z"/>
		<path class="st3" d="M23.2,11.1h-3.7c0,0-0.1,0-0.1,0c0,0,0,0.1,0,0.1c0,0,0,0.1,0,0.1c0,0,0,0,0.1,0h1.7v0.5h-0.9
			c-0.1,0-0.2,0-0.3,0.1c0,0-0.1,0.1-0.1,0.2v0.8c0,0.1,0,0.2,0.1,0.2c0,0,0.1,0.1,0.3,0.1h2.1c0.1,0,0.2,0,0.3-0.1
			c0,0,0.1-0.1,0.1-0.2v-0.8c0-0.1,0-0.2-0.1-0.2c0,0-0.1-0.1-0.3-0.1h-0.9v-0.5h1.7c0,0,0.1,0,0.1,0c0,0,0-0.1,0-0.1
			C23.3,11.2,23.3,11.1,23.2,11.1C23.3,11.1,23.2,11.1,23.2,11.1z M22.4,12.2C22.4,12.2,22.4,12.2,22.4,12.2l0,0.7
			c0,0.1,0,0.1-0.1,0.1h-1.9c-0.1,0-0.1,0-0.1-0.1v-0.7c0,0,0-0.1,0-0.1c0,0,0,0,0.1,0L22.4,12.2C22.4,12.1,22.4,12.1,22.4,12.2z"/>
		<path class="st3" d="M19.9,10.6h2.8c0,0,0.1,0,0.1,0c0,0,0-0.1,0-0.1c0,0,0-0.1,0-0.1c0,0,0,0-0.1,0h-0.6V9.5h0.5c0,0,0.1,0,0.1,0
			c0,0,0-0.1,0-0.1c0,0,0-0.1,0-0.1c0,0,0,0-0.1,0H20c0,0-0.1,0-0.1,0c0,0,0,0.1,0,0.1c0,0,0,0.1,0,0.1c0,0,0,0,0.1,0h0.5v0.9h-0.6
			c0,0-0.1,0-0.1,0c0,0,0,0.1,0,0.1C19.8,10.5,19.8,10.6,19.9,10.6C19.9,10.6,19.9,10.6,19.9,10.6z M20.8,9.5h1.1v0.9h-1.1V9.5z"/>
		<path class="st3" d="M27.2,10.4c0,0,0-0.1,0-0.1c0,0,0,0-0.1,0h-0.6V9.1c0,0,0-0.1-0.1-0.1c0,0-0.1,0-0.1,0c0,0-0.1,0-0.1,0
			c0,0-0.1,0.1-0.1,0.1V12c0,0.1,0,0.1,0.1,0.1c0,0,0.1,0,0.1,0c0,0,0.1,0,0.1,0c0,0,0.1-0.1,0.1-0.1v-1.5h0.6c0,0,0.1,0,0.1,0
			C27.2,10.5,27.2,10.4,27.2,10.4z"/>
		<path class="st3" d="M26.5,12.9h-2.2c-0.1,0-0.1,0-0.1-0.1v-0.9c0,0,0-0.1-0.1-0.1c0,0-0.1,0-0.1,0c0,0-0.1,0-0.1,0
			c0,0-0.1,0.1-0.1,0.1v1c0,0.1,0,0.2,0.1,0.2c0,0,0.1,0.1,0.3,0.1h2.3c0,0,0.1,0,0.1,0c0,0,0-0.1,0-0.1C26.6,13,26.6,13,26.5,12.9
			C26.6,12.9,26.6,12.9,26.5,12.9z"/>
		<path class="st3" d="M24.4,11.3c0.2,0,0.3,0,0.5-0.1c0.1-0.1,0.2-0.1,0.3-0.2c0.1-0.1,0.2-0.2,0.2-0.3c0-0.1,0.1-0.3,0.1-0.4
			c0-0.1,0-0.3-0.1-0.4c0-0.1-0.1-0.2-0.2-0.3c-0.1-0.1-0.2-0.2-0.3-0.2c-0.1-0.1-0.3-0.1-0.5-0.1c-0.2,0-0.3,0-0.5,0.1
			c-0.1,0.1-0.2,0.1-0.3,0.2c-0.1,0.1-0.2,0.2-0.2,0.3c0,0.1-0.1,0.3-0.1,0.4c0,0.1,0,0.3,0.1,0.4c0,0.1,0.1,0.2,0.2,0.3
			c0.1,0.1,0.2,0.2,0.3,0.2C24.1,11.3,24.2,11.3,24.4,11.3z M23.7,10.6c0-0.1,0-0.2,0-0.3c0-0.1,0-0.2,0-0.3c0-0.1,0.1-0.2,0.1-0.2
			c0.1-0.1,0.1-0.1,0.2-0.2c0.1,0,0.2-0.1,0.3-0.1c0.1,0,0.2,0,0.3,0.1c0.1,0,0.2,0.1,0.2,0.2c0.1,0.1,0.1,0.2,0.1,0.2
			c0,0.1,0,0.2,0,0.3c0,0.1,0,0.2,0,0.3c0,0.1-0.1,0.2-0.1,0.2c-0.1,0.1-0.1,0.1-0.2,0.2c-0.1,0-0.2,0.1-0.3,0.1
			c-0.1,0-0.2,0-0.3-0.1c-0.1,0-0.2-0.1-0.2-0.2C23.8,10.7,23.7,10.7,23.7,10.6z"/>
		<path class="st3" d="M29.4,10.2c0,0,0,0.1,0,0.1c0,0,0,0.1,0,0.1c0,0,0,0,0.1,0h0.8V12c0,0.1,0,0.1,0.1,0.1c0,0,0.1,0,0.1,0
			c0,0,0.1,0,0.1,0c0,0,0.1-0.1,0.1-0.1V9.1c0,0,0-0.1-0.1-0.1c0,0-0.1,0-0.1,0c0,0-0.1,0-0.1,0c0,0-0.1,0.1-0.1,0.1v1L29.4,10.2
			C29.4,10.2,29.4,10.2,29.4,10.2z"/>
		<path class="st3" d="M28.3,10.7c0.1-0.1,0.1-0.1,0.1-0.2h0c0,0.1,0,0.1,0.1,0.2c0.1,0.1,0.1,0.2,0.3,0.3c0.1,0.1,0.2,0.2,0.3,0.2
			c0.1,0.1,0.2,0.1,0.2,0.2c0,0,0.1,0,0.1,0c0,0,0.1,0,0.1-0.1c0,0,0-0.1,0-0.1c0,0,0-0.1-0.1-0.1c-0.1-0.1-0.2-0.1-0.3-0.2
			c-0.1-0.1-0.2-0.2-0.3-0.3c-0.1-0.1-0.2-0.2-0.3-0.3c-0.1-0.1-0.1-0.3-0.1-0.4V9.6h0.8c0,0,0.1,0,0.1,0c0,0,0-0.1,0-0.1
			c0,0,0-0.1,0-0.1c0,0,0,0-0.1,0h-2.1c0,0-0.1,0-0.1,0c0,0,0,0.1,0,0.1c0,0,0,0.1,0,0.1c0,0,0,0,0.1,0h0.9V10c0,0.2,0,0.3-0.1,0.4
			c-0.1,0.1-0.1,0.2-0.3,0.3c-0.1,0.1-0.2,0.2-0.3,0.3c-0.1,0.1-0.2,0.2-0.3,0.2c0,0-0.1,0.1-0.1,0.1c0,0,0,0.1,0,0.1
			c0,0,0.1,0.1,0.1,0.1c0,0,0.1,0,0.1,0c0.1-0.1,0.2-0.1,0.3-0.2c0.1-0.1,0.2-0.2,0.3-0.3C28.2,10.9,28.3,10.8,28.3,10.7z"/>
		<path class="st3" d="M30.6,12.9h-2.2c-0.1,0-0.1,0-0.1-0.1v-0.9c0,0,0-0.1-0.1-0.1c0,0-0.1,0-0.1,0c0,0-0.1,0-0.1,0
			c0,0-0.1,0.1-0.1,0.1v1c0,0.1,0,0.2,0.1,0.2c0,0,0.1,0.1,0.3,0.1h2.4c0,0,0.1,0,0.1,0c0,0,0-0.1,0-0.1C30.7,13,30.7,13,30.6,12.9
			C30.7,12.9,30.6,12.9,30.6,12.9z"/>
		<path class="st3" d="M32.2,10.6c0.1-0.1,0.1-0.1,0.1-0.2h0c0,0,0,0.1,0.1,0.2c0.1,0.1,0.1,0.2,0.3,0.3c0.1,0.1,0.2,0.2,0.3,0.2
			c0.1,0.1,0.2,0.1,0.2,0.2c0,0,0.1,0,0.1,0c0,0,0.1,0,0.1-0.1c0,0,0-0.1,0-0.1c0,0,0-0.1-0.1-0.1c-0.1-0.1-0.2-0.1-0.3-0.2
			c-0.1-0.1-0.2-0.2-0.3-0.3c-0.1-0.1-0.2-0.2-0.3-0.3c0-0.1-0.1-0.2-0.1-0.4V9.5h0.8c0,0,0.1,0,0.1,0c0,0,0-0.1,0-0.1
			c0,0,0-0.1,0-0.1c0,0,0,0-0.1,0h-2.1c0,0-0.1,0-0.1,0c0,0,0,0.1,0,0.1c0,0,0,0.1,0,0.1c0,0,0,0,0.1,0h0.9v0.3c0,0.2,0,0.3-0.1,0.4
			c0,0.1-0.1,0.2-0.3,0.3c-0.1,0.1-0.2,0.2-0.3,0.3c-0.1,0.1-0.2,0.2-0.3,0.2c0,0-0.1,0.1-0.1,0.1c0,0,0,0.1,0,0.1
			c0,0,0.1,0.1,0.1,0.1c0,0,0.1,0,0.1,0c0.1-0.1,0.2-0.1,0.3-0.2c0.1-0.1,0.2-0.2,0.3-0.3C32,10.8,32.1,10.7,32.2,10.6z"/>
		<path class="st3" d="M34.1,11.8c-0.2-0.1-0.6-0.2-1-0.2c-0.4,0-0.8,0.1-1,0.2c-0.2,0.1-0.3,0.4-0.3,0.6c0,0.3,0.1,0.5,0.3,0.6
			c0.2,0.1,0.6,0.2,1,0.2c0.4,0,0.8-0.1,1-0.2c0.2-0.1,0.3-0.4,0.3-0.6C34.5,12.2,34.3,12,34.1,11.8z M33.9,12.9
			C33.7,13,33.5,13,33.1,13c-0.3,0-0.6-0.1-0.8-0.2c-0.2-0.1-0.2-0.2-0.2-0.4c0-0.2,0.1-0.3,0.2-0.4c0.2-0.1,0.4-0.2,0.8-0.2
			c0.3,0,0.6,0.1,0.8,0.2c0.2,0.1,0.2,0.2,0.2,0.4C34.1,12.6,34,12.8,33.9,12.9z"/>
		<path class="st3" d="M33.2,10.1c0,0,0,0.1,0,0.1c0,0,0,0.1,0,0.1c0,0,0,0,0.1,0h0.8v1c0,0,0,0.1,0.1,0.1c0,0,0.1,0,0.1,0
			c0,0,0.1,0,0.1,0c0,0,0.1-0.1,0.1-0.1V9.1c0,0,0-0.1-0.1-0.1c0,0-0.1,0-0.1,0c0,0-0.1,0-0.1,0c0,0-0.1,0.1-0.1,0.1v1L33.2,10.1
			C33.2,10.1,33.2,10.1,33.2,10.1z"/>
		<path class="st3" d="M42.4,12.3h-1.7v-1H42c0,0,0.1,0,0.1,0c0,0,0-0.1,0-0.1c0,0,0-0.1,0-0.1c0,0,0,0-0.1,0h-0.6V9.6H42
			c0,0,0.1,0,0.1,0c0,0,0-0.1,0-0.1c0,0,0-0.1,0-0.1c0,0,0,0-0.1,0h-2.8c0,0-0.1,0-0.1,0c0,0,0,0.1,0,0.1c0,0,0,0.1,0,0.1
			c0,0,0,0,0.1,0h0.5V11h-0.6c0,0-0.1,0-0.1,0c0,0,0,0.1,0,0.1c0,0,0,0.1,0,0.1c0,0,0,0,0.1,0h1.3v1h-1.7c0,0-0.1,0-0.1,0
			c0,0,0,0-0.1,0h-1.7v-0.9h0.9c0.1,0,0.2,0,0.3-0.1c0,0,0.1-0.1,0.1-0.2V9.3c0,0,0-0.1-0.1-0.1c0,0-0.1,0-0.1,0c0,0-0.1,0-0.1,0
			c0,0-0.1,0.1-0.1,0.1V10h-2.1V9.3c0,0,0-0.1-0.1-0.1c0,0-0.1,0-0.1,0c0,0-0.1,0-0.1,0c0,0-0.1,0.1-0.1,0.1V11c0,0.1,0,0.2,0.1,0.2
			c0,0,0.1,0.1,0.3,0.1h0.9v0.9h-1.7c0,0-0.1,0-0.1,0c0,0,0,0.1,0,0.1c0,0,0,0.1,0,0.1c0,0,0,0,0.1,0h3.7c0,0,0.1,0,0.1,0
			c0,0,0,0,0.1,0h3.7c0,0,0.1,0,0.1,0c0,0,0-0.1,0-0.1C42.5,12.4,42.5,12.3,42.4,12.3C42.5,12.3,42.4,12.3,42.4,12.3z M40,9.6h1.1
			V11H40V9.6z M35.7,11v-0.7h2.1V11c0,0.1,0,0.1-0.1,0.1L35.7,11C35.7,11,35.7,11,35.7,11z"/>
		<path class="st3" d="M44.9,10.2h0.7v1c0,0,0,0.1,0.1,0.1c0,0,0.1,0,0.1,0c0,0,0.1,0,0.1,0c0,0,0.1-0.1,0.1-0.1v-2
			c0,0,0-0.1-0.1-0.1c0,0-0.1,0-0.1,0c0,0-0.1,0-0.1,0c0,0-0.1,0.1-0.1,0.1v0.7h-0.7c0,0-0.1,0-0.1,0c0,0,0,0.1,0,0.1
			C44.7,10.1,44.7,10.1,44.9,10.2C44.8,10.2,44.8,10.2,44.9,10.2z"/>
		<path class="st3" d="M44.1,11.1c0.2,0,0.3,0,0.4,0c0.1,0,0.3,0,0.4,0c0,0,0.1,0,0.1-0.1c0,0,0-0.1,0-0.1c0,0,0-0.1,0-0.1
			c0,0-0.1,0-0.1,0c-0.3,0-0.6,0.1-0.9,0.1c-0.3,0-0.6,0-1,0c-0.1,0-0.1,0-0.1-0.1v-0.4h1.3c0,0,0.1,0,0.1,0c0,0,0-0.1,0-0.1
			c0,0,0-0.1,0-0.1c0,0,0,0-0.1,0H43V9.5c0-0.1,0-0.1,0.1-0.1h1.4c0,0,0.1,0,0.1,0c0,0,0-0.1,0-0.1c0,0,0-0.1,0-0.1c0,0,0,0-0.1,0
			H43c-0.1,0-0.2,0-0.3,0.1c0,0-0.1,0.1-0.1,0.2v1.3c0,0.1,0,0.2,0.1,0.2c0,0,0.1,0.1,0.3,0.1c0.2,0,0.4,0,0.6,0
			C43.8,11.1,44,11.1,44.1,11.1z"/>
		<path class="st3" d="M46,13C46,13,46,13,46,13l-2.3,0c0,0-0.1,0-0.1-0.1v-0.3c0,0,0-0.1,0.1-0.1h1.9c0.1,0,0.2,0,0.3-0.1
			c0,0,0.1-0.1,0.1-0.2v-0.4c0-0.1,0-0.2-0.1-0.2c0,0-0.1-0.1-0.3-0.1h-2.2c0,0-0.1,0-0.1,0c0,0,0,0.1,0,0.1c0,0,0,0.1,0,0.1
			c0,0,0,0,0.1,0h2.2c0,0,0.1,0,0.1,0.1v0.3c0,0.1,0,0.1-0.1,0.1h-1.9c-0.1,0-0.2,0-0.3,0.1c0,0-0.1,0.1-0.1,0.2V13
			c0,0.1,0,0.2,0.1,0.2c0,0,0.1,0.1,0.3,0.1h2.3c0,0,0.1,0,0.1,0C46,13.2,46.1,13.2,46,13C46.1,13.1,46,13.1,46,13z"/>
	</g>
	<g>
		<circle class="st4" cx="19.2" cy="20.5" r="2.1"/>
	</g>
	<g>
		<circle class="st4" cx="32" cy="20.5" r="2.1"/>
	</g>
	<path class="st5" d="M49.2,8.8c-0.6,0-1.1,0.5-1.1,1.1V15c-0.8-0.3-1.6-0.5-2.5-0.5c-1.6,0-3.1,0.6-4.3,1.7
		c-1.2,1.1-1.8,2.6-1.8,4.1c0,1.6,0.6,3,1.8,4.1c1.1,1.1,2.7,1.7,4.3,1.7c1.4,0,2.7-0.4,3.8-1.3c0,0,0.1-0.1,0.1-0.1
		c0.4-0.4,0.7-0.9,0.7-1.5V9.9C50.3,9.3,49.8,8.8,49.2,8.8z M48.2,17.5v5.6c0,0.1-0.1,0.2-0.2,0.2c-0.7,0.5-1.5,0.7-2.3,0.7
		c-1.1,0-2.1-0.4-2.8-1.1c-0.7-0.7-1.2-1.7-1.2-2.7c0-1,0.4-2,1.2-2.7c0.8-0.7,1.8-1.1,2.8-1.1c0.8,0,1.7,0.2,2.3,0.7
		C48.1,17.3,48.1,17.4,48.2,17.5z"/>
	<g>
		<g>
			<path class="st6" d="M20.6,20.6c0,0.2-0.1,0.4-0.3,0.4c-0.2,0-0.3-0.2-0.3-0.4c0-0.2,0.1-0.4,0.3-0.4
				C20.4,20.2,20.6,20.4,20.6,20.6z"/>
		</g>
	</g>
	<g>
		<g>
			<path class="st6" d="M31.2,20.6c0,0.2-0.1,0.4-0.3,0.4c-0.2,0-0.3-0.2-0.3-0.4c0-0.2,0.1-0.4,0.3-0.4
				C31.1,20.2,31.2,20.4,31.2,20.6z"/>
		</g>
	</g>
</g>
</svg>
