<?xml version="1.0" encoding="utf-8"?>
<!-- Generator: Adobe Illustrator 26.0.2, SVG Export Plug-In . SVG Version: 6.00 Build 0)  -->
<svg version="1.1" id="Layer_1" xmlns="http://www.w3.org/2000/svg" xmlns:xlink="http://www.w3.org/1999/xlink" x="0px" y="0px"
	 viewBox="0 0 82 22" style="enable-background:new 0 0 82 22;" xml:space="preserve">
<style type="text/css">
	.st0{fill:url(#SVGID_1_);}
	.st1{fill:url(#SVGID_00000015350600382649620030000003980025454312706227_);}
</style>
<g>
	<linearGradient id="SVGID_1_" gradientUnits="userSpaceOnUse" x1="-0.1728" y1="-2.4707" x2="104.5221" y2="31.111">
		<stop  offset="0" style="stop-color:#072A83"/>
		<stop  offset="0.858" style="stop-color:#0349C3"/>
	</linearGradient>
	<path class="st0" d="M49,9.5V7c0-0.3-0.2-0.5-0.5-0.5h-11C37.2,6.5,37,6.7,37,7v3.2c0,0.3,0.2,0.5,0.5,0.5h11.2
		c0.5,0,0.9,0.1,1.3,0.2c1.3,0.5,2.2,1.6,2.4,3c0,0.1,0,0.2,0,0.2c0,0.1,0,0.2,0,0.2v3.8c0,1.3-0.7,2.5-1.8,3.2
		c-0.5,0.3-1.1,0.5-1.8,0.6c-0.1,0-0.2,0-0.2,0H37.2c-0.1,0-0.2,0-0.2,0c-2-0.1-3.5-1.8-3.5-3.7V17l3.5-1.5V18
		c0,0.3,0.2,0.5,0.5,0.5h11c0.3,0,0.5-0.2,0.5-0.5v-3.2c0-0.3-0.2-0.5-0.5-0.5H37.2c-0.5,0-0.9-0.1-1.3-0.2
		c-1.2-0.5-2.1-1.5-2.3-2.8c0-0.2-0.1-0.3-0.1-0.5c0-0.1,0-0.2,0-0.2V6.8c0-0.1,0-0.2,0-0.2c0,0,0-0.1,0-0.1c0-0.3,0.1-0.6,0.2-0.9
		C34.2,4,35.6,3,37.2,3h11.5c0.1,0,0.2,0,0.2,0c0.9,0.1,1.6,0.4,2.2,0.9c0.8,0.7,1.2,1.7,1.2,2.8V8L49,9.5z M78.5,3v13.7L67,3h-4v19
		h3.5V8.4L78,22h4V3H78.5z M59.5,3H56v19h3.5V3z M14.3,16c-0.4,0.2-0.9,0.3-1.4,0.3c-0.4,0-0.8-0.1-1.2-0.2C11.3,16,11,16.2,11,16.5
		l0,5.5h3.5l0-5.8C14.5,16,14.4,16,14.3,16z M26.5,3v7.8l-8.1,0c-0.8,0-1.5,0.7-1.5,1.5v0c0,0.6-0.1,1.2-0.4,1.8
		c-0.1,0.1,0,0.2,0.2,0.2l9.9,0V22H30V3H26.5z"/>
	
		<linearGradient id="SVGID_00000021114968704368190830000006459362581971310469_" gradientUnits="userSpaceOnUse" x1="1.9354" y1="-0.6172" x2="21.008" y2="16.0982">
		<stop  offset="0.2191" style="stop-color:#D5FF92"/>
		<stop  offset="0.6543" style="stop-color:#35D6C6"/>
	</linearGradient>
	<path style="fill:url(#SVGID_00000021114968704368190830000006459362581971310469_);" d="M15.8,12.2c0,0.8-0.3,1.5-0.8,2
		c-0.6,0.6-1.4,1-2.3,1c-1.7,0-3-1.4-3-3.1c0-0.4,0.1-0.7,0.2-1c0,0,0,0,0,0c0,0,0-0.1,0-0.1c0.2-0.5,0.3-1,0.3-1.5
		c0-0.2,0-0.3,0-0.5c-0.2-1.4-1-2.6-2.3-3.3c0,0-0.1,0-0.1-0.1C6.8,5.2,6.2,4.2,6.2,3c0-1.7,1.4-3,3-3s3,1.4,3,3
		c0,0.3,0,0.6-0.1,0.9c0,0.1-0.1,0.2-0.1,0.3c0,0,0,0.1,0,0.1c0,0,0,0,0,0c-0.1,0.4-0.2,0.9-0.2,1.3c0,0.9,0.3,1.8,0.8,2.5
		c0.4,0.5,0.8,1,1.4,1.3c0,0,0,0,0,0c0.1,0,0.1,0.1,0.2,0.1c0,0,0.1,0,0.1,0c0,0,0,0,0,0c0.5,0.3,0.8,0.7,1.1,1.1
		C15.7,11.1,15.8,11.6,15.8,12.2z M16,5c-1.1,0-2,0.9-2,2c0,0.7,0.3,1.3,0.9,1.7c0.1,0,0.1,0.1,0.2,0.1c0,0,0,0,0,0
		C15.3,9,15.6,9,16,9c1.1,0,2-0.9,2-2C18,5.9,17.1,5,16,5z M2.3,2.5c-1,0-1.8,0.8-1.8,1.8s0.8,1.8,1.8,1.8s1.8-0.8,1.8-1.8
		S3.3,2.5,2.3,2.5z M6.4,6.9c-0.7,0-1.3,0.6-1.3,1.3s0.6,1.3,1.3,1.3s1.3-0.6,1.3-1.3S7.1,6.9,6.4,6.9z"/>
</g>
</svg>
