<svg width="40" height="40" viewBox="0 0 40 40" fill="none" xmlns="http://www.w3.org/2000/svg">
<g clip-path="url(#clip0_1333_102462)">
<path d="M34.8664 0H5.13438C3.77265 0 2.46671 0.540943 1.50383 1.50383C0.540943 2.46671 0 3.77266 0 5.13438V34.8664C0.00020718 36.228 0.541242 37.5337 1.5041 38.4965C2.46696 39.4592 3.77279 40 5.13438 40H34.8664C35.5406 40 36.2081 39.8672 36.8309 39.6092C37.4538 39.3512 38.0197 38.9731 38.4964 38.4964C38.9731 38.0197 39.3512 37.4538 39.6092 36.8309C39.8672 36.2081 40 35.5406 40 34.8664V5.13438C40.0001 4.46016 39.8674 3.79252 39.6095 3.16959C39.3515 2.54667 38.9734 1.98065 38.4967 1.50387C38.02 1.02709 37.454 0.648885 36.8311 0.390849C36.2082 0.132813 35.5406 -7.80743e-09 34.8664 0Z" fill="#FBFBFB"/>
<path d="M5.13476 37.0621C4.55272 37.0615 3.9947 36.83 3.58313 36.4184C3.17156 36.0069 2.94007 35.4488 2.93945 34.8668V5.13477C2.93987 4.55266 3.17129 3.99452 3.5829 3.58291C3.99451 3.1713 4.55266 2.93987 5.13476 2.93945H34.8668C35.4488 2.94007 36.0069 3.17156 36.4184 3.58313C36.83 3.9947 37.0615 4.55273 37.0621 5.13477V34.8668C37.0613 35.4488 36.8297 36.0067 36.4182 36.4182C36.0067 36.8297 35.4488 37.0613 34.8668 37.0621H5.13476Z" fill="#EEF1F1"/>
<path d="M34.866 37.6723H5.13398C4.38982 37.671 3.67648 37.3749 3.1502 36.8488C2.62393 36.3227 2.32762 35.6094 2.32617 34.8652V5.13398C2.32741 4.38969 2.62363 3.67623 3.14993 3.14993C3.67623 2.62363 4.38968 2.32741 5.13398 2.32617H34.866C35.6102 2.32762 36.3234 2.62393 36.8496 3.1502C37.3757 3.67648 37.6718 4.38982 37.673 5.13398V34.866C37.6714 35.6099 37.3751 36.3228 36.849 36.8488C36.3229 37.3747 35.6099 37.6708 34.866 37.6723ZM5.13398 3.55039C4.71425 3.55101 4.3119 3.71808 4.01517 4.01495C3.71845 4.31182 3.55158 4.71425 3.55117 5.13398V34.866C3.55159 35.2857 3.71848 35.688 4.01522 35.9848C4.31197 36.2815 4.71432 36.4484 5.13398 36.4488H34.866C35.2857 36.4484 35.688 36.2815 35.9848 35.9848C36.2815 35.688 36.4484 35.2857 36.4488 34.866V5.13398C36.4484 4.71425 36.2816 4.31182 35.9848 4.01495C35.6881 3.71808 35.2858 3.55101 34.866 3.55039H5.13398Z" fill="#CAD1D5"/>
<path d="M27.7156 8.81016L24.825 14.0742C24.684 14.3299 24.4541 14.5249 24.1789 14.6222C23.9037 14.7196 23.6023 14.7125 23.332 14.6023C21.1943 13.743 18.8072 13.743 16.6695 14.6023C16.3993 14.7123 16.0981 14.7192 15.823 14.6219C15.548 14.5246 15.3182 14.3297 15.1773 14.0742L12.2867 8.81016C12.2078 8.66589 12.1597 8.50688 12.1452 8.3431C12.1308 8.17933 12.1504 8.01434 12.2028 7.8585C12.2552 7.70266 12.3392 7.55935 12.4496 7.43755C12.5601 7.31576 12.6945 7.21812 12.8445 7.15078C15.0922 6.12979 17.5324 5.60156 20.0011 5.60156C22.4699 5.60156 24.9101 6.12979 27.1578 7.15078C27.3077 7.21821 27.442 7.3159 27.5524 7.4377C27.6628 7.55951 27.7468 7.70281 27.7992 7.85862C27.8515 8.01442 27.8712 8.17937 27.8568 8.34312C27.8424 8.50686 27.7943 8.66586 27.7156 8.81016Z" fill="white"/>
<g clip-path="url(#clip1_1333_102462)">
<path d="M20.1008 14.0009C19.9151 14.0009 19.7369 13.9273 19.6056 13.7962C19.4742 13.6651 19.4004 13.4873 19.4004 13.3019V8.69896C19.4004 8.51359 19.4742 8.3358 19.6056 8.20472C19.7369 8.07364 19.9151 8 20.1008 8C20.1928 8 20.2838 8.01809 20.3688 8.05322C20.4537 8.08836 20.5308 8.13986 20.5958 8.20477C20.6608 8.26969 20.7123 8.34675 20.7474 8.43155C20.7825 8.51634 20.8005 8.60722 20.8004 8.69896V13.3019C20.8005 13.3937 20.7825 13.4845 20.7474 13.5693C20.7123 13.6541 20.6608 13.7312 20.5958 13.7961C20.5308 13.861 20.4537 13.9125 20.3688 13.9477C20.2838 13.9828 20.1928 14.0009 20.1008 14.0009Z" fill="#646C70"/>
</g>
<path d="M23.7804 15.3011C23.5486 15.3012 23.3189 15.2567 23.1039 15.1699C21.1119 14.3753 18.8911 14.3753 16.8992 15.1699C16.4899 15.3356 16.0341 15.3455 15.6181 15.1978C15.202 15.0501 14.8545 14.755 14.6414 14.3683L11.7507 9.10427C11.6314 8.88616 11.5584 8.64574 11.5364 8.39811C11.5144 8.15047 11.5437 7.90096 11.6227 7.66521C11.7016 7.42945 11.8284 7.21255 11.9951 7.0281C12.1618 6.84365 12.3648 6.69563 12.5913 6.59333C14.918 5.53305 17.4451 4.98438 20.0019 4.98438C22.5587 4.98438 25.0858 5.53305 27.4124 6.59333C27.6389 6.69574 27.8419 6.84381 28.0085 7.02825C28.1752 7.2127 28.3019 7.42955 28.3809 7.66524C28.4599 7.90094 28.4894 8.1504 28.4675 8.39801C28.4457 8.64562 28.3729 8.88606 28.2539 9.10427L25.3632 14.3683C25.2073 14.6511 24.9783 14.8869 24.7002 15.0509C24.422 15.215 24.1049 15.3014 23.782 15.3011H23.7804ZM20.0007 13.348C21.2202 13.3464 22.4287 13.5785 23.5609 14.0316C23.6923 14.0855 23.8389 14.0893 23.9729 14.0424C24.107 13.9954 24.2191 13.901 24.2882 13.7769L27.1789 8.51208C27.2171 8.44307 27.2405 8.36687 27.2476 8.28831C27.2547 8.20976 27.2454 8.13058 27.2203 8.05583C27.1952 7.97894 27.1545 7.90808 27.1008 7.8477C27.047 7.78733 26.9813 7.73875 26.9078 7.70505C24.7404 6.71733 22.3864 6.20621 20.0046 6.20621C17.6229 6.20621 15.2688 6.71733 13.1015 7.70505C13.028 7.73867 12.9622 7.78722 12.9084 7.84761C12.8546 7.90799 12.8139 7.9789 12.789 8.05583C12.7635 8.13065 12.754 8.21001 12.7611 8.28875C12.7683 8.36748 12.7919 8.44384 12.8304 8.51286L15.721 13.7769C15.7901 13.901 15.9023 13.9954 16.0363 14.0424C16.1704 14.0893 16.317 14.0855 16.4484 14.0316C17.5803 13.5785 18.7885 13.3464 20.0078 13.348H20.0007Z" fill="#CAD1D5"/>
</g>
<defs>
<clipPath id="clip0_1333_102462">
<rect width="40" height="40" fill="white"/>
</clipPath>
<clipPath id="clip1_1333_102462">
<rect width="1.4" height="6" fill="white" transform="translate(19.4004 8)"/>
</clipPath>
</defs>
</svg>
