<svg width="21" height="20" viewBox="0 0 21 20" fill="none" xmlns="http://www.w3.org/2000/svg">
<path d="M5.25 10C5.25 7.1005 7.6005 4.75 10.5 4.75C11.7503 4.75 12.8981 5.1864 13.8002 5.91667H12.5417C12.0584 5.91667 11.6667 6.30842 11.6667 6.79167C11.6667 7.27492 12.0584 7.66667 12.5417 7.66667H15.4583C15.9416 7.66667 16.3333 7.27492 16.3333 6.79167V3.875C16.3333 3.39175 15.9416 3 15.4583 3C14.9751 3 14.5833 3.39175 14.5833 3.875V4.31388C13.4343 3.48748 12.0239 3 10.5 3C6.63401 3 3.5 6.13401 3.5 10C3.5 13.866 6.63401 17 10.5 17C14.366 17 17.5 13.866 17.5 10C17.5 9.51675 17.1082 9.125 16.625 9.125C16.1418 9.125 15.75 9.51675 15.75 10C15.75 12.8995 13.3995 15.25 10.5 15.25C7.6005 15.25 5.25 12.8995 5.25 10Z" fill="#2C2F31"/>
</svg>
