<svg width="64" height="65" viewBox="0 0 64 65" fill="none" xmlns="http://www.w3.org/2000/svg">
<g clip-path="url(#clip0_1193_9969)">
<path d="M63.5 32.5C63.5 49.897 49.397 64 32 64C14.603 64 0.5 49.897 0.5 32.5C0.5 15.103 14.603 1 32 1C49.397 1 63.5 15.103 63.5 32.5Z" fill="#F0F8FF" stroke="#E2F1FF"/>
<path d="M30.2245 17.0131C30.2245 16.1301 29.4518 15.3574 28.5688 15.3574C27.9065 15.3574 27.2442 15.7989 27.0234 16.3509C27.9065 16.9028 28.6792 17.6754 29.2311 18.5585C29.783 18.2273 30.2245 17.6754 30.2245 17.0131Z" fill="white"/>
<path d="M21.6161 19.7723L28.3494 23.5252C28.4598 23.0837 28.5701 22.6422 28.5701 22.0903C28.5701 21.428 28.4598 20.8761 28.239 20.3242C28.1286 19.993 27.9079 19.6619 27.7975 19.3307C27.3559 18.6684 26.804 18.1165 26.1418 17.675C25.8106 17.4543 25.4795 17.3439 25.1483 17.2335C24.5964 17.0127 24.0445 16.9023 23.3822 16.9023C20.5123 16.9023 18.3047 19.2204 18.3047 21.9799C18.3047 23.4148 18.8566 24.7394 19.85 25.6225C20.0708 25.8432 20.4019 26.064 20.7331 26.2847C21.3954 26.7263 22.2784 26.947 23.1615 27.0574C23.2718 27.0574 23.3822 27.0574 23.3822 27.0574C23.4926 27.0574 23.603 27.0574 23.603 27.0574C24.486 27.0574 25.2587 26.7263 26.0314 26.2847C26.3625 26.064 26.6937 25.8432 26.9144 25.6225C27.3559 25.1809 27.6871 24.7394 27.9079 24.2979L21.0642 20.5449C20.8435 20.4345 20.7331 20.1034 20.8435 19.8826C21.0642 19.7723 21.3954 19.6619 21.6161 19.7723Z" fill="white"/>
<path d="M19.1875 40.9671C19.2979 40.8567 19.2979 40.636 19.4083 40.5256C19.7394 39.9737 20.2913 39.4218 21.064 39.201L21.7263 38.9802L19.7394 36.7726C19.5186 36.5518 19.1875 36.3311 18.8564 36.2207C18.3045 37.3245 17.4214 38.0972 16.3176 38.4283C16.0968 38.5387 15.7657 38.5387 15.5449 38.6491V38.7595C15.6553 39.201 15.7657 39.6425 16.0968 39.9737L17.4214 41.4086L18.9667 43.0643C18.9667 42.954 18.9667 42.954 18.9667 42.8436C18.9667 42.7332 18.9667 42.6228 18.9667 42.6228C18.9667 42.5124 18.9667 42.2917 18.9667 42.1813C18.9667 41.8501 19.0771 41.519 19.1875 41.2982C19.1875 41.1879 19.1875 41.0775 19.1875 40.9671Z" fill="white"/>
<path d="M15.2136 31.8047H15.1032C14.8825 31.8047 14.5513 31.8047 14.3306 31.9151C13.9994 32.0255 13.6683 32.2462 13.3371 32.467C12.8956 32.9085 12.5645 33.5708 12.5645 34.3435C12.5645 35.1161 12.8956 35.8888 13.5579 36.3303C13.7786 36.5511 14.1098 36.6615 14.3306 36.7718C14.4409 36.7718 14.4409 36.8822 14.5513 36.8822C14.7721 36.8822 14.8825 36.9926 15.1032 36.9926C15.1032 36.9926 15.1032 36.9926 15.2136 36.9926C15.324 36.9926 15.4344 36.9926 15.5447 36.9926C16.5382 36.8822 17.3108 36.2199 17.5316 35.3369C17.642 35.1161 17.642 34.785 17.642 34.4538C17.642 33.0189 16.6486 31.9151 15.2136 31.8047Z" fill="white"/>
<path d="M24.7055 43.2835L25.2574 43.0627L28.1273 41.8485V40.3032C28.1273 39.6409 28.6792 38.5371 29.5623 37.7644C29.8934 37.4333 30.3349 37.1022 30.8868 36.8814L31.8803 36.4399V34.0115C31.8803 33.0181 31.6595 32.0246 31.218 31.1416C30.8868 30.3689 30.4453 29.7066 29.8934 29.1547C29.1207 28.382 28.3481 27.9405 27.3546 27.6094C26.2508 28.4924 24.8159 28.9339 23.2705 28.9339C21.7252 28.9339 20.4006 28.382 19.1864 27.6094C17.8619 28.0509 16.6477 29.0443 15.875 30.1481C17.7515 30.5897 19.1864 32.2454 19.1864 34.3426C19.1864 34.453 19.1864 34.5634 19.1864 34.5634C19.5176 34.6738 19.7383 34.7842 20.0695 35.0049L21.8356 32.6869C22.0563 32.3558 22.4979 32.3558 22.829 32.5765C23.1602 32.7973 23.1602 33.2388 22.9394 33.57L21.2837 35.9983L23.3809 38.3164L26.9131 36.8814V32.5765C26.9131 32.135 27.2443 31.8039 27.6858 31.8039C28.1273 31.8039 28.4585 32.135 28.4585 32.5765V34.6738V37.9852L24.3744 39.6409L23.6017 39.9721L22.829 40.3032L21.6148 40.7447C21.1733 40.9655 20.8422 41.2966 20.6214 41.6278C20.6214 41.7382 20.6214 41.7382 20.511 41.8485C20.511 41.9589 20.4006 42.1797 20.4006 42.4005V42.5108C20.4006 42.7316 20.4006 42.842 20.511 43.0627C20.7318 43.5043 21.0629 43.9458 21.6148 44.0562C21.8356 44.1666 22.1667 44.1666 22.3875 44.1666C22.4979 44.1666 22.4979 44.1666 22.6083 44.1666H22.7186L23.2705 43.9458L24.7055 43.2835Z" fill="white"/>
<path d="M20.4004 42.18C20.5108 42.0696 20.5108 41.8488 20.6212 41.7385C20.9523 41.1866 21.5042 40.6346 22.2769 40.4139L22.9392 40.1931L20.9523 37.9855C20.7315 37.7647 20.4004 37.544 20.0692 37.4336C19.5173 38.5374 18.6343 39.3101 17.5305 39.6412C17.3097 39.7516 16.9786 39.7516 16.7578 39.862V39.9724C16.8682 40.4139 16.9786 40.8554 17.3097 41.1866L18.6343 42.6215L20.1796 44.2772C20.1796 44.1668 20.1796 44.1668 20.1796 44.0565C20.1796 43.9461 20.1796 43.8357 20.1796 43.8357C20.1796 43.7253 20.1796 43.5046 20.1796 43.3942C20.1796 43.063 20.29 42.7319 20.4004 42.5111C20.29 42.2904 20.29 42.2904 20.4004 42.18Z" fill="#8DCFFF"/>
<path d="M25.9203 44.388L26.4722 44.1672L29.3422 42.953V41.4077C29.3422 40.7454 29.8941 39.6416 30.7771 38.8689C31.1083 38.5378 31.5498 38.2066 32.1017 37.9859L33.0951 37.5443V35.2263C33.0951 34.2329 32.8744 33.2395 32.4328 32.3564C32.1017 31.5838 31.6602 30.9215 31.1083 30.3696C30.3356 29.5969 29.5629 29.1554 28.5695 28.8242C27.4657 29.7073 26.0307 30.1488 24.4854 30.1488C22.94 30.1488 21.6155 29.5969 20.4013 28.8242C19.0767 29.2657 17.8625 30.2592 17.0898 31.363C18.9663 31.8045 20.4013 33.4602 20.4013 35.5575C20.4013 35.6679 20.4013 35.7782 20.4013 35.7782C20.7324 35.8886 20.9532 35.999 21.2843 36.2198L23.0504 33.9018C23.2712 33.5706 23.7127 33.5706 24.0439 33.7914C24.375 34.0121 24.375 34.4537 24.1542 34.7848L22.2778 37.1028L24.375 39.4208L27.9072 37.9859V33.681C27.9072 33.2395 28.2383 32.9083 28.6799 32.9083C29.1214 32.9083 29.4525 33.2395 29.4525 33.681V35.7782V39.0897L25.3684 40.7454L24.5958 41.0765L23.8231 41.4077L22.6089 41.8492C22.1674 42.07 21.8362 42.4011 21.6155 42.7323C21.6155 42.8426 21.6155 42.8426 21.5051 42.953C21.5051 43.0634 21.3947 43.2842 21.3947 43.5049V43.6153C21.3947 43.8361 21.3947 43.9464 21.5051 44.1672C21.7259 44.6087 22.057 45.0503 22.6089 45.1606C22.8297 45.271 23.1608 45.271 23.3816 45.271C23.492 45.271 23.492 45.271 23.6023 45.271H23.7127L24.2646 45.0503L25.9203 44.388Z" fill="#8DCFFF"/>
<path d="M40.8212 32.9083C42.9184 32.1356 44.243 29.928 44.243 27.4996C44.243 24.2985 41.925 21.7598 39.0551 21.7598C36.1852 21.7598 33.8672 24.2985 33.8672 27.4996C33.8672 29.928 35.3021 32.1356 37.3994 32.9083C37.7305 33.0187 37.9513 33.3498 37.9513 33.6809V35.3367C37.9513 35.447 37.9513 35.447 37.9513 35.5574L39.0551 37.4339L40.2693 35.3367V33.6809C40.2693 33.3498 40.4901 33.0187 40.8212 32.9083ZM38.5032 25.0712C37.3994 26.7269 35.5229 26.8373 35.5229 26.8373C35.3021 26.8373 35.0814 26.6165 35.0814 26.3958C35.0814 26.175 35.3021 25.9543 35.5229 25.9543C35.6333 25.9543 37.1786 25.9543 37.9513 24.2985C37.9513 24.1882 38.0617 24.1882 38.0617 24.1882C37.9513 23.857 37.9513 23.7466 37.9513 23.6362C37.9513 23.4155 38.0617 23.0843 38.2824 23.0843C38.5032 23.0843 38.8343 23.1947 38.8343 23.4155C38.8343 23.5259 39.607 26.8373 43.1392 26.8373C43.36 26.8373 43.5807 27.0581 43.5807 27.2788C43.5807 27.4996 43.36 27.7204 43.1392 27.7204C40.4901 27.8307 39.1655 26.2854 38.5032 25.0712Z" fill="white"/>
<path d="M42.6973 41.9602C42.6973 42.4017 43.0284 42.7328 43.4699 42.7328C43.9115 42.7328 44.2426 42.4017 44.2426 41.9602C44.2426 41.5186 43.9115 41.1875 43.4699 41.1875C43.0284 41.1875 42.6973 41.5186 42.6973 41.9602Z" fill="white"/>
<path d="M46.4517 38.4283L43.9129 37.4349V40.4152C44.5752 40.636 45.1271 41.2982 45.1271 42.0709C45.1271 43.0643 44.3545 43.837 43.361 43.837C42.3676 43.837 41.5949 43.0643 41.5949 42.0709C41.5949 41.2982 42.1468 40.636 42.8091 40.4152V37.1038L40.9327 36.2207L39.4977 38.6491C39.3873 38.7595 39.2769 38.8699 39.0562 38.8699C38.8354 38.8699 38.725 38.7595 38.6147 38.6491L37.1797 36.2207L35.1928 36.9934V40.636C36.0759 40.8567 36.7382 41.7398 36.7382 42.7332V43.5059C36.7382 43.7266 36.5174 43.9474 36.2966 43.9474C36.0759 43.9474 35.8551 43.7266 35.8551 43.5059V42.7332C35.8551 42.0709 35.4136 41.519 34.7513 41.519C34.1994 41.519 33.6475 42.0709 33.6475 42.7332V43.5059C33.6475 43.7266 33.4267 43.9474 33.206 43.9474C32.9852 43.9474 32.7644 43.7266 32.7644 43.5059V42.7332C32.7644 41.7398 33.4267 40.8567 34.3098 40.636V37.3245L33.6475 37.5453L32.8748 37.8764L32.1022 38.2076L31.6606 38.4283C31.1087 38.6491 30.6672 39.0906 30.3361 39.5321C30.0049 39.8633 29.8945 40.1944 29.8945 40.3048V41.1879V42.0709V42.954V47.4796H48.2178V41.1879C48.2178 39.9737 47.5555 38.8699 46.4517 38.4283Z" fill="white"/>
<path d="M47.1133 36.7719L41.9253 34.6746V34.2331C44.3537 33.0189 45.8991 30.3697 45.8991 27.4998C45.8991 23.4157 42.8084 19.9939 39.0554 19.9939C35.3025 19.9939 32.2118 23.3053 32.2118 27.4998C32.2118 28.3829 32.3222 29.2659 32.6533 30.0386C32.2118 29.2659 31.7703 28.6036 31.2183 28.0517C30.5561 27.3895 29.673 26.8375 28.79 26.396C29.7834 25.1818 30.3353 23.7469 30.3353 22.0912C30.3353 21.4289 30.2249 20.7666 30.0042 20.1043C31.2183 19.5524 31.991 18.3382 31.991 17.0136C31.991 15.1371 30.4457 13.5918 28.5692 13.5918C27.1342 13.5918 26.0304 14.3645 25.4785 15.5787C24.8162 15.3579 24.154 15.2475 23.4917 15.2475C19.7387 15.2475 16.648 18.3382 16.648 22.0912C16.648 23.7469 17.1999 25.1818 18.1934 26.396C16.5376 27.1687 15.1027 28.4933 14.2196 30.2594C12.3432 30.7009 10.9082 32.3566 10.9082 34.4539C10.9082 36.4407 12.2328 38.0964 14.1093 38.538C14.1093 39.5314 14.4404 40.4144 15.1027 41.1871L18.083 44.4985C18.8557 45.3816 19.9595 45.8231 21.0633 45.8231C21.284 45.8231 21.6152 45.8231 21.8359 45.7127C21.9463 45.7127 22.1671 45.7127 22.2775 45.7127H22.3879C22.6086 45.7127 22.8294 45.7127 23.0501 45.6024C23.2709 45.6024 23.4917 45.492 23.602 45.3816L26.5823 44.1674L28.2381 43.5051V47.3685C28.2381 47.81 28.6796 48.2515 29.1211 48.2515C29.5626 48.2515 30.0042 47.81 30.0042 47.3685V42.8428V41.9598V41.0767V40.1937C30.0042 40.0833 30.1145 39.7522 30.4457 39.421C30.7768 39.0899 31.2183 38.6483 31.7703 38.3172L32.1014 38.2068L32.8741 37.8757L33.6467 37.5445L34.309 37.3238V40.6352C33.426 40.856 32.7637 41.739 32.7637 42.7324V43.5051C32.7637 43.7259 32.9844 43.9466 33.2052 43.9466C33.426 43.9466 33.6467 43.7259 33.6467 43.5051V42.7324C33.6467 42.0702 34.0883 41.5182 34.7506 41.5182C35.3025 41.5182 35.8544 42.0702 35.8544 42.7324V43.5051C35.8544 43.7259 36.0751 43.9466 36.2959 43.9466C36.5166 43.9466 36.7374 43.7259 36.7374 43.5051V42.7324C36.7374 41.739 36.0751 40.856 35.1921 40.6352V36.9926L37.1789 36.2199L38.6139 38.6483C38.7243 38.7587 38.8347 38.8691 39.0554 38.8691C39.2762 38.8691 39.3866 38.7587 39.4969 38.6483L40.9319 36.2199L43.0291 37.103V40.4144C42.3669 40.6352 41.8149 41.2975 41.8149 42.0702C41.8149 43.0636 42.5876 43.8363 43.581 43.8363C44.5745 43.8363 45.3471 43.0636 45.3471 42.0702C45.3471 41.2975 44.7952 40.6352 44.133 40.4144V37.4341L46.6717 38.4276C47.7755 38.9795 48.4378 40.0833 48.4378 41.2975V47.5892C48.4378 48.0307 48.8794 48.4723 49.3209 48.4723C49.7624 48.4723 50.2039 48.0307 50.2039 47.5892V41.2975C49.9832 39.3106 48.8794 37.6549 47.1133 36.7719ZM44.2433 41.9598C44.2433 42.4013 43.9122 42.7324 43.4707 42.7324C43.0291 42.7324 42.698 42.4013 42.698 41.9598C42.698 41.5182 43.0291 41.1871 43.4707 41.1871C43.9122 41.1871 44.2433 41.5182 44.2433 41.9598ZM36.1855 34.3435V34.785L33.5364 35.7784V34.0123C33.5364 33.0189 33.426 32.1358 33.0948 31.3632C33.8675 32.5774 34.9713 33.6812 36.1855 34.3435ZM28.2381 40.3041V41.8494L25.3681 43.0636L24.8162 43.2844L23.4917 43.7259L22.9398 43.9466H22.8294C22.719 43.9466 22.719 43.9466 22.6086 43.9466C22.2775 43.9466 22.0567 43.9466 21.8359 43.8363C21.3944 43.7259 20.9529 43.2843 20.7321 42.8428C20.6218 42.6221 20.6218 42.5117 20.6218 42.2909V42.1805C20.6218 41.9598 20.6218 41.8494 20.7321 41.6286C20.7321 41.5183 20.7321 41.5182 20.8425 41.4079C21.0633 40.9663 21.3944 40.6352 21.8359 40.5248L23.0501 40.0833L23.8228 39.7522L24.5955 39.421L28.6796 37.7653V34.4539V32.3566C28.6796 31.9151 28.3484 31.5839 27.9069 31.5839C27.4654 31.5839 27.1342 31.9151 27.1342 32.3566V36.6615L23.602 38.0964L21.284 35.9992L23.1605 33.6812C23.3813 33.35 23.3813 32.9085 23.0501 32.6877C22.719 32.467 22.2775 32.467 22.0567 32.7981L20.1802 35.0058C19.9595 34.785 19.6283 34.6746 19.2972 34.5642C19.2972 34.4539 19.2972 34.4538 19.2972 34.3435C19.2972 32.3566 17.8622 30.5905 15.9857 30.149C16.7584 28.9348 17.9726 28.0517 19.2972 27.6102C20.401 28.4933 21.8359 28.9348 23.3813 28.9348C24.9266 28.9348 26.2512 28.3829 27.4654 27.6102C28.3484 27.9414 29.2315 28.4933 30.0042 29.1556C30.5561 29.7075 30.9976 30.3697 31.3287 31.1424C31.7703 32.0255 31.991 33.0189 31.991 34.0123V36.3303L30.9976 36.7719C30.5561 36.9926 30.1145 37.3238 29.673 37.6549C28.79 38.538 28.2381 39.5314 28.2381 40.3041ZM12.5639 34.3435C12.5639 33.5708 12.8951 32.9085 13.3366 32.467C13.5574 32.2462 13.8885 32.0255 14.33 31.9151C14.5508 31.8047 14.8819 31.8047 15.1027 31.8047H15.2131C16.5376 31.9151 17.6415 33.0189 17.6415 34.3435C17.6415 34.6746 17.5311 34.8954 17.5311 35.2265C17.1999 36.1096 16.4273 36.7719 15.5442 36.8822C15.4338 36.8822 15.3235 36.8822 15.2131 36.8822C15.2131 36.8822 15.2131 36.8822 15.1027 36.8822C14.8819 36.8822 14.7715 36.8822 14.5508 36.7719C14.4404 36.7719 14.4404 36.7719 14.33 36.6615C13.9989 36.5511 13.7781 36.4407 13.5574 36.2199C13.0054 35.8888 12.5639 35.1161 12.5639 34.3435ZM16.2065 39.9729C15.8754 39.6418 15.6546 39.2002 15.6546 38.7587V38.6483C15.8754 38.6483 16.2065 38.538 16.4273 38.4276C17.5311 38.0964 18.5245 37.2134 18.966 36.2199C19.2972 36.3303 19.5179 36.5511 19.8491 36.7719L21.8359 38.9795L21.1737 39.2002C20.5114 39.421 19.9595 39.9729 19.5179 40.5248C19.4076 40.6352 19.2972 40.856 19.2972 40.9663C19.2972 41.0767 19.1868 41.1871 19.1868 41.2975C19.0764 41.6286 19.0764 41.8494 18.966 42.1805C18.966 42.2909 18.966 42.5117 18.966 42.6221C18.966 42.7324 18.966 42.8428 18.966 42.8428C18.966 42.9532 18.966 42.9532 18.966 43.0636L17.4207 41.4079L16.2065 39.9729ZM25.1474 17.3448C25.4785 17.4551 25.8097 17.6759 26.1408 17.7863C26.8031 18.2278 27.355 18.7797 27.7965 19.442C28.0173 19.7731 28.1277 20.1043 28.2381 20.4354C28.4588 20.9873 28.5692 21.5392 28.5692 22.2015C28.5692 22.6431 28.4588 23.195 28.3484 23.6365L21.6152 19.8835C21.3944 19.7731 21.0633 19.8835 20.9529 20.1043C20.8425 20.3251 20.9529 20.6562 21.1737 20.7666L28.0173 24.5195C27.7965 25.0714 27.4654 25.513 27.0239 25.8441C26.8031 26.0649 26.472 26.2856 26.1408 26.5064C25.4785 26.9479 24.5955 27.1687 23.7124 27.2791C23.602 27.2791 23.4917 27.2791 23.4917 27.2791C23.3813 27.2791 23.2709 27.2791 23.2709 27.2791C22.3879 27.2791 21.6152 26.9479 20.8425 26.5064C20.5114 26.2856 20.1802 26.0649 19.9595 25.8441C18.966 24.9611 18.4141 23.6365 18.4141 22.2015C18.4141 19.3316 20.7321 17.124 23.4917 17.124C24.0436 17.0136 24.5955 17.124 25.1474 17.3448ZM28.5692 15.3579C29.4523 15.3579 30.2249 16.1306 30.2249 17.0136C30.2249 17.6759 29.7834 18.3382 29.2315 18.559C28.6796 17.6759 27.9069 16.9032 27.0239 16.3513C27.2446 15.689 27.9069 15.3579 28.5692 15.3579ZM39.0554 37.4341L37.9516 35.5577C37.9516 35.4473 37.9516 35.4473 37.9516 35.3369V33.6812C37.9516 33.35 37.7308 33.0189 37.3997 32.9085C35.3025 32.1358 33.8675 29.9282 33.8675 27.4998C33.8675 24.2988 36.1855 21.76 39.0554 21.76C41.9253 21.76 44.2433 24.2988 44.2433 27.4998C44.2433 29.9282 42.8084 32.0255 40.8215 32.9085C40.4904 33.0189 40.2696 33.35 40.2696 33.6812V35.3369L39.0554 37.4341Z" fill="#0349C3"/>
<path d="M43.5814 27.3899C43.5814 27.1691 43.3606 26.9483 43.1399 26.9483C39.718 26.9483 38.9454 23.6369 38.835 23.5265C38.7246 23.3058 38.5039 23.085 38.2831 23.1954C38.0623 23.3058 37.8416 23.5265 37.9519 23.7473C37.9519 23.7473 37.9519 23.968 38.0623 24.2992L37.9519 24.4096C37.1793 26.0653 35.5236 26.0653 35.5236 26.0653C35.3028 26.0653 35.082 26.2861 35.082 26.5068C35.082 26.7276 35.3028 26.9483 35.5236 26.9483C35.6339 26.9483 37.4 26.9483 38.5038 25.1822C39.1661 26.3964 40.4907 27.8314 43.0295 27.8314C43.3606 27.8314 43.5814 27.6106 43.5814 27.3899Z" fill="#0349C3"/>
</g>
<defs>
<clipPath id="clip0_1193_9969">
<rect width="64" height="64" fill="white" transform="translate(0 0.5)"/>
</clipPath>
</defs>
</svg>
