<svg width="10" height="10" viewBox="0 0 10 10" fill="none" xmlns="http://www.w3.org/2000/svg">
<path d="M0.5 1C0.5 0.585786 0.835787 0.25 1.25 0.25C1.66421 0.25 2 0.585786 2 1V1.64584C2.79613 0.93328 3.84747 0.5 5 0.5C7.48528 0.5 9.5 2.51472 9.5 5C9.5 7.48528 7.48528 9.5 5 9.5C2.80612 9.5 0.978927 7.93004 0.580606 5.85231C0.491476 5.38739 0.883756 5 1.35714 5C1.71218 5 1.99285 5.29119 2.06802 5.63818C2.36055 6.98846 3.56215 8 5 8C6.65685 8 8 6.65685 8 5C8 3.34315 6.65685 2 5 2C4.38347 2 3.81038 2.18598 3.33377 2.50489L3.75002 2.5049C4.16423 2.50491 4.50001 2.84071 4.5 3.25492C4.49999 3.66914 4.16419 4.00491 3.74998 4.0049L1.24998 4.00484C0.835774 4.00482 0.5 3.66904 0.5 3.25484V1Z" fill="white"/>
</svg>
