<svg width="64" height="65" viewBox="0 0 64 65" fill="none" xmlns="http://www.w3.org/2000/svg">
<g clip-path="url(#clip0_1193_9988)">
<path d="M63.5 32.5C63.5 49.897 49.397 64 32 64C14.603 64 0.5 49.897 0.5 32.5C0.5 15.103 14.603 1 32 1C49.397 1 63.5 15.103 63.5 32.5Z" fill="#F0F8FF" stroke="#E2F1FF"/>
<path d="M14.4359 20.4929C14.5619 19.2329 15.0659 18.0989 15.6959 17.0909C15.4439 16.8389 14.9399 16.7129 14.5619 16.7129C13.5539 16.7129 12.6719 17.5949 12.6719 18.6029C12.7979 19.6109 13.5539 20.3669 14.4359 20.4929Z" fill="white"/>
<path d="M24.8949 30.8241L23.1309 27.674C22.3749 27.926 21.7449 28.052 20.8629 28.052C19.6029 28.052 18.4689 27.674 17.5868 27.044C17.3348 26.918 17.2088 26.792 16.9568 26.666L13.4288 29.8161C13.1768 30.0681 13.0508 30.3201 13.0508 30.6981C13.0508 31.0761 13.1768 31.3281 13.4288 31.5801C13.4288 31.5801 13.5548 31.5801 13.5548 31.7061L13.6808 31.8321L18.0908 36.2421C18.5949 36.7462 19.4769 36.7462 19.9809 36.2421C20.2329 35.9901 20.3589 35.6121 20.3589 35.2341C20.3589 34.8561 20.2329 34.4781 19.9809 34.2261L17.0828 31.3281C16.7048 30.9501 16.7048 30.4461 17.0828 30.0681C17.2088 29.9421 17.4608 29.8161 17.7128 29.8161C17.9648 29.8161 18.2168 29.9421 18.3428 30.0681L21.2409 32.9661C21.8709 33.5961 22.2489 34.3521 22.2489 35.2341C22.2489 36.1161 21.8709 36.9982 21.2409 37.6282C20.6109 38.2582 19.8549 38.5102 18.9729 38.5102C18.8469 38.5102 18.8469 38.5102 18.7209 38.5102L18.8469 47.2043L29.179 47.0783V41.4082C29.179 40.2742 30.439 38.5102 32.203 37.7542L33.337 37.2502C32.329 33.7221 29.431 31.3281 25.7769 31.3281C25.3989 31.2021 25.0209 31.0761 24.8949 30.8241Z" fill="white"/>
<path d="M26.5317 30.0692L24.7676 27.0451C24.0116 27.2971 23.3816 27.4231 22.4996 27.4231C21.2396 27.4231 20.1056 27.0451 19.2236 26.4151C18.9716 26.2891 18.8456 26.1631 18.5936 26.0371L14.9395 29.1872C14.8135 29.3132 14.6875 29.6912 14.6875 30.0692C14.6875 30.4472 14.8135 30.6992 15.0655 30.9512C15.0655 30.9512 15.1915 30.9512 15.1915 31.0772L15.3175 31.2032L19.7276 35.6132C20.2316 36.1172 21.1136 36.1172 21.6176 35.6132C21.8696 35.3612 21.9956 34.9832 21.9956 34.6052C21.9956 34.2272 21.8696 33.8492 21.6176 33.5972L18.7196 30.6992C18.3415 30.3212 18.3415 29.8172 18.7196 29.4392C18.8456 29.3132 19.0976 29.1872 19.3496 29.1872C19.6016 29.1872 19.8536 29.3132 19.9796 29.4392L22.8776 32.3372C23.5076 32.9672 23.8856 33.7232 23.8856 34.6052C23.8856 35.4872 23.5076 36.3692 22.8776 36.9993C22.2476 37.6293 21.4916 37.8813 20.6096 37.8813C20.4836 37.8813 20.4836 37.8813 20.3576 37.8813L20.4836 46.5754L30.8157 46.4494V40.9053C30.8157 39.7713 32.0757 38.0073 33.8397 37.2513L34.9738 36.7472C33.9657 33.2192 31.0677 30.8252 27.4137 30.8252C26.9097 30.5732 26.6577 30.4472 26.5317 30.0692Z" fill="#8DCFFF"/>
<path d="M16.4522 22.6341L23.6343 18.4761C23.8863 18.3501 24.1383 18.4761 24.3903 18.6021C24.5163 18.8541 24.3903 19.1061 24.2643 19.3581L17.0822 23.5161H16.9562C17.0822 23.7681 17.2082 23.8941 17.3342 24.1461C17.3342 24.1461 17.3342 24.1461 17.3342 24.2721C17.5862 24.6501 17.8382 24.9022 18.2162 25.1542C18.3422 25.2802 18.4682 25.2802 18.4682 25.4062C19.2242 25.9102 20.1062 26.1622 20.9882 26.1622C21.7442 26.1622 22.5003 25.9102 23.1303 25.5322C23.3823 25.4062 23.6343 25.1542 23.8863 25.0282C24.8943 24.1461 25.6503 22.7601 25.6503 21.1221C25.6503 18.3501 23.5083 16.082 20.9882 16.082C19.8542 16.082 18.9722 16.46 18.0902 17.216C17.8382 17.468 17.5862 17.7201 17.3342 17.9721C16.7042 18.7281 16.3262 19.7361 16.3262 20.7441C16.3262 20.8701 16.3262 20.9961 16.3262 21.1221C16.3262 21.3741 16.3262 21.6261 16.4522 21.7521C16.3262 22.1301 16.4522 22.3821 16.4522 22.6341Z" fill="white"/>
<path d="M45.5587 43.928C45.9763 43.928 46.3147 43.5896 46.3147 43.172C46.3147 42.7545 45.9763 42.416 45.5587 42.416C45.1412 42.416 44.8027 42.7545 44.8027 43.172C44.8027 43.5896 45.1412 43.928 45.5587 43.928Z" fill="white"/>
<path d="M39.0066 33.4711C39.3846 33.5971 39.6366 33.9751 39.6366 34.3531V36.1171C39.6366 36.2431 39.6366 36.2431 39.6366 36.3691L40.7706 38.3852L42.0307 36.1171V34.3531C42.0307 33.9751 42.2827 33.5971 42.6607 33.4711C44.9287 32.5891 46.3147 30.3211 46.3147 27.801C46.3147 24.399 43.7947 21.627 40.7706 21.627C37.7466 21.627 35.2266 24.399 35.2266 27.801C35.3526 30.3211 36.8646 32.7151 39.0066 33.4711ZM36.4866 26.541C36.4866 26.289 36.7386 26.037 36.9906 26.037C37.1166 26.037 38.7546 26.037 39.6366 24.273L39.7626 24.147C39.6366 23.895 39.6366 23.643 39.6366 23.643C39.6366 23.391 39.7626 23.139 40.0146 23.013C40.2666 23.013 40.5186 23.139 40.6446 23.391C40.6446 23.517 41.5266 27.045 45.1807 27.045C45.4327 27.045 45.6847 27.297 45.6847 27.549C45.6847 27.801 45.4327 28.053 45.1807 28.053C42.4087 28.053 41.0226 26.415 40.2666 25.155C39.0066 26.919 37.1166 27.045 36.9906 27.045C36.7386 27.045 36.4866 26.793 36.4866 26.541Z" fill="white"/>
<path d="M31.0684 41.4081V46.9522V49.0942H50.5986V42.4161C50.5986 41.1561 49.8426 39.8961 48.7086 39.3921L46.0626 38.3841V41.4081C46.8186 41.6601 47.4486 42.2901 47.4486 43.1721C47.4486 44.1801 46.5666 45.0622 45.5585 45.0622C44.5505 45.0622 43.6685 44.1801 43.6685 43.1721C43.6685 42.2901 44.1725 41.6601 45.0545 41.4081V37.8801L42.7865 36.998L41.2745 39.6441C41.1485 39.7701 41.0225 39.8961 40.7705 39.8961C40.5185 39.8961 40.3925 39.7701 40.2665 39.6441L38.7545 36.998L36.6124 37.8801V41.7861C37.6204 42.0381 38.2505 42.9201 38.2505 44.0541V44.9362C38.2505 45.1882 37.9984 45.4402 37.7464 45.4402C37.4944 45.4402 37.2424 45.1882 37.2424 44.9362V44.0541C37.2424 43.2981 36.7384 42.7941 36.1084 42.7941C35.8564 42.7941 35.7304 42.9201 35.4784 43.0461L35.3524 43.1721C35.1004 43.4241 34.9744 43.8021 34.9744 44.0541V44.9362C34.9744 45.1882 34.8484 45.3142 34.5964 45.4402H34.4704C34.2184 45.4402 33.9664 45.1882 33.9664 44.9362V44.0541C33.9664 43.4241 34.2184 42.9201 34.5964 42.4161C34.8484 42.1641 35.2264 41.9121 35.4784 41.7861H35.6044V38.2581L35.3524 38.3841L34.4704 38.7621L33.5884 39.1401L32.8324 39.3921C31.6984 39.8961 31.0684 41.1561 31.0684 41.4081Z" fill="white"/>
<path d="M10.9082 30.8246C10.9082 31.7066 11.2862 32.4626 11.7902 32.9666C11.9162 33.0926 11.9162 33.0926 12.0422 33.2186L16.4523 37.6287C16.5783 37.7547 16.8303 37.8807 16.9563 38.0067L17.0823 46.9528C17.0823 47.4568 17.4603 47.8348 17.9643 47.8348C18.4683 47.8348 18.8463 47.4568 18.8463 46.9528L18.7203 38.2587C18.8463 38.2587 18.8463 38.2587 18.9723 38.2587C19.7283 38.2587 20.6103 38.0067 21.2403 37.3767C21.8703 36.7467 22.2484 35.8646 22.2484 34.9826C22.2484 34.1006 21.8703 33.3446 21.2403 32.7146L18.4683 30.0686C18.3423 29.9426 18.0903 29.8166 17.8383 29.8166C17.5863 29.8166 17.3343 29.9426 17.2083 30.0686C16.8303 30.4466 16.8303 30.9506 17.2083 31.3286L20.1063 34.2266C20.3583 34.4786 20.4843 34.8566 20.4843 35.2346C20.4843 35.6126 20.3583 35.9906 20.1063 36.2426C19.6023 36.7467 18.7203 36.7467 18.2163 36.2426L13.8062 31.8326C13.8062 31.8326 13.8062 31.7066 13.6802 31.7066C13.6802 31.7066 13.6802 31.7066 13.5542 31.5806C13.3022 31.3286 13.1762 31.0766 13.1762 30.6986C13.1762 30.3206 13.3022 30.0686 13.5542 29.8166L17.2083 26.6665C17.3343 26.7925 17.5863 26.9185 17.8383 27.0445C18.8463 27.6745 19.9803 28.0525 21.1143 28.0525C21.8703 28.0525 22.6264 27.9265 23.3824 27.6745L25.1464 30.8246C25.2724 31.0766 25.6504 31.3286 25.9024 31.3286C29.5564 31.3286 32.4545 33.7226 33.4625 37.2507L32.2025 37.6287C30.4385 38.5107 29.1784 40.2747 29.1784 41.2827V46.8268V48.9688C29.1784 49.4728 29.5564 49.8508 30.0605 49.8508C30.5645 49.8508 30.9425 49.4728 30.9425 48.9688V46.8268V41.2827C30.9425 41.0307 31.5725 39.7707 32.8325 39.2667L33.5885 39.0147L34.4705 38.6367L35.3525 38.2587L35.6045 38.1327V41.6607H35.4785C35.1005 41.7867 34.8485 41.9127 34.5965 42.2907C34.2185 42.6687 33.9665 43.2987 33.9665 43.9287V44.8108C33.9665 45.0628 34.2185 45.3148 34.4705 45.3148H34.5965C34.8485 45.3148 34.9745 45.0628 34.9745 44.8108V43.9287C34.9745 43.5507 35.1005 43.2987 35.3525 43.0467L35.4785 42.9207C35.6045 42.7947 35.8565 42.6687 36.1085 42.6687C36.7385 42.6687 37.2425 43.2987 37.2425 43.9287V44.8108C37.2425 45.0628 37.4945 45.3148 37.7466 45.3148C37.9986 45.3148 38.2506 45.0628 38.2506 44.8108V43.9287C38.2506 42.7947 37.4946 41.9127 36.6125 41.6607V37.7547L38.7546 36.8727L40.2666 39.5187C40.3926 39.6447 40.5186 39.7707 40.7706 39.7707C41.0226 39.7707 41.1486 39.6447 41.2746 39.5187L42.7866 36.8727L45.0546 37.7547V41.4087C44.2986 41.6607 43.6686 42.2907 43.6686 43.1727C43.6686 44.1808 44.5506 45.0628 45.5587 45.0628C46.5667 45.0628 47.4487 44.1808 47.4487 43.1727C47.4487 42.2907 46.9447 41.6607 46.0627 41.4087V38.2587L48.7087 39.2667C49.8427 39.7707 50.5987 41.0307 50.5987 42.2907V48.9688C50.5987 49.4728 50.9767 49.8508 51.4807 49.8508C51.9847 49.8508 52.3627 49.4728 52.3627 48.9688V42.2907C52.3627 40.2747 51.2287 38.5107 49.3387 37.6287L43.7946 35.4866V34.9826C46.4407 33.7226 48.0787 30.9506 48.0787 27.8005C48.0787 23.3905 44.8026 19.8624 40.7706 19.8624C36.7385 19.8624 33.4625 23.3905 33.4625 27.8005C33.4625 30.9506 35.2265 33.7226 37.7466 34.9826V35.4866L34.9745 36.6207C33.7145 32.4626 30.4385 29.6906 26.1544 29.5646L24.7684 26.6665C26.4064 25.4065 27.4144 23.3905 27.4144 21.1224C27.4144 17.3424 24.5164 14.3184 20.8623 14.3184C19.3503 14.3184 17.9643 14.8224 16.9563 15.7044C16.3263 15.2004 15.4443 14.8224 14.5623 14.8224C12.5462 14.8224 10.9082 16.4604 10.9082 18.4764C10.9082 20.4924 12.5462 22.1305 14.5623 22.1305C14.6883 23.2645 15.1923 24.2725 15.8223 25.1545L11.9162 28.5565C11.2862 29.1866 10.9082 30.0686 10.9082 30.8246ZM46.3147 43.1727C46.3147 43.6767 45.9367 43.9287 45.5587 43.9287C45.0546 43.9287 44.8026 43.5507 44.8026 43.1727C44.8026 42.7947 45.1806 42.4167 45.5587 42.4167C45.9367 42.4167 46.3147 42.7947 46.3147 43.1727ZM16.3263 21.2484C16.3263 21.1224 16.3263 20.9964 16.3263 20.8704C16.4523 19.8624 16.8303 18.8544 17.3343 18.0984C17.5863 17.8464 17.8383 17.5944 18.0903 17.3424C18.8463 16.7124 19.8543 16.2084 20.9883 16.2084C23.5084 16.2084 25.6504 18.4764 25.6504 21.2484C25.6504 22.8865 25.0204 24.2725 23.8864 25.1545C23.6344 25.4065 23.3824 25.5325 23.1304 25.6585C22.5004 26.0365 21.7443 26.2885 20.9883 26.2885C20.1063 26.2885 19.2243 26.0365 18.4683 25.5325C18.3423 25.4065 18.2163 25.4065 18.2163 25.2805C17.8383 25.0285 17.5863 24.7765 17.3343 24.3985C17.3343 24.3985 17.3343 24.3985 17.3343 24.2725C17.2083 24.0205 17.0823 23.8945 16.9563 23.6425H17.0823L24.2644 19.4844C24.5164 19.3584 24.6424 18.9804 24.3904 18.7284C24.2644 18.4764 23.8864 18.3504 23.6344 18.6024L16.4523 22.7605C16.3263 22.5085 16.3263 22.2565 16.3263 22.0045C16.3263 21.6265 16.3263 21.3745 16.3263 21.2484ZM12.7982 18.6024C12.7982 17.5944 13.6802 16.7124 14.6883 16.7124C15.0663 16.7124 15.4443 16.8384 15.8223 17.0904C15.1923 18.0984 14.6883 19.2324 14.5623 20.4924C13.5542 20.3664 12.7982 19.6104 12.7982 18.6024ZM40.7706 38.3847L39.6366 36.3686C39.6366 36.2426 39.6366 36.2426 39.6366 36.1166V34.3526C39.6366 33.9746 39.3846 33.5966 39.0066 33.4706C36.7385 32.5886 35.2265 30.3206 35.2265 27.6745C35.2265 24.2725 37.7466 21.5005 40.7706 21.5005C43.7946 21.5005 46.3147 24.2725 46.3147 27.6745C46.3147 30.1946 44.8026 32.5886 42.6606 33.3446C42.2826 33.4706 42.0306 33.8486 42.0306 34.2266V35.9906L40.7706 38.3847Z" fill="#0349C3"/>
<path d="M45.5594 27.5481C45.5594 27.2961 45.3074 27.0441 45.0554 27.0441C41.4014 27.0441 40.5194 23.516 40.5194 23.39C40.5194 23.138 40.1414 22.886 39.8894 23.012C39.6374 23.012 39.3854 23.39 39.5114 23.642C39.5114 23.642 39.5114 23.894 39.6374 24.146L39.5114 24.272C38.6294 26.0361 36.9913 26.0361 36.8653 26.0361C36.6133 26.0361 36.3613 26.2881 36.3613 26.5401C36.3613 26.7921 36.6133 27.0441 36.8653 27.0441C36.9913 27.0441 38.8814 27.0441 40.1414 25.1541C40.8974 26.4141 42.2834 28.0521 45.0554 28.0521C45.4334 28.0521 45.5594 27.8001 45.5594 27.5481Z" fill="#0349C3"/>
</g>
<defs>
<clipPath id="clip0_1193_9988">
<rect width="64" height="64" fill="white" transform="translate(0 0.5)"/>
</clipPath>
</defs>
</svg>
