<svg width="20" height="20" viewBox="0 0 20 20" fill="none" xmlns="http://www.w3.org/2000/svg">
<path d="M0.243247 0.24364C0.567577 -0.0812132 1.09342 -0.0812132 1.41775 0.24364L10 8.83973L18.5823 0.24364C18.9066 -0.0812132 19.4324 -0.0812132 19.7568 0.24364C20.0811 0.568492 20.0811 1.09518 19.7568 1.42004L11.1745 10.0161L19.7246 18.58C20.0489 18.9048 20.0489 19.4315 19.7246 19.7564C19.4002 20.0812 18.8744 20.0812 18.55 19.7564L10 11.1925L1.44995 19.7564C1.12562 20.0812 0.599778 20.0812 0.275448 19.7564C-0.0488817 19.4315 -0.0488816 18.9048 0.275448 18.58L8.8255 10.0161L0.243247 1.42004C-0.0810824 1.09518 -0.0810824 0.568492 0.243247 0.24364Z" fill="#2C2F31"/>
</svg>
