<svg width="24" height="24" viewBox="0 0 24 24" fill="none" xmlns="http://www.w3.org/2000/svg">
<path d="M4.90611 5.05961L4.97554 4.97652C5.18382 4.76824 5.50713 4.7451 5.74097 4.90709L5.82407 4.97652L11.9998 11.1524L18.1755 4.97652C18.3838 4.76824 18.7071 4.7451 18.941 4.90709L19.0241 4.97652C19.2323 5.1848 19.2555 5.50811 19.0935 5.74195L19.0241 5.82505L12.8482 12.0008L19.0241 18.1765C19.2323 18.3848 19.2555 18.7081 19.0935 18.9419L19.0241 19.025C18.8158 19.2333 18.4925 19.2565 18.2586 19.0945L18.1755 19.025L11.9998 12.8492L5.82407 19.025C5.61579 19.2333 5.29248 19.2565 5.05864 19.0945L4.97554 19.025C4.76726 18.8168 4.74412 18.4935 4.90611 18.2596L4.97554 18.1765L11.1514 12.0008L4.97554 5.82505C4.76726 5.61677 4.74412 5.29346 4.90611 5.05961L4.97554 4.97652L4.90611 5.05961Z" fill="#2C2F31"/>
</svg>
