<svg width="24" height="25" viewBox="0 0 24 25" fill="none" xmlns="http://www.w3.org/2000/svg">
<path d="M12.0001 9.32689C14.2093 9.32689 16.0001 11.1178 16.0001 13.3269C16.0001 15.536 14.2093 17.3269 12.0001 17.3269C9.79098 17.3269 8.00012 15.536 8.00012 13.3269C8.00012 11.1178 9.79098 9.32689 12.0001 9.32689ZM12.0001 5.82227C16.6136 5.82227 20.5962 8.97227 21.7012 13.3867C21.8018 13.7885 21.5576 14.1957 21.1558 14.2963C20.754 14.3969 20.3467 14.1527 20.2461 13.7509C19.3072 10.0002 15.9215 7.32227 12.0001 7.32227C8.07705 7.32227 4.69022 10.0025 3.75298 13.7554C3.65261 14.1573 3.24547 14.4017 2.8436 14.3013C2.44173 14.201 2.19731 13.7938 2.29767 13.392C3.40076 8.97498 7.3846 5.82227 12.0001 5.82227Z" fill="#2C2F31"/>
</svg>
