<svg width="17" height="16" viewBox="0 0 17 16" fill="none" xmlns="http://www.w3.org/2000/svg">
<path d="M7.87217 0.0250652C12.2768 -0.321589 16.1285 2.96807 16.4752 7.37273C16.8218 11.7774 13.5322 15.6291 9.12752 15.9757C4.72286 16.3224 0.871162 13.0327 0.524508 8.62808C0.502199 8.34461 0.495925 8.04005 0.504952 7.73892C0.517362 7.3249 0.863059 6.99932 1.27709 7.01173C1.69111 7.02414 2.01669 7.36984 2.00428 7.78387C1.99683 8.03246 2.00199 8.28298 2.01988 8.51039C2.30154 12.0892 5.43105 14.762 9.00983 14.4804C12.5886 14.1987 15.2615 11.0692 14.9798 7.49042C14.6982 3.91164 11.5686 1.23879 7.98986 1.52044C6.25359 1.65709 4.68414 2.4709 3.57752 3.75512L3.37398 4.003L5.75277 4.00387L5.85455 4.01072C6.22062 4.06038 6.50277 4.37417 6.50277 4.75387C6.50277 5.13356 6.22062 5.44736 5.85455 5.49702L5.75277 5.50387H1.75284L1.65107 5.49702C1.31827 5.45187 1.05483 5.18844 1.00968 4.85564L1.00284 4.75387V0.753869L1.00968 0.652098C1.05483 0.319302 1.31827 0.055863 1.65107 0.0107153L1.75284 0.00386864L1.85461 0.0107153C2.1874 0.055863 2.45084 0.319302 2.49599 0.652098L2.50284 0.753869L2.50163 2.70662C3.85953 1.16672 5.76754 0.190704 7.87217 0.0250652Z" fill="#0349C3"/>
</svg>
