<svg width="64" height="65" viewBox="0 0 64 65" fill="none" xmlns="http://www.w3.org/2000/svg">
<g clip-path="url(#clip0_1193_10106)">
<path d="M63.5 32.5C63.5 49.897 49.397 64 32 64C14.603 64 0.5 49.897 0.5 32.5C0.5 15.103 14.603 1 32 1C49.397 1 63.5 15.103 63.5 32.5Z" fill="#F0F8FF" stroke="#E2F1FF"/>
<path d="M24.4016 17.9336C23.8094 17.7254 23.1883 17.6146 22.5617 17.6055H22.49C21.3844 17.6092 20.303 17.9352 19.3739 18.545C18.4449 19.1547 17.7072 20.0225 17.2483 21.0456C16.7893 22.0688 16.6284 23.2042 16.7845 24.3175C16.9406 25.4308 17.4073 26.4753 18.1292 27.3271C18.667 27.9942 19.3434 28.532 20.1098 28.9017C20.8761 29.2715 21.7135 29.4642 22.5617 29.4658C23.9412 29.4761 25.2787 28.9843 26.333 28.0795C27.3873 27.1746 28.0888 25.9162 28.3109 24.5314C28.533 23.1466 28.2611 21.7267 27.5442 20.5279C26.8273 19.3292 25.7127 18.4306 24.4016 17.9943V17.9336Z" fill="#8DCFFF"/>
<path d="M24.4019 37.3769C23.8097 37.1687 23.1886 37.058 22.562 37.0488H22.4903C21.3957 37.0622 20.3273 37.3914 19.4093 37.9981C18.4913 38.6048 17.7615 39.464 17.3048 40.4759C16.848 41.4878 16.683 42.6108 16.829 43.7144C16.975 44.8179 17.426 45.8566 18.1295 46.7097C18.6673 47.3768 19.3437 47.9146 20.1101 48.2843C20.8765 48.6541 21.7138 48.8468 22.562 48.8484C23.9415 48.8587 25.2791 48.3669 26.3333 47.4621C27.3876 46.5572 28.0891 45.2988 28.3113 43.914C28.5334 42.5292 28.2614 41.1093 27.5445 39.9105C26.8277 38.7118 25.7131 37.8132 24.4019 37.3769V37.3769Z" fill="#8DCFFF"/>
<path d="M45.7037 22.5879H30.1719C30.2681 23.0267 30.3162 23.475 30.3152 23.9246C30.3161 24.3702 30.268 24.8145 30.1719 25.2492H45.7037C45.9255 25.2492 46.1382 25.1596 46.2951 25C46.4519 24.8405 46.54 24.6241 46.54 24.3985V23.4385C46.54 23.2129 46.4519 22.9966 46.2951 22.837C46.1382 22.6775 45.9255 22.5879 45.7037 22.5879V22.5879Z" fill="white"/>
<path d="M45.7037 31.7383H30.1719C30.3629 32.6147 30.3629 33.5231 30.1719 34.3996H45.7037C45.9255 34.3996 46.1382 34.31 46.2951 34.1504C46.4519 33.9909 46.54 33.7745 46.54 33.5489V32.5889C46.54 32.3633 46.4519 32.147 46.2951 31.9874C46.1382 31.8279 45.9255 31.7383 45.7037 31.7383V31.7383Z" fill="white"/>
<path d="M28.3575 30.9974C28.2288 30.7354 28.0811 30.4836 27.9154 30.244C27.6835 29.9285 27.4147 29.6429 27.115 29.3934C26.9075 29.2137 26.6835 29.055 26.4459 28.9194C26.1359 28.741 25.8073 28.5983 25.4662 28.4941C25.0321 28.3594 24.5818 28.2858 24.1281 28.2754C23.6781 28.2844 23.2316 28.3581 22.8019 28.4941C22.4599 28.5958 22.131 28.7386 21.8222 28.9194C21.5808 29.0549 21.3527 29.2136 21.1412 29.3934C20.59 29.8577 20.1508 30.4444 19.8573 31.1083C19.5638 31.7722 19.4238 32.4956 19.448 33.2232C19.4722 33.9507 19.6601 34.6629 19.9971 35.305C20.3341 35.9472 20.8113 36.5023 21.3921 36.9276C22.2393 36.4866 23.1763 36.2535 24.1281 36.2471C25.0804 36.2489 26.0184 36.4822 26.8641 36.9276C27.2689 36.6312 27.624 36.2701 27.9154 35.8583C28.0836 35.6204 28.2315 35.3683 28.3575 35.1048C28.4688 34.8658 28.5607 34.6178 28.6323 34.3636C28.9191 33.5004 28.9191 32.5654 28.6323 31.7023C28.5589 31.4604 28.467 31.2247 28.3575 30.9974ZM23.6382 35.4937C23.4006 35.4935 23.1729 35.3973 23.005 35.2263L21.0217 33.2091C20.8634 33.0363 20.7772 32.8078 20.7813 32.5717C20.7854 32.3356 20.8795 32.1103 21.0437 31.9433C21.2078 31.7763 21.4293 31.6807 21.6615 31.6765C21.8936 31.6724 22.1183 31.76 22.2881 31.921L22.7063 32.3463L23.3993 33.0511L23.6382 33.2942L24.1281 32.7838L25.0241 31.8845L25.8963 30.9974L25.968 30.9124C26.136 30.7417 26.3637 30.6458 26.6012 30.6458C26.8387 30.6458 27.0664 30.7417 27.2344 30.9124L27.2942 30.9974C27.3759 31.0998 27.4334 31.2198 27.4624 31.3483C27.4914 31.4768 27.4911 31.6104 27.4614 31.7387C27.4379 31.9139 27.3581 32.0762 27.2344 32.2005L25.2392 34.242L24.7135 34.7646L24.2714 35.2263H24.1759C24.0315 35.3747 23.842 35.4689 23.6382 35.4937V35.4937Z" fill="#0349C3"/>
<path d="M45.7037 41.2285H30.1719C30.2681 41.6673 30.3162 42.1156 30.3152 42.5652C30.3167 43.0108 30.2686 43.4552 30.1719 43.8898H45.7037C45.9234 43.8898 46.1344 43.8019 46.2909 43.645C46.4474 43.4881 46.5369 43.2748 46.54 43.0513V42.0792C46.5369 41.8545 46.4478 41.64 46.2917 41.4811C46.1355 41.3223 45.9245 41.2317 45.7037 41.2285V41.2285Z" fill="white"/>
<path d="M45.7032 26.7435C46.0054 26.7435 46.3047 26.6827 46.5838 26.5647C46.8629 26.4467 47.1163 26.2738 47.3295 26.0558C47.5426 25.8379 47.7114 25.5792 47.8259 25.2948C47.9405 25.0103 47.9987 24.7056 47.9971 24.3982V23.4381C47.9877 22.8246 47.7423 22.2391 47.3135 21.8075C46.8846 21.3759 46.3065 21.1324 45.7032 21.1293H29.6218C29.219 20.3061 28.6433 19.5831 27.9352 19.0114C27.2272 18.4398 26.4042 18.0336 25.5246 17.8215C24.645 17.6094 23.7303 17.5966 22.8453 17.7841C21.9603 17.9716 21.1267 18.3548 20.4035 18.9064C19.6803 19.4581 19.0852 20.1648 18.6605 20.9764C18.2357 21.7881 17.9916 22.6848 17.9455 23.603C17.8994 24.5213 18.0524 25.4386 18.3937 26.29C18.735 27.1415 19.2562 27.9061 19.9204 28.5298C19.2822 29.1271 18.7765 29.8558 18.4369 30.6675C18.0973 31.4791 17.9315 32.355 17.9508 33.2368C17.97 34.1187 18.1737 34.9863 18.5483 35.7818C18.923 36.5773 19.4599 37.2825 20.1235 37.8504C19.4546 38.4623 18.9258 39.2159 18.5743 40.0581C18.2227 40.9004 18.0571 41.8108 18.0889 42.7252C18.1208 43.6396 18.3494 44.5358 18.7586 45.3506C19.1678 46.1655 19.7478 46.8791 20.4575 47.4413C21.1673 48.0035 21.9896 48.4005 22.8666 48.6045C23.7435 48.8084 24.6538 48.8143 25.5332 48.6217C26.4127 48.4291 27.2399 48.0427 27.9566 47.4897C28.6733 46.9367 29.2621 46.2306 29.6815 45.4212H45.7032C46.0116 45.4214 46.3169 45.3583 46.6008 45.2358C46.8847 45.1132 47.1414 44.9337 47.3555 44.708C47.5697 44.4822 47.7369 44.2149 47.8471 43.9219C47.9573 43.629 48.0084 43.3164 47.9971 43.0029V42.0307C47.9971 41.4119 47.7554 40.8185 47.3252 40.3809C46.895 39.9434 46.3116 39.6976 45.7032 39.6976H29.6218C29.2518 38.9611 28.7446 38.3049 28.1283 37.7654C28.7442 37.2303 29.2515 36.5781 29.6218 35.8454H45.7032C46.3127 35.8421 46.8961 35.5936 47.326 35.1541C47.7558 34.7147 47.9971 34.1199 47.9971 33.5V32.54C47.9971 31.9201 47.7558 31.3254 47.326 30.8859C46.8961 30.4464 46.3127 30.1979 45.7032 30.1947H29.6218C29.2933 29.5405 28.8569 28.9487 28.3314 28.4448C28.8569 27.9409 29.2933 27.349 29.6218 26.6949L45.7032 26.7435ZM27.9133 26.7435C27.6813 27.0626 27.4125 27.3522 27.1128 27.6063C26.2071 27.0658 25.176 26.7808 24.1259 26.7808C23.0758 26.7808 22.0447 27.0658 21.139 27.6063C20.6141 27.1788 20.1857 26.6417 19.8826 26.0312C19.5795 25.4207 19.4088 24.7511 19.3822 24.0677C19.3555 23.3844 19.4735 22.7031 19.7281 22.0701C19.9827 21.4372 20.368 20.8672 20.8579 20.3987C21.3478 19.9303 21.9309 19.5744 22.5678 19.355C23.2047 19.1357 23.8805 19.058 24.5494 19.1272C25.2183 19.1965 25.8649 19.4111 26.4452 19.7565C27.0256 20.1019 27.5262 20.57 27.9133 21.1293C28.0789 21.3688 28.2267 21.6207 28.3553 21.8827C28.4666 22.1218 28.5585 22.3697 28.6301 22.624C28.9169 23.4871 28.9169 24.4221 28.6301 25.2852C28.5583 25.5434 28.4664 25.7953 28.3553 26.0387C28.225 26.2842 28.0773 26.5198 27.9133 26.7435V26.7435ZM28.3553 30.9967C28.4666 31.2358 28.5585 31.4837 28.6301 31.738C28.9169 32.6011 28.9169 33.5361 28.6301 34.3993C28.5585 34.6536 28.4666 34.9015 28.3553 35.1405C28.2294 35.404 28.0815 35.6561 27.9133 35.894C27.6218 36.3058 27.2668 36.6669 26.8619 36.9633C26.0163 36.5179 25.0782 36.2846 24.1259 36.2828C23.1742 36.2892 22.2371 36.5223 21.3899 36.9633C20.8025 36.5387 20.3194 35.9819 19.9782 35.3363C19.6369 34.6907 19.4468 33.9737 19.4225 33.2411C19.3982 32.5086 19.5405 31.7802 19.8382 31.1127C20.1359 30.4452 20.5811 29.8566 21.139 29.3926C21.3506 29.2128 21.5786 29.0541 21.82 28.9187C22.1288 28.7378 22.4577 28.595 22.7997 28.4934C23.2294 28.3573 23.6759 28.2837 24.1259 28.2746C24.5797 28.2851 25.0299 28.3587 25.464 28.4934C25.8052 28.5976 26.1338 28.7402 26.4437 28.9187C26.6813 29.0543 26.9054 29.213 27.1128 29.3926C27.4125 29.6421 27.6813 29.9278 27.9133 30.2433C28.0789 30.4828 28.2267 30.7347 28.3553 30.9967V30.9967ZM45.7032 31.738C45.925 31.738 46.1377 31.8276 46.2946 31.9871C46.4514 32.1466 46.5395 32.363 46.5395 32.5886V33.5486C46.5395 33.7742 46.4514 33.9906 46.2946 34.1501C46.1377 34.3096 45.925 34.3993 45.7032 34.3993H30.1714C30.3624 33.5228 30.3624 32.6144 30.1714 31.738H45.7032ZM27.9133 39.7462C28.0814 39.9798 28.2293 40.2278 28.3553 40.4874C28.4645 40.7274 28.5563 40.9752 28.6301 41.2287C28.7628 41.6619 28.8352 42.1118 28.8452 42.5654C28.8341 43.0149 28.7617 43.4607 28.6301 43.89C28.5583 44.1482 28.4664 44.4001 28.3553 44.6434C28.2266 44.9015 28.0788 45.1493 27.9133 45.3847C27.5111 45.9404 26.9953 46.4009 26.4014 46.7344C25.8075 47.068 25.1495 47.2666 24.4729 47.3168C23.7963 47.3669 23.117 47.2673 22.4818 47.0248C21.8467 46.7823 21.2707 46.4027 20.7936 45.9121C20.3165 45.4215 19.9496 44.8316 19.7182 44.1829C19.4867 43.5343 19.3962 42.8423 19.4529 42.1547C19.5095 41.4671 19.712 40.8001 20.0464 40.1997C20.3808 39.5993 20.8392 39.0797 21.3899 38.6768C21.6307 38.4966 21.8913 38.3457 22.1665 38.2272C22.6452 38.002 23.1585 37.8622 23.6838 37.814C23.8272 37.814 23.9706 37.814 24.1259 37.814C24.2812 37.814 24.4246 37.814 24.5799 37.814C25.1046 37.8656 25.6173 38.0053 26.0972 38.2272C26.3673 38.3486 26.6237 38.4993 26.8619 38.6768C27.2695 38.9699 27.625 39.3316 27.9133 39.7462V39.7462ZM45.7032 41.2287C45.924 41.2318 46.135 41.3225 46.2911 41.4813C46.4473 41.6402 46.5364 41.8547 46.5395 42.0794V43.0029C46.5364 43.2264 46.4469 43.4396 46.2904 43.5966C46.1339 43.7535 45.9229 43.8414 45.7032 43.8414H30.1714C30.2681 43.4068 30.3162 42.9624 30.3147 42.5168C30.3157 42.0672 30.2676 41.6189 30.1714 41.1801L45.7032 41.2287ZM45.7032 22.5875C45.925 22.5875 46.1377 22.6771 46.2946 22.8366C46.4514 22.9962 46.5395 23.2125 46.5395 23.4381V24.3982C46.5395 24.6238 46.4514 24.8401 46.2946 24.9996C46.1377 25.1592 45.925 25.2488 45.7032 25.2488H30.1714C30.2675 24.8141 30.3156 24.3698 30.3147 23.9242C30.3157 23.4746 30.2676 23.0263 30.1714 22.5875H45.7032Z" fill="#0349C3"/>
<path d="M27.234 21.7607C27.066 21.59 26.8383 21.4941 26.6008 21.4941C26.3633 21.4941 26.1356 21.59 25.9676 21.7607L25.8959 21.8457L25.0237 22.7328L24.1277 23.6442L23.6378 24.1425L23.3989 23.8994L22.7298 23.2068L22.3116 22.7693C22.1418 22.6083 21.9171 22.5207 21.6849 22.5248C21.4528 22.529 21.2313 22.6246 21.0671 22.7916C20.903 22.9586 20.8089 23.1839 20.8048 23.42C20.8007 23.6561 20.8869 23.8846 21.0452 24.0574L23.0285 26.0746C23.1964 26.2456 23.4241 26.3418 23.6617 26.342C23.8582 26.3342 24.0468 26.2617 24.1993 26.1354L24.2949 26.0746L24.737 25.6129L25.2627 25.0903L27.2579 23.0488C27.3927 22.93 27.4816 22.7663 27.5088 22.587C27.5387 22.4579 27.5381 22.3233 27.5069 22.1944C27.4758 22.0656 27.415 21.9461 27.3296 21.8457C27.3041 21.8108 27.2715 21.7817 27.234 21.7607Z" fill="white"/>
<path d="M25.9676 30.912L25.8959 30.9971L25.0237 31.8842L24.1277 32.7835L23.6378 33.2938L23.3989 33.0508L22.7298 32.346L22.3116 31.9207C22.1418 31.7597 21.9171 31.672 21.6849 31.6762C21.4528 31.6804 21.2313 31.776 21.0671 31.943C20.903 32.11 20.8089 32.3353 20.8048 32.5714C20.8007 32.8075 20.8869 33.036 21.0452 33.2088L23.0285 35.226C23.1964 35.397 23.4241 35.4931 23.6617 35.4934C23.8582 35.4855 24.0468 35.413 24.1993 35.2868H24.2949L24.737 34.825L25.2627 34.3025L27.2579 32.2609C27.3816 32.1367 27.4614 31.9743 27.4849 31.7991C27.5146 31.6708 27.5149 31.5373 27.4859 31.4088C27.4569 31.2803 27.3994 31.1602 27.3176 31.0579L27.2579 30.9728C27.1784 30.8805 27.0814 30.8056 26.9727 30.7523C26.8641 30.6991 26.7459 30.6688 26.6255 30.6631C26.505 30.6574 26.3846 30.6765 26.2716 30.7193C26.1585 30.7621 26.0551 30.8277 25.9676 30.912Z" fill="white"/>
<path d="M25.8942 40.4872L25.022 41.3743L24.126 42.2857L23.6361 42.7839L23.3972 42.5409L22.7281 41.8482L22.3099 41.4107C22.1419 41.24 21.9142 41.1442 21.6767 41.1442C21.4392 41.1442 21.2115 41.24 21.0435 41.4107C20.8778 41.5852 20.7852 41.8183 20.7852 42.0609C20.7852 42.3034 20.8778 42.5365 21.0435 42.711L23.0268 44.7161C23.1792 44.8809 23.3878 44.9803 23.6099 44.9939C23.832 45.0074 24.0508 44.9341 24.2215 44.789L24.3171 44.7161L24.7592 44.2665L25.2849 43.7318L27.2801 41.7024C27.4046 41.5738 27.4843 41.4074 27.5071 41.2284C27.5359 41.1001 27.5358 40.9667 27.5068 40.8384C27.4778 40.71 27.4208 40.59 27.3398 40.4872C27.3398 40.4872 27.3398 40.4872 27.2801 40.4143C27.1977 40.3283 27.0993 40.2599 26.9905 40.2133C26.8818 40.1666 26.7649 40.1426 26.6469 40.1426C26.5289 40.1426 26.412 40.1666 26.3033 40.2133C26.1945 40.2599 26.096 40.3283 26.0137 40.4143L25.8942 40.4872Z" fill="white"/>
</g>
<defs>
<clipPath id="clip0_1193_10106">
<rect width="64" height="64" fill="white" transform="translate(0 0.5)"/>
</clipPath>
</defs>
</svg>
