<svg width="100" height="101" viewBox="0 0 100 101" fill="none" xmlns="http://www.w3.org/2000/svg">
<circle cx="50" cy="50.5" r="49.5" fill="#E2F1FF" stroke="#8DCFFF"/>
<path d="M82.0405 51.2292C82.0405 68.1787 68.4072 81.812 51.4578 81.812C34.5083 81.812 20.875 68.1787 20.875 51.2292C20.875 34.2798 34.5083 20.6465 51.4578 20.6465C68.223 20.6465 82.0405 34.2798 82.0405 51.2292Z" fill="white"/>
<path d="M56.9828 43.3073C59.8317 43.3073 62.1413 40.9978 62.1413 38.1488C62.1413 35.2998 59.8317 32.9902 56.9828 32.9902C54.1338 32.9902 51.8242 35.2998 51.8242 38.1488C51.8242 40.9978 54.1338 43.3073 56.9828 43.3073Z" fill="#D84440"/>
<path d="M33.2171 59.5202C36.0661 59.5202 38.3757 57.2106 38.3757 54.3617C38.3757 51.5127 36.0661 49.2031 33.2171 49.2031C30.3681 49.2031 28.0586 51.5127 28.0586 54.3617C28.0586 57.2106 30.3681 59.5202 33.2171 59.5202Z" fill="#EC5C54"/>
<path d="M61.4085 72.0475C64.2575 72.0475 66.5671 69.738 66.5671 66.889C66.5671 64.04 64.2575 61.7305 61.4085 61.7305C58.5596 61.7305 56.25 64.04 56.25 66.889C56.25 69.738 58.5596 72.0475 61.4085 72.0475Z" fill="#D84440"/>
<path d="M35.6171 41.6501C35.2487 41.6501 34.8802 41.6501 34.5117 41.6501L34.696 38.8866C37.2752 39.0708 39.1176 38.5181 40.0387 37.4127C40.7757 36.4915 40.9599 35.2019 40.5914 33.3595C40.0387 31.1487 40.223 29.3064 41.3284 27.8325C42.618 25.9902 44.8288 25.6217 45.013 25.4375L45.3815 28.201L45.1973 26.7271L45.3815 28.201C45.3815 28.201 44.2761 28.3852 43.7234 29.3064C43.1707 30.0433 43.1707 31.1487 43.5392 32.4384C44.2761 35.2019 43.9076 37.4127 42.4338 39.0708C40.9599 40.9131 38.5649 41.6501 35.6171 41.6501Z" fill="#364E57"/>
<path d="M73.1966 60.9937L70.9858 59.1514C72.6439 57.1248 73.3808 55.4667 73.0123 53.9928C72.8281 52.8874 71.7227 51.9663 70.0646 51.2293C68.038 50.3082 66.7484 49.0185 66.1957 47.3604C65.4588 45.1496 66.3799 43.3073 66.5642 43.123L69.1434 44.4127C69.1434 44.4127 68.5907 45.5181 68.9592 46.4393C69.3277 47.3604 70.0646 47.9131 71.3542 48.4658C73.9335 49.5712 75.5916 51.2293 75.9601 53.2559C76.3285 55.6509 75.4074 58.2302 73.1966 60.9937Z" fill="#293944"/>
<path d="M49.0617 79.0494L46.8509 76.4701L47.9563 77.7598L46.8509 76.4701C46.8509 76.4701 47.772 75.549 47.772 74.2593C47.772 73.1539 47.2193 72.0485 45.9297 70.9431C43.5347 68.7323 42.4293 66.153 42.6135 63.758C42.982 60.9945 45.0085 58.4152 48.509 56.3887L50.1671 59.3364C47.5878 60.8103 46.1139 62.6526 45.9297 64.3107C45.7455 65.6004 46.4824 67.0742 48.1405 68.7323C50.1671 70.5747 51.0882 72.417 51.0882 74.4436C51.2725 77.0228 49.4301 78.8652 49.0617 79.0494Z" fill="#364E57"/>
</svg>
