<svg width="22" height="16" viewBox="0 0 22 16" fill="none" xmlns="http://www.w3.org/2000/svg">
<path d="M0 1.04348C0 0.467181 0.461706 0 1.03125 0H20.9688C21.5383 0 22 0.467181 22 1.04348C22 1.61978 21.5383 2.08696 20.9688 2.08696H1.03125C0.461706 2.08696 0 1.61978 0 1.04348ZM0 8C0 7.4237 0.461706 6.95652 1.03125 6.95652H20.9688C21.5383 6.95652 22 7.4237 22 8C22 8.5763 21.5383 9.04348 20.9688 9.04348H1.03125C0.461706 9.04348 0 8.5763 0 8ZM1.03125 13.913C0.461706 13.913 0 14.3802 0 14.9565C0 15.5328 0.461706 16 1.03125 16H20.9688C21.5383 16 22 15.5328 22 14.9565C22 14.3802 21.5383 13.913 20.9688 13.913H1.03125Z" fill="#072A83"/>
</svg>
