<svg width="18" height="18" viewBox="0 0 18 18" fill="none" xmlns="http://www.w3.org/2000/svg">
<path d="M7.55068 1.875C10.6853 1.875 13.2264 4.41609 13.2264 7.55068C13.2264 8.84484 12.7932 10.0378 12.064 10.9926L15.6534 14.5831C15.9489 14.8787 15.9489 15.3578 15.6534 15.6534C15.3806 15.9262 14.9513 15.9471 14.6544 15.7163L14.5831 15.6534L10.9926 12.064C10.0378 12.7932 8.84484 13.2264 7.55068 13.2264C4.41609 13.2264 1.875 10.6853 1.875 7.55068C1.875 4.41609 4.41609 1.875 7.55068 1.875ZM7.55068 3.38851C5.25198 3.38851 3.38851 5.25198 3.38851 7.55068C3.38851 9.84937 5.25198 11.7128 7.55068 11.7128C9.84937 11.7128 11.7128 9.84937 11.7128 7.55068C11.7128 5.25198 9.84937 3.38851 7.55068 3.38851Z" fill="#2C2F31"/>
</svg>
