<svg width="20" height="20" viewBox="0 0 20 20" fill="none" xmlns="http://www.w3.org/2000/svg">
<path d="M8.06555 0.714844C12.1255 0.714844 15.4167 4.00608 15.4167 8.06604C15.4167 9.67706 14.8985 11.167 14.0197 12.3784L18.9458 17.3048C19.3991 17.7581 19.3991 18.493 18.9458 18.9463C18.5209 19.3713 17.8484 19.3978 17.3925 19.026L17.3043 18.9463L12.3779 14.0202C11.1665 14.899 9.67657 15.4172 8.06555 15.4172C4.0056 15.4172 0.714355 12.126 0.714355 8.06604C0.714355 4.00608 4.0056 0.714844 8.06555 0.714844ZM8.06555 3.03627C5.28769 3.03627 3.03578 5.28817 3.03578 8.06604C3.03578 10.8439 5.28769 13.0958 8.06555 13.0958C10.8434 13.0958 13.0953 10.8439 13.0953 8.06604C13.0953 5.28817 10.8434 3.03627 8.06555 3.03627Z" fill="#2C2F31"/>
</svg>
