<svg width="20" height="20" viewBox="0 0 20 20" fill="none" xmlns="http://www.w3.org/2000/svg">
<path d="M7.91667 0C12.2889 0 15.8333 3.54441 15.8333 7.91667C15.8333 9.65161 15.2752 11.2562 14.3288 12.5607L19.6339 17.8661C20.122 18.3543 20.122 19.1457 19.6339 19.6339C19.1762 20.0915 18.452 20.1201 17.9611 19.7197L17.8661 19.6339L12.5607 14.3288C11.2562 15.2752 9.65161 15.8333 7.91667 15.8333C3.54441 15.8333 0 12.2889 0 7.91667C0 3.54441 3.54441 0 7.91667 0ZM7.91667 2.5C4.92512 2.5 2.5 4.92512 2.5 7.91667C2.5 10.9082 4.92512 13.3333 7.91667 13.3333C10.9082 13.3333 13.3333 10.9082 13.3333 7.91667C13.3333 4.92512 10.9082 2.5 7.91667 2.5Z" fill="#CAD1D5"/>
</svg>
