<svg width="20" height="22" viewBox="0 0 20 22" fill="none" xmlns="http://www.w3.org/2000/svg">
<path d="M19 7V18.25C19 20.3211 17.3211 22 15.25 22H4.75C2.67893 22 1 20.3211 1 18.25V7H19ZM12.25 10.5H7.75C7.33579 10.5 7 10.8358 7 11.25C7 11.6642 7.33579 12 7.75 12H12.25C12.6642 12 13 11.6642 13 11.25C13 10.8358 12.6642 10.5 12.25 10.5ZM18.25 0C19.2165 0 20 0.783502 20 1.75V4.25C20 5.2165 19.2165 6 18.25 6H1.75C0.783502 6 0 5.2165 0 4.25V1.75C0 0.783502 0.783502 0 1.75 0H18.25Z" fill="white"/>
</svg>
