<svg width="24" height="28" viewBox="0 0 24 28" fill="none" xmlns="http://www.w3.org/2000/svg">
<path d="M3.63636 0C1.62806 0 0 1.567 0 3.5V24.5C0 26.433 1.62806 28 3.63636 28H22.9091C23.5116 28 24 27.5299 24 26.95C24 26.3701 23.5116 25.9 22.9091 25.9H3.63636C2.83304 25.9 2.18182 25.2732 2.18182 24.5H22.9091C23.5116 24.5 24 24.0299 24 23.45V3.5C24 1.567 22.3719 0 20.3636 0H3.63636ZM5.81818 4.2H17.4545C18.2579 4.2 18.9091 4.8268 18.9091 5.6V7C18.9091 7.7732 18.2579 8.4 17.4545 8.4H5.81818C5.01486 8.4 4.36364 7.7732 4.36364 7V5.6C4.36364 4.8268 5.01486 4.2 5.81818 4.2Z" fill="#217FEF"/>
</svg>
