<svg width="64" height="65" viewBox="0 0 64 65" fill="none" xmlns="http://www.w3.org/2000/svg">
<g clip-path="url(#clip0_1193_12539)">
<path d="M63.5 32.5C63.5 49.897 49.397 64 32 64C14.603 64 0.5 49.897 0.5 32.5C0.5 15.103 14.603 1 32 1C49.397 1 63.5 15.103 63.5 32.5Z" fill="#F0F8FF" stroke="#E2F1FF"/>
<path d="M26.1718 32.5469H25.8047V35.2393H26.0495C26.9061 35.2393 27.2733 34.7498 27.2733 33.8931C27.2733 33.4036 27.1509 33.0364 27.0285 32.7916C26.9061 32.6693 26.6614 32.5469 26.1718 32.5469Z" fill="white"/>
<path d="M31.1894 33.0371C31.1894 33.1595 31.067 33.2819 31.067 33.2819L30.8223 34.1386H31.5566L31.1894 33.0371Z" fill="white"/>
<path d="M43.1833 32.9141V21.4102H37.9208V22.634C37.9208 23.0011 37.6761 23.2459 37.3089 23.2459H34.8613C34.4941 23.2459 34.2494 23.0011 34.2494 22.634V21.4102H24.7035V22.634C24.7035 23.0011 24.4588 23.2459 24.0916 23.2459H21.644C21.2768 23.2459 21.0321 23.0011 21.0321 22.634V21.4102H16.5039V42.2152H35.9627C35.8403 41.6033 35.7179 40.9913 35.7179 40.3794C35.7179 36.2184 39.0223 32.9141 43.1833 32.9141ZM17.1158 26.3055C17.1158 26.0607 17.2382 25.9383 17.483 25.9383H42.2042C42.449 25.9383 42.5714 26.0607 42.5714 26.3055C42.5714 26.5502 42.449 26.6726 42.2042 26.6726H17.483C17.2382 26.6726 17.1158 26.5502 17.1158 26.3055ZM23.2349 36.4632H21.8887V33.526C21.8887 33.4036 21.8887 33.2813 21.8887 33.0365L21.1544 33.6484L20.4201 32.7917L22.1335 31.4455H23.2349V36.4632V36.4632ZM26.0497 36.4632H24.4588V31.3231H26.1721C26.6616 31.3231 27.1512 31.4455 27.5183 31.5679C27.8855 31.8127 28.2526 32.0574 28.4974 32.4246C28.7421 32.7917 28.8645 33.2813 28.8645 33.7708C28.8645 34.6275 28.6198 35.2394 28.1302 35.7289C27.5183 36.2184 26.9064 36.4632 26.0497 36.4632ZM32.2912 36.4632L31.9241 35.3618H30.4555L30.0884 36.4632H28.6198L30.4555 31.3231H31.9241L33.7598 36.4632H32.2912ZM32.7808 31.3231H34.2494L35.106 33.0365L35.9627 31.3231H37.4313L35.8403 34.5051V36.4632H34.4941V34.5051L32.7808 31.3231Z" fill="white"/>
<path d="M23.6008 21.4111V19.453V18.3516H22.377V19.453V21.4111V22.023H23.6008V21.4111Z" fill="white"/>
<path d="M36.6965 21.4111V19.453V18.3516H35.4727V19.453V21.4111V22.023H36.6965V21.4111Z" fill="white"/>
<path d="M45.1411 34.75C44.5292 34.5052 43.9172 34.3828 43.3053 34.3828C43.3053 34.3828 43.3053 34.3828 43.183 34.3828C40.001 34.3828 37.3086 37.0752 37.3086 40.3796C37.3086 40.9915 37.431 41.6034 37.6757 42.2153C37.9205 42.9496 38.2877 43.5615 38.7772 44.1734C39.8786 45.5196 41.4696 46.3763 43.3053 46.3763C46.6097 46.3763 49.3021 43.6839 49.3021 40.3796C49.1797 37.8095 47.4663 35.6066 45.1411 34.75ZM47.0992 39.2781L45.1411 41.2362L43.4277 42.9496C43.183 43.1944 42.9382 43.3167 42.6934 43.3167C42.4487 43.3167 42.0815 43.1944 41.9591 42.9496L41.2248 42.2153L39.5115 40.5019C39.0219 40.0124 39.0219 39.4005 39.5115 38.911C40.001 38.4214 40.6129 38.4214 41.1024 38.911L41.592 39.4005L42.6934 40.5019L43.183 40.0124L44.4068 38.7886L45.1411 38.0543L45.5082 37.6871C45.9977 37.1976 46.6097 37.1976 47.0992 37.6871C47.4663 38.1767 47.4663 38.911 47.0992 39.2781Z" fill="white"/>
<path d="M46.7314 34.9941C45.9971 34.7493 45.2628 34.627 44.4061 34.627C44.4061 34.627 44.4061 34.627 44.2837 34.627C40.3675 34.627 37.1855 37.8089 37.1855 41.7251C37.1855 42.4594 37.3079 43.1937 37.5527 43.928C37.7975 44.7847 38.287 45.6414 38.8989 46.2533C40.2451 47.8443 42.2032 48.8233 44.4061 48.8233C48.3223 48.8233 51.6267 45.6414 51.6267 41.6028C51.6267 38.6656 49.5462 35.9732 46.7314 34.9941Z" fill="#8DCFFF"/>
<path d="M42.6932 26.3066C42.6932 26.0618 42.5708 25.9395 42.326 25.9395H17.4824C17.2376 25.9395 17.1152 26.0618 17.1152 26.3066C17.1152 26.5514 17.2376 26.6737 17.4824 26.6737H42.2036C42.4484 26.6737 42.6932 26.5514 42.6932 26.3066Z" fill="#0349C3"/>
<path d="M45.1405 33.1591V21.4103C45.1405 20.3089 44.2839 19.4522 43.1824 19.4522H37.92V17.7389C37.92 17.3717 37.6752 17.127 37.3081 17.127H34.8604C34.4933 17.127 34.2485 17.3717 34.2485 17.7389V19.4522H24.7027V17.7389C24.7027 17.3717 24.4579 17.127 24.0908 17.127H21.6431C21.276 17.127 21.0312 17.3717 21.0312 17.7389V19.4522H16.503C15.4016 19.4522 14.5449 20.3089 14.5449 21.4103V42.2154C14.5449 43.3168 15.4016 44.1735 16.503 44.1735H36.6961C38.0424 46.3764 40.3676 47.8449 43.1824 47.8449C47.3434 47.8449 50.6477 44.4182 50.6477 40.3796C50.7701 36.9529 48.3225 34.0157 45.1405 33.1591ZM38.6543 44.1735C38.1647 43.5616 37.7976 42.9496 37.5528 42.2154C37.3081 41.6034 37.1857 40.9915 37.1857 40.3796C37.1857 37.0753 39.7557 34.5053 43.06 34.3829C43.06 34.3829 43.06 34.3829 43.1824 34.3829C43.7943 34.3829 44.5286 34.5053 45.0181 34.75C47.3434 35.4843 49.0568 37.6872 49.0568 40.3796C49.0568 43.6839 46.3644 46.3764 43.06 46.3764C41.4691 46.3764 39.7557 45.5197 38.6543 44.1735ZM35.4723 19.4522V18.3508H36.6961V19.4522V21.4103V22.0223H35.4723V21.4103V19.4522ZM22.3774 19.4522V18.3508H23.6012V19.4522V21.4103V22.0223H22.3774V21.4103V19.4522ZM16.503 42.2154V21.4103H21.0312V22.6342C21.0312 23.0013 21.276 23.2461 21.6431 23.2461H24.0908C24.4579 23.2461 24.7027 23.0013 24.7027 22.6342V21.4103H34.2485V22.6342C34.2485 23.0013 34.4933 23.2461 34.8604 23.2461H37.3081C37.6752 23.2461 37.92 23.0013 37.92 22.6342V21.4103H43.1824V32.9143C39.0214 32.9143 35.7171 36.341 35.7171 40.3796C35.7171 40.9915 35.8395 41.6034 35.9619 42.2154H16.503Z" fill="#0349C3"/>
<path d="M45.5078 37.8086L45.1406 38.1757L44.4063 38.91L43.1825 40.1338L42.693 40.6233L41.5915 39.5219L40.9796 39.0324C40.4901 38.5428 39.8782 38.5428 39.3886 39.0324C38.8991 39.5219 38.8991 40.1338 39.3886 40.6233L41.102 42.3367L41.8363 43.071C42.081 43.3158 42.3258 43.4381 42.5706 43.4381C42.8153 43.4381 43.1825 43.3158 43.3049 43.071L45.0182 41.3576L46.9763 39.3995C47.4659 38.91 47.4659 38.2981 46.9763 37.8086C46.6092 37.319 45.9973 37.319 45.5078 37.8086Z" fill="white"/>
<path d="M20.4199 32.6698L21.1542 33.5264L21.8885 32.9145C21.8885 33.1593 21.8885 33.2817 21.8885 33.4041V36.3412H23.2347V31.2012H22.1333L20.4199 32.6698Z" fill="#0349C3"/>
<path d="M28.4976 32.5468C28.2528 32.1796 28.0081 31.9348 27.5185 31.6901C27.1514 31.4453 26.6619 31.4453 26.1723 31.4453H24.459V36.5854H26.05C26.9066 36.5854 27.6409 36.3406 28.1305 35.9735C28.62 35.4839 28.8648 34.872 28.8648 34.0153C28.8648 33.281 28.7424 32.9139 28.4976 32.5468ZM26.1723 35.2392H25.9276V32.5468H26.2947C26.6619 32.5468 27.029 32.6691 27.1514 32.9139C27.3962 33.1587 27.3962 33.5258 27.3962 34.0153C27.3962 34.872 27.029 35.2392 26.1723 35.2392Z" fill="#0349C3"/>
<path d="M30.4549 31.3242L28.6191 36.4643H30.0877L30.4549 35.3628H31.9235L32.2906 36.4643H33.7592L31.9235 31.3242H30.4549V31.3242ZM31.5563 34.139H30.822L31.0668 33.2823C31.0668 33.2823 31.0668 33.16 31.1892 33.0376V32.9152L31.5563 34.139Z" fill="#0349C3"/>
<path d="M35.8389 36.4643V34.5062L37.5522 31.3242H36.0836L35.2269 33.0376L34.3703 31.3242H32.7793L34.4927 34.5062V36.4643H35.8389Z" fill="#0349C3"/>
</g>
<defs>
<clipPath id="clip0_1193_12539">
<rect width="64" height="64" fill="white" transform="translate(0 0.5)"/>
</clipPath>
</defs>
</svg>
