<svg width="29" height="28" viewBox="0 0 29 28" fill="none" xmlns="http://www.w3.org/2000/svg">
<path d="M12.4167 4C16.7889 4 20.3333 7.54441 20.3333 11.9167C20.3333 13.6516 19.7752 15.2562 18.8288 16.5607L24.1339 21.8661C24.622 22.3543 24.622 23.1457 24.1339 23.6339C23.6762 24.0915 22.952 24.1201 22.4611 23.7197L22.3661 23.6339L17.0607 18.3288C15.7562 19.2752 14.1516 19.8333 12.4167 19.8333C8.04441 19.8333 4.5 16.2889 4.5 11.9167C4.5 7.54441 8.04441 4 12.4167 4ZM12.4167 6.5C9.42512 6.5 7 8.92512 7 11.9167C7 14.9082 9.42512 17.3333 12.4167 17.3333C15.4082 17.3333 17.8333 14.9082 17.8333 11.9167C17.8333 8.92512 15.4082 6.5 12.4167 6.5Z" fill="white"/>
</svg>
