<svg width="200" height="200" viewBox="0 0 200 200" fill="none" xmlns="http://www.w3.org/2000/svg">
<circle cx="100" cy="100" r="99.5" fill="#F0F8FF" stroke="#C5E6FF"/>
<g clip-path="url(#clip0_1333_48349)">
<path d="M52.5983 124.956C52.3351 124.954 52.0802 124.864 51.8749 124.699C51.6345 124.507 51.48 124.227 51.445 123.921C51.4101 123.615 51.4975 123.308 51.6883 123.066C55.9933 117.606 60.4616 114.654 64.9416 114.281C67.6812 114.034 70.4083 114.872 72.5366 116.614C72.7656 116.823 72.9022 117.114 72.9164 117.424C72.9306 117.733 72.8213 118.036 72.6124 118.265C72.509 118.378 72.3843 118.47 72.2454 118.535C72.1064 118.601 71.956 118.638 71.8027 118.645C71.4931 118.659 71.1906 118.55 70.9616 118.341C69.3052 117.052 67.2163 116.45 65.1283 116.661C61.3249 116.987 57.4399 119.647 53.5666 124.559C53.4472 124.696 53.2975 124.803 53.1294 124.872C52.9613 124.941 52.7794 124.97 52.5983 124.956Z" fill="#FFCB69"/>
<path d="M127.219 75.9551L127.184 75.9784L127.195 75.9551H127.219Z" fill="#B2CF13"/>
<path d="M150.167 70.553C149.796 72.3596 148.924 74.0253 147.651 75.36C146.378 76.6947 144.756 77.6447 142.969 78.1013C141.282 78.4869 139.54 78.5698 137.824 78.3463C136.838 78.2303 135.863 78.0392 134.907 77.7747L127.207 75.978L127.3 75.5813C129.727 69.608 134.067 67.263 140.227 68.1963L147.985 70.028H148.09L150.167 70.553Z" fill="#B2CF13"/>
<path d="M126.949 75.8516L126.973 75.8749V75.8632L126.949 75.8516Z" fill="#B2CF13"/>
<path d="M108.749 60.8594C108.289 62.6457 108.339 64.5252 108.894 66.2845C109.449 68.0437 110.486 69.612 111.888 70.811C113.233 71.8981 114.757 72.7429 116.391 73.3077C117.328 73.6356 118.287 73.8968 119.261 74.0894L126.961 75.886L127.054 75.4894C127.533 69.061 124.721 64.9894 118.736 63.146L110.978 61.361H110.861L108.749 60.8594Z" fill="#B2CF13"/>
<path d="M123.777 82.6298L122.785 82.0115C131.827 67.5798 130.73 54.1981 130.718 54.0698L131.885 53.9531C131.885 54.0931 133.04 67.8481 123.777 82.6298Z" fill="#B2CF13"/>
<path d="M128.325 54.5473C130.593 54.5473 132.432 52.7087 132.432 50.4407C132.432 48.1726 130.593 46.334 128.325 46.334C126.057 46.334 124.219 48.1726 124.219 50.4407C124.219 52.7087 126.057 54.5473 128.325 54.5473Z" fill="#E34E4B"/>
<path d="M135.302 54.7231C137.57 54.7231 139.409 52.8845 139.409 50.6164C139.409 48.3484 137.57 46.5098 135.302 46.5098C133.034 46.5098 131.195 48.3484 131.195 50.6164C131.195 52.8845 133.034 54.7231 135.302 54.7231Z" fill="#CC3636"/>
<path d="M137.169 60.9165C139.437 60.9165 141.276 59.0778 141.276 56.8098C141.276 54.5417 139.437 52.7031 137.169 52.7031C134.901 52.7031 133.062 54.5417 133.062 56.8098C133.062 59.0778 134.901 60.9165 137.169 60.9165Z" fill="#E34E4B"/>
<path d="M133.552 65.5727C135.82 65.5727 137.659 63.7341 137.659 61.466C137.659 59.198 135.82 57.3594 133.552 57.3594C131.284 57.3594 129.445 59.198 129.445 61.466C129.445 63.7341 131.284 65.5727 133.552 65.5727Z" fill="#CC3636"/>
<path d="M124.404 59.9379C126.672 59.9379 128.51 58.0993 128.51 55.8313C128.51 53.5632 126.672 51.7246 124.404 51.7246C122.135 51.7246 120.297 53.5632 120.297 55.8313C120.297 58.0993 122.135 59.9379 124.404 59.9379Z" fill="#CC3636"/>
<path d="M127.415 64.5922C129.683 64.5922 131.522 62.7536 131.522 60.4856C131.522 58.2175 129.683 56.3789 127.415 56.3789C125.147 56.3789 123.309 58.2175 123.309 60.4856C123.309 62.7536 125.147 64.5922 127.415 64.5922Z" fill="#E34E4B"/>
<path d="M131.173 59.5981C133.441 59.5981 135.28 57.7595 135.28 55.4914C135.28 53.2234 133.441 51.3848 131.173 51.3848C128.905 51.3848 127.066 53.2234 127.066 55.4914C127.066 57.7595 128.905 59.5981 131.173 59.5981Z" fill="#EA5B58"/>
<path d="M132.912 51.7949C134.358 54.0349 132.912 57.9199 129.47 57.3716C128.991 57.306 128.532 57.1335 128.128 56.867C127.724 56.6004 127.386 56.2466 127.137 55.8316C127.196 56.5479 127.442 57.2361 127.851 57.827C128.26 58.418 128.818 58.8908 129.467 59.1981C130.117 59.5054 130.836 59.6362 131.553 59.5775C132.269 59.5187 132.957 59.2725 133.548 58.8635C134.139 58.4545 134.612 57.8972 134.92 57.2475C135.227 56.5978 135.358 55.8787 135.299 55.1624C135.241 54.446 134.995 53.7577 134.586 53.1666C134.177 52.5755 133.62 52.1024 132.97 51.7949H132.912Z" fill="#D84848"/>
<path d="M92.9035 97.9355L84.3168 98.6472C83.2435 98.6472 77.7485 96.3139 76.7802 96.7455L68.1585 100.607C68.0471 100.671 67.9159 100.69 67.7907 100.662C67.6655 100.634 67.5555 100.56 67.4823 100.454C67.4091 100.349 67.3781 100.22 67.3953 100.093C67.4124 99.9655 67.4766 99.8494 67.5752 99.7672L74.9718 92.3822C76.4815 90.8819 78.5252 90.0426 80.6535 90.0489H92.9035C93.7049 90.0489 94.4735 90.3672 95.0402 90.9339C95.6068 91.5006 95.9252 92.2691 95.9252 93.0705C95.9252 93.8719 95.6068 94.6405 95.0402 95.2072C94.4735 95.7738 93.7049 96.0922 92.9035 96.0922V97.9355Z" fill="#FFCB69"/>
<path d="M124.684 85.0317L124.929 84.7984C125.205 84.5271 125.423 84.2037 125.572 83.8472C125.721 83.4907 125.798 83.1082 125.798 82.7217C125.798 82.3353 125.721 81.9527 125.572 81.5962C125.423 81.2397 125.205 80.9164 124.929 80.6451L123.623 79.3384C123.07 78.7877 122.321 78.4785 121.54 78.4785C120.76 78.4785 120.011 78.7877 119.458 79.3384L119.213 79.5717C118.695 79.0609 117.997 78.7745 117.27 78.7745C116.543 78.7745 115.845 79.0609 115.328 79.5717L114.161 80.7384C113.906 80.4827 113.604 80.2797 113.27 80.1413C112.937 80.0028 112.579 79.9315 112.219 79.9315C111.858 79.9315 111.5 80.0028 111.167 80.1413C110.833 80.2797 110.531 80.4827 110.276 80.7384C109.109 81.9051 107.733 84.7051 108.911 85.8717L117.918 94.8667C119.084 96.0334 122.386 95.1584 123.564 93.9801C123.82 93.7263 124.022 93.4246 124.161 93.0922C124.299 92.7599 124.37 92.4034 124.37 92.0434C124.37 91.6834 124.299 91.327 124.161 90.9946C124.022 90.6622 123.82 90.3605 123.564 90.1067L124.731 88.9401C124.986 88.6873 125.189 88.3866 125.327 88.0552C125.465 87.7238 125.536 87.3683 125.536 87.0092C125.536 86.6502 125.465 86.2947 125.327 85.9633C125.189 85.6319 124.986 85.3311 124.731 85.0784L124.684 85.0317Z" fill="#FFCB69"/>
<path d="M122.073 94.2142L121.594 93.7476L110.686 82.8626L110.208 82.3842C108.565 80.7485 106.342 79.8301 104.024 79.8301C101.706 79.8301 99.483 80.7485 97.8409 82.3842L96.5225 83.7026C96.2925 83.9323 96.1101 84.2051 95.9856 84.5054C95.8611 84.8056 95.797 85.1275 95.797 85.4526C95.797 85.7776 95.8611 86.0995 95.9856 86.3998C96.1101 86.7001 96.2925 86.9729 96.5225 87.2026C96.0556 86.7437 95.4272 86.4866 94.7725 86.4866C94.1179 86.4866 93.4894 86.7437 93.0225 87.2026L76.0709 104.096C75.8409 104.326 75.6584 104.598 75.5339 104.899C75.4094 105.199 75.3453 105.521 75.3453 105.846C75.3453 106.171 75.4094 106.493 75.5339 106.793C75.6584 107.093 75.8409 107.366 76.0709 107.596C75.6025 107.14 74.9746 106.885 74.3209 106.885C73.6671 106.885 73.0392 107.14 72.5709 107.596L67.4725 112.683C65.3153 114.83 63.4376 117.24 61.8842 119.858L53.7409 133.554C53.2692 134.345 53.02 135.249 53.0195 136.169C53.0191 137.09 53.2675 137.994 53.7384 138.785C54.2093 139.577 54.8853 140.226 55.6949 140.665C56.5044 141.103 57.4175 141.315 58.3375 141.278L72.2442 140.764C72.4272 140.756 72.604 140.695 72.753 140.589C72.902 140.483 73.0169 140.335 73.0837 140.164C73.1504 139.994 73.1661 139.808 73.129 139.628C73.0918 139.449 73.0033 139.284 72.8742 139.154L73.0609 139.341C73.4888 139.77 74.0076 140.098 74.579 140.3C75.1505 140.502 75.76 140.573 76.3625 140.508C84.7387 139.66 92.5669 135.951 98.5292 130.008L111.199 117.396C111.658 116.929 111.915 116.301 111.915 115.646C111.915 114.991 111.658 114.363 111.199 113.896C111.429 114.126 111.702 114.308 112.002 114.433C112.302 114.557 112.624 114.621 112.949 114.621C113.274 114.621 113.596 114.557 113.896 114.433C114.197 114.308 114.469 114.126 114.699 113.896L122.049 106.569C122.862 105.761 123.508 104.801 123.948 103.743C124.388 102.684 124.615 101.55 124.615 100.403C124.615 99.2573 124.388 98.1224 123.948 97.0642C123.508 96.006 122.862 95.0454 122.049 94.2376L122.073 94.2142Z" fill="#FFE4B0"/>
<path d="M122.074 94.2141L121.595 93.7474L110.687 82.8624L110.209 82.3841C109.008 81.1921 107.488 80.3729 105.832 80.0252C104.176 79.6774 102.454 79.816 100.875 80.4241C102.001 80.867 103.025 81.5338 103.885 82.3841L104.364 82.8624L115.284 93.7474L115.75 94.2141C116.563 95.0219 117.209 95.9826 117.649 97.0408C118.089 98.099 118.316 99.2338 118.316 100.38C118.316 101.526 118.089 102.661 117.649 103.719C117.209 104.777 116.563 105.738 115.75 106.546L108.4 113.872C108.171 114.102 107.898 114.285 107.598 114.409C107.297 114.534 106.975 114.598 106.65 114.598C106.325 114.598 106.003 114.534 105.703 114.409C105.403 114.285 105.13 114.102 104.9 113.872C105.13 114.102 105.313 114.375 105.437 114.675C105.562 114.976 105.626 115.297 105.626 115.622C105.626 115.948 105.562 116.269 105.437 116.57C105.313 116.87 105.13 117.143 104.9 117.372L92.242 129.972C87.1992 134.996 80.8018 138.442 73.832 139.889C74.5876 140.36 75.4784 140.565 76.3637 140.472C84.7399 139.624 92.5681 135.916 98.5304 129.972L111.2 117.396C111.659 116.929 111.916 116.3 111.916 115.646C111.916 114.991 111.659 114.363 111.2 113.896C111.43 114.126 111.703 114.308 112.003 114.433C112.303 114.557 112.625 114.621 112.95 114.621C113.275 114.621 113.597 114.557 113.898 114.433C114.198 114.308 114.471 114.126 114.7 113.896L122.05 106.569C122.863 105.761 123.509 104.801 123.949 103.742C124.389 102.684 124.616 101.549 124.616 100.403C124.616 99.2571 124.389 98.1223 123.949 97.0641C123.509 96.0059 122.863 95.0453 122.05 94.2374L122.074 94.2141Z" fill="#FFDD9C"/>
<path d="M106.475 98.063C106.257 98.0637 106.042 98.0031 105.857 97.888C101.716 95.3281 98.1879 91.8912 95.52 87.8197C95.424 87.6876 95.3568 87.5369 95.3226 87.3773C95.2885 87.2176 95.2883 87.0526 95.3219 86.8929C95.3556 86.7332 95.4224 86.5823 95.5181 86.45C95.6137 86.3177 95.736 86.2069 95.8772 86.1249C96.0183 86.0428 96.175 85.9913 96.3373 85.9736C96.4996 85.956 96.6638 85.9726 96.8193 86.0224C96.9747 86.0721 97.118 86.154 97.2399 86.2626C97.3617 86.3712 97.4594 86.5042 97.5267 86.653C100.013 90.4112 103.275 93.5936 107.093 95.9863C107.354 96.1499 107.539 96.4095 107.609 96.7087C107.679 97.008 107.628 97.3228 107.467 97.5847C107.354 97.7398 107.204 97.8647 107.031 97.9482C106.858 98.0316 106.667 98.071 106.475 98.063Z" fill="#FFCB69"/>
<path d="M99.906 98.0637C99.7155 98.0664 99.5272 98.0223 99.3577 97.9354C97.6658 97.0798 96.1618 95.895 94.9337 94.4506C93.7057 93.0062 92.7783 91.3312 92.206 89.5237C92.1624 89.3729 92.1497 89.2148 92.1687 89.0589C92.1877 88.9031 92.2379 88.7526 92.3164 88.6167C92.3949 88.4807 92.5 88.3619 92.6255 88.2675C92.751 88.1732 92.8942 88.1051 93.0466 88.0674C93.199 88.0296 93.3575 88.0231 93.5125 88.0481C93.6675 88.0731 93.8159 88.1291 93.9487 88.2128C94.0816 88.2965 94.1962 88.4061 94.2856 88.5352C94.3751 88.6642 94.4376 88.81 94.4693 88.9637C94.9643 90.4517 95.7476 91.8275 96.7746 93.0126C97.8015 94.1977 99.0519 95.1688 100.454 95.8704C100.682 95.9935 100.863 96.1891 100.968 96.4262C101.072 96.6634 101.095 96.9286 101.032 97.18C100.969 97.4315 100.824 97.6549 100.62 97.8149C100.417 97.9749 100.165 98.0625 99.906 98.0637Z" fill="#FFCB69"/>
<path d="M88.824 118.666C88.7427 118.678 88.6603 118.678 88.579 118.666C76.9123 116.135 74.929 107 74.8473 106.673C74.8167 106.52 74.8165 106.362 74.8468 106.209C74.8772 106.056 74.9374 105.91 75.024 105.78C75.1107 105.65 75.2221 105.538 75.352 105.451C75.4818 105.364 75.6274 105.304 75.7807 105.273C75.9339 105.242 76.0916 105.242 76.2449 105.273C76.3982 105.303 76.544 105.363 76.674 105.45C76.804 105.536 76.9156 105.648 77.0026 105.778C77.0895 105.908 77.15 106.053 77.1807 106.206C77.2507 106.556 78.9773 114.186 89.1157 116.391C89.2689 116.408 89.4174 116.454 89.5528 116.527C89.6882 116.601 89.8078 116.7 89.9047 116.82C90.0017 116.939 90.0741 117.077 90.1179 117.225C90.1617 117.373 90.1759 117.527 90.1598 117.681C90.1437 117.834 90.0976 117.982 90.0241 118.118C89.9506 118.253 89.8512 118.373 89.7315 118.47C89.6118 118.567 89.4741 118.639 89.3264 118.683C89.1787 118.727 89.0239 118.741 88.8707 118.725L88.824 118.666Z" fill="#FFCB69"/>
<path d="M80.5849 121.199C80.3665 121.2 80.1522 121.139 79.9666 121.024C69.6066 114.619 70.7266 108.272 70.7849 108.004C70.8133 107.851 70.8715 107.704 70.9563 107.574C71.0411 107.443 71.1509 107.33 71.2792 107.242C71.4076 107.154 71.5521 107.092 71.7045 107.059C71.8569 107.027 72.0142 107.025 72.1674 107.053C72.3206 107.081 72.4667 107.14 72.5974 107.224C72.7281 107.309 72.8409 107.419 72.9291 107.547C73.0174 107.676 73.0796 107.82 73.112 107.973C73.1445 108.125 73.1466 108.282 73.1182 108.436C73.1182 108.552 72.4416 113.604 81.2849 119.041C81.5 119.174 81.6659 119.373 81.7577 119.609C81.8494 119.845 81.862 120.104 81.7935 120.348C81.725 120.591 81.5792 120.806 81.3781 120.96C81.1769 121.113 80.9313 121.197 80.6782 121.199H80.5849Z" fill="#FFCB69"/>
<path d="M110.629 115.098C110.473 115.095 110.318 115.064 110.174 115.005C104.551 112.654 99.7721 108.656 96.4653 103.536C96.3693 103.404 96.3021 103.254 96.268 103.094C96.2338 102.934 96.2336 102.769 96.2673 102.61C96.3009 102.45 96.3677 102.299 96.4634 102.167C96.559 102.034 96.6813 101.924 96.8225 101.842C96.9636 101.76 97.1204 101.708 97.2827 101.69C97.4449 101.673 97.6091 101.689 97.7646 101.739C97.9201 101.789 98.0634 101.871 98.1852 101.979C98.3071 102.088 98.4048 102.221 98.472 102.37C101.554 107.027 105.935 110.678 111.072 112.87C111.318 112.975 111.521 113.161 111.646 113.398C111.771 113.635 111.811 113.907 111.759 114.17C111.707 114.432 111.567 114.669 111.361 114.84C111.155 115.011 110.896 115.107 110.629 115.11V115.098Z" fill="#FFCB69"/>
<path d="M73.8299 141.056H73.7016C64.9749 140.087 61.9649 129.809 61.8483 129.389C61.7652 129.094 61.8018 128.777 61.9503 128.509C62.0988 128.24 62.3472 128.041 62.6416 127.954C62.7895 127.911 62.9443 127.898 63.0972 127.916C63.2501 127.933 63.398 127.981 63.5325 128.055C63.6669 128.13 63.7853 128.231 63.8807 128.352C63.976 128.472 64.0466 128.611 64.0883 128.759C64.0883 128.852 66.8066 137.964 73.9583 138.757C74.2677 138.774 74.5577 138.914 74.7644 139.144C74.9712 139.375 75.0778 139.679 75.0608 139.988C75.0438 140.298 74.9045 140.588 74.6737 140.794C74.4429 141.001 74.1394 141.108 73.8299 141.091V141.056Z" fill="#FFCB69"/>
<path d="M111.375 131.22C111.133 131.222 110.897 131.149 110.699 131.01C110.447 130.832 110.277 130.561 110.224 130.257C110.172 129.953 110.242 129.641 110.419 129.389C110.5 129.284 117.57 119.285 119.192 114.84C120.72 110.675 118.259 104.62 118.235 104.562C118.176 104.42 118.146 104.267 118.147 104.113C118.147 103.959 118.178 103.806 118.238 103.664C118.297 103.522 118.384 103.393 118.494 103.285C118.604 103.177 118.734 103.091 118.877 103.034C119.162 102.917 119.481 102.919 119.765 103.037C120.049 103.155 120.275 103.38 120.394 103.664C120.51 103.955 123.229 110.664 121.385 115.645C119.647 120.312 112.624 130.31 112.332 130.73C112.224 130.883 112.08 131.007 111.913 131.092C111.747 131.177 111.562 131.221 111.375 131.22Z" fill="#FFCB69"/>
<path d="M121.419 127.895C121.208 127.895 121.001 127.837 120.82 127.728C120.639 127.619 120.492 127.463 120.392 127.277L117.207 121.222C117.072 120.949 117.049 120.634 117.143 120.344C117.237 120.054 117.44 119.813 117.71 119.671C117.98 119.529 118.294 119.499 118.586 119.586C118.878 119.673 119.124 119.871 119.272 120.137L122.457 126.192C122.587 126.461 122.608 126.77 122.517 127.054C122.426 127.338 122.229 127.577 121.967 127.72C121.802 127.824 121.614 127.884 121.419 127.895Z" fill="#FFCB69"/>
<path d="M114.336 125.97H108.503C108.193 125.97 107.896 125.847 107.678 125.628C107.459 125.41 107.336 125.113 107.336 124.803C107.336 124.494 107.459 124.197 107.678 123.978C107.896 123.76 108.193 123.637 108.503 123.637H114.336C114.645 123.637 114.942 123.76 115.161 123.978C115.38 124.197 115.503 124.494 115.503 124.803C115.503 125.113 115.38 125.41 115.161 125.628C114.942 125.847 114.645 125.97 114.336 125.97Z" fill="#FFCB69"/>
<path d="M50.9987 119.04C50.6893 119.04 50.3925 118.917 50.1737 118.699C49.955 118.48 49.832 118.183 49.832 117.874C49.832 117.564 49.955 117.268 50.1737 117.049C50.3925 116.83 50.6893 116.707 50.9987 116.707H58.757C59.0665 116.707 59.3632 116.83 59.582 117.049C59.8008 117.268 59.9237 117.564 59.9237 117.874C59.9237 118.183 59.8008 118.48 59.582 118.699C59.3632 118.917 59.0665 119.04 58.757 119.04H50.9987Z" fill="#FFCB69"/>
<path d="M102.392 129.494L101.494 122.494C101.47 122.304 101.427 122.116 101.366 121.934C101.366 121.934 100.876 120.896 100.572 120.768C100.262 120.479 99.8921 120.262 99.4892 120.131C99.0862 120 98.6596 119.959 98.2389 120.009H98.0639C92.0439 119.589 92.8606 131.034 93.2339 134.371L90.9006 137.346C89.7836 138.774 89.2762 140.585 89.4889 142.386L90.6556 152.548C90.6678 152.669 90.7218 152.782 90.8085 152.868C90.8951 152.954 91.0089 153.007 91.1304 153.018C91.2518 153.029 91.3733 152.997 91.474 152.928C91.5747 152.86 91.6483 152.758 91.6822 152.641L95.1356 141.453L101.401 133.286C102.216 132.201 102.572 130.839 102.392 129.494Z" fill="#FFCB69"/>
</g>
<defs>
<clipPath id="clip0_1333_48349">
<rect width="100.345" height="106.703" fill="white" transform="translate(49.832 46.334)"/>
</clipPath>
</defs>
</svg>
