<svg width="38" height="24" viewBox="0 0 38 24" fill="none" xmlns="http://www.w3.org/2000/svg">
<path fill-rule="evenodd" clip-rule="evenodd" d="M0.669556 12C0.669556 11.6464 0.810012 11.3073 1.06003 11.0573C1.31004 10.8073 1.64913 10.6669 2.0027 10.6669H33.4463L25.0555 2.2787C24.8051 2.02837 24.6645 1.68885 24.6645 1.33483C24.6645 0.980811 24.8051 0.641292 25.0555 0.390962C25.3058 0.140633 25.6453 8.34097e-09 25.9993 0C26.3534 -8.34097e-09 26.6929 0.140633 26.9432 0.390962L37.6084 11.0561C37.7325 11.18 37.831 11.3271 37.8982 11.489C37.9654 11.651 38 11.8246 38 12C38 12.1754 37.9654 12.349 37.8982 12.511C37.831 12.6729 37.7325 12.82 37.6084 12.9439L26.9432 23.609C26.6929 23.8594 26.3534 24 25.9993 24C25.6453 24 25.3058 23.8594 25.0555 23.609C24.8051 23.3587 24.6645 23.0192 24.6645 22.6652C24.6645 22.3112 24.8051 21.9716 25.0555 21.7213L33.4463 13.3331H2.0027C1.64913 13.3331 1.31004 13.1927 1.06003 12.9427C0.810012 12.6927 0.669556 12.3536 0.669556 12Z" fill="white"/>
</svg>
