<svg width="64" height="65" viewBox="0 0 64 65" fill="none" xmlns="http://www.w3.org/2000/svg">
<g clip-path="url(#clip0_1193_51536)">
<path d="M63.5 32.5C63.5 49.897 49.397 64 32 64C14.603 64 0.5 49.897 0.5 32.5C0.5 15.103 14.603 1 32 1C49.397 1 63.5 15.103 63.5 32.5Z" fill="#F0F8FF" stroke="#E2F1FF"/>
<path d="M43.5235 35.4219L42.4197 37.2984L40.2121 41.0513L39.7705 41.824L36.9006 46.7911L36.0176 48.2261H40.9847H43.4131H50.919L47.1661 41.824L43.5235 35.4219Z" fill="#0349C3"/>
<path d="M38.3348 39.727L34.5819 37.9609C34.03 38.9544 33.0365 39.727 31.8223 39.727C30.6081 39.727 29.5043 39.0647 29.0628 37.9609L23.2126 40.7205C21.5569 41.4931 20.6738 43.1489 20.6738 43.48V46.6811H34.3611L37.6725 40.9412L38.3348 39.727Z" fill="white"/>
<path d="M29.3939 33.9862C29.725 34.0966 29.9458 34.4277 29.9458 34.7589V36.8561C29.9458 36.9665 29.9458 37.0769 29.8354 37.1873C30.1666 37.9599 30.8288 38.5118 31.7119 38.5118C32.5949 38.5118 33.2572 37.9599 33.5884 37.1873C33.5884 37.0769 33.478 36.9665 33.478 36.8561V34.6485C33.478 34.3174 33.6988 33.9862 34.0299 33.8758C35.796 33.2135 37.4517 31.1163 38.2244 28.5775C38.5555 27.4737 38.7763 26.3699 38.7763 25.1557C38.7763 24.8246 38.7763 24.4934 38.7763 24.2727C38.5555 22.5066 37.8932 20.9612 36.8998 19.8574V22.617C36.8998 22.9481 36.5687 23.2792 36.2375 23.2792H27.1863C26.8551 23.2792 26.524 22.9481 26.524 22.617V19.8574C25.4202 21.0716 24.7579 22.7273 24.5371 24.4934C24.5371 24.8246 24.5371 25.0453 24.5371 25.3765C24.5371 26.4803 24.7579 27.5841 25.089 28.6879C25.9721 31.1163 27.6278 33.3239 29.3939 33.9862ZM33.3676 25.0453L35.3545 24.0519C35.5752 23.9415 35.9064 24.0519 36.1271 24.2727C36.2375 24.4934 36.1271 24.8246 35.9064 25.0453L34.6922 25.7076L35.9064 26.5907C36.1271 26.8114 36.2375 27.1426 36.0168 27.3633C35.9064 27.4737 35.796 27.5841 35.5752 27.5841C35.4649 27.5841 35.3545 27.5841 35.2441 27.4737L33.2572 26.0388C33.1468 25.9284 33.0365 25.7076 33.0365 25.5972C33.1468 25.2661 33.2572 25.1557 33.3676 25.0453ZM30.8288 28.9087L31.7119 29.7917L32.5949 28.9087C32.7053 28.7983 32.8157 28.7983 32.9261 28.7983C33.0365 28.7983 33.2572 28.9087 33.2572 28.9087L34.5818 30.2333C34.8026 30.454 34.8026 30.7852 34.5818 31.0059C34.361 31.2267 34.0299 31.2267 33.8091 31.0059L32.8157 30.0125L32.1534 30.8955C31.9327 31.1163 31.6015 31.1163 31.3807 30.8955L30.4977 30.0125L29.6146 30.8955C29.5043 31.0059 29.3939 31.0059 29.2835 31.0059C29.1731 31.0059 29.0627 31.0059 28.9524 30.8955C28.7316 30.6748 28.7316 30.3436 28.9524 30.1229L30.2769 28.7983C30.2769 28.6879 30.7185 28.6879 30.8288 28.9087ZM27.5174 24.2727C27.6278 24.0519 27.9589 23.9415 28.2901 24.0519L30.2769 25.0453C30.3873 25.1557 30.4977 25.2661 30.6081 25.4869C30.6081 25.7076 30.4977 25.818 30.3873 25.9284L28.4005 27.3633C28.2901 27.4737 28.1797 27.4737 28.0693 27.4737C27.8485 27.4737 27.7382 27.3633 27.6278 27.253C27.407 27.0322 27.5174 26.7011 27.7382 26.4803L28.9524 25.5972L27.7382 24.935C27.5174 24.8246 27.407 24.4934 27.5174 24.2727Z" fill="white"/>
<path d="M35.5753 18.643V17.6496V17.0977H34.4715H29.0628H27.959V17.5392V18.643V21.9544H35.5753V18.643Z" fill="white"/>
<path d="M36.4581 19.4164V18.423V17.8711H35.3543H29.8352H28.8418V18.423V19.4164V22.7279H36.4581V19.4164Z" fill="#8DCFFF"/>
<path d="M34.6935 30.8956C34.9143 30.6749 34.9143 30.3437 34.6935 30.123L33.3689 28.7984C33.2586 28.688 33.1482 28.688 33.0378 28.688C32.9274 28.688 32.7066 28.7984 32.7066 28.7984L31.8236 29.6814L30.9405 28.7984C30.7198 28.5776 30.3886 28.5776 30.1679 28.7984L28.8433 30.2333C28.6225 30.4541 28.6225 30.7852 28.8433 31.006C28.9537 31.1164 29.0641 31.1164 29.1744 31.1164C29.2848 31.1164 29.3952 31.1164 29.5056 31.006L30.3886 30.123L31.2717 31.006C31.4925 31.2268 31.8236 31.2268 32.0444 31.006L32.9274 30.123L33.9208 31.1164C34.1416 31.1164 34.5831 31.1164 34.6935 30.8956Z" fill="#0349C3"/>
<path d="M35.2447 27.3636C35.3551 27.4739 35.4655 27.4739 35.5759 27.4739C35.7966 27.4739 35.907 27.3636 36.0174 27.2532C36.2382 27.0324 36.1278 26.7013 35.907 26.4805L34.6928 25.5975L35.907 24.9352C36.1278 24.8248 36.2382 24.4936 36.1278 24.1625C36.0174 23.9417 35.6863 23.8314 35.3551 23.9417L33.3683 24.9352C33.2579 25.0456 33.1475 25.1559 33.0371 25.3767C33.0371 25.5975 33.1475 25.7078 33.2579 25.8182L35.2447 27.3636Z" fill="#0349C3"/>
<path d="M30.4985 25.4861C30.4985 25.2653 30.3881 25.1549 30.1674 25.0445L28.1805 24.0511C27.9598 23.9407 27.6286 24.0511 27.4078 24.2719C27.1871 24.4926 27.4078 24.8238 27.6286 25.0445L28.8428 25.7068L27.739 26.4795C27.5182 26.7003 27.4078 27.0314 27.6286 27.2522C27.739 27.3626 27.8494 27.4729 28.0701 27.4729C28.1805 27.4729 28.2909 27.4729 28.4013 27.3626L30.3881 25.9276C30.3881 25.8172 30.4985 25.5965 30.4985 25.4861Z" fill="#0349C3"/>
<path d="M47.2762 40.9404L43.8544 34.9798C43.5232 34.5382 43.0817 34.2071 42.4194 34.2071C41.7571 34.2071 41.3156 34.5382 40.9844 34.9798L39.108 38.2912L35.2446 36.4147V35.3109C37.2315 34.3175 38.7768 32.1099 39.6599 29.7919C39.8806 29.9022 40.1014 29.9022 40.3222 29.9022C41.7571 29.9022 42.8609 28.5777 42.8609 26.8116C42.8609 25.1558 41.7571 23.8313 40.4325 23.7209C40.1014 21.1821 38.7768 18.9745 36.9003 17.5395V16.4357C36.9003 16.1046 36.5692 15.7734 36.2381 15.7734H31.8228H31.7124H31.602H27.2972C26.966 15.7734 26.6349 16.1046 26.6349 16.4357V17.5395C24.7584 18.9745 23.4338 21.1821 23.1027 23.8313C21.6677 23.8313 20.5639 25.2662 20.5639 26.9219C20.5639 28.5777 21.6677 30.0126 23.1027 30.0126C23.3235 30.0126 23.5442 29.9022 23.765 29.9022C24.648 32.3306 26.1934 34.4279 28.2906 35.5317V36.5251L22.4404 39.2846C20.4535 40.1677 18.9082 42.2649 18.9082 43.5895V46.7906C18.9082 47.2321 19.2393 47.6736 19.7913 47.6736C20.2328 47.6736 20.6743 47.3425 20.6743 46.7906V43.5895C20.6743 43.148 21.5574 41.6026 23.2131 40.83L29.0633 38.0704C29.6152 39.0639 30.6086 39.8366 31.8228 39.8366C33.037 39.8366 34.1408 39.1743 34.5823 38.0704L38.3353 39.8366L37.673 40.9404L34.3616 46.6802L34.2512 46.9009C33.9201 47.3425 33.9201 48.0048 34.2512 48.5567C34.5823 48.9982 35.0239 49.3293 35.6862 49.3293H42.5298H49.3734C49.9253 49.3293 50.4772 48.9982 50.8084 48.5567C51.1395 48.1151 51.1395 47.4529 50.8084 46.9009L47.2762 40.9404ZM41.5364 26.8116C41.5364 27.6946 40.9845 28.4673 40.3222 28.4673C40.2118 28.4673 40.2118 28.4673 40.1014 28.4673C40.4325 27.3635 40.5429 26.2597 40.5429 25.2662V25.1558C41.0948 25.3766 41.5364 26.0389 41.5364 26.8116ZM27.9595 17.098H28.9529H34.472H35.5758V17.6499V18.6434V21.9548H27.9595V18.6434V17.6499V17.098V17.098ZM23.1027 28.5777C22.4404 28.5777 21.8885 27.805 21.8885 26.9219C21.8885 26.0389 22.33 25.3766 22.8819 25.2662V25.3766C22.8819 26.37 22.9923 27.4738 23.3235 28.5777C23.2131 28.4673 23.2131 28.5777 23.1027 28.5777ZM31.8228 38.6224C30.9398 38.6224 30.2775 38.0705 29.9463 37.2978C29.9463 37.1874 30.0567 37.077 30.0567 36.9666V34.8694C30.0567 34.5383 29.8359 34.2071 29.5048 34.0967C27.6283 33.4344 26.083 31.2268 25.1999 28.688C24.8688 27.5842 24.648 26.4804 24.648 25.3766C24.648 25.0455 24.648 24.8247 24.648 24.4936C24.8688 22.7275 25.5311 21.0717 26.6349 19.8575V22.6171C26.6349 22.9482 26.966 23.2794 27.2972 23.2794H36.3484C36.6796 23.2794 37.0107 22.9482 37.0107 22.6171V19.8575C38.0042 21.0717 38.6664 22.6171 38.8872 24.2728C38.8872 24.6039 38.8872 24.9351 38.8872 25.1558C38.8872 26.2597 38.6664 27.4738 38.3353 28.5777C37.5626 31.006 35.9069 33.2137 34.1408 33.876C33.8097 33.9863 33.5889 34.3175 33.5889 34.6486V36.8563C33.5889 36.9666 33.5889 37.077 33.6993 37.1874C33.3681 38.0704 32.7059 38.6224 31.8228 38.6224ZM49.3734 47.6736H42.5298H35.6862L36.2381 46.6802L39.108 41.713L39.8806 40.3885L40.3222 39.6158L40.7637 38.8431L42.6402 35.6421L46.062 41.6026L49.3734 47.6736Z" fill="#0349C3"/>
<path d="M41.5371 45.0254V46.6811H42.9721H43.4136V45.0254H42.9721H41.5371Z" fill="white"/>
<path d="M41.6465 40.498H41.4258L41.5362 41.4915L41.8673 44.4718H42.9711H43.0815L43.3023 42.4849L43.4126 41.1603L43.523 40.498H42.8607H41.6465Z" fill="white"/>
</g>
<defs>
<clipPath id="clip0_1193_51536">
<rect width="64" height="64" fill="white" transform="translate(0 0.5)"/>
</clipPath>
</defs>
</svg>
