<svg width="32" height="32" viewBox="0 0 32 32" fill="none" xmlns="http://www.w3.org/2000/svg">
<g clip-path="url(#clip0_1742_100536)">
<path d="M28.9842 32H3.01576C2.21593 32 1.44885 31.6823 0.883286 31.1167C0.317722 30.5511 0 29.7841 0 28.9842V3.01576C0 2.21593 0.317722 1.44886 0.883286 0.883293C1.44885 0.317729 2.21593 0 3.01576 0H28.9842C29.7841 0 30.5511 0.317729 31.1167 0.883293C31.6823 1.44886 32 2.21593 32 3.01576V28.9842C32 29.7841 31.6823 30.5511 31.1167 31.1167C30.5511 31.6823 29.7841 32 28.9842 32ZM3.01576 0.969697C2.4739 0.972247 1.95495 1.18863 1.57179 1.57179C1.18863 1.95495 0.972247 2.4739 0.969697 3.01576V28.9842C0.972247 29.5261 1.18863 30.045 1.57179 30.4282C1.95495 30.8114 2.4739 31.0278 3.01576 31.0303H28.9842C29.5261 31.0278 30.045 30.8114 30.4282 30.4282C30.8114 30.045 31.0278 29.5261 31.0303 28.9842V3.01576C31.0278 2.4739 30.8114 1.95495 30.4282 1.57179C30.045 1.18863 29.5261 0.972247 28.9842 0.969697H3.01576Z" fill="#E2E2E2"/>
<path d="M21.6242 6.28369V16.6207H17.8521L14.1479 11.4134V16.6207H10.3757V6.28369H14.1479L17.8521 11.6946V6.28369H21.6242Z" fill="#1EC800"/>
<path d="M7.40848 22.5647C7.38327 22.5728 7.35612 22.5728 7.33091 22.5647C7.32475 22.551 7.32157 22.5361 7.32157 22.521C7.32157 22.506 7.32475 22.4911 7.33091 22.4774V22.0701C7.32637 22.0594 7.32404 22.0479 7.32404 22.0362C7.32404 22.0245 7.32637 22.013 7.33091 22.0023C7.33091 22.0023 7.33091 22.0023 7.40848 22.0023H11.7139C11.739 21.9934 11.7664 21.9934 11.7915 22.0023C11.796 22.013 11.7984 22.0245 11.7984 22.0362C11.7984 22.0479 11.796 22.0594 11.7915 22.0701V22.4871C11.793 22.5015 11.7913 22.516 11.7865 22.5297C11.7817 22.5433 11.7739 22.5557 11.7637 22.5659C11.7534 22.5761 11.741 22.5839 11.7274 22.5888C11.7138 22.5936 11.6992 22.5953 11.6849 22.5938H11.0061V24.4168H11.8206C11.8313 24.4123 11.8429 24.4099 11.8545 24.4099C11.8662 24.4099 11.8777 24.4123 11.8885 24.4168C11.8959 24.4388 11.8959 24.4627 11.8885 24.4847V24.9017C11.8981 24.93 11.8981 24.9606 11.8885 24.9889C11.8777 24.9935 11.8662 24.9958 11.8545 24.9958C11.8429 24.9958 11.8313 24.9935 11.8206 24.9889H9.88121V26.172H12.4606C12.4864 26.1783 12.51 26.1916 12.5288 26.2104C12.5476 26.2292 12.5609 26.2528 12.5673 26.2786V26.7344C12.5673 26.7344 12.5673 26.7344 12.5673 26.8023C12.5452 26.8096 12.5214 26.8096 12.4994 26.8023H6.54545C6.53471 26.8068 6.52317 26.8091 6.51151 26.8091C6.49985 26.8091 6.48831 26.8068 6.47757 26.8023C6.47136 26.7801 6.47136 26.7566 6.47757 26.7344V26.2786C6.47303 26.2679 6.4707 26.2563 6.4707 26.2447C6.4707 26.233 6.47303 26.2215 6.47757 26.2107C6.48814 26.2056 6.49975 26.2029 6.51151 26.2029C6.52327 26.2029 6.53488 26.2056 6.54545 26.2107H9.19272V25.018H7.25333C7.24259 25.0226 7.23104 25.0249 7.21939 25.0249C7.20773 25.0249 7.19618 25.0226 7.18544 25.018C7.17946 25.006 7.17636 24.9927 7.17636 24.9792C7.17636 24.9658 7.17946 24.9525 7.18544 24.9404V24.5235C7.18544 24.5235 7.18544 24.5235 7.18544 24.4556C7.20747 24.4482 7.23131 24.4482 7.25333 24.4556H8.06787V22.5647H7.40848ZM8.85332 22.5647V24.3877H10.2691V22.5647H8.85332Z" fill="#505050"/>
<path d="M19.035 26.1913C19.0448 26.2163 19.0448 26.2439 19.035 26.2689V26.7149C19.0412 26.7371 19.0412 26.7606 19.035 26.7828H18.9672H13.0132C13.0026 26.788 12.991 26.7906 12.9793 26.7906C12.9675 26.7906 12.9559 26.788 12.9453 26.7828C12.9391 26.7606 12.9391 26.7371 12.9453 26.7149V26.2689C12.9453 26.1913 12.9453 26.1525 13.0423 26.1525H18.9962C18.9962 26.1525 19.0059 26.1719 19.035 26.1913ZM13.7502 25.0083H13.6726C13.6726 25.0083 13.6144 25.0083 13.595 24.9501L13.3429 24.5234C13.3333 24.5091 13.3282 24.4922 13.3282 24.4749C13.3282 24.4577 13.3333 24.4408 13.3429 24.4265C13.3493 24.4124 13.3587 24.4 13.3705 24.3899C13.3822 24.3799 13.3959 24.3725 13.4108 24.3683C13.7215 24.2523 14.023 24.1129 14.3126 23.9513C14.5534 23.8126 14.775 23.6431 14.972 23.4471C15.1487 23.2535 15.2898 23.0303 15.389 22.7877C15.502 22.5159 15.5708 22.2278 15.5926 21.9343V21.8374C15.604 21.8294 15.6175 21.8252 15.6314 21.8252C15.6453 21.8252 15.6588 21.8294 15.6702 21.8374H16.2714C16.349 21.8374 16.3781 21.8956 16.3781 21.9925C16.388 22.1054 16.388 22.219 16.3781 22.3319C16.4311 22.5549 16.5265 22.7656 16.6593 22.9525C16.8038 23.1569 16.9732 23.3426 17.1635 23.5052C17.3701 23.6726 17.5907 23.8219 17.8229 23.9513C18.0648 24.0755 18.3181 24.1762 18.5793 24.2519C18.593 24.2561 18.6055 24.2636 18.6157 24.2737C18.6258 24.2839 18.6333 24.2964 18.6375 24.3101C18.6472 24.335 18.6472 24.3627 18.6375 24.3877L18.4047 24.824C18.3937 24.8544 18.3715 24.8793 18.3426 24.8938C18.3137 24.9082 18.2804 24.911 18.2496 24.9016C18.0304 24.8413 17.8163 24.7635 17.6096 24.6689C17.3975 24.5643 17.1933 24.4444 16.9987 24.3101C16.804 24.1829 16.625 24.0332 16.4653 23.864C16.3016 23.7034 16.1613 23.5206 16.0484 23.321C15.8045 23.7306 15.4734 24.0816 15.0787 24.3489C14.6723 24.6355 14.2242 24.8579 13.7502 25.0083Z" fill="#505050"/>
<path d="M25.4545 26.2014C25.4598 26.2136 25.4626 26.2268 25.4626 26.2402C25.4626 26.2535 25.4598 26.2667 25.4545 26.279V26.7153C25.4545 26.7153 25.4545 26.7153 25.4545 26.7832C25.4437 26.7878 25.4322 26.7901 25.4205 26.7901C25.4089 26.7901 25.3973 26.7878 25.3866 26.7832H19.4326C19.4219 26.7878 19.4103 26.7901 19.3987 26.7901C19.387 26.7901 19.3755 26.7878 19.3648 26.7832C19.3586 26.761 19.3586 26.7375 19.3648 26.7153V26.279C19.3634 26.2655 19.3649 26.2518 19.3692 26.2389C19.3734 26.226 19.3803 26.2141 19.3895 26.204C19.3986 26.194 19.4098 26.186 19.4222 26.1805C19.4347 26.175 19.4481 26.1722 19.4617 26.1723H25.4157C25.4311 26.1781 25.4445 26.1882 25.4545 26.2014ZM24.6011 25.1347C24.5823 25.1414 24.5618 25.1414 24.5429 25.1347H20.732C20.5911 25.1458 20.4516 25.1004 20.3442 25.0087C20.2687 24.9048 20.231 24.7782 20.2375 24.6499V22.3129C20.2301 22.2483 20.2367 22.1828 20.2568 22.1209C20.2769 22.059 20.31 22.0022 20.3538 21.9541C20.4678 21.8866 20.6 21.8561 20.732 21.8669H24.4848C24.4966 21.8653 24.5086 21.8664 24.52 21.8702C24.5313 21.8741 24.5416 21.8804 24.55 21.8889C24.5585 21.8973 24.5648 21.9076 24.5687 21.9189C24.5725 21.9302 24.5736 21.9423 24.572 21.9541V22.4099C24.572 22.4778 24.572 22.5069 24.4848 22.5069H21.149C21.0617 22.5069 21.0229 22.5069 21.0229 22.6232V23.1953H24.3878C24.3984 23.1902 24.41 23.1875 24.4217 23.1875C24.4335 23.1875 24.4451 23.1902 24.4557 23.1953C24.4602 23.2061 24.4625 23.2176 24.4625 23.2293C24.4625 23.2409 24.4602 23.2525 24.4557 23.2632V23.7578C24.4654 23.7827 24.4654 23.8104 24.4557 23.8353H24.3878H21.0229V24.4172C21.0156 24.4523 21.0156 24.4886 21.0229 24.5238C21.058 24.5325 21.0946 24.5325 21.1296 24.5238H24.5817C24.5885 24.5459 24.5885 24.5696 24.5817 24.5917V25.0475C24.5817 25.0475 24.6205 25.1153 24.6011 25.1347Z" fill="#505050"/>
</g>
<defs>
<clipPath id="clip0_1742_100536">
<rect width="32" height="32" fill="white"/>
</clipPath>
</defs>
</svg>
