<svg width="64" height="65" viewBox="0 0 64 65" fill="none" xmlns="http://www.w3.org/2000/svg">
<g clip-path="url(#clip0_1193_51450)">
<path d="M63.5 32.5C63.5 49.897 49.397 64 32 64C14.603 64 0.5 49.897 0.5 32.5C0.5 15.103 14.603 1 32 1C49.397 1 63.5 15.103 63.5 32.5Z" fill="#F0F8FF" stroke="#E2F1FF"/>
<g clip-path="url(#clip1_1193_51450)">
<path d="M45.3826 36.2179C45.3826 32.6545 44.2569 30.587 42.3024 29.4316C41.4595 30.4818 40.3855 31.3306 39.1611 31.9141C37.9367 32.4977 36.5937 32.8008 35.2329 32.8008C33.8722 32.8008 32.5292 32.4977 31.3048 31.9141C30.0804 31.3306 29.0064 30.4818 28.1635 29.4316C27.7297 29.6841 27.3341 29.9952 26.9883 30.3559C27.3483 30.4829 27.6599 30.7154 27.8811 31.0221C28.1023 31.3288 28.2225 31.6948 28.2253 32.0707V34.1018C28.2286 34.3434 28.183 34.5832 28.0912 34.8073C27.9995 35.0315 27.8633 35.2355 27.6907 35.4075C27.5181 35.5794 27.3124 35.716 27.0857 35.8092C26.8589 35.9024 26.6156 35.9504 26.3698 35.9503H25.1328C25.1267 36.0475 25.1267 36.145 25.1328 36.2422C25.1328 36.6314 25.1328 36.9841 25.1328 37.3368L24.9473 37.4462C25.0446 37.5911 25.1002 37.7592 25.1081 37.9327V43.4055C25.1058 43.668 25.1562 43.9284 25.2565 44.1717C25.4079 44.5108 25.6501 44.803 25.9573 45.0172C26.2645 45.2315 26.6252 45.3596 27.0007 45.3879H27.211H38.344C38.6571 45.3875 38.966 45.3168 39.247 45.1811C39.6941 44.9647 40.0521 44.6041 40.2614 44.1595C40.3809 43.8952 40.4441 43.6096 40.4469 43.3204C40.4469 43.0489 40.3925 42.78 40.2868 42.5292C40.1812 42.2783 40.0263 42.0504 39.831 41.8584C39.6357 41.6664 39.4039 41.5141 39.1488 41.4102C38.8936 41.3063 38.6202 41.2529 38.344 41.2529H30.3035C30.184 41.2534 30.0659 41.2285 29.9571 41.1799C29.7946 41.1204 29.6514 41.019 29.5426 40.8863C29.4338 40.7537 29.3633 40.5946 29.3386 40.4259C29.3327 40.3774 29.3327 40.3284 29.3386 40.2799V34.199C29.3386 33.941 29.4429 33.6935 29.6285 33.5111C29.8141 33.3286 30.0658 33.2261 30.3282 33.2261C30.5907 33.2261 30.8424 33.3286 31.028 33.5111C31.2136 33.6935 31.3178 33.941 31.3178 34.199V39.307H39.2347V34.199C39.2347 33.941 39.3389 33.6935 39.5245 33.5111C39.7101 33.3286 39.9618 33.2261 40.2243 33.2261C40.4867 33.2261 40.7384 33.3286 40.924 33.5111C41.1096 33.6935 41.2139 33.941 41.2139 34.199V40.2799C41.2195 40.3284 41.2195 40.3774 41.2139 40.4259C41.6085 40.801 41.9216 41.2509 42.1342 41.7484C42.3468 42.246 42.4545 42.7807 42.4509 43.3204C42.4509 43.4663 42.4509 43.6001 42.4509 43.7339C42.4157 44.1126 42.3283 44.485 42.1911 44.8406C42.1044 45.0292 42.0053 45.212 41.8942 45.3879H43.3662H43.5765C43.9503 45.3587 44.3089 45.2301 44.614 45.0159C44.9191 44.8017 45.1591 44.5098 45.3083 44.1717C45.4126 43.9291 45.4672 43.6688 45.4691 43.4055V36.7165C45.4688 36.5913 45.4941 36.4672 45.5434 36.3517H45.4691L45.3826 36.2179Z" fill="white"/>
<path d="M29.4633 27.8144C29.6643 28.0954 29.8833 28.3635 30.1189 28.6171C30.7771 29.3223 31.5771 29.8853 32.4683 30.2704C33.3595 30.6556 34.3223 30.8545 35.2958 30.8545C36.2692 30.8545 37.2321 30.6556 38.1233 30.2704C39.0144 29.8853 39.8145 29.3223 40.4726 28.6171C40.7083 28.3635 40.9272 28.0954 41.1283 27.8144C41.3138 27.5362 41.4831 27.248 41.6354 26.9509C42.1007 26.0065 42.3458 24.972 42.3529 23.9227C42.3361 22.8903 42.0849 21.8746 41.6177 20.9499C41.1505 20.0252 40.4791 19.2148 39.6526 18.5778C38.826 17.9409 37.8652 17.4935 36.8402 17.2683C35.8153 17.0432 34.7522 17.046 33.7285 17.2766C32.7048 17.5071 31.7464 17.9596 30.9234 18.6009C30.1003 19.2422 29.4334 20.0562 28.9713 20.9834C28.5091 21.9106 28.2635 22.9275 28.2524 23.96C28.2412 24.9924 28.4647 26.0143 28.9067 26.9509C29.0748 27.2493 29.2607 27.5376 29.4633 27.8144V27.8144Z" fill="white"/>
<path d="M16.6355 29.3962H18.5776V28.2652C18.5805 28.0409 18.6223 27.8188 18.7013 27.6084V25.5896H22.5731V23.5586H18.7013V19.752H16.6355V23.5586H12.7637V25.5896H16.6355V29.3962Z" fill="white"/>
<path d="M26.37 34.1033V32.0723H25.8257H24.7743H23.7228H22.4982V28.2656H20.5561H20.4324V30.0534V32.0723H16.5605V34.1033H20.4324V37.9099H22.4982V34.1033H23.2651H24.2671H25.2567H26.37Z" fill="white"/>
<path d="M15.7937 29.3962H17.8842L17.8595 25.5896H21.7313V23.5586H17.8595V19.752H15.7937V23.5586H11.9219V25.5896H15.7937V29.3962Z" fill="#8DCFFF"/>
<path d="M25.6415 34.1033V32.0723H25.0972H24.0457H22.9943H21.7696V28.2656H19.8276H19.7039V30.0534V32.0723H15.832V34.1033H19.7039V37.9099H21.7696V34.1033H22.5366H23.5386H24.5282H25.6415Z" fill="#8DCFFF"/>
<path d="M43.355 27.7661C43.9694 26.5743 44.2954 25.2591 44.3075 23.923C44.3075 22.7571 44.0739 21.6026 43.6201 20.5255C43.1663 19.4484 42.5011 18.4697 41.6626 17.6453C40.8241 16.8208 39.8286 16.1669 38.733 15.7207C37.6374 15.2746 36.4632 15.0449 35.2773 15.0449C34.0915 15.0449 32.9172 15.2746 31.8217 15.7207C30.7261 16.1669 29.7306 16.8208 28.8921 17.6453C28.0535 18.4697 27.3884 19.4484 26.9346 20.5255C26.4808 21.6026 26.2472 22.7571 26.2472 23.923C26.2439 25.2552 26.5529 26.5703 27.1502 27.7661C26.122 28.3694 25.2532 29.2028 24.6144 30.1985H24.3917V28.2647C24.3895 28.0198 24.3381 27.7776 24.2404 27.5522C24.1428 27.3268 24.0008 27.1226 23.8227 26.9513C24.0246 26.7842 24.1869 26.5757 24.298 26.3404C24.4091 26.105 24.4664 25.8486 24.4659 25.5892V23.5581C24.4659 23.0743 24.2704 22.6103 23.9225 22.2682C23.5745 21.9261 23.1025 21.7339 22.6104 21.7339H20.557V19.7515C20.557 19.2677 20.3615 18.8037 20.0135 18.4616C19.6656 18.1195 19.1936 17.9273 18.7015 17.9273H16.6357C16.1436 17.9273 15.6716 18.1195 15.3237 18.4616C14.9757 18.8037 14.7802 19.2677 14.7802 19.7515V21.7339H12.7639C12.2718 21.7339 11.7998 21.9261 11.4518 22.2682C11.1039 22.6103 10.9084 23.0743 10.9084 23.5581V25.5892C10.9051 25.8308 10.9507 26.0706 11.0424 26.2947C11.1342 26.5189 11.2704 26.7229 11.443 26.8949C11.6156 27.0668 11.8213 27.2034 12.048 27.2966C12.2748 27.3898 12.5181 27.4378 12.7639 27.4377H14.7802V29.4201C14.7813 29.6635 14.8323 29.9041 14.93 30.1277C15.0278 30.3513 15.1703 30.5532 15.3492 30.7214C15.1476 30.8914 14.9858 31.1022 14.8747 31.3394C14.7637 31.5766 14.7061 31.8346 14.706 32.0957V34.1267C14.706 34.6105 14.9015 35.0745 15.2494 35.4167C15.5974 35.7588 16.0694 35.951 16.5615 35.951H18.5778V37.9333C18.5778 38.4172 18.7733 38.8812 19.1213 39.2233C19.4692 39.5654 19.9412 39.7576 20.4333 39.7576H22.4991C22.7097 39.7518 22.9182 39.7149 23.1176 39.6481V43.4061C23.1176 44.4705 23.5477 45.4914 24.3132 46.244C25.0788 46.9967 26.1171 47.4195 27.1997 47.4195H43.2807C44.3634 47.4195 45.4017 46.9967 46.1672 46.244C46.9328 45.4914 47.3629 44.4705 47.3629 43.4061V36.6442C47.3629 36.4983 47.3629 36.3645 47.3629 36.2185C47.3629 31.7065 45.7176 29.1769 43.355 27.7661ZM43.491 45.425H43.2807H41.8335C41.9445 45.2492 42.0437 45.0663 42.1303 44.8777C42.2675 44.5221 42.3549 44.1498 42.3901 43.771C42.3901 43.6372 42.3901 43.5034 42.3901 43.3575C42.3938 42.8178 42.286 42.2831 42.0734 41.7856C41.8608 41.288 41.5477 40.8381 41.1531 40.463C41.1587 40.4145 41.1587 40.3655 41.1531 40.317V34.2362C41.1531 33.9781 41.0488 33.7307 40.8633 33.5482C40.6777 33.3657 40.426 33.2632 40.1635 33.2632C39.901 33.2632 39.6493 33.3657 39.4637 33.5482C39.2782 33.7307 39.1739 33.9781 39.1739 34.2362V39.3441H31.2571V34.2362C31.2571 33.9781 31.1528 33.7307 30.9672 33.5482C30.7816 33.3657 30.5299 33.2632 30.2675 33.2632C30.005 33.2632 29.7533 33.3657 29.5677 33.5482C29.3821 33.7307 29.2779 33.9781 29.2779 34.2362V40.317C29.2719 40.3655 29.2719 40.4145 29.2779 40.463C29.3025 40.6317 29.373 40.7908 29.4818 40.9235C29.5907 41.0562 29.7339 41.1576 29.8964 41.217C30.0051 41.2656 30.1233 41.2905 30.2427 41.29H38.2833C38.841 41.29 39.3759 41.5078 39.7702 41.8955C40.1646 42.2833 40.3862 42.8091 40.3862 43.3575C40.3833 43.6467 40.3201 43.9323 40.2006 44.1966C39.9914 44.6413 39.6333 45.0019 39.1863 45.2182C38.9052 45.3539 38.5964 45.4246 38.2833 45.425H27.1502H26.9399C26.5644 45.3967 26.2038 45.2686 25.8965 45.0544C25.5893 44.8401 25.3471 44.5479 25.1958 44.2088C25.0955 43.9655 25.045 43.7051 25.0473 43.4426V37.9698C25.0394 37.7964 24.9838 37.6282 24.8865 37.4834L25.0721 37.3739C25.0721 37.0212 25.0721 36.6685 25.0721 36.2793C25.0659 36.1821 25.0659 36.0847 25.0721 35.9875H26.3091C26.8012 35.9875 27.2731 35.7953 27.6211 35.4531C27.9691 35.111 28.1646 34.647 28.1646 34.1632V32.0714C28.1617 31.6954 28.0416 31.3294 27.8203 31.0227C27.5991 30.7161 27.2875 30.4835 26.9276 30.3566C27.2733 29.9959 27.6689 29.6847 28.1027 29.4323C28.9456 30.4825 30.0196 31.3312 31.2441 31.9148C32.4685 32.4983 33.8115 32.8015 35.1722 32.8015C36.5329 32.8015 37.8759 32.4983 39.1003 31.9148C40.3248 31.3312 41.3988 30.4825 42.2417 29.4323C44.1961 30.5876 45.3218 32.6551 45.3218 36.2185V36.3037H45.396C45.3467 36.4192 45.3215 36.5432 45.3218 36.6685V43.3575C45.3198 43.6208 45.2652 43.8811 45.161 44.1237C45.0292 44.4693 44.8041 44.7731 44.5098 45.0024C44.2156 45.2316 43.8634 45.3777 43.491 45.425V45.425ZM28.2264 23.923C28.2264 23.0127 28.4088 22.1112 28.7631 21.2702C29.1175 20.4291 29.6368 19.6649 30.2916 19.0212C30.9463 18.3775 31.7236 17.8669 32.5791 17.5185C33.4345 17.1701 34.3514 16.9908 35.2773 16.9908C36.2033 16.9908 37.1201 17.1701 37.9756 17.5185C38.8311 17.8669 39.6083 18.3775 40.2631 19.0212C40.9178 19.6649 41.4372 20.4291 41.7915 21.2702C42.1459 22.1112 42.3283 23.0127 42.3283 23.923C42.3212 24.9723 42.0761 26.0069 41.6108 26.9513C41.4585 27.2483 41.2891 27.5366 41.1036 27.8148C40.9026 28.0957 40.6836 28.3638 40.448 28.6174C39.7898 29.3226 38.9898 29.8856 38.0986 30.2708C37.2075 30.6559 36.2446 30.8548 35.2712 30.8548C34.2977 30.8548 33.3348 30.6559 32.4437 30.2708C31.5525 29.8856 30.7525 29.3226 30.0943 28.6174C29.8587 28.3638 29.6397 28.0957 29.4387 27.8148C29.2572 27.5364 29.092 27.2481 28.9439 26.9513C28.4729 26.0089 28.2275 24.973 28.2264 23.923V23.923ZM12.7639 25.5892V23.5581H16.6357V19.7515H18.7015V23.5581H22.5733V25.5892H18.7015V27.608C18.6225 27.8184 18.5807 28.0405 18.5778 28.2647V29.3958H16.6357V25.5892H12.7639ZM22.4991 34.1024V37.909H20.4333V34.1024H16.5615V32.0714H20.4333V28.2647H22.4991V32.0714H26.3709V34.1024H22.4991Z" fill="#0349C3"/>
<path d="M52.3471 29.2733H49.9968V26.9626C49.9985 26.8657 49.9805 26.7695 49.9439 26.6796C49.9074 26.5896 49.8529 26.5078 49.7839 26.4387C49.7148 26.3697 49.6324 26.3148 49.5415 26.2774C49.4507 26.24 49.3531 26.2207 49.2546 26.2207H46.1621C45.9653 26.2207 45.7765 26.2976 45.6373 26.4344C45.4981 26.5713 45.4199 26.7569 45.4199 26.9504C45.4199 27.1439 45.4981 27.3295 45.6373 27.4664C45.7765 27.6032 45.9653 27.6801 46.1621 27.6801H48.5124V29.9908C48.5124 30.1844 48.5906 30.37 48.7298 30.5068C48.869 30.6437 49.0578 30.7206 49.2546 30.7206H51.6049V33.0313C51.6049 33.2248 51.6831 33.4104 51.8223 33.5473C51.9615 33.6841 52.1503 33.761 52.3471 33.761C52.544 33.761 52.7328 33.6841 52.872 33.5473C53.0111 33.4104 53.0893 33.2248 53.0893 33.0313V29.9908C53.0861 29.7994 53.0065 29.6169 52.8676 29.4827C52.7288 29.3485 52.5419 29.2733 52.3471 29.2733V29.2733Z" fill="#0349C3"/>
<path d="M25.7514 49.95H23.4011V47.6393C23.4011 47.4458 23.3229 47.2602 23.1837 47.1233C23.0446 46.9865 22.8558 46.9096 22.6589 46.9096H20.3086V44.5988C20.3086 44.4053 20.2304 44.2197 20.0912 44.0829C19.952 43.946 19.7633 43.8691 19.5664 43.8691C19.3696 43.8691 19.1808 43.946 19.0416 44.0829C18.9024 44.2197 18.8242 44.4053 18.8242 44.5988V47.6393C18.8242 47.8328 18.9024 48.0184 19.0416 48.1553C19.1808 48.2921 19.3696 48.369 19.5664 48.369H21.9167V50.6797C21.9167 50.8733 21.9949 51.0589 22.1341 51.1957C22.2733 51.3325 22.4621 51.4094 22.6589 51.4094H25.7514C25.9483 51.4094 26.1371 51.3325 26.2763 51.1957C26.4154 51.0589 26.4936 50.8733 26.4936 50.6797C26.4936 50.4862 26.4154 50.3006 26.2763 50.1637C26.1371 50.0269 25.9483 49.95 25.7514 49.95Z" fill="#0349C3"/>
</g>
</g>
<defs>
<clipPath id="clip0_1193_51450">
<rect width="64" height="64" fill="white" transform="translate(0 0.5)"/>
</clipPath>
<clipPath id="clip1_1193_51450">
<rect width="42.1818" height="36.3636" fill="white" transform="translate(10.9082 15.0449)"/>
</clipPath>
</defs>
</svg>
