<svg width="18" height="22" viewBox="0 0 18 22" fill="none" xmlns="http://www.w3.org/2000/svg">
<path d="M8.42584 5.99211C7.05437 5.99211 5.94258 7.11316 5.94258 8.49605C5.94258 9.87895 7.05437 11 8.42584 11C9.7973 11 10.9091 9.87895 10.9091 8.49605C10.9091 7.11316 9.7973 5.99211 8.42584 5.99211ZM0 2.75C0 1.23122 1.22104 0 2.72727 0H15.2727C16.779 0 18 1.23122 18 2.75V18.425C18 18.8806 17.6337 19.25 17.1818 19.25H1.63636C1.63636 19.8575 2.12478 20.35 2.72727 20.35H17.1818C17.6337 20.35 18 20.7194 18 21.175C18 21.6306 17.6337 22 17.1818 22H2.72727C1.22104 22 0 20.7688 0 19.25V2.75ZM11.802 10.7745C12.2352 10.123 12.488 9.33899 12.488 8.49605C12.488 6.23387 10.6693 4.4 8.42584 4.4C6.18235 4.4 4.36364 6.23387 4.36364 8.49605C4.36364 10.7582 6.18235 12.5921 8.42584 12.5921C9.26181 12.5921 10.0394 12.3372 10.6855 11.9004L13.3866 14.624L13.4598 14.6876L13.4679 14.6937C13.7771 14.9251 14.2156 14.8996 14.496 14.6168C14.8043 14.306 14.8043 13.8019 14.496 13.4911L11.802 10.7745Z" fill="#217FEF"/>
</svg>
