<svg width="64" height="20" viewBox="0 0 64 20" fill="none" xmlns="http://www.w3.org/2000/svg">
<g clip-path="url(#clip0_1670_57710)">
<path d="M24.2135 17.8059L19.7786 12.3529L20.2855 11.9765C22.2242 10.4158 23.9426 8.61187 25.3961 6.61176H21.4198C20.1818 8.48855 18.6556 10.1689 16.8945 11.5941L16.4541 11.9059V8.37647C16.4493 8.22323 16.4805 8.07096 16.5454 7.93129C16.6102 7.79162 16.7069 7.66824 16.8281 7.57059C17.2085 7.33873 17.6534 7.22774 18.1013 7.25294V6.63529H12.0675V7.25294C12.518 7.21376 12.9693 7.31911 13.3527 7.55294C13.4638 7.66884 13.5487 7.80627 13.6017 7.95627C13.6547 8.10628 13.6747 8.26549 13.6604 8.42353V13.7176C7.80769 17.0647 3.30651 16.7176 1.3033 13.9176C-0.905052 10.8529 2.6971 4.74706 8.58604 0C3.06516 3.91765 -1.68944 10.6176 0.603386 14.9588C2.7695 18.1471 7.4879 18.8235 13.6544 16.0294V18.1059C13.666 18.2614 13.6372 18.4173 13.5708 18.5592C13.5044 18.701 13.4024 18.8243 13.2743 18.9176C12.897 19.0871 12.4817 19.16 12.0675 19.1294V19.7176H18.0409V19.1294C17.6272 19.1525 17.2137 19.0799 16.8342 18.9176C16.6998 18.8293 16.5925 18.7073 16.5234 18.5644C16.4544 18.4215 16.4263 18.2631 16.442 18.1059V14.7471L17.0816 14.1588L17.6246 13.8176L21.0035 18.0941C21.2871 18.4765 21.2871 18.7529 21.0035 18.9235C20.6418 19.0871 20.242 19.1541 19.845 19.1176V19.7059H26.4218V19.1176C25.9897 19.1262 25.5664 18.9982 25.2151 18.7529C24.842 18.4792 24.5056 18.161 24.2135 17.8059Z" fill="#064485"/>
<path d="M34.6881 7.23525C35.1104 7.19735 35.534 7.29438 35.8948 7.51172C36.0281 7.62779 36.1311 7.77321 36.1951 7.93589C36.2591 8.09858 36.2824 8.27381 36.2629 8.44702V12.6823H31.3756V8.56467C31.3605 8.378 31.386 8.19032 31.4504 8.01394C31.5149 7.83755 31.6169 7.67644 31.7496 7.54114C32.077 7.30718 32.4792 7.19456 32.884 7.22349V6.63525H26.989V7.22349C27.3963 7.19949 27.8006 7.30474 28.1415 7.52349C28.2877 7.64569 28.4018 7.80023 28.4742 7.9742C28.5466 8.14817 28.5753 8.33651 28.5578 8.52349V17.8705C28.5745 18.0506 28.5453 18.2318 28.4726 18.3981C28.4 18.5644 28.2862 18.7105 28.1415 18.8235C27.7976 19.0336 27.3936 19.1305 26.989 19.1V19.7176H32.8599V19.0823C32.4623 19.1278 32.061 19.0363 31.7255 18.8235C31.5944 18.7027 31.4943 18.5534 31.4335 18.3879C31.3727 18.2223 31.3529 18.045 31.3756 17.8705V13.447H36.2629V17.9588C36.2809 18.128 36.2544 18.299 36.1858 18.4554C36.1171 18.6119 36.0087 18.7487 35.8707 18.8529C35.5122 19.0281 35.1124 19.1073 34.7122 19.0823V19.7H40.6072V19.0823C40.2205 19.1084 39.834 19.0289 39.4909 18.8529C39.3441 18.7343 39.2281 18.5834 39.1526 18.4126C39.0771 18.2419 39.0441 18.0561 39.0565 17.8705V8.40584C39.0481 8.236 39.0834 8.06679 39.1593 7.91368C39.2352 7.76057 39.3492 7.62845 39.4909 7.52937C39.8241 7.32384 40.2132 7.22132 40.6072 7.23525V6.64702H34.6881V7.23525Z" fill="#064485"/>
<path d="M50.1646 13.2353C49.6803 12.6473 49.06 12.1796 48.3545 11.8706L45.9772 10.8059C45.4413 10.5883 44.9411 10.295 44.4929 9.93531C44.3158 9.80442 44.1709 9.63673 44.0686 9.44443C43.9663 9.25213 43.9093 9.04003 43.9016 8.82354C43.8829 8.5876 43.9225 8.35074 44.017 8.13276C44.1115 7.91479 44.2581 7.72203 44.4446 7.5706C45.1421 7.1901 45.9529 7.05605 46.7401 7.19109C47.5272 7.32614 48.2424 7.722 48.7648 8.31178C49.337 9.06177 49.7269 9.92868 49.9051 10.8471H50.4482V6.52942H49.881C49.8822 6.59918 49.8671 6.66829 49.8368 6.73149C49.8064 6.79469 49.7617 6.85031 49.706 6.89413C49.5694 6.97998 49.41 7.02496 49.2475 7.02354C49.1141 7.02214 48.9817 7.0003 48.8553 6.95884C48.7648 6.95884 48.6139 6.8706 48.4389 6.80589C48.1567 6.68839 47.8663 6.59011 47.5701 6.51178C47.0895 6.4029 46.5972 6.35154 46.1039 6.35884C44.5351 6.35884 43.3766 6.82942 42.6586 7.72354C42.1683 8.3601 41.9132 9.13954 41.9346 9.93531C41.9102 10.5136 42.0238 11.0894 42.2664 11.6177C42.7307 12.5149 43.5133 13.2172 44.4687 13.5941L46.7616 14.7059C47.3509 15.0058 47.8818 15.404 48.3303 15.8824C48.6504 16.2985 48.8124 16.8099 48.7889 17.3294C48.7903 17.7347 48.6426 18.1271 48.3726 18.4353C48.0906 18.7206 47.7459 18.9398 47.3644 19.0763C46.9829 19.2129 46.5746 19.2632 46.1703 19.2235C45.647 19.2401 45.1271 19.1358 44.6531 18.9191C44.1791 18.7023 43.7645 18.3793 43.443 17.9765C42.81 17.0819 42.4273 16.0417 42.3328 14.9588H41.8079V19.9353H42.2906V19.8294C42.3214 19.6871 42.3743 19.5503 42.4474 19.4235C42.4949 19.3603 42.5565 19.3083 42.6276 19.2716C42.6987 19.2349 42.7774 19.2145 42.8577 19.2118C43.0219 19.2204 43.1842 19.25 43.3404 19.3C43.5071 19.3422 43.6673 19.4055 43.8171 19.4882C44.1093 19.6199 44.4096 19.7338 44.7161 19.8294C45.1712 19.9449 45.6397 20.0022 46.1099 20C47.7953 20 49.0544 19.553 49.887 18.6588C50.5892 17.92 50.9662 16.9421 50.9369 15.9353C50.983 14.9779 50.7123 14.0313 50.1646 13.2353Z" fill="#064485"/>
<path d="M62.6243 18.3824C62.2509 17.9165 61.963 17.3911 61.7736 16.8294L57.8034 6.35883L56.7173 6.47059L56.4156 7.28236L52.7954 17.0471C52.605 17.6057 52.299 18.1202 51.8963 18.5588C51.587 18.857 51.1779 19.0366 50.7439 19.0647V19.6824H55.0399V19.0824C54.6356 19.1068 54.235 18.9946 53.9056 18.7647C53.8054 18.6435 53.7309 18.5042 53.6864 18.3548C53.6418 18.2053 53.6282 18.0488 53.6461 17.8941C53.6654 17.4962 53.7302 17.1016 53.8392 16.7177C53.9478 16.4177 54.1047 15.9941 54.2978 15.4176H58.5214C58.7205 16.1 58.8714 16.5941 58.9558 16.9706C59.0779 17.3294 59.1589 17.7003 59.1972 18.0765C59.2125 18.2177 59.1906 18.3605 59.1336 18.4912C59.0766 18.6219 58.9863 18.7363 58.8714 18.8235C58.5056 18.9773 58.1112 19.0554 57.7129 19.0529V19.6706H64.0423V19.0647C63.7709 19.0504 63.5053 18.9825 63.2616 18.8652C63.0178 18.748 62.8011 18.5837 62.6243 18.3824ZM56.3854 14.7059H54.5271L56.3854 9.6L56.4518 9.47059L58.2619 14.7059H56.3854Z" fill="#064485"/>
<path d="M24.0867 5.74698C24.4535 5.7435 24.811 5.63429 25.1142 5.4331C25.4174 5.23192 25.6528 4.94775 25.7907 4.61641C25.9286 4.28506 25.9628 3.92134 25.8891 3.57106C25.8153 3.22079 25.6369 2.89961 25.3763 2.648C25.1157 2.39638 24.7845 2.22557 24.4245 2.15708C24.0646 2.08859 23.6918 2.12549 23.3533 2.26312C23.0148 2.40075 22.7256 2.63296 22.5222 2.93051C22.3188 3.22806 22.2102 3.57764 22.2102 3.93521C22.2134 4.41782 22.4127 4.87952 22.7644 5.21912C23.1162 5.55873 23.5917 5.74855 24.0867 5.74698Z" fill="#064485"/>
</g>
<defs>
<clipPath id="clip0_1670_57710">
<rect width="64" height="20" fill="white"/>
</clipPath>
</defs>
</svg>
