<svg width="64" height="65" viewBox="0 0 64 65" fill="none" xmlns="http://www.w3.org/2000/svg">
<g clip-path="url(#clip0_1193_10793)">
<path d="M63.5 32.5C63.5 49.897 49.397 64 32 64C14.603 64 0.5 49.897 0.5 32.5C0.5 15.103 14.603 1 32 1C49.397 1 63.5 15.103 63.5 32.5Z" fill="#F0F8FF" stroke="#E2F1FF"/>
<g clip-path="url(#clip1_1193_10793)">
<path d="M43.4663 35.1953L42.2611 37.1943L39.8507 41.3249L39.3325 42.216L36.1991 47.6351L35.3555 49.2247H51.565L47.5156 42.216L43.4663 35.1953Z" fill="#0349C3"/>
<path d="M31.0877 32.7865C29.171 32.7858 27.3077 32.1553 25.7849 30.9922C25.4052 31.1332 25.0383 31.3064 24.6882 31.51V31.9074C24.6806 32.068 24.6481 32.2264 24.5918 32.3771C24.7467 32.5224 24.8703 32.6977 24.9553 32.8923C25.0402 33.0869 25.0847 33.2967 25.0859 33.509V35.0023H26.5683C26.7782 35.0038 26.9856 35.0473 27.1784 35.1305C27.3711 35.2136 27.5451 35.3346 27.6901 35.4862C27.8351 35.6379 27.9482 35.8171 28.0225 36.0132C28.0969 36.2094 28.131 36.4184 28.1229 36.628V38.1935C28.1249 38.4004 28.0839 38.6055 28.0024 38.7956H29.3281C30.461 38.7956 31.7384 38.7956 32.8472 38.7956C33.9512 38.7402 35.0574 38.7402 36.1614 38.7956V36.628C36.1614 36.4683 36.2249 36.3152 36.3379 36.2023C36.4509 36.0893 36.6042 36.0259 36.764 36.0259C36.9228 36.029 37.0743 36.0934 37.1867 36.2057C37.299 36.3179 37.3635 36.4693 37.3666 36.628V39.0365L37.8848 39.169L40.1746 35.207C39.9565 34.2401 39.4942 33.345 38.8318 32.6072C38.1693 31.8694 37.3288 31.3134 36.3904 30.9922C34.8702 32.1601 33.0052 32.7912 31.0877 32.7865V32.7865Z" fill="white"/>
<path d="M36.9578 40.7826C35.6285 40.5989 34.2846 40.5425 32.9446 40.614C31.7394 40.614 30.5343 40.614 29.3291 40.614H27.7985C26.9004 40.5909 26.0026 40.6718 25.123 40.8548V41.2643C25.123 41.2643 25.123 41.2643 25.123 41.3245C25.5442 42.1175 25.8409 42.9704 26.0028 43.8534C26.0588 44.1757 26.091 44.5017 26.0992 44.8288C26.1061 45.1475 26.0819 45.4661 26.0269 45.7801C25.9289 46.3829 25.6566 46.9438 25.2436 47.3938C27.1028 48.1176 29.097 48.4298 31.0886 48.3091C31.7876 48.3091 32.4384 48.3091 33.041 48.2488C32.9966 47.8776 33.0727 47.5019 33.2579 47.1771L34.0533 45.8042L34.6077 44.8408L35.1621 43.8775L36.9578 40.7826Z" fill="white"/>
<path d="M27.1594 29.6321C27.6081 29.9367 28.0891 30.1911 28.5935 30.3907C30.1946 31.0325 31.9818 31.0325 33.5829 30.3907C34.0862 30.1886 34.5669 29.9343 35.0171 29.6321C35.3454 29.3945 35.6555 29.1328 35.945 28.8493C36.9059 27.8894 37.5604 26.6663 37.8256 25.3348C38.0908 24.0032 37.9548 22.623 37.4349 21.3686C36.915 20.1143 36.0346 19.0421 34.9049 18.2878C33.7751 17.5335 32.4469 17.1309 31.0882 17.1309C29.7295 17.1309 28.4013 17.5335 27.2716 18.2878C26.1419 19.0421 25.2614 20.1143 24.7415 21.3686C24.2216 22.623 24.0857 24.0032 24.3509 25.3348C24.6161 26.6663 25.2705 27.8894 26.2314 28.8493C26.5209 29.1328 26.8311 29.3945 27.1594 29.6321V29.6321ZM31.0882 28.4278C30.8529 28.4243 30.6186 28.396 30.3892 28.3435C29.7476 28.1867 29.1757 27.8226 28.7622 27.3079C28.6735 27.2329 28.6022 27.1393 28.5535 27.0339C28.5048 26.9284 28.4799 26.8135 28.4804 26.6973C28.4809 26.5812 28.5069 26.4665 28.5566 26.3615C28.6062 26.2565 28.6783 26.1636 28.7678 26.0894C28.8573 26.0152 28.9619 25.9615 29.0744 25.9321C29.1868 25.9027 29.3044 25.8982 29.4188 25.9191C29.5331 25.94 29.6415 25.9857 29.7363 26.0529C29.8311 26.1202 29.91 26.2074 29.9674 26.3084C30.0985 26.4695 30.2639 26.5993 30.4515 26.6885C30.6391 26.7777 30.8443 26.824 31.0521 26.824C31.2598 26.824 31.465 26.7777 31.6526 26.6885C31.8403 26.5993 32.0056 26.4695 32.1367 26.3084C32.1941 26.2074 32.273 26.1202 32.3678 26.0529C32.4626 25.9857 32.571 25.94 32.6854 25.9191C32.7997 25.8982 32.9173 25.9027 33.0297 25.9321C33.1422 25.9615 33.2469 26.0152 33.3363 26.0894C33.4258 26.1636 33.4979 26.2565 33.5475 26.3615C33.5972 26.4665 33.6232 26.5812 33.6237 26.6973C33.6242 26.8135 33.5993 26.9284 33.5506 27.0339C33.5019 27.1393 33.4307 27.2329 33.3419 27.3079C32.9259 27.8255 32.3492 28.1899 31.7028 28.3435C31.5016 28.3958 31.2958 28.4281 31.0882 28.4399V28.4278ZM28.5092 18.3845C28.6948 18.3703 28.8789 18.4271 29.0243 18.5433C29.1697 18.6596 29.2656 18.8266 29.2925 19.0107C29.3879 19.5748 29.6676 20.0914 30.0879 20.4799C31.028 21.4192 32.667 21.7684 34.8242 21.5035C35.0128 21.4795 35.2032 21.5314 35.3535 21.6477C35.5038 21.764 35.6017 21.9352 35.6257 22.1236C35.6496 22.3121 35.5977 22.5023 35.4813 22.6525C35.3649 22.8027 35.1936 22.9005 35.005 22.9245C34.5011 22.985 33.9941 23.0172 33.4865 23.0208C32.0381 23.0978 30.6076 22.6724 29.4371 21.8166C28.5965 21.1701 28.0358 20.2263 27.8704 19.1793C27.8604 19.0859 27.8691 18.9915 27.8958 18.9014C27.9226 18.8114 27.967 18.7276 28.0264 18.6548C28.0858 18.582 28.159 18.5217 28.2419 18.4773C28.3247 18.433 28.4156 18.4056 28.5092 18.3965V18.3845Z" fill="white"/>
<path d="M24.0615 43.5171C23.9833 43.2553 23.8908 42.998 23.7843 42.7463C23.699 42.7778 23.6098 42.7981 23.5192 42.8066H21.8922C21.7947 42.7924 21.6981 42.7723 21.603 42.7463H21.362C21.06 42.6397 20.7985 42.4425 20.613 42.1817C20.4274 41.9209 20.3271 41.6092 20.3255 41.2892V40.1934C20.2176 40.2382 20.1129 40.2906 20.0122 40.3499L19.8434 40.4583C19.277 40.8436 18.4816 41.6625 19.8434 43.7699C20.3013 44.5076 20.8845 45.1596 21.5668 45.6967C21.7654 45.8484 21.9748 45.9853 22.1935 46.1062C22.3872 46.2065 22.5888 46.2911 22.7961 46.3591C22.9547 46.4324 23.1275 46.4704 23.3023 46.4704C23.4771 46.4704 23.6498 46.4324 23.8084 46.3591C24.0261 46.1824 24.1753 45.9354 24.2303 45.6606C24.2813 45.3334 24.2813 45.0003 24.2303 44.6731C24.209 44.2835 24.1525 43.8965 24.0615 43.5171V43.5171Z" fill="white"/>
<path d="M19.9274 38.9283H20.1444H21.0844H21.1085H21.3616V38.9765V39.9399V40.9394V41.6619V41.7462V41.975H21.4459H22.2775H22.398H22.9886V41.2766V41.2525V40.2048V39.9278V38.9283H26.0376V37.3026H22.9886V34.2559H22.157H21.3616V36.4235V37.3026H21.217H20.2528H19.2766H18.3125V38.9283H19.1802H19.9274Z" fill="#8DCFFF"/>
<path d="M19.5436 35.6899V32.6431H20.9054H22.1588H22.5927V32.1976V31.0174H22.5324H19.5436V27.9707H17.9166V31.0174H14.8555V32.6431H17.9166V35.6899H19.5436Z" fill="#8DCFFF"/>
<path d="M32.1719 26.3202C32.0409 26.4813 31.8755 26.6111 31.6879 26.7003C31.5002 26.7895 31.2951 26.8358 31.0873 26.8358C30.8795 26.8358 30.6743 26.7895 30.4867 26.7003C30.2991 26.6111 30.1337 26.4813 30.0026 26.3202C29.9452 26.2192 29.8663 26.132 29.7715 26.0647C29.6767 25.9975 29.5683 25.9518 29.454 25.9309C29.3396 25.91 29.2221 25.9145 29.1096 25.9439C28.9971 25.9733 28.8925 26.027 28.803 26.1012C28.7136 26.1754 28.6415 26.2683 28.5918 26.3733C28.5422 26.4783 28.5162 26.593 28.5156 26.7091C28.5151 26.8253 28.5401 26.9402 28.5888 27.0457C28.6374 27.1511 28.7087 27.2447 28.7975 27.3197C29.2109 27.8344 29.7828 28.1985 30.4244 28.3553C30.6539 28.4078 30.8881 28.4361 31.1234 28.4396C31.3548 28.4368 31.5852 28.4085 31.8104 28.3553C32.4567 28.2017 33.0335 27.8373 33.4494 27.3197C33.5382 27.2447 33.6094 27.1511 33.6581 27.0457C33.7068 26.9402 33.7318 26.8253 33.7313 26.7091C33.7307 26.593 33.7047 26.4783 33.6551 26.3733C33.6054 26.2683 33.5333 26.1754 33.4439 26.1012C33.3544 26.027 33.2498 25.9733 33.1373 25.9439C33.0248 25.9145 32.9073 25.91 32.7929 25.9309C32.6785 25.9518 32.5701 25.9975 32.4754 26.0647C32.3806 26.132 32.3017 26.2192 32.2443 26.3202H32.1719Z" fill="#0349C3"/>
<path d="M29.4369 21.8167C30.6074 22.6725 32.0379 23.098 33.4863 23.0209C33.9939 23.0173 34.5009 22.9852 35.0048 22.9246C35.1934 22.9006 35.3647 22.8028 35.4811 22.6526C35.5975 22.5024 35.6494 22.3122 35.6255 22.1238C35.6015 21.9353 35.5036 21.7641 35.3533 21.6478C35.203 21.5315 35.0126 21.4796 34.824 21.5036C32.6668 21.7685 31.0278 21.4193 30.0877 20.48C29.6831 20.0895 29.4165 19.5781 29.3285 19.0229C29.3015 18.8388 29.2057 18.6717 29.0603 18.5555C28.9149 18.4393 28.7308 18.3825 28.5451 18.3967C28.4516 18.4057 28.3607 18.4331 28.2778 18.4775C28.195 18.5218 28.1217 18.5821 28.0623 18.6549C28.0029 18.7277 27.9586 18.8115 27.9318 18.9015C27.905 18.9916 27.8964 19.086 27.9064 19.1794C28.0625 20.221 28.6098 21.164 29.4369 21.8167V21.8167Z" fill="#0349C3"/>
<path d="M47.6474 40.6746L43.8994 34.2199C43.7397 33.946 43.5111 33.7185 43.2363 33.5601C42.9614 33.4016 42.6499 33.3178 42.3326 33.3168C42.0787 33.3227 41.8286 33.3801 41.5975 33.4853C40.9027 31.7679 39.586 30.3748 37.9097 29.5836C38.8077 28.4923 39.4289 27.2006 39.7205 25.8181C40.0121 24.4356 39.9654 23.0033 39.5845 21.6427C39.2035 20.2821 38.4996 19.0334 37.5324 18.0028C36.5652 16.9722 35.3634 16.1901 34.029 15.7228H34.0893C34.3615 15.4398 34.5753 15.1059 34.7183 14.7403C34.8614 14.3746 34.931 13.9844 34.9232 13.5919C34.9154 13.1994 34.8302 12.8123 34.6727 12.4527C34.5151 12.0931 34.2882 11.768 34.0049 11.496C33.7216 11.224 33.3875 11.0104 33.0216 10.8674C32.6557 10.7244 32.2652 10.6549 31.8724 10.6627C31.4796 10.6705 31.0922 10.7556 30.7323 10.913C30.3724 11.0705 30.047 11.2972 29.7748 11.5803C29.6431 11.7133 29.5692 11.8929 29.5692 12.08C29.5692 12.2672 29.6431 12.4468 29.7748 12.5798C29.91 12.7122 30.0917 12.7863 30.281 12.7863C30.4702 12.7863 30.652 12.7122 30.7871 12.5798C30.9746 12.3903 31.2077 12.2521 31.464 12.1786C31.7204 12.1051 31.9913 12.0987 32.2508 12.1601C32.5104 12.2214 32.7497 12.3484 32.9459 12.5289C33.1421 12.7094 33.2885 12.9373 33.3711 13.1907C33.4537 13.4441 33.4697 13.7144 33.4175 13.9758C33.3653 14.2371 33.2467 14.4806 33.0731 14.6829C32.8996 14.8852 32.6768 15.0395 32.4263 15.1309C32.1758 15.2224 31.906 15.2479 31.6428 15.205C31.4903 15.1729 31.3314 15.1986 31.1969 15.2773H31.0643C29.4734 15.2747 27.9116 15.7038 26.5456 16.5189C25.1797 17.3339 24.0609 18.5043 23.3086 19.9051C22.5563 21.3059 22.1988 22.8845 22.2742 24.4724C22.3497 26.0603 22.8552 27.598 23.7369 28.9213C23.5381 28.8241 23.3194 28.7746 23.0982 28.7768H21.6399V27.2233C21.6368 26.8091 21.4707 26.4127 21.1775 26.1198C20.8844 25.8269 20.4877 25.661 20.0732 25.6578H18.4824C18.0668 25.6578 17.6683 25.8227 17.3745 26.1163C17.0807 26.4099 16.9156 26.8081 16.9156 27.2233V28.7166H15.3851C14.9696 28.7166 14.5711 28.8815 14.2772 29.1751C13.9834 29.4687 13.8184 29.8669 13.8184 30.2821V31.9078C13.8215 32.322 13.9876 32.7184 14.2807 33.0113C14.5739 33.3042 14.9705 33.4702 15.3851 33.4733H16.8795V34.9545C16.8807 35.1668 16.9252 35.3766 17.0101 35.5713C17.0951 35.7659 17.2187 35.9412 17.3736 36.0865C17.3094 36.26 17.2768 36.4435 17.2772 36.6284V38.1939C17.281 38.4759 17.3615 38.7515 17.5101 38.9912C17.6587 39.231 17.8698 39.4258 18.1208 39.5547C17.241 40.5301 16.7108 42.1559 18.3136 44.6968C19.0598 45.9129 20.0947 46.9263 21.3266 47.6472C21.8998 47.9694 22.5382 48.1587 23.1946 48.2011C25.4482 50.1038 29.1361 50.1159 31.0884 50.1159C32.3582 50.1365 33.6277 50.056 34.8847 49.875H49.8167C50.1338 49.8728 50.4448 49.7884 50.7194 49.6301C50.9941 49.4718 51.2229 49.245 51.3835 48.9718C51.5375 48.6957 51.6184 48.3848 51.6184 48.0687C51.6184 47.7525 51.5375 47.4416 51.3835 47.1655L47.6474 40.6746ZM33.2577 47.1775C33.0724 47.5024 32.9964 47.878 33.0408 48.2493C32.4382 48.2493 31.8356 48.3095 31.0884 48.3095C29.0968 48.4303 27.1026 48.118 25.2434 47.3943C25.6564 46.9442 25.9287 46.3833 26.0267 45.7806C26.0817 45.4666 26.1059 45.148 26.099 44.8293C26.0908 44.5022 26.0586 44.1762 26.0026 43.8538C25.8279 42.9598 25.5148 42.0985 25.0746 41.3008C25.0746 41.3008 25.0746 41.3008 25.0746 41.2406V40.8312C25.9542 40.6481 26.852 40.5673 27.7501 40.5903H29.2807C30.4858 40.5903 31.691 40.5903 32.8962 40.5903C34.2563 40.515 35.6205 40.5714 36.9696 40.7589L35.1619 43.8538L34.6075 44.8172L34.0531 45.7806L33.2577 47.1775ZM19.8442 43.7214C18.4824 41.5899 19.2778 40.7951 19.8442 40.4097L20.0129 40.3013C20.1136 40.242 20.2183 40.1897 20.3263 40.1448V41.2406C20.3375 41.5523 20.4424 41.8534 20.6273 42.1047C20.8121 42.356 21.0684 42.5458 21.3627 42.6496H21.6037C21.6988 42.6756 21.7954 42.6957 21.893 42.7098H23.52C23.6106 42.7013 23.6997 42.6811 23.7851 42.6496C23.8915 42.9012 23.9841 43.1585 24.0623 43.4203C24.1681 43.7665 24.2447 44.121 24.2913 44.48C24.3424 44.8072 24.3424 45.1403 24.2913 45.4675C24.2363 45.7423 24.0871 45.9893 23.8695 46.166C23.7108 46.2393 23.5381 46.2773 23.3633 46.2773C23.1885 46.2773 23.0158 46.2393 22.8571 46.166C22.6498 46.098 22.4483 46.0135 22.2545 45.9131C22.0358 45.7922 21.8264 45.6553 21.6279 45.5036C20.9364 45.015 20.3332 44.4123 19.8442 43.7214V43.7214ZM31.0884 17.1318C32.4438 17.1391 33.7667 17.547 34.8907 18.304C36.0146 19.061 36.8893 20.1333 37.4047 21.3859C37.92 22.6386 38.053 24.0156 37.7869 25.3436C37.5208 26.6716 36.8674 27.8912 35.9091 28.849C35.6196 29.1326 35.3094 29.3942 34.9811 29.6318C34.5309 29.9341 34.0502 30.1883 33.547 30.3905C31.9458 31.0322 30.1587 31.0322 28.5576 30.3905C28.0531 30.1909 27.5722 29.9364 27.1234 29.6318C26.7951 29.3942 26.4849 29.1326 26.1954 28.849C25.2371 27.8912 24.5838 26.6716 24.3176 25.3436C24.0515 24.0156 24.1845 22.6386 24.6999 21.3859C25.2152 20.1333 26.0899 19.061 27.2139 18.304C28.3378 17.547 29.6607 17.1391 31.0161 17.1318H31.0884ZM37.8856 39.1693L37.3674 39.0369V36.6284C37.3643 36.4697 37.2998 36.3183 37.1874 36.2061C37.0751 36.0938 36.9236 36.0294 36.7648 36.0263C36.605 36.0263 36.4517 36.0897 36.3387 36.2026C36.2257 36.3156 36.1622 36.4687 36.1622 36.6284V38.8562C35.0581 38.8008 33.952 38.8008 32.848 38.8562C31.7151 38.8562 30.4376 38.8562 29.3289 38.8562H28.0152C28.0967 38.666 28.1378 38.461 28.1358 38.2541V36.6284C28.1358 36.2132 27.9707 35.815 27.6769 35.5214C27.3831 35.2278 26.9846 35.0629 26.569 35.0629H25.0867V33.5094C25.0854 33.2971 25.041 33.0873 24.9561 32.8927C24.8711 32.6981 24.7474 32.5228 24.5926 32.3774C24.6488 32.2268 24.6814 32.0684 24.689 31.9078V31.5104C25.0391 31.3068 25.406 31.1335 25.7857 30.9926C27.308 32.1566 29.1715 32.7874 31.0884 32.7874C33.0053 32.7874 34.8689 32.1566 36.3912 30.9926C37.3296 31.3138 38.1701 31.8698 38.8325 32.6076C39.495 33.3454 39.9573 34.2405 40.1754 35.2074L37.8856 39.1693ZM18.8439 36.6284H21.893V33.5094H23.52V36.6284H26.569V38.1939H23.52V41.2406H21.893V38.1939H18.8439V36.6284ZM15.3851 31.968V30.2821H18.4824V27.2233H20.1093V30.2821H23.1584V31.9078H20.0732V34.9545H18.4824V31.9078L15.3851 31.968ZM42.3326 48.0807H34.8244L36.126 45.8408L36.7166 44.8293L37.0058 44.3235L37.3312 43.7695L38.5364 41.6982L38.9702 40.9396L39.4402 40.1327L39.7897 39.5306L40.4887 38.3264L41.3806 36.6886L42.1639 35.3399L42.3085 35.087L46.0566 41.5778L49.8167 48.0807H42.3326Z" fill="#0349C3"/>
<path d="M42.3575 40.1816H41.9357H41.3813H41.1523L41.2488 40.9644L41.5139 43.0477L41.6947 44.5289H41.7429H42.8637H42.936L42.9601 44.3965L43.4904 40.29L43.5024 40.1816H43.394H42.3575Z" fill="white"/>
<path d="M41.3438 45.1309V46.1906V46.9372H41.862H43.2961V45.4801V45.1309H42.4163H41.3438Z" fill="white"/>
</g>
</g>
<defs>
<clipPath id="clip0_1193_10793">
<rect width="64" height="64" fill="white" transform="translate(0 0.5)"/>
</clipPath>
<clipPath id="clip1_1193_10793">
<rect width="37.8182" height="39.499" fill="white" transform="translate(13.8184 10.6172)"/>
</clipPath>
</defs>
</svg>
