<?xml version="1.0" encoding="utf-8"?>
<!-- Generator: Adobe Illustrator 25.4.1, SVG Export Plug-In . SVG Version: 6.00 Build 0)  -->
<svg version="1.1" id="Layer_1" xmlns="http://www.w3.org/2000/svg" xmlns:xlink="http://www.w3.org/1999/xlink" x="0px" y="0px"
	 viewBox="0 0 600 360" style="enable-background:new 0 0 600 360;" xml:space="preserve">
<style type="text/css">
	.st0{fill:#3F4746;}
	.st1{fill:#FFFFFF;}
	.st2{fill:#24B6BC;}
	.st3{fill:#2773E2;}
	.st4{fill:#4694F2;}
	.st5{fill:#A7D0FC;}
	.st6{fill:#C8E2FD;}
	.st7{fill:#86BEFB;}
	.st8{fill:#E9F3FE;}
	.st9{fill:#00C1B3;}
	.st10{fill:#14DBC7;}
	.st11{fill:#C8D2DC;}
	.st12{fill:#DCE6EB;}
	.st13{fill:#7E8B96;}
	.st14{fill:#1D2827;}
	.st15{fill:#2E3A39;}
	.st16{fill:#F7B62D;}
	.st17{fill:#595857;}
	.st18{fill:#BFBEBD;}
	.st19{fill:#3E3A39;}
	.st20{fill:#C8C9CA;}
	.st21{fill:#9E9E9F;}
	.st22{fill:#F5F4F4;}
	.st23{fill:#E5E5E4;}
	.st24{fill:#F29600;}
	.st25{opacity:0.3;fill:#D9761F;}
	.st26{fill:#E8E7E2;}
	.st27{fill:#8A4C99;}
	.st28{fill:#5B6F79;}
	.st29{fill:#D2C6C3;}
	.st30{fill:#DBDCDC;}
	.st31{fill:#99A823;}
	.st32{fill:#77463A;}
	.st33{fill:#F3EDE4;}
	.st34{fill:#D6D6D6;}
	.st35{fill:#BCD8C6;}
	.st36{fill:#47B798;}
	.st37{fill:#129F76;}
	.st38{fill:#EEEEEF;}
	.st39{clip-path:url(#SVGID_00000013162283172974430160000005095208851908529551_);}
	.st40{clip-path:url(#SVGID_00000087412142523310803580000009736807720351163833_);fill:#0090A2;}
	.st41{opacity:0.3;fill:#FFFFFF;}
	.st42{opacity:0.25;clip-path:url(#SVGID_00000075120834627453953520000016631025490378006925_);fill:#F7F7F7;}
	.st43{fill:#FBDFC3;}
	.st44{opacity:0.1;}
	.st45{fill:#B4B5B5;}
	.st46{fill:#231916;}
	.st47{fill:#328BBF;}
	.st48{opacity:0.7;fill:#231916;}
	.st49{fill:#DBC3A9;}
	.st50{fill:#FCEBDB;}
	.st51{fill:#FFF8F0;}
	.st52{fill:#333333;}
	.st53{opacity:0.2;}
	.st54{clip-path:url(#SVGID_00000064313451436872426810000008510634381012252835_);fill:#2F2826;}
	.st55{clip-path:url(#SVGID_00000033340856825971605580000001013459868060434583_);}
	.st56{clip-path:url(#SVGID_00000093857362360213715190000005903310013960059534_);fill:#0090A2;}
	.st57{opacity:0.25;clip-path:url(#SVGID_00000103246917733513095220000017058031738561426105_);fill:#F7F7F7;}
	.st58{clip-path:url(#SVGID_00000161591233200705901330000010561528469188691106_);fill:#2F2826;}
	.st59{fill:#D8D8D8;}
	.st60{fill:#FFC14F;}
	.st61{fill:#FFA90B;}
	.st62{fill:#F44545;}
	.st63{fill:#FB5858;}
	.st64{fill:#8C96DD;}
	.st65{fill:#A6AEE5;}
	.st66{fill:#717ED6;}
	.st67{fill:#494949;}
	.st68{clip-path:url(#SVGID_00000111159115041386817420000011474826427051278252_);fill:#00C1B3;}
	.st69{opacity:0.3;clip-path:url(#SVGID_00000111159115041386817420000011474826427051278252_);}
	.st70{fill:#E1CBA8;}
	.st71{fill:#E6D6B7;}
	.st72{fill:url(#SVGID_00000091006804863705781180000018366291984698029455_);}
	.st73{fill:#CC9DD0;}
	.st74{fill:url(#SVGID_00000121240466398826464020000010281577499806541736_);}
	.st75{fill:url(#SVGID_00000122694978558856239780000012520534892950824336_);}
	.st76{fill:url(#SVGID_00000039839079484763751790000014976066001359015562_);}
	.st77{fill:url(#SVGID_00000149349572782243429660000009481250616473034423_);}
	.st78{fill:url(#SVGID_00000147940330315273068750000002458837455444687270_);}
	.st79{fill:url(#SVGID_00000043431447000296124730000004849642756502398869_);}
	.st80{fill:url(#SVGID_00000080196135012767425120000004712946184945593472_);}
	.st81{fill:url(#SVGID_00000137103527500214664270000008686130818951596696_);}
	.st82{fill:url(#SVGID_00000072999203746037601550000013372747987649806473_);}
	.st83{fill:url(#SVGID_00000147206521550216404310000003539103203561311124_);}
	.st84{fill:url(#SVGID_00000122678257137358298390000007101568156980615054_);}
	.st85{fill:url(#SVGID_00000054984268654316812560000000314130746250481037_);}
	.st86{fill:url(#SVGID_00000170249890431537639230000000459801996013904045_);}
	.st87{fill:#B0AEA8;}
	.st88{fill:#A4C7C3;}
	.st89{fill:#A4E9E3;}
	.st90{fill:#95D9D4;}
	.st91{fill:url(#SVGID_00000127754066965770769360000001006967557376676741_);}
	.st92{fill:#7BC3BA;}
	.st93{fill:url(#SVGID_00000160887145773200905760000017353490989360328108_);}
	.st94{fill:url(#SVGID_00000077295493334503102880000016311968553245522071_);}
	.st95{fill:url(#SVGID_00000079464425586815315510000009356219356674936481_);}
	.st96{fill:url(#SVGID_00000146473248522797766100000013198277803823758741_);}
	.st97{fill:url(#SVGID_00000000944828708224404520000014600941591626734012_);}
	.st98{fill:url(#SVGID_00000083071203805369080710000008454840768396212402_);}
	.st99{fill:url(#SVGID_00000018224698818336742480000009525577849909445033_);}
	.st100{fill:url(#SVGID_00000068652064226639546430000009641095828944884123_);}
	.st101{opacity:0.75;fill:url(#SVGID_00000134930161895860383800000001101936928717713841_);}
	.st102{fill:url(#SVGID_00000168093706549820138950000002417377363917893052_);}
	.st103{opacity:0.5;fill:url(#SVGID_00000113338615327705923890000017916974647782648717_);}
	.st104{fill:url(#SVGID_00000135674912610042378670000006940349883052508078_);}
	.st105{opacity:0.5;fill:url(#SVGID_00000120527014432435440700000000572667531894105773_);}
	.st106{fill:url(#SVGID_00000179648270265881007260000002121396199955260807_);}
	.st107{fill:url(#SVGID_00000106851609328297337110000015152539568900059036_);}
	.st108{clip-path:url(#SVGID_00000111159115041386817420000011474826427051278252_);}
	.st109{fill:#7CD2E3;}
	.st110{fill:#44BFD7;}
	.st111{fill:#A6E0EC;}
	.st112{fill:#FFF5F5;}
	.st113{fill:#DEF4F8;}
	.st114{fill:#FBB3A8;}
	.st115{fill:#1D64CC;}
	.st116{fill:#EFEFEF;}
	.st117{fill:#E2E2E2;}
	.st118{fill:#24A7FF;}
	.st119{fill:#FFD4CF;}
	.st120{fill:#FFB09E;}
	.st121{fill:#264F59;}
	.st122{fill:#142F33;}
	.st123{fill:#381E0D;}
	.st124{fill:#231107;}
	.st125{fill:#F97070;}
	.st126{fill:#2B2B2B;}
	.st127{clip-path:url(#SVGID_00000111159115041386817420000011474826427051278252_);fill:none;}
	.st128{fill:#25BCBD;}
	.st129{fill:#FAAF40;}
</style>
<g>
	<path class="st59" d="M207.4,163l-24.3-24.3h-70.3c-8.6,0-15.7-7-15.7-15.7V68.1c0-8.6,7-15.7,15.7-15.7H398
		c8.6,0,15.7,7,15.7,15.7v54.9c0,8.6-7,15.7-15.7,15.7H207.4V163z M112.7,56.4c-6.4,0-11.7,5.2-11.7,11.7v54.9
		c0,6.4,5.2,11.7,11.7,11.7h72l18.6,18.6v-18.6H398c6.4,0,11.7-5.2,11.7-11.7V68.1c0-6.4-5.2-11.7-11.7-11.7H112.7z"/>
	<g>
		<path class="st60" d="M289.6,270.6h-73.7v-85.2h73.7V270.6z"/>
		<path class="st61" d="M231.2,270.6h-15.3v-85.2h15.3V270.6z"/>
		<path class="st5" d="M285.1,188.3h-64.7c-2.5,0-4.5-2-4.5-4.5v-12.3c0-2.5,2-4.5,4.5-4.5h64.7c2.5,0,4.5,2,4.5,4.5v12.3
			C289.6,186.3,287.6,188.3,285.1,188.3z"/>
		<path class="st6" d="M300.4,188.3h-64.7c-2.5,0-4.5-2-4.5-4.5v-12.3c0-2.5,2-4.5,4.5-4.5h64.7c2.5,0,4.5,2,4.5,4.5v12.3
			C304.9,186.3,302.9,188.3,300.4,188.3z"/>
		<path class="st6" d="M285.1,188.9h-72.4c-2.5,0-4.5-2-4.5-4.5c0-2.5,2-4.5,4.5-4.5h72.4c2.5,0,4.5,2,4.5,4.5
			C289.6,186.9,287.6,188.9,285.1,188.9z"/>
		<path class="st8" d="M301.4,188.9H229c-2.5,0-4.5-2-4.5-4.5c0-2.5,2-4.5,4.5-4.5h72.4c2.5,0,4.5,2,4.5,4.5
			C305.9,186.9,303.9,188.9,301.4,188.9z"/>
		<path class="st62" d="M378.3,246.4v45.4c0,7.4-6,13.5-13.5,13.5h-76.4c-7.4,0-13.5-6-13.5-13.5V166.9c0-7.4,6-13.5,13.5-13.5h6.3
			c3.7,0,6.7-3,6.7-6.7v-21.1H333v107.3h31.9C372.3,232.9,378.3,238.9,378.3,246.4z"/>
		<path class="st63" d="M374.3,177.7v51.2c0,0,3.7,14.3,3,16.9c-3.6,13.5-15.9,23.5-30.6,23.5c-17.5,0-31.7-14.2-31.7-31.7V125.6
			h36.8v21.1c0,3.7,3,6.7,6.7,6.7h6.3c7.4,0,13.5,6,13.5,13.5v3.6L374.3,177.7z"/>
		<path class="st5" d="M347.4,116.6V139c0,2.5-2,4.5-4.5,4.5h-41.3c-2.5,0-4.5-2-4.5-4.5v-22.5c0-2.5,2-4.5,4.5-4.5h41.3
			C345.3,112.1,347.4,114.1,347.4,116.6z"/>
		<path class="st6" d="M356.3,116.6V139c0,2.5-2,4.5-4.5,4.5h-41.3c-2.5,0-4.5-2-4.5-4.5v-22.5c0-2.5,2-4.5,4.5-4.5h41.3
			C354.3,112.1,356.3,114.1,356.3,116.6z"/>
		<path class="st7" d="M324.5,118.8v18c0,1.2-1,2.2-2.2,2.2s-2.2-1-2.2-2.2v-18c0-1.2,1-2.2,2.2-2.2S324.5,117.6,324.5,118.8z
			 M313.2,116.6c-1.2,0-2.2,1-2.2,2.2v18c0,1.2,1,2.2,2.2,2.2s2.2-1,2.2-2.2v-18C315.5,117.6,314.5,116.6,313.2,116.6z M304.2,116.6
			c-1.2,0-2.2,1-2.2,2.2v18c0,1.2,1,2.2,2.2,2.2s2.2-1,2.2-2.2v-18C306.5,117.6,305.5,116.6,304.2,116.6z M349.2,116.6
			c-1.2,0-2.2,1-2.2,2.2v18c0,1.2,1,2.2,2.2,2.2s2.2-1,2.2-2.2v-18C351.4,117.6,350.4,116.6,349.2,116.6z M340.2,116.6
			c-1.2,0-2.2,1-2.2,2.2v18c0,1.2,1,2.2,2.2,2.2s2.2-1,2.2-2.2v-18C342.4,117.6,341.4,116.6,340.2,116.6z M331.2,116.6
			c-1.2,0-2.2,1-2.2,2.2v18c0,1.2,1,2.2,2.2,2.2c1.2,0,2.2-1,2.2-2.2v-18C333.4,117.6,332.4,116.6,331.2,116.6z"/>
		<path class="st6" d="M374.3,177.2v62.9c0,3.7-3,6.7-6.7,6.7h-49.4c-3.7,0-6.7-3-6.7-6.7v-62.9c0-3.7,3-6.7,6.7-6.7h49.4
			C371.3,170.5,374.3,173.5,374.3,177.2z"/>
		<path class="st8" d="M378.3,170.5v76.4H333c-3.7,0-6.7-3-6.7-6.7v-62.9c0-3.7,3-6.7,6.7-6.7H378.3z"/>
		<path class="st5" d="M342.9,218.1c0-1.2,1-2.2,2.2-2.2h18c1.2,0,2.2,1,2.2,2.2s-1,2.2-2.2,2.2h-18
			C343.9,220.3,342.9,219.3,342.9,218.1z M363.1,224.8h-18c-1.2,0-2.2,1-2.2,2.2c0,1.2,1,2.2,2.2,2.2h18c1.2,0,2.2-1,2.2-2.2
			S364.3,224.8,363.1,224.8z M363.1,233.8h-18c-1.2,0-2.2,1-2.2,2.2c0,1.2,1,2.2,2.2,2.2h18c1.2,0,2.2-1,2.2-2.2
			C365.3,234.8,364.3,233.8,363.1,233.8z"/>
		<path class="st64" d="M334.5,220.8v88.5c0,3.7-3,6.7-6.7,6.7H184.1c-3.7,0-6.7-3-6.7-6.7v-88.5c0-3.7,3-6.7,6.7-6.7h143.7
			C331.5,214,334.5,217.1,334.5,220.8z"/>
		<path class="st65" d="M334.5,220.8v88.5c0,3.7-3,6.7-6.7,6.7h-41.1c-28.2,0-51-22.8-51-51s22.8-51,51-51h41.1
			C331.5,214,334.5,217.1,334.5,220.8z"/>
		<path class="st66" d="M320.6,265c0,1.9-1.5,3.4-3.4,3.4H193.7c-1.9,0-3.4-1.5-3.4-3.4s1.5-3.4,3.4-3.4h123.5
			C319.1,261.6,320.6,263.2,320.6,265z M274.2,251.3c7.4,0,13.5-6,13.5-13.5s-6-13.5-13.5-13.5s-13.5,6-13.5,13.5
			S266.7,251.3,274.2,251.3z M310.7,251.3c7.4,0,13.5-6,13.5-13.5s-6-13.5-13.5-13.5s-13.5,6-13.5,13.5S303.3,251.3,310.7,251.3z
			 M201.1,251.3c7.4,0,13.5-6,13.5-13.5s-6-13.5-13.5-13.5s-13.5,6-13.5,13.5S193.7,251.3,201.1,251.3z M237.7,251.3
			c7.4,0,13.5-6,13.5-13.5s-6-13.5-13.5-13.5s-13.5,6-13.5,13.5S230.2,251.3,237.7,251.3z M274.2,278.3c-7.4,0-13.5,6-13.5,13.5
			s6,13.5,13.5,13.5s13.5-6,13.5-13.5S281.6,278.3,274.2,278.3L274.2,278.3z M310.7,278.3c-7.4,0-13.5,6-13.5,13.5s6,13.5,13.5,13.5
			s13.5-6,13.5-13.5S318.2,278.3,310.7,278.3z M201.1,278.3c-7.4,0-13.5,6-13.5,13.5s6,13.5,13.5,13.5s13.5-6,13.5-13.5
			S208.6,278.3,201.1,278.3z M237.7,278.3c-7.4,0-13.5,6-13.5,13.5s6,13.5,13.5,13.5s13.5-6,13.5-13.5S245.1,278.3,237.7,278.3z"/>
		<path class="st61" d="M356.4,183c3.6,3.6,1.6,11.3-4.3,17.3c-6,6-13.7,7.9-17.3,4.3c-3.6-3.6-1.6-11.3,4.3-17.3
			C345,181.4,352.8,179.5,356.4,183z M316.4,308.3c-3.6-3.6-11.3-1.6-17.3,4.3c-6,6-7.9,13.7-4.3,17.3c3.6,3.6,11.3,1.6,17.3-4.3
			C318,319.6,320,311.9,316.4,308.3z"/>
		<path class="st60" d="M356.4,183c3.1,3.1,2.1,9.4-2.2,14.9c-3.5,2.4-8.4,2.1-11.6-1c0,0,0,0-0.1-0.1c0,0,0,0-0.1-0.1
			c-3.1-3.1-3.5-8-1-11.6C347,181,353.2,179.9,356.4,183L356.4,183z M316.4,308.3c-3.1-3.1-9.4-2.1-14.9,2.2
			c-2.4,3.5-2.1,8.4,1,11.6c0,0,0,0,0.1,0.1s0,0,0.1,0.1c3.1,3.1,8,3.5,11.6,1C318.4,317.7,319.5,311.5,316.4,308.3z"/>
		<path class="st6" d="M283.2,237.8c0,5-4,9-9,9s-9-4-9-9s4-9,9-9S283.2,232.9,283.2,237.8z M310.7,246.8c5,0,9-4,9-9s-4-9-9-9
			c-5,0-9,4-9,9S305.8,246.8,310.7,246.8z M201.1,228.9c-5,0-9,4-9,9s4,9,9,9c5,0,9-4,9-9S206.1,228.9,201.1,228.9z M237.7,228.9
			c-5,0-9,4-9,9s4,9,9,9s9-4,9-9S242.6,228.9,237.7,228.9z M274.2,282.8c-5,0-9,4-9,9s4,9,9,9c5,0,9-4,9-9S279.1,282.8,274.2,282.8z
			 M310.7,282.8c-5,0-9,4-9,9s4,9,9,9c5,0,9-4,9-9S315.7,282.8,310.7,282.8z M201.1,282.8c-5,0-9,4-9,9s4,9,9,9c5,0,9-4,9-9
			S206.1,282.8,201.1,282.8z M237.7,282.8c-5,0-9,4-9,9s4,9,9,9s9-4,9-9S242.6,282.8,237.7,282.8z M332.1,320.5c0,5-4,9-9,9
			s-9-4-9-9s4-9,9-9S332.1,315.5,332.1,320.5z"/>
		<path class="st8" d="M283.2,237.8c0,1.1-0.2,2.1-0.5,3.1c-1,0.3-2,0.5-3.1,0.5c-5,0-9-4-9-9c0-1.1,0.2-2.1,0.5-3.1
			c1-0.3,2-0.5,3.1-0.5C279.1,228.9,283.2,232.9,283.2,237.8z M316.1,241.4c1.1,0,2.1-0.2,3.1-0.5c0.3-1,0.5-2,0.5-3.1c0-5-4-9-9-9
			c-1.1,0-2.1,0.2-3.1,0.5c-0.3,1-0.5,2-0.5,3.1C307.1,237.4,311.1,241.4,316.1,241.4z M201.1,228.9c-1.1,0-2.1,0.2-3.1,0.5
			c-0.3,1-0.5,2-0.5,3.1c0,5,4,9,9,9c1.1,0,2.1-0.2,3.1-0.5c0.3-1,0.5-2,0.5-3.1C210.1,232.9,206.1,228.9,201.1,228.9z M237.7,228.9
			c-1.1,0-2.1,0.2-3.1,0.5c-0.3,1-0.5,2-0.5,3.1c0,5,4,9,9,9c1.1,0,2.1-0.2,3.1-0.5c0.3-1,0.5-2,0.5-3.1
			C246.6,232.9,242.6,228.9,237.7,228.9z M274.2,282.8c-1.1,0-2.1,0.2-3.1,0.5c-0.3,1-0.5,2-0.5,3.1c0,5,4,9,9,9
			c1.1,0,2.1-0.2,3.1-0.5c0.3-1,0.5-2,0.5-3.1C283.2,286.8,279.1,282.8,274.2,282.8z M310.7,282.8c-1.1,0-2.1,0.2-3.1,0.5
			c-0.3,1-0.5,2-0.5,3.1c0,5,4,9,9,9c1.1,0,2.1-0.2,3.1-0.5c0.3-1,0.5-2,0.5-3.1C319.7,286.8,315.7,282.8,310.7,282.8z M201.1,282.8
			c-1.1,0-2.1,0.2-3.1,0.5c-0.3,1-0.5,2-0.5,3.1c0,5,4,9,9,9c1.1,0,2.1-0.2,3.1-0.5c0.3-1,0.5-2,0.5-3.1
			C210.1,286.8,206.1,282.8,201.1,282.8z M237.7,282.8c-1.1,0-2.1,0.2-3.1,0.5c-0.3,1-0.5,2-0.5,3.1c0,5,4,9,9,9
			c1.1,0,2.1-0.2,3.1-0.5c0.3-1,0.5-2,0.5-3.1C246.6,286.8,242.6,282.8,237.7,282.8z M332.1,320.5c0,1.1-0.2,2.1-0.5,3.1
			c-1,0.3-2,0.5-3.1,0.5c-5,0-9-4-9-9c0-1.1,0.2-2.1,0.5-3.1c1-0.3,2-0.5,3.1-0.5C328.1,311.5,332.1,315.5,332.1,320.5z"/>
	</g>
	<g>
		<path class="st3" d="M449.9,257v37.2c0,6.1-4.9,11-11,11h-62.6c-6.1,0-11-4.9-11-11V191.9c0-6.1,4.9-11,11-11h5.2
			c3,0,5.5-2.5,5.5-5.5V158h25.8v88h26.1C444.9,246,449.9,250.9,449.9,257z"/>
		<path class="st4" d="M446.6,200.7v41.9c0,0,3,11.7,2.4,13.9c-2.9,11.1-13.1,19.3-25.1,19.3c-14.3,0-25.9-11.6-25.9-25.9V158h30.2
			v17.3c0,3,2.5,5.5,5.5,5.5h5.2c6.1,0,11,4.9,11,11v2.9L446.6,200.7z"/>
		<path class="st5" d="M424.5,150.6V169c0,2-1.6,3.7-3.7,3.7h-33.9c-2,0-3.7-1.6-3.7-3.7v-18.4c0-2,1.6-3.7,3.7-3.7h33.9
			C422.8,147,424.5,148.6,424.5,150.6z"/>
		<path class="st6" d="M431.8,150.6V169c0,2-1.6,3.7-3.7,3.7h-33.9c-2,0-3.7-1.6-3.7-3.7v-18.4c0-2,1.6-3.7,3.7-3.7h33.9
			C430.2,147,431.8,148.6,431.8,150.6z"/>
		<path class="st7" d="M405.7,152.5v14.7c0,1-0.8,1.8-1.8,1.8c-1,0-1.8-0.8-1.8-1.8v-14.7c0-1,0.8-1.8,1.8-1.8
			C404.9,150.6,405.7,151.5,405.7,152.5z M396.5,150.6c-1,0-1.8,0.8-1.8,1.8v14.7c0,1,0.8,1.8,1.8,1.8c1,0,1.8-0.8,1.8-1.8v-14.7
			C398.3,151.5,397.5,150.6,396.5,150.6z M389.1,150.6c-1,0-1.8,0.8-1.8,1.8v14.7c0,1,0.8,1.8,1.8,1.8c1,0,1.8-0.8,1.8-1.8v-14.7
			C391,151.5,390.2,150.6,389.1,150.6z M425.9,150.6c-1,0-1.8,0.8-1.8,1.8v14.7c0,1,0.8,1.8,1.8,1.8c1,0,1.8-0.8,1.8-1.8v-14.7
			C427.8,151.5,427,150.6,425.9,150.6z M418.6,150.6c-1,0-1.8,0.8-1.8,1.8v14.7c0,1,0.8,1.8,1.8,1.8s1.8-0.8,1.8-1.8v-14.7
			C420.4,151.5,419.6,150.6,418.6,150.6z M411.2,150.6c-1,0-1.8,0.8-1.8,1.8v14.7c0,1,0.8,1.8,1.8,1.8s1.8-0.8,1.8-1.8v-14.7
			C413.1,151.5,412.2,150.6,411.2,150.6z"/>
		<path class="st8" d="M449.9,194.8v62.6h-84.6v-62.6H449.9z"/>
		<path class="st5" d="M420.8,233.8c0-1,0.8-1.8,1.8-1.8h14.7c1,0,1.8,0.8,1.8,1.8s-0.8,1.8-1.8,1.8h-14.7
			C421.6,235.7,420.8,234.8,420.8,233.8z M437.4,239.3h-14.7c-1,0-1.8,0.8-1.8,1.8s0.8,1.8,1.8,1.8h14.7c1,0,1.8-0.8,1.8-1.8
			S438.4,239.3,437.4,239.3z M437.4,246.7h-14.7c-1,0-1.8,0.8-1.8,1.8c0,1,0.8,1.8,1.8,1.8h14.7c1,0,1.8-0.8,1.8-1.8
			C439.2,247.5,438.4,246.7,437.4,246.7z"/>
	</g>
	<g>
		<path class="st67" d="M133.2,101.6c0.6,0.3,1.2,0.6,1.8,0.8c0.6,0.2,1.3,0.3,2.1,0.3c0.6,0,1.1-0.1,1.6-0.3
			c0.5-0.2,0.9-0.5,1.2-0.9c0.3-0.4,0.6-0.9,0.8-1.6c0.2-0.7,0.3-1.5,0.3-2.5c-0.4,0.5-1,0.9-1.8,1.2c-0.8,0.3-1.5,0.4-2.3,0.4
			c-0.9,0-1.7-0.1-2.4-0.4c-0.7-0.3-1.3-0.7-1.8-1.2c-0.5-0.5-0.9-1.1-1.1-1.8c-0.3-0.7-0.4-1.5-0.4-2.4v-0.5c0-0.9,0.1-1.6,0.4-2.4
			c0.3-0.7,0.7-1.4,1.3-1.9c0.6-0.5,1.2-1,2.1-1.3c0.8-0.3,1.7-0.5,2.7-0.5c1.2,0,2.2,0.2,3,0.5c0.8,0.4,1.5,0.9,2,1.6
			c0.5,0.7,0.9,1.5,1.2,2.5c0.2,1,0.4,2,0.4,3.2v1.2c0,2-0.2,3.7-0.5,5c-0.3,1.3-0.8,2.3-1.5,3.1c-0.6,0.7-1.4,1.2-2.3,1.5
			c-0.9,0.3-1.9,0.4-3,0.4c-0.8,0-1.7-0.1-2.6-0.3c-0.9-0.2-1.6-0.5-2.3-1L133.2,101.6z M140.9,92.7c0-1-0.3-1.8-0.8-2.3
			c-0.5-0.6-1.3-0.8-2.4-0.8c-1.1,0-2,0.3-2.5,0.8c-0.6,0.6-0.9,1.3-0.9,2.4V93c0,1.1,0.3,1.9,0.8,2.4c0.5,0.5,1.4,0.8,2.5,0.8
			c0.6,0,1.1-0.1,1.5-0.2c0.4-0.2,0.8-0.4,1-0.7c0.3-0.3,0.5-0.6,0.6-1c0.1-0.4,0.2-0.8,0.2-1.2V92.7z"/>
		<path class="st67" d="M149.1,101.6c0.6,0.3,1.2,0.6,1.8,0.8c0.6,0.2,1.3,0.3,2.1,0.3c0.6,0,1.1-0.1,1.6-0.3s0.9-0.5,1.2-0.9
			c0.3-0.4,0.6-0.9,0.8-1.6c0.2-0.7,0.3-1.5,0.3-2.5c-0.4,0.5-1,0.9-1.8,1.2c-0.8,0.3-1.5,0.4-2.3,0.4c-0.9,0-1.7-0.1-2.4-0.4
			c-0.7-0.3-1.3-0.7-1.8-1.2c-0.5-0.5-0.9-1.1-1.1-1.8c-0.3-0.7-0.4-1.5-0.4-2.4v-0.5c0-0.9,0.1-1.6,0.4-2.4
			c0.3-0.7,0.7-1.4,1.3-1.9c0.6-0.5,1.2-1,2.1-1.3c0.8-0.3,1.7-0.5,2.7-0.5c1.2,0,2.2,0.2,3,0.5c0.8,0.4,1.5,0.9,2,1.6
			c0.5,0.7,0.9,1.5,1.2,2.5c0.2,1,0.4,2,0.4,3.2v1.2c0,2-0.2,3.7-0.5,5c-0.3,1.3-0.8,2.3-1.5,3.1s-1.4,1.2-2.3,1.5
			c-0.9,0.3-1.9,0.4-3,0.4c-0.8,0-1.7-0.1-2.6-0.3c-0.9-0.2-1.6-0.5-2.3-1L149.1,101.6z M156.8,92.7c0-1-0.3-1.8-0.8-2.3
			c-0.5-0.6-1.3-0.8-2.4-0.8c-1.1,0-2,0.3-2.5,0.8c-0.6,0.6-0.9,1.3-0.9,2.4V93c0,1.1,0.3,1.9,0.8,2.4c0.5,0.5,1.4,0.8,2.5,0.8
			c0.6,0,1.1-0.1,1.5-0.2c0.4-0.2,0.8-0.4,1-0.7c0.3-0.3,0.5-0.6,0.6-1c0.1-0.4,0.2-0.8,0.2-1.2V92.7z"/>
		<path class="st67" d="M167.4,86.5c1.3,0,2.4,0.4,3.2,1.2c0.8,0.8,1.2,1.9,1.2,3.2v1c0,1.3-0.4,2.4-1.2,3.2
			c-0.8,0.8-1.8,1.2-3.2,1.2c-1.3,0-2.4-0.4-3.2-1.2c-0.8-0.8-1.2-1.9-1.2-3.2v-1c0-1.3,0.4-2.4,1.2-3.2
			C165,86.9,166,86.5,167.4,86.5z M167.4,94.1c0.7,0,1.2-0.2,1.5-0.6c0.3-0.4,0.4-1,0.4-1.7V91c0-0.7-0.1-1.2-0.4-1.6
			c-0.3-0.4-0.7-0.6-1.5-0.6c-0.7,0-1.2,0.2-1.5,0.6c-0.3,0.4-0.4,1-0.4,1.6v0.9c0,0.7,0.1,1.2,0.4,1.7
			C166.2,93.9,166.7,94.1,167.4,94.1z M166.2,105.2l11-18.4h2.9l-11,18.4H166.2z M179.1,95.7c1.3,0,2.4,0.4,3.2,1.2
			c0.8,0.8,1.2,1.9,1.2,3.2v1c0,1.3-0.4,2.4-1.2,3.2c-0.8,0.8-1.8,1.2-3.2,1.2c-1.3,0-2.4-0.4-3.2-1.2c-0.8-0.8-1.2-1.9-1.2-3.2v-1
			c0-1.3,0.4-2.4,1.2-3.2C176.7,96.1,177.7,95.7,179.1,95.7z M179.1,103.3c0.7,0,1.2-0.2,1.5-0.6c0.3-0.4,0.4-1,0.4-1.7v-0.9
			c0-0.7-0.1-1.2-0.4-1.6c-0.3-0.4-0.7-0.6-1.5-0.6c-0.7,0-1.2,0.2-1.5,0.6c-0.3,0.4-0.4,1-0.4,1.6v0.9c0,0.7,0.1,1.2,0.4,1.7
			C177.9,103.1,178.4,103.3,179.1,103.3z"/>
		<path class="st67" d="M191.3,102.6v-3.3c-0.7-0.4-1.2-0.9-1.5-1.4c-0.4-0.5-0.5-1.2-0.5-1.9v-1c0-0.7,0.2-1.3,0.5-1.8
			c0.4-0.6,0.9-1,1.5-1.4c0.7-0.4,1.4-0.7,2.3-0.9c0.9-0.2,1.9-0.3,2.9-0.3c1,0,2,0.1,2.9,0.3c0.9,0.2,1.7,0.5,2.3,0.9
			c0.7,0.4,1.2,0.8,1.5,1.4c0.4,0.6,0.5,1.2,0.5,1.8v1c0,0.7-0.2,1.3-0.6,1.9c-0.4,0.5-0.9,1-1.5,1.4v3.3h5.7v2.7h-21.7v-2.7H191.3z
			 M198.2,87.1h7.2v2.7h-17.7v-2.7h7.2v-2.8h3.3V87.1z M196.5,93.3c-1.3,0-2.4,0.2-3.1,0.6s-1.1,0.8-1.1,1.3v0.7
			c0,0.5,0.4,0.9,1.1,1.3c0.7,0.4,1.8,0.6,3.1,0.6s2.4-0.2,3.1-0.6c0.7-0.4,1.1-0.8,1.1-1.3v-0.7c0-0.5-0.4-0.9-1.1-1.3
			S197.9,93.3,196.5,93.3z M196.5,100.5c-0.7,0-1.4-0.1-2.1-0.2v2.3h4.1v-2.3C197.9,100.4,197.2,100.5,196.5,100.5z"/>
		<path class="st67" d="M208.9,100.4h4v-6.8h3.2v6.7c1.7,0,3.1-0.1,4.3-0.1c1.2-0.1,2.2-0.1,3.2-0.2l0.2,2.8
			c-0.7,0.1-1.5,0.2-2.4,0.2c-0.9,0.1-2,0.1-3.2,0.1c-1.2,0-2.6,0.1-4.1,0.1c-1.5,0-3.3,0-5.2,0V100.4z M222.1,86.7v3.7
			c0,0.5,0,1.1,0,1.7c0,0.6,0,1.2-0.1,1.8c0,0.6-0.1,1.2-0.2,1.9c-0.1,0.6-0.2,1.2-0.3,1.8l-3.2-0.4c0.2-1.2,0.4-2.3,0.4-3.4
			c0.1-1.1,0.1-2.1,0.1-3v-1.4h-8.9v-2.8H222.1z M228,93h3.3v2.8H228v12.4h-3.2V84.6h3.2V93z"/>
		<path class="st67" d="M246.5,85.3l-7.7,22.4h-1.1l7.7-22.4H246.5z"/>
		<path class="st67" d="M261.5,105.3V90.5l-4.2,2.4l-1.6-2.7l6.1-3.4h2.9v18.4H261.5z"/>
		<path class="st67" d="M283.4,97.5c0,2.6-0.6,4.6-1.7,6c-1.1,1.4-2.8,2.1-5,2.1c-2.2,0-3.9-0.7-5.1-2.1c-1.2-1.4-1.8-3.4-1.8-6
			v-2.9c0-2.6,0.6-4.6,1.8-6c1.2-1.4,2.9-2.1,5-2.1c2.2,0,3.8,0.7,5,2.1c1.2,1.4,1.7,3.4,1.7,6V97.5z M280.1,94.6
			c0-1.1-0.1-1.9-0.3-2.6c-0.2-0.6-0.5-1.1-0.8-1.5c-0.3-0.3-0.7-0.6-1.1-0.7c-0.4-0.1-0.8-0.2-1.3-0.2c-0.4,0-0.8,0.1-1.3,0.2
			c-0.4,0.1-0.8,0.4-1.1,0.7c-0.3,0.4-0.6,0.9-0.8,1.5c-0.2,0.6-0.3,1.5-0.3,2.5v2.9c0,1.1,0.1,1.9,0.3,2.6c0.2,0.6,0.5,1.1,0.8,1.5
			c0.3,0.4,0.7,0.6,1.1,0.7c0.4,0.1,0.9,0.2,1.3,0.2c0.4,0,0.9-0.1,1.3-0.2c0.4-0.1,0.8-0.4,1.1-0.7c0.3-0.3,0.6-0.8,0.7-1.5
			c0.2-0.6,0.3-1.5,0.3-2.6V94.6z"/>
		<path class="st67" d="M299.2,97.5c0,2.6-0.6,4.6-1.7,6c-1.1,1.4-2.8,2.1-5,2.1c-2.2,0-3.9-0.7-5.1-2.1c-1.2-1.4-1.8-3.4-1.8-6
			v-2.9c0-2.6,0.6-4.6,1.8-6c1.2-1.4,2.9-2.1,5-2.1c2.2,0,3.8,0.7,5,2.1c1.2,1.4,1.7,3.4,1.7,6V97.5z M295.9,94.6
			c0-1.1-0.1-1.9-0.3-2.6c-0.2-0.6-0.5-1.1-0.8-1.5c-0.3-0.3-0.7-0.6-1.1-0.7c-0.4-0.1-0.8-0.2-1.3-0.2c-0.4,0-0.8,0.1-1.3,0.2
			c-0.4,0.1-0.8,0.4-1.1,0.7c-0.3,0.4-0.6,0.9-0.8,1.5c-0.2,0.6-0.3,1.5-0.3,2.5v2.9c0,1.1,0.1,1.9,0.3,2.6c0.2,0.6,0.5,1.1,0.8,1.5
			c0.3,0.4,0.7,0.6,1.1,0.7c0.4,0.1,0.9,0.2,1.3,0.2c0.4,0,0.9-0.1,1.3-0.2c0.4-0.1,0.8-0.4,1.1-0.7c0.3-0.3,0.6-0.8,0.7-1.5
			c0.2-0.6,0.3-1.5,0.3-2.6V94.6z"/>
		<path class="st67" d="M306.2,86.5c1.3,0,2.4,0.4,3.2,1.2c0.8,0.8,1.2,1.9,1.2,3.2v1c0,1.3-0.4,2.4-1.2,3.2
			c-0.8,0.8-1.8,1.2-3.2,1.2c-1.3,0-2.4-0.4-3.2-1.2c-0.8-0.8-1.2-1.9-1.2-3.2v-1c0-1.3,0.4-2.4,1.2-3.2
			C303.8,86.9,304.8,86.5,306.2,86.5z M306.2,94.1c0.7,0,1.2-0.2,1.5-0.6c0.3-0.4,0.4-1,0.4-1.7V91c0-0.7-0.1-1.2-0.4-1.6
			c-0.3-0.4-0.7-0.6-1.5-0.6c-0.7,0-1.2,0.2-1.5,0.6c-0.3,0.4-0.4,1-0.4,1.6v0.9c0,0.7,0.1,1.2,0.4,1.7
			C305,93.9,305.4,94.1,306.2,94.1z M305,105.2l11-18.4h2.9l-11,18.4H305z M317.9,95.7c1.3,0,2.4,0.4,3.2,1.2
			c0.8,0.8,1.2,1.9,1.2,3.2v1c0,1.3-0.4,2.4-1.2,3.2c-0.8,0.8-1.8,1.2-3.2,1.2c-1.3,0-2.4-0.4-3.2-1.2c-0.8-0.8-1.2-1.9-1.2-3.2v-1
			c0-1.3,0.4-2.4,1.2-3.2C315.5,96.1,316.5,95.7,317.9,95.7z M317.9,103.3c0.7,0,1.2-0.2,1.5-0.6c0.3-0.4,0.4-1,0.4-1.7v-0.9
			c0-0.7-0.1-1.2-0.4-1.6c-0.3-0.4-0.7-0.6-1.5-0.6c-0.7,0-1.2,0.2-1.5,0.6c-0.3,0.4-0.4,1-0.4,1.6v0.9c0,0.7,0.1,1.2,0.4,1.7
			C316.7,103.1,317.2,103.3,317.9,103.3z"/>
		<path class="st67" d="M336.9,98.7v3.9h9.3v2.7h-21.7v-2.7h9.3v-3.9h-6.3V86.2h3.2V90h9.4v-3.8h3.2v12.5H336.9z M340,96v-3.3h-9.4
			V96H340z"/>
		<path class="st67" d="M348.6,86h12.2v2.7h-4.4V90c0,0.3,0,0.6,0.1,0.9c0,0.3,0.1,0.5,0.3,0.7c0.1,0.2,0.3,0.5,0.5,0.7
			c0.2,0.2,0.5,0.5,0.8,0.7c0.5,0.4,1.1,0.8,1.7,1.2c0.6,0.4,1.2,0.8,1.9,1.2l-1.7,2.3c-1.1-0.7-2.2-1.5-3.1-2.2
			c-0.5-0.4-1-0.7-1.3-1c-0.3-0.3-0.5-0.5-0.6-0.6h0c-0.1,0.2-0.2,0.4-0.6,0.7c-0.3,0.3-0.8,0.7-1.4,1.2c-0.5,0.4-1.1,0.9-1.7,1.3
			c-0.6,0.4-1.2,0.9-1.8,1.3l-1.9-2.3c0.8-0.5,1.6-1.1,2.3-1.7c0.7-0.6,1.4-1.1,1.9-1.6c0.4-0.4,0.8-0.8,1-1.3
			c0.2-0.5,0.4-1,0.4-1.7v-1.3h-4.6V86z M359.3,109c-1.1,0-2.1-0.1-3-0.3c-0.9-0.2-1.7-0.5-2.3-0.9c-0.6-0.4-1.1-0.9-1.5-1.5
			s-0.5-1.2-0.5-1.9v-1.1c0-0.7,0.2-1.3,0.5-1.9c0.3-0.6,0.8-1,1.5-1.5s1.4-0.7,2.3-0.9c0.9-0.2,1.9-0.3,3-0.3c1.1,0,2.1,0.1,3,0.3
			c0.9,0.2,1.7,0.5,2.3,0.9s1.1,0.9,1.5,1.5c0.3,0.6,0.5,1.2,0.5,1.9v1.1c0,0.7-0.2,1.3-0.5,1.9c-0.3,0.6-0.8,1-1.5,1.5
			c-0.6,0.4-1.4,0.7-2.3,0.9C361.4,108.9,360.4,109,359.3,109z M359.3,101.4c-0.6,0-1.2,0.1-1.7,0.2c-0.5,0.1-0.9,0.3-1.3,0.5
			c-0.4,0.2-0.6,0.4-0.8,0.7c-0.2,0.3-0.3,0.5-0.3,0.7v0.7c0,0.2,0.1,0.5,0.3,0.7c0.2,0.3,0.5,0.5,0.8,0.7c0.4,0.2,0.8,0.4,1.3,0.5
			c0.5,0.1,1.1,0.2,1.7,0.2c0.6,0,1.2-0.1,1.7-0.2c0.5-0.1,0.9-0.3,1.3-0.5c0.4-0.2,0.6-0.4,0.8-0.7c0.2-0.3,0.3-0.5,0.3-0.7v-0.7
			c0-0.2-0.1-0.5-0.3-0.7c-0.2-0.3-0.5-0.5-0.8-0.7c-0.4-0.2-0.8-0.4-1.3-0.5C360.5,101.4,359.9,101.4,359.3,101.4z M366.5,90h3.1
			v2.8h-3.1v5.9h-3.2V84.6h3.2V90z"/>
	</g>
	<g>
		<circle class="st63" cx="412.4" cy="62.2" r="36.6"/>
		<g>
			
				<rect x="409.6" y="34.8" transform="matrix(0.7071 0.7071 -0.7071 0.7071 164.7885 -273.377)" class="st1" width="5.5" height="54.8"/>
			
				<rect x="409.6" y="34.8" transform="matrix(0.7071 -0.7071 0.7071 0.7071 76.7837 309.8298)" class="st1" width="5.5" height="54.8"/>
		</g>
	</g>
</g>
</svg>
