<svg width="659" height="428" viewBox="0 0 659 428" fill="none" xmlns="http://www.w3.org/2000/svg">
<g style="mix-blend-mode:multiply">
<line x1="34.5" y1="3" x2="34.5" y2="401" stroke="#646C70"/>
<g style="mix-blend-mode:multiply">
<line x1="34" y1="2.5" x2="659" y2="2.5" stroke="#EEF1F1"/>
</g>
<g style="mix-blend-mode:multiply">
<line x1="34" y1="33.1172" x2="659" y2="33.1172" stroke="#EEF1F1"/>
</g>
<g style="mix-blend-mode:multiply">
<line x1="34" y1="63.7305" x2="659" y2="63.7305" stroke="#EEF1F1"/>
</g>
<g style="mix-blend-mode:multiply">
<line x1="34" y1="94.3477" x2="659" y2="94.3477" stroke="#EEF1F1"/>
</g>
<g style="mix-blend-mode:multiply">
<line x1="34" y1="124.961" x2="659" y2="124.961" stroke="#EEF1F1"/>
</g>
<g style="mix-blend-mode:multiply">
<line x1="34" y1="155.578" x2="659" y2="155.578" stroke="#EEF1F1"/>
</g>
<g style="mix-blend-mode:multiply">
<line x1="34" y1="186.191" x2="659" y2="186.191" stroke="#EEF1F1"/>
</g>
<g style="mix-blend-mode:multiply">
<line x1="34" y1="216.809" x2="659" y2="216.809" stroke="#EEF1F1"/>
</g>
<g style="mix-blend-mode:multiply">
<line x1="34" y1="247.422" x2="659" y2="247.422" stroke="#EEF1F1"/>
</g>
<g style="mix-blend-mode:multiply">
<line x1="34" y1="278.039" x2="659" y2="278.039" stroke="#EEF1F1"/>
</g>
<g style="mix-blend-mode:multiply">
<line x1="34" y1="308.652" x2="659" y2="308.652" stroke="#EEF1F1"/>
</g>
<g style="mix-blend-mode:multiply">
<line x1="34" y1="339.27" x2="659" y2="339.27" stroke="#EEF1F1"/>
</g>
<g style="mix-blend-mode:multiply">
<line x1="34" y1="369.883" x2="659" y2="369.883" stroke="#EEF1F1"/>
</g>
<g style="mix-blend-mode:multiply">
<line x1="34" y1="400.5" x2="659" y2="400.5" stroke="#646C70"/>
</g>
<path d="M70 28C70 25.7909 71.7909 24 74 24H110C112.209 24 114 25.7909 114 28V400H70V28Z" fill="#25C9EF"/>
<path d="M143 271C143 268.791 144.791 267 147 267H183C185.209 267 187 268.791 187 271V400H143V271Z" fill="#25C9EF"/>
<path d="M216 265C216 262.791 217.791 261 220 261H256C258.209 261 260 262.791 260 265V400H216V265Z" fill="#25C9EF"/>
<path d="M289 257C289 254.791 290.791 253 293 253H329C331.209 253 333 254.791 333 257V400H289V257Z" fill="#25C9EF"/>
<path d="M362 232C362 229.791 363.791 228 366 228H402C404.209 228 406 229.791 406 232V400H362V232Z" fill="#25C9EF"/>
<path d="M435 225C435 222.791 436.791 221 439 221H474C476.209 221 478 222.791 478 225V400H435V225Z" fill="#25C9EF"/>
<path d="M507 206C507 203.791 508.791 202 511 202H547C549.209 202 551 203.791 551 206V400H507V206Z" fill="#25C9EF"/>
<path d="M580 385C580 382.791 581.791 381 584 381H619C621.209 381 623 382.791 623 385V400H580V385Z" fill="#25C9EF"/>
</g>
<path d="M3.543 11.156C5.103 11.156 6.363 10.22 6.363 8.648C6.363 7.448 5.535 6.656 4.503 6.416V6.368C5.427 6.02 6.063 5.312 6.063 4.244C6.063 2.852 4.983 2.036 3.507 2.036C2.487 2.036 1.707 2.48 1.047 3.092L1.635 3.788C2.127 3.284 2.751 2.936 3.459 2.936C4.371 2.936 4.947 3.488 4.947 4.328C4.947 5.276 4.323 6.008 2.511 6.008V6.848C4.539 6.848 5.247 7.556 5.247 8.6C5.247 9.62 4.503 10.244 3.459 10.244C2.463 10.244 1.791 9.776 1.275 9.236L0.723 9.956C1.299 10.58 2.163 11.156 3.543 11.156ZM10.3673 11.156C12.0353 11.156 13.1033 9.632 13.1033 6.572C13.1033 3.524 12.0353 2.036 10.3673 2.036C8.68725 2.036 7.61925 3.512 7.61925 6.572C7.61925 9.632 8.68725 11.156 10.3673 11.156ZM10.3673 10.28C9.35925 10.28 8.68725 9.164 8.68725 6.572C8.68725 4.004 9.35925 2.912 10.3673 2.912C11.3633 2.912 12.0353 4.004 12.0353 6.572C12.0353 9.164 11.3633 10.28 10.3673 10.28ZM17.0235 11.156C18.6915 11.156 19.7595 9.632 19.7595 6.572C19.7595 3.524 18.6915 2.036 17.0235 2.036C15.3435 2.036 14.2755 3.512 14.2755 6.572C14.2755 9.632 15.3435 11.156 17.0235 11.156ZM17.0235 10.28C16.0155 10.28 15.3435 9.164 15.3435 6.572C15.3435 4.004 16.0155 2.912 17.0235 2.912C18.0195 2.912 18.6915 4.004 18.6915 6.572C18.6915 9.164 18.0195 10.28 17.0235 10.28ZM23.6798 11.156C25.3478 11.156 26.4158 9.632 26.4158 6.572C26.4158 3.524 25.3478 2.036 23.6798 2.036C21.9998 2.036 20.9318 3.512 20.9318 6.572C20.9318 9.632 21.9998 11.156 23.6798 11.156ZM23.6798 10.28C22.6718 10.28 21.9998 9.164 21.9998 6.572C21.9998 4.004 22.6718 2.912 23.6798 2.912C24.6758 2.912 25.3478 4.004 25.3478 6.572C25.3478 9.164 24.6758 10.28 23.6798 10.28Z" fill="#9BA5AB"/>
<path d="M0.903 41H6.435V40.052H3.999C3.555 40.052 3.015 40.1 2.559 40.136C4.623 38.18 6.003 36.392 6.003 34.64C6.003 33.068 5.019 32.036 3.447 32.036C2.331 32.036 1.575 32.552 0.855 33.332L1.491 33.956C1.971 33.38 2.595 32.936 3.315 32.936C4.407 32.936 4.935 33.668 4.935 34.676C4.935 36.188 3.663 37.94 0.903 40.352V41ZM10.3793 41.156C12.0353 41.156 13.1393 40.16 13.1393 38.876C13.1393 37.676 12.4193 37.016 11.6513 36.572V36.512C12.1793 36.104 12.8273 35.312 12.8273 34.388C12.8273 33.032 11.9153 32.072 10.4153 32.072C9.04725 32.072 8.00325 32.96 8.00325 34.304C8.00325 35.228 8.54325 35.888 9.19125 36.332V36.392C8.38725 36.824 7.57125 37.64 7.57125 38.816C7.57125 40.172 8.75925 41.156 10.3793 41.156ZM10.9793 36.224C9.94725 35.816 8.99925 35.36 8.99925 34.304C8.99925 33.452 9.58725 32.876 10.4033 32.876C11.3513 32.876 11.8913 33.584 11.8913 34.448C11.8913 35.096 11.5793 35.696 10.9793 36.224ZM10.4033 40.34C9.34725 40.34 8.56725 39.656 8.56725 38.72C8.56725 37.88 9.05925 37.184 9.76725 36.728C11.0153 37.232 12.0953 37.676 12.0953 38.852C12.0953 39.728 11.4113 40.34 10.4033 40.34ZM17.0235 41.156C18.6915 41.156 19.7595 39.632 19.7595 36.572C19.7595 33.524 18.6915 32.036 17.0235 32.036C15.3435 32.036 14.2755 33.512 14.2755 36.572C14.2755 39.632 15.3435 41.156 17.0235 41.156ZM17.0235 40.28C16.0155 40.28 15.3435 39.164 15.3435 36.572C15.3435 34.004 16.0155 32.912 17.0235 32.912C18.0195 32.912 18.6915 34.004 18.6915 36.572C18.6915 39.164 18.0195 40.28 17.0235 40.28ZM23.6798 41.156C25.3478 41.156 26.4158 39.632 26.4158 36.572C26.4158 33.524 25.3478 32.036 23.6798 32.036C21.9998 32.036 20.9318 33.512 20.9318 36.572C20.9318 39.632 21.9998 41.156 23.6798 41.156ZM23.6798 40.28C22.6718 40.28 21.9998 39.164 21.9998 36.572C21.9998 34.004 22.6718 32.912 23.6798 32.912C24.6758 32.912 25.3478 34.004 25.3478 36.572C25.3478 39.164 24.6758 40.28 23.6798 40.28Z" fill="#9BA5AB"/>
<path d="M0.903 71H6.435V70.052H3.999C3.555 70.052 3.015 70.1 2.559 70.136C4.623 68.18 6.003 66.392 6.003 64.64C6.003 63.068 5.019 62.036 3.447 62.036C2.331 62.036 1.575 62.552 0.855 63.332L1.491 63.956C1.971 63.38 2.595 62.936 3.315 62.936C4.407 62.936 4.935 63.668 4.935 64.676C4.935 66.188 3.663 67.94 0.903 70.352V71ZM10.5473 66.356C11.6153 66.356 12.1433 67.112 12.1433 68.3C12.1433 69.5 11.4833 70.304 10.6433 70.304C9.53925 70.304 8.87925 69.308 8.74725 67.484C9.28725 66.68 9.99525 66.356 10.5473 66.356ZM10.6433 71.156C12.0113 71.156 13.1633 70.004 13.1633 68.3C13.1633 66.464 12.2153 65.54 10.7273 65.54C10.0312 65.54 9.26325 65.948 8.72325 66.608C8.77125 63.872 9.79125 62.948 10.9913 62.948C11.5313 62.948 12.0593 63.2 12.4073 63.62L13.0073 62.936C12.5273 62.42 11.8673 62.036 10.9553 62.036C9.25125 62.036 7.70325 63.356 7.70325 66.8C7.70325 69.704 8.95125 71.156 10.6433 71.156ZM17.0235 71.156C18.6915 71.156 19.7595 69.632 19.7595 66.572C19.7595 63.524 18.6915 62.036 17.0235 62.036C15.3435 62.036 14.2755 63.512 14.2755 66.572C14.2755 69.632 15.3435 71.156 17.0235 71.156ZM17.0235 70.28C16.0155 70.28 15.3435 69.164 15.3435 66.572C15.3435 64.004 16.0155 62.912 17.0235 62.912C18.0195 62.912 18.6915 64.004 18.6915 66.572C18.6915 69.164 18.0195 70.28 17.0235 70.28ZM23.6798 71.156C25.3478 71.156 26.4158 69.632 26.4158 66.572C26.4158 63.524 25.3478 62.036 23.6798 62.036C21.9998 62.036 20.9318 63.512 20.9318 66.572C20.9318 69.632 21.9998 71.156 23.6798 71.156ZM23.6798 70.28C22.6718 70.28 21.9998 69.164 21.9998 66.572C21.9998 64.004 22.6718 62.912 23.6798 62.912C24.6758 62.912 25.3478 64.004 25.3478 66.572C25.3478 69.164 24.6758 70.28 23.6798 70.28Z" fill="#9BA5AB"/>
<path d="M0.903 101H6.435V100.052H3.999C3.555 100.052 3.015 100.1 2.559 100.136C4.623 98.18 6.003 96.392 6.003 94.64C6.003 93.068 5.019 92.036 3.447 92.036C2.331 92.036 1.575 92.552 0.855 93.332L1.491 93.956C1.971 93.38 2.595 92.936 3.315 92.936C4.407 92.936 4.935 93.668 4.935 94.676C4.935 96.188 3.663 97.94 0.903 100.352V101ZM8.41125 97.7L10.4153 94.7C10.6673 94.268 10.9073 93.836 11.1233 93.404H11.1713C11.1473 93.86 11.1113 94.568 11.1113 95V97.7H8.41125ZM11.1113 101H12.1433V98.576H13.3073V97.7H12.1433V92.192H10.9313L7.27125 97.856V98.576H11.1113V101ZM17.0235 101.156C18.6915 101.156 19.7595 99.632 19.7595 96.572C19.7595 93.524 18.6915 92.036 17.0235 92.036C15.3435 92.036 14.2755 93.512 14.2755 96.572C14.2755 99.632 15.3435 101.156 17.0235 101.156ZM17.0235 100.28C16.0155 100.28 15.3435 99.164 15.3435 96.572C15.3435 94.004 16.0155 92.912 17.0235 92.912C18.0195 92.912 18.6915 94.004 18.6915 96.572C18.6915 99.164 18.0195 100.28 17.0235 100.28ZM23.6798 101.156C25.3478 101.156 26.4158 99.632 26.4158 96.572C26.4158 93.524 25.3478 92.036 23.6798 92.036C21.9998 92.036 20.9318 93.512 20.9318 96.572C20.9318 99.632 21.9998 101.156 23.6798 101.156ZM23.6798 100.28C22.6718 100.28 21.9998 99.164 21.9998 96.572C21.9998 94.004 22.6718 92.912 23.6798 92.912C24.6758 92.912 25.3478 94.004 25.3478 96.572C25.3478 99.164 24.6758 100.28 23.6798 100.28Z" fill="#9BA5AB"/>
<path d="M0.903 131H6.435V130.052H3.999C3.555 130.052 3.015 130.1 2.559 130.136C4.623 128.18 6.003 126.392 6.003 124.64C6.003 123.068 5.019 122.036 3.447 122.036C2.331 122.036 1.575 122.552 0.855 123.332L1.491 123.956C1.971 123.38 2.595 122.936 3.315 122.936C4.407 122.936 4.935 123.668 4.935 124.676C4.935 126.188 3.663 127.94 0.903 130.352V131ZM7.55925 131H13.0912V130.052H10.6553C10.2113 130.052 9.67125 130.1 9.21525 130.136C11.2793 128.18 12.6593 126.392 12.6593 124.64C12.6593 123.068 11.6753 122.036 10.1033 122.036C8.98725 122.036 8.23125 122.552 7.51125 123.332L8.14725 123.956C8.62725 123.38 9.25125 122.936 9.97125 122.936C11.0633 122.936 11.5913 123.668 11.5913 124.676C11.5913 126.188 10.3193 127.94 7.55925 130.352V131ZM17.0235 131.156C18.6915 131.156 19.7595 129.632 19.7595 126.572C19.7595 123.524 18.6915 122.036 17.0235 122.036C15.3435 122.036 14.2755 123.512 14.2755 126.572C14.2755 129.632 15.3435 131.156 17.0235 131.156ZM17.0235 130.28C16.0155 130.28 15.3435 129.164 15.3435 126.572C15.3435 124.004 16.0155 122.912 17.0235 122.912C18.0195 122.912 18.6915 124.004 18.6915 126.572C18.6915 129.164 18.0195 130.28 17.0235 130.28ZM23.6798 131.156C25.3478 131.156 26.4158 129.632 26.4158 126.572C26.4158 123.524 25.3478 122.036 23.6798 122.036C21.9998 122.036 20.9318 123.512 20.9318 126.572C20.9318 129.632 21.9998 131.156 23.6798 131.156ZM23.6798 130.28C22.6718 130.28 21.9998 129.164 21.9998 126.572C21.9998 124.004 22.6718 122.912 23.6798 122.912C24.6758 122.912 25.3478 124.004 25.3478 126.572C25.3478 129.164 24.6758 130.28 23.6798 130.28Z" fill="#9BA5AB"/>
<path d="M0.903 161H6.435V160.052H3.999C3.555 160.052 3.015 160.1 2.559 160.136C4.623 158.18 6.003 156.392 6.003 154.64C6.003 153.068 5.019 152.036 3.447 152.036C2.331 152.036 1.575 152.552 0.855 153.332L1.491 153.956C1.971 153.38 2.595 152.936 3.315 152.936C4.407 152.936 4.935 153.668 4.935 154.676C4.935 156.188 3.663 157.94 0.903 160.352V161ZM10.3673 161.156C12.0353 161.156 13.1033 159.632 13.1033 156.572C13.1033 153.524 12.0353 152.036 10.3673 152.036C8.68725 152.036 7.61925 153.512 7.61925 156.572C7.61925 159.632 8.68725 161.156 10.3673 161.156ZM10.3673 160.28C9.35925 160.28 8.68725 159.164 8.68725 156.572C8.68725 154.004 9.35925 152.912 10.3673 152.912C11.3633 152.912 12.0353 154.004 12.0353 156.572C12.0353 159.164 11.3633 160.28 10.3673 160.28ZM17.0235 161.156C18.6915 161.156 19.7595 159.632 19.7595 156.572C19.7595 153.524 18.6915 152.036 17.0235 152.036C15.3435 152.036 14.2755 153.512 14.2755 156.572C14.2755 159.632 15.3435 161.156 17.0235 161.156ZM17.0235 160.28C16.0155 160.28 15.3435 159.164 15.3435 156.572C15.3435 154.004 16.0155 152.912 17.0235 152.912C18.0195 152.912 18.6915 154.004 18.6915 156.572C18.6915 159.164 18.0195 160.28 17.0235 160.28ZM23.6798 161.156C25.3478 161.156 26.4158 159.632 26.4158 156.572C26.4158 153.524 25.3478 152.036 23.6798 152.036C21.9998 152.036 20.9318 153.512 20.9318 156.572C20.9318 159.632 21.9998 161.156 23.6798 161.156ZM23.6798 160.28C22.6718 160.28 21.9998 159.164 21.9998 156.572C21.9998 154.004 22.6718 152.912 23.6798 152.912C24.6758 152.912 25.3478 154.004 25.3478 156.572C25.3478 159.164 24.6758 160.28 23.6798 160.28Z" fill="#9BA5AB"/>
<path d="M1.431 191H6.255V190.088H4.491V182.192H3.651C3.171 182.48 2.607 182.684 1.827 182.828V183.524H3.387V190.088H1.431V191ZM8.41125 187.7L10.4153 184.7C10.6673 184.268 10.9073 183.836 11.1233 183.404H11.1713C11.1473 183.86 11.1113 184.568 11.1113 185V187.7H8.41125ZM11.1113 191H12.1433V188.576H13.3073V187.7H12.1433V182.192H10.9313L7.27125 187.856V188.576H11.1113V191ZM17.0235 191.156C18.6915 191.156 19.7595 189.632 19.7595 186.572C19.7595 183.524 18.6915 182.036 17.0235 182.036C15.3435 182.036 14.2755 183.512 14.2755 186.572C14.2755 189.632 15.3435 191.156 17.0235 191.156ZM17.0235 190.28C16.0155 190.28 15.3435 189.164 15.3435 186.572C15.3435 184.004 16.0155 182.912 17.0235 182.912C18.0195 182.912 18.6915 184.004 18.6915 186.572C18.6915 189.164 18.0195 190.28 17.0235 190.28ZM23.6798 191.156C25.3478 191.156 26.4158 189.632 26.4158 186.572C26.4158 183.524 25.3478 182.036 23.6798 182.036C21.9998 182.036 20.9318 183.512 20.9318 186.572C20.9318 189.632 21.9998 191.156 23.6798 191.156ZM23.6798 190.28C22.6718 190.28 21.9998 189.164 21.9998 186.572C21.9998 184.004 22.6718 182.912 23.6798 182.912C24.6758 182.912 25.3478 184.004 25.3478 186.572C25.3478 189.164 24.6758 190.28 23.6798 190.28Z" fill="#9BA5AB"/>
<path d="M1.431 221H6.255V220.088H4.491V212.192H3.651C3.171 212.48 2.607 212.684 1.827 212.828V213.524H3.387V220.088H1.431V221ZM7.55925 221H13.0912V220.052H10.6553C10.2113 220.052 9.67125 220.1 9.21525 220.136C11.2793 218.18 12.6593 216.392 12.6593 214.64C12.6593 213.068 11.6753 212.036 10.1033 212.036C8.98725 212.036 8.23125 212.552 7.51125 213.332L8.14725 213.956C8.62725 213.38 9.25125 212.936 9.97125 212.936C11.0633 212.936 11.5913 213.668 11.5913 214.676C11.5913 216.188 10.3193 217.94 7.55925 220.352V221ZM17.0235 221.156C18.6915 221.156 19.7595 219.632 19.7595 216.572C19.7595 213.524 18.6915 212.036 17.0235 212.036C15.3435 212.036 14.2755 213.512 14.2755 216.572C14.2755 219.632 15.3435 221.156 17.0235 221.156ZM17.0235 220.28C16.0155 220.28 15.3435 219.164 15.3435 216.572C15.3435 214.004 16.0155 212.912 17.0235 212.912C18.0195 212.912 18.6915 214.004 18.6915 216.572C18.6915 219.164 18.0195 220.28 17.0235 220.28ZM23.6798 221.156C25.3478 221.156 26.4158 219.632 26.4158 216.572C26.4158 213.524 25.3478 212.036 23.6798 212.036C21.9998 212.036 20.9318 213.512 20.9318 216.572C20.9318 219.632 21.9998 221.156 23.6798 221.156ZM23.6798 220.28C22.6718 220.28 21.9998 219.164 21.9998 216.572C21.9998 214.004 22.6718 212.912 23.6798 212.912C24.6758 212.912 25.3478 214.004 25.3478 216.572C25.3478 219.164 24.6758 220.28 23.6798 220.28Z" fill="#9BA5AB"/>
<path d="M1.431 251H6.255V250.088H4.491V242.192H3.651C3.171 242.48 2.607 242.684 1.827 242.828V243.524H3.387V250.088H1.431V251ZM10.3673 251.156C12.0353 251.156 13.1033 249.632 13.1033 246.572C13.1033 243.524 12.0353 242.036 10.3673 242.036C8.68725 242.036 7.61925 243.512 7.61925 246.572C7.61925 249.632 8.68725 251.156 10.3673 251.156ZM10.3673 250.28C9.35925 250.28 8.68725 249.164 8.68725 246.572C8.68725 244.004 9.35925 242.912 10.3673 242.912C11.3633 242.912 12.0353 244.004 12.0353 246.572C12.0353 249.164 11.3633 250.28 10.3673 250.28ZM17.0235 251.156C18.6915 251.156 19.7595 249.632 19.7595 246.572C19.7595 243.524 18.6915 242.036 17.0235 242.036C15.3435 242.036 14.2755 243.512 14.2755 246.572C14.2755 249.632 15.3435 251.156 17.0235 251.156ZM17.0235 250.28C16.0155 250.28 15.3435 249.164 15.3435 246.572C15.3435 244.004 16.0155 242.912 17.0235 242.912C18.0195 242.912 18.6915 244.004 18.6915 246.572C18.6915 249.164 18.0195 250.28 17.0235 250.28ZM23.6798 251.156C25.3478 251.156 26.4158 249.632 26.4158 246.572C26.4158 243.524 25.3478 242.036 23.6798 242.036C21.9998 242.036 20.9318 243.512 20.9318 246.572C20.9318 249.632 21.9998 251.156 23.6798 251.156ZM23.6798 250.28C22.6718 250.28 21.9998 249.164 21.9998 246.572C21.9998 244.004 22.6718 242.912 23.6798 242.912C24.6758 242.912 25.3478 244.004 25.3478 246.572C25.3478 249.164 24.6758 250.28 23.6798 250.28Z" fill="#9BA5AB"/>
<path d="M10.3793 281.156C12.0353 281.156 13.1393 280.16 13.1393 278.876C13.1393 277.676 12.4193 277.016 11.6513 276.572V276.512C12.1793 276.104 12.8273 275.312 12.8273 274.388C12.8273 273.032 11.9153 272.072 10.4153 272.072C9.04725 272.072 8.00325 272.96 8.00325 274.304C8.00325 275.228 8.54325 275.888 9.19125 276.332V276.392C8.38725 276.824 7.57125 277.64 7.57125 278.816C7.57125 280.172 8.75925 281.156 10.3793 281.156ZM10.9793 276.224C9.94725 275.816 8.99925 275.36 8.99925 274.304C8.99925 273.452 9.58725 272.876 10.4033 272.876C11.3513 272.876 11.8913 273.584 11.8913 274.448C11.8913 275.096 11.5793 275.696 10.9793 276.224ZM10.4033 280.34C9.34725 280.34 8.56725 279.656 8.56725 278.72C8.56725 277.88 9.05925 277.184 9.76725 276.728C11.0153 277.232 12.0953 277.676 12.0953 278.852C12.0953 279.728 11.4113 280.34 10.4033 280.34ZM17.0235 281.156C18.6915 281.156 19.7595 279.632 19.7595 276.572C19.7595 273.524 18.6915 272.036 17.0235 272.036C15.3435 272.036 14.2755 273.512 14.2755 276.572C14.2755 279.632 15.3435 281.156 17.0235 281.156ZM17.0235 280.28C16.0155 280.28 15.3435 279.164 15.3435 276.572C15.3435 274.004 16.0155 272.912 17.0235 272.912C18.0195 272.912 18.6915 274.004 18.6915 276.572C18.6915 279.164 18.0195 280.28 17.0235 280.28ZM23.6798 281.156C25.3478 281.156 26.4158 279.632 26.4158 276.572C26.4158 273.524 25.3478 272.036 23.6798 272.036C21.9998 272.036 20.9318 273.512 20.9318 276.572C20.9318 279.632 21.9998 281.156 23.6798 281.156ZM23.6798 280.28C22.6718 280.28 21.9998 279.164 21.9998 276.572C21.9998 274.004 22.6718 272.912 23.6798 272.912C24.6758 272.912 25.3478 274.004 25.3478 276.572C25.3478 279.164 24.6758 280.28 23.6798 280.28Z" fill="#9BA5AB"/>
<path d="M10.5473 306.356C11.6153 306.356 12.1433 307.112 12.1433 308.3C12.1433 309.5 11.4833 310.304 10.6433 310.304C9.53925 310.304 8.87925 309.308 8.74725 307.484C9.28725 306.68 9.99525 306.356 10.5473 306.356ZM10.6433 311.156C12.0113 311.156 13.1633 310.004 13.1633 308.3C13.1633 306.464 12.2153 305.54 10.7273 305.54C10.0312 305.54 9.26325 305.948 8.72325 306.608C8.77125 303.872 9.79125 302.948 10.9913 302.948C11.5313 302.948 12.0593 303.2 12.4073 303.62L13.0073 302.936C12.5273 302.42 11.8673 302.036 10.9553 302.036C9.25125 302.036 7.70325 303.356 7.70325 306.8C7.70325 309.704 8.95125 311.156 10.6433 311.156ZM17.0235 311.156C18.6915 311.156 19.7595 309.632 19.7595 306.572C19.7595 303.524 18.6915 302.036 17.0235 302.036C15.3435 302.036 14.2755 303.512 14.2755 306.572C14.2755 309.632 15.3435 311.156 17.0235 311.156ZM17.0235 310.28C16.0155 310.28 15.3435 309.164 15.3435 306.572C15.3435 304.004 16.0155 302.912 17.0235 302.912C18.0195 302.912 18.6915 304.004 18.6915 306.572C18.6915 309.164 18.0195 310.28 17.0235 310.28ZM23.6798 311.156C25.3478 311.156 26.4158 309.632 26.4158 306.572C26.4158 303.524 25.3478 302.036 23.6798 302.036C21.9998 302.036 20.9318 303.512 20.9318 306.572C20.9318 309.632 21.9998 311.156 23.6798 311.156ZM23.6798 310.28C22.6718 310.28 21.9998 309.164 21.9998 306.572C21.9998 304.004 22.6718 302.912 23.6798 302.912C24.6758 302.912 25.3478 304.004 25.3478 306.572C25.3478 309.164 24.6758 310.28 23.6798 310.28Z" fill="#9BA5AB"/>
<path d="M8.41125 337.7L10.4153 334.7C10.6673 334.268 10.9073 333.836 11.1233 333.404H11.1713C11.1473 333.86 11.1113 334.568 11.1113 335V337.7H8.41125ZM11.1113 341H12.1433V338.576H13.3073V337.7H12.1433V332.192H10.9313L7.27125 337.856V338.576H11.1113V341ZM17.0235 341.156C18.6915 341.156 19.7595 339.632 19.7595 336.572C19.7595 333.524 18.6915 332.036 17.0235 332.036C15.3435 332.036 14.2755 333.512 14.2755 336.572C14.2755 339.632 15.3435 341.156 17.0235 341.156ZM17.0235 340.28C16.0155 340.28 15.3435 339.164 15.3435 336.572C15.3435 334.004 16.0155 332.912 17.0235 332.912C18.0195 332.912 18.6915 334.004 18.6915 336.572C18.6915 339.164 18.0195 340.28 17.0235 340.28ZM23.6798 341.156C25.3478 341.156 26.4158 339.632 26.4158 336.572C26.4158 333.524 25.3478 332.036 23.6798 332.036C21.9998 332.036 20.9318 333.512 20.9318 336.572C20.9318 339.632 21.9998 341.156 23.6798 341.156ZM23.6798 340.28C22.6718 340.28 21.9998 339.164 21.9998 336.572C21.9998 334.004 22.6718 332.912 23.6798 332.912C24.6758 332.912 25.3478 334.004 25.3478 336.572C25.3478 339.164 24.6758 340.28 23.6798 340.28Z" fill="#9BA5AB"/>
<path d="M7.55925 371H13.0912V370.052H10.6553C10.2113 370.052 9.67125 370.1 9.21525 370.136C11.2793 368.18 12.6593 366.392 12.6593 364.64C12.6593 363.068 11.6753 362.036 10.1033 362.036C8.98725 362.036 8.23125 362.552 7.51125 363.332L8.14725 363.956C8.62725 363.38 9.25125 362.936 9.97125 362.936C11.0633 362.936 11.5913 363.668 11.5913 364.676C11.5913 366.188 10.3193 367.94 7.55925 370.352V371ZM17.0235 371.156C18.6915 371.156 19.7595 369.632 19.7595 366.572C19.7595 363.524 18.6915 362.036 17.0235 362.036C15.3435 362.036 14.2755 363.512 14.2755 366.572C14.2755 369.632 15.3435 371.156 17.0235 371.156ZM17.0235 370.28C16.0155 370.28 15.3435 369.164 15.3435 366.572C15.3435 364.004 16.0155 362.912 17.0235 362.912C18.0195 362.912 18.6915 364.004 18.6915 366.572C18.6915 369.164 18.0195 370.28 17.0235 370.28ZM23.6798 371.156C25.3478 371.156 26.4158 369.632 26.4158 366.572C26.4158 363.524 25.3478 362.036 23.6798 362.036C21.9998 362.036 20.9318 363.512 20.9318 366.572C20.9318 369.632 21.9998 371.156 23.6798 371.156ZM23.6798 370.28C22.6718 370.28 21.9998 369.164 21.9998 366.572C21.9998 364.004 22.6718 362.912 23.6798 362.912C24.6758 362.912 25.3478 364.004 25.3478 366.572C25.3478 369.164 24.6758 370.28 23.6798 370.28Z" fill="#9BA5AB"/>
<path d="M23.6798 401.156C25.3478 401.156 26.4158 399.632 26.4158 396.572C26.4158 393.524 25.3478 392.036 23.6798 392.036C21.9998 392.036 20.9318 393.512 20.9318 396.572C20.9318 399.632 21.9998 401.156 23.6798 401.156ZM23.6798 400.28C22.6718 400.28 21.9998 399.164 21.9998 396.572C21.9998 394.004 22.6718 392.912 23.6798 392.912C24.6758 392.912 25.3478 394.004 25.3478 396.572C25.3478 399.164 24.6758 400.28 23.6798 400.28Z" fill="#9BA5AB"/>
<path d="M75.543 422.982C76.215 422.982 76.915 422.562 77.489 421.596L76.775 421.078C76.425 421.75 76.033 422.03 75.571 422.03C74.689 422.03 74.031 420.7 72.799 420.7C72.127 420.7 71.413 421.12 70.853 422.114L71.567 422.618C71.931 421.946 72.323 421.666 72.771 421.666C73.653 421.666 74.325 422.982 75.543 422.982ZM78.6746 427H85.1146V425.908H82.2726C81.7546 425.908 81.1386 425.95 80.5926 426.006C83.0146 423.724 84.6246 421.638 84.6246 419.58C84.6246 417.746 83.4766 416.556 81.6426 416.556C80.3406 416.556 79.4446 417.158 78.6046 418.068L79.3466 418.782C79.9206 418.11 80.6486 417.592 81.4886 417.592C82.7626 417.592 83.3646 418.46 83.3646 419.636C83.3646 421.386 81.8946 423.444 78.6746 426.258V427ZM89.7162 427.196C91.6482 427.196 92.8942 425.418 92.8942 421.834C92.8942 418.278 91.6482 416.556 89.7162 416.556C87.7562 416.556 86.5102 418.278 86.5102 421.834C86.5102 425.418 87.7562 427.196 89.7162 427.196ZM89.7162 426.16C88.5402 426.16 87.7422 424.858 87.7422 421.834C87.7422 418.852 88.5402 417.578 89.7162 417.578C90.8782 417.578 91.6622 418.852 91.6622 421.834C91.6622 424.858 90.8782 426.16 89.7162 426.16ZM94.8218 427H100.45V425.936H98.3778V416.738H97.3978C96.8518 417.074 96.1938 417.312 95.2698 417.466V418.292H97.1038V425.936H94.8218V427ZM105.009 427.196C106.731 427.196 108.369 425.908 108.369 423.668C108.369 421.4 106.983 420.392 105.275 420.392C104.659 420.392 104.197 420.546 103.735 420.798L104.001 417.83H107.879V416.738H102.881L102.559 421.54L103.245 421.974C103.833 421.582 104.267 421.358 104.953 421.358C106.227 421.358 107.067 422.24 107.067 423.71C107.067 425.194 106.101 426.132 104.883 426.132C103.707 426.132 102.951 425.586 102.377 424.984L101.733 425.824C102.433 426.524 103.413 427.196 105.009 427.196ZM119.061 415.436V424.816H120.223V415.436H119.061ZM115.491 417.088V418.026H119.495V417.088H115.491ZM112.131 426.86V427.812H120.559V426.86H112.131ZM112.131 424.004V427.294H113.293V424.004H112.131ZM110.549 416.36V422.324H111.711V416.36H110.549ZM110.549 421.96V422.926H111.501C113.363 422.926 115.057 422.842 117.087 422.478L116.975 421.512C115.001 421.862 113.307 421.96 111.501 421.96H110.549ZM115.491 419.496V420.448H119.495V419.496H115.491Z" fill="#383E41"/>
<path d="M150.246 427H156.7V425.894H153.858C153.34 425.894 152.71 425.95 152.178 425.992C154.586 423.71 156.196 421.624 156.196 419.58C156.196 417.746 155.048 416.542 153.214 416.542C151.912 416.542 151.03 417.144 150.19 418.054L150.932 418.782C151.492 418.11 152.22 417.592 153.06 417.592C154.334 417.592 154.95 418.446 154.95 419.622C154.95 421.386 153.466 423.43 150.246 426.244V427ZM161.288 427.182C163.234 427.182 164.48 425.404 164.48 421.834C164.48 418.278 163.234 416.542 161.288 416.542C159.328 416.542 158.082 418.264 158.082 421.834C158.082 425.404 159.328 427.182 161.288 427.182ZM161.288 426.16C160.112 426.16 159.328 424.858 159.328 421.834C159.328 418.838 160.112 417.564 161.288 417.564C162.45 417.564 163.234 418.838 163.234 421.834C163.234 424.858 162.45 426.16 161.288 426.16ZM166.393 427H172.021V425.936H169.963V416.724H168.983C168.423 417.06 167.765 417.298 166.855 417.466V418.278H168.675V425.936H166.393V427ZM177.029 421.582C178.275 421.582 178.891 422.464 178.891 423.85C178.891 425.25 178.121 426.188 177.141 426.188C175.853 426.188 175.083 425.026 174.929 422.898C175.559 421.96 176.385 421.582 177.029 421.582ZM177.141 427.182C178.737 427.182 180.081 425.838 180.081 423.85C180.081 421.708 178.975 420.63 177.239 420.63C176.427 420.63 175.531 421.106 174.901 421.876C174.957 418.684 176.147 417.606 177.547 417.606C178.177 417.606 178.793 417.9 179.199 418.39L179.899 417.592C179.339 416.99 178.569 416.542 177.505 416.542C175.517 416.542 173.711 418.082 173.711 422.1C173.711 425.488 175.167 427.182 177.141 427.182ZM190.618 424.788H191.78V415.492H190.618V417.116H187.076V418.04H190.618V419.524H187.076V420.434H190.618V424.788ZM188.546 421.512C186.67 421.848 185.032 421.946 183.31 421.96V416.388H182.162V422.926H183.114C184.962 422.926 186.656 422.828 188.672 422.464L188.546 421.512ZM184.878 426.818V423.99H183.73V427.756H192.102V426.818H184.878Z" fill="#383E41"/>
<path d="M221.817 427H228.271V425.894H225.429C224.911 425.894 224.281 425.95 223.749 425.992C226.157 423.71 227.767 421.624 227.767 419.58C227.767 417.746 226.619 416.542 224.785 416.542C223.483 416.542 222.601 417.144 221.761 418.054L222.503 418.782C223.063 418.11 223.791 417.592 224.631 417.592C225.905 417.592 226.521 418.446 226.521 419.622C226.521 421.386 225.037 423.43 221.817 426.244V427ZM232.859 427.182C234.805 427.182 236.051 425.404 236.051 421.834C236.051 418.278 234.805 416.542 232.859 416.542C230.899 416.542 229.653 418.264 229.653 421.834C229.653 425.404 230.899 427.182 232.859 427.182ZM232.859 426.16C231.683 426.16 230.899 424.858 230.899 421.834C230.899 418.838 231.683 417.564 232.859 417.564C234.021 417.564 234.805 418.838 234.805 421.834C234.805 424.858 234.021 426.16 232.859 426.16ZM237.964 427H243.592V425.936H241.534V416.724H240.554C239.994 417.06 239.336 417.298 238.426 417.466V418.278H240.246V425.936H237.964V427ZM247.27 427H248.6C248.754 422.982 249.202 420.588 251.61 417.508V416.724H245.184V417.83H250.154C248.152 420.63 247.438 423.108 247.27 427ZM262.19 424.788H263.352V415.492H262.19V417.116H258.648V418.04H262.19V419.524H258.648V420.434H262.19V424.788ZM260.118 421.512C258.242 421.848 256.604 421.946 254.882 421.96V416.388H253.734V422.926H254.686C256.534 422.926 258.228 422.828 260.244 422.464L260.118 421.512ZM256.45 426.818V423.99H255.302V427.756H263.674V426.818H256.45Z" fill="#383E41"/>
<path d="M293.388 427H299.842V425.894H297C296.482 425.894 295.852 425.95 295.32 425.992C297.728 423.71 299.338 421.624 299.338 419.58C299.338 417.746 298.19 416.542 296.356 416.542C295.054 416.542 294.172 417.144 293.332 418.054L294.074 418.782C294.634 418.11 295.362 417.592 296.202 417.592C297.476 417.592 298.092 418.446 298.092 419.622C298.092 421.386 296.608 423.43 293.388 426.244V427ZM304.43 427.182C306.376 427.182 307.622 425.404 307.622 421.834C307.622 418.278 306.376 416.542 304.43 416.542C302.47 416.542 301.224 418.264 301.224 421.834C301.224 425.404 302.47 427.182 304.43 427.182ZM304.43 426.16C303.254 426.16 302.47 424.858 302.47 421.834C302.47 418.838 303.254 417.564 304.43 417.564C305.592 417.564 306.376 418.838 306.376 421.834C306.376 424.858 305.592 426.16 304.43 426.16ZM309.536 427H315.164V425.936H313.106V416.724H312.126C311.566 417.06 310.908 417.298 309.998 417.466V418.278H311.818V425.936H309.536V427ZM319.975 427.182C321.907 427.182 323.195 426.02 323.195 424.522C323.195 423.122 322.355 422.352 321.459 421.834V421.764C322.075 421.288 322.831 420.364 322.831 419.286C322.831 417.704 321.767 416.584 320.017 416.584C318.421 416.584 317.203 417.62 317.203 419.188C317.203 420.266 317.833 421.036 318.589 421.554V421.624C317.651 422.128 316.699 423.08 316.699 424.452C316.699 426.034 318.085 427.182 319.975 427.182ZM320.675 421.428C319.471 420.952 318.365 420.42 318.365 419.188C318.365 418.194 319.051 417.522 320.003 417.522C321.109 417.522 321.739 418.348 321.739 419.356C321.739 420.112 321.375 420.812 320.675 421.428ZM320.003 426.23C318.771 426.23 317.861 425.432 317.861 424.34C317.861 423.36 318.435 422.548 319.261 422.016C320.717 422.604 321.977 423.122 321.977 424.494C321.977 425.516 321.179 426.23 320.003 426.23ZM333.761 424.788H334.923V415.492H333.761V417.116H330.219V418.04H333.761V419.524H330.219V420.434H333.761V424.788ZM331.689 421.512C329.813 421.848 328.175 421.946 326.453 421.96V416.388H325.305V422.926H326.257C328.105 422.926 329.799 422.828 331.815 422.464L331.689 421.512ZM328.021 426.818V423.99H326.873V427.756H335.245V426.818H328.021Z" fill="#383E41"/>
<path d="M364.961 427H371.415V425.894H368.573C368.055 425.894 367.425 425.95 366.893 425.992C369.301 423.71 370.911 421.624 370.911 419.58C370.911 417.746 369.763 416.542 367.929 416.542C366.627 416.542 365.745 417.144 364.905 418.054L365.647 418.782C366.207 418.11 366.935 417.592 367.775 417.592C369.049 417.592 369.665 418.446 369.665 419.622C369.665 421.386 368.181 423.43 364.961 426.244V427ZM376.002 427.182C377.948 427.182 379.194 425.404 379.194 421.834C379.194 418.278 377.948 416.542 376.002 416.542C374.042 416.542 372.796 418.264 372.796 421.834C372.796 425.404 374.042 427.182 376.002 427.182ZM376.002 426.16C374.826 426.16 374.042 424.858 374.042 421.834C374.042 418.838 374.826 417.564 376.002 417.564C377.164 417.564 377.948 418.838 377.948 421.834C377.948 424.858 377.164 426.16 376.002 426.16ZM381.108 427H386.736V425.936H384.678V416.724H383.698C383.138 417.06 382.48 417.298 381.57 417.466V418.278H383.39V425.936H381.108V427ZM389.462 419.874C389.462 418.474 390.218 417.55 391.198 417.55C392.514 417.55 393.298 418.67 393.438 420.784C392.78 421.75 391.996 422.156 391.296 422.156C390.078 422.156 389.462 421.26 389.462 419.874ZM390.918 427.182C392.85 427.182 394.642 425.586 394.642 421.428C394.642 418.166 393.172 416.542 391.198 416.542C389.602 416.542 388.258 417.886 388.258 419.874C388.258 422.002 389.378 423.108 391.086 423.108C391.94 423.108 392.822 422.618 393.452 421.848C393.354 425.026 392.206 426.118 390.876 426.118C390.218 426.118 389.588 425.824 389.168 425.334L388.454 426.132C389.028 426.734 389.812 427.182 390.918 427.182ZM405.333 424.788H406.495V415.492H405.333V417.116H401.791V418.04H405.333V419.524H401.791V420.434H405.333V424.788ZM403.261 421.512C401.385 421.848 399.747 421.946 398.025 421.96V416.388H396.877V422.926H397.829C399.677 422.926 401.371 422.828 403.387 422.464L403.261 421.512ZM399.593 426.818V423.99H398.445V427.756H406.817V426.818H399.593Z" fill="#383E41"/>
<path d="M436.532 427H442.986V425.894H440.144C439.626 425.894 438.996 425.95 438.464 425.992C440.872 423.71 442.482 421.624 442.482 419.58C442.482 417.746 441.334 416.542 439.5 416.542C438.198 416.542 437.316 417.144 436.476 418.054L437.218 418.782C437.778 418.11 438.506 417.592 439.346 417.592C440.62 417.592 441.236 418.446 441.236 419.622C441.236 421.386 439.752 423.43 436.532 426.244V427ZM447.574 427.182C449.52 427.182 450.766 425.404 450.766 421.834C450.766 418.278 449.52 416.542 447.574 416.542C445.614 416.542 444.368 418.264 444.368 421.834C444.368 425.404 445.614 427.182 447.574 427.182ZM447.574 426.16C446.398 426.16 445.614 424.858 445.614 421.834C445.614 418.838 446.398 417.564 447.574 417.564C448.736 417.564 449.52 418.838 449.52 421.834C449.52 424.858 448.736 426.16 447.574 426.16ZM452.063 427H458.517V425.894H455.675C455.157 425.894 454.527 425.95 453.995 425.992C456.403 423.71 458.013 421.624 458.013 419.58C458.013 417.746 456.865 416.542 455.031 416.542C453.729 416.542 452.847 417.144 452.007 418.054L452.749 418.782C453.309 418.11 454.037 417.592 454.877 417.592C456.151 417.592 456.767 418.446 456.767 419.622C456.767 421.386 455.283 423.43 452.063 426.244V427ZM463.105 427.182C465.051 427.182 466.297 425.404 466.297 421.834C466.297 418.278 465.051 416.542 463.105 416.542C461.145 416.542 459.899 418.264 459.899 421.834C459.899 425.404 461.145 427.182 463.105 427.182ZM463.105 426.16C461.929 426.16 461.145 424.858 461.145 421.834C461.145 418.838 461.929 417.564 463.105 417.564C464.267 417.564 465.051 418.838 465.051 421.834C465.051 424.858 464.267 426.16 463.105 426.16ZM476.905 424.788H478.067V415.492H476.905V417.116H473.363V418.04H476.905V419.524H473.363V420.434H476.905V424.788ZM474.833 421.512C472.957 421.848 471.319 421.946 469.597 421.96V416.388H468.449V422.926H469.401C471.249 422.926 472.943 422.828 474.959 422.464L474.833 421.512ZM471.165 426.818V423.99H470.017V427.756H478.389V426.818H471.165Z" fill="#383E41"/>
<path d="M508.103 427H514.557V425.894H511.715C511.197 425.894 510.567 425.95 510.035 425.992C512.443 423.71 514.053 421.624 514.053 419.58C514.053 417.746 512.905 416.542 511.071 416.542C509.769 416.542 508.887 417.144 508.047 418.054L508.789 418.782C509.349 418.11 510.077 417.592 510.917 417.592C512.191 417.592 512.807 418.446 512.807 419.622C512.807 421.386 511.323 423.43 508.103 426.244V427ZM519.145 427.182C521.091 427.182 522.337 425.404 522.337 421.834C522.337 418.278 521.091 416.542 519.145 416.542C517.185 416.542 515.939 418.264 515.939 421.834C515.939 425.404 517.185 427.182 519.145 427.182ZM519.145 426.16C517.969 426.16 517.185 424.858 517.185 421.834C517.185 418.838 517.969 417.564 519.145 417.564C520.307 417.564 521.091 418.838 521.091 421.834C521.091 424.858 520.307 426.16 519.145 426.16ZM523.635 427H530.089V425.894H527.247C526.729 425.894 526.099 425.95 525.567 425.992C527.975 423.71 529.585 421.624 529.585 419.58C529.585 417.746 528.437 416.542 526.603 416.542C525.301 416.542 524.419 417.144 523.579 418.054L524.321 418.782C524.881 418.11 525.609 417.592 526.449 417.592C527.723 417.592 528.339 418.446 528.339 419.622C528.339 421.386 526.855 423.43 523.635 426.244V427ZM532.016 427H537.644V425.936H535.586V416.724H534.606C534.046 417.06 533.388 417.298 532.478 417.466V418.278H534.298V425.936H532.016V427ZM548.476 424.788H549.638V415.492H548.476V417.116H544.934V418.04H548.476V419.524H544.934V420.434H548.476V424.788ZM546.404 421.512C544.528 421.848 542.89 421.946 541.168 421.96V416.388H540.02V422.926H540.972C542.82 422.926 544.514 422.828 546.53 422.464L546.404 421.512ZM542.736 426.818V423.99H541.588V427.756H549.96V426.818H542.736Z" fill="#383E41"/>
<path d="M579.675 427H586.115V425.908H583.273C582.755 425.908 582.139 425.95 581.593 426.006C584.015 423.724 585.625 421.638 585.625 419.58C585.625 417.746 584.477 416.556 582.643 416.556C581.341 416.556 580.445 417.158 579.605 418.068L580.347 418.782C580.921 418.11 581.649 417.592 582.489 417.592C583.763 417.592 584.365 418.46 584.365 419.636C584.365 421.386 582.895 423.444 579.675 426.258V427ZM590.716 427.196C592.648 427.196 593.894 425.418 593.894 421.834C593.894 418.278 592.648 416.556 590.716 416.556C588.756 416.556 587.51 418.278 587.51 421.834C587.51 425.418 588.756 427.196 590.716 427.196ZM590.716 426.16C589.54 426.16 588.742 424.858 588.742 421.834C588.742 418.852 589.54 417.578 590.716 417.578C591.878 417.578 592.662 418.852 592.662 421.834C592.662 424.858 591.878 426.16 590.716 426.16ZM595.206 427H601.646V425.908H598.804C598.286 425.908 597.67 425.95 597.124 426.006C599.546 423.724 601.156 421.638 601.156 419.58C601.156 417.746 600.008 416.556 598.174 416.556C596.872 416.556 595.976 417.158 595.136 418.068L595.878 418.782C596.452 418.11 597.18 417.592 598.02 417.592C599.294 417.592 599.896 418.46 599.896 419.636C599.896 421.386 598.426 423.444 595.206 426.258V427ZM602.971 427H609.411V425.908H606.569C606.051 425.908 605.435 425.95 604.889 426.006C607.311 423.724 608.921 421.638 608.921 419.58C608.921 417.746 607.773 416.556 605.939 416.556C604.637 416.556 603.741 417.158 602.901 418.068L603.643 418.782C604.217 418.11 604.945 417.592 605.785 417.592C607.059 417.592 607.661 418.46 607.661 419.636C607.661 421.386 606.191 423.444 602.971 426.258V427ZM620.061 415.436V424.816H621.223V415.436H620.061ZM616.491 417.088V418.026H620.495V417.088H616.491ZM613.131 426.86V427.812H621.559V426.86H613.131ZM613.131 424.004V427.294H614.293V424.004H613.131ZM611.549 416.36V422.324H612.711V416.36H611.549ZM611.549 421.96V422.926H612.501C614.363 422.926 616.057 422.842 618.087 422.478L617.975 421.512C616.001 421.862 614.307 421.96 612.501 421.96H611.549ZM616.491 419.496V420.448H620.495V419.496H616.491Z" fill="#383E41"/>
<path d="M71.6954 17H79.6314V15.016H77.0714C76.5114 15.016 75.7274 15.096 75.1354 15.16C77.2954 13.048 79.0874 10.744 79.0874 8.584C79.0874 6.376 77.5834 4.952 75.3594 4.952C73.7434 4.952 72.6714 5.576 71.5834 6.744L72.8794 8.024C73.4874 7.352 74.1754 6.792 75.0554 6.792C76.1914 6.792 76.8154 7.528 76.8154 8.712C76.8154 10.536 74.9274 12.76 71.6954 15.656V17ZM81.7889 20.424C83.7409 19.784 84.8129 18.36 84.8129 16.472C84.8129 15.032 84.2049 14.168 83.1329 14.168C82.2849 14.168 81.5969 14.712 81.5969 15.56C81.5969 16.44 82.3009 16.952 83.0689 16.952C83.4209 16.952 83.7409 16.84 83.9809 16.6L83.1489 15.224L83.2289 16.888C83.2449 17.832 82.5569 18.68 81.3089 19.144L81.7889 20.424ZM89.7441 17.224C92.0961 17.224 94.2881 15.288 94.2881 10.808C94.2881 6.712 92.2721 4.952 90.0161 4.952C88.0001 4.952 86.3041 6.456 86.3041 8.904C86.3041 11.416 87.7121 12.616 89.6961 12.616C90.5281 12.616 91.6001 12.088 92.2401 11.208L92.1121 9.608C91.5361 10.584 90.8001 10.952 90.1281 10.952C89.1201 10.952 88.4481 10.28 88.4481 8.904C88.4481 7.432 89.1681 6.712 90.0641 6.712C91.2161 6.712 92.1281 7.784 92.1281 10.808C92.1281 14.2 90.9921 15.32 89.6001 15.32C88.8961 15.32 88.1761 14.952 87.7281 14.456L86.4801 15.88C87.2001 16.616 88.2561 17.224 89.7441 17.224ZM98.0616 17H100.446C100.654 12.376 101.006 9.944 103.758 6.584V5.16H95.9016V7.128H101.23C98.9576 10.264 98.2856 12.904 98.0616 17ZM109.259 17.224C111.659 17.224 113.259 15.128 113.259 11.032C113.259 6.952 111.659 4.952 109.259 4.952C106.843 4.952 105.243 6.952 105.243 11.032C105.243 15.128 106.843 17.224 109.259 17.224ZM109.259 15.384C108.235 15.384 107.467 14.36 107.467 11.032C107.467 7.72 108.235 6.76 109.259 6.76C110.283 6.76 111.035 7.72 111.035 11.032C111.035 14.36 110.283 15.384 109.259 15.384Z" fill="#217FEF"/>
<path d="M434.367 211H441.487V209.096H439.263V199.144H437.519C436.767 199.624 435.951 199.928 434.767 200.152V201.608H436.911V209.096H434.367V211ZM443.821 214.408C445.757 213.768 446.845 212.344 446.845 210.472C446.845 209.016 446.237 208.152 445.149 208.152C444.317 208.152 443.629 208.696 443.629 209.544C443.629 210.44 444.333 210.936 445.101 210.936C445.149 210.936 445.197 210.936 445.245 210.936C445.261 211.832 444.573 212.664 443.325 213.128L443.821 214.408ZM448.992 211H456.112V209.096H453.888V199.144H452.144C451.392 199.624 450.576 199.928 449.392 200.152V201.608H451.536V209.096H448.992V211ZM459.902 202.888C459.902 201.432 460.622 200.712 461.502 200.712C462.51 200.712 463.326 201.512 463.534 203.656C462.99 204.568 462.238 204.936 461.582 204.936C460.558 204.936 459.902 204.28 459.902 202.888ZM461.182 211.224C463.534 211.224 465.726 209.288 465.726 204.808C465.726 200.696 463.71 198.936 461.47 198.936C459.438 198.936 457.742 200.456 457.742 202.888C457.742 205.4 459.166 206.616 461.134 206.616C461.934 206.616 462.942 206.136 463.566 205.336C463.454 208.296 462.366 209.304 461.038 209.304C460.334 209.304 459.614 208.936 459.182 208.456L457.934 209.88C458.638 210.6 459.71 211.224 461.182 211.224ZM471.451 205.208C472.475 205.208 473.147 205.864 473.147 207.256C473.147 208.712 472.411 209.448 471.531 209.448C470.539 209.448 469.739 208.616 469.515 206.456C470.059 205.56 470.811 205.208 471.451 205.208ZM471.579 211.224C473.595 211.224 475.291 209.688 475.291 207.256C475.291 204.728 473.883 203.544 471.899 203.544C471.131 203.544 470.107 204.024 469.467 204.824C469.563 201.848 470.683 200.824 472.043 200.824C472.731 200.824 473.451 201.208 473.867 201.688L475.115 200.28C474.395 199.544 473.355 198.936 471.899 198.936C469.515 198.936 467.323 200.824 467.323 205.24C467.323 209.416 469.323 211.224 471.579 211.224Z" fill="#217FEF"/>
<path d="M362.367 219H369.487V217.096H367.263V207.144H365.519C364.767 207.624 363.951 207.928 362.767 208.152V209.608H364.911V217.096H362.367V219ZM371.821 222.408C373.757 221.768 374.845 220.344 374.845 218.472C374.845 217.016 374.237 216.152 373.149 216.152C372.317 216.152 371.629 216.696 371.629 217.544C371.629 218.44 372.333 218.936 373.101 218.936C373.149 218.936 373.197 218.936 373.245 218.936C373.261 219.832 372.573 220.664 371.325 221.128L371.821 222.408ZM376.992 219H384.112V217.096H381.888V207.144H380.144C379.392 207.624 378.576 207.928 377.392 208.152V209.608H379.536V217.096H376.992V219ZM389.486 219.224C391.742 219.224 393.646 217.96 393.646 215.784C393.646 214.232 392.622 213.24 391.294 212.872V212.792C392.542 212.296 393.262 211.368 393.262 210.088C393.262 208.072 391.71 206.936 389.422 206.936C388.03 206.936 386.894 207.496 385.87 208.392L387.07 209.832C387.774 209.176 388.462 208.792 389.31 208.792C390.318 208.792 390.894 209.336 390.894 210.264C390.894 211.32 390.19 212.072 388.014 212.072V213.752C390.59 213.752 391.278 214.488 391.278 215.64C391.278 216.712 390.462 217.304 389.262 217.304C388.19 217.304 387.326 216.776 386.622 216.088L385.518 217.576C386.35 218.52 387.614 219.224 389.486 219.224ZM395.211 219H403.147V217.016H400.587C400.027 217.016 399.243 217.08 398.651 217.144C400.811 215.032 402.587 212.728 402.587 210.584C402.587 208.376 401.099 206.936 398.859 206.936C397.243 206.936 396.187 207.56 395.099 208.728L396.379 210.008C396.987 209.352 397.691 208.792 398.555 208.792C399.691 208.792 400.331 209.512 400.331 210.712C400.331 212.536 398.427 214.76 395.211 217.64V219Z" fill="#217FEF"/>
<path d="M507.367 191H514.487V189.096H512.263V179.144H510.519C509.767 179.624 508.951 179.928 507.767 180.152V181.608H509.911V189.096H507.367V191ZM516.821 194.408C518.757 193.768 519.845 192.344 519.845 190.472C519.845 189.016 519.237 188.152 518.149 188.152C517.317 188.152 516.629 188.696 516.629 189.544C516.629 190.44 517.333 190.936 518.101 190.936C518.149 190.936 518.197 190.936 518.245 190.936C518.261 191.832 517.573 192.664 516.325 193.128L516.821 194.408ZM525.064 191.224C527.32 191.224 529.224 189.96 529.224 187.784C529.224 186.232 528.2 185.24 526.872 184.872V184.792C528.12 184.296 528.84 183.368 528.84 182.088C528.84 180.072 527.288 178.936 525 178.936C523.608 178.936 522.472 179.496 521.448 180.392L522.648 181.832C523.352 181.176 524.04 180.792 524.888 180.792C525.896 180.792 526.472 181.336 526.472 182.264C526.472 183.32 525.768 184.072 523.592 184.072V185.752C526.168 185.752 526.856 186.488 526.856 187.64C526.856 188.712 526.04 189.304 524.84 189.304C523.768 189.304 522.904 188.776 522.2 188.088L521.096 189.576C521.928 190.52 523.192 191.224 525.064 191.224ZM532.726 186.136L534.566 183.192C534.902 182.552 535.222 181.896 535.51 181.256H535.574C535.542 181.96 535.494 183.032 535.494 183.72V186.136H532.726ZM535.494 191H537.686V187.928H539.078V186.136H537.686V179.144H534.854L530.438 186.328V187.928H535.494V191ZM542.147 186.136L543.987 183.192C544.323 182.552 544.643 181.896 544.931 181.256H544.995C544.963 181.96 544.915 183.032 544.915 183.72V186.136H542.147ZM544.915 191H547.107V187.928H548.499V186.136H547.107V179.144H544.275L539.859 186.328V187.928H544.915V191Z" fill="#217FEF"/>
<path d="M588.64 376H595.776V374.096H593.552V364.16H591.808C591.04 364.624 590.24 364.928 589.04 365.152V366.608H591.2V374.096H588.64V376ZM601.501 376.224C603.901 376.224 605.501 374.128 605.501 370.032C605.501 365.952 603.901 363.952 601.501 363.952C599.085 363.952 597.485 365.952 597.485 370.032C597.485 374.128 599.085 376.224 601.501 376.224ZM601.501 374.384C600.477 374.384 599.709 373.36 599.709 370.032C599.709 366.72 600.477 365.76 601.501 365.76C602.525 365.76 603.277 366.72 603.277 370.032C603.277 373.36 602.525 374.384 601.501 374.384ZM607.515 376H614.651V374.096H612.427V364.16H610.683C609.915 364.624 609.115 364.928 607.915 365.152V366.608H610.075V374.096H607.515V376Z" fill="#217FEF"/>
<path d="M156.295 253.208C157.319 253.208 157.991 253.864 157.991 255.256C157.991 256.712 157.255 257.448 156.375 257.448C155.383 257.448 154.583 256.616 154.359 254.456C154.903 253.56 155.655 253.208 156.295 253.208ZM156.423 259.224C158.439 259.224 160.135 257.688 160.135 255.256C160.135 252.728 158.727 251.544 156.743 251.544C155.975 251.544 154.951 252.024 154.311 252.824C154.407 249.848 155.527 248.824 156.887 248.824C157.575 248.824 158.295 249.208 158.711 249.688L159.959 248.28C159.239 247.544 158.199 246.936 156.743 246.936C154.359 246.936 152.167 248.824 152.167 253.24C152.167 257.416 154.167 259.224 156.423 259.224ZM163.589 250.888C163.589 249.432 164.309 248.712 165.189 248.712C166.197 248.712 167.013 249.512 167.221 251.656C166.677 252.568 165.925 252.936 165.269 252.936C164.245 252.936 163.589 252.28 163.589 250.888ZM164.869 259.224C167.221 259.224 169.413 257.288 169.413 252.808C169.413 248.696 167.397 246.936 165.157 246.936C163.125 246.936 161.429 248.456 161.429 250.888C161.429 253.4 162.853 254.616 164.821 254.616C165.621 254.616 166.629 254.136 167.253 253.336C167.141 256.296 166.053 257.304 164.725 257.304C164.021 257.304 163.301 256.936 162.869 256.456L161.621 257.88C162.325 258.6 163.397 259.224 164.869 259.224ZM175.139 253.208C176.163 253.208 176.835 253.864 176.835 255.256C176.835 256.712 176.099 257.448 175.219 257.448C174.227 257.448 173.427 256.616 173.203 254.456C173.747 253.56 174.499 253.208 175.139 253.208ZM175.267 259.224C177.283 259.224 178.979 257.688 178.979 255.256C178.979 252.728 177.571 251.544 175.587 251.544C174.819 251.544 173.795 252.024 173.155 252.824C173.251 249.848 174.371 248.824 175.731 248.824C176.419 248.824 177.139 249.208 177.555 249.688L178.803 248.28C178.083 247.544 177.043 246.936 175.587 246.936C173.203 246.936 171.011 248.824 171.011 253.24C171.011 257.416 173.011 259.224 175.267 259.224Z" fill="#217FEF"/>
<path d="M228.071 251.224C230.471 251.224 232.055 249.848 232.055 248.056C232.055 246.44 231.159 245.48 230.071 244.888V244.808C230.855 244.248 231.591 243.272 231.591 242.104C231.591 240.216 230.247 238.952 228.151 238.952C226.103 238.952 224.583 240.168 224.583 242.072C224.583 243.336 225.239 244.232 226.151 244.888V244.968C225.047 245.544 224.119 246.536 224.119 248.056C224.119 249.912 225.815 251.224 228.071 251.224ZM228.823 244.232C227.575 243.736 226.663 243.192 226.663 242.072C226.663 241.128 227.303 240.6 228.103 240.6C229.095 240.6 229.671 241.288 229.671 242.248C229.671 242.952 229.399 243.624 228.823 244.232ZM228.135 249.56C227.031 249.56 226.151 248.872 226.151 247.8C226.151 246.92 226.599 246.12 227.239 245.608C228.775 246.232 229.863 246.744 229.863 247.976C229.863 249 229.143 249.56 228.135 249.56ZM235.765 251H238.149C238.341 246.36 238.709 243.944 241.461 240.584V239.144H233.589V241.128H238.917C236.661 244.264 235.973 246.888 235.765 251ZM244.835 246.136L246.675 243.192C247.011 242.552 247.331 241.896 247.619 241.256H247.683C247.651 241.96 247.603 243.032 247.603 243.72V246.136H244.835ZM247.603 251H249.795V247.928H251.187V246.136H249.795V239.144H246.963L242.547 246.328V247.928H247.603V251Z" fill="#217FEF"/>
<path d="M299.167 234.888C299.167 233.432 299.887 232.712 300.767 232.712C301.775 232.712 302.591 233.512 302.799 235.656C302.255 236.568 301.503 236.936 300.847 236.936C299.823 236.936 299.167 236.28 299.167 234.888ZM300.447 243.224C302.799 243.224 304.991 241.288 304.991 236.808C304.991 232.696 302.975 230.936 300.735 230.936C298.703 230.936 297.007 232.456 297.007 234.888C297.007 237.4 298.431 238.616 300.399 238.616C301.199 238.616 302.207 238.136 302.831 237.336C302.719 240.296 301.631 241.304 300.303 241.304C299.599 241.304 298.879 240.936 298.447 240.456L297.199 241.88C297.903 242.6 298.975 243.224 300.447 243.224ZM310.717 237.208C311.741 237.208 312.413 237.864 312.413 239.256C312.413 240.712 311.677 241.448 310.797 241.448C309.805 241.448 309.005 240.616 308.781 238.456C309.325 237.56 310.077 237.208 310.717 237.208ZM310.845 243.224C312.861 243.224 314.557 241.688 314.557 239.256C314.557 236.728 313.149 235.544 311.165 235.544C310.397 235.544 309.373 236.024 308.733 236.824C308.829 233.848 309.949 232.824 311.309 232.824C311.997 232.824 312.717 233.208 313.133 233.688L314.381 232.28C313.661 231.544 312.621 230.936 311.165 230.936C308.781 230.936 306.589 232.824 306.589 237.24C306.589 241.416 308.589 243.224 310.845 243.224ZM317.835 238.136L319.675 235.192C320.011 234.552 320.331 233.896 320.619 233.256H320.683C320.651 233.96 320.603 235.032 320.603 235.72V238.136H317.835ZM320.603 243H322.795V239.928H324.187V238.136H322.795V231.144H319.963L315.547 238.328V239.928H320.603V243Z" fill="#217FEF"/>
</svg>
