<?xml version="1.0" encoding="utf-8"?>
<!-- Generator: Adobe Illustrator 25.4.1, SVG Export Plug-In . SVG Version: 6.00 Build 0)  -->
<svg version="1.1" id="Layer_1" xmlns="http://www.w3.org/2000/svg" xmlns:xlink="http://www.w3.org/1999/xlink" x="0px" y="0px"
	 viewBox="0 0 600 360" style="enable-background:new 0 0 600 360;" xml:space="preserve">
<style type="text/css">
	.st0{fill:#3F4746;}
	.st1{fill:#FFFFFF;}
	.st2{fill:#24B6BC;}
	.st3{fill:#2773E2;}
	.st4{fill:#4694F2;}
	.st5{fill:#A7D0FC;}
	.st6{fill:#C8E2FD;}
	.st7{fill:#86BEFB;}
	.st8{fill:#E9F3FE;}
	.st9{fill:#00C1B3;}
	.st10{fill:#14DBC7;}
	.st11{fill:#C8D2DC;}
	.st12{fill:#DCE6EB;}
	.st13{fill:#7E8B96;}
	.st14{fill:#1D2827;}
	.st15{fill:#2E3A39;}
	.st16{fill:#F7B62D;}
	.st17{fill:#595857;}
	.st18{fill:#BFBEBD;}
	.st19{fill:#3E3A39;}
	.st20{fill:#C8C9CA;}
	.st21{fill:#9E9E9F;}
	.st22{fill:#F5F4F4;}
	.st23{fill:#E5E5E4;}
	.st24{fill:#F29600;}
	.st25{opacity:0.3;fill:#D9761F;}
	.st26{fill:#E8E7E2;}
	.st27{fill:#8A4C99;}
	.st28{fill:#5B6F79;}
	.st29{fill:#D2C6C3;}
	.st30{fill:#DBDCDC;}
	.st31{fill:#99A823;}
	.st32{fill:#77463A;}
	.st33{fill:#F3EDE4;}
	.st34{fill:#D6D6D6;}
	.st35{fill:#BCD8C6;}
	.st36{fill:#47B798;}
	.st37{fill:#129F76;}
	.st38{fill:#EEEEEF;}
	.st39{clip-path:url(#SVGID_00000099652576587363685480000006937480601122844091_);}
	.st40{clip-path:url(#SVGID_00000157292991687370617600000008702881775340867715_);fill:#0090A2;}
	.st41{opacity:0.3;fill:#FFFFFF;}
	.st42{opacity:0.25;clip-path:url(#SVGID_00000158015464933422317090000009862147067360618122_);fill:#F7F7F7;}
	.st43{fill:#FBDFC3;}
	.st44{opacity:0.1;}
	.st45{fill:#B4B5B5;}
	.st46{fill:#231916;}
	.st47{fill:#328BBF;}
	.st48{opacity:0.7;fill:#231916;}
	.st49{fill:#DBC3A9;}
	.st50{fill:#FCEBDB;}
	.st51{fill:#FFF8F0;}
	.st52{fill:#333333;}
	.st53{opacity:0.2;}
	.st54{clip-path:url(#SVGID_00000170266062696196119240000017524680761538801807_);fill:#2F2826;}
	.st55{clip-path:url(#SVGID_00000168082798992511059730000016657365775691062935_);}
	.st56{clip-path:url(#SVGID_00000068674437278318089730000007395045571649684619_);fill:#0090A2;}
	.st57{opacity:0.25;clip-path:url(#SVGID_00000038401237359008051340000009636541571619855520_);fill:#F7F7F7;}
	.st58{clip-path:url(#SVGID_00000154384479807780525580000015892646610586945703_);fill:#2F2826;}
	.st59{fill:#D8D8D8;}
	.st60{fill:#FFC14F;}
	.st61{fill:#FFA90B;}
	.st62{fill:#F44545;}
	.st63{fill:#FB5858;}
	.st64{fill:#8C96DD;}
	.st65{fill:#A6AEE5;}
	.st66{fill:#717ED6;}
	.st67{fill:#494949;}
	.st68{clip-path:url(#SVGID_00000136386086910168840960000013431667638191248547_);fill:#00C1B3;}
	.st69{opacity:0.3;clip-path:url(#SVGID_00000136386086910168840960000013431667638191248547_);}
	.st70{fill:#E1CBA8;}
	.st71{fill:#E6D6B7;}
	.st72{fill:url(#SVGID_00000160167666092376443500000000549970888158278330_);}
	.st73{fill:#CC9DD0;}
	.st74{fill:url(#SVGID_00000004533981577380000490000001297019950086969475_);}
	.st75{fill:url(#SVGID_00000075136037774687313110000018073507751344127895_);}
	.st76{fill:url(#SVGID_00000034086145469787342290000003670986491083325865_);}
	.st77{fill:url(#SVGID_00000027582318880272867740000011319118454784628145_);}
	.st78{fill:url(#SVGID_00000165932192535595341650000018405544748389115791_);}
	.st79{fill:url(#SVGID_00000169557537104104370230000017204822144385290937_);}
	.st80{fill:url(#SVGID_00000036235126669735292370000009257959535979688893_);}
	.st81{fill:url(#SVGID_00000087401507542937498570000003844153993435955382_);}
	.st82{fill:url(#SVGID_00000029762750243440153030000005865640787401914541_);}
	.st83{fill:url(#SVGID_00000076573164192548317130000007311286312836412825_);}
	.st84{fill:url(#SVGID_00000082343876118039791140000003578322164176794287_);}
	.st85{fill:url(#SVGID_00000025414875575666009690000001916772475511507638_);}
	.st86{fill:url(#SVGID_00000031893468050249363120000003434278307311793080_);}
	.st87{fill:#B0AEA8;}
	.st88{fill:#A4C7C3;}
	.st89{fill:#A4E9E3;}
	.st90{fill:#95D9D4;}
	.st91{fill:url(#SVGID_00000003799237981176976520000000426523939754702734_);}
	.st92{fill:#7BC3BA;}
	.st93{fill:url(#SVGID_00000164484606664178903930000017914123893671585173_);}
	.st94{fill:url(#SVGID_00000052073577974511997660000005528522482526167183_);}
	.st95{fill:url(#SVGID_00000114789817103381274270000011418170967818714244_);}
	.st96{fill:url(#SVGID_00000122695739255012749010000001677032745332309897_);}
	.st97{fill:url(#SVGID_00000137121036133289379500000017551844221623633045_);}
	.st98{fill:url(#SVGID_00000036951201025068816080000011768568288449992618_);}
	.st99{fill:url(#SVGID_00000002359250168181724580000011915820067774120582_);}
	.st100{fill:url(#SVGID_00000018232843867341348720000010785583123361785257_);}
	.st101{opacity:0.75;fill:url(#SVGID_00000130631597412179008110000017207634698116555657_);}
	.st102{fill:url(#SVGID_00000178175162742527499720000012802314383183062969_);}
	.st103{opacity:0.5;fill:url(#SVGID_00000054981897955379772280000017610774107499562152_);}
	.st104{fill:url(#SVGID_00000128475152015654378200000006507986780140768683_);}
	.st105{opacity:0.5;fill:url(#SVGID_00000176750890187245766040000004102555897153524111_);}
	.st106{fill:url(#SVGID_00000045577221486060146370000004925435104866135941_);}
	.st107{fill:url(#SVGID_00000111181426578289135710000003776451030915508621_);}
	.st108{clip-path:url(#SVGID_00000136386086910168840960000013431667638191248547_);}
	.st109{fill:#7CD2E3;}
	.st110{fill:#44BFD7;}
	.st111{fill:#A6E0EC;}
	.st112{fill:#FFF5F5;}
	.st113{fill:#DEF4F8;}
	.st114{fill:#FBB3A8;}
	.st115{fill:#1D64CC;}
	.st116{fill:#EFEFEF;}
	.st117{fill:#E2E2E2;}
	.st118{fill:#24A7FF;}
	.st119{fill:#FFD4CF;}
	.st120{fill:#FFB09E;}
	.st121{fill:#264F59;}
	.st122{fill:#142F33;}
	.st123{fill:#381E0D;}
	.st124{fill:#231107;}
	.st125{fill:#F97070;}
	.st126{fill:#2B2B2B;}
	.st127{clip-path:url(#SVGID_00000136386086910168840960000013431667638191248547_);fill:none;}
	.st128{fill:#25BCBD;}
	.st129{fill:#FAAF40;}
</style>
<g>
	<defs>
		<rect id="SVGID_00000028284662097966936930000001488088401038224516_" width="600" height="360"/>
	</defs>
	<clipPath id="SVGID_00000082367465296970467260000011607383951641262739_">
		<use xlink:href="#SVGID_00000028284662097966936930000001488088401038224516_"  style="overflow:visible;"/>
	</clipPath>
	
		<rect x="-13.7" y="-13" style="clip-path:url(#SVGID_00000082367465296970467260000011607383951641262739_);fill:#00C1B3;" width="639.7" height="381.6"/>
	<g style="opacity:0.3;clip-path:url(#SVGID_00000082367465296970467260000011607383951641262739_);">
		<g>
			<g>
				<rect x="175.9" y="117.8" class="st70" width="58.7" height="37"/>
				<rect x="175.9" y="107.5" class="st71" width="58.7" height="10.2"/>
				<rect x="183.2" y="129.8" class="st1" width="21.5" height="10.2"/>
			</g>
			<g>
				<rect x="108" y="117.8" class="st70" width="58.7" height="37"/>
				<rect x="108" y="107.5" class="st71" width="58.7" height="10.2"/>
				<rect x="115.2" y="129.8" class="st1" width="21.5" height="10.2"/>
			</g>
			<g>
				<rect x="40.1" y="117.8" class="st70" width="58.7" height="37"/>
				<rect x="40.1" y="107.5" class="st71" width="58.7" height="10.2"/>
				<rect x="47.3" y="129.8" class="st1" width="21.5" height="10.2"/>
			</g>
			<g>
				
					<linearGradient id="SVGID_00000137812580768136362480000001054797071369377168_" gradientUnits="userSpaceOnUse" x1="3502.343" y1="126.1128" x2="3543.1638" y2="126.1128" gradientTransform="matrix(-1 0 0 1 3530.1428 0)">
					<stop  offset="0" style="stop-color:#CAF6FA"/>
					<stop  offset="0.2744" style="stop-color:#C7F5F9"/>
					<stop  offset="0.4947" style="stop-color:#BDF3F6"/>
					<stop  offset="0.6962" style="stop-color:#ACEEF1"/>
					<stop  offset="0.8855" style="stop-color:#94E9EA"/>
					<stop  offset="1" style="stop-color:#82E4E5"/>
				</linearGradient>
				<path style="fill:url(#SVGID_00000137812580768136362480000001054797071369377168_);" d="M-3.4,97.4h21.5l5,5.3
					c3,3.1,4.6,7.2,4.6,11.5v40.6H-13v-40.6c0-4.3,1.6-8.4,4.6-11.5L-3.4,97.4z"/>
				<rect x="-7.7" y="119.9" class="st1" width="30.1" height="15.1"/>
				<rect x="-5.5" y="87.3" class="st73" width="25.8" height="10.1"/>
			</g>
			<g>
				
					<linearGradient id="SVGID_00000116233316673031817270000006271890608623162536_" gradientUnits="userSpaceOnUse" x1="3501.0674" y1="249.2508" x2="3530.8875" y2="249.2508" gradientTransform="matrix(-1 0 0 1 3530.1428 0)">
					<stop  offset="0" style="stop-color:#CAF6FA"/>
					<stop  offset="0.2744" style="stop-color:#C7F5F9"/>
					<stop  offset="0.4947" style="stop-color:#BDF3F6"/>
					<stop  offset="0.6962" style="stop-color:#ACEEF1"/>
					<stop  offset="0.8855" style="stop-color:#94E9EA"/>
					<stop  offset="1" style="stop-color:#82E4E5"/>
				</linearGradient>
				<path style="fill:url(#SVGID_00000116233316673031817270000006271890608623162536_);" d="M6.3,231.9H22l3.7,3.9
					c2.2,2.3,3.4,5.3,3.4,8.4v22.4H-0.7v-22.4c0-3.1,1.2-6.1,3.4-8.4L6.3,231.9z"/>
				<rect x="3.2" y="245.9" class="st1" width="22" height="8.6"/>
				<rect x="4.8" y="224.5" class="st73" width="18.8" height="7.4"/>
			</g>
			<g>
				
					<linearGradient id="SVGID_00000076584332028484333660000018108022938108137618_" gradientUnits="userSpaceOnUse" x1="3463.5112" y1="249.2508" x2="3493.3313" y2="249.2508" gradientTransform="matrix(-1 0 0 1 3530.1428 0)">
					<stop  offset="0" style="stop-color:#CAF6FA"/>
					<stop  offset="0.2744" style="stop-color:#C7F5F9"/>
					<stop  offset="0.4947" style="stop-color:#BDF3F6"/>
					<stop  offset="0.6962" style="stop-color:#ACEEF1"/>
					<stop  offset="0.8855" style="stop-color:#94E9EA"/>
					<stop  offset="1" style="stop-color:#82E4E5"/>
				</linearGradient>
				<path style="fill:url(#SVGID_00000076584332028484333660000018108022938108137618_);" d="M43.9,231.9h15.7l3.7,3.9
					c2.2,2.3,3.4,5.3,3.4,8.4v22.4H36.8v-22.4c0-3.1,1.2-6.1,3.4-8.4L43.9,231.9z"/>
				<rect x="40.7" y="245.9" class="st1" width="22" height="8.6"/>
				<rect x="42.3" y="224.5" class="st73" width="18.8" height="7.4"/>
			</g>
			<g>
				
					<linearGradient id="SVGID_00000005975486318659119150000006425818316309516166_" gradientUnits="userSpaceOnUse" x1="3457.5305" y1="194.478" x2="3475.4556" y2="194.478" gradientTransform="matrix(-1 0 0 1 3530.1428 0)">
					<stop  offset="0" style="stop-color:#CAF6FA"/>
					<stop  offset="0.2744" style="stop-color:#C7F5F9"/>
					<stop  offset="0.4947" style="stop-color:#BDF3F6"/>
					<stop  offset="0.6962" style="stop-color:#ACEEF1"/>
					<stop  offset="0.8855" style="stop-color:#94E9EA"/>
					<stop  offset="1" style="stop-color:#82E4E5"/>
				</linearGradient>
				<path style="fill:url(#SVGID_00000005975486318659119150000006425818316309516166_);" d="M58.9,179.5h9.5l2.2,2.3
					c1.3,1.4,2,3.2,2,5v22.6H54.7v-22.6c0-1.9,0.7-3.7,2-5L58.9,179.5z"/>
				<rect x="57" y="191.7" class="st1" width="13.2" height="6.6"/>
				<rect x="58" y="172.6" class="st73" width="11.3" height="6.8"/>
			</g>
			<g>
				
					<linearGradient id="SVGID_00000058570391914409094430000014243616601411948449_" gradientUnits="userSpaceOnUse" x1="3482.1953" y1="194.478" x2="3500.1201" y2="194.478" gradientTransform="matrix(-1 0 0 1 3530.1428 0)">
					<stop  offset="0" style="stop-color:#CAF6FA"/>
					<stop  offset="0.2744" style="stop-color:#C7F5F9"/>
					<stop  offset="0.4947" style="stop-color:#BDF3F6"/>
					<stop  offset="0.6962" style="stop-color:#ACEEF1"/>
					<stop  offset="0.8855" style="stop-color:#94E9EA"/>
					<stop  offset="1" style="stop-color:#82E4E5"/>
				</linearGradient>
				<path style="fill:url(#SVGID_00000058570391914409094430000014243616601411948449_);" d="M34.3,179.5h9.5l2.2,2.3
					c1.3,1.4,2,3.2,2,5v22.6H30v-22.6c0-1.9,0.7-3.7,2-5L34.3,179.5z"/>
				<rect x="32.4" y="191.7" class="st1" width="13.2" height="6.6"/>
				<rect x="33.3" y="172.6" class="st73" width="11.3" height="6.8"/>
			</g>
			<g>
				
					<linearGradient id="SVGID_00000088101082806294730110000001487660467436349571_" gradientUnits="userSpaceOnUse" x1="3506.8601" y1="194.478" x2="3524.7852" y2="194.478" gradientTransform="matrix(-1 0 0 1 3530.1428 0)">
					<stop  offset="0" style="stop-color:#CAF6FA"/>
					<stop  offset="0.2744" style="stop-color:#C7F5F9"/>
					<stop  offset="0.4947" style="stop-color:#BDF3F6"/>
					<stop  offset="0.6962" style="stop-color:#ACEEF1"/>
					<stop  offset="0.8855" style="stop-color:#94E9EA"/>
					<stop  offset="1" style="stop-color:#82E4E5"/>
				</linearGradient>
				<path style="fill:url(#SVGID_00000088101082806294730110000001487660467436349571_);" d="M9.6,179.5H19l2.2,2.3
					c1.3,1.4,2,3.2,2,5v22.6H5.4v-22.6c0-1.9,0.7-3.7,2-5L9.6,179.5z"/>
				<rect x="7.7" y="191.7" class="st1" width="13.2" height="6.6"/>
				<rect x="8.7" y="172.6" class="st73" width="11.3" height="6.8"/>
			</g>
			<rect x="129.9" y="197" class="st70" width="99.1" height="12.5"/>
			
				<linearGradient id="SVGID_00000149349347771667635730000006756039376565233079_" gradientUnits="userSpaceOnUse" x1="3308.4072" y1="189.1722" x2="3319.8552" y2="189.1722" gradientTransform="matrix(-1 0 0 1 3530.1428 0)">
				<stop  offset="0" style="stop-color:#CAF6FA"/>
				<stop  offset="0.2744" style="stop-color:#C7F5F9"/>
				<stop  offset="0.4947" style="stop-color:#BDF3F6"/>
				<stop  offset="0.6962" style="stop-color:#ACEEF1"/>
				<stop  offset="0.8855" style="stop-color:#94E9EA"/>
				<stop  offset="1" style="stop-color:#82E4E5"/>
			</linearGradient>
			
				<rect x="210.3" y="181.3" style="fill:url(#SVGID_00000149349347771667635730000006756039376565233079_);" width="11.4" height="15.7"/>
			<rect x="207.4" y="174.4" class="st73" width="17.3" height="6.9"/>
			
				<linearGradient id="SVGID_00000168819482436324256080000017106514995241306516_" gradientUnits="userSpaceOnUse" x1="3332.8091" y1="189.1722" x2="3344.2568" y2="189.1722" gradientTransform="matrix(-1 0 0 1 3530.1428 0)">
				<stop  offset="0" style="stop-color:#CAF6FA"/>
				<stop  offset="0.2744" style="stop-color:#C7F5F9"/>
				<stop  offset="0.4947" style="stop-color:#BDF3F6"/>
				<stop  offset="0.6962" style="stop-color:#ACEEF1"/>
				<stop  offset="0.8855" style="stop-color:#94E9EA"/>
				<stop  offset="1" style="stop-color:#82E4E5"/>
			</linearGradient>
			
				<rect x="185.9" y="181.3" style="fill:url(#SVGID_00000168819482436324256080000017106514995241306516_);" width="11.4" height="15.7"/>
			<rect x="182.9" y="174.4" class="st73" width="17.3" height="6.9"/>
			
				<linearGradient id="SVGID_00000176004225761433623340000009072007087915727236_" gradientUnits="userSpaceOnUse" x1="3357.2107" y1="189.1722" x2="3368.6587" y2="189.1722" gradientTransform="matrix(-1 0 0 1 3530.1428 0)">
				<stop  offset="0" style="stop-color:#CAF6FA"/>
				<stop  offset="0.2744" style="stop-color:#C7F5F9"/>
				<stop  offset="0.4947" style="stop-color:#BDF3F6"/>
				<stop  offset="0.6962" style="stop-color:#ACEEF1"/>
				<stop  offset="0.8855" style="stop-color:#94E9EA"/>
				<stop  offset="1" style="stop-color:#82E4E5"/>
			</linearGradient>
			
				<rect x="161.5" y="181.3" style="fill:url(#SVGID_00000176004225761433623340000009072007087915727236_);" width="11.4" height="15.7"/>
			<rect x="158.5" y="174.4" class="st73" width="17.3" height="6.9"/>
			
				<linearGradient id="SVGID_00000111156055190141830880000005274937685852384645_" gradientUnits="userSpaceOnUse" x1="3381.6128" y1="189.1722" x2="3393.0603" y2="189.1722" gradientTransform="matrix(-1 0 0 1 3530.1428 0)">
				<stop  offset="0" style="stop-color:#CAF6FA"/>
				<stop  offset="0.2744" style="stop-color:#C7F5F9"/>
				<stop  offset="0.4947" style="stop-color:#BDF3F6"/>
				<stop  offset="0.6962" style="stop-color:#ACEEF1"/>
				<stop  offset="0.8855" style="stop-color:#94E9EA"/>
				<stop  offset="1" style="stop-color:#82E4E5"/>
			</linearGradient>
			
				<rect x="137.1" y="181.3" style="fill:url(#SVGID_00000111156055190141830880000005274937685852384645_);" width="11.4" height="15.7"/>
			<rect x="134.1" y="174.4" class="st73" width="17.3" height="6.9"/>
			<g>
				
					<linearGradient id="SVGID_00000171000803169797376320000003429974767525303175_" gradientUnits="userSpaceOnUse" x1="3431.1453" y1="251.3004" x2="3452.5347" y2="251.3004" gradientTransform="matrix(-1 0 0 1 3530.1428 0)">
					<stop  offset="0" style="stop-color:#CAF6FA"/>
					<stop  offset="0.2744" style="stop-color:#C7F5F9"/>
					<stop  offset="0.4947" style="stop-color:#BDF3F6"/>
					<stop  offset="0.6962" style="stop-color:#ACEEF1"/>
					<stop  offset="0.8855" style="stop-color:#94E9EA"/>
					<stop  offset="1" style="stop-color:#82E4E5"/>
				</linearGradient>
				
					<rect x="77.6" y="236" style="fill:url(#SVGID_00000171000803169797376320000003429974767525303175_);" width="21.4" height="30.6"/>
				<rect x="77.6" y="225.8" class="st73" width="21.4" height="10.2"/>
				<rect x="80.1" y="243.9" class="st1" width="16.4" height="8.6"/>
			</g>
			
				<linearGradient id="SVGID_00000174573652815958729890000006303766746346330257_" gradientUnits="userSpaceOnUse" x1="3305.4702" y1="246.1789" x2="3333.6372" y2="246.1789" gradientTransform="matrix(-1 0 0 1 3530.1428 0)">
				<stop  offset="0" style="stop-color:#CAF6FA"/>
				<stop  offset="0.2744" style="stop-color:#C7F5F9"/>
				<stop  offset="0.4947" style="stop-color:#BDF3F6"/>
				<stop  offset="0.6962" style="stop-color:#ACEEF1"/>
				<stop  offset="0.8855" style="stop-color:#94E9EA"/>
				<stop  offset="1" style="stop-color:#82E4E5"/>
			</linearGradient>
			<path style="fill:url(#SVGID_00000174573652815958729890000006303766746346330257_);" d="M201.8,266.6h15.1
				c2.9,0,5.3-2.4,5.3-5.3V233l2.4-7.2h-28.2v35.5C196.5,264.2,198.9,266.6,201.8,266.6z"/>
			<g>
				
					<linearGradient id="SVGID_00000108274359319793841820000005981123042329825983_" gradientUnits="userSpaceOnUse" x1="3342.6741" y1="254.2377" x2="3376.2646" y2="254.2377" gradientTransform="matrix(-1 0 0 1 3530.1428 0)">
					<stop  offset="0" style="stop-color:#CAF6FA"/>
					<stop  offset="0.2744" style="stop-color:#C7F5F9"/>
					<stop  offset="0.4947" style="stop-color:#BDF3F6"/>
					<stop  offset="0.6962" style="stop-color:#ACEEF1"/>
					<stop  offset="0.8855" style="stop-color:#94E9EA"/>
					<stop  offset="1" style="stop-color:#82E4E5"/>
				</linearGradient>
				
					<rect x="153.9" y="241.9" style="fill:url(#SVGID_00000108274359319793841820000005981123042329825983_);" width="33.6" height="24.7"/>
				<rect x="153.9" y="249.3" class="st1" width="33.6" height="10"/>
				<rect x="161" y="233.2" class="st73" width="19.3" height="8.7"/>
			</g>
			<g>
				
					<linearGradient id="SVGID_00000099640668398338106830000005838597816896367783_" gradientUnits="userSpaceOnUse" x1="3384.2549" y1="249.8763" x2="3407.9038" y2="249.8763" gradientTransform="matrix(-1 0 0 1 3530.1428 0)">
					<stop  offset="0" style="stop-color:#CAF6FA"/>
					<stop  offset="0.2744" style="stop-color:#C7F5F9"/>
					<stop  offset="0.4947" style="stop-color:#BDF3F6"/>
					<stop  offset="0.6962" style="stop-color:#ACEEF1"/>
					<stop  offset="0.8855" style="stop-color:#94E9EA"/>
					<stop  offset="1" style="stop-color:#82E4E5"/>
				</linearGradient>
				<polygon style="fill:url(#SVGID_00000099640668398338106830000005838597816896367783_);" points="128.8,241.9 128.8,233.2 
					139.4,233.2 139.4,241.9 145.9,241.9 145.9,266.6 122.2,266.6 122.2,241.9 				"/>
				<rect x="122.2" y="249.3" class="st1" width="23.6" height="10"/>
				<polygon class="st73" points="128.8,233.2 139.4,233.2 143.3,225.8 124.9,225.8 				"/>
			</g>
			<g>
				<rect x="-0.7" y="278.6" class="st70" width="13.8" height="45"/>
				<path class="st87" d="M3.2,284.7c0,1.7,1.4,3.1,3.1,3.1c1.7,0,3.1-1.4,3.1-3.1c0-1.7-1.4-3.1-3.1-3.1
					C4.5,281.7,3.2,283,3.2,284.7z"/>
				<rect x="3.1" y="297.5" class="st1" width="6.3" height="22"/>
			</g>
			<g>
				<rect x="13.2" y="278.6" class="st88" width="13.8" height="45"/>
				<path class="st87" d="M17,284.7c0,1.7,1.4,3.1,3.1,3.1c1.7,0,3.1-1.4,3.1-3.1c0-1.7-1.4-3.1-3.1-3.1C18.4,281.7,17,283,17,284.7
					z"/>
				<rect x="16.9" y="297.5" class="st1" width="6.3" height="22"/>
			</g>
			<g>
				<rect x="27" y="278.6" class="st89" width="13.8" height="45"/>
				<path class="st87" d="M30.8,284.7c0,1.7,1.4,3.1,3.1,3.1c1.7,0,3.1-1.4,3.1-3.1c0-1.7-1.4-3.1-3.1-3.1
					C32.2,281.7,30.8,283,30.8,284.7z"/>
				<rect x="30.7" y="297.5" class="st1" width="6.3" height="22"/>
			</g>
			<g>
				<rect x="40.8" y="278.6" class="st70" width="13.8" height="45"/>
				<path class="st87" d="M44.6,284.7c0,1.7,1.4,3.1,3.1,3.1c1.7,0,3.1-1.4,3.1-3.1c0-1.7-1.4-3.1-3.1-3.1
					C46,281.7,44.6,283,44.6,284.7z"/>
				<rect x="44.6" y="297.5" class="st1" width="6.3" height="22"/>
			</g>
			<g>
				<rect x="54.6" y="278.6" class="st88" width="13.8" height="45"/>
				<path class="st87" d="M58.5,284.7c0,1.7,1.4,3.1,3.1,3.1c1.7,0,3.1-1.4,3.1-3.1c0-1.7-1.4-3.1-3.1-3.1
					C59.8,281.7,58.5,283,58.5,284.7z"/>
				<rect x="58.4" y="297.5" class="st1" width="6.3" height="22"/>
			</g>
			<g>
				<rect x="157.9" y="278.6" class="st89" width="13.8" height="45"/>
				<path class="st87" d="M161.7,284.7c0,1.7,1.4,3.1,3.1,3.1c1.7,0,3.1-1.4,3.1-3.1c0-1.7-1.4-3.1-3.1-3.1
					C163.1,281.7,161.7,283,161.7,284.7z"/>
				<rect x="161.6" y="297.5" class="st1" width="6.3" height="22"/>
			</g>
			<g>
				<rect x="171.7" y="278.6" class="st88" width="13.8" height="45"/>
				<path class="st87" d="M175.5,284.7c0,1.7,1.4,3.1,3.1,3.1c1.7,0,3.1-1.4,3.1-3.1c0-1.7-1.4-3.1-3.1-3.1
					C176.9,281.7,175.5,283,175.5,284.7z"/>
				<rect x="175.4" y="297.5" class="st1" width="6.3" height="22"/>
			</g>
			<g>
				<rect x="185.5" y="278.6" class="st70" width="13.8" height="45"/>
				<path class="st87" d="M189.4,284.7c0,1.7,1.4,3.1,3.1,3.1c1.7,0,3.1-1.4,3.1-3.1c0-1.7-1.4-3.1-3.1-3.1
					C190.7,281.7,189.4,283,189.4,284.7z"/>
				<rect x="189.3" y="297.5" class="st1" width="6.3" height="22"/>
			</g>
			<g>
				<rect x="220.4" y="278.6" class="st88" width="13.8" height="45"/>
				<path class="st87" d="M224.2,284.7c0,1.7,1.4,3.1,3.1,3.1c1.7,0,3.1-1.4,3.1-3.1c0-1.7-1.4-3.1-3.1-3.1
					C225.6,281.7,224.2,283,224.2,284.7z"/>
				<rect x="224.2" y="297.5" class="st1" width="6.3" height="22"/>
			</g>
			
				<rect x="189" y="297.6" transform="matrix(0.2474 -0.9689 0.9689 0.2474 -132.4603 431.5143)" class="st89" width="45" height="6.8"/>
			<g>
				<rect x="-20.6" y="154.8" class="st89" width="270" height="6.8"/>
				<rect x="242.6" y="161.6" class="st89" width="6.8" height="162.1"/>
				<rect x="-13.7" y="209.5" class="st89" width="256.3" height="6.8"/>
				<rect x="-13.7" y="266.6" class="st89" width="256.3" height="6.8"/>
			</g>
			<rect x="-31" y="323.7" class="st90" width="290.8" height="9.2"/>
			<g>
				
					<linearGradient id="SVGID_00000080193830332151348060000013843616894872673935_" gradientUnits="userSpaceOnUse" x1="3308.3555" y1="320.0353" x2="3343.1033" y2="394.5522" gradientTransform="matrix(-1 0 0 1 3530.1428 0)">
					<stop  offset="0" style="stop-color:#A4E9E3"/>
					<stop  offset="1" style="stop-color:#7BC3BA"/>
				</linearGradient>
				
					<rect x="159.4" y="332.9" style="fill:url(#SVGID_00000080193830332151348060000013843616894872673935_);" width="90" height="48.8"/>
				<rect x="164.2" y="337.7" class="st1" width="21.7" height="12.5"/>
				<rect x="193.1" y="354.5" class="st92" width="22.7" height="5.6"/>
			</g>
			<g>
				
					<linearGradient id="SVGID_00000021081237775532276910000001675100101933855129_" gradientUnits="userSpaceOnUse" x1="3398.3477" y1="320.0353" x2="3433.0955" y2="394.5522" gradientTransform="matrix(-1 0 0 1 3530.1428 0)">
					<stop  offset="0" style="stop-color:#A4E9E3"/>
					<stop  offset="1" style="stop-color:#7BC3BA"/>
				</linearGradient>
				
					<rect x="69.4" y="332.9" style="fill:url(#SVGID_00000021081237775532276910000001675100101933855129_);" width="90" height="48.8"/>
				<rect x="74.2" y="337.7" class="st1" width="21.7" height="12.5"/>
				<rect x="103.1" y="354.5" class="st92" width="22.7" height="5.6"/>
			</g>
			<g>
				
					<linearGradient id="SVGID_00000032609423831224316920000012577231235905479046_" gradientUnits="userSpaceOnUse" x1="3488.3401" y1="320.0353" x2="3523.0879" y2="394.5522" gradientTransform="matrix(-1 0 0 1 3530.1428 0)">
					<stop  offset="0" style="stop-color:#A4E9E3"/>
					<stop  offset="1" style="stop-color:#7BC3BA"/>
				</linearGradient>
				
					<rect x="-20.6" y="332.9" style="fill:url(#SVGID_00000032609423831224316920000012577231235905479046_);" width="90" height="48.8"/>
				<rect x="-15.7" y="337.7" class="st1" width="21.7" height="12.5"/>
				<rect x="13.1" y="354.5" class="st92" width="22.7" height="5.6"/>
			</g>
		</g>
		<g>
			<rect x="299.5" y="301.3" class="st90" width="19.9" height="24"/>
			<rect x="216.1" y="334.7" class="st92" width="379.3" height="28.1"/>
			<rect x="212.1" y="340" class="st89" width="7.9" height="180.1"/>
			<rect x="591.4" y="340" class="st89" width="7.9" height="180.1"/>
			<rect x="200.9" y="329.3" class="st90" width="409.5" height="10.7"/>
			<rect x="262.8" y="321.1" class="st89" width="93.3" height="8.2"/>
			<g>
				<rect x="234" y="213.2" class="st89" width="150.8" height="89.7"/>
				
					<linearGradient id="SVGID_00000000927433365888764510000012196564575115859387_" gradientUnits="userSpaceOnUse" x1="3193.429" y1="199.4873" x2="3248.0288" y2="316.5767" gradientTransform="matrix(-1 0 0 1 3530.1428 0)">
					<stop  offset="0" style="stop-color:#82CEED"/>
					<stop  offset="0.1195" style="stop-color:#95D5EF"/>
					<stop  offset="0.3077" style="stop-color:#ADDEF1"/>
					<stop  offset="0.5081" style="stop-color:#BEE5F2"/>
					<stop  offset="0.7272" style="stop-color:#C8E9F3"/>
					<stop  offset="1" style="stop-color:#CBEAF3"/>
				</linearGradient>
				
					<rect x="240" y="219.1" style="opacity:0.75;fill:url(#SVGID_00000000927433365888764510000012196564575115859387_);" width="138.9" height="77.8"/>
			</g>
			<g>
				<rect x="484.7" y="230.3" class="st90" width="29.7" height="86.4"/>
				<circle class="st89" cx="499.6" cy="216.4" r="22.3"/>
				<path class="st90" d="M532.5,236.7h7.9v-16.3c0-8.7-5-16.1-13-19.4c-8-3.3-16.8-1.5-22.8,4.7l-2,2l5.6,5.6l2-2
					c4.5-4.6,10.3-4.5,14.2-2.9c3.9,1.6,8.1,5.6,8.1,12V236.7z"/>
				
					<linearGradient id="SVGID_00000165933599410674295560000002281364510345769102_" gradientUnits="userSpaceOnUse" x1="2993.696" y1="283.3385" x2="2993.696" y2="240.2744" gradientTransform="matrix(-1 0 0 1 3530.1428 0)">
					<stop  offset="0" style="stop-color:#82CEED"/>
					<stop  offset="0.1195" style="stop-color:#95D5EF"/>
					<stop  offset="0.3077" style="stop-color:#ADDEF1"/>
					<stop  offset="0.5081" style="stop-color:#BEE5F2"/>
					<stop  offset="0.7272" style="stop-color:#C8E9F3"/>
					<stop  offset="1" style="stop-color:#CBEAF3"/>
				</linearGradient>
				<path style="fill:url(#SVGID_00000165933599410674295560000002281364510345769102_);" d="M528.9,251.9V245l-2.8-1.4v-3.3h20.8
					v3.3L544,245v6.9c5.4,2.8,9.1,8.3,9.1,14.8c0,9.2-7.5,16.6-16.6,16.6c-9.2,0-16.6-7.5-16.6-16.6
					C519.8,260.2,523.5,254.7,528.9,251.9z"/>
				<polygon class="st92" points="530,235.6 530,233.2 542.9,233.2 542.9,235.6 546.8,237 546.8,240.3 526.1,240.3 526.1,237 				
					"/>
				
					<linearGradient id="SVGID_00000116196998518304241890000004566634569363744931_" gradientUnits="userSpaceOnUse" x1="2993.696" y1="278.8273" x2="2993.696" y2="266.6923" gradientTransform="matrix(-1 0 0 1 3530.1428 0)">
					<stop  offset="0" style="stop-color:#E7B142"/>
					<stop  offset="1" style="stop-color:#FFF6AF"/>
				</linearGradient>
				<path style="opacity:0.5;fill:url(#SVGID_00000116196998518304241890000004566634569363744931_);" d="M524.3,266.7
					c0,6.7,5.4,12.1,12.1,12.1c6.7,0,12.1-5.4,12.1-12.1H524.3z"/>
				<rect x="425" y="316.8" class="st92" width="149.1" height="12.6"/>
				<rect x="504.3" y="279.4" class="st89" width="64.2" height="37.4"/>
				<rect x="430.6" y="279.4" class="st89" width="64.2" height="37.4"/>
				<rect x="437.6" y="273.6" class="st92" width="50.3" height="5.8"/>
				<rect x="511.3" y="273.6" class="st92" width="50.3" height="5.8"/>
				
					<linearGradient id="SVGID_00000034078778980668822240000012414455914197510057_" gradientUnits="userSpaceOnUse" x1="3080.2341" y1="266.0458" x2="3044.5703" y2="230.382" gradientTransform="matrix(-1 0 0 1 3530.1428 0)">
					<stop  offset="0" style="stop-color:#82CEED"/>
					<stop  offset="0.1195" style="stop-color:#95D5EF"/>
					<stop  offset="0.3077" style="stop-color:#ADDEF1"/>
					<stop  offset="0.5081" style="stop-color:#BEE5F2"/>
					<stop  offset="0.7272" style="stop-color:#C8E9F3"/>
					<stop  offset="1" style="stop-color:#CBEAF3"/>
				</linearGradient>
				<path style="fill:url(#SVGID_00000034078778980668822240000012414455914197510057_);" d="M469.2,234.5l6.4-6.4l-1.1-3.4l2.7-2.7
					l16.8,16.8l-2.7,2.7l-3.4-1.1l-6.4,6.4c2.1,6.6,0.6,14.1-4.6,19.3c-7.4,7.4-19.5,7.4-26.9,0c-7.4-7.4-7.4-19.5,0-26.9
					C455.1,233.9,462.6,232.4,469.2,234.5z"/>
				<polygon class="st92" points="484.2,221.4 486.1,219.5 496.5,229.9 494.6,231.8 496.6,236.1 494,238.8 477.2,222 479.9,219.3 
									"/>
				
					<linearGradient id="SVGID_00000065781242921306211800000010478121774513027489_" gradientUnits="userSpaceOnUse" x1="3066.7808" y1="266.4623" x2="3066.7808" y2="252.5924" gradientTransform="matrix(-1 0 0 1 3530.1428 0)">
					<stop  offset="0" style="stop-color:#E7B142"/>
					<stop  offset="1" style="stop-color:#FFF6AF"/>
				</linearGradient>
				<path style="opacity:0.5;fill:url(#SVGID_00000065781242921306211800000010478121774513027489_);" d="M449.5,252.6
					c0,7.7,6.2,13.9,13.9,13.9c7.7,0,13.9-6.2,13.9-13.9H449.5z"/>
				
					<rect x="501.9" y="203.2" transform="matrix(0.7071 -0.7071 0.7071 0.7071 -0.8567 419.0415)" class="st92" width="6.9" height="14.7"/>
				
					<rect x="490.3" y="214.9" transform="matrix(0.7071 -0.7071 0.7071 0.7071 -12.5234 414.209)" class="st90" width="6.9" height="14.7"/>
				
					<rect x="494.8" y="204.6" transform="matrix(0.7071 -0.7071 0.7071 0.7071 -6.6918 416.621)" class="st73" width="9.6" height="23.5"/>
				<rect x="510.3" y="285.3" class="st90" width="52.3" height="25.5"/>
				<rect x="436.5" y="285.3" class="st90" width="52.3" height="25.5"/>
				<g>
					<rect x="530.9" y="289.3" class="st89" width="4.2" height="4.2"/>
					<rect x="522.6" y="289.3" class="st89" width="4.2" height="4.2"/>
					<rect x="514.4" y="289.3" class="st89" width="4.2" height="4.2"/>
				</g>
				<path class="st89" d="M520.7,302.1c0-2.2,1.8-4,4-4c2.2,0,4,1.8,4,4c0,2.2-1.8,4-4,4C522.5,306.1,520.7,304.3,520.7,302.1z"/>
				
					<linearGradient id="SVGID_00000039815872410653453790000003661212155284272518_" gradientUnits="userSpaceOnUse" x1="2976.085" y1="287.1294" x2="2986.3003" y2="309.0361" gradientTransform="matrix(-1 0 0 1 3530.1428 0)">
					<stop  offset="0" style="stop-color:#82CEED"/>
					<stop  offset="0.1195" style="stop-color:#95D5EF"/>
					<stop  offset="0.3077" style="stop-color:#ADDEF1"/>
					<stop  offset="0.5081" style="stop-color:#BEE5F2"/>
					<stop  offset="0.7272" style="stop-color:#C8E9F3"/>
					<stop  offset="1" style="stop-color:#CBEAF3"/>
				</linearGradient>
				
					<rect x="539.2" y="289.3" style="fill:url(#SVGID_00000039815872410653453790000003661212155284272518_);" width="19.4" height="17.6"/>
				<g>
					<rect x="457.1" y="289.3" class="st89" width="4.2" height="4.2"/>
					<rect x="448.9" y="289.3" class="st89" width="4.2" height="4.2"/>
					<rect x="440.6" y="289.3" class="st89" width="4.2" height="4.2"/>
				</g>
				<path class="st89" d="M447,302.1c0-2.2,1.8-4,4-4c2.2,0,4,1.8,4,4c0,2.2-1.8,4-4,4C448.8,306.1,447,304.3,447,302.1z"/>
				
					<linearGradient id="SVGID_00000168099295640167641810000000943406587144759433_" gradientUnits="userSpaceOnUse" x1="3049.8472" y1="287.1294" x2="3060.0625" y2="309.0362" gradientTransform="matrix(-1 0 0 1 3530.1428 0)">
					<stop  offset="0" style="stop-color:#82CEED"/>
					<stop  offset="0.1195" style="stop-color:#95D5EF"/>
					<stop  offset="0.3077" style="stop-color:#ADDEF1"/>
					<stop  offset="0.5081" style="stop-color:#BEE5F2"/>
					<stop  offset="0.7272" style="stop-color:#C8E9F3"/>
					<stop  offset="1" style="stop-color:#CBEAF3"/>
				</linearGradient>
				
					<rect x="465.5" y="289.3" style="fill:url(#SVGID_00000168099295640167641810000000943406587144759433_);" width="19.4" height="17.6"/>
			</g>
		</g>
	</g>
	<g style="clip-path:url(#SVGID_00000082367465296970467260000011607383951641262739_);">
		<path class="st11" d="M379.6,256.5l-9.6-9.6l53.3-53.3l9.6,9.6L379.6,256.5z"/>
		<path class="st12" d="M493.1,133.3c26.6,26.6,26.6,69.7,0,96.3s-69.7,26.6-96.3,0c-26.6-26.6-26.6-69.7,0-96.3
			C423.4,106.7,466.5,106.7,493.1,133.3L493.1,133.3z"/>
		<path class="st13" d="M486.1,140.3c22.7,22.7,22.7,59.6,0,82.3s-59.6,22.7-82.3,0s-22.7-59.6,0-82.3S463.3,117.6,486.1,140.3z"/>
		<path class="st63" d="M389,242.2c2,2,2,5.2,0,7.2L372.4,266c-4.4-3.6-8.4-7.6-12-12l16.6-16.6c2-2,5.2-2,7.2,0L389,242.2z"/>
		<path class="st109" d="M408.6,217.9c-20.1-20.1-20.1-52.6,0-72.7c20.1-20.1,52.6-20.1,72.7,0c20.1,20.1,20.1,52.6,0,72.7
			c-3.5,3.5-7.4,6.4-11.5,8.7c-15.4-8.5-34.3-8.5-49.7,0C415.9,224.3,412.1,221.4,408.6,217.9L408.6,217.9z"/>
		<path class="st110" d="M408.6,217.9c-20.1-20.1-20.1-52.6,0-72.7c2-2,4.1-3.7,6.2-5.3c-14.6,20.1-12.8,48.4,5.3,66.5
			c18.1,18.1,46.4,19.9,66.5,5.3c-1.6,2.2-3.4,4.3-5.3,6.2c-3.9,3.9-8.4,7.1-13.1,9.5c-7.2-3.8-15.3-5.9-24-5.9
			c-8.4,0-16.3,2-23.3,5.6C416.5,224.7,412.3,221.6,408.6,217.9L408.6,217.9z"/>
		<path class="st111" d="M484.5,156.7c5.3,8.8,7.6,17.1,5.1,18.6c-2.5,1.5-6.1-7.1-11.4-15.9c-5.3-8.8-10.2-14.4-7.8-15.9
			C472.9,142,479.2,147.9,484.5,156.7z"/>
		<path class="st112" d="M472.8,181.5v3.4l-4.2,5.8v22.5l4.2,5.8v5.7c-16.2,10.5-36.9,10.9-53.5,1.4c-0.8-0.5,1.1-7.2,1.1-7.2v-34.1
			c0,0,1.2-11.7,6.8-11.7l6.2-1.9v-17h25.8v17h3.4C468.3,171.3,472.8,175.9,472.8,181.5z"/>
		<path class="st113" d="M425.4,229.1c-2.9-1.2-5.7-2.7-8.4-4.4V219l2.1-1.8v-30.5l-2.1-1.8v-3.4c0-5.6,4.6-10.2,10.2-10.2h3.4v-17
			h6.8v17c0,1.9-1.5,3.4-3.4,3.4c-5.6,0-10.2,4.6-10.2,10.2v41.4C423.8,227.4,424.4,228.5,425.4,229.1
			C425.4,229.1,425.4,229.1,425.4,229.1L425.4,229.1z"/>
		<path class="st62" d="M417,184.9V219h17.5c1.2,0,2.2-1,2.2-2.2v-29.7c0-1.2-1-2.2-2.2-2.2L417,184.9L417,184.9z"/>
		<path class="st63" d="M459.2,164.5h-28.6v-10.2c0-1.9,1.5-3.4,3.4-3.4h21.8c1.9,0,3.4,1.5,3.4,3.4V164.5z M433.8,184.9V219h39
			v-34.1H433.8z"/>
		<path class="st112" d="M468.1,201.9c0,1.4-1.1,2.6-2.6,2.6h-6.8v6.8c0,1.4-1.1,2.6-2.6,2.6c-1.4,0-2.6-1.1-2.6-2.6v-6.8h-6.8
			c-1.4,0-2.6-1.1-2.6-2.6s1.1-2.6,2.6-2.6h6.8v-6.8c0-1.4,1.1-2.6,2.6-2.6c1.4,0,2.6,1.1,2.6,2.6v6.8h6.8
			C466.9,199.4,468.1,200.5,468.1,201.9z"/>
		<path class="st114" d="M444.2,192.6c0,1.4-1.1,2.6-2.6,2.6h-18.7c-1.4,0-2.6-1.1-2.6-2.6s1.1-2.6,2.6-2.6h18.7
			C443.1,190,444.2,191.2,444.2,192.6z M434.9,200.2h-11.9c-1.4,0-2.6,1.1-2.6,2.6s1.1,2.6,2.6,2.6h11.9c1.4,0,2.6-1.1,2.6-2.6
			S436.3,200.2,434.9,200.2z M424.7,210.4h-1.7c-1.4,0-2.6,1.1-2.6,2.6s1.1,2.6,2.6,2.6h1.7c1.4,0,2.6-1.1,2.6-2.6
			S426.1,210.4,424.7,210.4z"/>
		<path class="st62" d="M427.2,147.4h35.4c1.9,0,3.4,1.5,3.4,3.4s-1.5,3.4-3.4,3.4h-35.4c-1.9,0-3.4-1.5-3.4-3.4
			S425.3,147.4,427.2,147.4z"/>
		<path class="st113" d="M384.2,105.8c0-1.4,1.1-2.6,2.6-2.6h1.7v-1.7c0-1.4,1.1-2.6,2.6-2.6c1.4,0,2.6,1.1,2.6,2.6v1.7h1.7
			c1.4,0,2.6,1.1,2.6,2.6c0,1.4-1.1,2.6-2.6,2.6h-1.7v1.7c0,1.4-1.1,2.6-2.6,2.6c-1.4,0-2.6-1.1-2.6-2.6v-1.7h-1.7
			C385.3,108.4,384.2,107.3,384.2,105.8z"/>
		<path class="st112" d="M372.6,126.1c0-1.4,1.1-2.6,2.6-2.6h1.7v-1.7c0-1.4,1.1-2.6,2.6-2.6c1.4,0,2.6,1.1,2.6,2.6v1.7h1.7
			c1.4,0,2.6,1.1,2.6,2.6s-1.1,2.6-2.6,2.6h-1.7v1.7c0,1.4-1.1,2.6-2.6,2.6c-1.4,0-2.6-1.1-2.6-2.6v-1.7h-1.7
			C373.7,128.7,372.6,127.5,372.6,126.1z"/>
		<path class="st62" d="M324.8,305l-3-3c-3.6-3.6-3.6-9.5,0-13.1l47-47c0.3-0.3,0.7-0.3,1,0l15.2,15.2c0.3,0.3,0.3,0.7,0,1l-47,47
			C334.3,308.6,328.4,308.6,324.8,305z"/>
	</g>
	<g style="clip-path:url(#SVGID_00000082367465296970467260000011607383951641262739_);">
		<path class="st1" d="M397.1,363.3H301l-22.6-7.7l-22.6,7.7h-96.1c-5.7,0-9.9-5.3-8.6-10.8l14.7-64.3c0.3-1.3,0.7-2.6,1.2-3.8
			c1.2-2.8,3-5.3,5.2-7.4c2.6-2.4,5.8-4.2,9.3-5.1l54.7-14.3h84.2l54.7,14.3c3.5,0.9,6.7,2.7,9.3,5.1c2.2,2,4,4.6,5.2,7.4
			c0.5,1.2,0.9,2.5,1.2,3.8l14.7,64.3C406.9,358,402.7,363.3,397.1,363.3z"/>
		<path class="st115" d="M304.4,253.4l-9.3,35.6l-16.7,35.6l-8.1-15.5l-9.9-18.8l-8-37l26.1-5.1l11.1,2.2L304.4,253.4z"/>
		<path class="st116" d="M322.8,297.7l-2.4-40.1l-16-4.2l-26.1,71.3l-26.1-71.3l-16,4.2l-2.4,40.1c-0.3,4.5,1.2,9,4,12.6l13.8,17.4
			c2.6,3.3,4,7.3,4,11.5v24.1h22.6H301v-24.1c0-4.2,1.4-8.2,4-11.5l13.8-17.4C321.7,306.8,323.1,302.3,322.8,297.7L322.8,297.7z"/>
		<path class="st117" d="M278.4,324.7v38.6h-11v-38.6l-25.1-68.7l10-2.6L278.4,324.7z"/>
		<path class="st117" d="M318.8,310.3L305,327.7c-2.6,3.3-4,7.3-4,11.5v24.1h-12.4v-24.1c0-4.2,1.4-8.2,4-11.5l13.8-17.4
			c2.8-3.6,4.2-8,4-12.6l-2-43.3l12,3.1l2.4,40.1C323.1,302.3,321.7,306.8,318.8,310.3L318.8,310.3z"/>
		<g>
			<path class="st116" d="M187.7,304v59.3h-8.9V304c0-4.4-1.6-8.7-4.6-12l-7.2-7.6c1.2-2.8,3-5.3,5.2-7.4l8.6,9
				C185.3,291,187.7,297.3,187.7,304L187.7,304z"/>
		</g>
		<g>
			<path class="st116" d="M389.7,284.4l-7.2,7.6c-3,3.3-4.6,7.5-4.6,12v59.3H369V304c0-3.5,0.7-7,2-10.1c1.2-2.8,2.8-5.5,4.9-7.8
				l8.6-9C386.7,279.1,388.5,281.6,389.7,284.4z"/>
			<path class="st117" d="M389.7,284.4l-7.2,7.6c-3,3.3-4.6,7.5-4.6,12v19.9l-6.9-30.1c1.2-2.8,2.8-5.5,4.9-7.8l8.6-9
				C386.7,279.1,388.5,281.6,389.7,284.4L389.7,284.4z"/>
		</g>
		<g>
			<path class="st118" d="M209.8,294.5c-2.4,0-4.4-2-4.4-4.4v-24.6c0-19,15.5-34.4,34.4-34.4h12.5c2.4,0,4.4,2,4.4,4.4
				s-2,4.4-4.4,4.4h-12.5c-14.1,0-25.6,11.5-25.6,25.6V290C214.3,292.5,212.3,294.5,209.8,294.5L209.8,294.5z"/>
		</g>
		<g>
			<path class="st118" d="M341.8,330.3c-2.4,0-4.4-2-4.4-4.4v-60.5c0-14.1-11.5-25.6-25.6-25.6h-7.4c-2.4,0-4.4-2-4.4-4.4
				s2-4.4,4.4-4.4h7.4c19,0,34.4,15.5,34.4,34.4v60.5C346.3,328.3,344.3,330.3,341.8,330.3L341.8,330.3z"/>
		</g>
		<path class="st119" d="M304.4,217.4v36.1h-52.1v-36.1l26.2-5.9l10.8,2.5L304.4,217.4z"/>
		<path class="st120" d="M304.4,217.4v36.1h-10.6v-36.1l3.1-3.4L304.4,217.4z"/>
		<circle class="st121" cx="341.8" cy="331.4" r="12.5"/>
		<path class="st122" d="M354.3,331.4c0,6.9-5.6,12.5-12.5,12.5c-2.1,0-4-0.5-5.8-1.4c4-2.1,6.7-6.2,6.7-11.1c0-4.8-2.7-9-6.7-11.1
			c1.7-0.9,3.7-1.4,5.8-1.4C348.7,319,354.3,324.6,354.3,331.4L354.3,331.4z"/>
		<g>
			<path class="st121" d="M228.2,343.1h-3.6c-2.4,0-4.4-2-4.4-4.4c0-2.4,2-4.4,4.4-4.4h3.6c2.1,0,3.8-1.7,3.8-3.8v-13.8
				c0-12.2-9.9-22.1-22.1-22.1c-12.2,0-22.1,9.9-22.1,22.1v13.8c0,2.1,1.7,3.8,3.8,3.8h3.6c2.4,0,4.4,2,4.4,4.4c0,2.4-2,4.4-4.4,4.4
				h-3.6c-7,0-12.6-5.7-12.6-12.6v-13.8c0-17.1,13.9-31,31-31c17.1,0,31,13.9,31,31v13.8C240.8,337.4,235.2,343.1,228.2,343.1z"/>
		</g>
		<path class="st123" d="M348.6,163.7H208.2v-62.6c0-17.3,14-31.3,31.3-31.3h77.8c17.3,0,31.3,14,31.3,31.3L348.6,163.7L348.6,163.7
			z"/>
		<path class="st124" d="M348.6,101.1v62.6h-14.9v-62.6c0-17.3-14-31.3-31.3-31.3h14.9C334.6,69.8,348.6,83.8,348.6,101.1
			L348.6,101.1z"/>
		<path class="st119" d="M344.5,182.7h-10.8l-8.1-19l8.1-19h10.8c10.5,0,19,8.5,19,19C363.5,174.2,355,182.7,344.5,182.7
			L344.5,182.7z"/>
		<path class="st119" d="M212.2,182.7h10.8l5.4-19l-5.4-19h-10.8c-10.5,0-19,8.5-19,19C193.3,174.2,201.8,182.7,212.2,182.7
			L212.2,182.7z"/>
		<path class="st120" d="M237.9,163.7l-5.4,19h-10.8c-1.4,0-2.8-0.2-4.1-0.4v-37.1c1.3-0.3,2.7-0.4,4.1-0.4h10.8L237.9,163.7z"/>
		<path class="st119" d="M333.7,144.7v46.8c0,14.3-11.6,25.9-25.9,25.9H249c-14.3,0-25.9-11.6-25.9-25.9v-46.8l17.9-32.1
			c1.3-2.3,4.4-2.6,6.1-0.7c17.8,19.9,46.4,18,62.6,0c1.7-1.9,4.8-1.6,6.1,0.7l0.1,0.2L333.7,144.7z"/>
		<path class="st120" d="M333.7,144.7v46.8c0,14.3-11.6,25.9-25.9,25.9h-18c14.3,0,25.9-11.6,25.9-25.9v-46.8l-14.2-25.6
			c3-2,5.8-4.4,8.3-7.2c1.7-1.9,4.8-1.6,6.1,0.7l0.1,0.2L333.7,144.7z"/>
		<path class="st125" d="M293.9,180.9v3.5v6.1c0,6.9-7.1,12.5-16,12.5h0c-8.8,0-16-5.6-16-12.5v-6.4v-3.2H293.9z"/>
		<g>
			<path class="st126" d="M254.4,162.9L254.4,162.9c-2.1,0-3.8-1.7-3.8-3.8v-10.5c0-2.1,1.7-3.8,3.8-3.8h0c2.1,0,3.8,1.7,3.8,3.8
				V159C258.3,161.2,256.6,162.9,254.4,162.9z"/>
			<path class="st126" d="M301.4,162.9L301.4,162.9c-2.1,0-3.8-1.7-3.8-3.8v-10.5c0-2.1,1.7-3.8,3.8-3.8l0,0c2.1,0,3.8,1.7,3.8,3.8
				V159C305.3,161.2,303.5,162.9,301.4,162.9z"/>
		</g>
	</g>
</g>
</svg>
