<svg width="404" height="184" viewBox="0 0 404 184" fill="none" xmlns="http://www.w3.org/2000/svg">
<circle cx="136.387" cy="96.9965" r="85.8208" fill="#25C9EF" stroke="#25C9EF"/>
<path d="M396.211 15.5502C392.413 15.5502 389.305 18.614 389.305 22.3586C389.305 24.6564 390.427 26.6989 392.24 27.8904C392.499 27.9755 392.672 28.1457 392.931 28.3159C393.88 28.8266 395.002 29.167 396.211 29.167C400.009 29.167 403.117 26.1032 403.117 22.3586C403.117 18.614 400.009 15.5502 396.211 15.5502ZM351.324 8.7418C347.526 8.7418 344.418 11.8056 344.418 15.5502C344.418 19.2948 347.526 22.3586 351.324 22.3586C355.122 22.3586 358.23 19.2948 358.23 15.5502C358.23 11.8056 355.122 8.7418 351.324 8.7418ZM361.769 25.7628C359.87 25.7628 358.316 27.2947 358.316 29.167C358.316 31.0393 359.87 32.5712 361.769 32.5712C363.668 32.5712 365.222 31.0393 365.222 29.167C365.222 27.2947 363.668 25.7628 361.769 25.7628ZM396.556 43.5497C396.556 49.6773 391.55 54.6985 385.248 54.6985C379.033 54.6985 373.94 49.6773 373.94 43.5497C373.94 41.8476 374.372 40.2306 375.062 38.6987C375.149 38.6136 375.149 38.5285 375.235 38.4434C376.184 36.7413 376.702 34.7839 376.702 32.6563C376.702 27.4649 373.509 23.0394 368.847 21.1671H368.761C368.675 21.1671 368.675 21.1671 368.588 21.082C368.502 21.082 368.416 20.9969 368.329 20.9969C368.329 20.9969 368.243 20.9969 368.243 20.9118H368.157C364.272 19.2948 361.596 15.4651 361.596 11.0396C361.596 6.52907 364.445 2.69935 368.416 1.08235C369.71 0.571721 371.092 0.316406 372.559 0.316406C374.026 0.316406 375.408 0.571721 376.702 1.08235C380.673 2.69935 383.522 6.52907 383.522 11.0396C383.522 12.5715 383.176 14.0183 382.572 15.38V15.4651C382.572 15.4651 382.572 15.5502 382.486 15.5502C382.4 15.7204 382.313 15.9757 382.141 16.1459C381.364 17.7629 381.018 19.465 381.018 21.3373C381.018 26.6989 384.471 31.2946 389.305 33.0818C389.392 33.0818 389.392 33.0818 389.478 33.1669C393.621 34.7839 396.556 38.869 396.556 43.5497Z" fill="#217FEF"/>
<circle cx="277.965" cy="96.9965" r="85.8208" fill="#217FEF" stroke="#217FEF"/>
<path d="M251.437 98.4069C251.837 96.9189 251.837 95.7189 251.837 94.5669V93.3509H241.917V94.6789H250.205C250.205 95.7669 250.189 96.8069 249.821 98.2309L251.437 98.4069ZM246.877 105.847C244.733 105.847 243.421 105.319 243.421 104.407C243.421 103.511 244.733 102.983 246.877 102.983C249.005 102.983 250.285 103.511 250.285 104.407C250.285 105.319 249.005 105.847 246.877 105.847ZM246.877 101.719C243.757 101.719 241.789 102.743 241.789 104.407C241.789 106.087 243.757 107.111 246.877 107.111C249.949 107.111 251.933 106.087 251.933 104.407C251.933 102.743 249.949 101.719 246.877 101.719ZM247.197 99.2709V96.6149H245.533V99.2709H240.413V100.599H253.437V99.2709H247.197ZM266.156 98.4069C266.556 96.9189 266.556 95.7189 266.556 94.5669V93.3509H256.636V94.6789H264.924C264.924 95.7669 264.908 96.8069 264.54 98.2309L266.156 98.4069ZM261.596 105.847C259.452 105.847 258.14 105.319 258.14 104.407C258.14 103.511 259.452 102.983 261.596 102.983C263.724 102.983 265.004 103.511 265.004 104.407C265.004 105.319 263.724 105.847 261.596 105.847ZM261.596 101.719C258.476 101.719 256.508 102.743 256.508 104.407C256.508 106.087 258.476 107.111 261.596 107.111C264.668 107.111 266.652 106.087 266.652 104.407C266.652 102.743 264.668 101.719 261.596 101.719ZM261.916 99.2709V96.6149H260.252V99.2709H255.132V100.599H268.156V99.2709H261.916ZM271.947 95.7029H275.787V94.3589H270.315V103.751H271.291C273.499 103.751 274.907 103.671 276.539 103.351L276.395 101.991C274.971 102.295 273.739 102.375 271.947 102.391V95.7029ZM277.643 98.0709H274.795V99.4149H277.643V106.423H279.195V92.9669H277.643V98.0709ZM280.587 92.6469V107.095H282.171V92.6469H280.587ZM294.777 92.6469V107.143H296.441V92.6469H294.777ZM288.745 93.7189C286.601 93.7189 285.033 95.7029 285.033 98.8069C285.033 101.943 286.601 103.911 288.745 103.911C290.905 103.911 292.473 101.943 292.473 98.8069C292.473 95.7029 290.905 93.7189 288.745 93.7189ZM288.745 95.2069C290.009 95.2069 290.889 96.5669 290.889 98.8069C290.889 101.079 290.009 102.439 288.745 102.439C287.497 102.439 286.617 101.079 286.617 98.8069C286.617 96.5669 287.497 95.2069 288.745 95.2069ZM301.56 99.2869H306.024V97.9749H301.56V95.2709H306.616V93.9109H299.912V103.751H301.048C303.672 103.751 305.48 103.687 307.544 103.319L307.4 101.991C305.512 102.311 303.864 102.391 301.56 102.407V99.2869ZM309.608 92.6309V97.9429H306.84V99.3029H309.608V107.127H311.272V92.6309H309.608Z" fill="white"/>
<path d="M111.567 92.6789H109.919V102.999H111.567V92.6789ZM105.647 99.3829H102.015V95.1909H105.647V99.3829ZM107.247 93.8629H100.399V100.711H107.247V93.8629ZM103.791 105.383V102.055H102.127V106.711H111.983V105.383H103.791ZM114.942 93.7669V95.1109H119.982C119.694 97.3989 117.646 99.2709 114.334 100.279L115.022 101.591C119.23 100.311 121.774 97.5909 121.774 93.7669H114.942ZM118.158 102.071H116.494V106.839H126.222V105.495H118.158V102.071ZM125.646 96.8869V92.6629H123.998V103.127H125.646V98.2469H127.71V96.8869H125.646ZM131.212 95.7029H135.052V94.3589H129.58V103.751H130.556C132.764 103.751 134.172 103.671 135.804 103.351L135.66 101.991C134.236 102.295 133.004 102.375 131.212 102.391V95.7029ZM136.908 98.0709H134.06V99.4149H136.908V106.423H138.46V92.9669H136.908V98.0709ZM139.852 92.6469V107.095H141.436V92.6469H139.852ZM154.043 92.6469V107.143H155.707V92.6469H154.043ZM148.011 93.7189C145.867 93.7189 144.299 95.7029 144.299 98.8069C144.299 101.943 145.867 103.911 148.011 103.911C150.171 103.911 151.739 101.943 151.739 98.8069C151.739 95.7029 150.171 93.7189 148.011 93.7189ZM148.011 95.2069C149.275 95.2069 150.155 96.5669 150.155 98.8069C150.155 101.079 149.275 102.439 148.011 102.439C146.763 102.439 145.883 101.079 145.883 98.8069C145.883 96.5669 146.763 95.2069 148.011 95.2069ZM160.826 99.2869H165.29V97.9749H160.826V95.2709H165.882V93.9109H159.178V103.751H160.314C162.938 103.751 164.746 103.687 166.81 103.319L166.666 101.991C164.778 102.311 163.13 102.391 160.826 102.407V99.2869ZM168.874 92.6309V97.9429H166.106V99.3029H168.874V107.127H170.538V92.6309H168.874Z" fill="white"/>
<circle cx="15.4921" cy="121.273" r="15.4921" fill="#25C9EF"/>
<circle cx="42.4557" cy="136.76" r="6.88536" fill="#25C9EF"/>
</svg>
