<?xml version="1.0" encoding="utf-8"?>
<!-- Generator: Adobe Illustrator 26.0.0, SVG Export Plug-In . SVG Version: 6.00 Build 0)  -->
<svg version="1.1" id="Layer_1" xmlns="http://www.w3.org/2000/svg" xmlns:xlink="http://www.w3.org/1999/xlink" x="0px" y="0px"
	 viewBox="0 0 497.4 324.2" style="enable-background:new 0 0 497.4 324.2;" xml:space="preserve">
<style type="text/css">
	.st0{fill:#3F4746;}
	.st1{enable-background:new    ;}
	.st2{fill:#FFFFFF;}
	.st3{fill:#24B6BC;}
	.st4{fill:#2773E2;}
	.st5{fill:#4694F2;}
	.st6{fill:#A7D0FC;}
	.st7{fill:#C8E2FD;}
	.st8{fill:#86BEFB;}
	.st9{fill:#E9F3FE;}
	.st10{fill:#00C1B3;}
	.st11{fill:#14DBC7;}
	.st12{fill:#C8D2DC;}
	.st13{fill:#DCE6EB;}
	.st14{fill:#7E8B96;}
	.st15{fill:#1D2827;}
	.st16{fill:#2E3A39;}
	.st17{fill:#F7B62D;}
</style>
<g>
	<path class="st0" d="M328.3,217.8h129c3.4,0,6.2,2.8,6.2,6.2v38c0,3.4-2.8,6.2-6.2,6.2h-129c-3.4,0-6.2-2.8-6.2-6.2v-38
		C322.1,220.6,324.9,217.8,328.3,217.8z"/>
	<polygon class="st0" points="407.8,222.1 392.8,207.1 392.8,223.5 	"/>
	<g class="st1">
		<path class="st2" d="M373.9,231.6h2.1v1h-5.5v-1h2.1V230h1.3V231.6z M375.7,235.9c0,1.5-1,2.6-2.4,2.6c-1.4,0-2.4-1.1-2.4-2.6
			c0-1.6,1-2.6,2.4-2.6C374.7,233.2,375.7,234.3,375.7,235.9z M374.6,235.9c0-0.9-0.5-1.6-1.3-1.6c-0.8,0-1.3,0.6-1.3,1.6
			s0.5,1.5,1.3,1.5C374.1,237.4,374.6,236.8,374.6,235.9z M380.2,229.7V241h-1.2v-5.5h-1.2v5h-1.2V230h1.2v4.4h1.2v-4.7H380.2z"/>
		<path class="st2" d="M386.3,237.5c1-0.1,2-0.1,3-0.3l0.1,0.9c-2.5,0.5-5.2,0.5-7.2,0.5l-0.2-1.1c0.9,0,1.9,0,2.9,0v-1.8
			c-1.4-0.2-2.4-1.3-2.4-2.7c0-1.6,1.3-2.7,3.1-2.7s3.1,1.1,3.1,2.7c0,1.4-1,2.4-2.4,2.7V237.5z M385.7,234.7c1,0,1.8-0.6,1.8-1.6
			c0-1-0.8-1.6-1.8-1.6c-1,0-1.8,0.6-1.8,1.6C383.9,234.1,384.6,234.7,385.7,234.7z M391.3,229.7V241H390v-11.3H391.3z"/>
		<path class="st2" d="M397,232.8c0,1.9,0.7,3.9,2.3,4.8l-0.7,0.9c-1.1-0.6-1.8-1.7-2.2-3c-0.4,1.4-1.1,2.6-2.2,3.3l-0.8-1
			c1.6-1,2.3-3,2.3-5V232h-2v-1.1h5.1v1.1H397V232.8z M399.7,229.9h1.2v10.5h-1.2v-5.7H398v-1h1.7V229.9z M403.2,229.7V241h-1.2
			v-11.3H403.2z"/>
		<path class="st2" d="M410.8,236.1v1.1h3.2v3.6h-7.7v-3.6h3.2v-1.1H405v-1h10.2v1H410.8z M407.6,231.1H406v-1h8.4v1h-1.6v2.1h1.5v1
			H406v-1h1.5V231.1z M412.8,238.3h-5.2v1.5h5.2V238.3z M411.4,231.1h-2.6v2.1h2.6V231.1z"/>
		<path class="st2" d="M419.8,236.1c-1.7,0-3-1.2-3-2.8c0-1.7,1.3-2.8,3-2.8s3,1.2,3,2.8C422.8,234.9,421.5,236.1,419.8,236.1z
			 M419.8,235c1,0,1.7-0.7,1.7-1.7c0-1-0.8-1.7-1.7-1.7c-1,0-1.7,0.7-1.7,1.7C418,234.3,418.8,235,419.8,235z M426.2,239.7v1h-7.7
			v-3.7h1.3v2.6H426.2z M425.9,237.9h-1.3v-8.2h1.3V237.9z"/>
		<path class="st2" d="M436.3,232.7c-0.7,1.8-2.4,3.1-4.8,3.8l-0.5-1c2.6-0.7,4.1-2.1,4.3-3.9h-3.8v-1h5.1c0,0.4,0,0.8-0.1,1.1h2.3
			v-1.9h1.3v6.6h-1.3v-1.3h-2.7v-1h2.7v-1.3H436.3z M440.3,238.7c0,1.4-1.5,2.2-3.8,2.2c-2.3,0-3.8-0.8-3.8-2.2
			c0-1.4,1.5-2.2,3.8-2.2C438.8,236.5,440.3,237.3,440.3,238.7z M439,238.7c0-0.8-1-1.2-2.5-1.2c-1.5,0-2.5,0.4-2.5,1.2
			c0,0.8,1,1.2,2.5,1.2C438.1,239.9,439,239.5,439,238.7z"/>
		<path class="st2" d="M452.6,237.2h-4.5v3.8h-1.3v-3.8h-4.4v-1.1h10.2V237.2z M443.5,232.6c0-1.5,1.6-2.5,4-2.5c2.4,0,4,1,4,2.5
			c0,1.5-1.6,2.5-4,2.5C445.1,235.1,443.5,234.2,443.5,232.6z M444.8,232.6c0,0.9,1.1,1.5,2.7,1.5c1.6,0,2.7-0.5,2.7-1.5
			c0-0.9-1.1-1.5-2.7-1.5C445.8,231.2,444.8,231.7,444.8,232.6z"/>
	</g>
	<g class="st1">
		<path class="st3" d="M340.9,250h-6.7v-1h2.7v-1.3h1.3v1.3h2.7V250z M337.6,254.8c-1.6,0-2.7-0.8-2.7-2.1c0-1.3,1.1-2.1,2.7-2.1
			c1.6,0,2.7,0.9,2.7,2.1C340.3,254,339.2,254.8,337.6,254.8z M337.2,257.7h6.3v1h-7.6v-3.3h1.3V257.7z M337.6,253.8
			c0.9,0,1.5-0.4,1.5-1.1s-0.6-1.1-1.5-1.1c-0.9,0-1.5,0.4-1.5,1.1S336.7,253.8,337.6,253.8z M344.7,251.3v1.1h-1.6v3.8h-1.3v-8.5
			h1.3v3.6H344.7z"/>
		<path class="st3" d="M356,251.8v1h-10.2v-1h7.4c0.2-1.1,0.3-1.9,0.3-2.6H347v-1h7.7v0.8c0,0.7,0,1.7-0.2,2.9H356z M348.2,257.9
			h6.8v1h-8v-3h6.5v-1h-6.5v-1h7.8v3h-6.5V257.9z"/>
		<path class="st3" d="M367.5,256.6v1.1h-10.2v-1.1h2.7v-2.4h-1.8v-1h1.6v-3.4h-1.7v-1h8.5v1h-1.7v3.4h1.6v1h-1.8v2.4H367.5z
			 M361,253.2h2.6v-3.4H361V253.2z M361.2,256.6h2.2v-2.4h-2.2V256.6z"/>
		<path class="st3" d="M372.9,250.5c0,2.1,1.2,4.1,2.9,4.9l-0.8,1c-1.3-0.6-2.3-1.9-2.8-3.4c-0.5,1.6-1.5,3-2.9,3.6l-0.8-1.1
			c1.8-0.8,3-3,3-5.1v-1.8h1.3V250.5z M378,247.7V259h-1.3v-11.3H378z"/>
		<path class="st3" d="M384.2,250.5c0,2,1,4,2.7,4.9l-0.8,1c-1.2-0.6-2.1-1.8-2.6-3.3c-0.5,1.6-1.4,2.9-2.7,3.5l-0.8-1
			c1.8-0.9,2.9-3,2.9-5.1v-1.8h1.3V250.5z M390.8,253.3H389v5.7h-1.3v-11.3h1.3v4.5h1.8V253.3z"/>
		<path class="st3" d="M398.4,249.9h-6.7v-1h2.7v-1.3h1.3v1.3h2.7V249.9z M395.1,254.4c-1.6,0-2.7-0.8-2.7-2c0-1.2,1.1-2,2.7-2
			c1.6,0,2.7,0.8,2.7,2C397.8,253.6,396.7,254.4,395.1,254.4z M400.7,257c0,1.2-1.4,2-3.7,2c-2.3,0-3.7-0.7-3.7-2c0-1.2,1.4-2,3.7-2
			C399.3,255,400.7,255.8,400.7,257z M395.1,253.5c0.9,0,1.5-0.4,1.5-1c0-0.7-0.6-1.1-1.5-1.1c-0.9,0-1.5,0.4-1.5,1.1
			C393.6,253.1,394.2,253.5,395.1,253.5z M399.4,257c0-0.7-0.9-1-2.4-1s-2.4,0.3-2.4,1c0,0.7,0.9,1,2.4,1S399.4,257.7,399.4,257z
			 M402.2,250.7v1.1h-1.6v3.1h-1.3v-7.2h1.3v3H402.2z"/>
	</g>
	<g class="st1">
		<path class="st2" d="M412,256.6v1.1h-10.2v-1.1h4.4v-2.7H403v-5.4h7.7v1h-6.4v3.3h6.5v1h-3.3v2.7H412z"/>
		<path class="st2" d="M426.3,253v1h-10.2v-1h4.7v-2.1h1.3v2.1H426.3z M418.6,252c0.4-1.2,0.5-2.1,0.5-2.7h-2.2v-1h3.5v0.4
			c0,0.7,0,1.9-0.5,3.5L418.6,252z M417.2,255.1h7.8v3.9h-1.3v-2.8h-6.5V255.1z M423.6,252c0.3-1.2,0.3-2.1,0.3-2.8h-2.7v-1h3.9v0.6
			c0,0.7,0,1.9-0.4,3.4L423.6,252z"/>
		<path class="st2" d="M437.4,254.6c-2.4,0.4-5,0.4-7,0.4l-0.1-1c0.8,0,1.8,0,2.9,0v-0.7c-1.3-0.1-2-0.7-2-1.6c0-1,1.1-1.7,2.7-1.7
			c1.6,0,2.7,0.6,2.7,1.7c0,0.9-0.8,1.5-2,1.6v0.7c1,0,2-0.1,2.9-0.2L437.4,254.6z M437,249.6h-6.4v-0.9h2.6v-1h1.3v1h2.6V249.6z
			 M431.7,255.9h7.5v3.2h-1.3v-2.1h-6.2V255.9z M433.8,252.4c0.9,0,1.5-0.3,1.5-0.8c0-0.5-0.6-0.8-1.5-0.8c-0.9,0-1.5,0.3-1.5,0.8
			C432.3,252.1,432.9,252.4,433.8,252.4z M440.8,252.1h-1.5v3.2h-1.3v-7.6h1.3v3.3h1.5V252.1z"/>
		<path class="st2" d="M445.1,254.1c-1.7,0-3-1.2-3-2.8c0-1.7,1.3-2.8,3-2.8c1.7,0,3,1.2,3,2.8C448.1,252.9,446.8,254.1,445.1,254.1
			z M445.1,253c1,0,1.7-0.7,1.7-1.7c0-1-0.7-1.7-1.7-1.7c-1,0-1.7,0.7-1.7,1.7C443.4,252.3,444.1,253,445.1,253z M451.5,257.7v1
			h-7.7v-3.7h1.3v2.6H451.5z M451.2,255.9h-1.3v-8.2h1.3V255.9z"/>
	</g>
	<g>
		<path class="st4" d="M358.3,180.5v46.7c0,7.7-6.2,13.9-13.9,13.9H226.7c-7.7,0-13.9-6.2-13.9-13.9V98.7c0-7.7,6.2-13.9,13.9-13.9
			h6.5c3.8,0,6.9-3.1,6.9-6.9V56.2h71.6v110.4h32.8C352.1,166.6,358.3,172.8,358.3,180.5z"/>
		<path class="st5" d="M354.1,109.8v52.6c0,0,3.8,14.7,3.1,17.4c-3.7,13.9-16.4,24.2-31.5,24.2c-18,0-71.8,7.7-71.8-32.6V56.2H331
			v21.7c0,3.8,3.1,6.9,6.9,6.9h6.5c7.7,0,13.9,6.2,13.9,13.9v3.7L354.1,109.8z"/>
		<g>
			<path class="st6" d="M327.9,35.9V59c0,2.6-2.1,4.6-4.6,4.6h-85.7c-2.6,0-4.6-2.1-4.6-4.6V35.9c0-2.6,2.1-4.6,4.6-4.6h85.7
				C338.9,31.3,327.9,33.3,327.9,35.9z"/>
			<path class="st7" d="M337.1,35.9V59c0,2.6-2.1,4.6-4.6,4.6h-80.8c-2.6,0-4.6-2.1-4.6-4.6V35.9c0-2.6,2.1-4.6,4.6-4.6h80.8
				C335.1,31.3,337.1,33.3,337.1,35.9z"/>
			<g>
				<path class="st8" d="M262.5,38.2v18.5c0,1.3-1,2.3-2.3,2.3s-2.3-1-2.3-2.3V38.2c0-1.3,1-2.3,2.3-2.3S262.5,36.9,262.5,38.2z"/>
				<path class="st8" d="M250.3,35.9c-1.3,0-2.3,1-2.3,2.3v18.5c0,1.3,1,2.3,2.3,2.3s2.3-1,2.3-2.3V38.2
					C252.6,36.9,251.6,35.9,250.3,35.9z"/>
				<path class="st8" d="M280.1,35.9c-1.3,0-2.3,1-2.3,2.3v18.5c0,1.3,1,2.3,2.3,2.3s2.3-1,2.3-2.3V38.2
					C282.4,36.9,281.4,35.9,280.1,35.9z"/>
				<path class="st8" d="M240.4,35.9c-1.3,0-2.3,1-2.3,2.3v18.5c0,1.3,1,2.3,2.3,2.3s2.3-1,2.3-2.3V38.2
					C242.7,36.9,241.6,35.9,240.4,35.9z"/>
				<path class="st8" d="M329.7,35.9c-1.3,0-2.3,1-2.3,2.3v18.5c0,1.3,1,2.3,2.3,2.3s2.3-1,2.3-2.3V38.2
					C332.1,36.9,331,35.9,329.7,35.9z"/>
				<path class="st8" d="M319.8,35.9c-1.3,0-2.3,1-2.3,2.3v18.5c0,1.3,1,2.3,2.3,2.3s2.3-1,2.3-2.3V38.2
					C322.1,36.9,321.1,35.9,319.8,35.9z"/>
				<path class="st8" d="M270.2,35.9c-1.3,0-2.3,1-2.3,2.3v18.5c0,1.3,1,2.3,2.3,2.3s2.3-1,2.3-2.3V38.2
					C272.5,36.9,271.4,35.9,270.2,35.9z"/>
				<path class="st8" d="M292.3,38.2v18.5c0,1.3-1,2.3-2.3,2.3s-2.3-1-2.3-2.3V38.2c0-1.3,1-2.3,2.3-2.3S292.3,36.9,292.3,38.2z"/>
				<path class="st8" d="M309.9,35.9c-1.3,0-2.3,1-2.3,2.3v18.5c0,1.3,1,2.3,2.3,2.3s2.3-1,2.3-2.3V38.2
					C312.2,36.9,311.2,35.9,309.9,35.9z"/>
				<path class="st8" d="M300,35.9c-1.3,0-2.3,1-2.3,2.3v18.5c0,1.3,1,2.3,2.3,2.3s2.3-1,2.3-2.3V38.2
					C302.3,36.9,301.2,35.9,300,35.9z"/>
			</g>
		</g>
		<path class="st9" d="M358.3,102.4V181H212.8v-78.5L358.3,102.4L358.3,102.4z"/>
		<path class="st6" d="M226.3,151.4c0-1.3,1-2.3,2.3-2.3h18.5c1.3,0,2.3,1,2.3,2.3s-1,2.3-2.3,2.3h-18.5
			C227.4,153.7,226.3,152.7,226.3,151.4z M247.1,158.3h-18.5c-1.3,0-2.3,1-2.3,2.3s1,2.3,2.3,2.3h18.5c1.3,0,2.3-1,2.3-2.3
			C249.4,159.4,248.4,158.3,247.1,158.3z M247.1,167.6h-18.5c-1.3,0-2.3,1-2.3,2.3s1,2.3,2.3,2.3h18.5c1.3,0,2.3-1,2.3-2.3
			S248.4,167.6,247.1,167.6z"/>
	</g>
	<path class="st0" d="M184.8,94.4H44.1c-3.4,0-6.2-2.8-6.2-6.2v-38c0-3.4,2.8-6.2,6.2-6.2h140.7c3.4,0,6.2,2.8,6.2,6.2v38
		C190.9,91.6,188.2,94.4,184.8,94.4z"/>
	<polygon class="st0" points="76.1,90.1 91.1,105.2 91.1,88.7 	"/>
	<path class="st10" d="M231.7,203.3v41.2c0,6.8-5.5,12.2-12.2,12.2h-69.3c-6.8,0-12.2-5.5-12.2-12.2V131.1c0-6.8,5.5-12.2,12.2-12.2
		h5.7c3.4,0,6.1-2.7,6.1-6.1V93.6h28.5V191h28.9C226.2,191,231.7,196.5,231.7,203.3z"/>
	<path class="st11" d="M228,140.9v46.4c0,0,3.3,13,2.7,15.4C227.5,215,216.3,224,203,224c-15.9,0-28.7-12.9-28.7-28.7V93.6h33.4
		v19.2c0,3.4,2.7,6.1,6.1,6.1h5.7c6.8,0,12.2,5.5,12.2,12.2v3.3L228,140.9z"/>
	<path class="st6" d="M203.6,85.4v20.4c0,2.3-1.8,4.1-4.1,4.1H162c-2.3,0-4.1-1.8-4.1-4.1V85.4c0-2.3,1.8-4.1,4.1-4.1h37.5
		C201.8,81.4,203.6,83.2,203.6,85.4z"/>
	<path class="st7" d="M211.7,85.4v20.4c0,2.3-1.8,4.1-4.1,4.1h-37.5c-2.3,0-4.1-1.8-4.1-4.1V85.4c0-2.3,1.8-4.1,4.1-4.1h37.5
		C209.9,81.4,211.7,83.2,211.7,85.4z"/>
	<path class="st8" d="M182.8,87.5v16.3c0,1.1-0.9,2-2,2s-2-0.9-2-2V87.5c0-1.1,0.9-2,2-2S182.8,86.4,182.8,87.5z M172.6,85.4
		c-1.1,0-2,0.9-2,2v16.3c0,1.1,0.9,2,2,2s2-0.9,2-2V87.5C174.6,86.4,173.7,85.4,172.6,85.4z M164.4,85.4c-1.1,0-2,0.9-2,2v16.3
		c0,1.1,0.9,2,2,2s2-0.9,2-2V87.5C166.5,86.4,165.6,85.4,164.4,85.4z M205.2,85.4c-1.1,0-2,0.9-2,2v16.3c0,1.1,0.9,2,2,2s2-0.9,2-2
		V87.5C207.2,86.4,206.3,85.4,205.2,85.4z M197.1,85.4c-1.1,0-2,0.9-2,2v16.3c0,1.1,0.9,2,2,2s2-0.9,2-2V87.5
		C199.1,86.4,198.2,85.4,197.1,85.4z M188.9,85.4c-1.1,0-2,0.9-2,2v16.3c0,1.1,0.9,2,2,2s2-0.9,2-2V87.5
		C190.9,86.4,190,85.4,188.9,85.4z"/>
	<path class="st7" d="M228,140.5v57.1c0,3.4-2.7,6.1-6.1,6.1h-44.8c-3.4,0-6.1-2.7-6.1-6.1v-57.1c0-3.4,2.7-6.1,6.1-6.1h44.8
		C225.3,134.4,228,137.1,228,140.5z"/>
	<path class="st9" d="M231.7,134.4v69.3h-41.2c-3.4,0-6.1-2.7-6.1-6.1v-57.1c0-3.4,2.7-6.1,6.1-6.1H231.7z"/>
	<path class="st6" d="M199.5,177.6c0-1.1,0.9-2,2-2h16.3c1.1,0,2,0.9,2,2s-0.9,2-2,2h-16.3C200.4,179.6,199.5,178.7,199.5,177.6z
		 M217.8,183.7h-16.3c-1.1,0-2,0.9-2,2s0.9,2,2,2h16.3c1.1,0,2-0.9,2-2C219.9,184.6,219,183.7,217.8,183.7z M217.8,191.8h-16.3
		c-1.1,0-2,0.9-2,2s0.9,2,2,2h16.3c1.1,0,2-0.9,2-2S219,191.8,217.8,191.8z"/>
	<g>
		<path class="st12" d="M73,277.1l-9.9-9.9l54.6-54.6l9.9,9.9L73,277.1z"/>
		<path class="st13" d="M189.3,151c27.2,27.2,27.2,71.4,0,98.7s-71.4,27.2-98.7,0s-27.2-71.4,0-98.7S162,123.8,189.3,151L189.3,151z
			"/>
		<path class="st14" d="M182.1,158.2c23.3,23.3,23.3,61.1,0,84.4s-61.1,23.3-84.4,0s-23.3-61.1,0-84.4S158.8,134.9,182.1,158.2z"/>
		<path class="st15" d="M82.7,262.5c2,2,2,5.4,0,7.4l-17,17c-4.5-3.7-8.6-7.8-12.3-12.3l17-17c2-2,5.4-2,7.4,0L82.7,262.5z"/>
		<path class="st16" d="M42,304.2l-5.6-5.6c-3-3-3-7.9,0-10.9L62,262.1c0.2-0.2,0.6-0.2,0.8,0l15.7,15.7c0.2,0.2,0.2,0.6,0,0.8
			l-25.6,25.6C49.9,307.2,45,307.2,42,304.2z"/>
		<g>
			<circle class="st2" cx="139.7" cy="200" r="57.4"/>
			<circle class="st2" cx="139.7" cy="200" r="60.2"/>
			<g>
				<g>
					<g>
						<g>
							<path class="st3" d="M136.3,181.2v-6h-3.8c-0.2,0.6-0.5,1.1-0.9,1.6s-0.9,0.9-1.5,1.2s-1.2,0.6-1.8,0.9s-1.3,0.4-1.9,0.6
								l-1-1.2c0.7-0.2,1.4-0.4,2.1-0.7c0.7-0.2,1.3-0.5,1.8-0.9c0.5-0.3,0.9-0.7,1.2-1.2s0.5-1,0.5-1.7v-1c0-0.4-0.1-0.7-0.2-0.9
								c-0.1-0.2-0.4-0.3-0.8-0.3h-4v-1.5h4.3c0.4,0,0.8,0,1.1,0.1s0.6,0.2,0.7,0.4c0.2,0.2,0.3,0.4,0.4,0.7
								c0.1,0.3,0.1,0.7,0.1,1.1v1.1h3.6v-4h1.8v10.6c0,0.4,0,0.6-0.1,0.8c-0.1,0.1-0.3,0.2-0.6,0.2L136.3,181.2L136.3,181.2z
								 M129.7,185.5c-0.4,0-0.7-0.1-1-0.4c-0.2-0.2-0.4-0.6-0.4-1v-4h1.8v3.5c0,0.2,0.1,0.3,0.2,0.3h8.1v0.8c0,0.2-0.1,0.4-0.2,0.5
								c-0.1,0.1-0.3,0.2-0.5,0.2L129.7,185.5L129.7,185.5z"/>
							<path class="st3" d="M137.8,185.7h-8c-0.5,0-0.8-0.1-1.1-0.4c-0.3-0.3-0.4-0.6-0.4-1.1V180h2.1v3.7c0,0.1,0,0.2,0,0.2h8.3v1
								c0,0.3-0.1,0.5-0.2,0.6C138.3,185.6,138,185.7,137.8,185.7z M128.6,180.3v3.9c0,0.4,0.1,0.6,0.3,0.8s0.5,0.3,0.9,0.3h8
								c0.2,0,0.3,0,0.4-0.1c0.1-0.1,0.1-0.2,0.1-0.4v-0.7h-7.9c-0.1,0-0.4,0-0.4-0.5v-3.4L128.6,180.3L128.6,180.3z M137.3,181.3
								h-1.1v-6h-3.6c-0.2,0.6-0.5,1.1-0.9,1.5c-0.4,0.5-0.9,0.9-1.5,1.2s-1.2,0.6-1.8,0.9c-0.6,0.2-1.3,0.4-1.9,0.6h-0.1l-1.2-1.5
								l0.2-0.1c0.7-0.2,1.4-0.4,2.1-0.7c0.7-0.2,1.2-0.5,1.8-0.9c0.5-0.3,0.9-0.7,1.2-1.2c0.3-0.4,0.4-1,0.4-1.6v-1
								c0-0.5-0.1-0.7-0.1-0.8c-0.1-0.1-0.3-0.2-0.7-0.2h-4.2V170h4.5c0.4,0,0.8,0,1.1,0.1s0.6,0.2,0.8,0.4s0.4,0.5,0.5,0.8
								s0.1,0.7,0.1,1.2v1h3.3v-4h2.1v10.7c0,0.4-0.1,0.7-0.2,0.8C137.9,181.2,137.7,181.3,137.3,181.3z M136.5,181h0.8
								c0.3,0,0.4-0.1,0.5-0.1c0.1-0.1,0.1-0.3,0.1-0.7v-10.4h-1.4v4h-3.9v-1.3c0-0.4,0-0.8-0.1-1.1s-0.2-0.5-0.4-0.6
								c-0.2-0.2-0.4-0.3-0.7-0.3c-0.3-0.1-0.7-0.1-1.1-0.1h-4.2v1.2h3.8c0.5,0,0.8,0.1,1,0.3c0.1,0.2,0.2,0.5,0.2,1v1
								c0,0.7-0.2,1.3-0.5,1.8s-0.8,0.9-1.3,1.3c-0.5,0.3-1.1,0.6-1.8,0.9c-0.6,0.2-1.2,0.4-1.9,0.6l0.8,0.9
								c0.6-0.2,1.2-0.4,1.8-0.6c0.6-0.2,1.2-0.5,1.8-0.8c0.5-0.3,1-0.7,1.4-1.2c0.4-0.4,0.7-1,0.9-1.5v-0.1h4.1L136.5,181
								L136.5,181z"/>
						</g>
						<g>
							<path class="st3" d="M146.6,173.3c0,0.8-0.2,1.5-0.5,2.2c-0.3,0.6-0.8,1.1-1.4,1.6c-0.6,0.4-1.2,0.8-2,1.1s-1.6,0.6-2.4,0.8
								l-1-1.2c0.7-0.2,1.4-0.4,2-0.6c0.7-0.2,1.2-0.5,1.8-0.9c0.5-0.3,0.9-0.7,1.2-1.2s0.5-1,0.5-1.7v-0.6c0-0.4-0.1-0.7-0.2-0.9
								c-0.1-0.2-0.4-0.3-0.8-0.3h-4v-1.5h4.3c0.4,0,0.8,0,1.1,0.1s0.6,0.2,0.8,0.4s0.3,0.4,0.4,0.7c0.1,0.3,0.1,0.7,0.1,1.1
								L146.6,173.3L146.6,173.3z M141.8,182.5c0-0.7,0.2-1.3,0.5-1.7s0.8-0.8,1.3-1c0.5-0.3,1-0.4,1.6-0.5s1.1-0.1,1.6-0.1
								s1,0,1.6,0.1s1.1,0.3,1.6,0.5c0.5,0.3,0.9,0.6,1.2,1s0.5,1,0.5,1.7s-0.2,1.3-0.5,1.7s-0.7,0.8-1.2,1s-1,0.4-1.6,0.5
								s-1.1,0.1-1.6,0.1s-1.1,0-1.7-0.1c-0.6-0.1-1.1-0.3-1.6-0.5s-0.9-0.6-1.2-1C142,183.8,141.8,183.2,141.8,182.5z M143.6,182.5
								c0,0.4,0.1,0.7,0.3,1c0.2,0.2,0.5,0.4,0.8,0.6c0.3,0.1,0.7,0.2,1.1,0.3c0.4,0,0.7,0.1,1,0.1s0.6,0,1-0.1c0.4,0,0.7-0.1,1-0.3
								c0.3-0.1,0.6-0.3,0.8-0.6c0.2-0.2,0.3-0.6,0.3-1s-0.1-0.7-0.3-1s-0.5-0.4-0.8-0.6c-0.3-0.1-0.7-0.2-1-0.3
								c-0.4-0.1-0.7-0.1-1-0.1s-0.6,0-1,0.1s-0.7,0.1-1.1,0.3c-0.3,0.1-0.6,0.3-0.8,0.6C143.7,181.8,143.6,182.1,143.6,182.5z
								 M149.8,178.8v-9.2h1.8v3.4h2.2v1.5h-2.2v3.3c0,0.3-0.1,0.6-0.2,0.7c-0.1,0.1-0.3,0.2-0.6,0.2h-1V178.8z"/>
							<path class="st3" d="M146.8,186c-0.5,0-1.1,0-1.7-0.1c-0.6-0.1-1.2-0.3-1.7-0.5s-0.9-0.6-1.3-1.1c-0.3-0.5-0.5-1.1-0.5-1.8
								s0.2-1.3,0.5-1.8c0.4-0.5,0.8-0.8,1.3-1.1s1.1-0.4,1.7-0.5c0.6-0.1,1.1-0.1,1.6-0.1s1.1,0,1.6,0.1c0.6,0.1,1.1,0.3,1.6,0.5
								c0.5,0.3,0.9,0.6,1.3,1.1c0.3,0.5,0.5,1.1,0.5,1.8s-0.2,1.3-0.5,1.8s-0.8,0.8-1.3,1.1s-1,0.4-1.6,0.5
								C147.9,186,147.4,186,146.8,186z M146.8,179.3c-0.5,0-1,0-1.6,0.1s-1.1,0.3-1.6,0.5s-0.9,0.6-1.2,1s-0.5,0.9-0.5,1.6
								c0,0.7,0.2,1.2,0.5,1.6c0.3,0.4,0.7,0.7,1.2,1c0.5,0.2,1,0.4,1.6,0.5s1.1,0.1,1.6,0.1s1,0,1.6-0.1s1.1-0.2,1.5-0.5
								c0.5-0.2,0.8-0.6,1.2-1c0.3-0.4,0.5-0.9,0.5-1.6c0-0.7-0.2-1.2-0.5-1.6c-0.3-0.4-0.7-0.8-1.2-1s-1-0.4-1.5-0.5
								C147.9,179.3,147.3,179.3,146.8,179.3z M146.8,184.5c-0.3,0-0.6,0-1-0.1c-0.4,0-0.8-0.1-1.1-0.3c-0.3-0.1-0.6-0.3-0.9-0.6
								c-0.3-0.3-0.4-0.6-0.4-1.1c0-0.4,0.1-0.8,0.4-1.1c0.2-0.3,0.5-0.5,0.9-0.6c0.3-0.1,0.7-0.2,1.1-0.3c0.4-0.1,0.7-0.1,1-0.1
								s0.6,0,1,0.1s0.7,0.2,1.1,0.3c0.3,0.1,0.6,0.4,0.9,0.6c0.3,0.3,0.4,0.6,0.4,1.1s-0.1,0.8-0.4,1.1c-0.2,0.3-0.5,0.5-0.9,0.6
								c-0.3,0.1-0.7,0.2-1.1,0.3C147.5,184.5,147.1,184.5,146.8,184.5z M146.9,180.8c-0.3,0-0.6,0-1,0.1c-0.4,0-0.7,0.1-1,0.3
								c-0.3,0.1-0.6,0.3-0.8,0.5s-0.3,0.5-0.3,0.9s0.1,0.6,0.3,0.9c0.2,0.2,0.5,0.4,0.8,0.5s0.7,0.2,1,0.3c0.4,0,0.7,0.1,1,0.1
								s0.6,0,1-0.1c0.4,0,0.7-0.1,1-0.2c0.3-0.1,0.6-0.3,0.8-0.5s0.3-0.5,0.3-0.9s-0.1-0.7-0.3-0.9s-0.5-0.4-0.8-0.5
								s-0.6-0.2-1-0.3C147.5,180.8,147.1,180.8,146.9,180.8z M140.3,179.1l-1.2-1.5l0.2-0.1c0.7-0.2,1.4-0.4,2-0.6
								c0.6-0.2,1.2-0.5,1.7-0.8s0.9-0.7,1.2-1.2c0.3-0.4,0.4-1,0.4-1.6v-0.6c0-0.5-0.1-0.7-0.1-0.8c-0.1-0.1-0.3-0.2-0.7-0.2h-4.2
								V170h4.5c0.4,0,0.8,0,1.1,0.1s0.6,0.2,0.8,0.4s0.4,0.5,0.5,0.8s0.1,0.7,0.1,1.2v0.9c0,0.8-0.2,1.6-0.5,2.2
								c-0.3,0.6-0.8,1.2-1.4,1.6c-0.6,0.4-1.3,0.8-2,1.1C142,178.6,141.2,178.9,140.3,179.1L140.3,179.1z M139.6,177.8l0.7,0.9
								c0.8-0.2,1.6-0.5,2.3-0.7c0.7-0.3,1.4-0.7,2-1.1c0.6-0.4,1-0.9,1.3-1.5s0.5-1.3,0.5-2.1v-0.9c0-0.4,0-0.8-0.1-1.1
								s-0.2-0.5-0.4-0.6c-0.2-0.2-0.4-0.3-0.7-0.3c-0.3-0.1-0.7-0.1-1.1-0.1H140v1.2h3.8c0.5,0,0.8,0.1,1,0.3
								c0.1,0.2,0.2,0.5,0.2,1v0.6c0,0.7-0.2,1.3-0.5,1.8s-0.8,0.9-1.3,1.2s-1.1,0.6-1.8,0.9C140.9,177.5,140.3,177.7,139.6,177.8z
								 M150.8,179h-1.1v-9.5h2.1v3.4h2.2v1.8h-2.2v3.2c0,0.4-0.1,0.6-0.2,0.8C151.4,178.9,151.2,179,150.8,179z M150,178.7h0.8
								c0.2,0,0.4,0,0.5-0.2c0.1-0.1,0.1-0.3,0.1-0.6v-3.5h2.2v-1.2h-2.2v-3.4H150V178.7z"/>
						</g>
						<g>
							<path class="st3" d="M111.5,200.9c0.3-0.1,0.7-0.2,1-0.3c0.4-0.1,0.7-0.3,1.1-0.4c0.4-0.2,0.7-0.3,1-0.5s0.6-0.4,0.9-0.6
								c0.2-0.2,0.5-0.4,0.7-0.7c0.2-0.2,0.4-0.5,0.6-0.7c0.2-0.3,0.3-0.5,0.4-0.8s0.1-0.6,0.1-0.9v-2.7c0-0.4-0.1-0.7-0.2-0.9
								c-0.2-0.2-0.5-0.2-1-0.2H112v-1.5h4.4c0.5,0,0.9,0,1.2,0.1c0.3,0.1,0.6,0.2,0.8,0.4c0.2,0.2,0.4,0.5,0.5,0.8s0.1,0.7,0.1,1.2
								v2.9c0,0.8-0.2,1.5-0.5,2.2s-0.8,1.3-1.4,1.8c-0.5,0.5-1.2,1-2,1.4s-1.7,0.7-2.7,1L111.5,200.9z M122.4,205.6v-15.9h1.8v14.9
								c0,0.4-0.1,0.6-0.2,0.8c-0.1,0.1-0.3,0.2-0.6,0.2H122.4z"/>
							<path class="st3" d="M123.4,205.8h-1.1v-16.2h2.1v15.1c0,0.4-0.1,0.7-0.2,0.9C124,205.7,123.7,205.8,123.4,205.8z
								 M122.6,205.5h0.8c0.3,0,0.4-0.1,0.5-0.2c0.1-0.1,0.2-0.3,0.2-0.7v-14.8h-1.4L122.6,205.5L122.6,205.5z M112.4,202.4
								l-1.1-1.5l0.2-0.1c0.3-0.1,0.7-0.2,1-0.3c0.4-0.1,0.7-0.3,1.1-0.4c0.3-0.1,0.7-0.3,1-0.5s0.6-0.4,0.8-0.6
								c0.2-0.2,0.5-0.4,0.7-0.6c0.2-0.2,0.4-0.5,0.5-0.7c0.2-0.2,0.3-0.5,0.4-0.8s0.1-0.6,0.1-0.9v-2.7c0-0.4-0.1-0.6-0.2-0.8
								c-0.1-0.1-0.3-0.2-0.9-0.2h-4.3v-1.8h4.6c0.5,0,0.9,0,1.3,0.1s0.7,0.3,0.9,0.5c0.2,0.2,0.4,0.5,0.5,0.8s0.2,0.7,0.2,1.2v2.9
								c0,0.8-0.2,1.5-0.5,2.2s-0.8,1.3-1.4,1.8s-1.2,1-2,1.4C114.5,201.8,113.5,202.1,112.4,202.4L112.4,202.4z M111.8,201l0.8,1
								c1-0.2,1.8-0.5,2.5-0.9c0.8-0.4,1.4-0.8,1.9-1.3c0.6-0.5,1-1.1,1.3-1.7c0.3-0.6,0.5-1.3,0.5-2.1v-2.9c0-0.4,0-0.8-0.1-1.1
								s-0.2-0.5-0.4-0.7c-0.2-0.2-0.4-0.3-0.7-0.4c-0.3-0.1-0.7-0.1-1.2-0.1h-4.3v1.2h4c0.5,0,0.9,0.1,1.1,0.3s0.3,0.5,0.3,1v2.7
								c0,0.3,0,0.6-0.1,1c-0.1,0.3-0.2,0.6-0.4,0.9c-0.2,0.3-0.4,0.5-0.6,0.8c-0.2,0.2-0.4,0.5-0.7,0.7c-0.3,0.2-0.5,0.4-0.9,0.6
								c-0.3,0.2-0.7,0.4-1,0.5c-0.4,0.2-0.7,0.3-1.1,0.4C112.3,200.8,112.1,200.9,111.8,201z"/>
						</g>
						<g>
							<path class="st3" d="M125,196.9h14.5v0.7c0,0.5-0.2,0.8-0.7,0.8H125V196.9z M126.9,202.7c0-0.5,0.1-1,0.4-1.4s0.7-0.7,1.1-1
								c0.5-0.3,1.1-0.5,1.7-0.6c0.7-0.1,1.4-0.2,2.1-0.2c0.7,0,1.4,0.1,2,0.2c0.6,0.1,1.2,0.3,1.7,0.6s0.9,0.6,1.1,1
								c0.3,0.4,0.4,0.9,0.4,1.4s-0.1,1-0.4,1.3c-0.3,0.4-0.6,0.7-1.1,1s-1,0.5-1.7,0.6c-0.6,0.1-1.3,0.2-2.1,0.2
								c-0.7,0-1.4-0.1-2.1-0.2c-0.7-0.1-1.2-0.3-1.7-0.6s-0.9-0.6-1.2-1C127,203.8,126.9,203.3,126.9,202.7z M128.6,195.6
								c-0.6,0-1-0.1-1.2-0.3s-0.4-0.6-0.4-1.2v-4.5h0.8c0.3,0,0.5,0.1,0.7,0.3s0.3,0.5,0.3,0.8v3c0,0.1,0,0.2,0,0.3
								s0.1,0.1,0.2,0.1h8.7v0.8c0,0.2-0.1,0.4-0.2,0.5c-0.1,0.1-0.3,0.2-0.6,0.2L128.6,195.6L128.6,195.6z M128.7,202.7
								c0,0.3,0.1,0.5,0.3,0.7s0.4,0.4,0.7,0.5s0.7,0.3,1.1,0.3c0.4,0.1,0.9,0.1,1.5,0.1c0.5,0,1,0,1.4-0.1s0.8-0.2,1.1-0.3
								c0.3-0.2,0.5-0.3,0.7-0.5s0.2-0.4,0.2-0.7s-0.1-0.5-0.3-0.7s-0.4-0.4-0.7-0.5c-0.3-0.2-0.7-0.3-1.1-0.4
								c-0.4-0.1-0.9-0.1-1.4-0.1c-1.1,0-2,0.2-2.6,0.5C129,201.8,128.7,202.2,128.7,202.7z"/>
							<path class="st3" d="M132.3,206.1c-0.7,0-1.4-0.1-2.1-0.2c-0.7-0.1-1.3-0.3-1.8-0.6s-0.9-0.6-1.2-1c-0.3-0.4-0.5-0.9-0.5-1.5
								s0.1-1.1,0.4-1.5s0.7-0.8,1.2-1.1c0.5-0.3,1.1-0.5,1.7-0.6c0.7-0.1,1.4-0.2,2.2-0.2c0.7,0,1.4,0.1,2.1,0.2
								c0.7,0.1,1.2,0.4,1.7,0.6c0.5,0.3,0.9,0.6,1.2,1.1c0.3,0.4,0.4,0.9,0.4,1.5c0,0.5-0.1,1-0.4,1.4c-0.3,0.4-0.7,0.8-1.1,1.1
								c-0.5,0.3-1.1,0.5-1.7,0.6C133.8,206,133,206.1,132.3,206.1z M132.3,199.6c-0.7,0-1.5,0.1-2.1,0.2c-0.6,0.1-1.2,0.3-1.7,0.6
								s-0.8,0.6-1.1,1c-0.3,0.4-0.4,0.8-0.4,1.3s0.1,1,0.4,1.3c0.3,0.4,0.6,0.7,1.1,0.9s1,0.4,1.7,0.6c0.6,0.1,1.3,0.2,2,0.2
								s1.4-0.1,2.1-0.2c0.6-0.1,1.2-0.3,1.6-0.6c0.4-0.3,0.8-0.6,1-1s0.4-0.8,0.4-1.3s-0.1-0.9-0.4-1.3c-0.3-0.4-0.6-0.7-1.1-1
								s-1-0.5-1.6-0.6C133.6,199.7,133,199.6,132.3,199.6z M132.3,204.6c-0.5,0-1,0-1.5-0.1c-0.4-0.1-0.8-0.2-1.2-0.4
								c-0.3-0.2-0.6-0.3-0.8-0.6c-0.2-0.2-0.3-0.5-0.3-0.8c0-0.6,0.3-1.1,1-1.4c0.6-0.3,1.6-0.5,2.7-0.5c0.5,0,1,0,1.4,0.1
								s0.8,0.2,1.1,0.4s0.6,0.4,0.8,0.6c0.2,0.2,0.3,0.5,0.3,0.8s-0.1,0.6-0.3,0.8s-0.4,0.4-0.8,0.6c-0.3,0.2-0.7,0.3-1.1,0.4
								C133.3,204.5,132.8,204.6,132.3,204.6z M132.3,201.2c-1.1,0-2,0.2-2.6,0.5s-0.8,0.7-0.8,1.1c0,0.2,0.1,0.4,0.2,0.6
								c0.1,0.2,0.4,0.3,0.7,0.5c0.3,0.1,0.7,0.3,1.1,0.3c0.8,0.2,2,0.2,2.8,0c0.4-0.1,0.8-0.2,1.1-0.3s0.5-0.3,0.7-0.5
								c0.1-0.2,0.2-0.4,0.2-0.6c0-0.2-0.1-0.4-0.2-0.6c-0.2-0.2-0.4-0.4-0.7-0.5s-0.7-0.3-1.1-0.3
								C133.2,201.2,132.8,201.2,132.3,201.2z M138.8,198.6h-14v-1.8h14.9v0.9C139.7,198.3,139.3,198.6,138.8,198.6z M125.1,198.3
								h13.6c0.4,0,0.6-0.2,0.6-0.6v-0.6h-14.2C125.1,197.1,125.1,198.3,125.1,198.3z M136.9,195.8h-8.4c-0.6,0-1-0.1-1.3-0.3
								s-0.4-0.7-0.4-1.4v-4.6h1c0.3,0,0.6,0.1,0.8,0.4c0.2,0.3,0.3,0.6,0.3,0.9v3c0,0.1,0,0.2,0,0.2s0,0,0.1,0h8.8v1
								c0,0.3-0.1,0.5-0.2,0.6C137.5,195.7,137.3,195.8,136.9,195.8z M127.2,189.7v4.3c0,0.6,0.1,0.9,0.3,1.1
								c0.2,0.2,0.6,0.3,1.1,0.3h8.4c0.2,0,0.4,0,0.4-0.1c0.1-0.1,0.1-0.2,0.1-0.4v-0.6H129c-0.2,0-0.3-0.1-0.3-0.2
								c0-0.1-0.1-0.2-0.1-0.4v-3c0-0.3-0.1-0.5-0.2-0.7c-0.1-0.2-0.3-0.3-0.6-0.3L127.2,189.7L127.2,189.7z"/>
						</g>
						<g>
							<path class="st3" d="M144.6,193c0,0.5,0.1,0.9,0.3,1.3c0.2,0.4,0.5,0.8,0.9,1.1s0.8,0.7,1.3,1s1,0.6,1.5,0.9l-1,1.1
								c-0.3-0.1-0.7-0.3-1-0.6s-0.7-0.5-1.1-0.7c-0.3-0.3-0.7-0.5-1-0.8s-0.6-0.5-0.8-0.8c-0.4,0.5-0.9,1.1-1.5,1.7
								c-0.6,0.6-1.4,1.1-2.3,1.6l-1.2-1.2c0.5-0.2,1-0.5,1.5-0.9c0.5-0.3,0.9-0.7,1.3-1.1c0.4-0.4,0.7-0.8,0.9-1.3
								c0.2-0.4,0.3-0.9,0.3-1.4v-3.1h1.1c0.3,0,0.5,0.1,0.5,0.2c0.1,0.1,0.1,0.3,0.1,0.6v2.4H144.6z M150.6,205.6v-4
								c0-0.2-0.1-0.2-0.2-0.2h-7.9v-1.5h8.6c0.4,0,0.7,0.1,0.9,0.3s0.4,0.5,0.4,0.9v3.5c0,0.4-0.1,0.6-0.2,0.8
								c-0.1,0.2-0.3,0.2-0.6,0.2H150.6z M150.7,199v-9.3h1.8v8.2c0,0.4-0.1,0.6-0.2,0.8c-0.1,0.2-0.3,0.3-0.7,0.3H150.7z"/>
							<path class="st3" d="M151.5,205.8h-1.1v-4.2v-0.1l0,0h-8.1v-1.8h8.8c0.4,0,0.8,0.1,1,0.3c0.3,0.2,0.4,0.6,0.4,1v3.5
								c0,0.4-0.1,0.7-0.2,0.9C152.1,205.7,151.9,205.8,151.5,205.8z M150.8,205.5h0.8c0.2,0,0.4-0.1,0.5-0.2
								c0.1-0.1,0.2-0.3,0.2-0.7V201c0-0.3-0.1-0.6-0.3-0.8s-0.5-0.3-0.8-0.3h-8.4v1.2h7.8c0.2,0,0.4,0.2,0.4,0.4v4H150.8z
								 M151.6,199.1h-1.1v-9.6h2.1v8.4c0,0.4-0.1,0.7-0.2,0.9C152.2,199,152,199.1,151.6,199.1z M150.8,198.8h0.8
								c0.3,0,0.5-0.1,0.5-0.2c0.1-0.1,0.1-0.4,0.1-0.7v-8h-1.4L150.8,198.8L150.8,198.8z M139.9,199l-1.4-1.4l0.2-0.1
								c0.5-0.2,1-0.5,1.4-0.9c0.5-0.3,0.9-0.7,1.3-1.1c0.4-0.4,0.7-0.8,0.9-1.2s0.3-0.9,0.3-1.3v-3.2h1.3c0.4,0,0.6,0.1,0.7,0.3
								c0.1,0.2,0.1,0.4,0.1,0.6v2.3c0,0.4,0.1,0.9,0.3,1.2c0.2,0.4,0.5,0.7,0.8,1.1c0.4,0.3,0.8,0.7,1.2,1c0.5,0.3,1,0.6,1.5,0.9
								l0.2,0.1l-1.2,1.4h-0.1c-0.3-0.1-0.7-0.3-1-0.6c-0.4-0.2-0.7-0.5-1.1-0.7c-0.3-0.3-0.7-0.5-1-0.8c-0.2-0.2-0.5-0.4-0.7-0.7
								c-0.4,0.5-0.9,1-1.4,1.5C141.5,198,140.8,198.5,139.9,199L139.9,199z M139,197.7l0.9,0.9c0.8-0.4,1.5-0.9,2.1-1.5
								s1.1-1.1,1.5-1.6l0.1-0.2l0.1,0.2c0.2,0.2,0.4,0.5,0.7,0.8s0.6,0.5,1,0.8c0.3,0.3,0.7,0.5,1,0.7s0.6,0.4,0.9,0.5l0.8-0.9
								c-0.5-0.3-0.9-0.5-1.4-0.8s-0.9-0.6-1.3-1c-0.4-0.4-0.7-0.7-0.9-1.2c-0.2-0.4-0.3-0.9-0.3-1.4v-2.3c0-0.2,0-0.4-0.1-0.5
								c0-0.1-0.2-0.1-0.4-0.1h-1v2.9c0,0.5-0.1,1-0.4,1.5c-0.2,0.5-0.6,0.9-0.9,1.3c-0.4,0.4-0.8,0.8-1.3,1.1
								C139.9,197.2,139.4,197.5,139,197.7z"/>
						</g>
						<g>
							<path class="st3" d="M153.7,196.9h14.5v0.7c0,0.5-0.2,0.8-0.7,0.8h-5.6v1.6h4.4v3.4c0,0.7-0.2,1.2-0.5,1.6
								c-0.3,0.4-0.9,0.6-1.6,0.6h-6.9c-0.4,0-0.8-0.1-1.1-0.4c-0.3-0.3-0.4-0.7-0.4-1.3v-4h4.4v-1.6h-6.4L153.7,196.9L153.7,196.9z
								 M157,191.3h-1.8v-1.5h11.6v1.5H165v2.2c0,0.1,0,0.2,0,0.4c0,0.1,0,0.2-0.1,0.4h2.3v0.7c0,0.5-0.3,0.8-0.8,0.8H155v-1.5h2.2
								c0-0.1-0.1-0.2-0.1-0.4c0-0.1,0-0.3,0-0.4L157,191.3L157,191.3z M163.7,204.2c0.2,0,0.4,0,0.6-0.1c0.1-0.1,0.2-0.2,0.2-0.5
								v-2.1h-7v2.3c0,0.3,0.1,0.4,0.4,0.4L163.7,204.2L163.7,204.2z M162.6,194.3c0.2,0,0.3-0.1,0.4-0.2c0.1-0.1,0.1-0.3,0.1-0.5
								v-2.2h-4.5v2.2c0,0.2,0,0.4,0.1,0.5s0.2,0.2,0.4,0.2H162.6z"/>
							<path class="st3" d="M164.1,205.8h-6.9c-0.4,0-0.8-0.2-1.2-0.5c-0.3-0.3-0.5-0.8-0.5-1.4v-4.1h4.4v-1.2h-6.4v-1.8h14.9v0.9
								c0,0.6-0.3,1-0.9,1H162v1.2h4.4v3.6c0,0.7-0.2,1.3-0.5,1.7C165.4,205.6,164.9,205.8,164.1,205.8z M155.9,200.2v3.8
								c0,0.5,0.1,0.9,0.4,1.2c0.3,0.3,0.6,0.4,0.9,0.4h6.9c0.7,0,1.2-0.2,1.5-0.5c0.3-0.4,0.5-0.9,0.5-1.5v-3.3h-4.4v-1.9h5.8
								c0.4,0,0.6-0.2,0.6-0.6v-0.6h-14.2v1.2h6.4v1.9L155.9,200.2L155.9,200.2z M163.7,204.3h-5.9c-0.3,0-0.5-0.2-0.5-0.6v-2.4h7.3
								v2.2c0,0.3-0.1,0.5-0.3,0.6C164.2,204.3,164,204.3,163.7,204.3z M157.6,201.7v2.1c0,0.2,0.1,0.2,0.2,0.2h5.9
								c0.2,0,0.4,0,0.5-0.1s0.1-0.2,0.1-0.4v-1.9L157.6,201.7L157.6,201.7z M166.3,195.9h-11.6v-1.8h2.2c0-0.1,0-0.1,0-0.2
								c0-0.1,0-0.3,0-0.4v-2H155v-1.8h11.9v1.8h-1.8v2.1c0,0.1,0,0.3,0,0.4c0,0.1,0,0.1,0,0.2h2.2v0.8
								C167.2,195.5,166.9,195.9,166.3,195.9z M155,195.6h11.3c0.4,0,0.6-0.2,0.6-0.6v-0.5h-2.3l0.1-0.2c0-0.1,0.1-0.2,0.1-0.3
								s0-0.2,0-0.3v-2.4h1.8V190h-11.2v1.1h1.8v2.4c0,0.1,0,0.2,0,0.4c0,0.1,0,0.2,0.1,0.3l0.1,0.2H155V195.6z M162.6,194.4h-3.5
								c-0.3,0-0.4-0.1-0.5-0.3c-0.1-0.1-0.1-0.3-0.1-0.6v-2.4h4.8v2.4c0,0.3,0,0.4-0.1,0.6C163.1,194.3,163,194.4,162.6,194.4z
								 M158.9,191.5v2.1c0,0.2,0,0.3,0.1,0.4c0,0,0.1,0.1,0.3,0.1h3.5c0.2,0,0.3-0.1,0.3-0.1c0.1-0.1,0.1-0.2,0.1-0.4v-2.1H158.9z"
								/>
						</g>
					</g>
				</g>
				<path class="st17" d="M179.5,197c0.1,0.4,0.2,0.8,0.2,1.2c0,7.7-17.9,14-39.9,14c-22.1,0-39.9-6.3-39.9-14
					c0-0.4,0.1-0.8,0.2-1.2c-2.8,2.1-4.4,4.4-4.4,6.9c0,8.7,19.8,15.8,44.2,15.8s44.2-7.1,44.2-15.8
					C183.9,201.4,182.3,199.1,179.5,197z"/>
				<path class="st3" d="M139.7,142.6c-31.7,0-57.4,25.7-57.4,57.4s25.7,57.4,57.4,57.4s57.4-25.7,57.4-57.4
					C197.2,168.3,171.4,142.6,139.7,142.6z M139.7,146.5c29.5,0,53.4,23.9,53.4,53.4c0,10.5-3,20.3-8.3,28.6H94.6
					c-5.2-8.3-8.3-18.1-8.3-28.6C86.3,170.5,110.2,146.5,139.7,146.5z"/>
				<g>
					<path class="st2" d="M110.1,236.5c-0.3,0.6-1.5,1.6-2.4,1.9l-0.4-0.9c1.1-0.6,2.3-1.4,2.3-2.8v-0.9h1.2v0.9
						c0,1.3,1.1,2.2,2.3,2.8l-0.4,0.8C111.7,238,110.8,237.3,110.1,236.5z M113.5,239.7h-5.3v-0.8h6.5v3h-1.2V239.7z M113.5,233.6
						h1.2v4.8h-1.2V233.6z"/>
					<path class="st2" d="M119.9,239h2.6v2.9H116V239h2.6v-0.7h-3v-0.8h7.3v0.8h-3V239z M116.1,236.1h0.9v-1.5h-0.9v-0.8h6.5v0.8
						h-0.9v1.5h0.9v0.8h-6.5V236.1z M117.3,239.8v1.3h4.1v-1.3H117.3z M118.2,234.6v1.5h2.3v-1.5H118.2z"/>
					<path class="st2" d="M129.9,240.8c-0.6,0.3-1.1,0.3-1.8,0.3h-4.3v-0.8h4.6c0.5,0,0.9-0.1,1.4-0.3v-6.4h1.2v8.3h-1.2v-1.1H129.9
						z M126.4,233.7c3.2,0,3.3,5.6,0,5.6C123.2,239.3,123.2,233.7,126.4,233.7z M126.4,238.5c1.6,0,1.6-3.9,0-3.9
						C124.8,234.5,124.8,238.5,126.4,238.5z"/>
					<path class="st2" d="M134.2,233.7c3.3,0,3.3,4.6,0,4.6C131,238.3,130.9,233.7,134.2,233.7z M137.8,239.7h-5.3v-0.8h6.5v3.1
						h-1.2V239.7z M134.2,237.4c1.6,0,1.6-2.8,0-2.8C132.6,234.6,132.5,237.4,134.2,237.4z M139,238.4h-1.2v-4.7h1.2v1h0.9v0.9H139
						v0.8h0.9v0.9H139V238.4z"/>
					<path class="st2" d="M144.6,239h2.6v2.9h-6.5V239h2.6v-0.7h-3v-0.8h7.3v0.8h-3L144.6,239L144.6,239z M140.7,236.1h0.9v-1.5
						h-0.9v-0.8h6.5v0.8h-0.9v1.5h0.9v0.8h-6.5V236.1z M141.9,239.8v1.3h4.1v-1.3H141.9z M142.8,234.6v1.5h2.3v-1.5H142.8z"/>
					<path class="st2" d="M150.7,233.7c3.2,0,3.2,4.9,0,4.9C147.6,238.6,147.6,233.7,150.7,233.7z M149.3,239.3h1.2v1.8h5.1v0.8
						h-6.3V239.3z M150.8,237.7c1.6,0,1.6-3.1,0-3.1C149.2,234.6,149.2,237.7,150.8,237.7z M155.4,239.6h-1.2v-6h1.2v2.1h0.9v0.9
						h-0.9V239.6z"/>
					<path class="st2" d="M159.4,236.9c-0.4,0.5-1.6,1.5-2.5,1.8l-0.4-0.9c1.1-0.6,2.3-1.4,2.3-2.8v-0.4H157v-0.8h4.9v0.8H160v0.4
						c0,1.3,1.2,2.3,2.3,2.8l-0.4,0.8C161,238.4,160,237.6,159.4,236.9z M157.6,239.2h1.1v1.9h5.3v0.8h-6.4L157.6,239.2L157.6,239.2
						z M162.7,236.4h-1.2v-0.8h1.2v-1.9h1.2v5.9h-1.2V236.4z"/>
					<path class="st2" d="M167.5,239.2c-0.4,0.7-1.5,1.6-2.2,1.9l-0.5-0.8c1.4-0.9,2.1-1.8,2.1-3.5V235h-1.6v-0.8h1.6v-0.7h1.2v0.7
						h1.6v0.8h-1.6v1.9c0,1.5,0.7,2.7,2.1,3.5l-0.5,0.8C168.9,240.8,168.1,240,167.5,239.2z M170.8,237.2h-1.4v-0.8h1.4v-2.7h1.2
						v8.3h-1.2V237.2z"/>
				</g>
			</g>
		</g>
	</g>
	<g>
		<path class="st12" d="M420,68.3l8.9,8.9l-49.2,49.2l-8.9-8.9L420,68.3z"/>
		<path class="st13" d="M315.3,182c-24.6-24.6-24.6-64.4,0-88.9c24.6-24.6,64.4-24.6,88.9,0c24.6,24.6,24.6,64.4,0,88.9
			C379.6,206.5,339.8,206.5,315.3,182L315.3,182z"/>
		<path class="st4" d="M321.7,175.5c-21-21-21-55,0-76s55-21,76,0s21,55,0,76C376.8,196.5,342.7,196.5,321.7,175.5z"/>
		<path class="st15" d="M411.3,81.5c-1.8-1.8-1.8-4.8,0-6.7l15.3-15.3c4.1,3.3,7.8,7.1,11.1,11.1l-15.3,15.3c-1.8,1.8-4.8,1.8-6.7,0
			L411.3,81.5z"/>
		<path class="st16" d="M448,43.9l5,5c2.7,2.7,2.7,7.1,0,9.8l-23.1,23.1c-0.2,0.2-0.5,0.2-0.7,0L415,67.7c-0.2-0.2-0.2-0.5,0-0.7
			l23.1-23.1C440.9,41.1,445.3,41.1,448,43.9z"/>
	</g>
	<g class="st1">
		<path class="st2" d="M341.8,115.7c0,3-2,5.3-5.3,6.3l-0.6-1c2.5-0.8,4.2-2.3,4.4-4.2h-3.8v-1.1H341.8z M345.6,125v1.1H338v-3.7
			h1.3v2.6H345.6z M344,118.3v-3.4h1.3v8.4H344v-3.9h-2.3v-1.1H344z"/>
		<path class="st2" d="M353.3,115.7c0,3-2,5.1-5.3,6.1l-0.5-1c2.6-0.8,4.2-2.2,4.4-4H348v-1.1H353.3z M356.6,124
			c0,1.4-1.5,2.3-3.8,2.3c-2.3,0-3.8-0.9-3.8-2.3c0-1.4,1.5-2.3,3.8-2.3C355.1,121.7,356.6,122.6,356.6,124z M355.3,124
			c0-0.8-1-1.3-2.5-1.3c-1.5,0-2.5,0.5-2.5,1.3c0,0.8,1,1.2,2.5,1.2C354.3,125.3,355.3,124.8,355.3,124z M358.1,117.7v1.1h-1.6v2.8
			h-1.3v-6.7h1.3v2.8H358.1z"/>
		<path class="st2" d="M365.3,116.1c0,3.4-1.4,6.3-5.3,8.2l-0.7-1c3-1.4,4.4-3.5,4.7-6.1h-4.1v-1.1H365.3z M368.6,114.9v11.5h-1.3
			v-11.5H368.6z"/>
		<path class="st2" d="M381.2,120.1v1.1h-10.4v-1.1H381.2z M379.9,124.2c0,1.3-1.5,2.1-3.9,2.1c-2.4,0-3.9-0.8-3.9-2.1
			c0-1.3,1.5-2.1,3.9-2.1C378.5,122.1,379.9,122.8,379.9,124.2z M380,119h-7.8v-3.9h1.3v2.8h6.5V119z M378.6,124.2
			c0-0.7-1-1.1-2.6-1.1s-2.6,0.4-2.6,1.1c0,0.7,0.9,1.1,2.6,1.1S378.6,124.9,378.6,124.2z"/>
		<path class="st2" d="M388.8,121.1c-1.3-0.5-2.3-1.4-2.8-2.5c-0.5,1.2-1.5,2.2-2.9,2.7l-0.6-1c1.8-0.6,2.8-2.2,2.8-3.8v-1.1h1.3
			v1.1c0,1.5,1,3,2.8,3.6L388.8,121.1z M384.2,122.3h7.7v4h-1.3v-3h-6.4V122.3z M391.9,114.8v6.9h-1.3v-6.9H391.9z"/>
		<path class="st2" d="M400,121.4v1.2h3.3v3.6h-7.9v-3.6h3.3v-1.2h-4.5v-1.1h10.4v1.1H400z M396.7,116.2h-1.6v-1.1h8.5v1.1H402v2.1
			h1.5v1.1h-8.4v-1.1h1.6V116.2z M402,123.6h-5.3v1.6h5.3V123.6z M400.7,116.2H398v2.1h2.6V116.2z"/>
	</g>
	<g class="st1">
		<path class="st2" d="M346.2,141.3h-4.6v4h-1.3v-4h-4.5v-1.1h10.3V141.3z M345.3,139.1c-1.9-0.3-3.5-1.3-4.2-2.6
			c-0.7,1.3-2.3,2.3-4.2,2.6l-0.5-1.1c2.3-0.3,4-1.7,4-3.2v-0.6h1.4v0.6c0,1.5,1.7,2.9,4,3.2L345.3,139.1z"/>
		<path class="st2" d="M353.8,137c0,1.6-1.3,2.7-3,2.7c-1.7,0-3-1.1-3-2.7s1.3-2.7,3-2.7C352.5,134.4,353.8,135.5,353.8,137z
			 M349,137c0,1,0.7,1.6,1.8,1.6c1,0,1.8-0.6,1.8-1.6c0-1-0.7-1.6-1.8-1.6C349.7,135.5,349,136.1,349,137z M350.8,140.5v1.3h4.9
			v-1.3h1.3v4.6h-7.5v-4.6H350.8z M350.8,144.1h4.9v-1.3h-4.9V144.1z M357,133.9v6.1h-1.3v-6.1H357z"/>
		<path class="st2" d="M362.7,137c0,2,0.7,3.9,2.3,4.9l-0.8,1c-1.1-0.6-1.8-1.8-2.2-3.1c-0.4,1.4-1.1,2.7-2.2,3.4l-0.8-1
			c1.6-1,2.4-3.1,2.4-5.1v-0.8h-2v-1.1h5.2v1.1h-1.9V137z M365.4,134.1h1.2v10.7h-1.2v-5.8h-1.7v-1.1h1.7V134.1z M368.9,133.8v11.5
			h-1.2v-11.5H368.9z"/>
		<path class="st2" d="M381.2,142.8v1.1h-10.4v-1.1h4.5v-2.7h1.3v2.7H381.2z M371.3,139.6c2.2-0.4,4-1.9,4-3.7v0h-3.6v-1.1h8.6v1.1
			h-3.6v0c0,1.7,1.8,3.3,4.1,3.6l-0.5,1c-1.9-0.4-3.5-1.4-4.2-2.9c-0.7,1.5-2.3,2.6-4.2,2.9L371.3,139.6z"/>
		<path class="st2" d="M392,133.9v6.1h-1.3v-2.4h-2.1c-0.2,1.3-1.4,2.2-2.9,2.2c-1.7,0-3-1.1-3-2.7c0-1.6,1.3-2.7,3-2.7
			c1.5,0,2.7,0.8,2.9,2.1h2.1v-2.6H392z M387.4,137c0-1-0.7-1.6-1.7-1.6c-1,0-1.7,0.6-1.7,1.6c0,1,0.7,1.6,1.7,1.6
			C386.6,138.6,387.4,138,387.4,137z M390.7,140.5h1.3v4.6h-7.4v-4.6h1.3v1.3h4.9V140.5z M390.7,142.8h-4.9v1.3h4.9V142.8z"/>
		<path class="st2" d="M397.6,137.4c0,1.8,0.8,3.6,2.3,4.5l-0.7,1c-1.1-0.6-1.8-1.6-2.2-2.9c-0.4,1.3-1.1,2.5-2.2,3.1l-0.7-1
			c1.6-0.9,2.3-2.9,2.3-4.7v-0.4h-2v-1.1h2v-1.6h1.2v1.6h2v1.1h-2V137.4z M400.4,134.1h1.2v10.7h-1.2v-5.4h-1.5v-1.1h1.5V134.1z
			 M403.9,133.9v11.5h-1.2v-11.5H403.9z"/>
	</g>
	<g class="st1">
		<path class="st2" d="M339,159.1c-1.1,0.1-2.1,0.1-3,0.1l-0.2-1.1c2.1,0,4.9,0,7.3-0.3l0.1,0.9c-1,0.2-2,0.3-2.9,0.3v2.2H339V159.1
			z M336.7,155.3c0-1.2,1.2-2,2.8-2c1.7,0,2.8,0.8,2.8,2c0,1.2-1.2,2-2.8,2C337.8,157.3,336.7,156.5,336.7,155.3z M345.6,163v1.1
			h-8.3v-3.4h1.3v2.3H345.6z M337.9,155.3c0,0.6,0.6,1.1,1.6,1.1c0.9,0,1.6-0.4,1.6-1.1s-0.6-1.1-1.6-1.1
			C338.6,154.2,337.9,154.7,337.9,155.3z M344,159.6v-6.7h1.3v8.7H344v-1.1h-2.2v-0.9H344z"/>
		<path class="st2" d="M351,155.8c0,2.1,0.7,3.9,2.4,4.8l-0.8,1c-1.1-0.6-1.8-1.6-2.2-2.9c-0.4,1.5-1.1,2.6-2.3,3.3l-0.8-1
			c1.7-1,2.4-3,2.4-5.2v-0.6h-2.1v-1.1h5.2v1.1H351V155.8z M357.3,152.8v11.5h-1.2v-5.9h-1.3v5.3h-1.2v-10.7h1.2v4.3h1.3v-4.5H357.3
			z"/>
		<path class="st2" d="M369.6,161.9v1.1h-10.4v-1.1h2.8v-2h-1.5v-3.7h6.6v-1.5h-6.6v-1.1h7.9v3.6h-6.6v1.6h6.9v1.1h-1.7v2H369.6z
			 M363.3,161.9h2.3v-2h-2.3V161.9z"/>
		<path class="st2" d="M376.6,158.9h-5.3v-5.2h5.3v0.9h2.4v-1.8h1.3v6.7H379V158h-2.4V158.9z M375.4,154.7h-2.8v3.1h2.8V154.7z
			 M380.4,162.1c0,1.4-1.5,2.2-3.9,2.2c-2.4,0-3.9-0.8-3.9-2.2c0-1.4,1.5-2.2,3.9-2.2C378.9,159.9,380.4,160.7,380.4,162.1z
			 M379.1,162.1c0-0.7-0.9-1.2-2.6-1.2s-2.5,0.4-2.5,1.2c0,0.8,0.9,1.2,2.5,1.2S379.1,162.9,379.1,162.1z M376.6,155.7v1.2h2.4v-1.2
			H376.6z"/>
	</g>
	<g>
		<path class="st2" d="M335.8,108.4C335.8,108.3,335.8,108.3,335.8,108.4L335.8,108.4z"/>
		<path class="st2" d="M336.3,107.8c-0.1,0.2-0.3,0.4-0.5,0.5C335.9,108.2,335.9,107.6,336.3,107.8z"/>
		<path class="st2" d="M335.2,108.1l0.2-0.1C335.4,108.1,335.3,108,335.2,108.1z"/>
		<polygon class="st2" points="335.6,108.2 335.7,108.3 335.5,108.3 		"/>
		<path class="st2" d="M330.4,119.5c0.1,0,0.1,0,0.2,0.1L330.4,119.5z"/>
		<path class="st2" d="M329.6,119.6C329.6,119.7,329.5,119.7,329.6,119.6C329.5,119.7,329.5,119.6,329.6,119.6z"/>
		<path class="st2" d="M330.6,119L330.6,119C330.6,119.1,330.6,119,330.6,119z"/>
		<path class="st2" d="M333.4,113.4c0.1,0,0.3-0.1,0.3-0.1C333.7,113.5,333.5,113.4,333.4,113.4z"/>
		<path class="st2" d="M326.5,120.8L326.5,120.8C326.6,120.8,326.5,120.8,326.5,120.8z"/>
		<path class="st2" d="M327.9,118.8c0.1,0,0.1,0.1,0.1,0.1S328,118.9,327.9,118.8L327.9,118.8z"/>
		<path class="st2" d="M330.6,118.5L330.6,118.5L330.6,118.5C330.7,118.5,330.7,118.6,330.6,118.5z"/>
		<path class="st2" d="M326,121.4c-0.1,0-0.2,0-0.3,0C325.8,121.3,325.9,121.3,326,121.4z"/>
		<path class="st2" d="M329.5,119.7L329.5,119.7L329.5,119.7L329.5,119.7z"/>
		<path class="st2" d="M328.4,118.1l-0.1,0.1L328.4,118.1z"/>
		<path class="st2" d="M333.4,113.4h-0.1C333.3,113.4,333.3,113.4,333.4,113.4z"/>
		<path class="st2" d="M335.6,109c0,0.1-0.1,0-0.2,0C335.5,109,335.6,109,335.6,109z"/>
		<path class="st2" d="M319.1,119L319.1,119C319.1,118.9,319.1,119,319.1,119z"/>
		<path class="st2" d="M320.9,121.4C320.9,121.4,320.8,121.5,320.9,121.4C320.8,121.5,320.8,121.5,320.9,121.4z"/>
		<path class="st2" d="M324.7,121.7c-0.3,0-0.1-0.4-0.2-0.6l-0.1,0.1V121l-0.1,0.1c-0.1-0.3-0.5-0.4-0.3-0.7l-0.2,0.2v-0.4l-0.1,0.3
			c-0.3-0.2-0.4-0.8-0.5-0.8l-0.1,0.1c-0.1,0-0.1-0.1-0.1-0.2l-0.1,0.2c-0.3-0.4-0.7-0.3-0.9-0.8c-0.1-0.1,0,0.1-0.1,0.2
			c-0.2,0-0.2-0.2-0.2-0.3c-0.2,0.2,0,0.3-0.2,0.4c0-0.2-0.1,0.2-0.2,0l0.2-0.3c-0.1-0.1-0.2,0.2-0.3,0c0-0.3,0.5-0.1,0.3-0.4
			c-0.1-0.1-0.9,0.3-1-0.1c-0.3-0.1-0.3,0.5-0.5,0.1v0.4c-0.1,0-0.2,0.2-0.3,0c0.1-0.1,0.1-0.3,0.1-0.4c0.1,0.5-0.5,0-0.6,0.5
			l-0.1-0.1c0,0,0,0,0,0.1L319,119c0,0.1,0.2,0.4-0.1,0.4l-0.2-0.2c-0.1,0.2-0.2,0.2-0.3,0.3l0.2,0.8c0.1-0.1,0.1-0.2,0.2-0.3
			c0.2,0.1-0.1,0.3,0.2,0.3l0.1-0.2c0,0.1,0,0.1-0.1,0.1s-0.1-0.1,0-0.2c0.2-0.1,0.2,0.2,0.2,0.3c0.2,0.2,0.3-0.2,0.4-0.2
			c-0.2,0.3,0.3,0.3,0.3,0.5l0.1-0.2c0.3,0,0.3,0.2,0.3,0.4l0.1-0.2c0.2,0.2,0.7-0.1,0.3,0.5l0.1-0.1c0.1,0,0.3,0.1,0.3,0.3
			c0.1,0,0.1-0.1,0.2-0.1c-0.1,0.2,0.1,0.2,0.2,0.3c0-0.1,0.2-0.3,0.2-0.4c0.4,0-0.1,0.4,0,0.6c0.2,0,0.1-0.2,0.1-0.3
			c0.1,0.4,1,0,0.6,0.6h-0.2c0,0.2,0,0.2,0.1,0.2v-0.1c0.5,0.1,0,0.8,0.4,1c0.1-0.1,0.1-0.2,0.1-0.2c0.2,0.1-0.3,0.5,0,0.6l0.1-0.1
			c0.1,0,0,0.2,0,0.2c0.2-0.2,0.3-0.1,0.4,0.1c0.2,0.2,0.4,0.4,0.7,0.2c-0.1,0.4,0.2,1,0.4,1c0.3-0.2,0-0.5,0.2-0.8
			c0.1,0.1,0,0.5,0.2,0.6c0,0.2-0.2,0.3-0.3,0.4c-0.1,0.1-0.1,0.2,0,0.5l0.1-0.1c0,0-0.1,0-0.2-0.1c0-0.3,0.1-0.2,0.2-0.2l0.3,0.5
			c0,0.5-0.3,0.1-0.3,0.2c0.2,0.1,0.4,0.2,0.5,0.2c0.2,0,0.3,0.1,0.5,0.4v-0.2c0.1,0.2,0.1,0.3,0.2,0.3c0.1-0.3,0-0.9,0.2-0.5
			c0.1-0.3-0.1-0.5,0-0.7c0-0.1,0.1,0.1,0.1,0.2c0.2-0.2,0-0.5,0.2-0.4c-0.1-0.1-0.1-0.3-0.2-0.4c0.1,0,0.3,0.1,0.5,0.1
			s0.4-0.1,0.4-0.3c-0.2-0.2-0.3,0-0.4-0.1c0.2,0.1,0.4-0.2,0.6-0.5c0.1-0.3,0.3-0.5,0.5-0.6c0.1,0.2,0.5,0.1,0.6,0.4
			c-0.3-0.1-0.2,0.2-0.4,0.3c0.8,0,0.2-1,0.8-0.8l-0.2-0.2c0.1,0,0.3-0.1,0.3,0.1l0.1-0.4c-0.2,0-0.8,0-0.6,0.3
			c-0.3,0-0.1-0.2-0.4-0.3c0.5,0-0.1-0.2,0.2-0.4c0.3,0.3,0.6,0,0.7,0.1c0-0.1,0.2-0.2,0.4-0.2c0.1-0.1,0-0.6,0.3-0.8
			c-0.2,0-0.4,0.1-0.6-0.1c0.2,0,0.3-0.2,0-0.3c-0.7,0.1,0.5,0.5,0,0.6c-0.3-0.1-0.5,0-0.6,0.1c-0.1-0.2-0.2-0.2-0.4-0.3
			c0.7,0.1,0.4-0.5,0.9-0.7c0.2,0,0.5,0.3,0.8,0v0.3c0-0.4,0.2,0,0.4-0.1h-0.2c0-0.2,0.1-0.2,0.3-0.2l-0.4-0.1c0-0.1,0-0.2,0.2-0.1
			c-0.1-0.1-0.1-0.1-0.2-0.1c0.1,0,0.1,0,0.1-0.1c-0.1,0-0.1,0.1-0.2,0c0.3-0.3-0.3-0.3-0.1-0.4c-0.1,0-0.1-0.1-0.1-0.2
			c0.5,0.3,0.7-0.1,1.1,0l0,0l0.3-0.2c-0.1,0-0.2-0.1-0.2-0.2l0,0c0-0.1-0.6-0.2-0.3-0.4l0.2-0.1l-0.1-0.1l0.2-0.1
			c-0.3-0.5,0.5-0.3,0.4-0.6c0,0.1-0.1,0.2-0.2,0.1c0-0.1,0.1-0.1,0.2-0.1h-0.1l0.6-0.3c-0.2-0.1-0.3,0.2-0.4,0
			c-0.2-0.2,0.1-0.2,0.2-0.3c0.1,0.1,0.1,0.3,0.3,0.2c0-0.1-0.1-0.3-0.2-0.3c0.2-0.1,0.4-0.3,0.7-0.3c0-0.1-0.1,0-0.1,0l0,0
			c-0.1,0.1-0.3-0.2-0.3,0.1c-0.4-0.2,0.1-0.3,0.1-0.5l-0.4,0.1c-0.3-0.8,0.7-1,1-1.5c0,0.2-0.1,0.2,0.2,0.4
			c0.3-0.2,0.2-0.2,0.5-0.4l0,0c-0.1-0.2,0.4-0.3,0.1-0.5c-0.2,0,0,0.3-0.3,0.1l0.2-0.3c-0.3,0-0.2,0.3-0.4,0.4c0,0.1,0.2-0.2,0.4,0
			c-0.2,0.3-0.5,0.3-0.9,0.2c-0.3,0-0.2-0.3-0.1-0.4c0.5,0,0.8-0.2,0.9-0.6l-0.2-0.3c0.3,0,0.8,0.3,0.9,0h-0.2c0-0.1,0-0.2,0-0.2
			c-0.2,0-0.5,0.1-0.7,0.1c-0.3-0.4,0.5-0.4,0.7-0.6c-0.1,0-0.1,0.1-0.2,0c0.1-0.4,0.8-0.5,1.1-0.8c-0.1-0.2-0.3,0.2-0.5,0
			c0.2-0.1,0.1-0.4,0.3-0.3c-0.4-0.1,0.2-0.4-0.3-0.3c0.2-0.6,0.8-1,1.3-1.4c-0.1,0-0.2-0.1-0.3-0.2c-0.1,0.2-0.4,0.4-0.7,0.4
			c-0.1-0.2,0.4-0.1,0.3-0.2c-0.1,0-0.2,0.1-0.4,0c-0.1-0.3,0.2-0.2,0.3-0.3l0.1,0.1c0.4-0.2,0.7,0.2,0.8-0.3
			c-0.1-0.3-0.2-0.1-0.4-0.3c0.2,0,0-0.5,0.4-0.4l-0.1,0.2c0.2-0.1,0.3-0.3,0.4-0.3c-0.1,0-0.1,0-0.2,0c0.2-0.1,0.2-0.2,0.4-0.2
			l-0.3-0.2c0.1,0.1,0,0.4-0.2,0.3c-0.2-0.2,0.1-0.3,0.1-0.4c-0.3,0.4-0.8,0.1-0.8,0.6h0.1c0.1,0.3-0.4,0.4-0.5,0.6
			c0-0.1-0.1-0.2-0.2-0.2c0,0.6-0.5,0.9-0.6,1.5H333l0.2,0.1c-0.1,0.3-0.3-0.1-0.4,0c0-0.1,0.1,0,0.1,0c-0.4,0.1,0.1,0.3-0.1,0.4
			c0.3,0.1,0.3-0.3,0.5,0c-0.4,0.1-0.5,0.7-1.1,0.4c-0.1,0.6-0.8,1.1-1.1,1.5c0.1,0.1,0.1,0,0.1,0.1c-0.4,0-0.1,0.7-0.4,0.5
			c0,0.1,0.2,0.3,0.2,0.3c-0.2,0-0.3,0.1-0.4,0.3l0.1-0.1l0,0l-0.2,0.1l0,0c-0.3,0.3-0.5,0.8-0.9,0.9c0.3-0.1,0.3,0.2,0.4,0.2
			c-0.5-0.1-0.7,0.3-0.9,0.6c0.1,0,0.1,0.1,0.2,0.1l-0.3,0.1h0.1c-0.1,0.4-0.8,0.5-0.7,0.8c0.1-0.1,0.2-0.1,0.4,0
			c-0.2,0.2-0.3,0.4-0.6,0.6h0.1c0,0.1-0.2,0.1-0.3,0.2l0.2,0.1c-0.2,0.1-0.2,0.3-0.4,0.4c0.2,0.2-0.4,0.3-0.5,0.5
			c-0.1,0,0.3,0,0.2,0.2c-0.5-0.2-0.2,0.3-0.7,0l0.1,0.3l-0.3-0.1c0.4,0.4-0.3,0.1-0.3,0.4c0.1,0,0.1,0,0.1,0c-0.1,0-0.2,0.2-0.3,0
			c-0.1,0.1-0.4,0.5-0.1,0.4c-0.1-0.1,0.1-0.2,0.2-0.2c0.2,0.1,0,0.3,0.2,0.4h-0.1l0.1,0.1c-0.4,0.1-0.3,0.4-0.7,0.4
			c0.1,0,0.1,0.1,0,0.2l-0.3-0.2l-0.1,0.2l0.4,0.1c0,0.2-0.2,0.2-0.4,0.3c-0.1,0-0.2-0.1-0.3-0.1c0.2,0.2,0.1,0.2,0.1,0.1
			c-0.1,0-0.1-0.1,0,0.2l0.1,0.1c-0.1,0,0,0.1,0,0.2s0,0.1-0.1,0.1c0-0.1,0-0.2,0-0.2c0-0.1,0-0.2-0.2-0.4c0.1,0.1,0,0.1,0,0
			s0-0.1,0,0.1s0.1,0.3,0.1,0.5c-0.1-0.4,0,0.1-0.1-0.4c0,0.2,0.1,0.6,0.1,0.7v-0.1c0-0.2-0.1-0.4-0.1-0.6v0.1
			c0,0.3-0.1,0.3-0.1,0.2c0,0,0-0.2,0-0.3c0-0.1,0-0.2,0.1-0.3c0-0.1,0-0.1,0,0l-0.1,0.1c0-0.1,0.1-0.1,0.2-0.2
			c-0.1,0.1-0.1,0.1-0.1,0.1s0,0-0.1,0h-0.1l-0.1-0.6C324.8,121.4,324.6,121.6,324.7,121.7z M326,121.6L326,121.6
			c0.1-0.1,0.1-0.1,0.1-0.2L326,121.6C326.1,121.6,326.2,121.7,326,121.6z M332.3,112.3C332.4,112.3,332.3,112.4,332.3,112.3
			l0.1-0.1C332.4,112.2,332.3,112.3,332.3,112.3z M327.7,122.6l0.1,0.2h-0.2L327.7,122.6z M326.7,124.3c0.1,0,0.1,0,0.2-0.1v0.1
			C326.9,124.3,326.8,124.3,326.7,124.3L326.7,124.3z M325.4,123.2L325.4,123.2L325.4,123.2c0-0.3,0,0.3-0.1-0.3
			C325.3,122.5,325.4,123,325.4,123.2z M326,122.2C326.1,122.2,326.1,122.2,326,122.2C326.1,122.2,326.1,122.2,326,122.2
			c0-0.1-0.1-0.1-0.1-0.1c-0.1,0-0.1-0.1-0.1-0.1c0.1,0,0.3-0.1,0.5,0C326,122.1,326.4,122.5,326,122.2z M328.2,118.9L328.2,118.9
			h0.2H328.2z M328.8,118.3c0.3,0.1,0.3-0.2,0.5-0.3c-0.2-0.1-0.5-0.1-0.5,0C328.4,118.2,329,118.3,328.8,118.3z M326,123.1l0.1,0.2
			l0,0h0.1c0,0.2,0,0.2-0.1,0.2c-0.1-0.1-0.2-0.2-0.2-0.2C325.9,123.3,326.2,123.6,326,123.1z M329.7,117c0.2-0.1,0.5-0.2,0.7-0.1
			C330.1,116.8,329.8,116.9,329.7,117C329.8,117,329.7,117,329.7,117z M330.2,117.4c-0.2,0.1-0.4,0-0.8,0c0-0.3,0.4-0.1,0.5,0
			c0.2-0.1,0-0.1,0-0.2L330.2,117.4z M329.3,117.1L329.3,117.1c0.1,0.3,0.4,0.5,0,0.4V117.1L329.3,117.1z M330.3,115.5h-0.1
			C330.2,115.4,330.2,115.4,330.3,115.5h0.1C330.4,115.7,330.4,115.5,330.3,115.5z M329.6,116.8l-0.2,0.2
			C329.6,117,329.6,116.9,329.6,116.8z M330.5,115.7c0,0.1-0.2,0.4-0.1,0.3C330.2,115.9,330.4,115.7,330.5,115.7z M334,110.8
			l-0.1,0.1l-0.2-0.2L334,110.8z M333.1,112.6L333.1,112.6v-0.2V112.6z M332.2,114.2c0,0-0.1-0.1-0.2-0.1h-0.1h0.1
			c0.1,0,0.1-0.1,0.1-0.2c-0.1,0-0.2,0.1-0.2,0.1c-0.2-0.3,0.8-0.2,0-0.5c0.1,0,0.4-0.1,0.5,0C332.2,113.6,332.1,114,332.2,114.2
			C332.2,114.2,332.2,114.3,332.2,114.2C332.2,114.3,332.2,114.2,332.2,114.2z M331.1,116.4c-0.1,0-0.1,0.1-0.1,0.1
			c-0.1,0-0.2,0-0.3-0.1c0.2-0.1,0.2,0.1,0.3,0.1C331,116.5,331,116.4,331.1,116.4z M330.9,116.8l0.2-0.1L330.9,116.8l0.5-0.2
			C331.4,116.8,331.1,116.9,330.9,116.8z M331,117l-0.2-0.1L331,117L331,117L331,117l-0.2,0.3L331,117z M328.6,120.1
			c0.5,0.5,0.6,0,0.9,0.1c-0.2-0.1-0.4-0.4-0.6-0.1c0-0.4,0.5,0,0.1-0.4c0,0.2-0.3,0.2-0.3,0.2l0.1-0.2
			C328.4,119.6,328.8,120.1,328.6,120.1z M327.7,121.9l-0.1,0.2L327.7,121.9L327.7,121.9z M324.3,124.1c0,0.1-0.1,0.1-0.2,0.1
			s-0.2-0.1-0.1-0.3C324.1,124,324.2,124.2,324.3,124.1z M322.6,122.1l0.1,0.3c-0.3,0.2-0.1-0.2-0.3-0.2
			C322.5,122,322.5,122.1,322.6,122.1z M321.5,120.8L321.5,120.8l-0.2,0.2L321.5,120.8z M321.2,121.2c-0.2,0.1-0.1,0.3,0,0.3V121.2z
			 M319.9,120.2L319.9,120.2l0.3-0.2L319.9,120.2z M320.3,120.1c-0.2,0.2-0.4,0.4-0.1,0.5c0.2-0.1,0.1-0.2,0.4-0.3
			C320.6,120.2,320.5,120.2,320.3,120.1c0.1,0.2,0.2,0.2,0.1,0.3C320.3,120.3,320.3,120.2,320.3,120.1c0.1-0.1,0.1-0.1,0.1-0.2
			C320.4,120,320.3,120,320.3,120.1z M321.1,120.6h0.1H321.1C321.1,120.7,321.1,120.7,321.1,120.6H321c-0.2,0.1-0.2,0.3-0.2,0.4
			c0-0.1,0.1-0.3-0.1-0.3c0,0.1-0.1,0.1,0,0.1l-0.1-0.1C320.7,120.4,320.9,120.5,321.1,120.6C321,120.6,321.1,120.5,321.1,120.6
			C321.2,120.5,321.1,120.6,321.1,120.6z M320.7,119.4L320.7,119.4c0,0.2-0.1,0.2-0.1,0.3C320.5,119.6,320.5,119.4,320.7,119.4z
			 M324,123.2c-0.1,0-0.2,0.3,0,0.3c-0.1,0.1-0.2,0.1-0.2,0.2c0.1-0.2-0.1-0.3-0.1-0.4C323.9,123.1,323.8,123.2,324,123.2z
			 M327.1,122.5c0.3,0.2,0.3-0.2,0.4-0.2C327.5,122.4,327.4,122.8,327.1,122.5z M327.2,121.9c0-0.1,0-0.1,0.2,0c0.1,0,0-0.1,0.1-0.1
			C327.6,122,327.4,121.9,327.2,121.9L327.2,121.9L327.2,121.9z M325.7,124.4c0-0.1-0.1-0.2-0.1-0.4l-0.1,0.1
			C325.6,124.3,325.6,124.4,325.7,124.4z M324.9,123.1c0,0.2-0.1,0.1-0.1,0c-0.1,0.2,0,0.3,0,0.4v0.1v-0.1
			C324.8,123.4,324.8,123.3,324.9,123.1L324.9,123.1L324.9,123.1L324.9,123.1z M323.1,120.7c-0.2,0-0.2,0-0.2-0.1
			C323,120.6,323.1,120.6,323.1,120.7z M325.3,123.3c-0.1,0.1,0,0.5,0,0.6h0.1c-0.1,0.2,0-0.4-0.1-0.4l0,0c0-0.3,0-0.3,0-0.5
			C325.2,122.9,325.3,123.2,325.3,123.3z M323.1,120.5c-0.3,0,0-0.3,0-0.4C323.3,120.1,323,120.3,323.1,120.5z M325.1,122.2
			L325.1,122.2c0-0.1,0-0.1,0.1-0.2l0,0C325.2,122.1,325.1,122.1,325.1,122.2z"/>
		<path class="st2" d="M321.3,121.7C321.3,121.7,321.3,121.6,321.3,121.7C321.3,121.6,321.3,121.6,321.3,121.7z"/>
		<path class="st2" d="M328.7,122.2C328.7,122.2,328.7,122.1,328.7,122.2C328.7,122.1,328.7,122.1,328.7,122.2z"/>
		<path class="st2" d="M329.1,121.9L329.1,121.9L329.1,121.9L329.1,121.9z"/>
		<path class="st2" d="M335.8,109.3c0.3,0.1,0,0.1,0,0.2C335.8,109.4,335.7,109.3,335.8,109.3z"/>
		<path class="st2" d="M335.1,109.5c0.1,0,0.2,0,0.2-0.1C335.3,109.5,335.3,109.5,335.1,109.5z"/>
		<path class="st2" d="M335.5,109.2c0,0.1,0,0.2-0.1,0.3C335.4,109.4,335.3,109.3,335.5,109.2z"/>
		<path class="st2" d="M334.4,110.9c0.2,0,0.2-0.2,0.2-0.2c-0.1,0.4,0.3,0.1,0.4,0.1C334.9,111,334.7,110.9,334.4,110.9z"/>
		<path class="st2" d="M334.1,111.2L334.1,111.2C334.2,111.2,334.2,111.2,334.1,111.2z"/>
		<path class="st2" d="M334.2,111.4c-0.1,0.1-0.3,0-0.4,0c0-0.2,0.3-0.1,0.4-0.2C334.1,111.3,334,111.4,334.2,111.4z"/>
		<path class="st2" d="M332.9,115.2c0,0,0.1-0.1,0.2,0l-0.1,0.2C332.9,115.4,332.9,115.3,332.9,115.2z"/>
		<path class="st2" d="M332.1,115.7c-0.1,0.1,0.2,0.2,0.1,0.2l-0.3-0.2H332.1z"/>
		<path class="st2" d="M330.7,114.7L330.7,114.7L330.7,114.7L330.7,114.7z"/>
		<path class="st2" d="M332,116.5l0.4,0.1C332.2,116.7,331.9,116.5,332,116.5z"/>
		<polygon class="st2" points="331.9,117.2 332,117.2 331.8,117.4 		"/>
		<polygon class="st2" points="331.3,117.8 331.4,117.9 331.2,118 		"/>
		<path class="st2" d="M326.4,125.5c-0.1-0.4,0.1-0.6,0.2-0.8c0.1,0.3,0,0.3-0.1,0.3C326.4,125.1,326.3,125.1,326.4,125.5z"/>
		<path class="st2" d="M321.6,121.8l0.2,0.3C321.5,122,321.8,122.1,321.6,121.8z"/>
	</g>
	<g>
		<path class="st2" d="M335.8,127.9L335.8,127.9L335.8,127.9z"/>
		<path class="st2" d="M336.3,127.3c-0.1,0.2-0.3,0.4-0.5,0.5C335.9,127.7,335.9,127.2,336.3,127.3z"/>
		<path class="st2" d="M335.2,127.6l0.2-0.1C335.4,127.6,335.3,127.5,335.2,127.6z"/>
		<polygon class="st2" points="335.6,127.7 335.7,127.8 335.5,127.8 		"/>
		<path class="st2" d="M330.4,139c0.1,0,0.1,0,0.2,0.1L330.4,139z"/>
		<path class="st2" d="M329.6,139.2C329.6,139.2,329.5,139.2,329.6,139.2C329.5,139.2,329.5,139.2,329.6,139.2z"/>
		<path class="st2" d="M330.6,138.5L330.6,138.5C330.6,138.6,330.6,138.6,330.6,138.5z"/>
		<path class="st2" d="M333.4,133c0.1,0,0.3-0.1,0.3-0.1C333.7,133.1,333.5,133,333.4,133z"/>
		<path class="st2" d="M326.5,140.3L326.5,140.3C326.6,140.4,326.5,140.4,326.5,140.3z"/>
		<path class="st2" d="M327.9,138.3c0.1,0,0.1,0.1,0.1,0.1C328,138.4,328,138.4,327.9,138.3L327.9,138.3z"/>
		<path class="st2" d="M330.6,138.1L330.6,138.1L330.6,138.1C330.7,138.1,330.7,138.1,330.6,138.1z"/>
		<path class="st2" d="M326,140.9c-0.1,0-0.2,0-0.3,0C325.8,140.8,325.9,140.9,326,140.9z"/>
		<path class="st2" d="M329.5,139.3L329.5,139.3C329.5,139.2,329.5,139.2,329.5,139.3C329.5,139.2,329.5,139.2,329.5,139.3z"/>
		<path class="st2" d="M328.4,137.7l-0.1,0.1C328.3,137.7,328.4,137.7,328.4,137.7z"/>
		<path class="st2" d="M333.4,133h-0.1C333.3,132.9,333.3,132.9,333.4,133z"/>
		<path class="st2" d="M335.6,128.6c0,0.1-0.1,0-0.2,0C335.5,128.6,335.6,128.6,335.6,128.6z"/>
		<path class="st2" d="M319.1,138.5L319.1,138.5L319.1,138.5z"/>
		<path class="st2" d="M320.9,141C320.9,141,320.8,141,320.9,141C320.8,141,320.8,141,320.9,141z"/>
		<path class="st2" d="M324.7,141.2c-0.3,0-0.1-0.4-0.2-0.6l-0.1,0.1v-0.2l-0.1,0.1c-0.1-0.3-0.5-0.4-0.3-0.7l-0.2,0.2v-0.4
			l-0.1,0.3c-0.3-0.2-0.4-0.8-0.5-0.8l-0.1,0.1c-0.1,0-0.1-0.1-0.1-0.2l-0.1,0.2c-0.3-0.4-0.7-0.3-0.9-0.8c-0.1-0.1,0,0.1-0.1,0.2
			c-0.2,0-0.2-0.2-0.2-0.3c-0.2,0.2,0,0.3-0.2,0.4c0-0.2-0.1,0.2-0.2,0l0.2-0.3c-0.1-0.1-0.2,0.2-0.3,0c0-0.3,0.5-0.1,0.3-0.4
			c-0.1-0.1-0.9,0.3-1-0.1c-0.3-0.1-0.3,0.5-0.5,0.1v0.4c-0.1,0-0.2,0.2-0.3,0c0.1-0.1,0.1-0.3,0.1-0.4c0.1,0.5-0.5,0-0.6,0.5
			l-0.1-0.1c0,0,0,0,0,0.1l-0.1-0.1c0,0.1,0.2,0.4-0.1,0.4l-0.2-0.2c-0.1,0.2-0.2,0.2-0.3,0.3l0.2,0.8c0.1-0.1,0.1-0.2,0.2-0.3
			c0.2,0.1-0.1,0.3,0.2,0.3l0.1-0.2c0,0.1,0,0.1-0.1,0.1s-0.1-0.1,0-0.2c0.2-0.1,0.2,0.2,0.2,0.3c0.2,0.2,0.3-0.2,0.4-0.2
			c-0.2,0.3,0.3,0.3,0.3,0.5l0.1-0.2c0.3,0,0.3,0.2,0.3,0.4l0.1-0.2c0.2,0.2,0.7-0.1,0.3,0.5l0.1-0.1c0.1,0,0.3,0.1,0.3,0.3
			c0.1,0,0.1-0.1,0.2-0.1c-0.1,0.2,0.1,0.2,0.2,0.3c0-0.1,0.2-0.3,0.2-0.4c0.4,0-0.1,0.4,0,0.6c0.2,0,0.1-0.2,0.1-0.3
			c0.1,0.4,1,0,0.6,0.6h-0.2c0,0.2,0,0.2,0.1,0.2v-0.1c0.5,0.1,0,0.8,0.4,1c0.1-0.1,0.1-0.2,0.1-0.2c0.2,0.1-0.3,0.5,0,0.6l0.1-0.1
			c0.1,0,0,0.2,0,0.2c0.2-0.2,0.3-0.1,0.4,0.1c0.2,0.2,0.4,0.4,0.7,0.2c-0.1,0.4,0.2,1,0.4,1c0.3-0.2,0-0.5,0.2-0.8
			c0.1,0.1,0,0.5,0.2,0.6c0,0.2-0.2,0.3-0.3,0.4c-0.1,0.1-0.1,0.2,0,0.5l0.1-0.1c0,0-0.1,0-0.2-0.1c0-0.3,0.1-0.2,0.2-0.2l0.3,0.5
			c0,0.5-0.3,0.1-0.3,0.2c0.2,0.1,0.4,0.2,0.5,0.2c0.2,0,0.3,0.1,0.5,0.4v-0.2c0.1,0.2,0.1,0.3,0.2,0.3c0.1-0.3,0-0.9,0.2-0.5
			c0.1-0.3-0.1-0.5,0-0.7c0-0.1,0.1,0.1,0.1,0.2c0.2-0.2,0-0.5,0.2-0.4c-0.1-0.1-0.1-0.3-0.2-0.4c0.1,0,0.3,0.1,0.5,0.1
			s0.4-0.1,0.4-0.3c-0.2-0.2-0.3,0-0.4-0.1c0.2,0.1,0.4-0.2,0.6-0.5c0.1-0.3,0.3-0.5,0.5-0.6c0.1,0.2,0.5,0.1,0.6,0.4
			c-0.3-0.1-0.2,0.2-0.4,0.3c0.8,0,0.2-1,0.8-0.8l-0.2-0.2c0.1,0,0.3-0.1,0.3,0.1l0.1-0.4c-0.2,0-0.8,0-0.6,0.3
			c-0.3,0-0.1-0.2-0.4-0.3c0.5,0-0.1-0.2,0.2-0.4c0.3,0.3,0.6,0,0.7,0.1c0-0.1,0.2-0.2,0.4-0.2c0.1-0.1,0-0.6,0.3-0.8
			c-0.2,0-0.4,0.1-0.6-0.1c0.2,0,0.3-0.2,0-0.3c-0.7,0.1,0.5,0.5,0,0.6c-0.3-0.1-0.5,0-0.6,0.1c-0.1-0.2-0.2-0.2-0.4-0.3
			c0.7,0.1,0.4-0.5,0.9-0.7c0.2,0,0.5,0.3,0.8,0v0.3c0-0.4,0.2,0,0.4-0.1h-0.2c0-0.2,0.1-0.2,0.3-0.2l-0.4-0.1c0-0.1,0-0.2,0.2-0.1
			c-0.1-0.1-0.1-0.1-0.2-0.1c0.1,0,0.1,0,0.1-0.1c-0.1,0-0.1,0.1-0.2,0c0.3-0.3-0.3-0.3-0.1-0.4c-0.1,0-0.1-0.1-0.1-0.2
			c0.5,0.3,0.7-0.1,1.1,0l0,0l0.3-0.2c-0.1,0-0.2-0.1-0.2-0.2l0,0c0-0.1-0.6-0.2-0.3-0.4l0.2-0.1l-0.1-0.1l0.2-0.1
			c-0.3-0.5,0.5-0.3,0.4-0.6c0,0.1-0.1,0.2-0.2,0.1c0-0.1,0.1-0.1,0.2-0.1h-0.1l0.6-0.3c-0.2-0.1-0.3,0.2-0.4,0
			c-0.2-0.2,0.1-0.2,0.2-0.3c0.1,0.1,0.1,0.3,0.3,0.2c0-0.1-0.1-0.3-0.2-0.3c0.2-0.1,0.4-0.3,0.7-0.3c0-0.1-0.1,0-0.1,0l0,0
			c-0.1,0.1-0.3-0.2-0.3,0.1c-0.4-0.2,0.1-0.3,0.1-0.5l-0.4,0.1c-0.3-0.8,0.7-1,1-1.5c0,0.2-0.1,0.2,0.2,0.4
			c0.3-0.2,0.2-0.2,0.5-0.4l0,0c-0.1-0.2,0.4-0.3,0.1-0.5c-0.2,0,0,0.3-0.3,0.1l0.2-0.3c-0.3,0-0.2,0.3-0.4,0.4c0,0.1,0.2-0.2,0.4,0
			c-0.2,0.3-0.5,0.3-0.9,0.2c-0.3,0-0.2-0.3-0.1-0.4c0.5,0,0.8-0.2,0.9-0.6l-0.2-0.3c0.3,0,0.8,0.3,0.9,0h-0.2c0-0.1,0-0.2,0-0.2
			c-0.2,0-0.5,0.1-0.7,0.1c-0.3-0.4,0.5-0.4,0.7-0.6c-0.1,0-0.1,0.1-0.2,0c0.1-0.4,0.8-0.5,1.1-0.8c-0.1-0.2-0.3,0.2-0.5,0
			c0.2-0.1,0.1-0.4,0.3-0.3c-0.4-0.1,0.2-0.4-0.3-0.3c0.2-0.6,0.8-1,1.3-1.4c-0.1,0-0.2-0.1-0.3-0.2c-0.1,0.2-0.4,0.4-0.7,0.4
			c-0.1-0.2,0.4-0.1,0.3-0.2c-0.1,0-0.2,0.1-0.4,0c-0.1-0.3,0.2-0.2,0.3-0.3l0.1,0.1c0.4-0.2,0.7,0.2,0.8-0.3
			c-0.1-0.3-0.2-0.1-0.4-0.3c0.2,0,0-0.5,0.4-0.4l-0.1,0.2c0.2-0.1,0.3-0.3,0.4-0.3c-0.1,0-0.1,0-0.2,0c0.2-0.1,0.2-0.2,0.4-0.2
			l-0.3-0.2c0.1,0.1,0,0.4-0.2,0.3c-0.2-0.2,0.1-0.3,0.1-0.4c-0.3,0.4-0.8,0.1-0.8,0.6h0.1c0.1,0.3-0.4,0.4-0.5,0.6
			c0-0.1-0.1-0.2-0.2-0.2c0,0.6-0.5,0.9-0.6,1.5H333l0.2,0.1c-0.1,0.3-0.3-0.1-0.4,0c0-0.1,0.1,0,0.1,0c-0.4,0.1,0.1,0.3-0.1,0.4
			c0.3,0.1,0.3-0.3,0.5,0c-0.4,0.1-0.5,0.7-1.1,0.4c-0.1,0.6-0.8,1.1-1.1,1.5c0.1,0.1,0.1,0,0.1,0.1c-0.4,0-0.1,0.7-0.4,0.5
			c0,0.1,0.2,0.3,0.2,0.3c-0.2,0-0.3,0.1-0.4,0.3l0.1-0.1l0,0l-0.2,0.1l0,0c-0.3,0.3-0.5,0.8-0.9,0.9c0.3-0.1,0.3,0.2,0.4,0.2
			c-0.5-0.1-0.7,0.3-0.9,0.6c0.1,0,0.1,0.1,0.2,0.1l-0.3,0.1h0.1c-0.1,0.4-0.8,0.5-0.7,0.8c0.1-0.1,0.2-0.1,0.4,0
			c-0.2,0.2-0.3,0.4-0.6,0.6h0.1c0,0.1-0.2,0.1-0.3,0.2l0.2,0.1c-0.2,0.1-0.2,0.3-0.4,0.4c0.2,0.2-0.4,0.3-0.5,0.5
			c-0.1,0,0.3,0,0.2,0.2c-0.5-0.2-0.2,0.3-0.7,0l0.1,0.3l-0.3-0.1c0.4,0.4-0.3,0.1-0.3,0.4c0.1,0,0.1,0,0.1,0c-0.1,0-0.2,0.2-0.3,0
			c-0.1,0.1-0.4,0.5-0.1,0.4c-0.1-0.1,0.1-0.2,0.2-0.2c0.2,0.1,0,0.3,0.2,0.4h-0.1l0.1,0.1c-0.4,0.1-0.3,0.4-0.7,0.4
			c0.1,0,0.1,0.1,0,0.2l-0.3-0.2l-0.1,0.2l0.4,0.1c0,0.2-0.2,0.2-0.4,0.3c-0.1,0-0.2-0.1-0.3-0.1c0.2,0.2,0.1,0.2,0.1,0.1
			c-0.1,0-0.1-0.1,0,0.2l0.1,0.1c-0.1,0,0,0.1,0,0.2c0,0.1,0,0.1-0.1,0.1c0-0.1,0-0.2,0-0.2c0-0.1,0-0.2-0.2-0.4c0.1,0.1,0,0.1,0,0
			s0-0.1,0,0.1c0,0.2,0.1,0.3,0.1,0.5c-0.1-0.4,0,0.1-0.1-0.4c0,0.2,0.1,0.6,0.1,0.7V142c0-0.2-0.1-0.4-0.1-0.6v0.1
			c0,0.3-0.1,0.3-0.1,0.2c0,0,0-0.2,0-0.3s0-0.2,0.1-0.3c0-0.1,0-0.1,0,0l-0.1,0.1c0-0.1,0.1-0.1,0.2-0.2c-0.1,0.1-0.1,0.1-0.1,0.1
			s0,0-0.1,0L324.7,141.2l-0.1-0.7C324.8,141,324.6,141.2,324.7,141.2z M326,141.1L326,141.1c0.1-0.1,0.1-0.1,0.1-0.2L326,141.1
			C326.1,141.1,326.2,141.2,326,141.1z M332.3,131.8c0.1,0,0,0.1,0,0.1l0.1-0.2C332.4,131.7,332.3,131.8,332.3,131.8z M327.7,142.1
			l0.1,0.2h-0.2L327.7,142.1z M326.7,143.8c0.1,0,0.1,0,0.2-0.1v0.1C326.9,143.8,326.8,143.8,326.7,143.8L326.7,143.8z M325.4,142.7
			C325.4,142.8,325.4,142.8,325.4,142.7C325.4,142.8,325.4,142.8,325.4,142.7c0-0.3,0,0.3-0.1-0.3
			C325.3,142,325.4,142.5,325.4,142.7z M326,141.8C326.1,141.8,326.1,141.8,326,141.8C326.1,141.8,326.1,141.8,326,141.8
			c0-0.1-0.1-0.1-0.1-0.1c-0.1,0-0.1-0.1-0.1-0.1c0.1,0,0.3-0.1,0.5,0C326,141.6,326.4,142,326,141.8z M328.2,138.4L328.2,138.4h0.2
			H328.2z M328.8,137.9c0.3,0.1,0.3-0.2,0.5-0.3c-0.2-0.1-0.5-0.1-0.5,0C328.4,137.7,329,137.9,328.8,137.9z M326,142.7l0.1,0.2l0,0
			h0.1c0,0.2,0,0.2-0.1,0.2c-0.1-0.1-0.2-0.2-0.2-0.2S326.2,143.2,326,142.7z M329.7,136.6c0.2-0.1,0.5-0.2,0.7-0.1
			C330.1,136.3,329.8,136.4,329.7,136.6C329.8,136.6,329.7,136.6,329.7,136.6z M330.2,136.9c-0.2,0.1-0.4,0-0.8,0
			c0-0.3,0.4-0.1,0.5,0c0.2-0.1,0-0.1,0-0.2L330.2,136.9z M329.3,136.6v0.1c0.1,0.2,0.4,0.4,0,0.3v-0.3
			C329.3,136.7,329.3,136.7,329.3,136.6z M330.3,135h-0.1C330.2,135,330.2,135,330.3,135h0.1C330.4,135.2,330.4,135.1,330.3,135z
			 M329.6,136.3l-0.2,0.2C329.6,136.6,329.6,136.4,329.6,136.3z M330.5,135.2c0,0.1-0.2,0.4-0.1,0.3
			C330.2,135.4,330.4,135.2,330.5,135.2z M334,130.4l-0.1,0.1l-0.2-0.2L334,130.4z M333.1,132.2L333.1,132.2V132V132.2z
			 M332.2,133.7c0,0-0.1-0.1-0.2-0.1h-0.1h0.1c0.1,0,0.1-0.1,0.1-0.2c-0.1,0-0.2,0.1-0.2,0.1c-0.2-0.3,0.8-0.2,0-0.5
			c0.1,0,0.4-0.1,0.5,0C332.2,133.2,332.1,133.5,332.2,133.7C332.2,133.8,332.2,133.8,332.2,133.7
			C332.2,133.8,332.2,133.8,332.2,133.7z M331.1,136c-0.1,0-0.1,0.1-0.1,0.1c-0.1,0-0.2,0-0.3-0.1c0.2-0.1,0.2,0.1,0.3,0.1
			C331,136,331,136,331.1,136z M330.9,136.4l0.2-0.1h-0.2l0.5-0.1C331.4,136.4,331.1,136.4,330.9,136.4z M331,136.5l-0.2-0.1
			L331,136.5L331,136.5L331,136.5l-0.2,0.3L331,136.5z M328.6,139.7c0.5,0.5,0.6,0,0.9,0.1c-0.2-0.1-0.4-0.4-0.6-0.1
			c0-0.4,0.5,0,0.1-0.4c0,0.2-0.3,0.2-0.3,0.2l0.1-0.2C328.4,139.1,328.8,139.6,328.6,139.7z M327.7,141.4l-0.1,0.2L327.7,141.4
			L327.7,141.4z M324.3,143.7c0,0.1-0.1,0.1-0.2,0.1s-0.2-0.1-0.1-0.3C324.1,143.6,324.2,143.7,324.3,143.7z M322.6,141.6l0.1,0.3
			c-0.3,0.2-0.1-0.2-0.3-0.2C322.5,141.5,322.5,141.7,322.6,141.6z M321.5,140.3v-0.1l-0.2,0.3L321.5,140.3z M321.2,140.7
			c-0.2,0.1-0.1,0.3,0,0.3V140.7z M319.9,139.7L319.9,139.7l0.3-0.2L319.9,139.7z M320.3,139.6c-0.2,0.2-0.4,0.4-0.1,0.5
			c0.2-0.1,0.1-0.2,0.4-0.3C320.6,139.7,320.5,139.7,320.3,139.6c0.1,0.2,0.2,0.2,0.1,0.3C320.3,139.8,320.3,139.7,320.3,139.6
			c0.1-0.1,0.1-0.1,0.1-0.2C320.4,139.5,320.3,139.6,320.3,139.6z M321.1,140.2h0.1H321.1L321.1,140.2H321c-0.2,0.1-0.2,0.3-0.2,0.4
			c0-0.1,0.1-0.3-0.1-0.3c0,0.1-0.1,0.1,0,0.1l-0.1-0.1c0.1-0.3,0.3-0.2,0.5-0.2C321,140.1,321.1,140.1,321.1,140.2
			C321.2,140.1,321.1,140.1,321.1,140.2z M320.7,138.9v0.1c0,0.1-0.1,0.1-0.1,0.2C320.5,139.1,320.5,138.9,320.7,138.9z M324,142.7
			c-0.1,0-0.2,0.3,0,0.3c-0.1,0.1-0.2,0.1-0.2,0.2c0.1-0.2-0.1-0.3-0.1-0.4C323.9,142.6,323.8,142.8,324,142.7z M327.1,142
			c0.3,0.2,0.3-0.2,0.4-0.2C327.5,141.9,327.4,142.3,327.1,142z M327.2,141.4c0-0.1,0-0.1,0.2,0c0.1,0,0-0.1,0.1-0.1
			C327.6,141.6,327.4,141.4,327.2,141.4C327.2,141.5,327.2,141.5,327.2,141.4C327.2,141.5,327.2,141.5,327.2,141.4z M325.7,144
			c0-0.1-0.1-0.2-0.1-0.4l-0.1,0.1C325.6,143.8,325.6,143.9,325.7,144z M324.9,142.6c0,0.2-0.1,0.1-0.1,0c-0.1,0.2,0,0.3,0,0.4v0.1
			V143C324.8,142.9,324.8,142.8,324.9,142.6L324.9,142.6L324.9,142.6L324.9,142.6z M323.1,140.3c-0.2,0-0.2,0-0.2-0.1
			C323,140.1,323.1,140.2,323.1,140.3z M325.3,142.8c-0.1,0.1,0,0.5,0,0.6h0.1c-0.1,0.2,0-0.4-0.1-0.4l0,0c0-0.3,0-0.3,0-0.5
			C325.2,142.5,325.3,142.8,325.3,142.8z M323.1,140c-0.3,0,0-0.3,0-0.4C323.3,139.7,323,139.9,323.1,140z M325.1,141.7L325.1,141.7
			c0-0.1,0-0.1,0.1-0.2l0,0C325.2,141.6,325.1,141.7,325.1,141.7z"/>
		<path class="st2" d="M321.3,141.2L321.3,141.2L321.3,141.2z"/>
		<path class="st2" d="M328.7,141.7L328.7,141.7L328.7,141.7z"/>
		<path class="st2" d="M329.1,141.4L329.1,141.4L329.1,141.4L329.1,141.4z"/>
		<path class="st2" d="M335.8,128.8c0.3,0.1,0,0.1,0,0.2C335.8,128.9,335.7,128.8,335.8,128.8z"/>
		<path class="st2" d="M335.1,129.1c0.1,0,0.2,0,0.2-0.1C335.3,129.1,335.3,129.1,335.1,129.1z"/>
		<path class="st2" d="M335.5,128.8c0,0.1,0,0.2-0.1,0.3C335.4,128.9,335.3,128.8,335.5,128.8z"/>
		<path class="st2" d="M334.4,130.4c0.2,0,0.2-0.2,0.2-0.2c-0.1,0.4,0.3,0.1,0.4,0.1C334.9,130.5,334.7,130.4,334.4,130.4z"/>
		<path class="st2" d="M334.1,130.8v-0.1C334.2,130.7,334.2,130.8,334.1,130.8z"/>
		<path class="st2" d="M334.2,131c-0.1,0.1-0.3,0-0.4,0c0-0.2,0.3-0.1,0.4-0.2C334.1,130.9,334,130.9,334.2,131z"/>
		<path class="st2" d="M332.9,134.8c0,0,0.1-0.1,0.2,0L333,135C332.9,135,332.9,134.8,332.9,134.8z"/>
		<path class="st2" d="M332.1,135.2c-0.1,0.1,0.2,0.2,0.1,0.2l-0.3-0.2H332.1z"/>
		<path class="st2" d="M330.7,134.2L330.7,134.2L330.7,134.2L330.7,134.2z"/>
		<path class="st2" d="M332,136.1l0.4,0.1C332.2,136.2,331.9,136.1,332,136.1z"/>
		<polygon class="st2" points="331.9,136.8 332,136.7 331.8,136.9 		"/>
		<polygon class="st2" points="331.3,137.3 331.4,137.4 331.2,137.5 		"/>
		<path class="st2" d="M326.4,145c-0.1-0.4,0.1-0.6,0.2-0.8c0.1,0.3,0,0.3-0.1,0.3C326.4,144.6,326.3,144.7,326.4,145z"/>
		<path class="st2" d="M321.6,141.4l0.2,0.3C321.5,141.5,321.8,141.6,321.6,141.4z"/>
	</g>
	<g>
		<path class="st2" d="M335.8,146.7L335.8,146.7C335.8,146.8,335.8,146.8,335.8,146.7z"/>
		<path class="st2" d="M336.3,146.2c-0.1,0.2-0.3,0.4-0.5,0.5C335.9,146.5,335.9,146,336.3,146.2z"/>
		<path class="st2" d="M335.2,146.5l0.2-0.1C335.4,146.5,335.3,146.4,335.2,146.5z"/>
		<polygon class="st2" points="335.6,146.6 335.7,146.7 335.5,146.7 		"/>
		<path class="st2" d="M330.4,157.9c0.1,0,0.1,0,0.2,0.1L330.4,157.9z"/>
		<path class="st2" d="M329.6,158C329.6,158,329.5,158.1,329.6,158C329.5,158.1,329.5,158,329.6,158z"/>
		<path class="st2" d="M330.6,157.4L330.6,157.4C330.6,157.5,330.6,157.4,330.6,157.4z"/>
		<path class="st2" d="M333.4,151.8c0.1,0,0.3-0.1,0.3-0.1C333.7,151.9,333.5,151.8,333.4,151.8z"/>
		<path class="st2" d="M326.5,159.2L326.5,159.2C326.6,159.2,326.5,159.2,326.5,159.2z"/>
		<path class="st2" d="M327.9,157.2c0.1,0,0.1,0.1,0.1,0.1S328,157.3,327.9,157.2L327.9,157.2z"/>
		<path class="st2" d="M330.6,156.9L330.6,156.9L330.6,156.9C330.7,156.9,330.7,157,330.6,156.9z"/>
		<path class="st2" d="M326,159.8c-0.1,0-0.2,0-0.3,0C325.8,159.7,325.9,159.7,326,159.8z"/>
		<path class="st2" d="M329.5,158.1L329.5,158.1L329.5,158.1L329.5,158.1z"/>
		<path class="st2" d="M328.4,156.5l-0.1,0.1L328.4,156.5z"/>
		<path class="st2" d="M333.4,151.8h-0.1C333.3,151.8,333.3,151.8,333.4,151.8z"/>
		<path class="st2" d="M335.6,147.4c0,0.1-0.1,0-0.2,0C335.5,147.4,335.6,147.4,335.6,147.4z"/>
		<path class="st2" d="M319.1,157.4L319.1,157.4C319.1,157.3,319.1,157.3,319.1,157.4z"/>
		<path class="st2" d="M320.9,159.8C320.9,159.8,320.8,159.9,320.9,159.8C320.8,159.9,320.8,159.8,320.9,159.8z"/>
		<path class="st2" d="M324.7,160.1c-0.3,0-0.1-0.4-0.2-0.6l-0.1,0.1v-0.2l-0.1,0.1c-0.1-0.3-0.5-0.4-0.3-0.7l-0.2,0.2v-0.4
			l-0.1,0.3c-0.3-0.2-0.4-0.8-0.5-0.8l-0.1,0.1c-0.1,0-0.1-0.1-0.1-0.2l-0.1,0.2c-0.3-0.4-0.7-0.3-0.9-0.8c-0.1-0.1,0,0.1-0.1,0.2
			c-0.2,0-0.2-0.2-0.2-0.3c-0.2,0.2,0,0.3-0.2,0.4c0-0.2-0.1,0.2-0.2,0l0.2-0.3c-0.1-0.1-0.2,0.2-0.3,0c0-0.3,0.5-0.1,0.3-0.4
			c-0.1-0.1-0.9,0.3-1-0.1c-0.3-0.1-0.3,0.5-0.5,0.1v0.4c-0.1,0-0.2,0.2-0.3,0c0.1-0.1,0.1-0.3,0.1-0.4c0.1,0.5-0.5,0-0.6,0.5
			l-0.1-0.1c0,0,0,0,0,0.1l-0.1-0.1c0,0.1,0.2,0.4-0.1,0.4l-0.2-0.2c-0.1,0.2-0.2,0.2-0.3,0.3l0.2,0.8c0.1-0.1,0.1-0.2,0.2-0.3
			c0.2,0.1-0.1,0.3,0.2,0.3l0.1-0.2c0,0.1,0,0.1-0.1,0.1s-0.1-0.1,0-0.2c0.2-0.1,0.2,0.2,0.2,0.3c0.2,0.2,0.3-0.2,0.4-0.2
			c-0.2,0.3,0.3,0.3,0.3,0.5l0.1-0.2c0.3,0,0.3,0.2,0.3,0.4l0.1-0.2c0.2,0.2,0.7-0.1,0.3,0.5l0.1-0.1c0.1,0,0.3,0.1,0.3,0.3
			c0.1,0,0.1-0.1,0.2-0.1c-0.1,0.2,0.1,0.2,0.2,0.3c0-0.1,0.2-0.3,0.2-0.4c0.4,0-0.1,0.4,0,0.6c0.2,0,0.1-0.2,0.1-0.3
			c0.1,0.4,1,0,0.6,0.6h-0.2c0,0.2,0,0.2,0.1,0.2v-0.1c0.5,0.1,0,0.8,0.4,1c0.1-0.1,0.1-0.2,0.1-0.2c0.2,0.1-0.3,0.5,0,0.6l0.1-0.1
			c0.1,0,0,0.2,0,0.2c0.2-0.2,0.3-0.1,0.4,0.1c0.2,0.2,0.4,0.4,0.7,0.2c-0.1,0.4,0.2,1,0.4,1c0.3-0.2,0-0.5,0.2-0.8
			c0.1,0.1,0,0.5,0.2,0.6c0,0.2-0.2,0.3-0.3,0.4c-0.1,0.1-0.1,0.2,0,0.5l0.1-0.1c0,0-0.1,0-0.2-0.1c0-0.3,0.1-0.2,0.2-0.2l0.3,0.5
			c0,0.5-0.3,0.1-0.3,0.2c0.2,0.1,0.4,0.2,0.5,0.2c0.2,0,0.3,0.1,0.5,0.4v-0.2c0.1,0.2,0.1,0.3,0.2,0.3c0.1-0.3,0-0.9,0.2-0.5
			c0.1-0.3-0.1-0.5,0-0.7c0-0.1,0.1,0.1,0.1,0.2c0.2-0.2,0-0.5,0.2-0.4c-0.1-0.1-0.1-0.3-0.2-0.4c0.1,0,0.3,0.1,0.5,0.1
			s0.4-0.1,0.4-0.3c-0.2-0.2-0.3,0-0.4-0.1c0.2,0.1,0.4-0.2,0.6-0.5c0.1-0.3,0.3-0.5,0.5-0.6c0.1,0.2,0.5,0.1,0.6,0.4
			c-0.3-0.1-0.2,0.2-0.4,0.3c0.8,0,0.2-1,0.8-0.8l-0.2-0.2c0.1,0,0.3-0.1,0.3,0.1l0.1-0.4c-0.2,0-0.8,0-0.6,0.3
			c-0.3,0-0.1-0.2-0.4-0.3c0.5,0-0.1-0.2,0.2-0.4c0.3,0.3,0.6,0,0.7,0.1c0-0.1,0.2-0.2,0.4-0.2c0.1-0.1,0-0.6,0.3-0.8
			c-0.2,0-0.4,0.1-0.6-0.1c0.2,0,0.3-0.2,0-0.3c-0.7,0.1,0.5,0.5,0,0.6c-0.3-0.1-0.5,0-0.6,0.1c-0.1-0.2-0.2-0.2-0.4-0.3
			c0.7,0.1,0.4-0.5,0.9-0.7c0.2,0,0.5,0.3,0.8,0v0.3c0-0.4,0.2,0,0.4-0.1h-0.2c0-0.2,0.1-0.2,0.3-0.2l-0.4-0.1c0-0.1,0-0.2,0.2-0.1
			c-0.1-0.1-0.1-0.1-0.2-0.1c0.1,0,0.1,0,0.1-0.1c-0.1,0-0.1,0.1-0.2,0c0.3-0.3-0.3-0.3-0.1-0.4c-0.1,0-0.1-0.1-0.1-0.2
			c0.5,0.3,0.7-0.1,1.1,0l0,0l0.3-0.2c-0.1,0-0.2-0.1-0.2-0.2l0,0c0-0.1-0.6-0.2-0.3-0.4l0.2-0.1l-0.1-0.1l0.2-0.1
			c-0.3-0.5,0.5-0.3,0.4-0.6c0,0.1-0.1,0.2-0.2,0.1c0-0.1,0.1-0.1,0.2-0.1h-0.1l0.6-0.3c-0.2-0.1-0.3,0.2-0.4,0
			c-0.2-0.2,0.1-0.2,0.2-0.3c0.1,0.1,0.1,0.3,0.3,0.2c0-0.1-0.1-0.3-0.2-0.3c0.2-0.1,0.4-0.3,0.7-0.3c0-0.1-0.1,0-0.1,0l0,0
			c-0.1,0.1-0.3-0.2-0.3,0.1c-0.4-0.2,0.1-0.3,0.1-0.5l-0.4,0.1c-0.3-0.8,0.7-1,1-1.5c0,0.2-0.1,0.2,0.2,0.4
			c0.3-0.2,0.2-0.2,0.5-0.4l0,0c-0.1-0.2,0.4-0.3,0.1-0.5c-0.2,0,0,0.3-0.3,0.1l0.2-0.3c-0.3,0-0.2,0.3-0.4,0.4c0,0.1,0.2-0.2,0.4,0
			c-0.2,0.3-0.5,0.3-0.9,0.2c-0.3,0-0.2-0.3-0.1-0.4c0.5,0,0.8-0.2,0.9-0.6l-0.2-0.3c0.3,0,0.8,0.3,0.9,0h-0.2c0-0.1,0-0.2,0-0.2
			c-0.2,0-0.5,0.1-0.7,0.1c-0.3-0.4,0.5-0.4,0.7-0.6c-0.1,0-0.1,0.1-0.2,0c0.1-0.4,0.8-0.5,1.1-0.8c-0.1-0.2-0.3,0.2-0.5,0
			c0.2-0.1,0.1-0.4,0.3-0.3c-0.4-0.1,0.2-0.4-0.3-0.3c0.2-0.6,0.8-1,1.3-1.4c-0.1,0-0.2-0.1-0.3-0.2c-0.1,0.2-0.4,0.4-0.7,0.4
			c-0.1-0.2,0.4-0.1,0.3-0.2c-0.1,0-0.2,0.1-0.4,0c-0.1-0.3,0.2-0.2,0.3-0.3l0.1,0.1c0.4-0.2,0.7,0.2,0.8-0.3
			c-0.1-0.3-0.2-0.1-0.4-0.3c0.2,0,0-0.5,0.4-0.4l-0.1,0.2c0.2-0.1,0.3-0.3,0.4-0.3c-0.1,0-0.1,0-0.2,0c0.2-0.1,0.2-0.2,0.4-0.2
			l-0.3-0.2c0.1,0.1,0,0.4-0.2,0.3c-0.2-0.2,0.1-0.3,0.1-0.4c-0.3,0.4-0.8,0.1-0.8,0.6h0.1c0.1,0.3-0.4,0.4-0.5,0.6
			c0-0.1-0.1-0.2-0.2-0.2c0,0.6-0.5,0.9-0.6,1.5H333l0.2,0.1c-0.1,0.3-0.3-0.1-0.4,0c0-0.1,0.1,0,0.1,0c-0.4,0.1,0.1,0.3-0.1,0.4
			c0.3,0.1,0.3-0.3,0.5,0c-0.4,0.1-0.5,0.7-1.1,0.4c-0.1,0.6-0.8,1.1-1.1,1.5c0.1,0.1,0.1,0,0.1,0.1c-0.4,0-0.1,0.7-0.4,0.5
			c0,0.1,0.2,0.3,0.2,0.3c-0.2,0-0.3,0.1-0.4,0.3l0.1-0.1l0,0l-0.2,0.1l0,0c-0.3,0.3-0.5,0.8-0.9,0.9c0.3-0.1,0.3,0.2,0.4,0.2
			c-0.5-0.1-0.7,0.3-0.9,0.6c0.1,0,0.1,0.1,0.2,0.1L329,155h0.1c-0.1,0.4-0.8,0.5-0.7,0.8c0.1-0.1,0.2-0.1,0.4,0
			c-0.2,0.2-0.3,0.4-0.6,0.6h0.1c0,0.1-0.2,0.1-0.3,0.2l0.2,0.1c-0.2,0.1-0.2,0.3-0.4,0.4c0.2,0.2-0.4,0.3-0.5,0.5
			c-0.1,0,0.3,0,0.2,0.2c-0.5-0.2-0.2,0.3-0.7,0l0.1,0.3l-0.3-0.1c0.4,0.4-0.3,0.1-0.3,0.4c0.1,0,0.1,0,0.1,0c-0.1,0-0.2,0.2-0.3,0
			c-0.1,0.1-0.4,0.5-0.1,0.4c-0.1-0.1,0.1-0.2,0.2-0.2c0.2,0.1,0,0.3,0.2,0.4h-0.1l0.1,0.1c-0.4,0.1-0.3,0.4-0.7,0.4
			c0.1,0,0.1,0.1,0,0.2l-0.3-0.2l-0.1,0.2l0.4,0.1c0,0.2-0.2,0.2-0.4,0.3c-0.1,0-0.2-0.1-0.3-0.1c0.2,0.2,0.1,0.2,0.1,0.1
			c-0.1,0-0.1-0.1,0,0.2l0.1,0.1c-0.1,0,0,0.1,0,0.2c0,0.1,0,0.1-0.1,0.1c0-0.1,0-0.2,0-0.2c0-0.1,0-0.2-0.2-0.4c0.1,0.1,0,0.1,0,0
			s0-0.1,0,0.1c0,0.2,0.1,0.3,0.1,0.5c-0.1-0.4,0,0.1-0.1-0.4c0,0.2,0.1,0.6,0.1,0.7v-0.1c0-0.2-0.1-0.4-0.1-0.6v0.1
			c0,0.3-0.1,0.3-0.1,0.2c0,0,0-0.2,0-0.3s0-0.2,0.1-0.3c0-0.1,0-0.1,0,0l-0.1,0.1c0-0.1,0.1-0.1,0.2-0.2c-0.1,0.1-0.1,0.1-0.1,0.1
			s0,0-0.1,0L324.7,160.1l-0.1-0.7C324.8,159.8,324.6,160,324.7,160.1z M326,160L326,160c0.1-0.1,0.1-0.1,0.1-0.2L326,160
			C326.1,160,326.2,160.1,326,160z M332.3,150.7c0.1,0,0,0.1,0,0.1l0.1-0.2C332.4,150.6,332.3,150.6,332.3,150.7z M327.7,161
			l0.1,0.2h-0.2L327.7,161z M326.7,162.6c0.1,0,0.1,0,0.2-0.1v0.1C326.9,162.7,326.8,162.7,326.7,162.6L326.7,162.6z M325.4,161.6
			L325.4,161.6L325.4,161.6c0-0.3,0,0.3-0.1-0.3C325.3,160.9,325.4,161.3,325.4,161.6z M326,160.6
			C326.1,160.6,326.1,160.6,326,160.6C326.1,160.6,326.1,160.6,326,160.6c0-0.1-0.1-0.1-0.1-0.1c-0.1,0-0.1-0.1-0.1-0.1
			c0.1,0,0.3-0.1,0.5,0C326,160.5,326.4,160.9,326,160.6z M328.2,157.3L328.2,157.3h0.2H328.2z M328.8,156.7
			c0.3,0.1,0.3-0.2,0.5-0.3c-0.2-0.1-0.5-0.1-0.5,0C328.4,156.6,329,156.7,328.8,156.7z M326,161.5l0.1,0.2l0,0h0.1
			c0,0.2,0,0.2-0.1,0.2c-0.1-0.1-0.2-0.2-0.2-0.2S326.2,162,326,161.5z M329.7,155.4c0.2-0.1,0.5-0.2,0.7-0.1
			C330.1,155.2,329.8,155.3,329.7,155.4C329.8,155.4,329.7,155.4,329.7,155.4z M330.2,155.8c-0.2,0.1-0.4,0-0.8,0
			c0-0.3,0.4-0.1,0.5,0c0.2-0.1,0-0.1,0-0.2L330.2,155.8z M329.3,155.5v0.1c0.1,0.2,0.4,0.4,0,0.3v-0.3V155.5z M330.3,153.9h-0.1
			C330.2,153.8,330.2,153.8,330.3,153.9h0.1C330.4,154.1,330.4,153.9,330.3,153.9z M329.6,155.2l-0.2,0.2
			C329.6,155.4,329.6,155.3,329.6,155.2z M330.5,154.1c0,0.1-0.2,0.4-0.1,0.3C330.2,154.3,330.4,154.1,330.5,154.1z M334,149.2
			l-0.1,0.1l-0.2-0.2L334,149.2z M333.1,151L333.1,151v-0.2V151z M332.2,152.6c0,0-0.1-0.1-0.2-0.1h-0.1h0.1c0.1,0,0.1-0.1,0.1-0.2
			c-0.1,0-0.2,0.1-0.2,0.1c-0.2-0.3,0.8-0.2,0-0.5c0.1,0,0.4-0.1,0.5,0C332.2,152,332.1,152.4,332.2,152.6
			C332.2,152.6,332.2,152.7,332.2,152.6C332.2,152.7,332.2,152.6,332.2,152.6z M331.1,154.8c-0.1,0-0.1,0.1-0.1,0.1
			c-0.1,0-0.2,0-0.3-0.1c0.2-0.1,0.2,0.1,0.3,0.1C331,154.9,331,154.8,331.1,154.8z M330.9,155.2l0.2-0.1h-0.2l0.5-0.1
			C331.4,155.2,331.1,155.3,330.9,155.2z M331,155.4l-0.2-0.1L331,155.4L331,155.4L331,155.4l-0.2,0.3L331,155.4z M328.6,158.5
			c0.5,0.5,0.6,0,0.9,0.1c-0.2-0.1-0.4-0.4-0.6-0.1c0-0.4,0.5,0,0.1-0.4c0,0.2-0.3,0.2-0.3,0.2l0.1-0.2
			C328.4,158,328.8,158.5,328.6,158.5z M327.7,160.2l-0.1,0.2L327.7,160.2L327.7,160.2z M324.3,162.5c0,0.1-0.1,0.1-0.2,0.1
			s-0.2-0.1-0.1-0.3C324.1,162.4,324.2,162.6,324.3,162.5z M322.6,160.5l0.1,0.3c-0.3,0.2-0.1-0.2-0.3-0.2
			C322.5,160.4,322.5,160.5,322.6,160.5z M321.5,159.2v-0.1l-0.2,0.3L321.5,159.2z M321.2,159.6c-0.2,0.1-0.1,0.3,0,0.3V159.6z
			 M319.9,158.6L319.9,158.6l0.3-0.2L319.9,158.6z M320.3,158.5c-0.2,0.2-0.4,0.4-0.1,0.5c0.2-0.1,0.1-0.2,0.4-0.3
			C320.6,158.6,320.5,158.6,320.3,158.5c0.1,0.2,0.2,0.2,0.1,0.3C320.3,158.7,320.3,158.6,320.3,158.5c0.1-0.1,0.1-0.1,0.1-0.2
			C320.4,158.3,320.3,158.4,320.3,158.5z M321.1,159h0.1H321.1C321.1,159.1,321.1,159.1,321.1,159H321c-0.2,0.1-0.2,0.3-0.2,0.4
			c0-0.1,0.1-0.3-0.1-0.3c0,0.1-0.1,0.1,0,0.1l-0.1-0.1c0.1-0.3,0.3-0.2,0.5-0.2C321,158.9,321.1,158.9,321.1,159
			C321.2,158.9,321.1,159,321.1,159z M320.7,157.8v0.1c0,0.1-0.1,0.1-0.1,0.2C320.5,158,320.5,157.8,320.7,157.8z M324,161.5
			c-0.1,0-0.2,0.3,0,0.3c-0.1,0.1-0.2,0.1-0.2,0.2c0.1-0.2-0.1-0.3-0.1-0.4C323.9,161.5,323.8,161.6,324,161.5z M327.1,160.8
			c0.3,0.2,0.3-0.2,0.4-0.2C327.5,160.8,327.4,161.2,327.1,160.8z M327.2,160.3c0-0.1,0-0.1,0.2,0c0.1,0,0-0.1,0.1-0.1
			C327.6,160.4,327.4,160.2,327.2,160.3L327.2,160.3L327.2,160.3z M325.7,162.8c0-0.1-0.1-0.2-0.1-0.4l-0.1,0.1
			C325.6,162.7,325.6,162.8,325.7,162.8z M324.9,161.5c0,0.2-0.1,0.1-0.1,0c-0.1,0.2,0,0.3,0,0.4v0.1v-0.1
			C324.8,161.8,324.8,161.7,324.9,161.5L324.9,161.5L324.9,161.5L324.9,161.5z M323.1,159.1c-0.2,0-0.2,0-0.2-0.1
			C323,159,323.1,159,323.1,159.1z M325.3,161.7c-0.1,0.1,0,0.5,0,0.6h0.1c-0.1,0.2,0-0.4-0.1-0.4l0,0c0-0.3,0-0.3,0-0.5
			C325.2,161.3,325.3,161.6,325.3,161.7z M323.1,158.9c-0.3,0,0-0.3,0-0.4C323.3,158.5,323,158.7,323.1,158.9z M325.1,160.6
			L325.1,160.6c0-0.1,0-0.1,0.1-0.2l0,0C325.2,160.5,325.1,160.5,325.1,160.6z"/>
		<path class="st2" d="M321.3,160.1C321.3,160.1,321.3,160,321.3,160.1C321.3,160,321.3,160,321.3,160.1z"/>
		<path class="st2" d="M328.7,160.6C328.7,160.6,328.7,160.5,328.7,160.6C328.7,160.5,328.7,160.5,328.7,160.6z"/>
		<path class="st2" d="M329.1,160.3L329.1,160.3L329.1,160.3L329.1,160.3z"/>
		<path class="st2" d="M335.8,147.7c0.3,0.1,0,0.1,0,0.2C335.8,147.8,335.7,147.7,335.8,147.7z"/>
		<path class="st2" d="M335.1,147.9c0.1,0,0.2,0,0.2-0.1C335.3,147.9,335.3,147.9,335.1,147.9z"/>
		<path class="st2" d="M335.5,147.6c0,0.1,0,0.2-0.1,0.3C335.4,147.8,335.3,147.7,335.5,147.6z"/>
		<path class="st2" d="M334.4,149.3c0.2,0,0.2-0.2,0.2-0.2c-0.1,0.4,0.3,0.1,0.4,0.1C334.9,149.4,334.7,149.3,334.4,149.3z"/>
		<path class="st2" d="M334.1,149.6v-0.1C334.2,149.6,334.2,149.6,334.1,149.6z"/>
		<path class="st2" d="M334.2,149.8c-0.1,0.1-0.3,0-0.4,0c0-0.2,0.3-0.1,0.4-0.2C334.1,149.7,334,149.8,334.2,149.8z"/>
		<path class="st2" d="M332.9,153.6c0,0,0.1-0.1,0.2,0l-0.1,0.2C332.9,153.8,332.9,153.7,332.9,153.6z"/>
		<path class="st2" d="M332.1,154c-0.1,0.1,0.2,0.2,0.1,0.2l-0.3-0.2H332.1z"/>
		<path class="st2" d="M330.7,153.1L330.7,153.1L330.7,153.1L330.7,153.1z"/>
		<path class="st2" d="M332,154.9l0.4,0.1C332.2,155.1,331.9,154.9,332,154.9z"/>
		<polygon class="st2" points="331.9,155.6 332,155.6 331.8,155.8 		"/>
		<polygon class="st2" points="331.3,156.2 331.4,156.2 331.2,156.4 		"/>
		<path class="st2" d="M326.4,163.9c-0.1-0.4,0.1-0.6,0.2-0.8c0.1,0.3,0,0.3-0.1,0.3C326.4,163.5,326.3,163.5,326.4,163.9z"/>
		<path class="st2" d="M321.6,160.2l0.2,0.3C321.5,160.4,321.8,160.4,321.6,160.2z"/>
	</g>
	<g class="st1">
		<path class="st2" d="M53.9,58.1c0,1.9,0.7,3.9,2.3,4.8l-0.7,0.9c-1.1-0.6-1.8-1.7-2.2-3c-0.4,1.4-1.1,2.6-2.2,3.3l-0.8-1
			c1.6-1,2.3-3,2.3-5v-0.8h-2v-1.1h5.1v1.1h-1.9V58.1z M56.6,55.2h1.2v10.5h-1.2V60H55v-1h1.7V55.2z M60.1,54.9v11.3h-1.2V54.9H60.1
			z"/>
		<path class="st2" d="M67.8,61.4v1.1H71v3.6h-7.7v-3.6h3.2v-1.1H62v-1h10.2v1H67.8z M64.5,56.3h-1.6v-1h8.4v1h-1.6v2.1h1.5v1H63v-1
			h1.5V56.3z M69.7,63.5h-5.2v1.5h5.2V63.5z M68.4,56.3h-2.6v2.1h2.6V56.3z"/>
		<path class="st2" d="M82.2,55.6c0,2.9-1.8,4.8-5.2,5.7l-0.5-1c2.7-0.7,4.1-2,4.3-3.6H77v-1H82.2z M85.9,65.1v1h-7.5v-4.7h7.3v0.9
			h-6.1v0.9h5.9v0.9h-5.9v0.9H85.9z M84.4,58.7h-2.2v-1h2.2V55h1.3v6h-1.3V58.7z"/>
		<path class="st2" d="M93.6,61.3h-5.2v-5.4h5.2v0.9h2.3V55h1.3v8.2h-1.3v-2.9h-2.3V61.3z M92.3,56.9h-2.7v3.3h2.7V56.9z M97.5,65v1
			h-7.6v-3.6h1.3V65H97.5z M93.6,57.9v1.4h2.3v-1.4H93.6z"/>
		<path class="st2" d="M99.4,62.8c2,0,4.8,0,7.3-0.4l0.1,0.9c-2.5,0.5-5.2,0.5-7.2,0.5L99.4,62.8z M106.1,58.5
			c0,1.6-1.3,2.7-3.1,2.7s-3.1-1.1-3.1-2.7s1.3-2.7,3.1-2.7S106.1,56.9,106.1,58.5z M101.2,58.5c0,1,0.8,1.6,1.8,1.6
			c1,0,1.8-0.6,1.8-1.6c0-1-0.8-1.6-1.8-1.6C101.9,56.8,101.2,57.5,101.2,58.5z M108.6,54.9v11.3h-1.3V54.9H108.6z"/>
	</g>
	<g class="st1">
		<path class="st3" d="M117.8,55.8c0,3-2,5.2-5.2,6.2l-0.6-1c2.5-0.8,4.1-2.3,4.4-4.2h-3.8v-1H117.8z M121.6,65v1H114v-3.6h1.3V65
			H121.6z M120,58.3V55h1.3v8.3H120v-3.9h-2.2v-1.1H120z"/>
		<path class="st3" d="M129.2,55.7c0,2.9-1.9,5-5.2,6l-0.5-1c2.6-0.8,4.1-2.2,4.4-3.9h-3.9v-1H129.2z M132.4,64
			c0,1.4-1.5,2.2-3.7,2.2c-2.2,0-3.7-0.8-3.7-2.2c0-1.4,1.5-2.3,3.7-2.3C130.9,61.7,132.4,62.6,132.4,64z M131.1,64
			c0-0.8-0.9-1.2-2.4-1.2c-1.5,0-2.4,0.5-2.4,1.2c0,0.8,0.9,1.2,2.4,1.2C130.1,65.2,131.1,64.8,131.1,64z M133.8,57.7v1.1h-1.6v2.8
			h-1.3V55h1.3v2.8H133.8z"/>
		<path class="st3" d="M140.9,56.1c0,3.4-1.3,6.2-5.2,8.1l-0.7-1c3-1.4,4.4-3.4,4.6-6h-4v-1H140.9z M144.2,55v11.3h-1.3V55H144.2z"
			/>
		<path class="st3" d="M156.6,60.1v1h-10.2v-1H156.6z M155.4,64.1c0,1.3-1.5,2.1-3.9,2.1c-2.4,0-3.9-0.8-3.9-2.1
			c0-1.3,1.5-2.1,3.9-2.1C153.9,62.1,155.4,62.8,155.4,64.1z M155.5,59h-7.7v-3.8h1.3V58h6.4V59z M154.1,64.1c0-0.7-0.9-1.1-2.6-1.1
			c-1.6,0-2.6,0.4-2.6,1.1c0,0.7,0.9,1.1,2.6,1.1C153.2,65.2,154.1,64.8,154.1,64.1z"/>
		<path class="st3" d="M164.1,61.1c-1.3-0.5-2.2-1.3-2.7-2.5c-0.5,1.2-1.5,2.2-2.8,2.7l-0.6-1c1.8-0.6,2.8-2.1,2.8-3.7v-1.1h1.3v1.1
			c0,1.5,1,2.9,2.7,3.5L164.1,61.1z M159.6,62.3h7.6v4h-1.3v-2.9h-6.3V62.3z M167.2,54.9v6.8h-1.3v-6.8H167.2z"/>
		<path class="st3" d="M175.2,61.4v1.1h3.2v3.6h-7.7v-3.6h3.2v-1.1h-4.5v-1h10.2v1H175.2z M171.9,56.3h-1.6v-1h8.4v1h-1.6v2.1h1.5v1
			h-8.2v-1h1.5V56.3z M177.1,63.5h-5.2v1.5h5.2V63.5z M175.8,56.3h-2.6v2.1h2.6V56.3z"/>
	</g>
	<g class="st1">
		<path class="st3" d="M53.7,79.4c-1.7,0-3-1.2-3-2.8c0-1.7,1.3-2.8,3-2.8s3,1.2,3,2.8C56.7,78.2,55.4,79.4,53.7,79.4z M53.7,78.2
			c1,0,1.7-0.7,1.7-1.7c0-1-0.7-1.7-1.7-1.7c-1,0-1.7,0.7-1.7,1.7C52,77.6,52.7,78.2,53.7,78.2z M60.1,83v1h-7.7v-3.7h1.3V83H60.1z
			 M59.8,81.2h-1.3V73h1.3V81.2z"/>
		<path class="st3" d="M68.1,79.3c-1.2-0.4-2.1-1.3-2.6-2.4c-0.5,1.2-1.4,2.2-2.8,2.7l-0.7-1c1.7-0.6,2.8-2.1,2.8-3.7v-0.2h-2.4v-1
			h6v1h-2.3v0.1c0,1.4,1,2.8,2.6,3.4L68.1,79.3z M71.4,82.1c0,1.3-1.4,2.1-3.8,2.1c-2.4,0-3.8-0.8-3.8-2.1c0-1.3,1.4-2.1,3.8-2.1
			C70,80,71.4,80.8,71.4,82.1z M70.1,82.1c0-0.7-0.9-1.1-2.5-1.1c-1.6,0-2.5,0.4-2.5,1.1s0.9,1.1,2.5,1.1
			C69.2,83.3,70.1,82.9,70.1,82.1z M70.1,75.8V73h1.3v6.7h-1.3v-2.8h-2v-1H70.1z"/>
		<path class="st3" d="M73.9,74.1h5.3v7.4h-5.3V74.1z M75.2,80.4h2.7v-5.3h-2.7V80.4z M84,78.4h-1.8v5.8H81V73h1.3v4.4H84V78.4z"/>
		<path class="st3" d="M95.2,81.7v1.1H85v-1.1H95.2z M92.8,77.1c0-0.6,0-1.2,0-1.8v-0.3h-6.6v-1h7.9v1.4c0,1.6,0,3.2-0.5,5.6
			l-1.3-0.1c0.2-1,0.4-1.9,0.4-2.7l-6.7,0.3l-0.2-1L92.8,77.1z"/>
	</g>
	<g class="st1">
		<path class="st2" d="M105.2,79.9c-2.4,0.4-5,0.4-7,0.4l-0.1-1c0.8,0,1.8,0,2.9,0v-0.7c-1.3-0.1-2-0.7-2-1.6c0-1,1.1-1.7,2.7-1.7
			c1.6,0,2.7,0.6,2.7,1.7c0,0.9-0.8,1.5-2,1.6v0.7c1,0,2-0.1,2.9-0.2L105.2,79.9z M104.8,74.8h-6.4v-0.9h2.6v-1h1.3v1h2.6V74.8z
			 M99.4,81.1h7.5v3.2h-1.3v-2.1h-6.2V81.1z M101.5,77.7c0.9,0,1.5-0.3,1.5-0.8c0-0.5-0.6-0.8-1.5-0.8c-0.9,0-1.5,0.3-1.5,0.8
			C100.1,77.4,100.6,77.7,101.5,77.7z M108.5,77.4H107v3.2h-1.3V73h1.3v3.3h1.5V77.4z"/>
		<path class="st2" d="M112.8,79.4c-1.7,0-3-1.2-3-2.8c0-1.7,1.3-2.8,3-2.8s3,1.2,3,2.8C115.8,78.2,114.5,79.4,112.8,79.4z
			 M112.8,78.2c1,0,1.7-0.7,1.7-1.7c0-1-0.7-1.7-1.7-1.7c-1,0-1.7,0.7-1.7,1.7C111.1,77.6,111.8,78.2,112.8,78.2z M119.2,83v1h-7.7
			v-3.7h1.3V83H119.2z M118.9,81.2h-1.3V73h1.3V81.2z"/>
	</g>
</g>
</svg>
