<svg width="968" height="432" viewBox="0 0 968 432" fill="none" xmlns="http://www.w3.org/2000/svg">
<g style="mix-blend-mode:multiply">
<line x1="34.5" y1="1" x2="34.5" y2="399" stroke="#646C70"/>
<g style="mix-blend-mode:multiply">
<line x1="34" y1="0.5" x2="968" y2="0.5" stroke="#EEF1F1"/>
</g>
<g style="mix-blend-mode:multiply">
<line x1="34" y1="31.1172" x2="968" y2="31.1172" stroke="#EEF1F1"/>
</g>
<g style="mix-blend-mode:multiply">
<line x1="34" y1="61.7305" x2="968" y2="61.7305" stroke="#EEF1F1"/>
</g>
<g style="mix-blend-mode:multiply">
<line x1="34" y1="92.3477" x2="968" y2="92.3477" stroke="#EEF1F1"/>
</g>
<g style="mix-blend-mode:multiply">
<line x1="34" y1="122.961" x2="968" y2="122.961" stroke="#EEF1F1"/>
</g>
<g style="mix-blend-mode:multiply">
<line x1="34" y1="153.578" x2="968" y2="153.578" stroke="#EEF1F1"/>
</g>
<g style="mix-blend-mode:multiply">
<line x1="34" y1="184.191" x2="968" y2="184.191" stroke="#EEF1F1"/>
</g>
<g style="mix-blend-mode:multiply">
<line x1="34" y1="214.809" x2="968" y2="214.809" stroke="#EEF1F1"/>
</g>
<g style="mix-blend-mode:multiply">
<line x1="34" y1="245.422" x2="968" y2="245.422" stroke="#EEF1F1"/>
</g>
<g style="mix-blend-mode:multiply">
<line x1="34" y1="276.039" x2="968" y2="276.039" stroke="#EEF1F1"/>
</g>
<g style="mix-blend-mode:multiply">
<line x1="34" y1="306.652" x2="968" y2="306.652" stroke="#EEF1F1"/>
</g>
<g style="mix-blend-mode:multiply">
<line x1="34" y1="337.27" x2="968" y2="337.27" stroke="#EEF1F1"/>
</g>
<g style="mix-blend-mode:multiply">
<line x1="34" y1="367.883" x2="968" y2="367.883" stroke="#EEF1F1"/>
</g>
<g style="mix-blend-mode:multiply">
<line x1="34" y1="398.5" x2="968" y2="398.5" stroke="#646C70"/>
</g>
<path d="M130 26.9961C130 24.787 131.791 22.9961 134 22.9961H170C172.209 22.9961 174 24.787 174 26.9961V398.996H130V26.9961Z" fill="#25C9EF"/>
<path d="M230 269.996C230 267.787 231.791 265.996 234 265.996H270C272.209 265.996 274 267.787 274 269.996V398.996H230V269.996Z" fill="#25C9EF"/>
<path d="M330 263.996C330 261.787 331.791 259.996 334 259.996H370C372.209 259.996 374 261.787 374 263.996V398.996H330V263.996Z" fill="#25C9EF"/>
<path d="M430 255.996C430 253.787 431.791 251.996 434 251.996H470C472.209 251.996 474 253.787 474 255.996V398.996H430V255.996Z" fill="#25C9EF"/>
<path d="M530 230.996C530 228.787 531.791 226.996 534 226.996H570C572.209 226.996 574 228.787 574 230.996V398.996H530V230.996Z" fill="#25C9EF"/>
<path d="M630 223.996C630 221.787 631.791 219.996 634 219.996H669C671.209 219.996 673 221.787 673 223.996V398.996H630V223.996Z" fill="#25C9EF"/>
<path d="M729 204.996C729 202.787 730.791 200.996 733 200.996H769C771.209 200.996 773 202.787 773 204.996V398.996H729V204.996Z" fill="#25C9EF"/>
<path d="M829 385.996C829 383.787 830.791 381.996 833 381.996H868C870.209 381.996 872 383.787 872 385.996V398.996H829V385.996Z" fill="#25C9EF"/>
</g>
<path d="M3.543 15.156C5.103 15.156 6.363 14.22 6.363 12.648C6.363 11.448 5.535 10.656 4.503 10.416V10.368C5.427 10.02 6.063 9.312 6.063 8.244C6.063 6.852 4.983 6.036 3.507 6.036C2.487 6.036 1.707 6.48 1.047 7.092L1.635 7.788C2.127 7.284 2.751 6.936 3.459 6.936C4.371 6.936 4.947 7.488 4.947 8.328C4.947 9.276 4.323 10.008 2.511 10.008V10.848C4.539 10.848 5.247 11.556 5.247 12.6C5.247 13.62 4.503 14.244 3.459 14.244C2.463 14.244 1.791 13.776 1.275 13.236L0.723 13.956C1.299 14.58 2.163 15.156 3.543 15.156ZM10.3673 15.156C12.0353 15.156 13.1033 13.632 13.1033 10.572C13.1033 7.524 12.0353 6.036 10.3673 6.036C8.68725 6.036 7.61925 7.512 7.61925 10.572C7.61925 13.632 8.68725 15.156 10.3673 15.156ZM10.3673 14.28C9.35925 14.28 8.68725 13.164 8.68725 10.572C8.68725 8.004 9.35925 6.912 10.3673 6.912C11.3633 6.912 12.0353 8.004 12.0353 10.572C12.0353 13.164 11.3633 14.28 10.3673 14.28ZM17.0235 15.156C18.6915 15.156 19.7595 13.632 19.7595 10.572C19.7595 7.524 18.6915 6.036 17.0235 6.036C15.3435 6.036 14.2755 7.512 14.2755 10.572C14.2755 13.632 15.3435 15.156 17.0235 15.156ZM17.0235 14.28C16.0155 14.28 15.3435 13.164 15.3435 10.572C15.3435 8.004 16.0155 6.912 17.0235 6.912C18.0195 6.912 18.6915 8.004 18.6915 10.572C18.6915 13.164 18.0195 14.28 17.0235 14.28ZM23.6798 15.156C25.3478 15.156 26.4158 13.632 26.4158 10.572C26.4158 7.524 25.3478 6.036 23.6798 6.036C21.9998 6.036 20.9318 7.512 20.9318 10.572C20.9318 13.632 21.9998 15.156 23.6798 15.156ZM23.6798 14.28C22.6718 14.28 21.9998 13.164 21.9998 10.572C21.9998 8.004 22.6718 6.912 23.6798 6.912C24.6758 6.912 25.3478 8.004 25.3478 10.572C25.3478 13.164 24.6758 14.28 23.6798 14.28Z" fill="#9BA5AB"/>
<path d="M0.903 45H6.435V44.052H3.999C3.555 44.052 3.015 44.1 2.559 44.136C4.623 42.18 6.003 40.392 6.003 38.64C6.003 37.068 5.019 36.036 3.447 36.036C2.331 36.036 1.575 36.552 0.855 37.332L1.491 37.956C1.971 37.38 2.595 36.936 3.315 36.936C4.407 36.936 4.935 37.668 4.935 38.676C4.935 40.188 3.663 41.94 0.903 44.352V45ZM10.3793 45.156C12.0353 45.156 13.1393 44.16 13.1393 42.876C13.1393 41.676 12.4193 41.016 11.6513 40.572V40.512C12.1793 40.104 12.8273 39.312 12.8273 38.388C12.8273 37.032 11.9153 36.072 10.4153 36.072C9.04725 36.072 8.00325 36.96 8.00325 38.304C8.00325 39.228 8.54325 39.888 9.19125 40.332V40.392C8.38725 40.824 7.57125 41.64 7.57125 42.816C7.57125 44.172 8.75925 45.156 10.3793 45.156ZM10.9793 40.224C9.94725 39.816 8.99925 39.36 8.99925 38.304C8.99925 37.452 9.58725 36.876 10.4033 36.876C11.3513 36.876 11.8913 37.584 11.8913 38.448C11.8913 39.096 11.5793 39.696 10.9793 40.224ZM10.4033 44.34C9.34725 44.34 8.56725 43.656 8.56725 42.72C8.56725 41.88 9.05925 41.184 9.76725 40.728C11.0153 41.232 12.0953 41.676 12.0953 42.852C12.0953 43.728 11.4113 44.34 10.4033 44.34ZM17.0235 45.156C18.6915 45.156 19.7595 43.632 19.7595 40.572C19.7595 37.524 18.6915 36.036 17.0235 36.036C15.3435 36.036 14.2755 37.512 14.2755 40.572C14.2755 43.632 15.3435 45.156 17.0235 45.156ZM17.0235 44.28C16.0155 44.28 15.3435 43.164 15.3435 40.572C15.3435 38.004 16.0155 36.912 17.0235 36.912C18.0195 36.912 18.6915 38.004 18.6915 40.572C18.6915 43.164 18.0195 44.28 17.0235 44.28ZM23.6798 45.156C25.3478 45.156 26.4158 43.632 26.4158 40.572C26.4158 37.524 25.3478 36.036 23.6798 36.036C21.9998 36.036 20.9318 37.512 20.9318 40.572C20.9318 43.632 21.9998 45.156 23.6798 45.156ZM23.6798 44.28C22.6718 44.28 21.9998 43.164 21.9998 40.572C21.9998 38.004 22.6718 36.912 23.6798 36.912C24.6758 36.912 25.3478 38.004 25.3478 40.572C25.3478 43.164 24.6758 44.28 23.6798 44.28Z" fill="#9BA5AB"/>
<path d="M0.903 75H6.435V74.052H3.999C3.555 74.052 3.015 74.1 2.559 74.136C4.623 72.18 6.003 70.392 6.003 68.64C6.003 67.068 5.019 66.036 3.447 66.036C2.331 66.036 1.575 66.552 0.855 67.332L1.491 67.956C1.971 67.38 2.595 66.936 3.315 66.936C4.407 66.936 4.935 67.668 4.935 68.676C4.935 70.188 3.663 71.94 0.903 74.352V75ZM10.5473 70.356C11.6153 70.356 12.1433 71.112 12.1433 72.3C12.1433 73.5 11.4833 74.304 10.6433 74.304C9.53925 74.304 8.87925 73.308 8.74725 71.484C9.28725 70.68 9.99525 70.356 10.5473 70.356ZM10.6433 75.156C12.0113 75.156 13.1633 74.004 13.1633 72.3C13.1633 70.464 12.2153 69.54 10.7273 69.54C10.0312 69.54 9.26325 69.948 8.72325 70.608C8.77125 67.872 9.79125 66.948 10.9913 66.948C11.5313 66.948 12.0593 67.2 12.4073 67.62L13.0073 66.936C12.5273 66.42 11.8673 66.036 10.9553 66.036C9.25125 66.036 7.70325 67.356 7.70325 70.8C7.70325 73.704 8.95125 75.156 10.6433 75.156ZM17.0235 75.156C18.6915 75.156 19.7595 73.632 19.7595 70.572C19.7595 67.524 18.6915 66.036 17.0235 66.036C15.3435 66.036 14.2755 67.512 14.2755 70.572C14.2755 73.632 15.3435 75.156 17.0235 75.156ZM17.0235 74.28C16.0155 74.28 15.3435 73.164 15.3435 70.572C15.3435 68.004 16.0155 66.912 17.0235 66.912C18.0195 66.912 18.6915 68.004 18.6915 70.572C18.6915 73.164 18.0195 74.28 17.0235 74.28ZM23.6798 75.156C25.3478 75.156 26.4158 73.632 26.4158 70.572C26.4158 67.524 25.3478 66.036 23.6798 66.036C21.9998 66.036 20.9318 67.512 20.9318 70.572C20.9318 73.632 21.9998 75.156 23.6798 75.156ZM23.6798 74.28C22.6718 74.28 21.9998 73.164 21.9998 70.572C21.9998 68.004 22.6718 66.912 23.6798 66.912C24.6758 66.912 25.3478 68.004 25.3478 70.572C25.3478 73.164 24.6758 74.28 23.6798 74.28Z" fill="#9BA5AB"/>
<path d="M0.903 105H6.435V104.052H3.999C3.555 104.052 3.015 104.1 2.559 104.136C4.623 102.18 6.003 100.392 6.003 98.64C6.003 97.068 5.019 96.036 3.447 96.036C2.331 96.036 1.575 96.552 0.855 97.332L1.491 97.956C1.971 97.38 2.595 96.936 3.315 96.936C4.407 96.936 4.935 97.668 4.935 98.676C4.935 100.188 3.663 101.94 0.903 104.352V105ZM8.41125 101.7L10.4153 98.7C10.6673 98.268 10.9073 97.836 11.1233 97.404H11.1713C11.1473 97.86 11.1113 98.568 11.1113 99V101.7H8.41125ZM11.1113 105H12.1433V102.576H13.3073V101.7H12.1433V96.192H10.9313L7.27125 101.856V102.576H11.1113V105ZM17.0235 105.156C18.6915 105.156 19.7595 103.632 19.7595 100.572C19.7595 97.524 18.6915 96.036 17.0235 96.036C15.3435 96.036 14.2755 97.512 14.2755 100.572C14.2755 103.632 15.3435 105.156 17.0235 105.156ZM17.0235 104.28C16.0155 104.28 15.3435 103.164 15.3435 100.572C15.3435 98.004 16.0155 96.912 17.0235 96.912C18.0195 96.912 18.6915 98.004 18.6915 100.572C18.6915 103.164 18.0195 104.28 17.0235 104.28ZM23.6798 105.156C25.3478 105.156 26.4158 103.632 26.4158 100.572C26.4158 97.524 25.3478 96.036 23.6798 96.036C21.9998 96.036 20.9318 97.512 20.9318 100.572C20.9318 103.632 21.9998 105.156 23.6798 105.156ZM23.6798 104.28C22.6718 104.28 21.9998 103.164 21.9998 100.572C21.9998 98.004 22.6718 96.912 23.6798 96.912C24.6758 96.912 25.3478 98.004 25.3478 100.572C25.3478 103.164 24.6758 104.28 23.6798 104.28Z" fill="#9BA5AB"/>
<path d="M0.903 135H6.435V134.052H3.999C3.555 134.052 3.015 134.1 2.559 134.136C4.623 132.18 6.003 130.392 6.003 128.64C6.003 127.068 5.019 126.036 3.447 126.036C2.331 126.036 1.575 126.552 0.855 127.332L1.491 127.956C1.971 127.38 2.595 126.936 3.315 126.936C4.407 126.936 4.935 127.668 4.935 128.676C4.935 130.188 3.663 131.94 0.903 134.352V135ZM7.55925 135H13.0912V134.052H10.6553C10.2113 134.052 9.67125 134.1 9.21525 134.136C11.2793 132.18 12.6593 130.392 12.6593 128.64C12.6593 127.068 11.6753 126.036 10.1033 126.036C8.98725 126.036 8.23125 126.552 7.51125 127.332L8.14725 127.956C8.62725 127.38 9.25125 126.936 9.97125 126.936C11.0633 126.936 11.5913 127.668 11.5913 128.676C11.5913 130.188 10.3193 131.94 7.55925 134.352V135ZM17.0235 135.156C18.6915 135.156 19.7595 133.632 19.7595 130.572C19.7595 127.524 18.6915 126.036 17.0235 126.036C15.3435 126.036 14.2755 127.512 14.2755 130.572C14.2755 133.632 15.3435 135.156 17.0235 135.156ZM17.0235 134.28C16.0155 134.28 15.3435 133.164 15.3435 130.572C15.3435 128.004 16.0155 126.912 17.0235 126.912C18.0195 126.912 18.6915 128.004 18.6915 130.572C18.6915 133.164 18.0195 134.28 17.0235 134.28ZM23.6798 135.156C25.3478 135.156 26.4158 133.632 26.4158 130.572C26.4158 127.524 25.3478 126.036 23.6798 126.036C21.9998 126.036 20.9318 127.512 20.9318 130.572C20.9318 133.632 21.9998 135.156 23.6798 135.156ZM23.6798 134.28C22.6718 134.28 21.9998 133.164 21.9998 130.572C21.9998 128.004 22.6718 126.912 23.6798 126.912C24.6758 126.912 25.3478 128.004 25.3478 130.572C25.3478 133.164 24.6758 134.28 23.6798 134.28Z" fill="#9BA5AB"/>
<path d="M0.903 165H6.435V164.052H3.999C3.555 164.052 3.015 164.1 2.559 164.136C4.623 162.18 6.003 160.392 6.003 158.64C6.003 157.068 5.019 156.036 3.447 156.036C2.331 156.036 1.575 156.552 0.855 157.332L1.491 157.956C1.971 157.38 2.595 156.936 3.315 156.936C4.407 156.936 4.935 157.668 4.935 158.676C4.935 160.188 3.663 161.94 0.903 164.352V165ZM10.3673 165.156C12.0353 165.156 13.1033 163.632 13.1033 160.572C13.1033 157.524 12.0353 156.036 10.3673 156.036C8.68725 156.036 7.61925 157.512 7.61925 160.572C7.61925 163.632 8.68725 165.156 10.3673 165.156ZM10.3673 164.28C9.35925 164.28 8.68725 163.164 8.68725 160.572C8.68725 158.004 9.35925 156.912 10.3673 156.912C11.3633 156.912 12.0353 158.004 12.0353 160.572C12.0353 163.164 11.3633 164.28 10.3673 164.28ZM17.0235 165.156C18.6915 165.156 19.7595 163.632 19.7595 160.572C19.7595 157.524 18.6915 156.036 17.0235 156.036C15.3435 156.036 14.2755 157.512 14.2755 160.572C14.2755 163.632 15.3435 165.156 17.0235 165.156ZM17.0235 164.28C16.0155 164.28 15.3435 163.164 15.3435 160.572C15.3435 158.004 16.0155 156.912 17.0235 156.912C18.0195 156.912 18.6915 158.004 18.6915 160.572C18.6915 163.164 18.0195 164.28 17.0235 164.28ZM23.6798 165.156C25.3478 165.156 26.4158 163.632 26.4158 160.572C26.4158 157.524 25.3478 156.036 23.6798 156.036C21.9998 156.036 20.9318 157.512 20.9318 160.572C20.9318 163.632 21.9998 165.156 23.6798 165.156ZM23.6798 164.28C22.6718 164.28 21.9998 163.164 21.9998 160.572C21.9998 158.004 22.6718 156.912 23.6798 156.912C24.6758 156.912 25.3478 158.004 25.3478 160.572C25.3478 163.164 24.6758 164.28 23.6798 164.28Z" fill="#9BA5AB"/>
<path d="M1.431 195H6.255V194.088H4.491V186.192H3.651C3.171 186.48 2.607 186.684 1.827 186.828V187.524H3.387V194.088H1.431V195ZM8.41125 191.7L10.4153 188.7C10.6673 188.268 10.9073 187.836 11.1233 187.404H11.1713C11.1473 187.86 11.1113 188.568 11.1113 189V191.7H8.41125ZM11.1113 195H12.1433V192.576H13.3073V191.7H12.1433V186.192H10.9313L7.27125 191.856V192.576H11.1113V195ZM17.0235 195.156C18.6915 195.156 19.7595 193.632 19.7595 190.572C19.7595 187.524 18.6915 186.036 17.0235 186.036C15.3435 186.036 14.2755 187.512 14.2755 190.572C14.2755 193.632 15.3435 195.156 17.0235 195.156ZM17.0235 194.28C16.0155 194.28 15.3435 193.164 15.3435 190.572C15.3435 188.004 16.0155 186.912 17.0235 186.912C18.0195 186.912 18.6915 188.004 18.6915 190.572C18.6915 193.164 18.0195 194.28 17.0235 194.28ZM23.6798 195.156C25.3478 195.156 26.4158 193.632 26.4158 190.572C26.4158 187.524 25.3478 186.036 23.6798 186.036C21.9998 186.036 20.9318 187.512 20.9318 190.572C20.9318 193.632 21.9998 195.156 23.6798 195.156ZM23.6798 194.28C22.6718 194.28 21.9998 193.164 21.9998 190.572C21.9998 188.004 22.6718 186.912 23.6798 186.912C24.6758 186.912 25.3478 188.004 25.3478 190.572C25.3478 193.164 24.6758 194.28 23.6798 194.28Z" fill="#9BA5AB"/>
<path d="M1.431 225H6.255V224.088H4.491V216.192H3.651C3.171 216.48 2.607 216.684 1.827 216.828V217.524H3.387V224.088H1.431V225ZM7.55925 225H13.0912V224.052H10.6553C10.2113 224.052 9.67125 224.1 9.21525 224.136C11.2793 222.18 12.6593 220.392 12.6593 218.64C12.6593 217.068 11.6753 216.036 10.1033 216.036C8.98725 216.036 8.23125 216.552 7.51125 217.332L8.14725 217.956C8.62725 217.38 9.25125 216.936 9.97125 216.936C11.0633 216.936 11.5913 217.668 11.5913 218.676C11.5913 220.188 10.3193 221.94 7.55925 224.352V225ZM17.0235 225.156C18.6915 225.156 19.7595 223.632 19.7595 220.572C19.7595 217.524 18.6915 216.036 17.0235 216.036C15.3435 216.036 14.2755 217.512 14.2755 220.572C14.2755 223.632 15.3435 225.156 17.0235 225.156ZM17.0235 224.28C16.0155 224.28 15.3435 223.164 15.3435 220.572C15.3435 218.004 16.0155 216.912 17.0235 216.912C18.0195 216.912 18.6915 218.004 18.6915 220.572C18.6915 223.164 18.0195 224.28 17.0235 224.28ZM23.6798 225.156C25.3478 225.156 26.4158 223.632 26.4158 220.572C26.4158 217.524 25.3478 216.036 23.6798 216.036C21.9998 216.036 20.9318 217.512 20.9318 220.572C20.9318 223.632 21.9998 225.156 23.6798 225.156ZM23.6798 224.28C22.6718 224.28 21.9998 223.164 21.9998 220.572C21.9998 218.004 22.6718 216.912 23.6798 216.912C24.6758 216.912 25.3478 218.004 25.3478 220.572C25.3478 223.164 24.6758 224.28 23.6798 224.28Z" fill="#9BA5AB"/>
<path d="M1.431 255H6.255V254.088H4.491V246.192H3.651C3.171 246.48 2.607 246.684 1.827 246.828V247.524H3.387V254.088H1.431V255ZM10.3673 255.156C12.0353 255.156 13.1033 253.632 13.1033 250.572C13.1033 247.524 12.0353 246.036 10.3673 246.036C8.68725 246.036 7.61925 247.512 7.61925 250.572C7.61925 253.632 8.68725 255.156 10.3673 255.156ZM10.3673 254.28C9.35925 254.28 8.68725 253.164 8.68725 250.572C8.68725 248.004 9.35925 246.912 10.3673 246.912C11.3633 246.912 12.0353 248.004 12.0353 250.572C12.0353 253.164 11.3633 254.28 10.3673 254.28ZM17.0235 255.156C18.6915 255.156 19.7595 253.632 19.7595 250.572C19.7595 247.524 18.6915 246.036 17.0235 246.036C15.3435 246.036 14.2755 247.512 14.2755 250.572C14.2755 253.632 15.3435 255.156 17.0235 255.156ZM17.0235 254.28C16.0155 254.28 15.3435 253.164 15.3435 250.572C15.3435 248.004 16.0155 246.912 17.0235 246.912C18.0195 246.912 18.6915 248.004 18.6915 250.572C18.6915 253.164 18.0195 254.28 17.0235 254.28ZM23.6798 255.156C25.3478 255.156 26.4158 253.632 26.4158 250.572C26.4158 247.524 25.3478 246.036 23.6798 246.036C21.9998 246.036 20.9318 247.512 20.9318 250.572C20.9318 253.632 21.9998 255.156 23.6798 255.156ZM23.6798 254.28C22.6718 254.28 21.9998 253.164 21.9998 250.572C21.9998 248.004 22.6718 246.912 23.6798 246.912C24.6758 246.912 25.3478 248.004 25.3478 250.572C25.3478 253.164 24.6758 254.28 23.6798 254.28Z" fill="#9BA5AB"/>
<path d="M10.3793 285.156C12.0353 285.156 13.1393 284.16 13.1393 282.876C13.1393 281.676 12.4193 281.016 11.6513 280.572V280.512C12.1793 280.104 12.8273 279.312 12.8273 278.388C12.8273 277.032 11.9153 276.072 10.4153 276.072C9.04725 276.072 8.00325 276.96 8.00325 278.304C8.00325 279.228 8.54325 279.888 9.19125 280.332V280.392C8.38725 280.824 7.57125 281.64 7.57125 282.816C7.57125 284.172 8.75925 285.156 10.3793 285.156ZM10.9793 280.224C9.94725 279.816 8.99925 279.36 8.99925 278.304C8.99925 277.452 9.58725 276.876 10.4033 276.876C11.3513 276.876 11.8913 277.584 11.8913 278.448C11.8913 279.096 11.5793 279.696 10.9793 280.224ZM10.4033 284.34C9.34725 284.34 8.56725 283.656 8.56725 282.72C8.56725 281.88 9.05925 281.184 9.76725 280.728C11.0153 281.232 12.0953 281.676 12.0953 282.852C12.0953 283.728 11.4113 284.34 10.4033 284.34ZM17.0235 285.156C18.6915 285.156 19.7595 283.632 19.7595 280.572C19.7595 277.524 18.6915 276.036 17.0235 276.036C15.3435 276.036 14.2755 277.512 14.2755 280.572C14.2755 283.632 15.3435 285.156 17.0235 285.156ZM17.0235 284.28C16.0155 284.28 15.3435 283.164 15.3435 280.572C15.3435 278.004 16.0155 276.912 17.0235 276.912C18.0195 276.912 18.6915 278.004 18.6915 280.572C18.6915 283.164 18.0195 284.28 17.0235 284.28ZM23.6798 285.156C25.3478 285.156 26.4158 283.632 26.4158 280.572C26.4158 277.524 25.3478 276.036 23.6798 276.036C21.9998 276.036 20.9318 277.512 20.9318 280.572C20.9318 283.632 21.9998 285.156 23.6798 285.156ZM23.6798 284.28C22.6718 284.28 21.9998 283.164 21.9998 280.572C21.9998 278.004 22.6718 276.912 23.6798 276.912C24.6758 276.912 25.3478 278.004 25.3478 280.572C25.3478 283.164 24.6758 284.28 23.6798 284.28Z" fill="#9BA5AB"/>
<path d="M10.5473 310.356C11.6153 310.356 12.1433 311.112 12.1433 312.3C12.1433 313.5 11.4833 314.304 10.6433 314.304C9.53925 314.304 8.87925 313.308 8.74725 311.484C9.28725 310.68 9.99525 310.356 10.5473 310.356ZM10.6433 315.156C12.0113 315.156 13.1633 314.004 13.1633 312.3C13.1633 310.464 12.2153 309.54 10.7273 309.54C10.0312 309.54 9.26325 309.948 8.72325 310.608C8.77125 307.872 9.79125 306.948 10.9913 306.948C11.5313 306.948 12.0593 307.2 12.4073 307.62L13.0073 306.936C12.5273 306.42 11.8673 306.036 10.9553 306.036C9.25125 306.036 7.70325 307.356 7.70325 310.8C7.70325 313.704 8.95125 315.156 10.6433 315.156ZM17.0235 315.156C18.6915 315.156 19.7595 313.632 19.7595 310.572C19.7595 307.524 18.6915 306.036 17.0235 306.036C15.3435 306.036 14.2755 307.512 14.2755 310.572C14.2755 313.632 15.3435 315.156 17.0235 315.156ZM17.0235 314.28C16.0155 314.28 15.3435 313.164 15.3435 310.572C15.3435 308.004 16.0155 306.912 17.0235 306.912C18.0195 306.912 18.6915 308.004 18.6915 310.572C18.6915 313.164 18.0195 314.28 17.0235 314.28ZM23.6798 315.156C25.3478 315.156 26.4158 313.632 26.4158 310.572C26.4158 307.524 25.3478 306.036 23.6798 306.036C21.9998 306.036 20.9318 307.512 20.9318 310.572C20.9318 313.632 21.9998 315.156 23.6798 315.156ZM23.6798 314.28C22.6718 314.28 21.9998 313.164 21.9998 310.572C21.9998 308.004 22.6718 306.912 23.6798 306.912C24.6758 306.912 25.3478 308.004 25.3478 310.572C25.3478 313.164 24.6758 314.28 23.6798 314.28Z" fill="#9BA5AB"/>
<path d="M8.41125 341.7L10.4153 338.7C10.6673 338.268 10.9073 337.836 11.1233 337.404H11.1713C11.1473 337.86 11.1113 338.568 11.1113 339V341.7H8.41125ZM11.1113 345H12.1433V342.576H13.3073V341.7H12.1433V336.192H10.9313L7.27125 341.856V342.576H11.1113V345ZM17.0235 345.156C18.6915 345.156 19.7595 343.632 19.7595 340.572C19.7595 337.524 18.6915 336.036 17.0235 336.036C15.3435 336.036 14.2755 337.512 14.2755 340.572C14.2755 343.632 15.3435 345.156 17.0235 345.156ZM17.0235 344.28C16.0155 344.28 15.3435 343.164 15.3435 340.572C15.3435 338.004 16.0155 336.912 17.0235 336.912C18.0195 336.912 18.6915 338.004 18.6915 340.572C18.6915 343.164 18.0195 344.28 17.0235 344.28ZM23.6798 345.156C25.3478 345.156 26.4158 343.632 26.4158 340.572C26.4158 337.524 25.3478 336.036 23.6798 336.036C21.9998 336.036 20.9318 337.512 20.9318 340.572C20.9318 343.632 21.9998 345.156 23.6798 345.156ZM23.6798 344.28C22.6718 344.28 21.9998 343.164 21.9998 340.572C21.9998 338.004 22.6718 336.912 23.6798 336.912C24.6758 336.912 25.3478 338.004 25.3478 340.572C25.3478 343.164 24.6758 344.28 23.6798 344.28Z" fill="#9BA5AB"/>
<path d="M7.55925 375H13.0912V374.052H10.6553C10.2113 374.052 9.67125 374.1 9.21525 374.136C11.2793 372.18 12.6593 370.392 12.6593 368.64C12.6593 367.068 11.6753 366.036 10.1033 366.036C8.98725 366.036 8.23125 366.552 7.51125 367.332L8.14725 367.956C8.62725 367.38 9.25125 366.936 9.97125 366.936C11.0633 366.936 11.5913 367.668 11.5913 368.676C11.5913 370.188 10.3193 371.94 7.55925 374.352V375ZM17.0235 375.156C18.6915 375.156 19.7595 373.632 19.7595 370.572C19.7595 367.524 18.6915 366.036 17.0235 366.036C15.3435 366.036 14.2755 367.512 14.2755 370.572C14.2755 373.632 15.3435 375.156 17.0235 375.156ZM17.0235 374.28C16.0155 374.28 15.3435 373.164 15.3435 370.572C15.3435 368.004 16.0155 366.912 17.0235 366.912C18.0195 366.912 18.6915 368.004 18.6915 370.572C18.6915 373.164 18.0195 374.28 17.0235 374.28ZM23.6798 375.156C25.3478 375.156 26.4158 373.632 26.4158 370.572C26.4158 367.524 25.3478 366.036 23.6798 366.036C21.9998 366.036 20.9318 367.512 20.9318 370.572C20.9318 373.632 21.9998 375.156 23.6798 375.156ZM23.6798 374.28C22.6718 374.28 21.9998 373.164 21.9998 370.572C21.9998 368.004 22.6718 366.912 23.6798 366.912C24.6758 366.912 25.3478 368.004 25.3478 370.572C25.3478 373.164 24.6758 374.28 23.6798 374.28Z" fill="#9BA5AB"/>
<path d="M23.6798 405.156C25.3478 405.156 26.4158 403.632 26.4158 400.572C26.4158 397.524 25.3478 396.036 23.6798 396.036C21.9998 396.036 20.9318 397.512 20.9318 400.572C20.9318 403.632 21.9998 405.156 23.6798 405.156ZM23.6798 404.28C22.6718 404.28 21.9998 403.164 21.9998 400.572C21.9998 398.004 22.6718 396.912 23.6798 396.912C24.6758 396.912 25.3478 398.004 25.3478 400.572C25.3478 403.164 24.6758 404.28 23.6798 404.28Z" fill="#9BA5AB"/>
<path d="M134.557 426.982C135.229 426.982 135.929 426.562 136.503 425.582L135.775 425.064C135.425 425.736 135.033 426.016 134.585 426.016C133.703 426.016 133.045 424.7 131.813 424.7C131.127 424.7 130.427 425.12 129.853 426.1L130.567 426.604C130.931 425.932 131.323 425.652 131.771 425.652C132.653 425.652 133.325 426.982 134.557 426.982ZM137.675 431H144.129V429.894H141.287C140.769 429.894 140.139 429.95 139.607 429.992C142.015 427.71 143.625 425.624 143.625 423.58C143.625 421.746 142.477 420.542 140.643 420.542C139.341 420.542 138.459 421.144 137.619 422.054L138.361 422.782C138.921 422.11 139.649 421.592 140.489 421.592C141.763 421.592 142.379 422.446 142.379 423.622C142.379 425.386 140.895 427.43 137.675 430.244V431ZM148.716 431.182C150.662 431.182 151.908 429.404 151.908 425.834C151.908 422.278 150.662 420.542 148.716 420.542C146.756 420.542 145.51 422.264 145.51 425.834C145.51 429.404 146.756 431.182 148.716 431.182ZM148.716 430.16C147.54 430.16 146.756 428.858 146.756 425.834C146.756 422.838 147.54 421.564 148.716 421.564C149.878 421.564 150.662 422.838 150.662 425.834C150.662 428.858 149.878 430.16 148.716 430.16ZM153.822 431H159.45V429.936H157.392V420.724H156.412C155.852 421.06 155.194 421.298 154.284 421.466V422.278H156.104V429.936H153.822V431ZM164.009 431.182C165.745 431.182 167.369 429.908 167.369 427.654C167.369 425.4 165.983 424.392 164.275 424.392C163.659 424.392 163.211 424.546 162.749 424.798L163.001 421.83H166.879V420.724H161.881L161.559 425.54L162.245 425.96C162.833 425.568 163.267 425.358 163.953 425.358C165.241 425.358 166.081 426.226 166.081 427.696C166.081 429.194 165.101 430.118 163.897 430.118C162.707 430.118 161.965 429.572 161.377 428.984L160.747 429.824C161.433 430.51 162.413 431.182 164.009 431.182ZM178.047 428.788H179.209V419.492H178.047V421.116H174.505V422.04H178.047V423.524H174.505V424.434H178.047V428.788ZM175.975 425.512C174.099 425.848 172.461 425.946 170.739 425.96V420.388H169.591V426.926H170.543C172.391 426.926 174.085 426.828 176.101 426.464L175.975 425.512ZM172.307 430.818V427.99H171.159V431.756H179.531V430.818H172.307Z" fill="#383E41"/>
<path d="M236.532 431H242.986V429.894H240.144C239.626 429.894 238.996 429.95 238.464 429.992C240.872 427.71 242.482 425.624 242.482 423.58C242.482 421.746 241.334 420.542 239.5 420.542C238.198 420.542 237.316 421.144 236.476 422.054L237.218 422.782C237.778 422.11 238.506 421.592 239.346 421.592C240.62 421.592 241.236 422.446 241.236 423.622C241.236 425.386 239.752 427.43 236.532 430.244V431ZM247.574 431.182C249.52 431.182 250.766 429.404 250.766 425.834C250.766 422.278 249.52 420.542 247.574 420.542C245.614 420.542 244.368 422.264 244.368 425.834C244.368 429.404 245.614 431.182 247.574 431.182ZM247.574 430.16C246.398 430.16 245.614 428.858 245.614 425.834C245.614 422.838 246.398 421.564 247.574 421.564C248.736 421.564 249.52 422.838 249.52 425.834C249.52 428.858 248.736 430.16 247.574 430.16ZM252.679 431H258.307V429.936H256.249V420.724H255.269C254.709 421.06 254.051 421.298 253.141 421.466V422.278H254.961V429.936H252.679V431ZM263.315 425.582C264.561 425.582 265.177 426.464 265.177 427.85C265.177 429.25 264.407 430.188 263.427 430.188C262.139 430.188 261.369 429.026 261.215 426.898C261.845 425.96 262.671 425.582 263.315 425.582ZM263.427 431.182C265.023 431.182 266.367 429.838 266.367 427.85C266.367 425.708 265.261 424.63 263.525 424.63C262.713 424.63 261.817 425.106 261.187 425.876C261.243 422.684 262.433 421.606 263.833 421.606C264.463 421.606 265.079 421.9 265.485 422.39L266.185 421.592C265.625 420.99 264.855 420.542 263.791 420.542C261.803 420.542 259.997 422.082 259.997 426.1C259.997 429.488 261.453 431.182 263.427 431.182ZM276.905 428.788H278.067V419.492H276.905V421.116H273.363V422.04H276.905V423.524H273.363V424.434H276.905V428.788ZM274.833 425.512C272.957 425.848 271.319 425.946 269.597 425.96V420.388H268.449V426.926H269.401C271.249 426.926 272.943 426.828 274.959 426.464L274.833 425.512ZM271.165 430.818V427.99H270.017V431.756H278.389V430.818H271.165Z" fill="#383E41"/>
<path d="M335.388 431H341.842V429.894H339C338.482 429.894 337.852 429.95 337.32 429.992C339.728 427.71 341.338 425.624 341.338 423.58C341.338 421.746 340.19 420.542 338.356 420.542C337.054 420.542 336.172 421.144 335.332 422.054L336.074 422.782C336.634 422.11 337.362 421.592 338.202 421.592C339.476 421.592 340.092 422.446 340.092 423.622C340.092 425.386 338.608 427.43 335.388 430.244V431ZM346.43 431.182C348.376 431.182 349.622 429.404 349.622 425.834C349.622 422.278 348.376 420.542 346.43 420.542C344.47 420.542 343.224 422.264 343.224 425.834C343.224 429.404 344.47 431.182 346.43 431.182ZM346.43 430.16C345.254 430.16 344.47 428.858 344.47 425.834C344.47 422.838 345.254 421.564 346.43 421.564C347.592 421.564 348.376 422.838 348.376 425.834C348.376 428.858 347.592 430.16 346.43 430.16ZM351.536 431H357.164V429.936H355.106V420.724H354.126C353.566 421.06 352.908 421.298 351.998 421.466V422.278H353.818V429.936H351.536V431ZM360.841 431H362.171C362.325 426.982 362.773 424.588 365.181 421.508V420.724H358.755V421.83H363.725C361.723 424.63 361.009 427.108 360.841 431ZM375.761 428.788H376.923V419.492H375.761V421.116H372.219V422.04H375.761V423.524H372.219V424.434H375.761V428.788ZM373.689 425.512C371.813 425.848 370.175 425.946 368.453 425.96V420.388H367.305V426.926H368.257C370.105 426.926 371.799 426.828 373.815 426.464L373.689 425.512ZM370.021 430.818V427.99H368.873V431.756H377.245V430.818H370.021Z" fill="#383E41"/>
<path d="M434.246 431H440.7V429.894H437.858C437.34 429.894 436.71 429.95 436.178 429.992C438.586 427.71 440.196 425.624 440.196 423.58C440.196 421.746 439.048 420.542 437.214 420.542C435.912 420.542 435.03 421.144 434.19 422.054L434.932 422.782C435.492 422.11 436.22 421.592 437.06 421.592C438.334 421.592 438.95 422.446 438.95 423.622C438.95 425.386 437.466 427.43 434.246 430.244V431ZM445.288 431.182C447.234 431.182 448.48 429.404 448.48 425.834C448.48 422.278 447.234 420.542 445.288 420.542C443.328 420.542 442.082 422.264 442.082 425.834C442.082 429.404 443.328 431.182 445.288 431.182ZM445.288 430.16C444.112 430.16 443.328 428.858 443.328 425.834C443.328 422.838 444.112 421.564 445.288 421.564C446.45 421.564 447.234 422.838 447.234 425.834C447.234 428.858 446.45 430.16 445.288 430.16ZM450.393 431H456.021V429.936H453.963V420.724H452.983C452.423 421.06 451.765 421.298 450.855 421.466V422.278H452.675V429.936H450.393V431ZM460.833 431.182C462.765 431.182 464.053 430.02 464.053 428.522C464.053 427.122 463.213 426.352 462.317 425.834V425.764C462.933 425.288 463.689 424.364 463.689 423.286C463.689 421.704 462.625 420.584 460.875 420.584C459.279 420.584 458.061 421.62 458.061 423.188C458.061 424.266 458.691 425.036 459.447 425.554V425.624C458.509 426.128 457.557 427.08 457.557 428.452C457.557 430.034 458.943 431.182 460.833 431.182ZM461.533 425.428C460.329 424.952 459.223 424.42 459.223 423.188C459.223 422.194 459.909 421.522 460.861 421.522C461.967 421.522 462.597 422.348 462.597 423.356C462.597 424.112 462.233 424.812 461.533 425.428ZM460.861 430.23C459.629 430.23 458.719 429.432 458.719 428.34C458.719 427.36 459.293 426.548 460.119 426.016C461.575 426.604 462.835 427.122 462.835 428.494C462.835 429.516 462.037 430.23 460.861 430.23ZM474.618 428.788H475.78V419.492H474.618V421.116H471.076V422.04H474.618V423.524H471.076V424.434H474.618V428.788ZM472.546 425.512C470.67 425.848 469.032 425.946 467.31 425.96V420.388H466.162V426.926H467.114C468.962 426.926 470.656 426.828 472.672 426.464L472.546 425.512ZM468.878 430.818V427.99H467.73V431.756H476.102V430.818H468.878Z" fill="#383E41"/>
<path d="M533.103 431H539.557V429.894H536.715C536.197 429.894 535.567 429.95 535.035 429.992C537.443 427.71 539.053 425.624 539.053 423.58C539.053 421.746 537.905 420.542 536.071 420.542C534.769 420.542 533.887 421.144 533.047 422.054L533.789 422.782C534.349 422.11 535.077 421.592 535.917 421.592C537.191 421.592 537.807 422.446 537.807 423.622C537.807 425.386 536.323 427.43 533.103 430.244V431ZM544.145 431.182C546.091 431.182 547.337 429.404 547.337 425.834C547.337 422.278 546.091 420.542 544.145 420.542C542.185 420.542 540.939 422.264 540.939 425.834C540.939 429.404 542.185 431.182 544.145 431.182ZM544.145 430.16C542.969 430.16 542.185 428.858 542.185 425.834C542.185 422.838 542.969 421.564 544.145 421.564C545.307 421.564 546.091 422.838 546.091 425.834C546.091 428.858 545.307 430.16 544.145 430.16ZM549.251 431H554.879V429.936H552.821V420.724H551.841C551.281 421.06 550.623 421.298 549.713 421.466V422.278H551.533V429.936H549.251V431ZM557.604 423.874C557.604 422.474 558.36 421.55 559.34 421.55C560.656 421.55 561.44 422.67 561.58 424.784C560.922 425.75 560.138 426.156 559.438 426.156C558.22 426.156 557.604 425.26 557.604 423.874ZM559.06 431.182C560.992 431.182 562.784 429.586 562.784 425.428C562.784 422.166 561.314 420.542 559.34 420.542C557.744 420.542 556.4 421.886 556.4 423.874C556.4 426.002 557.52 427.108 559.228 427.108C560.082 427.108 560.964 426.618 561.594 425.848C561.496 429.026 560.348 430.118 559.018 430.118C558.36 430.118 557.73 429.824 557.31 429.334L556.596 430.132C557.17 430.734 557.954 431.182 559.06 431.182ZM573.476 428.788H574.638V419.492H573.476V421.116H569.934V422.04H573.476V423.524H569.934V424.434H573.476V428.788ZM571.404 425.512C569.528 425.848 567.89 425.946 566.168 425.96V420.388H565.02V426.926H565.972C567.82 426.926 569.514 426.828 571.53 426.464L571.404 425.512ZM567.736 430.818V427.99H566.588V431.756H574.96V430.818H567.736Z" fill="#383E41"/>
<path d="M631.961 431H638.415V429.894H635.573C635.055 429.894 634.425 429.95 633.893 429.992C636.301 427.71 637.911 425.624 637.911 423.58C637.911 421.746 636.763 420.542 634.929 420.542C633.627 420.542 632.745 421.144 631.905 422.054L632.647 422.782C633.207 422.11 633.935 421.592 634.775 421.592C636.049 421.592 636.665 422.446 636.665 423.622C636.665 425.386 635.181 427.43 631.961 430.244V431ZM643.002 431.182C644.948 431.182 646.194 429.404 646.194 425.834C646.194 422.278 644.948 420.542 643.002 420.542C641.042 420.542 639.796 422.264 639.796 425.834C639.796 429.404 641.042 431.182 643.002 431.182ZM643.002 430.16C641.826 430.16 641.042 428.858 641.042 425.834C641.042 422.838 641.826 421.564 643.002 421.564C644.164 421.564 644.948 422.838 644.948 425.834C644.948 428.858 644.164 430.16 643.002 430.16ZM647.492 431H653.946V429.894H651.104C650.586 429.894 649.956 429.95 649.424 429.992C651.832 427.71 653.442 425.624 653.442 423.58C653.442 421.746 652.294 420.542 650.46 420.542C649.158 420.542 648.276 421.144 647.436 422.054L648.178 422.782C648.738 422.11 649.466 421.592 650.306 421.592C651.58 421.592 652.196 422.446 652.196 423.622C652.196 425.386 650.712 427.43 647.492 430.244V431ZM658.534 431.182C660.48 431.182 661.726 429.404 661.726 425.834C661.726 422.278 660.48 420.542 658.534 420.542C656.574 420.542 655.328 422.264 655.328 425.834C655.328 429.404 656.574 431.182 658.534 431.182ZM658.534 430.16C657.358 430.16 656.574 428.858 656.574 425.834C656.574 422.838 657.358 421.564 658.534 421.564C659.696 421.564 660.48 422.838 660.48 425.834C660.48 428.858 659.696 430.16 658.534 430.16ZM672.333 428.788H673.495V419.492H672.333V421.116H668.791V422.04H672.333V423.524H668.791V424.434H672.333V428.788ZM670.261 425.512C668.385 425.848 666.747 425.946 665.025 425.96V420.388H663.877V426.926H664.829C666.677 426.926 668.371 426.828 670.387 426.464L670.261 425.512ZM666.593 430.818V427.99H665.445V431.756H673.817V430.818H666.593Z" fill="#383E41"/>
<path d="M730.817 431H737.271V429.894H734.429C733.911 429.894 733.281 429.95 732.749 429.992C735.157 427.71 736.767 425.624 736.767 423.58C736.767 421.746 735.619 420.542 733.785 420.542C732.483 420.542 731.601 421.144 730.761 422.054L731.503 422.782C732.063 422.11 732.791 421.592 733.631 421.592C734.905 421.592 735.521 422.446 735.521 423.622C735.521 425.386 734.037 427.43 730.817 430.244V431ZM741.859 431.182C743.805 431.182 745.051 429.404 745.051 425.834C745.051 422.278 743.805 420.542 741.859 420.542C739.899 420.542 738.653 422.264 738.653 425.834C738.653 429.404 739.899 431.182 741.859 431.182ZM741.859 430.16C740.683 430.16 739.899 428.858 739.899 425.834C739.899 422.838 740.683 421.564 741.859 421.564C743.021 421.564 743.805 422.838 743.805 425.834C743.805 428.858 743.021 430.16 741.859 430.16ZM746.348 431H752.802V429.894H749.96C749.442 429.894 748.812 429.95 748.28 429.992C750.688 427.71 752.298 425.624 752.298 423.58C752.298 421.746 751.15 420.542 749.316 420.542C748.014 420.542 747.132 421.144 746.292 422.054L747.034 422.782C747.594 422.11 748.322 421.592 749.162 421.592C750.436 421.592 751.052 422.446 751.052 423.622C751.052 425.386 749.568 427.43 746.348 430.244V431ZM754.73 431H760.358V429.936H758.3V420.724H757.32C756.76 421.06 756.102 421.298 755.192 421.466V422.278H757.012V429.936H754.73V431ZM771.19 428.788H772.352V419.492H771.19V421.116H767.648V422.04H771.19V423.524H767.648V424.434H771.19V428.788ZM769.118 425.512C767.242 425.848 765.604 425.946 763.882 425.96V420.388H762.734V426.926H763.686C765.534 426.926 767.228 426.828 769.244 426.464L769.118 425.512ZM765.45 430.818V427.99H764.302V431.756H772.674V430.818H765.45Z" fill="#383E41"/>
<path d="M829.675 431H836.129V429.894H833.287C832.769 429.894 832.139 429.95 831.607 429.992C834.015 427.71 835.625 425.624 835.625 423.58C835.625 421.746 834.477 420.542 832.643 420.542C831.341 420.542 830.459 421.144 829.619 422.054L830.361 422.782C830.921 422.11 831.649 421.592 832.489 421.592C833.763 421.592 834.379 422.446 834.379 423.622C834.379 425.386 832.895 427.43 829.675 430.244V431ZM840.716 431.182C842.662 431.182 843.908 429.404 843.908 425.834C843.908 422.278 842.662 420.542 840.716 420.542C838.756 420.542 837.51 422.264 837.51 425.834C837.51 429.404 838.756 431.182 840.716 431.182ZM840.716 430.16C839.54 430.16 838.756 428.858 838.756 425.834C838.756 422.838 839.54 421.564 840.716 421.564C841.878 421.564 842.662 422.838 842.662 425.834C842.662 428.858 841.878 430.16 840.716 430.16ZM845.206 431H851.66V429.894H848.818C848.3 429.894 847.67 429.95 847.138 429.992C849.546 427.71 851.156 425.624 851.156 423.58C851.156 421.746 850.008 420.542 848.174 420.542C846.872 420.542 845.99 421.144 845.15 422.054L845.892 422.782C846.452 422.11 847.18 421.592 848.02 421.592C849.294 421.592 849.91 422.446 849.91 423.622C849.91 425.386 848.426 427.43 845.206 430.244V431ZM852.971 431H859.425V429.894H856.583C856.065 429.894 855.435 429.95 854.903 429.992C857.311 427.71 858.921 425.624 858.921 423.58C858.921 421.746 857.773 420.542 855.939 420.542C854.637 420.542 853.755 421.144 852.915 422.054L853.657 422.782C854.217 422.11 854.945 421.592 855.785 421.592C857.059 421.592 857.675 422.446 857.675 423.622C857.675 425.386 856.191 427.43 852.971 430.244V431ZM870.047 428.788H871.209V419.492H870.047V421.116H866.505V422.04H870.047V423.524H866.505V424.434H870.047V428.788ZM867.975 425.512C866.099 425.848 864.461 425.946 862.739 425.96V420.388H861.591V426.926H862.543C864.391 426.926 866.085 426.828 868.101 426.464L867.975 425.512ZM864.307 430.818V427.99H863.159V431.756H871.531V430.818H864.307Z" fill="#383E41"/>
</svg>
