<svg width="382" height="303" viewBox="0 0 382 303" fill="none" xmlns="http://www.w3.org/2000/svg">
<path d="M1 1H85V46H1V1Z" fill="#FBFBFB"/>
<path d="M30.8573 21.844C30.8573 20.532 31.8013 19.636 33.0653 19.636C34.2973 19.636 35.2413 20.532 35.2413 21.844C35.2413 23.188 34.2973 24.084 33.0653 24.084C31.8013 24.084 30.8573 23.188 30.8573 21.844ZM39.4173 20.772V22.916H36.6493C36.7613 22.58 36.8093 22.228 36.8093 21.844C36.8093 21.46 36.7613 21.108 36.6493 20.772H39.4173ZM39.4173 24.26V27.924H41.0653V17.3H39.4173V19.428H35.9453C35.2733 18.66 34.2493 18.18 33.0653 18.18C30.9213 18.18 29.2893 19.716 29.2893 21.844C29.2893 23.972 30.9213 25.508 33.0653 25.508C34.2493 25.524 35.2733 25.044 35.9453 24.26H39.4173ZM33.3533 30.116V26.852H31.7053V31.46H41.4333V30.116H33.3533ZM54.136 26.164H55.784V17.3H54.136V19.396H51.544V20.74H54.136V22.356H51.544V23.7H54.136V26.164ZM51.32 23.844C49.752 24.116 48.424 24.164 46.024 24.18V22.324H50.632V18.068H44.36V19.396H49V21.076H44.392V25.524H45.448C48.28 25.524 49.752 25.476 51.496 25.172L51.32 23.844ZM50.968 30.548C48.904 30.548 47.752 30.036 47.752 29.108C47.752 28.18 48.904 27.668 50.968 27.668C53.032 27.668 54.216 28.18 54.216 29.108C54.216 30.036 53.032 30.548 50.968 30.548ZM50.968 26.404C47.96 26.404 46.104 27.412 46.104 29.108C46.104 30.82 47.96 31.812 50.968 31.812C54.008 31.812 55.864 30.82 55.864 29.108C55.864 27.412 54.008 26.404 50.968 26.404Z" fill="#2C2F31"/>
<path d="M1 1V0.5H0.5V1H1ZM85 1H85.5V0.5H85V1ZM85 46V46.5H85.5V46H85ZM1 46H0.5V46.5H1V46ZM1 1.5H85V0.5H1V1.5ZM84.5 1V46H85.5V1H84.5ZM85 45.5H1V46.5H85V45.5ZM1.5 46V1H0.5V46H1.5Z" fill="#CAD1D5"/>
<path d="M85 1H381V46H85V1Z" fill="#FBFBFB"/>
<path d="M163.316 21.188H165.796V19.828H163.316V17.78H161.748V19.828H159.252V21.188H161.748V21.7C161.748 24.004 160.788 26.468 158.804 27.636L159.748 28.884C161.124 28.084 162.036 26.628 162.548 24.932C163.076 26.5 164.004 27.828 165.364 28.564L166.276 27.332C164.292 26.26 163.316 23.956 163.316 21.7V21.188ZM166.82 22.884H164.868V24.228H166.82V31.028H168.372V17.572H166.82V22.884ZM169.732 17.284V31.732H171.3V17.284H169.732ZM185.603 17.284H183.939V24.74H185.603V17.284ZM182.595 23.252C180.403 22.628 179.123 21.044 179.075 19.364H182.163V18.036H174.259V19.364H177.395C177.363 21.156 176.051 22.868 173.811 23.54L174.595 24.836C176.355 24.276 177.619 23.108 178.259 21.636C178.915 22.964 180.147 24.036 181.859 24.516L182.595 23.252ZM177.779 30.324V29.044H185.603V25.396H176.131V26.644H183.971V27.86H176.163V31.604H186.035V30.324H177.779ZM196.818 23.46C194.834 23.828 193.09 23.908 190.61 23.924V22.276H195.522V18.148H188.962V19.476H193.89V21.028H188.994V25.268H190.162C192.93 25.268 194.818 25.188 196.994 24.804L196.818 23.46ZM195.026 30.468C192.978 30.468 191.826 29.972 191.826 29.044C191.826 28.132 192.978 27.636 195.026 27.636C197.058 27.636 198.226 28.132 198.226 29.044C198.226 29.972 197.058 30.468 195.026 30.468ZM195.026 26.356C192.034 26.356 190.21 27.348 190.21 29.044C190.21 30.74 192.034 31.732 195.026 31.732C198.018 31.732 199.842 30.74 199.842 29.044C199.842 27.348 198.018 26.356 195.026 26.356ZM201.73 20.756V19.396H199.698V17.268H198.05V26.02H199.698V23.796H201.73V22.436H199.698V20.756H201.73ZM208.464 20.084H211.68V18.724H203.584V20.084H206.8V21.46C206.8 23.94 205.312 26.628 203.072 27.668L204.016 28.98C205.712 28.164 207.008 26.452 207.648 24.436C208.32 26.308 209.616 27.876 211.296 28.612L212.208 27.316C209.952 26.356 208.464 23.86 208.464 21.46V20.084ZM213.36 17.284V31.732H215.024V17.284H213.36ZM230.351 22.612C227.439 22.196 225.263 20.388 225.263 18.516V17.748H223.519V18.516C223.519 20.42 221.375 22.196 218.431 22.612L219.071 23.94C221.471 23.556 223.471 22.356 224.399 20.676C225.343 22.34 227.311 23.556 229.711 23.94L230.351 22.612ZM230.911 25.3H217.855V26.644H223.519V31.748H225.167V26.644H230.911V25.3ZM240.856 23.732H238.296V21.668H240.856V23.732ZM242.392 18.212H240.856V20.372H238.296V18.212H236.744V25.06H242.392V18.212ZM238.584 28.068H246.744V31.748H248.392V26.756H238.584V28.068ZM246.824 17.284V20.948H245.304V17.556H243.752V25.908H245.304V22.292H246.824V25.956H248.392V17.284H246.824ZM260.63 22.292H254.198V20.676H260.63V22.292ZM262.262 17.748H260.63V19.412H254.198V17.748H252.566V23.588H262.262V17.748ZM254.118 27.508H252.47V31.46H262.518V30.116H254.118V27.508ZM250.87 24.804V26.132H256.726V28.708H258.374V26.132H263.974V24.804H250.87ZM270.309 19.268C271.573 19.268 272.453 19.924 272.453 20.932C272.453 21.956 271.573 22.612 270.309 22.612C269.061 22.612 268.165 21.956 268.165 20.932C268.165 19.924 269.061 19.268 270.309 19.268ZM270.309 23.972C272.469 23.972 274.037 22.724 274.037 20.932C274.037 19.156 272.469 17.908 270.309 17.908C268.149 17.908 266.581 19.156 266.581 20.932C266.581 22.724 268.149 23.972 270.309 23.972ZM274.965 24.516C271.845 24.98 268.213 25.028 265.605 25.028L265.797 26.388C266.917 26.388 268.197 26.372 269.557 26.324V31.3H271.205V26.228C272.485 26.132 273.813 25.988 275.077 25.732L274.965 24.516ZM275.909 17.284V31.748H277.557V17.284H275.909ZM292.82 22.612C289.908 22.196 287.732 20.388 287.732 18.516V17.748H285.988V18.516C285.988 20.42 283.844 22.196 280.9 22.612L281.54 23.94C283.94 23.556 285.94 22.356 286.868 20.676C287.812 22.34 289.78 23.556 292.18 23.94L292.82 22.612ZM293.38 25.3H280.324V26.644H285.988V31.748H287.636V26.644H293.38V25.3ZM299.299 23.844H294.627V22.852L296.435 21.076C296.84 20.692 297.144 20.3773 297.347 20.132C297.56 19.8867 297.704 19.668 297.779 19.476C297.864 19.284 297.907 19.076 297.907 18.852C297.907 18.5533 297.816 18.3293 297.635 18.18C297.453 18.02 297.224 17.94 296.947 17.94C296.659 17.94 296.387 18.004 296.131 18.132C295.875 18.2493 295.613 18.4147 295.347 18.628L294.659 17.764C294.979 17.4867 295.331 17.268 295.715 17.108C296.099 16.9373 296.536 16.852 297.027 16.852C297.709 16.852 298.248 17.0227 298.643 17.364C299.048 17.6947 299.251 18.1587 299.251 18.756C299.251 19.268 299.096 19.732 298.787 20.148C298.488 20.5533 298.04 21.0387 297.443 21.604L296.291 22.676H299.299V23.844ZM302.665 20.292C302.665 21.1773 302.537 21.988 302.281 22.724C302.035 23.4493 301.673 24.0947 301.193 24.66H300.041C300.553 24.0627 300.931 23.3853 301.177 22.628C301.422 21.86 301.545 21.0867 301.545 20.308C301.545 19.508 301.417 18.7347 301.161 17.988C300.915 17.2413 300.547 16.5747 300.057 15.988H301.193C301.683 16.5427 302.051 17.1933 302.297 17.94C302.542 18.676 302.665 19.46 302.665 20.292Z" fill="#2C2F31"/>
<path d="M85 1V0.5H84.5V1H85ZM381 1H381.5V0.5H381V1ZM381 46V46.5H381.5V46H381ZM85 46H84.5V46.5H85V46ZM85 1.5H381V0.5H85V1.5ZM380.5 1V46H381.5V1H380.5ZM381 45.5H85V46.5H381V45.5ZM85.5 46V1H84.5V46H85.5Z" fill="#CAD1D5"/>
<path d="M1 46H85V174H1V46Z" fill="white"/>
<path d="M22.1101 116.5H28.5641V115.394H25.7221C25.2041 115.394 24.5741 115.45 24.0421 115.492C26.4501 113.21 28.0601 111.124 28.0601 109.08C28.0601 107.246 26.9121 106.042 25.0781 106.042C23.7761 106.042 22.8941 106.644 22.0541 107.554L22.7961 108.282C23.3561 107.61 24.0841 107.092 24.9241 107.092C26.1981 107.092 26.8141 107.946 26.8141 109.122C26.8141 110.886 25.3301 112.93 22.1101 115.744V116.5ZM34.5238 112.482C35.1958 112.482 35.8958 112.062 36.4698 111.082L35.7418 110.564C35.3918 111.236 34.9998 111.516 34.5518 111.516C33.6698 111.516 33.0118 110.2 31.7798 110.2C31.0938 110.2 30.3938 110.62 29.8198 111.6L30.5338 112.104C30.8978 111.432 31.2898 111.152 31.7378 111.152C32.6198 111.152 33.2918 112.482 34.5238 112.482ZM37.6414 116.5H44.0954V115.394H41.2534C40.7354 115.394 40.1054 115.45 39.5734 115.492C41.9814 113.21 43.5914 111.124 43.5914 109.08C43.5914 107.246 42.4434 106.042 40.6094 106.042C39.3074 106.042 38.4254 106.644 37.5854 107.554L38.3274 108.282C38.8874 107.61 39.6154 107.092 40.4554 107.092C41.7294 107.092 42.3454 107.946 42.3454 109.122C42.3454 110.886 40.8614 112.93 37.6414 115.744V116.5ZM46.737 116.682C47.241 116.682 47.661 116.29 47.661 115.716C47.661 115.128 47.241 114.722 46.737 114.722C46.233 114.722 45.813 115.128 45.813 115.716C45.813 116.29 46.233 116.682 46.737 116.682ZM52.3415 116.682C54.0775 116.682 55.7015 115.408 55.7015 113.154C55.7015 110.9 54.3155 109.892 52.6075 109.892C51.9915 109.892 51.5435 110.046 51.0815 110.298L51.3335 107.33H55.2115V106.224H50.2135L49.8915 111.04L50.5775 111.46C51.1655 111.068 51.5995 110.858 52.2855 110.858C53.5735 110.858 54.4135 111.726 54.4135 113.196C54.4135 114.694 53.4335 115.618 52.2295 115.618C51.0395 115.618 50.2975 115.072 49.7095 114.484L49.0795 115.324C49.7655 116.01 50.7455 116.682 52.3415 116.682ZM59.8131 104.684V110.676H58.8191V106.812C58.8191 106.569 58.8238 106.35 58.8331 106.154C58.8518 105.958 58.8658 105.762 58.8751 105.566C58.7818 105.65 58.6791 105.743 58.5671 105.846C58.4551 105.939 58.3385 106.028 58.2171 106.112L57.4611 106.658L56.9711 105.972L58.7911 104.684H59.8131ZM63.6437 107.526C63.6437 108.31 63.5317 109.015 63.3077 109.64C63.0837 110.265 62.7663 110.821 62.3557 111.306H61.4317C61.889 110.793 62.225 110.209 62.4397 109.556C62.6637 108.893 62.7757 108.221 62.7757 107.54C62.7757 106.84 62.659 106.168 62.4257 105.524C62.2017 104.88 61.8703 104.306 61.4317 103.802H62.3557C62.7757 104.287 63.093 104.852 63.3077 105.496C63.5317 106.131 63.6437 106.807 63.6437 107.526Z" fill="#2C2F31"/>
<path d="M1 46V45.5H0.5V46H1ZM85 46H85.5V45.5H85V46ZM85 174V174.5H85.5V174H85ZM1 174H0.5V174.5H1V174ZM1 46.5H85V45.5H1V46.5ZM84.5 46V174H85.5V46H84.5ZM85 173.5H1V174.5H85V173.5ZM1.5 174V46H0.5V174H1.5Z" fill="#CAD1D5"/>
<path d="M85 46H169V78H85V46Z" fill="white"/>
<path d="M112.764 59.204H115.62V58.266H108.774V59.204H111.616V60.66C111.616 62.886 110.118 65.266 108.326 66.148L108.998 67.058C110.426 66.302 111.644 64.692 112.19 62.844C112.764 64.58 113.968 66.078 115.368 66.792L116.054 65.896C114.234 65.028 112.764 62.746 112.764 60.66V59.204ZM117.622 56.978V61.542H114.906V62.48H117.622V69.55H118.77V56.978H117.622ZM124.957 60.24H127.281V59.288H124.971V57.426H123.865V59.288H121.541V60.24H123.865V60.842C123.865 62.9 122.899 65.098 121.205 66.106L121.877 66.96C123.109 66.218 123.991 64.818 124.425 63.222C124.887 64.734 125.783 66.008 127.001 66.694L127.659 65.826C125.965 64.916 124.957 62.844 124.957 60.842V60.24ZM128.345 61.934H126.427V62.886H128.345V68.878H129.437V57.272H128.345V61.934ZM130.865 56.978V69.522H131.971V56.978H130.865ZM135.231 62.102C137.289 61.85 139.179 60.926 139.865 59.54C140.565 60.926 142.441 61.85 144.499 62.102L144.905 61.192C142.707 60.94 140.705 59.862 140.607 58.476H144.513V57.552H135.231V58.476H139.123C139.025 59.862 137.023 60.94 134.825 61.192L135.231 62.102ZM142.987 67.31C142.987 68.15 141.811 68.64 139.851 68.64C137.877 68.64 136.715 68.15 136.715 67.31C136.715 66.47 137.877 65.994 139.851 65.994C141.811 65.994 142.987 66.47 142.987 67.31ZM145.535 63.782V62.858H134.181V63.782H139.277V65.126C136.939 65.238 135.553 66.008 135.553 67.31C135.553 68.738 137.177 69.522 139.865 69.522C142.539 69.522 144.149 68.738 144.149 67.31C144.149 66.008 142.777 65.238 140.439 65.126V63.782H145.535Z" fill="#2C2F31"/>
<path d="M85 46V45.5H84.5V46H85ZM169 46H169.5V45.5H169V46ZM169 78V78.5H169.5V78H169ZM85 78H84.5V78.5H85V78ZM85 46.5H169V45.5H85V46.5ZM168.5 46V78H169.5V46H168.5ZM169 77.5H85V78.5H169V77.5ZM85.5 78V46H84.5V78H85.5Z" fill="#CAD1D5"/>
<path d="M169 46H381V78H169V46Z" fill="white"/>
<path d="M247.554 59.694V61.192H244.278V62.088H247.554V63.39H248.716V56.978H247.554V58.798H244.712C244.796 58.406 244.838 58.014 244.838 57.594H239.224V58.532H243.592C243.382 60.52 241.632 62.018 238.566 62.732L238.986 63.67C241.758 63.012 243.676 61.668 244.46 59.694H247.554ZM241.786 68.5V67.044H248.716V63.964H240.624V64.888H247.568V66.176H240.652V69.41H249.136V68.5H241.786ZM257.801 64.02C258.151 61.682 258.151 60.044 258.151 59.036V58.35H251.809V59.288H257.031C257.031 60.296 257.003 61.822 256.653 63.908L257.801 64.02ZM254.917 61.934H253.783V65.798C252.845 65.826 251.921 65.84 251.123 65.84L251.249 66.792C253.475 66.792 256.429 66.736 259.033 66.316L258.963 65.476C257.689 65.63 256.289 65.714 254.917 65.77V61.934ZM262.883 62.228H260.881V56.978H259.733V69.536H260.881V63.194H262.883V62.228ZM273.755 66.456V65.336L270.451 64.118L268.351 63.334V63.278L270.451 62.494L273.755 61.276V60.156L267.049 62.788V63.824L273.755 66.456ZM278.645 68.5H284.273V67.436H282.215V58.224H281.235C280.675 58.56 280.017 58.798 279.107 58.966V59.778H280.927V67.436H278.645V68.5ZM286.789 64.65L289.127 61.15C289.421 60.646 289.701 60.142 289.953 59.638H290.009C289.981 60.17 289.939 60.996 289.939 61.5V64.65H286.789ZM289.939 68.5H291.143V65.672H292.501V64.65H291.143V58.224H289.729L285.459 64.832V65.672H289.939V68.5ZM294.89 68.682C295.394 68.682 295.814 68.29 295.814 67.716C295.814 67.128 295.394 66.722 294.89 66.722C294.386 66.722 293.966 67.128 293.966 67.716C293.966 68.29 294.386 68.682 294.89 68.682ZM300.537 68.682C302.357 68.682 303.827 67.59 303.827 65.756C303.827 64.356 302.861 63.432 301.657 63.152V63.096C302.735 62.69 303.477 61.864 303.477 60.618C303.477 58.994 302.217 58.042 300.495 58.042C299.305 58.042 298.395 58.56 297.625 59.274L298.311 60.086C298.885 59.498 299.613 59.092 300.439 59.092C301.503 59.092 302.175 59.736 302.175 60.716C302.175 61.822 301.447 62.676 299.333 62.676V63.656C301.699 63.656 302.525 64.482 302.525 65.7C302.525 66.89 301.657 67.618 300.439 67.618C299.277 67.618 298.493 67.072 297.891 66.442L297.247 67.282C297.919 68.01 298.927 68.682 300.537 68.682ZM308.302 68.682C310.122 68.682 311.592 67.59 311.592 65.756C311.592 64.356 310.626 63.432 309.422 63.152V63.096C310.5 62.69 311.242 61.864 311.242 60.618C311.242 58.994 309.982 58.042 308.26 58.042C307.07 58.042 306.16 58.56 305.39 59.274L306.076 60.086C306.65 59.498 307.378 59.092 308.204 59.092C309.268 59.092 309.94 59.736 309.94 60.716C309.94 61.822 309.212 62.676 307.098 62.676V63.656C309.464 63.656 310.29 64.482 310.29 65.7C310.29 66.89 309.422 67.618 308.204 67.618C307.042 67.618 306.258 67.072 305.656 66.442L305.012 67.282C305.684 68.01 306.692 68.682 308.302 68.682Z" fill="#2C2F31"/>
<path d="M169 46V45.5H168.5V46H169ZM381 46H381.5V45.5H381V46ZM381 78V78.5H381.5V78H381ZM169 78H168.5V78.5H169V78ZM169 46.5H381V45.5H169V46.5ZM380.5 46V78H381.5V46H380.5ZM381 77.5H169V78.5H381V77.5ZM169.5 78V46H168.5V78H169.5Z" fill="#CAD1D5"/>
<path d="M85 78H169V110H85V78Z" fill="white"/>
<path d="M108.69 92.24V93.178H111.168V96.468H112.33V88.992H111.168V92.24H108.69ZM109.39 95.096C107.57 94.452 106.338 92.87 106.338 91.26V90.826H109.096V89.902H102.39V90.826H105.19V91.26C105.19 93.066 103.902 94.76 102.026 95.446L102.628 96.356C104.098 95.796 105.26 94.62 105.792 93.164C106.338 94.452 107.416 95.488 108.816 95.992L109.39 95.096ZM108.186 100.64C106.296 100.64 105.148 100.108 105.148 99.198C105.148 98.288 106.296 97.742 108.186 97.742C110.076 97.742 111.224 98.288 111.224 99.198C111.224 100.108 110.076 100.64 108.186 100.64ZM108.186 96.86C105.61 96.86 104 97.714 104 99.198C104 100.682 105.61 101.536 108.186 101.536C110.762 101.536 112.372 100.682 112.372 99.198C112.372 97.714 110.762 96.86 108.186 96.86ZM122.115 94.886C120.309 94.27 119.077 92.702 119.077 91.008V89.622H117.929V90.91C117.929 92.828 116.711 94.536 114.807 95.222L115.409 96.132C116.879 95.572 117.999 94.424 118.517 92.954C119.077 94.242 120.155 95.278 121.513 95.782L122.115 94.886ZM120.617 100.626C118.755 100.626 117.621 100.108 117.621 99.24C117.621 98.358 118.755 97.84 120.617 97.84C122.465 97.84 123.599 98.358 123.599 99.24C123.599 100.108 122.465 100.626 120.617 100.626ZM120.617 96.944C118.055 96.944 116.473 97.77 116.473 99.24C116.473 100.696 118.055 101.522 120.617 101.522C123.165 101.522 124.747 100.696 124.747 99.24C124.747 97.77 123.165 96.944 120.617 96.944ZM124.607 92.226V88.992H123.459V96.594H124.607V93.178H126.469V92.226H124.607ZM131.396 92.24H133.72V91.288H131.41V89.426H130.304V91.288H127.98V92.24H130.304V92.842C130.304 94.9 129.338 97.098 127.644 98.106L128.316 98.96C129.548 98.218 130.43 96.818 130.864 95.222C131.326 96.734 132.222 98.008 133.44 98.694L134.098 97.826C132.404 96.916 131.396 94.844 131.396 92.842V92.24ZM134.784 93.934H132.866V94.886H134.784V100.878H135.876V89.272H134.784V93.934ZM137.304 88.978V101.522H138.41V88.978H137.304ZM141.671 94.102C143.729 93.85 145.619 92.926 146.305 91.54C147.005 92.926 148.881 93.85 150.939 94.102L151.345 93.192C149.147 92.94 147.145 91.862 147.047 90.476H150.953V89.552H141.671V90.476H145.563C145.465 91.862 143.463 92.94 141.265 93.192L141.671 94.102ZM149.427 99.31C149.427 100.15 148.251 100.64 146.291 100.64C144.317 100.64 143.155 100.15 143.155 99.31C143.155 98.47 144.317 97.994 146.291 97.994C148.251 97.994 149.427 98.47 149.427 99.31ZM151.975 95.782V94.858H140.621V95.782H145.717V97.126C143.379 97.238 141.993 98.008 141.993 99.31C141.993 100.738 143.617 101.522 146.305 101.522C148.979 101.522 150.589 100.738 150.589 99.31C150.589 98.008 149.217 97.238 146.879 97.126V95.782H151.975Z" fill="#2C2F31"/>
<path d="M85 78V77.5H84.5V78H85ZM169 78H169.5V77.5H169V78ZM169 110V110.5H169.5V110H169ZM85 110H84.5V110.5H85V110ZM85 78.5H169V77.5H85V78.5ZM168.5 78V110H169.5V78H168.5ZM169 109.5H85V110.5H169V109.5ZM85.5 110V78H84.5V110H85.5Z" fill="#CAD1D5"/>
<path d="M169 78H381V110H169V78Z" fill="white"/>
<path d="M211.25 100.5H216.878V99.436H214.82V90.224H213.84C213.28 90.56 212.622 90.798 211.712 90.966V91.778H213.532V99.436H211.25V100.5ZM219.393 96.65L221.731 93.15C222.025 92.646 222.305 92.142 222.557 91.638H222.613C222.585 92.17 222.543 92.996 222.543 93.5V96.65H219.393ZM222.543 100.5H223.747V97.672H225.105V96.65H223.747V90.224H222.333L218.063 96.832V97.672H222.543V100.5ZM227.495 100.682C227.999 100.682 228.419 100.29 228.419 99.716C228.419 99.128 227.999 98.722 227.495 98.722C226.991 98.722 226.571 99.128 226.571 99.716C226.571 100.29 226.991 100.682 227.495 100.682ZM233.141 100.682C234.961 100.682 236.431 99.59 236.431 97.756C236.431 96.356 235.465 95.432 234.261 95.152V95.096C235.339 94.69 236.081 93.864 236.081 92.618C236.081 90.994 234.821 90.042 233.099 90.042C231.909 90.042 230.999 90.56 230.229 91.274L230.915 92.086C231.489 91.498 232.217 91.092 233.043 91.092C234.107 91.092 234.779 91.736 234.779 92.716C234.779 93.822 234.051 94.676 231.937 94.676V95.656C234.303 95.656 235.129 96.482 235.129 97.7C235.129 98.89 234.261 99.618 233.043 99.618C231.881 99.618 231.097 99.072 230.495 98.442L229.851 99.282C230.523 100.01 231.531 100.682 233.141 100.682ZM240.907 100.682C242.727 100.682 244.197 99.59 244.197 97.756C244.197 96.356 243.231 95.432 242.027 95.152V95.096C243.105 94.69 243.847 93.864 243.847 92.618C243.847 90.994 242.587 90.042 240.865 90.042C239.675 90.042 238.765 90.56 237.995 91.274L238.681 92.086C239.255 91.498 239.983 91.092 240.809 91.092C241.873 91.092 242.545 91.736 242.545 92.716C242.545 93.822 241.817 94.676 239.703 94.676V95.656C242.069 95.656 242.895 96.482 242.895 97.7C242.895 98.89 242.027 99.618 240.809 99.618C239.647 99.618 238.863 99.072 238.261 98.442L237.617 99.282C238.289 100.01 239.297 100.682 240.907 100.682ZM249.899 99.338V100.248H260.315V99.338H249.899ZM252.097 93.794L260.343 90.462L259.979 89.566L249.535 93.794V93.85L259.979 98.064L260.343 97.182L252.097 93.85V93.794ZM275.164 91.694V93.192H271.888V94.088H275.164V95.39H276.326V88.978H275.164V90.798H272.322C272.406 90.406 272.448 90.014 272.448 89.594H266.834V90.532H271.202C270.992 92.52 269.242 94.018 266.176 94.732L266.596 95.67C269.368 95.012 271.286 93.668 272.07 91.694H275.164ZM269.396 100.5V99.044H276.326V95.964H268.234V96.888H275.178V98.176H268.262V101.41H276.746V100.5H269.396ZM285.411 96.02C285.761 93.682 285.761 92.044 285.761 91.036V90.35H279.419V91.288H284.641C284.641 92.296 284.613 93.822 284.263 95.908L285.411 96.02ZM282.527 93.934H281.393V97.798C280.455 97.826 279.531 97.84 278.733 97.84L278.859 98.792C281.085 98.792 284.039 98.736 286.643 98.316L286.573 97.476C285.299 97.63 283.899 97.714 282.527 97.77V93.934ZM290.493 94.228H288.491V88.978H287.343V101.536H288.491V95.194H290.493V94.228ZM301.365 98.456V97.336L298.061 96.118L295.961 95.334V95.278L298.061 94.494L301.365 93.276V92.156L294.659 94.788V95.824L301.365 98.456ZM306.255 100.5H311.883V99.436H309.825V90.224H308.845C308.285 90.56 307.627 90.798 306.717 90.966V91.778H308.537V99.436H306.255V100.5ZM316.695 100.682C318.627 100.682 319.915 99.52 319.915 98.022C319.915 96.622 319.075 95.852 318.179 95.334V95.264C318.795 94.788 319.551 93.864 319.551 92.786C319.551 91.204 318.487 90.084 316.737 90.084C315.141 90.084 313.923 91.12 313.923 92.688C313.923 93.766 314.553 94.536 315.309 95.054V95.124C314.371 95.628 313.419 96.58 313.419 97.952C313.419 99.534 314.805 100.682 316.695 100.682ZM317.395 94.928C316.191 94.452 315.085 93.92 315.085 92.688C315.085 91.694 315.771 91.022 316.723 91.022C317.829 91.022 318.459 91.848 318.459 92.856C318.459 93.612 318.095 94.312 317.395 94.928ZM316.723 99.73C315.491 99.73 314.581 98.932 314.581 97.84C314.581 96.86 315.155 96.048 315.981 95.516C317.437 96.104 318.697 96.622 318.697 97.994C318.697 99.016 317.899 99.73 316.723 99.73ZM322.501 100.682C323.005 100.682 323.425 100.29 323.425 99.716C323.425 99.128 323.005 98.722 322.501 98.722C321.997 98.722 321.577 99.128 321.577 99.716C321.577 100.29 321.997 100.682 322.501 100.682ZM325.067 100.5H331.521V99.394H328.679C328.161 99.394 327.531 99.45 326.999 99.492C329.407 97.21 331.017 95.124 331.017 93.08C331.017 91.246 329.869 90.042 328.035 90.042C326.733 90.042 325.851 90.644 325.011 91.554L325.753 92.282C326.313 91.61 327.041 91.092 327.881 91.092C329.155 91.092 329.771 91.946 329.771 93.122C329.771 94.886 328.287 96.93 325.067 99.744V100.5ZM333.827 96.65L336.165 93.15C336.459 92.646 336.739 92.142 336.991 91.638H337.047C337.019 92.17 336.977 92.996 336.977 93.5V96.65H333.827ZM336.977 100.5H338.181V97.672H339.539V96.65H338.181V90.224H336.767L332.497 96.832V97.672H336.977V100.5Z" fill="#2C2F31"/>
<path d="M169 78V77.5H168.5V78H169ZM381 78H381.5V77.5H381V78ZM381 110V110.5H381.5V110H381ZM169 110H168.5V110.5H169V110ZM169 78.5H381V77.5H169V78.5ZM380.5 78V110H381.5V78H380.5ZM381 109.5H169V110.5H381V109.5ZM169.5 110V78H168.5V110H169.5Z" fill="#CAD1D5"/>
<path d="M85 110H169V142H85V110Z" fill="#E1F7FE"/>
<path d="M115.018 128.048C115.368 125.808 115.368 124.212 115.368 123.106V122.266H108.942V123.428H113.954C113.954 124.492 113.926 125.962 113.604 127.922L115.018 128.048ZM112.19 125.892H110.776V129.7C109.894 129.714 109.04 129.728 108.27 129.728L108.424 130.918C110.636 130.918 113.534 130.862 116.138 130.428L116.068 129.378C114.836 129.532 113.506 129.616 112.19 129.672V125.892ZM120.058 126.13H118.196V120.936H116.74V133.578H118.196V127.348H120.058V126.13ZM125.069 124.352H127.239V123.162H125.069V121.37H123.697V123.162H121.513V124.352H123.697V124.8C123.697 126.816 122.857 128.972 121.121 129.994L121.947 131.086C123.151 130.386 123.949 129.112 124.397 127.628C124.859 129 125.671 130.162 126.861 130.806L127.659 129.728C125.923 128.79 125.069 126.774 125.069 124.8V124.352ZM128.135 125.836H126.427V127.012H128.135V132.962H129.493V121.188H128.135V125.836ZM130.683 120.936V133.578H132.055V120.936H130.683ZM135.231 126.13C137.443 125.892 139.179 124.982 139.865 123.68C140.537 124.982 142.273 125.892 144.499 126.13L145.003 124.996C142.665 124.758 141.041 123.778 140.845 122.644H144.541V121.482H135.203V122.644H138.871C138.675 123.778 137.051 124.758 134.713 124.996L135.231 126.13ZM142.735 131.338C142.735 132.066 141.685 132.472 139.837 132.472C137.989 132.472 136.953 132.066 136.953 131.338C136.953 130.582 137.989 130.19 139.837 130.19C141.685 130.19 142.735 130.582 142.735 131.338ZM145.577 127.922V126.774H134.139V127.922H139.137V129.084C136.841 129.224 135.483 130.022 135.483 131.338C135.483 132.766 137.121 133.578 139.837 133.578C142.567 133.578 144.191 132.766 144.191 131.338C144.191 130.022 142.861 129.238 140.579 129.098V127.922H145.577Z" fill="#0096B7"/>
<path d="M85 110V109.5H84.5V110H85ZM169 110H169.5V109.5H169V110ZM169 142V142.5H169.5V142H169ZM85 142H84.5V142.5H85V142ZM85 110.5H169V109.5H85V110.5ZM168.5 110V142H169.5V110H168.5ZM169 141.5H85V142.5H169V141.5ZM85.5 142V110H84.5V142H85.5Z" fill="#83E0F9"/>
<path d="M169 110H381V142H169V110Z" fill="#E1F7FE"/>
<path d="M213.929 132.5H219.809V131.17H217.793V122.182H216.575C215.987 122.56 215.301 122.798 214.335 122.98V124.002H216.183V131.17H213.929V132.5ZM224.713 132.682C226.701 132.682 228.045 131.506 228.045 129.98C228.045 128.58 227.233 127.768 226.309 127.25V127.18C226.953 126.704 227.667 125.808 227.667 124.758C227.667 123.148 226.547 122.028 224.755 122.028C223.075 122.028 221.815 123.078 221.815 124.688C221.815 125.78 222.431 126.55 223.201 127.096V127.166C222.249 127.67 221.353 128.58 221.353 129.938C221.353 131.534 222.781 132.682 224.713 132.682ZM225.385 126.774C224.237 126.326 223.257 125.808 223.257 124.688C223.257 123.764 223.887 123.19 224.727 123.19C225.735 123.19 226.309 123.904 226.309 124.856C226.309 125.542 226.001 126.2 225.385 126.774ZM224.741 131.52C223.635 131.52 222.781 130.806 222.781 129.784C222.781 128.888 223.271 128.118 223.985 127.628C225.385 128.202 226.519 128.678 226.519 129.938C226.519 130.904 225.805 131.52 224.741 131.52ZM230.779 132.682C231.381 132.682 231.857 132.22 231.857 131.562C231.857 130.89 231.381 130.414 230.779 130.414C230.177 130.414 229.701 130.89 229.701 131.562C229.701 132.22 230.177 132.682 230.779 132.682ZM233.479 132.5H240.129V131.128H237.553C237.049 131.128 236.405 131.17 235.873 131.226C238.057 129.14 239.639 127.082 239.639 125.094C239.639 123.232 238.421 122 236.531 122C235.187 122 234.277 122.574 233.395 123.54L234.305 124.436C234.851 123.806 235.523 123.288 236.335 123.288C237.497 123.288 238.085 124.058 238.085 125.178C238.085 126.872 236.517 128.874 233.479 131.562V132.5ZM242.752 128.482L244.782 125.374C245.076 124.842 245.356 124.31 245.608 123.778H245.664C245.636 124.352 245.594 125.22 245.594 125.78V128.482H242.752ZM245.594 132.5H247.106V129.728H248.408V128.482H247.106V122.182H245.23L241.128 128.65V129.728H245.594V132.5ZM253.783 131.324V132.416H264.171V131.324H253.783ZM256.457 125.808L264.227 122.672L263.793 121.58L253.363 125.808V125.85L263.793 130.078L264.227 128.986L256.457 125.85V125.808ZM278.865 123.778V125.08H275.771V126.2H278.865V127.348H280.307V120.936H278.865V122.658H276.247C276.317 122.294 276.345 121.902 276.345 121.496H270.689V122.658H274.749C274.553 124.422 272.999 125.808 270.003 126.452L270.507 127.628C273.293 126.998 275.155 125.71 275.939 123.778H278.865ZM273.545 132.304V131.142H280.307V127.866H272.075V129.014H278.865V130.064H272.103V133.466H280.657V132.304H273.545ZM289.336 128.048C289.686 125.808 289.686 124.212 289.686 123.106V122.266H283.26V123.428H288.272C288.272 124.492 288.244 125.962 287.922 127.922L289.336 128.048ZM286.508 125.892H285.094V129.7C284.212 129.714 283.358 129.728 282.588 129.728L282.742 130.918C284.954 130.918 287.852 130.862 290.456 130.428L290.386 129.378C289.154 129.532 287.824 129.616 286.508 129.672V125.892ZM294.376 126.13H292.514V120.936H291.058V133.578H292.514V127.348H294.376V126.13ZM305.471 130.568V129.21L302.321 128.076L300.207 127.306V127.25L302.321 126.466L305.471 125.332V123.974L298.555 126.662V127.88L305.471 130.568ZM310.356 132.5H316.236V131.17H314.22V122.182H313.002C312.414 122.56 311.728 122.798 310.762 122.98V124.002H312.61V131.17H310.356V132.5ZM321.141 132.682C323.129 132.682 324.473 131.506 324.473 129.98C324.473 128.58 323.661 127.768 322.737 127.25V127.18C323.381 126.704 324.095 125.808 324.095 124.758C324.095 123.148 322.975 122.028 321.183 122.028C319.503 122.028 318.243 123.078 318.243 124.688C318.243 125.78 318.859 126.55 319.629 127.096V127.166C318.677 127.67 317.781 128.58 317.781 129.938C317.781 131.534 319.209 132.682 321.141 132.682ZM321.813 126.774C320.665 126.326 319.685 125.808 319.685 124.688C319.685 123.764 320.315 123.19 321.155 123.19C322.163 123.19 322.737 123.904 322.737 124.856C322.737 125.542 322.429 126.2 321.813 126.774ZM321.169 131.52C320.063 131.52 319.209 130.806 319.209 129.784C319.209 128.888 319.699 128.118 320.413 127.628C321.813 128.202 322.947 128.678 322.947 129.938C322.947 130.904 322.233 131.52 321.169 131.52ZM327.207 132.682C327.809 132.682 328.285 132.22 328.285 131.562C328.285 130.89 327.809 130.414 327.207 130.414C326.605 130.414 326.129 130.89 326.129 131.562C326.129 132.22 326.605 132.682 327.207 132.682ZM333.477 127.236C334.583 127.236 335.185 127.978 335.185 129.294C335.185 130.638 334.471 131.45 333.575 131.45C332.469 131.45 331.727 130.484 331.559 128.44C332.175 127.558 332.889 127.236 333.477 127.236ZM333.589 132.682C335.269 132.682 336.669 131.338 336.669 129.294C336.669 127.124 335.507 126.06 333.771 126.06C333.029 126.06 332.133 126.508 331.531 127.25C331.601 124.31 332.693 123.316 334.009 123.316C334.611 123.316 335.241 123.638 335.619 124.086L336.501 123.106C335.913 122.49 335.073 122 333.925 122C331.895 122 330.033 123.582 330.033 127.544C330.033 131.044 331.629 132.682 333.589 132.682Z" fill="#0096B7"/>
<path d="M169 110V109.5H168.5V110H169ZM381 110H381.5V109.5H381V110ZM381 142V142.5H381.5V142H381ZM169 142H168.5V142.5H169V142ZM169 110.5H381V109.5H169V110.5ZM380.5 110V142H381.5V110H380.5ZM381 141.5H169V142.5H381V141.5ZM169.5 142V110H168.5V142H169.5Z" fill="#83E0F9"/>
<path d="M85 142H169V174H85V142Z" fill="#F8F5FF"/>
<path d="M123.781 152.922V165.606H125.237V152.922H123.781ZM115.507 153.972V162.596H121.583V153.972H120.141V157.192H116.935V153.972H115.507ZM116.935 158.34H120.141V161.434H116.935V158.34ZM132.656 158.83H129.576V155.176H132.656V158.83ZM134.07 154.014H128.148V159.992H134.07V154.014ZM131.032 161.294H129.576V165.34H138.088V164.164H131.032V161.294ZM137.584 156.688V152.922H136.142V162.19H137.584V157.878H139.376V156.688H137.584Z" fill="#8162FF"/>
<path d="M85 142V141.5H84.5V142H85ZM169 142H169.5V141.5H169V142ZM169 174V174.5H169.5V174H169ZM85 174H84.5V174.5H85V174ZM85 142.5H169V141.5H85V142.5ZM168.5 142V174H169.5V142H168.5ZM169 173.5H85V174.5H169V173.5ZM85.5 174V142H84.5V174H85.5Z" fill="#BAA6FF"/>
<path d="M169 142H381V174H169V142Z" fill="#F8F5FF"/>
<path d="M235.127 164.5H241.007V163.17H238.991V154.182H237.773C237.185 154.56 236.499 154.798 235.533 154.98V156.002H237.381V163.17H235.127V164.5ZM244.007 157.388C244.007 156.044 244.707 155.246 245.589 155.246C246.709 155.246 247.479 156.17 247.633 158.2C247.045 159.082 246.317 159.46 245.673 159.46C244.595 159.46 244.007 158.704 244.007 157.388ZM245.309 164.682C247.297 164.682 249.145 163.058 249.145 158.998C249.145 155.582 247.549 154 245.575 154C243.909 154 242.509 155.344 242.509 157.388C242.509 159.544 243.671 160.622 245.393 160.622C246.177 160.622 247.059 160.16 247.661 159.418C247.563 162.358 246.485 163.366 245.239 163.366C244.595 163.366 243.965 163.058 243.559 162.596L242.677 163.59C243.279 164.206 244.119 164.682 245.309 164.682ZM251.978 164.682C252.58 164.682 253.056 164.22 253.056 163.562C253.056 162.89 252.58 162.414 251.978 162.414C251.376 162.414 250.9 162.89 250.9 163.562C250.9 164.22 251.376 164.682 251.978 164.682ZM255.266 164.5H261.146V163.17H259.13V154.182H257.912C257.324 154.56 256.638 154.798 255.672 154.98V156.002H257.52V163.17H255.266V164.5ZM265.798 164.682C267.604 164.682 269.27 163.394 269.27 161.112C269.27 158.858 267.856 157.836 266.134 157.836C265.574 157.836 265.168 157.976 264.72 158.2L264.958 155.554H268.78V154.182H263.558L263.25 159.082L264.034 159.6C264.636 159.208 265.028 159.012 265.686 159.012C266.862 159.012 267.646 159.796 267.646 161.168C267.646 162.54 266.764 163.366 265.602 163.366C264.524 163.366 263.782 162.848 263.194 162.26L262.424 163.31C263.152 164.024 264.174 164.682 265.798 164.682ZM274.981 163.324V164.416H285.369V163.324H274.981ZM277.655 157.808L285.425 154.672L284.991 153.58L274.561 157.808V157.85L284.991 162.078L285.425 160.986L277.655 157.85V157.808ZM300.063 155.778V157.08H296.969V158.2H300.063V159.348H301.505V152.936H300.063V154.658H297.445C297.515 154.294 297.543 153.902 297.543 153.496H291.887V154.658H295.947C295.751 156.422 294.197 157.808 291.201 158.452L291.705 159.628C294.491 158.998 296.353 157.71 297.137 155.778H300.063ZM294.743 164.304V163.142H301.505V159.866H293.273V161.014H300.063V162.064H293.301V165.466H301.855V164.304H294.743ZM310.534 160.048C310.884 157.808 310.884 156.212 310.884 155.106V154.266H304.458V155.428H309.47C309.47 156.492 309.442 157.962 309.12 159.922L310.534 160.048ZM307.706 157.892H306.292V161.7C305.41 161.714 304.556 161.728 303.786 161.728L303.94 162.918C306.152 162.918 309.05 162.862 311.654 162.428L311.584 161.378C310.352 161.532 309.022 161.616 307.706 161.672V157.892ZM315.574 158.13H313.712V152.936H312.256V165.578H313.712V159.348H315.574V158.13Z" fill="#8162FF"/>
<path d="M169 142V141.5H168.5V142H169ZM381 142H381.5V141.5H381V142ZM381 174V174.5H381.5V174H381ZM169 174H168.5V174.5H169V174ZM169 142.5H381V141.5H169V142.5ZM380.5 142V174H381.5V142H380.5ZM381 173.5H169V174.5H381V173.5ZM169.5 174V142H168.5V174H169.5Z" fill="#BAA6FF"/>
<path d="M1 174H85V302H1V174Z" fill="white"/>
<path d="M26.1365 244.5H32.5905V243.394H29.7485C29.2305 243.394 28.6005 243.45 28.0685 243.492C30.4765 241.21 32.0865 239.124 32.0865 237.08C32.0865 235.246 30.9385 234.042 29.1045 234.042C27.8025 234.042 26.9205 234.644 26.0805 235.554L26.8225 236.282C27.3825 235.61 28.1105 235.092 28.9505 235.092C30.2245 235.092 30.8405 235.946 30.8405 237.122C30.8405 238.886 29.3565 240.93 26.1365 243.744V244.5ZM35.2321 244.682C35.7361 244.682 36.1561 244.29 36.1561 243.716C36.1561 243.128 35.7361 242.722 35.2321 242.722C34.7281 242.722 34.3081 243.128 34.3081 243.716C34.3081 244.29 34.7281 244.682 35.2321 244.682ZM40.8366 244.682C42.5726 244.682 44.1966 243.408 44.1966 241.154C44.1966 238.9 42.8106 237.892 41.1026 237.892C40.4866 237.892 40.0386 238.046 39.5766 238.298L39.8286 235.33H43.7066V234.224H38.7086L38.3866 239.04L39.0726 239.46C39.6606 239.068 40.0946 238.858 40.7806 238.858C42.0686 238.858 42.9086 239.726 42.9086 241.196C42.9086 242.694 41.9286 243.618 40.7246 243.618C39.5346 243.618 38.7926 243.072 38.2046 242.484L37.5746 243.324C38.2606 244.01 39.2406 244.682 40.8366 244.682ZM50.2122 240.482C50.8842 240.482 51.5842 240.062 52.1582 239.082L51.4302 238.564C51.0802 239.236 50.6882 239.516 50.2402 239.516C49.3582 239.516 48.7002 238.2 47.4682 238.2C46.7822 238.2 46.0822 238.62 45.5082 239.6L46.2222 240.104C46.5862 239.432 46.9782 239.152 47.4262 239.152C48.3082 239.152 48.9802 240.482 50.2122 240.482ZM56.4099 244.682C58.2299 244.682 59.6999 243.59 59.6999 241.756C59.6999 240.356 58.7339 239.432 57.5299 239.152V239.096C58.6079 238.69 59.3499 237.864 59.3499 236.618C59.3499 234.994 58.0899 234.042 56.3679 234.042C55.1779 234.042 54.2679 234.56 53.4979 235.274L54.1839 236.086C54.7579 235.498 55.4859 235.092 56.3119 235.092C57.3759 235.092 58.0479 235.736 58.0479 236.716C58.0479 237.822 57.3199 238.676 55.2059 238.676V239.656C57.5719 239.656 58.3979 240.482 58.3979 241.7C58.3979 242.89 57.5299 243.618 56.3119 243.618C55.1499 243.618 54.3659 243.072 53.7639 242.442L53.1199 243.282C53.7919 244.01 54.7999 244.682 56.4099 244.682Z" fill="#2C2F31"/>
<path d="M1 174V173.5H0.5V174H1ZM85 174H85.5V173.5H85V174ZM85 302V302.5H85.5V302H85ZM1 302H0.5V302.5H1V302ZM1 174.5H85V173.5H1V174.5ZM84.5 174V302H85.5V174H84.5ZM85 301.5H1V302.5H85V301.5ZM1.5 302V174H0.5V302H1.5Z" fill="#CAD1D5"/>
<path d="M85 174H169V206H85V174Z" fill="white"/>
<path d="M112.764 187.204H115.62V186.266H108.774V187.204H111.616V188.66C111.616 190.886 110.118 193.266 108.326 194.148L108.998 195.058C110.426 194.302 111.644 192.692 112.19 190.844C112.764 192.58 113.968 194.078 115.368 194.792L116.054 193.896C114.234 193.028 112.764 190.746 112.764 188.66V187.204ZM117.622 184.978V189.542H114.906V190.48H117.622V197.55H118.77V184.978H117.622ZM124.957 188.24H127.281V187.288H124.971V185.426H123.865V187.288H121.541V188.24H123.865V188.842C123.865 190.9 122.899 193.098 121.205 194.106L121.877 194.96C123.109 194.218 123.991 192.818 124.425 191.222C124.887 192.734 125.783 194.008 127.001 194.694L127.659 193.826C125.965 192.916 124.957 190.844 124.957 188.842V188.24ZM128.345 189.934H126.427V190.886H128.345V196.878H129.437V185.272H128.345V189.934ZM130.865 184.978V197.522H131.971V184.978H130.865ZM135.231 190.102C137.289 189.85 139.179 188.926 139.865 187.54C140.565 188.926 142.441 189.85 144.499 190.102L144.905 189.192C142.707 188.94 140.705 187.862 140.607 186.476H144.513V185.552H135.231V186.476H139.123C139.025 187.862 137.023 188.94 134.825 189.192L135.231 190.102ZM142.987 195.31C142.987 196.15 141.811 196.64 139.851 196.64C137.877 196.64 136.715 196.15 136.715 195.31C136.715 194.47 137.877 193.994 139.851 193.994C141.811 193.994 142.987 194.47 142.987 195.31ZM145.535 191.782V190.858H134.181V191.782H139.277V193.126C136.939 193.238 135.553 194.008 135.553 195.31C135.553 196.738 137.177 197.522 139.865 197.522C142.539 197.522 144.149 196.738 144.149 195.31C144.149 194.008 142.777 193.238 140.439 193.126V191.782H145.535Z" fill="#2C2F31"/>
<path d="M85 174V173.5H84.5V174H85ZM169 174H169.5V173.5H169V174ZM169 206V206.5H169.5V206H169ZM85 206H84.5V206.5H85V206ZM85 174.5H169V173.5H85V174.5ZM168.5 174V206H169.5V174H168.5ZM169 205.5H85V206.5H169V205.5ZM85.5 206V174H84.5V206H85.5Z" fill="#CAD1D5"/>
<path d="M169 174H381V206H169V174Z" fill="white"/>
<path d="M247.554 187.694V189.192H244.278V190.088H247.554V191.39H248.716V184.978H247.554V186.798H244.712C244.796 186.406 244.838 186.014 244.838 185.594H239.224V186.532H243.592C243.382 188.52 241.632 190.018 238.566 190.732L238.986 191.67C241.758 191.012 243.676 189.668 244.46 187.694H247.554ZM241.786 196.5V195.044H248.716V191.964H240.624V192.888H247.568V194.176H240.652V197.41H249.136V196.5H241.786ZM257.801 192.02C258.151 189.682 258.151 188.044 258.151 187.036V186.35H251.809V187.288H257.031C257.031 188.296 257.003 189.822 256.653 191.908L257.801 192.02ZM254.917 189.934H253.783V193.798C252.845 193.826 251.921 193.84 251.123 193.84L251.249 194.792C253.475 194.792 256.429 194.736 259.033 194.316L258.963 193.476C257.689 193.63 256.289 193.714 254.917 193.77V189.934ZM262.883 190.228H260.881V184.978H259.733V197.536H260.881V191.194H262.883V190.228ZM273.755 194.456V193.336L270.451 192.118L268.351 191.334V191.278L270.451 190.494L273.755 189.276V188.156L267.049 190.788V191.824L273.755 194.456ZM278.645 196.5H284.273V195.436H282.215V186.224H281.235C280.675 186.56 280.017 186.798 279.107 186.966V187.778H280.927V195.436H278.645V196.5ZM286.789 192.65L289.127 189.15C289.421 188.646 289.701 188.142 289.953 187.638H290.009C289.981 188.17 289.939 188.996 289.939 189.5V192.65H286.789ZM289.939 196.5H291.143V193.672H292.501V192.65H291.143V186.224H289.729L285.459 192.832V193.672H289.939V196.5ZM294.89 196.682C295.394 196.682 295.814 196.29 295.814 195.716C295.814 195.128 295.394 194.722 294.89 194.722C294.386 194.722 293.966 195.128 293.966 195.716C293.966 196.29 294.386 196.682 294.89 196.682ZM297.457 196.5H303.911V195.394H301.069C300.551 195.394 299.921 195.45 299.389 195.492C301.797 193.21 303.407 191.124 303.407 189.08C303.407 187.246 302.259 186.042 300.425 186.042C299.123 186.042 298.241 186.644 297.401 187.554L298.143 188.282C298.703 187.61 299.431 187.092 300.271 187.092C301.545 187.092 302.161 187.946 302.161 189.122C302.161 190.886 300.677 192.93 297.457 195.744V196.5ZM308.302 196.682C310.122 196.682 311.592 195.59 311.592 193.756C311.592 192.356 310.626 191.432 309.422 191.152V191.096C310.5 190.69 311.242 189.864 311.242 188.618C311.242 186.994 309.982 186.042 308.26 186.042C307.07 186.042 306.16 186.56 305.39 187.274L306.076 188.086C306.65 187.498 307.378 187.092 308.204 187.092C309.268 187.092 309.94 187.736 309.94 188.716C309.94 189.822 309.212 190.676 307.098 190.676V191.656C309.464 191.656 310.29 192.482 310.29 193.7C310.29 194.89 309.422 195.618 308.204 195.618C307.042 195.618 306.258 195.072 305.656 194.442L305.012 195.282C305.684 196.01 306.692 196.682 308.302 196.682Z" fill="#2C2F31"/>
<path d="M169 174V173.5H168.5V174H169ZM381 174H381.5V173.5H381V174ZM381 206V206.5H381.5V206H381ZM169 206H168.5V206.5H169V206ZM169 174.5H381V173.5H169V174.5ZM380.5 174V206H381.5V174H380.5ZM381 205.5H169V206.5H381V205.5ZM169.5 206V174H168.5V206H169.5Z" fill="#CAD1D5"/>
<path d="M85 206H169V238H85V206Z" fill="white"/>
<path d="M108.69 220.24V221.178H111.168V224.468H112.33V216.992H111.168V220.24H108.69ZM109.39 223.096C107.57 222.452 106.338 220.87 106.338 219.26V218.826H109.096V217.902H102.39V218.826H105.19V219.26C105.19 221.066 103.902 222.76 102.026 223.446L102.628 224.356C104.098 223.796 105.26 222.62 105.792 221.164C106.338 222.452 107.416 223.488 108.816 223.992L109.39 223.096ZM108.186 228.64C106.296 228.64 105.148 228.108 105.148 227.198C105.148 226.288 106.296 225.742 108.186 225.742C110.076 225.742 111.224 226.288 111.224 227.198C111.224 228.108 110.076 228.64 108.186 228.64ZM108.186 224.86C105.61 224.86 104 225.714 104 227.198C104 228.682 105.61 229.536 108.186 229.536C110.762 229.536 112.372 228.682 112.372 227.198C112.372 225.714 110.762 224.86 108.186 224.86ZM122.115 222.886C120.309 222.27 119.077 220.702 119.077 219.008V217.622H117.929V218.91C117.929 220.828 116.711 222.536 114.807 223.222L115.409 224.132C116.879 223.572 117.999 222.424 118.517 220.954C119.077 222.242 120.155 223.278 121.513 223.782L122.115 222.886ZM120.617 228.626C118.755 228.626 117.621 228.108 117.621 227.24C117.621 226.358 118.755 225.84 120.617 225.84C122.465 225.84 123.599 226.358 123.599 227.24C123.599 228.108 122.465 228.626 120.617 228.626ZM120.617 224.944C118.055 224.944 116.473 225.77 116.473 227.24C116.473 228.696 118.055 229.522 120.617 229.522C123.165 229.522 124.747 228.696 124.747 227.24C124.747 225.77 123.165 224.944 120.617 224.944ZM124.607 220.226V216.992H123.459V224.594H124.607V221.178H126.469V220.226H124.607ZM131.396 220.24H133.72V219.288H131.41V217.426H130.304V219.288H127.98V220.24H130.304V220.842C130.304 222.9 129.338 225.098 127.644 226.106L128.316 226.96C129.548 226.218 130.43 224.818 130.864 223.222C131.326 224.734 132.222 226.008 133.44 226.694L134.098 225.826C132.404 224.916 131.396 222.844 131.396 220.842V220.24ZM134.784 221.934H132.866V222.886H134.784V228.878H135.876V217.272H134.784V221.934ZM137.304 216.978V229.522H138.41V216.978H137.304ZM141.671 222.102C143.729 221.85 145.619 220.926 146.305 219.54C147.005 220.926 148.881 221.85 150.939 222.102L151.345 221.192C149.147 220.94 147.145 219.862 147.047 218.476H150.953V217.552H141.671V218.476H145.563C145.465 219.862 143.463 220.94 141.265 221.192L141.671 222.102ZM149.427 227.31C149.427 228.15 148.251 228.64 146.291 228.64C144.317 228.64 143.155 228.15 143.155 227.31C143.155 226.47 144.317 225.994 146.291 225.994C148.251 225.994 149.427 226.47 149.427 227.31ZM151.975 223.782V222.858H140.621V223.782H145.717V225.126C143.379 225.238 141.993 226.008 141.993 227.31C141.993 228.738 143.617 229.522 146.305 229.522C148.979 229.522 150.589 228.738 150.589 227.31C150.589 226.008 149.217 225.238 146.879 225.126V223.782H151.975Z" fill="#2C2F31"/>
<path d="M85 206V205.5H84.5V206H85ZM169 206H169.5V205.5H169V206ZM169 238V238.5H169.5V238H169ZM85 238H84.5V238.5H85V238ZM85 206.5H169V205.5H85V206.5ZM168.5 206V238H169.5V206H168.5ZM169 237.5H85V238.5H169V237.5ZM85.5 238V206H84.5V238H85.5Z" fill="#CAD1D5"/>
<path d="M169 206H381V238H169V206Z" fill="white"/>
<path d="M211.25 228.5H216.878V227.436H214.82V218.224H213.84C213.28 218.56 212.622 218.798 211.712 218.966V219.778H213.532V227.436H211.25V228.5ZM219.393 224.65L221.731 221.15C222.025 220.646 222.305 220.142 222.557 219.638H222.613C222.585 220.17 222.543 220.996 222.543 221.5V224.65H219.393ZM222.543 228.5H223.747V225.672H225.105V224.65H223.747V218.224H222.333L218.063 224.832V225.672H222.543V228.5ZM227.495 228.682C227.999 228.682 228.419 228.29 228.419 227.716C228.419 227.128 227.999 226.722 227.495 226.722C226.991 226.722 226.571 227.128 226.571 227.716C226.571 228.29 226.991 228.682 227.495 228.682ZM230.061 228.5H236.515V227.394H233.673C233.155 227.394 232.525 227.45 231.993 227.492C234.401 225.21 236.011 223.124 236.011 221.08C236.011 219.246 234.863 218.042 233.029 218.042C231.727 218.042 230.845 218.644 230.005 219.554L230.747 220.282C231.307 219.61 232.035 219.092 232.875 219.092C234.149 219.092 234.765 219.946 234.765 221.122C234.765 222.886 233.281 224.93 230.061 227.744V228.5ZM240.907 228.682C242.727 228.682 244.197 227.59 244.197 225.756C244.197 224.356 243.231 223.432 242.027 223.152V223.096C243.105 222.69 243.847 221.864 243.847 220.618C243.847 218.994 242.587 218.042 240.865 218.042C239.675 218.042 238.765 218.56 237.995 219.274L238.681 220.086C239.255 219.498 239.983 219.092 240.809 219.092C241.873 219.092 242.545 219.736 242.545 220.716C242.545 221.822 241.817 222.676 239.703 222.676V223.656C242.069 223.656 242.895 224.482 242.895 225.7C242.895 226.89 242.027 227.618 240.809 227.618C239.647 227.618 238.863 227.072 238.261 226.442L237.617 227.282C238.289 228.01 239.297 228.682 240.907 228.682ZM249.899 227.338V228.248H260.315V227.338H249.899ZM252.097 221.794L260.343 218.462L259.979 217.566L249.535 221.794V221.85L259.979 226.064L260.343 225.182L252.097 221.85V221.794ZM275.164 219.694V221.192H271.888V222.088H275.164V223.39H276.326V216.978H275.164V218.798H272.322C272.406 218.406 272.448 218.014 272.448 217.594H266.834V218.532H271.202C270.992 220.52 269.242 222.018 266.176 222.732L266.596 223.67C269.368 223.012 271.286 221.668 272.07 219.694H275.164ZM269.396 228.5V227.044H276.326V223.964H268.234V224.888H275.178V226.176H268.262V229.41H276.746V228.5H269.396ZM285.411 224.02C285.761 221.682 285.761 220.044 285.761 219.036V218.35H279.419V219.288H284.641C284.641 220.296 284.613 221.822 284.263 223.908L285.411 224.02ZM282.527 221.934H281.393V225.798C280.455 225.826 279.531 225.84 278.733 225.84L278.859 226.792C281.085 226.792 284.039 226.736 286.643 226.316L286.573 225.476C285.299 225.63 283.899 225.714 282.527 225.77V221.934ZM290.493 222.228H288.491V216.978H287.343V229.536H288.491V223.194H290.493V222.228ZM301.365 226.456V225.336L298.061 224.118L295.961 223.334V223.278L298.061 222.494L301.365 221.276V220.156L294.659 222.788V223.824L301.365 226.456ZM306.255 228.5H311.883V227.436H309.825V218.224H308.845C308.285 218.56 307.627 218.798 306.717 218.966V219.778H308.537V227.436H306.255V228.5ZM315.561 228.5H316.891C317.045 224.482 317.493 222.088 319.901 219.008V218.224H313.475V219.33H318.445C316.443 222.13 315.729 224.608 315.561 228.5ZM322.501 228.682C323.005 228.682 323.425 228.29 323.425 227.716C323.425 227.128 323.005 226.722 322.501 226.722C321.997 226.722 321.577 227.128 321.577 227.716C321.577 228.29 321.997 228.682 322.501 228.682ZM327.223 228.5H328.553C328.707 224.482 329.155 222.088 331.563 219.008V218.224H325.137V219.33H330.107C328.105 222.13 327.391 224.608 327.223 228.5ZM335.871 228.682C337.607 228.682 339.231 227.408 339.231 225.154C339.231 222.9 337.845 221.892 336.137 221.892C335.521 221.892 335.073 222.046 334.611 222.298L334.863 219.33H338.741V218.224H333.743L333.421 223.04L334.107 223.46C334.695 223.068 335.129 222.858 335.815 222.858C337.103 222.858 337.943 223.726 337.943 225.196C337.943 226.694 336.963 227.618 335.759 227.618C334.569 227.618 333.827 227.072 333.239 226.484L332.609 227.324C333.295 228.01 334.275 228.682 335.871 228.682Z" fill="#2C2F31"/>
<path d="M169 206V205.5H168.5V206H169ZM381 206H381.5V205.5H381V206ZM381 238V238.5H381.5V238H381ZM169 238H168.5V238.5H169V238ZM169 206.5H381V205.5H169V206.5ZM380.5 206V238H381.5V206H380.5ZM381 237.5H169V238.5H381V237.5ZM169.5 238V206H168.5V238H169.5Z" fill="#CAD1D5"/>
<path d="M85 238H169V270H85V238Z" fill="#E1F7FE"/>
<path d="M115.018 256.048C115.368 253.808 115.368 252.212 115.368 251.106V250.266H108.942V251.428H113.954C113.954 252.492 113.926 253.962 113.604 255.922L115.018 256.048ZM112.19 253.892H110.776V257.7C109.894 257.714 109.04 257.728 108.27 257.728L108.424 258.918C110.636 258.918 113.534 258.862 116.138 258.428L116.068 257.378C114.836 257.532 113.506 257.616 112.19 257.672V253.892ZM120.058 254.13H118.196V248.936H116.74V261.578H118.196V255.348H120.058V254.13ZM125.069 252.352H127.239V251.162H125.069V249.37H123.697V251.162H121.513V252.352H123.697V252.8C123.697 254.816 122.857 256.972 121.121 257.994L121.947 259.086C123.151 258.386 123.949 257.112 124.397 255.628C124.859 257 125.671 258.162 126.861 258.806L127.659 257.728C125.923 256.79 125.069 254.774 125.069 252.8V252.352ZM128.135 253.836H126.427V255.012H128.135V260.962H129.493V249.188H128.135V253.836ZM130.683 248.936V261.578H132.055V248.936H130.683ZM135.231 254.13C137.443 253.892 139.179 252.982 139.865 251.68C140.537 252.982 142.273 253.892 144.499 254.13L145.003 252.996C142.665 252.758 141.041 251.778 140.845 250.644H144.541V249.482H135.203V250.644H138.871C138.675 251.778 137.051 252.758 134.713 252.996L135.231 254.13ZM142.735 259.338C142.735 260.066 141.685 260.472 139.837 260.472C137.989 260.472 136.953 260.066 136.953 259.338C136.953 258.582 137.989 258.19 139.837 258.19C141.685 258.19 142.735 258.582 142.735 259.338ZM145.577 255.922V254.774H134.139V255.922H139.137V257.084C136.841 257.224 135.483 258.022 135.483 259.338C135.483 260.766 137.121 261.578 139.837 261.578C142.567 261.578 144.191 260.766 144.191 259.338C144.191 258.022 142.861 257.238 140.579 257.098V255.922H145.577Z" fill="#0096B7"/>
<path d="M85 238V237.5H84.5V238H85ZM169 238H169.5V237.5H169V238ZM169 270V270.5H169.5V270H169ZM85 270H84.5V270.5H85V270ZM85 238.5H169V237.5H85V238.5ZM168.5 238V270H169.5V238H168.5ZM169 269.5H85V270.5H169V269.5ZM85.5 270V238H84.5V270H85.5Z" fill="#83E0F9"/>
<path d="M169 238H381V270H169V238Z" fill="#E1F7FE"/>
<path d="M209.936 260.5H215.816V259.17H213.8V250.182H212.582C211.994 250.56 211.308 250.798 210.342 250.98V252.002H212.19V259.17H209.936V260.5ZM219.419 260.5H221.071C221.239 256.468 221.617 254.186 224.039 251.176V250.182H217.403V251.554H222.247C220.259 254.326 219.601 256.734 219.419 260.5ZM226.787 260.682C227.389 260.682 227.865 260.22 227.865 259.562C227.865 258.89 227.389 258.414 226.787 258.414C226.185 258.414 225.709 258.89 225.709 259.562C225.709 260.22 226.185 260.682 226.787 260.682ZM231.573 260.5H233.225C233.393 256.468 233.771 254.186 236.193 251.176V250.182H229.557V251.554H234.401C232.413 254.326 231.755 256.734 231.573 260.5ZM240.607 260.682C242.413 260.682 244.079 259.394 244.079 257.112C244.079 254.858 242.665 253.836 240.943 253.836C240.383 253.836 239.977 253.976 239.529 254.2L239.767 251.554H243.589V250.182H238.367L238.059 255.082L238.843 255.6C239.445 255.208 239.837 255.012 240.495 255.012C241.671 255.012 242.455 255.796 242.455 257.168C242.455 258.54 241.573 259.366 240.411 259.366C239.333 259.366 238.591 258.848 238.003 258.26L237.233 259.31C237.961 260.024 238.983 260.682 240.607 260.682ZM249.79 259.324V260.416H260.178V259.324H249.79ZM252.464 253.808L260.234 250.672L259.8 249.58L249.37 253.808V253.85L259.8 258.078L260.234 256.986L252.464 253.85V253.808ZM274.873 251.778V253.08H271.779V254.2H274.873V255.348H276.315V248.936H274.873V250.658H272.255C272.325 250.294 272.353 249.902 272.353 249.496H266.697V250.658H270.757C270.561 252.422 269.007 253.808 266.011 254.452L266.515 255.628C269.301 254.998 271.163 253.71 271.947 251.778H274.873ZM269.553 260.304V259.142H276.315V255.866H268.083V257.014H274.873V258.064H268.111V261.466H276.665V260.304H269.553ZM285.344 256.048C285.694 253.808 285.694 252.212 285.694 251.106V250.266H279.268V251.428H284.28C284.28 252.492 284.252 253.962 283.93 255.922L285.344 256.048ZM282.516 253.892H281.102V257.7C280.22 257.714 279.366 257.728 278.596 257.728L278.75 258.918C280.962 258.918 283.86 258.862 286.464 258.428L286.394 257.378C285.162 257.532 283.832 257.616 282.516 257.672V253.892ZM290.384 254.13H288.522V248.936H287.066V261.578H288.522V255.348H290.384V254.13ZM301.479 258.568V257.21L298.329 256.076L296.215 255.306V255.25L298.329 254.466L301.479 253.332V251.974L294.563 254.662V255.88L301.479 258.568ZM306.364 260.5H312.244V259.17H310.228V250.182H309.01C308.422 250.56 307.736 250.798 306.77 250.98V252.002H308.618V259.17H306.364V260.5ZM317.149 260.682C319.137 260.682 320.481 259.506 320.481 257.98C320.481 256.58 319.669 255.768 318.745 255.25V255.18C319.389 254.704 320.103 253.808 320.103 252.758C320.103 251.148 318.983 250.028 317.191 250.028C315.511 250.028 314.251 251.078 314.251 252.688C314.251 253.78 314.867 254.55 315.637 255.096V255.166C314.685 255.67 313.789 256.58 313.789 257.938C313.789 259.534 315.217 260.682 317.149 260.682ZM317.821 254.774C316.673 254.326 315.693 253.808 315.693 252.688C315.693 251.764 316.323 251.19 317.163 251.19C318.171 251.19 318.745 251.904 318.745 252.856C318.745 253.542 318.437 254.2 317.821 254.774ZM317.177 259.52C316.071 259.52 315.217 258.806 315.217 257.784C315.217 256.888 315.707 256.118 316.421 255.628C317.821 256.202 318.955 256.678 318.955 257.938C318.955 258.904 318.241 259.52 317.177 259.52ZM323.215 260.682C323.817 260.682 324.293 260.22 324.293 259.562C324.293 258.89 323.817 258.414 323.215 258.414C322.613 258.414 322.137 258.89 322.137 259.562C322.137 260.22 322.613 260.682 323.215 260.682ZM326.503 260.5H332.383V259.17H330.367V250.182H329.149C328.561 250.56 327.875 250.798 326.909 250.98V252.002H328.757V259.17H326.503V260.5ZM333.899 260.5H340.549V259.128H337.973C337.469 259.128 336.825 259.17 336.293 259.226C338.477 257.14 340.059 255.082 340.059 253.094C340.059 251.232 338.841 250 336.951 250C335.607 250 334.697 250.574 333.815 251.54L334.725 252.436C335.271 251.806 335.943 251.288 336.755 251.288C337.917 251.288 338.505 252.058 338.505 253.178C338.505 254.872 336.937 256.874 333.899 259.562V260.5Z" fill="#0096B7"/>
<path d="M169 238V237.5H168.5V238H169ZM381 238H381.5V237.5H381V238ZM381 270V270.5H381.5V270H381ZM169 270H168.5V270.5H169V270ZM169 238.5H381V237.5H169V238.5ZM380.5 238V270H381.5V238H380.5ZM381 269.5H169V270.5H381V269.5ZM169.5 270V238H168.5V270H169.5Z" fill="#83E0F9"/>
<path d="M85 270H169V302H85V270Z" fill="#F8F5FF"/>
<path d="M123.781 280.922V293.606H125.237V280.922H123.781ZM115.507 281.972V290.596H121.583V281.972H120.141V285.192H116.935V281.972H115.507ZM116.935 286.34H120.141V289.434H116.935V286.34ZM132.656 286.83H129.576V283.176H132.656V286.83ZM134.07 282.014H128.148V287.992H134.07V282.014ZM131.032 289.294H129.576V293.34H138.088V292.164H131.032V289.294ZM137.584 284.688V280.922H136.142V290.19H137.584V285.878H139.376V284.688H137.584Z" fill="#8162FF"/>
<path d="M85 270V269.5H84.5V270H85ZM169 270H169.5V269.5H169V270ZM169 302V302.5H169.5V302H169ZM85 302H84.5V302.5H85V302ZM85 270.5H169V269.5H85V270.5ZM168.5 270V302H169.5V270H168.5ZM169 301.5H85V302.5H169V301.5ZM85.5 302V270H84.5V302H85.5Z" fill="#BAA6FF"/>
<path d="M169 270H381V302H169V270Z" fill="#F8F5FF"/>
<path d="M235.127 292.5H241.007V291.17H238.991V282.182H237.773C237.185 282.56 236.499 282.798 235.533 282.98V284.002H237.381V291.17H235.127V292.5ZM245.911 292.682C247.899 292.682 249.243 291.506 249.243 289.98C249.243 288.58 248.431 287.768 247.507 287.25V287.18C248.151 286.704 248.865 285.808 248.865 284.758C248.865 283.148 247.745 282.028 245.953 282.028C244.273 282.028 243.013 283.078 243.013 284.688C243.013 285.78 243.629 286.55 244.399 287.096V287.166C243.447 287.67 242.551 288.58 242.551 289.938C242.551 291.534 243.979 292.682 245.911 292.682ZM246.583 286.774C245.435 286.326 244.455 285.808 244.455 284.688C244.455 283.764 245.085 283.19 245.925 283.19C246.933 283.19 247.507 283.904 247.507 284.856C247.507 285.542 247.199 286.2 246.583 286.774ZM245.939 291.52C244.833 291.52 243.979 290.806 243.979 289.784C243.979 288.888 244.469 288.118 245.183 287.628C246.583 288.202 247.717 288.678 247.717 289.938C247.717 290.904 247.003 291.52 245.939 291.52ZM251.978 292.682C252.58 292.682 253.056 292.22 253.056 291.562C253.056 290.89 252.58 290.414 251.978 290.414C251.376 290.414 250.9 290.89 250.9 291.562C250.9 292.22 251.376 292.682 251.978 292.682ZM258.248 287.236C259.354 287.236 259.956 287.978 259.956 289.294C259.956 290.638 259.242 291.45 258.346 291.45C257.24 291.45 256.498 290.484 256.33 288.44C256.946 287.558 257.66 287.236 258.248 287.236ZM258.36 292.682C260.04 292.682 261.44 291.338 261.44 289.294C261.44 287.124 260.278 286.06 258.542 286.06C257.8 286.06 256.904 286.508 256.302 287.25C256.372 284.31 257.464 283.316 258.78 283.316C259.382 283.316 260.012 283.638 260.39 284.086L261.272 283.106C260.684 282.49 259.844 282 258.696 282C256.666 282 254.804 283.582 254.804 287.544C254.804 291.044 256.4 292.682 258.36 292.682ZM264.748 292.5H266.4C266.568 288.468 266.946 286.186 269.368 283.176V282.182H262.732V283.554H267.576C265.588 286.326 264.93 288.734 264.748 292.5ZM274.981 291.324V292.416H285.369V291.324H274.981ZM277.655 285.808L285.425 282.672L284.991 281.58L274.561 285.808V285.85L284.991 290.078L285.425 288.986L277.655 285.85V285.808ZM300.063 283.778V285.08H296.969V286.2H300.063V287.348H301.505V280.936H300.063V282.658H297.445C297.515 282.294 297.543 281.902 297.543 281.496H291.887V282.658H295.947C295.751 284.422 294.197 285.808 291.201 286.452L291.705 287.628C294.491 286.998 296.353 285.71 297.137 283.778H300.063ZM294.743 292.304V291.142H301.505V287.866H293.273V289.014H300.063V290.064H293.301V293.466H301.855V292.304H294.743ZM310.534 288.048C310.884 285.808 310.884 284.212 310.884 283.106V282.266H304.458V283.428H309.47C309.47 284.492 309.442 285.962 309.12 287.922L310.534 288.048ZM307.706 285.892H306.292V289.7C305.41 289.714 304.556 289.728 303.786 289.728L303.94 290.918C306.152 290.918 309.05 290.862 311.654 290.428L311.584 289.378C310.352 289.532 309.022 289.616 307.706 289.672V285.892ZM315.574 286.13H313.712V280.936H312.256V293.578H313.712V287.348H315.574V286.13Z" fill="#8162FF"/>
<path d="M169 270V269.5H168.5V270H169ZM381 270H381.5V269.5H381V270ZM381 302V302.5H381.5V302H381ZM169 302H168.5V302.5H169V302ZM169 270.5H381V269.5H169V270.5ZM380.5 270V302H381.5V270H380.5ZM381 301.5H169V302.5H381V301.5ZM169.5 302V270H168.5V302H169.5Z" fill="#BAA6FF"/>
</svg>
