<svg width="261" height="379" viewBox="0 0 261 379" fill="none" xmlns="http://www.w3.org/2000/svg">
<path d="M199 377.7C232.745 377.7 260.1 350.345 260.1 316.6C260.1 282.855 232.745 255.5 199 255.5C165.255 255.5 137.9 282.855 137.9 316.6C137.9 350.345 165.255 377.7 199 377.7Z" fill="#D6F8FF"/>
<path d="M199 378.1C165.1 378.1 137.6 350.5 137.6 316.7C137.6 282.9 165.2 255.3 199 255.3C232.8 255.3 260.4 282.9 260.4 316.7C260.4 350.5 232.9 378.1 199 378.1ZM199 255.8C165.5 255.8 138.2 283.1 138.2 316.6C138.2 350.1 165.5 377.4 199 377.4C232.5 377.4 259.8 350.1 259.8 316.6C259.8 283.1 232.5 255.8 199 255.8Z" fill="#A2E2EA"/>
<path d="M191.4 360.499H186.2V353.399H187.6V355.799H189.9V353.399H191.3V360.499H191.4ZM187.7 359.199H190V356.999H187.7V359.199ZM194.6 363.199H193.1V352.399H194.6V363.199Z" fill="#002A35"/>
<path d="M196.4 353.299H201.4V354.499H197.8V356.299H201.1V357.499H197.8V359.299H198.5C199.1 359.299 199.6 359.299 200.3 359.299C200.9 359.299 201.5 359.199 202.1 359.099L202.3 360.299C202 360.299 201.7 360.399 201.4 360.399C201.1 360.399 200.7 360.399 200.4 360.499C200 360.499 199.7 360.499 199.3 360.499C198.9 360.499 198.6 360.499 198.2 360.499H196.3V353.299H196.4ZM204.4 356.299H205.9V357.599H204.4V363.199H202.9V352.399H204.4V356.299Z" fill="#002A35"/>
<path d="M211.8 358.399H206.7V353.099H211.8V358.399ZM210.3 354.399H208.1V357.199H210.3V354.399ZM209.7 361.899H215.3V363.099H208.3V359.499H209.8V361.899H209.7ZM215 360.099H213.5V352.399H215V360.099Z" fill="#002A35"/>
<path d="M215.3 312.499L214.7 311.399L200.6 286.899C200.4 286.599 200.1 286.399 199.8 286.399C199.5 286.399 199.1 286.499 199 286.899L184.9 311.399L184.3 312.499C181.4 317.599 181.2 323.199 183.1 327.999C185.6 334.299 191.6 339.099 199.2 339.399C199.3 339.399 199.4 339.399 199.4 339.399C199.5 339.399 199.6 339.399 199.8 339.399C199.9 339.399 200 339.399 200.2 339.399C200.3 339.399 200.4 339.399 200.4 339.399C208 339.199 214 334.299 216.5 327.999C218.4 323.199 218.2 317.599 215.3 312.499Z" fill="#FAC600"/>
<path d="M192.1 312.5L203.7 292.4L200.6 287C200.2 286.4 199.3 286.4 199 287L184.2 312.5C177.3 324.5 185.9 339.4 199.8 339.4C201.2 339.4 202.5 339.3 203.7 339C192.3 336.5 185.9 323.3 192.1 312.5Z" fill="#F99F00"/>
<path d="M168.2 291.899C167.1 296.499 165.7 297.999 161.1 298.999C160.5 299.099 160.5 299.999 161.1 300.099C165.7 301.199 167.2 302.599 168.2 307.199C168.3 307.799 169.2 307.799 169.3 307.199C170.4 302.599 171.8 301.099 176.4 300.099C177 299.999 177 299.099 176.4 298.999C171.8 297.899 170.3 296.499 169.3 291.899C169.2 291.299 168.4 291.299 168.2 291.899Z" fill="#FE9901"/>
<path d="M165.4 297.299C164.4 298.099 163 298.599 161.1 299.099C160.5 299.199 160.5 300.099 161.1 300.199C165.7 301.299 167.2 302.699 168.2 307.299C168.3 307.899 169.2 307.899 169.3 307.299C169.8 305.399 170.3 303.999 171.1 302.999C170.1 299.599 168.8 298.199 165.4 297.299Z" fill="#FB8801"/>
<path d="M176.5 305L169.8 316.6C166.7 322 170.6 328.8 176.8 328.8C183 328.8 186.9 322 183.8 316.6L177.1 305C177.1 304.8 176.7 304.8 176.5 305Z" fill="#FAC600"/>
<path d="M175.6 316.6L179.8 309.4L177.3 305.1C177.1 304.8 176.7 304.8 176.6 305.1L169.9 316.7C166.8 322.1 170.7 328.9 176.9 328.9C177.9 328.9 178.9 328.7 179.8 328.4C175.3 326.6 173 321.1 175.6 316.6Z" fill="#F99F00"/>
<path d="M223.1 298.7H221.4V297C221.4 296.5 221 296.1 220.5 296.1C220 296.1 219.6 296.5 219.6 297V298.7H217.9C217.4 298.7 217 299.1 217 299.6C217 300.1 217.4 300.5 217.9 300.5H219.6V302.2C219.6 302.7 220 303.1 220.5 303.1C221 303.1 221.4 302.7 221.4 302.2V300.5H223.1C223.6 300.5 224 300.1 224 299.6C224 299.1 223.6 298.7 223.1 298.7Z" fill="#E8B800"/>
<path d="M186.8 291.599H184.6V289.399C184.6 288.899 184.2 288.499 183.7 288.499C183.2 288.499 182.8 288.899 182.8 289.399V291.599H180.6C180.1 291.599 179.7 291.999 179.7 292.499C179.7 292.999 180.1 293.399 180.6 293.399H182.8V295.599C182.8 296.099 183.2 296.499 183.7 296.499C184.2 296.499 184.6 296.099 184.6 295.599V293.399H186.8C187.3 293.399 187.7 292.999 187.7 292.499C187.7 291.999 187.3 291.599 186.8 291.599Z" fill="#E8B800"/>
<path d="M195.3 312.199L200.1 325.999L205.1 312.199H207.5L201.2 328.899H199L192.8 312.199H195.3Z" fill="white"/>
<path d="M234.2 303.399C232.5 303.399 230.8 303.999 229.5 304.899C228.6 306.199 227.1 308.699 227.1 310.499C227.1 314.899 230.7 318.499 235.1 318.499C236.8 318.499 239.4 316.999 240.7 316.099C241.6 314.799 242.2 313.199 242.2 311.399C242.2 306.899 238.7 303.399 234.2 303.399Z" fill="#E94444"/>
<path d="M228.1 309.5C228.1 307.8 228.7 306.1 229.6 304.8C227.6 306.2 226.3 308.6 226.3 311.3C226.3 315.7 229.9 319.3 234.3 319.3C237 319.3 239.3 318 240.8 316C239.5 316.9 237.9 317.5 236.1 317.5C231.6 317.5 228.1 313.9 228.1 309.5Z" fill="#D83131"/>
<path d="M217.5 309.8C216.1 309.8 214.9 310.2 213.8 310.9C213.1 312 211.8 314.1 211.8 315.5C211.8 319.2 214.8 322.1 218.4 322.1C219.8 322.1 221.9 320.8 223 320.1C223.7 319 224.1 317.8 224.1 316.4C224.1 312.8 221.2 309.8 217.5 309.8Z" fill="#FF9052"/>
<path d="M212.7 314.599C212.7 313.199 213.1 311.999 213.8 310.899C212 312.099 210.9 314.099 210.9 316.399C210.9 320.099 213.9 322.999 217.5 322.999C219.8 322.999 221.8 321.799 223 320.099C221.9 320.799 220.7 321.199 219.3 321.199C215.7 321.299 212.7 318.299 212.7 314.599Z" fill="#EA5B13"/>
<path d="M229.1 321.399C227.7 321.399 226.5 321.799 225.4 322.499C224.7 323.599 223.4 325.699 223.4 327.099C223.4 330.799 226.4 333.699 230 333.699C231.4 333.699 233.5 332.399 234.6 331.699C235.3 330.599 235.7 329.399 235.7 327.999C235.8 324.399 232.8 321.399 229.1 321.399Z" fill="#61A2F9"/>
<path d="M224.3 326.3C224.3 324.9 224.7 323.7 225.4 322.6C223.6 323.8 222.5 325.8 222.5 328.1C222.5 331.8 225.5 334.7 229.1 334.7C231.4 334.7 233.4 333.5 234.6 331.8C233.5 332.5 232.3 332.9 230.9 332.9C227.3 332.9 224.3 329.9 224.3 326.3Z" fill="#4073C8"/>
<path d="M220.5 318.499L218.3 312.699C218.2 312.399 217.9 312.199 217.6 312.199C217.3 312.199 217 312.399 216.9 312.699L214.7 318.499C214.6 318.799 214.7 319.199 215.1 319.399C215.4 319.499 215.8 319.399 216 318.999L216.4 317.999H219L219.4 318.999C219.5 319.299 219.8 319.399 220 319.399C220.1 319.399 220.2 319.399 220.2 319.399C220.4 319.299 220.6 318.899 220.5 318.499ZM216.7 316.599L217.5 314.499L218.3 316.599H216.7Z" fill="#F7F9FA"/>
<path d="M227.8 331.599C227.6 331.599 227.5 331.499 227.3 331.399C227.2 331.299 227.1 331.099 227.1 330.899C227.1 330.899 227.1 328.799 227.1 327.999C227.1 327.299 227.1 325.099 227.1 325.099C227.1 324.899 227.2 324.699 227.3 324.599C227.4 324.499 227.6 324.399 227.8 324.399H229.4C231.2 324.399 232.4 325.799 232.4 327.899C232.4 329.899 231.2 331.399 229.5 331.399C229 331.599 227.8 331.599 227.8 331.599ZM228.5 325.899C228.5 326.599 228.5 327.699 228.5 328.099C228.5 328.599 228.5 329.599 228.5 330.299C228.9 330.299 229.3 330.299 229.5 330.299C230.3 330.299 231.1 329.599 231.1 328.099C231.1 326.999 230.7 325.899 229.5 325.899H228.5Z" fill="#F7F9FA"/>
<path d="M232.3 314.999C232.1 314.999 232 314.899 231.8 314.799C231.7 314.699 231.6 314.499 231.6 314.299V308.399C231.6 307.999 231.9 307.699 232.3 307.699H234C235.1 307.699 236 308.599 236 309.699C236 310.099 235.9 310.499 235.6 310.899C236.1 311.299 236.5 311.999 236.5 312.699C236.5 313.899 235.5 314.999 234.2 314.999C233.8 314.899 232.3 314.999 232.3 314.999ZM232.9 311.799V313.599C233.4 313.599 234 313.599 234.2 313.599C234.7 313.599 235.1 313.199 235.1 312.699C235.1 312.199 234.7 311.799 234.2 311.799C234.1 311.799 233.4 311.799 232.9 311.799ZM232.9 309.099V310.499C233.3 310.499 233.7 310.499 233.9 310.499C234.3 310.499 234.6 310.199 234.6 309.799C234.6 309.399 234.3 309.099 233.9 309.099H232.9Z" fill="#F7F9FA"/>
<path d="M238.6 315.099C238.2 315.099 237.9 314.799 237.9 314.399V312.499C237.9 312.099 238.2 311.799 238.6 311.799C239 311.799 239.3 312.099 239.3 312.499V314.399C239.2 314.799 238.9 315.099 238.6 315.099Z" fill="#F7F9FA"/>
<path d="M61.3998 377.7C95.1444 377.7 122.5 350.345 122.5 316.6C122.5 282.855 95.1444 255.5 61.3998 255.5C27.6552 255.5 0.299805 282.855 0.299805 316.6C0.299805 350.345 27.6552 377.7 61.3998 377.7Z" fill="#D6F8FF"/>
<path d="M61.4 378.1C27.5 378.1 0 350.5 0 316.7C0 282.9 27.6 255.3 61.4 255.3C95.2 255.3 122.8 282.9 122.8 316.7C122.8 350.5 95.3 378.1 61.4 378.1ZM61.4 255.8C27.9 255.8 0.600002 283.1 0.600002 316.6C0.600002 350.1 27.9 377.4 61.4 377.4C94.9 377.4 122.2 350.1 122.2 316.6C122.2 283.1 95 255.8 61.4 255.8Z" fill="#A2E2EA"/>
<path d="M50.0002 355C50.0002 355.1 49.9002 355.2 49.8002 355.4C49.7002 355.5 49.5002 355.7 49.3002 355.9C49.0002 356.1 48.8002 356.4 48.5002 356.6C48.2002 356.8 47.9002 357.1 47.6002 357.4L46.7002 356.3C47.0002 356.1 47.3002 355.8 47.6002 355.5C47.9002 355.2 48.2002 355 48.5002 354.7C48.8002 354.4 49.0002 354.2 49.1002 353.9C49.2002 353.6 49.3002 353.3 49.3002 352.9V351.5H50.8002V352.9C50.8002 353.1 50.8002 353.3 50.8002 353.5C50.8002 353.7 50.9002 353.8 50.9002 353.9C51.0002 354 51.0002 354.2 51.1002 354.3C51.2002 354.4 51.3002 354.5 51.5002 354.7C51.8002 354.9 52.1002 355.2 52.3002 355.4C52.6002 355.6 52.9002 355.8 53.2002 356L52.4002 357C52.2002 356.8 51.9002 356.7 51.7002 356.5C51.5002 356.3 51.2002 356.1 50.9002 355.9C50.7002 355.7 50.5002 355.6 50.4002 355.5C50.2002 355.3 50.1002 355.1 50.0002 355ZM48.5002 357.9H55.6002V362H54.1002V359.1H48.4002V357.9H48.5002ZM55.6002 357.4H54.1002V351.1H55.6002V357.4Z" fill="#002A35"/>
<path d="M60.3004 359.3C59.8004 359.3 59.4004 359.2 59.0004 359.1C58.6004 358.9 58.4004 358.7 58.1004 358.5C57.9004 358.2 57.7004 357.9 57.6004 357.5C57.5004 357.1 57.4004 356.7 57.4004 356.3V355C57.4004 354.6 57.5004 354.1 57.6004 353.8C57.7004 353.4 57.9004 353.1 58.1004 352.8C58.3004 352.5 58.6004 352.3 59.0004 352.2C59.4004 352 59.8004 352 60.3004 352C60.8004 352 61.2004 352.1 61.6004 352.2C62.0004 352.4 62.2004 352.6 62.5004 352.8C62.7004 353.1 62.9004 353.4 63.0004 353.8C63.1004 354.2 63.2004 354.6 63.2004 355V356.3C63.2004 356.8 63.1004 357.2 63.0004 357.5C62.9004 357.9 62.7004 358.2 62.5004 358.5C62.3004 358.8 62.0004 359 61.6004 359.1C61.2004 359.3 60.8004 359.3 60.3004 359.3ZM60.3004 353.1C59.8004 353.1 59.5004 353.3 59.2004 353.6C59.0004 353.9 58.9004 354.4 58.9004 355.1V356C58.9004 356.7 59.0004 357.2 59.2004 357.5C59.4004 357.8 59.8004 358 60.3004 358C60.8004 358 61.1004 357.8 61.4004 357.5C61.6004 357.2 61.7004 356.7 61.7004 356V355.1C61.7004 354.4 61.6004 353.9 61.4004 353.6C61.1004 353.3 60.8004 353.1 60.3004 353.1ZM66.0004 361.9H64.5004V351.1H66.0004V361.9Z" fill="#002A35"/>
<path d="M70.5002 355C70.5002 355.1 70.4002 355.2 70.3002 355.3C70.2002 355.4 70.0002 355.6 69.8002 355.8C69.5002 356 69.3002 356.3 69.0002 356.5C68.7002 356.7 68.4002 357 68.1002 357.2L67.2002 356.1C67.5002 355.9 67.8002 355.6 68.1002 355.4C68.4002 355.2 68.7002 354.9 68.9002 354.7C69.1002 354.5 69.3002 354.2 69.5002 353.9C69.7002 353.6 69.7002 353.3 69.7002 352.9V351.5H71.2002V352.9C71.2002 353.1 71.2002 353.3 71.2002 353.4C71.2002 353.6 71.3002 353.7 71.3002 353.8C71.3002 353.9 71.4002 354.1 71.5002 354.2C71.6002 354.3 71.7002 354.4 71.9002 354.6C72.1002 354.8 72.4002 355 72.7002 355.2C73.0002 355.4 73.3002 355.6 73.6002 355.8L72.8002 356.8C72.5002 356.6 72.3002 356.4 72.0002 356.3C71.8002 356.1 71.5002 355.9 71.3002 355.8C71.1002 355.6 70.9002 355.5 70.8002 355.4C70.7002 355.2 70.6002 355.1 70.5002 355ZM69.3002 357.6H76.1002V361.8H69.3002V357.6ZM70.8002 360.7H74.7002V358.9H70.8002V360.7ZM74.7002 354.3H72.8002V353.1H74.7002V351.1H76.2002V357.1H74.7002V354.3Z" fill="#002A35"/>
<path d="M87.4001 357.299V358.499H85.0001V361.899H83.6001V358.499H81.4001V361.899H80.0001V358.499H77.6001V357.299H87.4001ZM82.5001 356.399C82.0001 356.399 81.5001 356.399 81.0001 356.199C80.6001 356.099 80.2001 355.999 79.8001 355.799C79.5001 355.599 79.2001 355.399 79.0001 355.099C78.8001 354.799 78.7001 354.499 78.7001 354.099V353.599C78.7001 353.199 78.8001 352.899 79.0001 352.599C79.2001 352.299 79.4001 352.099 79.8001 351.899C80.1001 351.699 80.5001 351.599 81.0001 351.399C81.4001 351.299 81.9001 351.199 82.5001 351.199C83.0001 351.199 83.5001 351.299 84.0001 351.399C84.4001 351.499 84.8001 351.699 85.2001 351.899C85.5001 352.099 85.8001 352.299 86.0001 352.599C86.2001 352.899 86.3001 353.199 86.3001 353.599V354.099C86.3001 354.499 86.2001 354.799 86.0001 355.099C85.8001 355.399 85.6001 355.599 85.2001 355.799C84.9001 355.999 84.5001 356.099 84.0001 356.199C83.5001 356.399 83.0001 356.399 82.5001 356.399ZM82.5001 352.599C82.2001 352.599 81.9001 352.599 81.6001 352.699C81.3001 352.799 81.1001 352.799 80.9001 352.899C80.7001 352.999 80.5001 353.099 80.4001 353.299C80.3001 353.399 80.2001 353.599 80.2001 353.799V354.099C80.2001 354.299 80.3001 354.399 80.4001 354.599C80.5001 354.699 80.7001 354.899 80.9001 354.999C81.1001 355.099 81.3001 355.199 81.6001 355.199C81.9001 355.299 82.2001 355.299 82.5001 355.299C82.8001 355.299 83.1001 355.299 83.4001 355.199C83.7001 355.099 83.9001 355.099 84.1001 354.999C84.3001 354.899 84.5001 354.799 84.6001 354.599C84.7001 354.499 84.8001 354.299 84.8001 354.099V353.799C84.8001 353.599 84.7001 353.499 84.6001 353.299C84.5001 353.199 84.3001 352.999 84.1001 352.899C83.9001 352.799 83.7001 352.699 83.4001 352.699C83.1001 352.599 82.8001 352.599 82.5001 352.599Z" fill="#002A35"/>
<path d="M103.6 297.3C103.2 296.9 102.7 296.5 102.1 296.3C101.1 295.8 100.4 294.8 100.6 293.6C100.8 292 100.3 290.4 99.2 289.3C98.1 288.2 96.5 287.7 94.9 287.9C93.8 288.1 92.7 287.4 92.2 286.4C92 285.8 91.6 285.3 91.2 284.9C89.2 282.9 86.1 282.9 84.1 284.9L73.5 295.5L92.9 314.9L103.5 304.3C105.5 302.4 105.5 299.3 103.6 297.3Z" fill="#809E39"/>
<path d="M85.5996 283.3C84.9996 283.3 84.3996 283.5 83.7996 283.8C82.7996 284.3 81.4996 284.1 80.7996 283.2C79.7996 282 78.1996 281.4 76.5996 281.5C74.9996 281.6 73.5996 282.5 72.7996 283.8C72.1996 284.8 70.9996 285.2 69.8996 284.8C69.2996 284.6 68.6996 284.6 68.0996 284.6C65.2996 284.8 63.2996 287.2 63.4996 290L64.6996 304.9L92.0996 302.6L90.8996 287.7C90.7996 285.1 88.3996 283.1 85.5996 283.3Z" fill="#809E39"/>
<path d="M103.1 311.4C103.1 313.7 102.8 316.1 102.1 318.3C101.8 319.5 101.3 320.6 100.8 321.7C96.8 330.2 88.2 335.7 78.8 335.7C78.1 335.7 77.4 335.7 76.7 335.6C64.3 334.6 54.5 324.1 54.5 311.4C54.5 298.7 64.3 288.2 76.8 287.2C77.5 287.1 78.1 287.1 78.8 287.1C85.1 287.1 91.2 289.6 95.8 294C96.2 294.4 96.6 294.9 97 295.3C98.3 296.8 99.4 298.4 100.4 300.2C100.7 300.8 101 301.3 101.2 301.9C102 303.8 102.5 305.8 102.8 307.8C102.9 308.6 103 309.4 103 310.2C103.1 310.7 103.1 311.1 103.1 311.4Z" fill="#A3CC32"/>
<path d="M94.8999 319.2L103.1 310.3C103.1 309.5 103 308.7 102.9 307.9C102.8 307.9 102.8 308 102.7 308L99.5999 311.3L99.8999 308.6C99.8999 308.1 99.5999 307.7 99.0999 307.6C98.5999 307.6 98.1999 307.9 98.0999 308.4L97.5999 313.5L95.0999 316.3C95.1999 313.6 95.1999 311 94.9999 308.3L101.2 302C101 301.4 100.7 300.8 100.4 300.3L94.7999 306C94.4999 303.6 94.0999 301.3 93.4999 299L97.0999 295.4C96.6999 294.9 96.2999 294.5 95.8999 294.1L92.9999 297C92.1999 294.5 91.0999 292.1 89.7999 289.8C89.7999 289.8 90.3999 292.3 90.8999 296.3L74.7999 289.9C74.2999 289.7 73.7999 289.9 73.5999 290.4C73.3999 290.9 73.5999 291.4 74.0999 291.6L80.8999 294.3L78.0999 294.8C77.5999 294.9 77.2999 295.4 77.3999 295.8C77.4999 296.3 77.9999 296.6 78.3999 296.5L83.9999 295.5C83.9999 295.5 90.7999 298.2 90.9999 298.2H91.0999C91.3999 301.1 91.5999 304.1 91.5999 307.1L76.4999 301.6C75.9999 301.4 75.4999 301.7 75.2999 302.1C75.0999 302.5 75.3999 303.1 75.7999 303.3L82.7999 305.8L79.0999 306.4C78.5999 306.5 78.2999 306.9 78.2999 307.4C78.3999 307.8 78.6999 308.2 79.1999 308.2H79.2999L86.2999 307.2C86.2999 307.2 91.3999 309 91.4999 309C91.4999 311.7 91.2999 314.5 90.8999 317.2L86.5999 315.5L83.8999 309.7C83.6999 309.3 83.0999 309.1 82.6999 309.3C82.2999 309.5 82.0999 310 82.2999 310.5L84.1999 314.6L76.3999 311.6C75.8999 311.4 75.3999 311.6 75.1999 312.1C74.9999 312.6 75.1999 313.1 75.6999 313.3L90.3999 319C90.4999 319 90.4999 319 90.5999 319.1C90.1999 321.6 89.6999 324.1 88.8999 326.6L87.5999 326L85.7999 321.2C85.5999 320.7 85.0999 320.5 84.5999 320.7C84.0999 320.9 83.8999 321.4 84.0999 321.9L85.2999 325.2L74.5999 320.8C74.0999 320.6 73.5999 320.8 73.3999 321.3C73.1999 321.8 73.3999 322.3 73.8999 322.5L81.1999 325.5L78.4999 326.2C77.9999 326.3 77.6999 326.8 77.8999 327.3C77.9999 327.8 78.4999 328.1 78.9999 327.9L83.8999 326.6L88.2999 328.4C88.2999 328.4 88.2999 328.4 88.3999 328.4C87.6999 330.6 86.7999 332.8 85.6999 335C88.2999 334.2 90.6999 333 92.7999 331.5C92.9999 330.4 93.2999 329.2 93.4999 327.9L100.6 322.1C101.1 321 101.5 319.9 101.9 318.7L93.9999 325.2C94.3999 323 94.6999 321.2 94.8999 319.2Z" fill="#B7D636"/>
<path d="M74.2998 323.3C74.2998 326.3 77.0998 327 77.0998 330.7C77.0998 333.3 76.0998 333.9 75.1998 335.4C67.0998 335.4 52.7998 327.2 52.7998 311.4C52.7998 299.6 60.6998 292.4 66.2998 289.7C66.7998 289.5 67.2998 289.2 67.7998 289C70.4998 288.1 68.9998 283.4 68.9998 283.4C73.4998 283.4 76.0998 285.3 74.7998 289.6C74.5998 290.3 74.2998 291 74.2998 292.1C74.2998 293.1 74.4998 293.9 74.7998 294.5C75.6998 296.2 77.0998 297 77.0998 299.9C77.0998 301.7 76.1998 303.1 76.0998 303.1C75.2998 304.3 74.2998 305.2 74.2998 307.6C74.2998 308.4 74.3998 309.2 74.7998 310C74.9998 310.4 75.1998 310.7 75.7998 311.5C76.3998 312.5 77.1998 313.4 77.1998 315.3C77.1998 318.3 75.4998 319 74.6998 321C74.4998 321.4 74.2998 321.6 74.2998 323.3Z" fill="#BEE25A"/>
<path d="M76.9997 300.9C76.9997 301.1 76.8997 301.3 76.8997 301.5C76.6997 302 76.4997 302.5 76.1997 303C74.6997 303.5 72.7997 304.1 71.7997 304.5C68.0997 305.9 62.0997 309.2 58.2997 312.6L63.4997 313.2C63.9997 313.3 64.2997 313.7 64.2997 314.2C64.1997 314.7 63.8997 315 63.3997 315L56.5997 314.2C55.5997 315.3 54.5997 316.4 53.6997 317.6C53.4997 316.8 53.2997 316.1 53.1997 315.3C54.6997 313.5 57.3997 310.7 60.5997 308.3L62.8997 301.9C63.0997 301.4 63.5997 301.2 64.0997 301.4C64.5997 301.6 64.7997 302.1 64.5997 302.6L62.9997 306.8C66.2997 304.8 69.7997 303.2 73.3997 302C74.0997 301.8 75.9997 301.2 76.9997 300.9Z" fill="#B1D13D"/>
<path d="M70.4998 300.4C70.3998 300.7 69.9998 300.9 69.6998 300.9C69.5998 300.9 69.3998 300.9 69.2998 300.8L64.2998 298.6C59.7998 300.9 55.4998 304.5 53.2998 306.7C53.4998 305.6 53.7998 304.5 54.1998 303.4C57.8998 300.2 62.9998 295.9 74.2998 292.7C74.2998 293.3 74.4998 293.9 74.6998 294.4C71.6998 295.2 68.6998 296.4 66.3998 297.5L69.9998 299.1C70.4998 299.4 70.6998 299.9 70.4998 300.4Z" fill="#B1D13D"/>
<path d="M73.9998 316.9C73.8998 317.3 73.5998 317.7 73.0998 317.7L67.0998 316.8C65.4998 318 63.9998 319.3 62.4998 320.7L68.9998 321.5C69.4998 321.6 69.7998 322 69.7998 322.5C69.6998 323 69.3998 323.3 68.8998 323.3C68.8998 323.3 60.9998 322.4 60.9998 322.3C59.9998 323.4 58.7998 324.9 57.8998 326C57.4998 325.5 57.0998 325 56.7998 324.5C59.7998 320.6 64.7998 315.3 72.6998 311C73.0998 310.8 73.9998 310.3 74.6998 309.9C74.6998 309.9 75.5998 311.4 75.6998 311.4C74.8998 311.8 70.4998 314.3 69.1998 315.2L73.1998 315.8C73.6998 316 73.9998 316.4 73.9998 316.9Z" fill="#B1D13D"/>
<path d="M74.2997 323.4C73.7997 323.8 73.1997 324.2 72.9997 324.3C69.6997 326.5 66.5997 329.1 64.1997 331.7C63.6997 331.4 63.1997 331 62.6997 330.7C65.3997 327.7 68.7997 324.8 72.4997 322.4C72.8997 322.1 74.0997 321.3 74.5997 320.9C74.2997 321.6 74.2997 323.3 74.2997 323.4Z" fill="#B1D13D"/>
<path d="M46.5996 315.2L50.3996 313.6C53.7996 312.2 57.4996 311.5 61.0996 311.5C62.4996 311.5 63.7996 312 64.9996 312.8C66.0996 313.6 67.4996 314.1 68.8996 314.1H70.1996L67.0996 318.4C66.2996 319.5 65.8996 320.9 65.8996 322.2C65.8996 325 64.0996 327.6 61.3996 328.5C57.5996 329.8 53.4996 330.4 49.4996 330.4H48.4996L46.5996 315.2Z" fill="#70432A"/>
<path d="M64.9996 312.7C63.8996 311.9 62.4996 311.4 61.0996 311.4C57.3996 311.4 53.7996 312.1 50.3996 313.5L46.5996 315.1L48.0996 327.7C51.9996 327.7 55.8996 327 59.5996 325.8C62.2996 324.9 64.0996 322.4 64.0996 319.5C64.0996 318.1 64.4996 316.8 65.2996 315.7L66.7996 313.7C66.1996 313.5 65.5996 313.2 64.9996 312.7Z" fill="#875035"/>
<path d="M58.1998 311.6L60.9998 307.1C63.0998 303.8 64.1998 299.9 64.1998 296L61.7998 297.6C59.9998 298.8 57.7998 299.5 55.5998 299.5C54.9998 299.5 54.3998 299.4 53.7998 299.3L48.8998 298.5C45.8998 298 42.8998 297.8 39.8998 297.8C35.0998 297.8 30.4998 299.7 27.0998 303.1C25.5998 304.7 23.4998 305.5 21.2998 305.5C21.2998 309.2 23.2998 312.6 26.5998 314.4L27.5998 315L34.4998 315.9C42.5998 316.9 50.8998 315.4 58.1998 311.6Z" fill="#5A361F"/>
<path d="M58.1999 311.6L60.9999 307.1C63.0999 303.8 64.1999 299.9 64.1999 296L61.7999 297.6C59.9999 298.8 57.7999 299.5 55.5999 299.5C54.9999 299.5 54.3999 299.4 53.7999 299.3L48.8999 298.5C45.8999 298 42.8999 297.8 39.8999 297.8C35.0999 297.8 30.4999 299.7 27.0999 303.1C26.1999 304 25.0999 304.7 23.8999 305.1C24.1999 308.5 26.0999 311.5 29.0999 313.1C29.7999 313.5 30.4999 313.7 31.2999 313.8L37.0999 314.6C44.1999 315.5 51.4999 314.5 58.1999 311.6Z" fill="#70432A"/>
<path d="M59.7998 319.601L58.2998 320.401L59.5998 322.701C60.5998 324.401 61.1998 326.201 61.4998 328.101V328.301C61.7998 328.201 61.9998 328.101 62.2998 328.001C62.5998 327.901 62.7998 327.701 63.0998 327.501C62.7998 325.501 62.0998 323.601 61.0998 321.801L59.7998 319.601Z" fill="#5A361F"/>
<path d="M58.5002 326.2L57.2002 323.9L55.7002 324.7L57.0002 327C57.4002 327.7 57.8002 328.5 58.1002 329.3C58.7002 329.2 59.2002 329 59.8002 328.9V328.8C59.4002 327.9 59.0002 327 58.5002 326.2Z" fill="#5A361F"/>
<path d="M46.2001 299.5C47.3001 301.3 47.9001 303.3 47.9001 305.4H49.6001C49.6001 303 48.9001 300.6 47.6001 298.6L47.4001 298.2C46.6001 298.1 45.9001 298 45.1001 297.9L45.6001 298.5L46.2001 299.5Z" fill="#5A361F"/>
<path d="M30.7 301.601V300.901L30.8 300.301C30.2 300.701 29.6 301.101 29 301.501V301.701" fill="#5A361F"/>
<path d="M30.7998 309.3L32.2998 308.5L30.7998 309.3Z" fill="#5A361F"/>
<path d="M51.7998 299.6C53.0998 301.9 53.7998 304.5 53.7998 307.2H55.4998C55.4998 304.4 54.7998 301.7 53.4998 299.3L51.2998 298.9L51.7998 299.6Z" fill="#5A361F"/>
<path d="M42.6998 313.2H39.1998C35.7998 313.2 32.4998 313.7 29.2998 314.6C28.4998 314.8 27.7998 314.9 26.9998 314.9C24.4998 314.9 22.0998 316 20.4998 317.9L18.7998 320L23.0998 326C27.3998 331.9 34.2998 335.4 41.5998 335.4H42.7998" fill="#70432A"/>
<path d="M29.1999 314.6C28.3999 314.8 27.6999 314.9 26.8999 314.9C24.3999 314.9 21.9999 316 20.3999 317.9L23.7999 322.6C28.0999 328.5 34.9999 332 42.2999 332H42.5999V313.1H39.1999C35.7999 313.2 32.4999 313.6 29.1999 314.6Z" fill="#875035"/>
<path d="M42.6998 335.5C46.5106 335.5 49.5998 330.485 49.5998 324.3C49.5998 318.114 46.5106 313.1 42.6998 313.1C38.889 313.1 35.7998 318.114 35.7998 324.3C35.7998 330.485 38.889 335.5 42.6998 335.5Z" fill="#E2BB17"/>
<path d="M42.6998 313.2C38.8998 313.2 35.7998 318.2 35.7998 324.4C35.7998 326.7 36.2998 329.1 37.1998 331.2C38.0998 332.3 39.4998 332.9 40.8998 333C44.6998 333 47.7998 328 47.7998 321.8C47.7998 319.5 47.2998 317.1 46.3998 315C45.4998 313.9 44.0998 313.2 42.6998 313.2Z" fill="#FFDA3E"/>
<path d="M31.4998 324.3H29.7998C29.7998 327.3 30.2998 330.3 31.3998 333.1C32.1998 333.5 32.9998 333.8 33.7998 334.1L33.2998 333.3C32.0998 330.5 31.4998 327.4 31.4998 324.3Z" fill="#5A361F"/>
<path d="M27.2 325.2H25.5C25.5 326.6 25.6 328 25.9 329.4C26.6 330 27.3 330.6 28.1 331.2L27.8 330.2C27.4 328.5 27.2 326.8 27.2 325.2Z" fill="#5A361F"/>
<path d="M74.6002 309.899C72.6002 309.899 70.8002 310.499 69.3002 311.499C69.0002 311.699 68.5002 311.699 68.2002 311.499C66.7002 310.499 64.8002 309.899 62.9002 309.899C57.3002 309.899 52.7002 314.699 52.7002 320.599C52.7002 329.399 56.6002 340.899 66.8002 339.899C66.8002 339.899 67.6002 339.799 68.4002 339.399C68.7002 339.299 69.0002 339.299 69.3002 339.399C70.1002 339.799 70.9002 339.899 70.9002 339.899C81.1002 340.899 85.0002 329.399 85.0002 320.599C84.8002 314.699 80.2002 309.899 74.6002 309.899Z" fill="#E94444"/>
<path d="M74.5999 309.899C74.0999 309.899 73.4999 309.899 72.9999 309.999C75.5999 312.799 77.1999 316.599 77.3999 320.699C77.7999 329.099 69.8999 336.299 61.7999 336.299C60.0999 336.299 58.4999 335.999 56.8999 335.499C59.0999 338.399 62.2999 340.299 66.5999 339.799C66.5999 339.799 67.3999 339.699 68.1999 339.299C68.4999 339.199 68.7999 339.199 69.0999 339.299C69.8999 339.699 70.6999 339.799 70.6999 339.799C80.8999 340.799 84.7999 329.299 84.7999 320.499C84.7999 314.699 80.1999 309.899 74.5999 309.899Z" fill="#D82E2E"/>
<path d="M74.2999 310.6C74.8999 309.9 75.4999 309.1 75.7999 308.3C76.3999 307 76.5999 305.5 76.2999 304.1C76.2999 303.9 76.0999 303.8 75.9999 303.8C74.5999 303.5 73.1999 303.7 71.8999 304.3C70.7999 304.8 69.7999 305.5 69.0999 306.4C67.9999 307.9 67.2999 309.8 67.4999 311.7C67.4999 312 67.4999 312.7 67.9999 312.8C68.3999 312.9 68.7999 312.9 69.1999 312.9C70.9999 312.8 72.9999 312 74.2999 310.6Z" fill="#00C27A"/>
<path d="M76.3 304.1C76.6 305.5 76.4 307 75.8 308.3C75.4 309.1 74.9 309.9 74.3 310.6C73 312 71 312.8 69.1 312.8C68.7 312.8 68.3 312.8 67.9 312.7C67.7 312.7 67.6 312.6 67.6 312.4C67.6 312.3 67.5 312.2 67.5 312.1C69.3 312 71.2 311.2 72.5 309.9C73.1 309.2 73.7 308.4 74 307.6C74.6 306.4 74.8 305 74.5 303.7C75 303.7 75.4 303.7 75.9 303.8C76.2 303.8 76.3 303.9 76.3 304.1Z" fill="#00A05F"/>
<path d="M61.3998 122.5C95.1444 122.5 122.5 95.1444 122.5 61.3998C122.5 27.6552 95.1444 0.299805 61.3998 0.299805C27.6552 0.299805 0.299805 27.6552 0.299805 61.3998C0.299805 95.1444 27.6552 122.5 61.3998 122.5Z" fill="#D6F8FF"/>
<path d="M61.4 122.8C27.5 122.8 0 95.2 0 61.4C0 27.6 27.6 0 61.4 0C95.2 0 122.8 27.6 122.8 61.4C122.8 95.2 95.3 122.8 61.4 122.8ZM61.4 0.6C27.9 0.6 0.600002 27.9 0.600002 61.4C0.600002 94.9 27.9 122.2 61.4 122.2C94.9 122.2 122.2 94.9 122.2 61.4C122.2 27.8 95 0.6 61.4 0.6Z" fill="#A2E2EA"/>
<path d="M46.4002 97.9002H51.4002V99.2002H47.8002V102C48.2002 102 48.6002 102 48.9002 102C49.3002 102 49.6002 102 50.0002 102C50.3002 102 50.7002 102 51.0002 101.9C51.3002 101.9 51.7002 101.8 52.1002 101.8L52.2002 103C51.9002 103 51.5002 103.1 51.1002 103.1C50.7002 103.1 50.3002 103.1 49.8002 103.2C49.3002 103.2 48.8002 103.2 48.2002 103.2C47.6002 103.2 47.0002 103.2 46.2002 103.2V97.9002H46.4002ZM49.3002 106.7H54.8002V107.9H47.8002V104.3H49.3002V106.7ZM54.5002 99.9002H55.9002V101.2H54.5002V104.9H53.0002V97.2002H54.5002V99.9002Z" fill="#002A35"/>
<path d="M60.9001 97.7998V102.9H56.6001V97.7998H58.0001V99.2998H59.6001V97.7998H60.9001ZM59.5001 101.8V100.5H57.9001V101.8H59.5001ZM58.2001 104.1H65.4001V108.2H63.9001V105.3H58.2001V104.1ZM63.1001 99.6998H64.0001V97.2998H65.4001V103.6H64.0001V101H63.1001V103.6H61.7001V97.4998H63.1001V99.6998Z" fill="#002A35"/>
<path d="M67.2002 97.6998H72.8002V98.8998H70.8002V99.2998C70.8002 99.3998 70.8002 99.5998 70.8002 99.6998C70.8002 99.7998 70.9002 99.8998 70.9002 99.9998C71.0002 100.1 71.0002 100.2 71.1002 100.3C71.2002 100.4 71.3002 100.5 71.5002 100.6C71.7002 100.8 72.0002 100.9 72.2002 101.1C72.5002 101.3 72.7002 101.4 73.0002 101.6L72.3002 102.6C72.1002 102.4 71.8002 102.3 71.6002 102.1C71.4002 101.9 71.1002 101.8 70.9002 101.6C70.4002 101.3 70.1002 101.1 70.1002 100.9C70.0002 101 69.8002 101.3 69.2002 101.7C69.0002 101.9 68.7002 102.1 68.4002 102.3C68.1002 102.5 67.8002 102.7 67.5002 102.9L66.7002 101.8C67.1002 101.6 67.4002 101.3 67.8002 101.1C68.1002 100.9 68.4002 100.6 68.7002 100.4C68.9002 100.2 69.1002 99.9998 69.2002 99.8998C69.3002 99.6998 69.3002 99.4998 69.3002 99.1998V98.7998H67.2002V97.6998ZM75.5002 103.1V106.2H70.2002V107H75.9002V108.2H68.8002V105.1H74.1002V104.3H68.7002V103.1H75.5002ZM75.5002 102.6H74.0002V97.2998H75.5002V102.6Z" fill="#002A35"/>
<path d="M48.1999 53.7998C38.2999 53.7998 30.3999 55.3998 30.3999 57.4998V60.4998C30.5999 62.4998 38.4999 64.0998 48.1999 64.0998C57.8999 64.0998 65.8999 62.4998 65.9999 60.4998V57.4998C66.0999 55.4998 58.0999 53.7998 48.1999 53.7998Z" fill="#285680"/>
<path d="M48.1997 20.7998C38.7997 20.7998 31.1997 22.2998 31.1997 24.0998V58.0998C31.1997 59.8998 38.7997 61.3998 48.1997 61.3998C57.5997 61.3998 65.1997 59.8998 65.1997 58.0998V24.0998C65.2997 22.2998 57.5997 20.7998 48.1997 20.7998Z" fill="#4482C3"/>
<path fill-rule="evenodd" clip-rule="evenodd" d="M58.1999 49.3998C58.1999 52.2998 56.0999 54.7998 53.1999 55.1998C49.6999 55.5998 46.0999 54.8998 42.9999 53.1998C42.2999 53.3998 41.5999 53.2998 41.0999 52.8998C40.4999 52.4998 40.1999 51.8998 40.1999 51.1998V50.3998C39.6999 49.5998 39.3999 48.7998 39.2999 47.8998C39.1999 46.6998 39.3999 45.4998 39.8999 44.3998C41.2999 41.2998 43.6999 35.1998 44.2999 33.6998C44.3999 33.4998 44.5999 33.2998 44.7999 33.2998L48.9999 32.0998C49.2999 31.9998 49.4999 32.0998 49.6999 32.2998L51.6999 34.2998C51.9999 34.5998 51.9999 34.9998 51.6999 35.2998L50.1999 36.7998C50.2999 36.8998 50.4999 36.8998 50.6999 36.9998C51.1999 37.1998 51.4999 37.6998 51.4999 38.1998C51.4999 38.2998 51.4999 38.4998 51.3999 38.5998C51.1999 39.2998 50.4999 39.5998 49.7999 39.3998C49.0999 39.0998 48.2999 38.9998 47.4999 38.9998C47.3999 38.9998 47.3999 38.9998 47.2999 38.9998C46.8999 38.9998 46.5999 38.7998 46.2999 38.4998C46.1999 38.9998 46.1999 39.5998 46.2999 40.1998C46.2999 40.4998 46.3999 40.8998 46.4999 41.1998C46.9999 42.4998 47.1999 43.9998 47.0999 45.3998C47.4999 44.8998 47.9999 44.4998 48.4999 44.1998C50.6999 43.0998 53.2999 43.1998 55.3999 44.4998C56.8999 45.3998 57.8999 46.9998 58.0999 48.7998C58.1999 48.9998 58.1999 49.1998 58.1999 49.3998Z" fill="#FDD7AD"/>
<path fill-rule="evenodd" clip-rule="evenodd" d="M50.3001 52.3996C49.1001 52.4996 47.9001 52.1996 46.8001 51.6996C46.5001 51.4996 46.4001 50.9996 46.6001 50.6996C46.8001 50.3996 47.3001 50.2996 47.6001 50.4996C47.7001 50.4996 49.6001 51.6996 54.1001 50.3996C54.3001 50.2996 54.6001 50.3996 54.8001 50.5996C55.0001 50.7996 55.1001 50.9996 55.0001 51.2996C54.9001 51.5996 54.7001 51.6996 54.5001 51.7996" fill="#EDAD72"/>
<path fill-rule="evenodd" clip-rule="evenodd" d="M36.1999 46.7994H34.0999C33.6999 46.7994 33.3999 46.4994 33.3999 46.0994C33.3999 45.6994 33.6999 45.3994 34.0999 45.3994H36.1999C36.5999 45.3994 36.8999 45.6994 36.8999 46.0994C36.8999 46.4994 36.5999 46.7994 36.1999 46.7994Z" fill="#F3D55B"/>
<path fill-rule="evenodd" clip-rule="evenodd" d="M62.4001 46.7994H60.3001C59.9001 46.7994 59.6001 46.4994 59.6001 46.0994C59.6001 45.6994 59.9001 45.3994 60.3001 45.3994H62.4001C62.8001 45.3994 63.1001 45.6994 63.1001 46.0994C63.1001 46.4994 62.8001 46.7994 62.4001 46.7994Z" fill="#F3D55B"/>
<path fill-rule="evenodd" clip-rule="evenodd" d="M58.6997 42.1996C58.3997 42.1996 58.0997 41.9996 57.9997 41.6996C57.8997 41.3996 58.0997 41.0996 58.2997 40.8996L60.0997 39.7996C60.2997 39.6996 60.5997 39.6996 60.7997 39.7996C60.9997 39.8996 61.1997 40.1996 61.1997 40.3996C61.1997 40.5996 61.0997 40.8996 60.7997 40.9996L58.9997 42.0996C58.8997 42.1996 58.7997 42.1996 58.6997 42.1996Z" fill="#F3D55B"/>
<path fill-rule="evenodd" clip-rule="evenodd" d="M37.7997 42.1996C37.6997 42.1996 37.5997 42.1996 37.3997 42.0996L35.5997 40.9996C35.3997 40.8996 35.1997 40.5996 35.1997 40.3996C35.1997 40.0996 35.2997 39.8996 35.5997 39.7996C35.7997 39.6996 36.0997 39.6996 36.2997 39.7996L38.0997 40.8996C38.3997 41.0996 38.4997 41.3996 38.3997 41.6996C38.3997 41.9996 38.0997 42.1996 37.7997 42.1996Z" fill="#F3D55B"/>
<path d="M48.1999 18.5C38.2999 18.5 30.3999 20.1 30.3999 22.2V25.2C30.5999 27.2 38.4999 28.8 48.1999 28.8C57.8999 28.8 65.8999 27.2 65.9999 25.2V22.2C66.0999 20.2 58.0999 18.5 48.1999 18.5Z" fill="#204E70"/>
<path d="M48.1999 25.1C58.0306 25.1 65.9999 23.6225 65.9999 21.8C65.9999 19.9775 58.0306 18.5 48.1999 18.5C38.3692 18.5 30.3999 19.9775 30.3999 21.8C30.3999 23.6225 38.3692 25.1 48.1999 25.1Z" fill="#105A87"/>
<path fill-rule="evenodd" clip-rule="evenodd" d="M60.1999 61.1004C59.7999 61.1004 59.3999 60.8004 59.3999 60.3004C59.3999 59.9004 59.6999 59.5004 60.1999 59.5004C61.4999 59.5004 62.4999 58.5004 62.4999 57.2004C62.4999 56.8004 62.7999 56.4004 63.2999 56.4004C63.6999 56.4004 64.0999 56.7004 64.0999 57.2004C63.9999 59.3004 62.2999 61.1004 60.1999 61.1004Z" fill="white"/>
<path d="M97 66.2C97 57 86.6 49.5 73.9 49.5C69.6 49.5 65.6 50.4 62.1 51.8C58.2 53.5 54.2 54.6 50.2 55.9C44.4 57.8 40.5 61.7 40.5 66.2V73.9C40.5 78.4 44.5 82.2 50.2 84.2C54.2 85.5 58.2 86.6 62.1 88.3C65.6 89.8 69.6 90.6 73.9 90.6C86.7 90.6 97 83.1 97 73.9V66.2Z" fill="#E48D72"/>
<path d="M73.7999 49.5C69.8999 49.5 66.1999 50.2 62.9999 51.4C59.1999 52.9 55.2999 54.5 51.3999 55.5C44.8999 57.2 40.3999 61.4 40.3999 66.2C40.3999 71 44.8999 75.1 51.3999 76.9C55.3999 78 59.1999 79.6 62.9999 81C66.1999 82.2 69.8999 82.9 73.7999 82.9C86.5999 82.9 96.8999 75.4 96.8999 66.2C96.9999 57 86.5999 49.5 73.7999 49.5Z" fill="#FFD7CC"/>
<path d="M94.1997 68C94.4997 66.6 93.4997 65.2 92.0997 65C91.8997 65 91.7997 65 91.5997 65H83.9997C78.8997 65 79.0997 66.9 79.0997 67.6C79.0997 68.2 79.2997 68.8 79.7997 69.3C81.4997 71 82.1997 72.7 82.4997 75.8C82.6997 77.5 84.4997 78.5 85.9997 77.7C90.4997 75.3 93.4997 71.9 94.1997 68Z" fill="#AE2B00"/>
<path d="M73.8001 57.0001C75.5001 58.4001 77.4001 59.7001 79.4001 60.6001C83.6001 62.7001 89.6001 62.3001 89.6001 62.3001C91.5001 62.3001 92.5001 60.0001 91.2001 58.6001C88.0001 55.1001 82.6001 52.7001 76.4001 52.2001C71.3001 52.1001 71.3001 54.7001 73.8001 57.0001Z" fill="#AE2B00"/>
<path d="M76.6001 67.4997C76.6001 66.6997 76.8001 65.9997 77.2001 65.2997C77.9001 64.0997 77.4001 62.4997 76.2001 61.7997C74.4001 60.6997 72.8001 59.4997 71.2001 58.1997C71.1 58.0997 70.8001 57.8997 70.5001 57.5997C67.7001 54.8997 63.6001 54.0997 60.0001 55.3997C56.7001 56.2997 56.8 59.4997 58.3 60.8997C62.4 64.7997 63.2 71.0997 63.4 75.1997C63.4 77.7997 65.3001 79.0997 66.0001 79.2997C68.5001 79.9997 71.1 80.3997 73.7001 80.2997C74.1 80.2997 74.4 80.2997 74.8 80.2997C78 80.1997 80.4001 77.1997 79.6001 73.9997C79.3001 72.5997 78.8 71.7997 77.9 70.8997C77.1 70.0997 76.6001 68.7997 76.6001 67.4997Z" fill="#AE2B00"/>
<path d="M92.6997 67.3998C92.0997 67.3998 91.5997 67.7998 91.4997 68.2998V68.3998C91.4997 68.3998 91.4997 68.3998 91.4997 68.4998C90.6997 70.8998 88.5997 73.1998 85.5997 74.8998C84.9997 75.1998 84.7997 75.9998 85.0997 76.5998C85.3997 77.1998 86.1997 77.3998 86.7997 77.0998C90.2997 75.0998 92.7997 72.3998 93.8997 69.1998C93.8997 69.1998 93.8997 69.1998 93.8997 69.0998C93.8997 69.0998 93.8997 69.0998 93.8997 68.9998V68.8998C94.0997 68.1998 93.6997 67.4998 92.9997 67.2998C92.9997 67.3998 92.8997 67.3998 92.6997 67.3998Z" fill="#8E1600"/>
<path d="M60.4998 72.7006C60.4998 69.2006 57.4998 60.6006 52.9998 60.6006C48.4998 60.6006 42.8998 65.0006 44.0998 67.0006C45.9998 70.2006 48.9998 70.8006 52.9998 73.2006C57.5998 76.0006 60.4998 76.2006 60.4998 72.7006Z" fill="#8E1600"/>
<path d="M68.6999 59.8002C68.6999 58.4002 66.9999 57.2002 64.7999 57.2002C62.6999 57.2002 60.8999 58.4002 60.8999 59.8002C60.8999 61.2002 62.5999 62.4002 64.7999 62.4002C66.9999 62.4002 68.6999 61.2002 68.6999 59.8002Z" fill="#D65128"/>
<path d="M73.7997 63.7004C73.7997 64.4004 73.1997 65.0004 72.4997 65.0004C71.7997 65.0004 71.1997 64.4004 71.1997 63.7004C71.1997 63.0004 71.7997 62.4004 72.4997 62.4004C73.1997 62.4004 73.7997 63.0004 73.7997 63.7004Z" fill="#D65128"/>
<path d="M52.8998 63.7004C52.8998 64.4004 52.2998 65.0004 51.5998 65.0004C50.8998 65.0004 50.2998 64.4004 50.2998 63.7004C50.2998 63.0004 50.8998 62.4004 51.5998 62.4004C52.2998 62.4004 52.8998 63.0004 52.8998 63.7004Z" fill="#AE2B00"/>
<path d="M78.9999 56.0002C78.9999 56.7002 78.3999 57.3002 77.6999 57.3002C76.9999 57.3002 76.3999 56.7002 76.3999 56.0002C76.3999 55.3002 76.9999 54.7002 77.6999 54.7002C78.3999 54.7002 78.9999 55.3002 78.9999 56.0002Z" fill="#D65128"/>
<path d="M84.1 68.8C84.1 69.5 83.5 70.1 82.8 70.1C82.1 70.1 81.5 69.5 81.5 68.8C81.5 68.1 82.1 67.5 82.8 67.5C83.5 67.5 84.1 68.1 84.1 68.8Z" fill="#D65128"/>
<path d="M199 122.5C232.745 122.5 260.1 95.1444 260.1 61.3998C260.1 27.6552 232.745 0.299805 199 0.299805C165.255 0.299805 137.9 27.6552 137.9 61.3998C137.9 95.1444 165.255 122.5 199 122.5Z" fill="#D6F8FF"/>
<path d="M199 122.8C165.1 122.8 137.6 95.2 137.6 61.4C137.6 27.6 165.2 0 199 0C232.8 0 260.4 27.6 260.4 61.4C260.4 95.2 232.9 122.8 199 122.8ZM199 0.6C165.5 0.6 138.2 27.9 138.2 61.4C138.2 94.9 165.5 122.2 199 122.2C232.5 122.2 259.8 94.9 259.8 61.4C259.8 27.8 232.5 0.6 199 0.6Z" fill="#A2E2EA"/>
<path d="M171.5 39.7002H201.4V81.2002H171.5V39.7002Z" fill="#61A2F9"/>
<path d="M191.9 39.7002H200.7V81.2002H191.9V39.7002Z" fill="#4073C8"/>
<path d="M171.5 39.7004L186.4 32.4004L201.3 39.7004" fill="#4073C8"/>
<path d="M186.4 33.8998C186 33.8998 185.6 33.4998 185.6 33.0998V29.0998C185.6 28.6998 186 28.2998 186.4 28.2998C186.8 28.2998 187.2 28.6998 187.2 29.0998V33.0998C187.2 33.5998 186.9 33.8998 186.4 33.8998Z" fill="#4073C8"/>
<path d="M190.6 55.601C190.6 55.901 190.3 56.201 190 56.201H174.4C174.1 56.201 173.8 55.901 173.8 55.601C173.8 55.301 174.1 55.001 174.4 55.001H190C190.3 55.001 190.6 55.201 190.6 55.601Z" fill="white"/>
<path d="M190.6 46.2006C190.6 46.5006 190.3 46.8006 190 46.8006H174.4C174.1 46.8006 173.8 46.5006 173.8 46.2006C173.8 45.9006 174.1 45.6006 174.4 45.6006H190C190.3 45.6006 190.6 45.9006 190.6 46.2006Z" fill="white"/>
<path d="M238.5 70.3005C238.1 72.5005 236.6 74.4005 234.4 75.3005C234.4 75.3005 234.4 75.3005 234.3 75.3005C233.3 77.5005 231.5 79.4005 229.1 80.4005C226.8 81.3005 224.3 81.3005 222.1 80.5005C220.8 80.0005 219.7 79.3005 218.7 78.3005C217.8 77.4005 217.1 76.3005 216.6 75.1005C214.6 70.2005 217 64.6005 221.8 62.6005C221.9 62.6005 222 62.5005 222.1 62.5005C224.4 61.7005 226.9 61.8005 229 62.7005C229 62.7005 229 62.7005 229.1 62.7005C230.2 62.3005 231.3 62.1005 232.4 62.2005C233.5 62.3005 234.6 62.7005 235.5 63.4005C237.2 63.1005 239 64.0005 239.7 65.7005C240.5 67.4005 239.9 69.3005 238.5 70.3005Z" fill="#82C11F"/>
<path d="M222.2 62.6006V79.9006C222.2 80.1006 222.2 80.3006 222.1 80.6006C220.8 80.1006 219.7 79.4006 218.7 78.4006C217.8 77.5006 217.1 76.4006 216.6 75.2006C214.6 70.3006 217 64.7006 221.8 62.7006C222 62.7006 222.1 62.7006 222.2 62.6006Z" fill="#679B04"/>
<path d="M227.3 75.2003C225.8 76.7003 223.9 77.8003 221.8 78.2003C220.8 78.4003 219.8 78.5003 218.8 78.4003C217.9 77.5003 217.2 76.4003 216.7 75.2003C214.7 70.3003 217.101 64.7003 221.901 62.7003C224.301 61.7003 226.9 61.8003 229.2 62.7003C229.2 62.7003 229.2 62.7003 229.3 62.7003C230.4 62.3003 231.5 62.1003 232.6 62.2003C232.7 64.3003 232 66.4003 230.6 68.0003C230.3 70.8003 229.2 73.3003 227.3 75.2003Z" fill="#679B04"/>
<path d="M217.9 75.3999C217.5 75.3999 217.2 75.1999 217 74.7999C216.8 74.2999 217 73.7999 217.5 73.5999L231.4 67.8999C231.9 67.6999 232.4 67.8999 232.6 68.3999C232.8 68.8999 232.6 69.3999 232.1 69.5999L218.2 75.2999C218.1 75.3999 218 75.3999 217.9 75.3999Z" fill="#679B04"/>
<path d="M231 61.2004C231.5 63.4004 230.8 65.7004 229.2 67.4004C229.2 67.4004 229.2 67.4004 229.1 67.5004C229.1 69.9004 228.2 72.4004 226.3 74.2004C225.1 75.4004 223.7 76.2004 222.2 76.6004C222 76.7004 221.7 76.7004 221.5 76.8004C218.5 77.4004 215.2 76.6004 212.8 74.2004C210.9 72.3004 209.9 69.7004 210 67.2004C210 65.2004 210.7 63.3004 211.9 61.6004C212.2 61.3004 212.4 60.9004 212.7 60.6004C214.5 58.7004 217 57.8004 219.4 57.8004C219.4 57.8004 219.4 57.8004 219.5 57.7004C220.3 56.9004 221.2 56.3004 222.2 56.0004C222.4 55.9004 222.6 55.9004 222.7 55.8004C223.7 55.6004 224.6 55.6004 225.6 55.8004C227.1 54.8004 229.101 55.0004 230.4 56.3004C231.8 57.8004 231.9 59.8004 231 61.2004Z" fill="#BADB47"/>
<path d="M222.2 56.2002V76.7002C222 76.8002 221.7 76.8002 221.5 76.9002C218.5 77.5002 215.2 76.7002 212.8 74.3002C210.9 72.4002 209.9 69.8002 210 67.3002C210 65.3002 210.7 63.4002 211.9 61.7002C212.2 61.4002 212.4 61.0002 212.7 60.7002C214.5 58.8002 217 57.9002 219.4 57.9002C219.4 57.9002 219.4 57.9002 219.5 57.8002C220.3 57.1002 221.2 56.5002 222.2 56.2002Z" fill="#82C11F"/>
<path d="M213.601 74.0004C213.401 74.0004 213.101 73.9004 212.901 73.7004C212.501 73.3004 212.501 72.7004 212.901 72.4004L223.501 61.7004C223.901 61.3004 224.501 61.3004 224.801 61.7004C225.201 62.1004 225.201 62.7004 224.801 63.0004L214.201 73.7004C214.101 74.0004 213.901 74.0004 213.601 74.0004Z" fill="#82C11F"/>
<path d="M220.8 48.3V79.9C220.8 80.6 220.2 81.2 219.5 81.2H196.2C195.5 81.2 194.9 80.6 194.9 79.9V48.3C194.9 44.2 196 40.2 198.1 36.7L198.2 36.5C198.9 35.4 199.4 34.2 199.9 33C200.2 32.3 200.4 31.7 200.6 31C201.1 29.1 201.4 27 201.4 25H214.2C214.2 27.8 214.7 30.5 215.7 33C216.2 34.2 216.7 35.4 217.4 36.5L217.5 36.7C219.7 40.2 220.8 44.2 220.8 48.3Z" fill="#E3F4FF"/>
<path d="M220.8 48.3V79.9C220.8 80.6 220.2 81.2 219.5 81.2H196.2C195.5 81.2 194.9 80.6 194.9 79.9V48.3C194.9 44.2 196 40.2 198.1 36.7L198.2 36.5C198.9 35.4 199.4 34.2 199.9 33H215.7C216.2 34.2 216.7 35.4 217.4 36.5L217.5 36.7C219.7 40.2 220.8 44.2 220.8 48.3Z" fill="#F9F6F9"/>
<path d="M220.8 48.3V79.9C220.8 80.6 220.2 81.2 219.5 81.2H200.7C218.9 67.8 215.2 41.3 213.5 33H215.8C216.3 34.2 216.8 35.4 217.5 36.5L217.6 36.7C219.7 40.2 220.8 44.2 220.8 48.3Z" fill="#DFEAEF"/>
<path d="M215.9 26.5002H199.9C199.2 26.5002 198.6 25.9002 198.6 25.2002V22.0002C198.6 21.0002 199.4 20.2002 200.4 20.2002H215.4C216.4 20.2002 217.2 21.0002 217.2 22.0002V25.2002C217.2 25.9002 216.6 26.5002 215.9 26.5002Z" fill="#64BDFF"/>
<path d="M210.8 39.0006C210.3 39.0006 209.9 38.6006 209.8 38.1006C209.8 37.6006 210.2 37.1006 210.7 37.1006C211.2 37.1006 211.6 37.5006 211.6 38.0006C211.8 38.6006 211.3 39.0006 210.8 39.0006Z" fill="#DFEAEF"/>
<path d="M166.7 84.0004C171.7 84.0004 178.2 83.0004 181.3 80.0004C181.5 79.8004 181.6 79.5004 181.5 79.2004L175.4 63.6004C175.3 63.2004 174.9 63.1004 174.5 63.2004C172.5 63.7004 172.1 61.1004 173.4 60.5004C173.7 60.3004 173.9 59.9004 173.8 59.6004L172.6 56.4004C172.5 56.1004 172.2 55.9004 171.9 55.9004H166.7V84.0004Z" fill="#EED60F"/>
<path d="M166.7 84.0004C163.2 84.0004 159.8 82.7004 157.3 80.2004C157.1 80.0004 157 79.7004 157.1 79.4004L158 77.1004C158.1 76.8004 158.4 76.6004 158.6 76.6004C159.7 76.5004 160.4 75.0004 159.6 74.1004C159.4 73.9004 159.3 73.6004 159.4 73.3004L161.8 67.1004C162 66.7004 162.4 66.5004 162.8 66.7004C162.8 66.7004 162.9 66.7004 162.9 66.8004C164.7 68.0004 166 64.4004 163.9 64.1004C163.5 64.0004 163.2 63.6004 163.3 63.2004V63.1004L165.9 56.4004C166 56.1004 166.3 55.9004 166.6 55.9004C166.9 55.9004 167.2 56.1004 167.3 56.4004L176.2 79.5004C176.3 79.8004 176.2 80.1004 176 80.3004C173.6 82.6004 170.2 84.0004 166.7 84.0004Z" fill="#F8E868"/>
<path d="M169.6 78.8004C170.815 78.8004 171.8 77.8154 171.8 76.6004C171.8 75.3854 170.815 74.4004 169.6 74.4004C168.385 74.4004 167.4 75.3854 167.4 76.6004C167.4 77.8154 168.385 78.8004 169.6 78.8004Z" fill="#F8E868"/>
<path d="M167.4 73.6002C168.615 73.6002 169.6 72.6152 169.6 71.4002C169.6 70.1852 168.615 69.2002 167.4 69.2002C166.185 69.2002 165.2 70.1852 165.2 71.4002C165.2 72.6152 166.185 73.6002 167.4 73.6002Z" fill="#F6E23D"/>
<path d="M168.9 78.1003C168.9 76.9003 169.9 75.9003 171.1 75.9003C171.3 75.9003 171.5 75.9003 171.7 76.0003C171.3 74.8003 170.1 74.2003 168.9 74.5003C167.7 74.9003 167.1 76.1003 167.4 77.3003C167.6 78.0003 168.2 78.6003 168.9 78.8003C168.9 78.5003 168.9 78.3003 168.9 78.1003Z" fill="#EED60F"/>
<path d="M166.7 72.9001C166.7 71.7001 167.7 70.7001 168.9 70.7001C169.1 70.7001 169.3 70.7001 169.5 70.8001C169.1 69.6001 167.9 69.0001 166.7 69.3001C165.5 69.7001 164.9 70.9001 165.2 72.1001C165.4 72.8001 166 73.4001 166.7 73.6001C166.7 73.3001 166.7 73.1001 166.7 72.9001Z" fill="#EED60F"/>
<path d="M163 79.4997C163 78.2997 164 77.2997 165.2 77.2997C165.4 77.2997 165.6 77.2997 165.8 77.3997C165.4 76.1997 164.2 75.5997 163 75.8997C161.8 76.1997 161.2 77.4997 161.5 78.6997C161.7 79.3997 162.3 79.9997 163 80.1997C163 79.9997 163 79.6997 163 79.4997Z" fill="#EED60F"/>
<path d="M166.7 64C167.529 64 168.2 63.3284 168.2 62.5C168.2 61.6716 167.529 61 166.7 61C165.872 61 165.2 61.6716 165.2 62.5C165.2 63.3284 165.872 64 166.7 64Z" fill="#FCF5BE"/>
<path d="M168.2 66.2008C168.587 66.2008 168.9 65.8874 168.9 65.5008C168.9 65.1142 168.587 64.8008 168.2 64.8008C167.814 64.8008 167.5 65.1142 167.5 65.5008C167.5 65.8874 167.814 66.2008 168.2 66.2008Z" fill="#FCF5BE"/>
<path d="M203.9 63.7998L203.8 64.7998L203.6 66.4998L202.1 80.9998C202 82.1998 200.9 83.1998 199.7 83.1998H191.1C189.9 83.1998 188.8 82.2998 188.7 80.9998L187.2 66.4998L187 64.7998L186.9 63.7998H203.9Z" fill="#F9F6F9"/>
<path d="M203.9 63.7998L203.8 64.7998L203.6 66.4998H187.1L186.9 64.7998L186.8 63.7998H203.9Z" fill="#E4F6FF"/>
<path d="M195.8 62.2002L203.8 63.8002L203.7 64.8002H186.9L186.8 63.8002L195.8 62.2002Z" fill="#D3EFFB"/>
<path d="M185.6 62.7998V59.2998C185.6 58.6998 186.1 58.2998 186.6 58.2998H203.9C204.5 58.2998 204.9 58.7998 204.9 59.2998V62.7998C204.9 63.3998 204.4 63.7998 203.9 63.7998H186.6C186.1 63.7998 185.6 63.2998 185.6 62.7998Z" fill="#E4F6FF"/>
<path d="M198.5 62.7998V59.2998C198.5 58.6998 198 58.2998 197.5 58.2998H204C204.6 58.2998 205 58.7998 205 59.2998V62.7998C205 63.3998 204.5 63.7998 204 63.7998H197.5C198.1 63.7998 198.5 63.2998 198.5 62.7998Z" fill="#D3EFFB"/>
<path d="M197.4 83.1998C198 83.1998 198.5 82.2998 198.6 80.9998L199.4 66.4998L199.5 63.7998H203.8L203.7 64.7998L203.5 66.4998L202 80.9998C201.9 82.1998 200.8 83.1998 199.6 83.1998H197.4Z" fill="#DFEAEF"/>
<path d="M199.5 63.7998H203.8L203.7 64.7998L203.5 66.4998H199.3L199.5 63.7998Z" fill="#D3EFFB"/>
<path d="M196 102.1V103.3H191.8V106.7H190.3V103.3H186.1V102.1H196ZM194.6 96.5V101H187.4V96.5H194.6ZM188.9 99.8H193.2V97.7H188.9V99.8Z" fill="#002A35"/>
<path d="M196.9 103.3C197.5 103 198 102.6 198.4 102.4C198.8 102.1 199.1 101.9 199.4 101.7C199.7 101.5 199.9 101.3 200 101.1C200.2 100.9 200.3 100.7 200.4 100.5C200.5 100.3 200.5 100.1 200.6 99.8004C200.6 99.6004 200.6 99.3004 200.6 99.0004V98.2004H197.1V96.9004H202.1V99.0004C202.1 99.4004 202.1 99.7004 202 100.1C201.9 100.5 201.9 100.7 201.8 101C201.7 101.3 201.5 101.5 201.3 101.8C201.1 102.1 200.8 102.3 200.5 102.6C200.2 102.9 199.8 103.2 199.3 103.5C198.8 103.8 198.3 104.2 197.6 104.6L196.9 103.3ZM205.5 106.7H204V95.9004H205.5V106.7Z" fill="#002A35"/>
<path d="M207.4 96.3004H213V97.5004H211V97.9004C211 98.0004 211 98.2004 211 98.3004C211 98.4004 211.1 98.5004 211.1 98.6004C211.2 98.7004 211.2 98.8004 211.3 98.9004C211.4 99.0004 211.5 99.1004 211.7 99.2004C211.9 99.4004 212.2 99.5004 212.4 99.7004C212.7 99.9004 212.9 100 213.2 100.2L212.5 101.2C212.3 101 212 100.9 211.8 100.7C211.6 100.5 211.3 100.4 211.1 100.2C210.6 99.9004 210.3 99.7004 210.3 99.5004C210.2 99.6004 210 99.9004 209.4 100.3C209.2 100.5 208.9 100.7 208.6 100.9C208.3 101.1 208 101.3 207.7 101.5L206.9 100.4C207.3 100.2 207.6 99.9004 208 99.7004C208.3 99.5004 208.6 99.2004 208.9 99.0004C209.1 98.8004 209.3 98.6004 209.4 98.5004C209.5 98.3004 209.5 98.1004 209.5 97.8004V97.4004H207.4V96.3004ZM215.6 101.7V104.8H210.3V105.6H216V106.8H208.9V103.7H214.2V102.9H208.8V101.7H215.6ZM215.6 101.2H214.2V95.9004H215.7V101.2H215.6Z" fill="#002A35"/>
<path d="M190.2 47.9004H174.1V53.8004H190.2V47.9004Z" fill="#E1F8FF"/>
<path d="M88.3999 143.3V269.5C88.3999 272 90.3999 274.1 92.9999 274.1H167.5C170 274.1 172.1 272.1 172.1 269.5V143.3H88.3999Z" fill="#539FC9"/>
<path d="M88.3999 143.3V269.5C88.3999 272 90.3999 274.1 92.9999 274.1H167.5C170 274.1 172.1 272.1 172.1 269.5V143.3H88.3999Z" fill="#207EA8"/>
<path d="M172 178.1H88.3999V239.3H172V178.1Z" fill="#F2F8F9"/>
<path d="M179.1 128.3H81.3999V143.7H179.1V128.3Z" fill="#539FC9"/>
<path opacity="0.2" d="M179 128.3H147.4V143.7H179V128.3Z" fill="#539FC9"/>
<path opacity="0.5" d="M102.4 128.3H85.6997V143.7H102.4V128.3Z" fill="#539FC9"/>
<path d="M172 124.8C172 124 171.3 123.3 170.5 123.3V102.1C170.5 100.9 169.5 100 168.4 100H91.9999C90.7999 100 89.8999 101 89.8999 102.1V123.3C89.0999 123.3 88.3999 124 88.3999 124.8V128.2H172V124.8Z" fill="#EDF4F5"/>
<path d="M94.9001 122.5C94.9001 123 94.5001 123.4 94.0001 123.4C93.5001 123.4 93.1001 123 93.1001 122.5V103.6C93.1001 103.1 93.5001 102.7 94.0001 102.7C94.5001 102.7 94.9001 103.1 94.9001 103.6V122.5Z" fill="#DAE6E9"/>
<path d="M100.9 122.5C100.9 123 100.5 123.4 100 123.4C99.5001 123.4 99.1001 123 99.1001 122.5V103.6C99.1001 103.1 99.5001 102.7 100 102.7C100.5 102.7 100.9 103.1 100.9 103.6V122.5Z" fill="#DAE6E9"/>
<path d="M107 122.5C107 123 106.6 123.4 106.1 123.4C105.6 123.4 105.2 123 105.2 122.5V103.6C105.2 103.1 105.6 102.7 106.1 102.7C106.6 102.7 107 103.1 107 103.6V122.5Z" fill="#DAE6E9"/>
<path d="M113 122.5C113 123 112.6 123.4 112.1 123.4C111.6 123.4 111.2 123 111.2 122.5V103.6C111.2 103.1 111.6 102.7 112.1 102.7C112.6 102.7 113 103.1 113 103.6V122.5Z" fill="#DAE6E9"/>
<path d="M119 122.5C119 123 118.6 123.4 118.1 123.4C117.6 123.4 117.2 123 117.2 122.5V103.6C117.2 103.1 117.6 102.7 118.1 102.7C118.6 102.7 119 103.1 119 103.6V122.5Z" fill="#DAE6E9"/>
<path d="M125.1 122.5C125.1 123 124.7 123.4 124.2 123.4C123.7 123.4 123.3 123 123.3 122.5V103.6C123.3 103.1 123.7 102.7 124.2 102.7C124.7 102.7 125.1 103.1 125.1 103.6V122.5Z" fill="#DAE6E9"/>
<path d="M131.1 122.5C131.1 123 130.7 123.4 130.2 123.4C129.7 123.4 129.3 123 129.3 122.5V103.6C129.3 103.1 129.7 102.7 130.2 102.7C130.7 102.7 131.1 103.1 131.1 103.6V122.5Z" fill="#DAE6E9"/>
<path d="M137.2 122.5C137.2 123 136.8 123.4 136.3 123.4C135.8 123.4 135.4 123 135.4 122.5V103.6C135.4 103.1 135.8 102.7 136.3 102.7C136.8 102.7 137.2 103.1 137.2 103.6V122.5Z" fill="#DAE6E9"/>
<path d="M143.2 122.5C143.2 123 142.8 123.4 142.3 123.4C141.8 123.4 141.4 123 141.4 122.5V103.6C141.4 103.1 141.8 102.7 142.3 102.7C142.8 102.7 143.2 103.1 143.2 103.6V122.5Z" fill="#DAE6E9"/>
<path d="M149.2 122.5C149.2 123 148.8 123.4 148.3 123.4C147.8 123.4 147.4 123 147.4 122.5V103.6C147.4 103.1 147.8 102.7 148.3 102.7C148.8 102.7 149.2 103.1 149.2 103.6V122.5Z" fill="#DAE6E9"/>
<path d="M155.3 122.5C155.3 123 154.9 123.4 154.4 123.4C153.9 123.4 153.5 123 153.5 122.5V103.6C153.5 103.1 153.9 102.7 154.4 102.7C154.9 102.7 155.3 103.1 155.3 103.6V122.5Z" fill="#DAE6E9"/>
<path d="M161.3 122.5C161.3 123 160.9 123.4 160.4 123.4C159.9 123.4 159.5 123 159.5 122.5V103.6C159.5 103.1 159.9 102.7 160.4 102.7C160.9 102.7 161.3 103.1 161.3 103.6V122.5Z" fill="#DAE6E9"/>
<path d="M167.3 122.5C167.3 123 166.9 123.4 166.4 123.4C165.9 123.4 165.5 123 165.5 122.5V103.6C165.5 103.1 165.9 102.7 166.4 102.7C166.9 102.7 167.3 103.1 167.3 103.6V122.5Z" fill="#DAE6E9"/>
<path d="M159.3 222.1H101.1V224.5H159.3V222.1Z" fill="#DAE6E9"/>
<path d="M159.3 229.399H101.1V231.799H159.3V229.399Z" fill="#DAE6E9"/>
<path d="M130.2 209.1C145.443 209.1 157.8 196.743 157.8 181.5C157.8 166.257 145.443 153.9 130.2 153.9C114.957 153.9 102.6 166.257 102.6 181.5C102.6 196.743 114.957 209.1 130.2 209.1Z" fill="white"/>
<path d="M128.8 173.601V171.101H127.2C127.1 171.401 127 171.601 126.8 171.801C126.6 172.001 126.4 172.201 126.2 172.301C126 172.401 125.7 172.601 125.4 172.701C125.1 172.801 124.9 172.901 124.6 173.001L124.2 172.501C124.5 172.401 124.8 172.301 125.1 172.201C125.4 172.101 125.6 172.001 125.9 171.801C126.1 171.701 126.3 171.501 126.4 171.301C126.5 171.101 126.6 170.901 126.6 170.601V170.201C126.6 170.001 126.6 169.901 126.5 169.801C126.5 169.701 126.3 169.701 126.2 169.701H124.5V169.001H126.3C126.5 169.001 126.6 169.001 126.8 169.001C126.9 169.001 127 169.101 127.1 169.201C127.2 169.301 127.2 169.401 127.3 169.501C127.3 169.601 127.4 169.801 127.4 170.001V170.501H128.9V168.801H129.6V173.201C129.6 173.401 129.6 173.501 129.5 173.501C129.5 173.601 129.4 173.601 129.2 173.601H128.8ZM126 175.401C125.8 175.401 125.7 175.301 125.6 175.201C125.5 175.101 125.5 175.001 125.5 174.801V173.101H126.2V174.601C126.2 174.701 126.2 174.701 126.3 174.701H129.7V175.101C129.7 175.201 129.7 175.301 129.6 175.301C129.6 175.301 129.5 175.401 129.4 175.401H126Z" fill="#25BCBD"/>
<path d="M129.4 175.501H126C125.8 175.501 125.7 175.401 125.5 175.301C125.4 175.201 125.3 175.001 125.3 174.901V173.101H126.2V174.601C126.2 174.701 126.2 174.701 126.2 174.701H129.7V175.101C129.7 175.201 129.7 175.301 129.6 175.401C129.6 175.501 129.5 175.501 129.4 175.501ZM125.5 173.301V174.901C125.5 175.001 125.5 175.201 125.6 175.301C125.7 175.401 125.8 175.401 126 175.401H129.4C129.5 175.401 129.5 175.401 129.6 175.301C129.6 175.301 129.7 175.201 129.7 175.101V174.801H126.4C126.4 174.801 126.3 174.801 126.3 174.601V173.201H125.5V173.301ZM129.2 173.701H128.7V171.201H127.2C127.1 171.401 127 171.701 126.8 171.801C126.6 172.001 126.4 172.201 126.2 172.301C126 172.401 125.7 172.601 125.4 172.701C125.1 172.801 124.9 172.901 124.6 173.001L124.1 172.401H124.2C124.5 172.301 124.8 172.201 125.1 172.101C125.4 172.001 125.6 171.901 125.8 171.701C126 171.601 126.2 171.401 126.3 171.201C126.4 171.001 126.5 170.801 126.5 170.501V170.101C126.5 169.901 126.5 169.801 126.4 169.801C126.4 169.701 126.3 169.701 126.1 169.701H124.4V168.901H126.3C126.5 168.901 126.6 168.901 126.8 168.901C126.9 168.901 127.1 169.001 127.1 169.101C127.2 169.201 127.3 169.301 127.3 169.401C127.3 169.501 127.4 169.701 127.4 169.901V170.301H128.8V168.601H129.7V173.101C129.7 173.301 129.7 173.401 129.6 173.501C129.4 173.601 129.3 173.701 129.2 173.701ZM128.8 173.501H129.1C129.2 173.501 129.3 173.501 129.3 173.401C129.3 173.401 129.3 173.301 129.3 173.101V168.701H128.7V170.401H127.2V169.901C127.2 169.701 127.2 169.601 127.1 169.401C127.1 169.301 127 169.201 126.9 169.101C126.8 169.001 126.7 169.001 126.6 169.001C126.5 169.001 126.3 169.001 126.2 169.001H124.4V169.501H126C126.2 169.501 126.3 169.501 126.4 169.601C126.5 169.701 126.5 169.801 126.5 170.001V170.401C126.5 170.701 126.4 170.901 126.3 171.101C126.2 171.301 126 171.501 125.8 171.601C125.6 171.701 125.3 171.901 125 172.001C124.7 172.101 124.5 172.201 124.2 172.301L124.5 172.701C124.8 172.601 125 172.601 125.3 172.501C125.6 172.401 125.8 172.301 126 172.101C126.2 172.001 126.4 171.801 126.6 171.601C126.8 171.401 126.9 171.201 127 171.001H128.7V173.501H128.8Z" fill="#25BCBD"/>
<path d="M133.101 170.3C133.101 170.6 133.001 170.9 132.901 171.2C132.801 171.5 132.601 171.7 132.301 171.9C132.101 172.1 131.801 172.2 131.501 172.4C131.201 172.5 130.801 172.6 130.501 172.7L130.101 172.2C130.401 172.1 130.701 172 131.001 171.9C131.301 171.8 131.501 171.7 131.701 171.5C131.901 171.4 132.101 171.2 132.201 171C132.301 170.8 132.401 170.6 132.401 170.3V170C132.401 169.8 132.401 169.7 132.301 169.6C132.301 169.5 132.101 169.5 132.001 169.5H130.301V169H132.101C132.301 169 132.401 169 132.601 169C132.701 169 132.801 169.1 132.901 169.2C133.001 169.3 133.001 169.4 133.101 169.5C133.101 169.6 133.201 169.8 133.201 170V170.3H133.101ZM131.101 174.2C131.101 173.9 131.201 173.7 131.301 173.5C131.401 173.3 131.601 173.2 131.801 173.1C132.001 173 132.201 172.9 132.501 172.9C132.701 172.9 133.001 172.8 133.201 172.8C133.401 172.8 133.601 172.8 133.901 172.9C134.101 172.9 134.401 173 134.601 173.1C134.801 173.2 135.001 173.4 135.101 173.5C135.201 173.7 135.301 173.9 135.301 174.2C135.301 174.5 135.201 174.7 135.101 174.9C135.001 175.1 134.801 175.2 134.601 175.3C134.401 175.4 134.201 175.5 133.901 175.5C133.701 175.5 133.401 175.6 133.201 175.6C133.001 175.6 132.801 175.6 132.501 175.5C132.301 175.5 132.001 175.4 131.801 175.3C131.601 175.2 131.401 175.1 131.301 174.9C131.201 174.7 131.101 174.5 131.101 174.2ZM131.801 174.2C131.801 174.4 131.801 174.5 131.901 174.6C132.001 174.7 132.101 174.8 132.301 174.8C132.401 174.9 132.601 174.9 132.701 174.9C132.901 174.9 133.001 174.9 133.101 174.9C133.201 174.9 133.401 174.9 133.501 174.9C133.701 174.9 133.801 174.8 133.901 174.8C134.001 174.7 134.101 174.7 134.201 174.6C134.301 174.5 134.301 174.4 134.301 174.2C134.301 174 134.301 173.9 134.201 173.8C134.101 173.7 134.001 173.6 133.901 173.6C133.801 173.5 133.601 173.5 133.501 173.5C133.301 173.5 133.201 173.5 133.101 173.5C133.001 173.5 132.801 173.5 132.701 173.5C132.501 173.5 132.401 173.6 132.301 173.6C132.201 173.7 132.001 173.7 131.901 173.8C131.901 173.9 131.801 174 131.801 174.2ZM134.401 172.6V168.7H135.101V170.1H136.001V170.7H135.201V172.1C135.201 172.2 135.201 172.3 135.101 172.4C135.101 172.5 135.001 172.5 134.801 172.5H134.401V172.6Z" fill="#25BCBD"/>
<path d="M133.2 175.6C133 175.6 132.7 175.6 132.5 175.5C132.2 175.5 132 175.4 131.8 175.3C131.6 175.2 131.4 175 131.3 174.9C131.2 174.7 131.1 174.5 131.1 174.1C131.1 173.8 131.2 173.5 131.3 173.3C131.4 173.1 131.6 173 131.9 172.8C132.1 172.7 132.4 172.6 132.6 172.6C132.8 172.6 133.1 172.5 133.3 172.5C133.5 172.5 133.7 172.5 134 172.6C134.2 172.6 134.5 172.7 134.7 172.8C134.9 172.9 135.1 173.1 135.2 173.3C135.3 173.5 135.4 173.7 135.4 174.1C135.4 174.4 135.3 174.7 135.2 174.9C135.1 175.1 134.9 175.2 134.7 175.3C134.5 175.4 134.3 175.5 134 175.5C133.6 175.6 133.4 175.6 133.2 175.6ZM133.2 172.8C133 172.8 132.8 172.8 132.5 172.9C132.3 172.9 132 173 131.8 173.1C131.6 173.2 131.4 173.3 131.3 173.5C131.2 173.7 131.1 173.9 131.1 174.2C131.1 174.5 131.2 174.7 131.3 174.9C131.4 175.1 131.6 175.2 131.8 175.3C132 175.4 132.2 175.5 132.5 175.5C132.7 175.5 133 175.6 133.2 175.6C133.4 175.6 133.6 175.6 133.9 175.5C134.1 175.5 134.4 175.4 134.5 175.3C134.7 175.2 134.9 175.1 135 174.9C135.1 174.7 135.2 174.5 135.2 174.2C135.2 173.9 135.1 173.7 135 173.5C134.9 173.3 134.7 173.2 134.5 173.1C134.3 173 134.1 172.9 133.9 172.9C133.6 172.8 133.4 172.8 133.2 172.8ZM133.2 175C133.1 175 132.9 175 132.8 175C132.6 175 132.5 174.9 132.3 174.9C132.2 174.8 132 174.8 131.9 174.6C131.8 174.5 131.7 174.3 131.7 174.1C131.7 173.9 131.8 173.8 131.9 173.6C132 173.5 132.1 173.4 132.3 173.3C132.4 173.2 132.6 173.2 132.8 173.2C133 173.2 133.1 173.2 133.2 173.2C133.3 173.2 133.5 173.2 133.6 173.2C133.8 173.2 133.9 173.3 134.1 173.3C134.2 173.4 134.4 173.5 134.5 173.6C134.6 173.7 134.7 173.9 134.7 174.1C134.7 174.3 134.6 174.4 134.5 174.6C134.4 174.7 134.3 174.8 134.1 174.9C134 175 133.8 175 133.6 175C133.5 175 133.3 175 133.2 175ZM133.2 173.4C133.1 173.4 132.9 173.4 132.8 173.4C132.6 173.4 132.5 173.5 132.4 173.5C132.3 173.6 132.2 173.6 132.1 173.7C132 173.8 132 173.9 132 174.1C132 174.3 132 174.4 132.1 174.5C132.2 174.6 132.3 174.7 132.4 174.7C132.5 174.8 132.7 174.8 132.8 174.8C133 174.8 133.1 174.8 133.2 174.8C133.3 174.8 133.5 174.8 133.6 174.8C133.7 174.8 133.9 174.7 134 174.7C134.1 174.7 134.2 174.6 134.3 174.5C134.4 174.4 134.4 174.3 134.4 174.1C134.4 173.9 134.4 173.8 134.3 173.7C134.2 173.6 134.1 173.5 134 173.5C133.9 173.4 133.7 173.4 133.6 173.4C133.4 173.4 133.3 173.4 133.2 173.4ZM130.4 172.7L129.9 172.1H130C130.3 172 130.6 171.9 130.8 171.8C131.1 171.7 131.3 171.6 131.5 171.4C131.7 171.3 131.9 171.1 132 170.9C132.1 170.7 132.2 170.5 132.2 170.2V169.9C132.2 169.7 132.2 169.6 132.1 169.6C132.1 169.5 132 169.5 131.8 169.5H130.2V168.7H132.1C132.3 168.7 132.4 168.7 132.6 168.7C132.7 168.7 132.9 168.8 132.9 168.9C133 169 133.1 169.1 133.1 169.2C133.1 169.3 133.2 169.5 133.2 169.7V170.1C133.2 170.5 133.1 170.8 133 171C132.9 171.3 132.7 171.5 132.4 171.7C132.2 171.9 131.9 172 131.5 172.2C131.2 172.5 130.8 172.6 130.4 172.7ZM130.2 172.2L130.5 172.6C130.8 172.5 131.2 172.4 131.5 172.3C131.8 172.2 132.1 172 132.3 171.8C132.5 171.6 132.7 171.4 132.9 171.2C133 171 133.1 170.7 133.1 170.3V169.9C133.1 169.7 133.1 169.6 133 169.4C133 169.3 132.9 169.2 132.8 169.1C132.7 169 132.6 169 132.5 169C132.4 169 132.2 169 132.1 169H130.3V169.5H131.9C132.1 169.5 132.2 169.5 132.3 169.6C132.4 169.7 132.4 169.8 132.4 170V170.3C132.4 170.6 132.3 170.8 132.2 171C132.1 171.2 131.9 171.4 131.7 171.5C131.5 171.6 131.2 171.8 130.9 171.9C130.7 172 130.4 172.1 130.2 172.2ZM134.9 172.7H134.4V168.7H135.3V170.1H136.2V170.9H135.3V172.2C135.3 172.4 135.3 172.5 135.2 172.5C135.1 172.6 135 172.7 134.9 172.7ZM134.5 172.5H134.8C134.9 172.5 135 172.5 135 172.4C135 172.4 135.1 172.3 135.1 172.1V170.6H136V170.1H135.1V168.7H134.5V172.5Z" fill="#25BCBD"/>
<path d="M118.3 181.9C118.4 181.9 118.6 181.8 118.7 181.8C118.9 181.7 119 181.7 119.2 181.6C119.3 181.5 119.5 181.5 119.6 181.4C119.7 181.3 119.9 181.2 120 181.1C120.1 181 120.2 180.9 120.3 180.8C120.4 180.7 120.5 180.6 120.5 180.5C120.6 180.4 120.6 180.3 120.7 180.2C120.7 180.1 120.8 180 120.8 179.8V178.6C120.8 178.4 120.8 178.3 120.7 178.2C120.6 178.1 120.5 178.1 120.3 178.1H118.6V177.5H120.5C120.7 177.5 120.9 177.5 121 177.6C121.1 177.6 121.3 177.7 121.3 177.8C121.4 177.9 121.5 178 121.5 178.1C121.5 178.2 121.6 178.4 121.6 178.6V179.8C121.6 180.1 121.5 180.4 121.4 180.7C121.3 181 121.1 181.2 120.8 181.4C120.6 181.6 120.3 181.8 120 182C119.7 182.2 119.3 182.3 118.9 182.4L118.3 181.9ZM122.9 183.9V177.2H123.6V183.5C123.6 183.7 123.6 183.8 123.5 183.8C123.4 183.9 123.4 183.9 123.2 183.9H122.9Z" fill="#25BCBD"/>
<path d="M123.3 184H122.8V177.2H123.7V183.5C123.7 183.7 123.7 183.8 123.6 183.9C123.6 183.9 123.5 184 123.3 184ZM123 183.8H123.3C123.4 183.8 123.5 183.8 123.5 183.7C123.5 183.7 123.6 183.6 123.6 183.4V177.2H123V183.8ZM118.7 182.5L118.2 181.9H118.3C118.4 181.9 118.6 181.8 118.7 181.8C118.9 181.7 119 181.7 119.1 181.6C119.2 181.5 119.4 181.5 119.5 181.4C119.6 181.3 119.7 181.2 119.8 181.2C119.9 181.1 120 181 120.1 180.9C120.2 180.8 120.3 180.7 120.3 180.6C120.4 180.5 120.4 180.4 120.5 180.3C120.5 180.2 120.6 180.1 120.6 179.9V178.7C120.6 178.5 120.6 178.4 120.5 178.4C120.5 178.4 120.4 178.3 120.1 178.3H118.3V177.5H120.2C120.4 177.5 120.6 177.5 120.7 177.6C120.9 177.6 121 177.7 121.1 177.8C121.2 177.9 121.3 178 121.3 178.2C121.3 178.3 121.4 178.5 121.4 178.7V179.9C121.4 180.2 121.3 180.5 121.2 180.8C121.1 181.1 120.9 181.3 120.6 181.6C120.4 181.8 120.1 182 119.8 182.2C119.6 182.3 119.2 182.4 118.7 182.5ZM118.5 181.9L118.8 182.3C119.2 182.2 119.6 182.1 119.9 181.9C120.2 181.7 120.5 181.5 120.7 181.3C120.9 181.1 121.1 180.8 121.3 180.6C121.4 180.3 121.5 180 121.5 179.7V178.5C121.5 178.3 121.5 178.2 121.4 178C121.4 177.9 121.3 177.8 121.2 177.7C121.1 177.6 121 177.6 120.9 177.5C120.8 177.5 120.6 177.4 120.4 177.4H118.6V177.9H120.3C120.5 177.9 120.7 177.9 120.8 178C120.9 178.1 120.9 178.2 120.9 178.4V179.6C120.9 179.7 120.9 179.9 120.8 180C120.8 180.1 120.7 180.2 120.6 180.4C120.5 180.5 120.4 180.6 120.4 180.7C120.3 180.8 120.2 180.9 120.1 181C120 181.1 119.9 181.2 119.7 181.3C119.6 181.4 119.4 181.5 119.3 181.5C119.2 181.6 119 181.6 118.8 181.7C118.7 181.9 118.6 181.9 118.5 181.9Z" fill="#25BCBD"/>
<path d="M124 180.201H130.1V180.501C130.1 180.701 130 180.801 129.8 180.801H124V180.201ZM124.8 182.701C124.8 182.501 124.9 182.301 125 182.101C125.1 181.901 125.3 181.801 125.5 181.701C125.7 181.601 125.9 181.501 126.2 181.401C126.5 181.301 126.8 181.301 127.1 181.301C127.4 181.301 127.7 181.301 128 181.401C128.3 181.501 128.5 181.501 128.7 181.701C128.9 181.801 129.1 182.001 129.2 182.101C129.3 182.301 129.4 182.501 129.4 182.701C129.4 182.901 129.3 183.101 129.2 183.301C129.1 183.501 128.9 183.601 128.7 183.701C128.5 183.801 128.3 183.901 128 184.001C127.7 184.101 127.4 184.101 127.1 184.101C126.8 184.101 126.5 184.101 126.2 184.001C125.9 183.901 125.7 183.901 125.5 183.801C125.3 183.701 125.1 183.601 125 183.401C124.9 183.101 124.8 182.901 124.8 182.701ZM125.5 179.701C125.3 179.701 125.1 179.701 125 179.601C124.9 179.501 124.8 179.301 124.8 179.101V177.201H125.1C125.2 177.201 125.3 177.201 125.4 177.301C125.5 177.401 125.5 177.501 125.5 177.601V178.901C125.5 179.001 125.5 179.001 125.5 179.001C125.5 179.001 125.5 179.001 125.6 179.001H129.2V179.301C129.2 179.401 129.2 179.501 129.1 179.501C129.1 179.601 129 179.601 128.9 179.601H125.5V179.701ZM125.6 182.701C125.6 182.801 125.6 182.901 125.7 183.001C125.8 183.101 125.9 183.201 126 183.201C126.1 183.301 126.3 183.301 126.5 183.301C126.7 183.301 126.9 183.401 127.1 183.401C127.3 183.401 127.5 183.401 127.7 183.401C127.9 183.401 128 183.301 128.2 183.301C128.3 183.201 128.4 183.201 128.5 183.101C128.6 183.001 128.6 182.901 128.6 182.801C128.6 182.701 128.6 182.601 128.5 182.501C128.4 182.401 128.3 182.301 128.2 182.301C128.1 182.201 127.9 182.201 127.7 182.201C127.5 182.201 127.3 182.101 127.1 182.101C126.6 182.101 126.3 182.201 126 182.301C125.7 182.301 125.6 182.401 125.6 182.701Z" fill="#25BCBD"/>
<path d="M127.1 184.101C126.8 184.101 126.5 184.101 126.2 184.001C125.9 183.901 125.7 183.901 125.5 183.801C125.3 183.701 125.1 183.501 125 183.401C124.9 183.201 124.8 183.001 124.8 182.801C124.8 182.601 124.9 182.301 125 182.201C125.1 182.001 125.3 181.901 125.5 181.801C125.7 181.701 126 181.601 126.2 181.501C126.5 181.401 126.8 181.401 127.1 181.401C127.4 181.401 127.7 181.401 128 181.501C128.3 181.601 128.5 181.701 128.7 181.801C128.9 181.901 129.1 182.101 129.2 182.201C129.3 182.401 129.4 182.601 129.4 182.801C129.4 183.001 129.3 183.201 129.2 183.401C129.1 183.601 128.9 183.701 128.7 183.801C128.5 183.901 128.3 184.001 128 184.101C127.7 184.101 127.4 184.101 127.1 184.101ZM127.1 181.401C126.8 181.401 126.5 181.401 126.2 181.501C125.9 181.601 125.7 181.601 125.5 181.701C125.3 181.801 125.2 181.901 125 182.101C124.9 182.301 124.8 182.401 124.8 182.701C124.8 182.901 124.9 183.101 125 183.301C125.1 183.501 125.3 183.601 125.5 183.701C125.7 183.801 125.9 183.901 126.2 183.901C126.5 184.001 126.8 184.001 127.1 184.001C127.4 184.001 127.7 184.001 128 183.901C128.3 183.801 128.5 183.801 128.7 183.601C128.9 183.501 129 183.401 129.1 183.201C129.2 183.001 129.3 182.901 129.3 182.701C129.3 182.501 129.2 182.301 129.1 182.101C129 181.901 128.8 181.801 128.6 181.701C128.4 181.601 128.2 181.501 127.9 181.401C127.6 181.401 127.4 181.401 127.1 181.401ZM127.1 183.501C126.9 183.501 126.7 183.501 126.5 183.401C126.3 183.401 126.1 183.301 126 183.301C125.9 183.201 125.8 183.201 125.7 183.101C125.6 183.001 125.6 182.901 125.6 182.801C125.6 182.501 125.7 182.301 126 182.201C126.3 182.101 126.7 182.001 127.1 182.001C127.3 182.001 127.5 182.001 127.7 182.101C127.9 182.101 128 182.201 128.2 182.301C128.3 182.401 128.4 182.501 128.5 182.501C128.6 182.601 128.6 182.701 128.6 182.801C128.6 182.901 128.6 183.001 128.5 183.101C128.4 183.201 128.3 183.301 128.2 183.301C128.1 183.401 127.9 183.401 127.7 183.401C127.5 183.401 127.3 183.501 127.1 183.501ZM127.1 182.001C126.6 182.001 126.3 182.101 126 182.201C125.8 182.301 125.6 182.501 125.6 182.701C125.6 182.801 125.6 182.901 125.7 183.001C125.8 183.101 125.9 183.101 126 183.201C126.1 183.301 126.3 183.301 126.5 183.301C126.7 183.301 126.9 183.401 127.1 183.401C127.3 183.401 127.5 183.401 127.7 183.401C127.9 183.401 128 183.301 128.1 183.301C128.2 183.201 128.3 183.201 128.4 183.101C128.5 183.001 128.5 182.901 128.5 182.801C128.5 182.701 128.5 182.601 128.4 182.501C128.3 182.401 128.2 182.301 128.1 182.301C128 182.201 127.8 182.201 127.7 182.201C127.5 182.001 127.3 182.001 127.1 182.001ZM129.8 180.901H123.9V180.101H130.1V180.501C130.2 180.801 130 180.901 129.8 180.901ZM124.1 180.801H129.8C130 180.801 130 180.701 130 180.501V180.301H124V180.801H124.1ZM129 179.701H125.5C125.2 179.701 125.1 179.701 124.9 179.601C124.8 179.501 124.7 179.301 124.7 179.001V177.101H125.1C125.2 177.101 125.4 177.201 125.4 177.301C125.5 177.401 125.5 177.501 125.5 177.701V179.001C125.5 179.101 125.5 179.101 125.5 179.101H129.2V179.501C129.2 179.601 129.2 179.701 129.1 179.801C129.3 179.701 129.2 179.701 129 179.701ZM124.9 177.201V179.001C124.9 179.201 124.9 179.401 125 179.501C125.1 179.601 125.2 179.601 125.5 179.601H129C129.1 179.601 129.2 179.601 129.2 179.501C129.2 179.501 129.3 179.401 129.3 179.301V179.001H125.7C125.6 179.001 125.6 179.001 125.6 178.901C125.6 178.901 125.6 178.801 125.6 178.701V177.401C125.6 177.301 125.6 177.201 125.5 177.101C125.4 177.001 125.4 177.001 125.3 177.001H124.9V177.201Z" fill="#25BCBD"/>
<path d="M132.2 178.6C132.2 178.8 132.2 179 132.3 179.1C132.4 179.3 132.5 179.4 132.7 179.6C132.9 179.7 133 179.9 133.2 180C133.4 180.1 133.6 180.2 133.8 180.4L133.4 180.9C133.3 180.8 133.1 180.8 133 180.7C132.8 180.6 132.7 180.5 132.6 180.4C132.5 180.3 132.3 180.2 132.2 180.1C132.1 180 132 179.9 131.9 179.8C131.7 180 131.5 180.3 131.2 180.5C130.9 180.7 130.6 181 130.3 181.2L129.8 180.7C130 180.6 130.2 180.5 130.4 180.3C130.6 180.2 130.8 180 130.9 179.8C131.1 179.6 131.2 179.5 131.3 179.3C131.4 179.1 131.4 178.9 131.4 178.7V177.4H131.9C132 177.4 132.1 177.4 132.1 177.5C132.1 177.6 132.1 177.6 132.1 177.7V178.6H132.2ZM134.8 183.9V182.2C134.8 182.1 134.8 182.1 134.7 182.1H131.4V181.5H135C135.2 181.5 135.3 181.5 135.4 181.6C135.5 181.7 135.6 181.8 135.6 182V183.5C135.6 183.7 135.6 183.8 135.5 183.8C135.4 183.9 135.4 183.9 135.2 183.9H134.8ZM134.8 181.1V177.2H135.5V180.6C135.5 180.8 135.5 180.9 135.4 180.9C135.4 181 135.3 181 135.1 181H134.8V181.1Z" fill="#25BCBD"/>
<path d="M135.2 184H134.7V182.2H131.3V181.4H135C135.2 181.4 135.3 181.4 135.4 181.5C135.5 181.6 135.6 181.7 135.6 181.9V183.4C135.6 183.6 135.6 183.7 135.5 183.8C135.4 183.9 135.3 184 135.2 184ZM134.8 183.8H135.1C135.2 183.8 135.3 183.8 135.3 183.7C135.3 183.7 135.4 183.6 135.4 183.4V182C135.4 181.9 135.4 181.7 135.3 181.7C135.2 181.6 135.1 181.6 134.9 181.6H131.4V182.1H134.7C134.8 182.1 134.9 182.2 134.9 182.3V183.8H134.8ZM135.2 181.2H134.7V177.2H135.6V180.7C135.6 180.9 135.6 181 135.5 181.1C135.5 181.1 135.3 181.2 135.2 181.2ZM134.9 181H135.2C135.3 181 135.4 181 135.4 180.9C135.4 180.8 135.5 180.7 135.5 180.6V177.2H134.9V181ZM130.3 181.1L129.7 180.5H129.8C130 180.4 130.2 180.3 130.4 180.1C130.6 180 130.8 179.8 130.9 179.7C131.1 179.5 131.2 179.4 131.3 179.2C131.4 179 131.4 178.8 131.4 178.6V177.2H131.9C132 177.2 132.1 177.2 132.2 177.3C132.2 177.4 132.3 177.5 132.3 177.6V178.6C132.3 178.8 132.3 179 132.4 179.1C132.5 179.3 132.6 179.4 132.7 179.6C132.8 179.7 133 179.9 133.2 180C133.4 180.1 133.6 180.2 133.8 180.4H133.9L133.4 181C133.3 180.9 133.1 180.9 133 180.8C132.8 180.7 132.7 180.6 132.6 180.5C132.5 180.4 132.3 180.3 132.2 180.2C132.1 180.1 132 180 131.9 179.9C131.7 180.1 131.5 180.3 131.3 180.5C131 180.7 130.7 180.9 130.3 181.1ZM129.9 180.5L130.3 180.9C130.6 180.7 130.9 180.5 131.2 180.3C131.5 180.1 131.7 179.8 131.8 179.6L131.9 179.5L132 179.6C132.1 179.7 132.2 179.8 132.3 179.9C132.4 180 132.6 180.1 132.7 180.2C132.8 180.3 133 180.4 133.1 180.5C133.2 180.6 133.4 180.7 133.5 180.7L133.8 180.3C133.6 180.2 133.4 180.1 133.2 180C133 179.9 132.8 179.7 132.7 179.6C132.5 179.5 132.4 179.3 132.3 179.1C132.2 178.9 132.2 178.7 132.2 178.5V177.5C132.2 177.4 132.2 177.3 132.2 177.3C132.2 177.3 132.1 177.2 132 177.2H131.6V178.4C131.6 178.6 131.5 178.8 131.4 179C131.3 179.2 131.2 179.4 131 179.5C130.8 179.7 130.7 179.8 130.4 180C130.3 180.3 130.1 180.5 129.9 180.5Z" fill="#25BCBD"/>
<path d="M136.1 180.201H142.2V180.501C142.2 180.701 142.1 180.801 141.9 180.801H139.5V181.501H141.3V183.001C141.3 183.301 141.2 183.501 141.1 183.701C141 183.901 140.7 183.901 140.4 183.901H137.5C137.3 183.901 137.2 183.801 137.1 183.701C137 183.601 136.9 183.401 136.9 183.201V181.501H138.7V180.801H136V180.201H136.1ZM137.4 177.901H136.6V177.301H141.5V177.901H140.7V178.801C140.7 178.901 140.7 178.901 140.7 179.001C140.7 179.001 140.7 179.101 140.7 179.201H141.7V179.501C141.7 179.701 141.6 179.801 141.4 179.801H136.6V179.201H137.5V179.101C137.5 179.001 137.5 179.001 137.5 178.901V177.901H137.4ZM140.3 183.301C140.4 183.301 140.5 183.301 140.5 183.301C140.6 183.301 140.6 183.201 140.6 183.101V182.201H137.7V183.201C137.7 183.301 137.8 183.401 137.9 183.401H140.3V183.301ZM139.8 179.101C139.9 179.101 139.9 179.101 140 179.001C140 178.901 140 178.901 140 178.801V177.901H138.2V178.801C138.2 178.901 138.2 179.001 138.2 179.001C138.2 179.101 138.3 179.101 138.4 179.101H139.8Z" fill="#25BCBD"/>
<path d="M140.4 184.001H137.5C137.3 184.001 137.1 183.901 137 183.801C136.9 183.701 136.8 183.501 136.8 183.201V181.501H138.6V181.001H135.9V180.201H142.1V180.601C142.1 180.901 142 181.001 141.7 181.001H139.4V181.501H141.2V183.001C141.2 183.301 141.1 183.601 141 183.701C141 183.901 140.8 184.001 140.4 184.001ZM137 181.601V183.201C137 183.401 137.1 183.601 137.2 183.701C137.3 183.801 137.4 183.901 137.6 183.901H140.5C140.8 183.901 141 183.801 141.1 183.701C141.2 183.601 141.3 183.301 141.3 183.101V181.701H139.5V180.901H141.9C142.1 180.901 142.1 180.801 142.1 180.601V180.401H136.1V180.901H138.8V181.701H137V181.601ZM140.3 183.301H137.8C137.7 183.301 137.6 183.201 137.6 183.101V182.101H140.7V183.001C140.7 183.101 140.7 183.201 140.6 183.301C140.5 183.301 140.4 183.301 140.3 183.301ZM137.7 182.201V183.101C137.7 183.201 137.7 183.201 137.8 183.201H140.3C140.4 183.201 140.5 183.201 140.5 183.201V183.101V182.301H137.7V182.201ZM141.4 179.801H136.5V179.001H137.4C137.4 179.001 137.4 179.001 137.4 178.901C137.4 178.801 137.4 178.801 137.4 178.701V177.801H136.6V177.101H141.6V177.801H140.8V178.701C140.8 178.801 140.8 178.801 140.8 178.901C140.8 178.901 140.8 178.901 140.8 179.001H141.7V179.301C141.8 179.601 141.6 179.801 141.4 179.801ZM136.6 179.701H141.3C141.5 179.701 141.6 179.601 141.6 179.401V179.201H140.6V179.101C140.6 179.001 140.6 179.001 140.6 179.001V178.901V177.901H141.4V177.401H136.7V177.901H137.5V178.901C137.5 179.001 137.5 179.001 137.5 179.101V179.201V179.301H136.5V179.701H136.6ZM139.8 179.201H138.3C138.2 179.201 138.1 179.101 138.1 179.101C138.1 179.001 138 179.001 138 178.901V177.901H140V178.901C140 179.001 140 179.101 139.9 179.201C140 179.101 140 179.201 139.8 179.201ZM138.2 177.901V178.801C138.2 178.901 138.2 178.901 138.2 179.001C138.2 179.001 138.2 179.001 138.3 179.001H139.8C139.9 179.001 139.9 179.001 139.9 179.001C139.9 179.001 139.9 178.901 139.9 178.801V177.901H138.2Z" fill="#25BCBD"/>
<path d="M146.9 180.301C146.9 180.501 147 180.601 147 180.801C147 184.001 139.5 186.701 130.2 186.701C120.9 186.701 113.4 184.101 113.4 180.801C113.4 180.601 113.4 180.501 113.5 180.301C112.3 181.201 111.6 182.201 111.6 183.201C111.6 186.901 119.9 189.801 130.2 189.801C140.5 189.801 148.8 186.801 148.8 183.201C148.8 182.101 148.1 181.101 146.9 180.301Z" fill="#FAAF40"/>
<path d="M130.2 157.4C116.9 157.4 106.1 168.2 106.1 181.6C106.1 194.9 116.9 205.7 130.2 205.7C143.5 205.7 154.3 194.9 154.3 181.6C154.3 168.2 143.5 157.4 130.2 157.4ZM130.2 159C142.6 159 152.7 169.1 152.7 181.5C152.7 185.9 151.4 190 149.2 193.5H111.2C109 190 107.7 185.9 107.7 181.5C107.7 169.1 117.8 159 130.2 159Z" fill="#25BCBD"/>
<path d="M117.8 196.9C117.7 197.1 117.2 197.6 116.8 197.7L116.6 197.3C117.1 197.1 117.6 196.7 117.6 196.1V195.7H118.1V196.1C118.1 196.6 118.6 197 119.1 197.3L118.9 197.7C118.4 197.5 118 197.2 117.8 196.9ZM119.2 198.2H117V197.9H119.7V199.2H119.2V198.2ZM119.2 195.7H119.7V197.7H119.2V195.7Z" fill="white"/>
<path d="M121.9 197.901H123V199.101H120.3V197.901H121.4V197.601H120.1V197.301H123.2V197.601H121.9V197.901ZM120.3 196.701H120.7V196.101H120.3V195.801H123V196.101H122.6V196.701H123V197.001H120.3V196.701ZM120.8 198.301V198.801H122.5V198.301H120.8ZM121.1 196.101V196.701H122.1V196.101H121.1Z" fill="white"/>
<path d="M126.1 198.7C125.8 198.8 125.6 198.8 125.3 198.8H123.5V198.5H125.4C125.6 198.5 125.8 198.5 126 198.4V195.7H126.5V199.2H126V198.7H126.1ZM124.6 195.7C126 195.7 126 198 124.6 198C123.2 198 123.2 195.7 124.6 195.7ZM124.6 197.7C125.3 197.7 125.3 196.1 124.6 196.1C123.9 196.1 123.9 197.7 124.6 197.7Z" fill="white"/>
<path d="M127.9 195.7C129.3 195.7 129.3 197.6 127.9 197.6C126.5 197.6 126.5 195.7 127.9 195.7ZM129.4 198.2H127.2V197.9H129.9V199.2H129.4V198.2ZM127.9 197.2C128.6 197.2 128.6 196 127.9 196C127.2 196.1 127.2 197.2 127.9 197.2ZM129.9 197.7H129.4V195.7H129.9V196.1H130.3V196.5H129.9V196.8H130.3V197.2H129.9V197.7Z" fill="white"/>
<path d="M132.2 197.901H133.3V199.101H130.6V197.901H131.7V197.601H130.4V197.301H133.5V197.601H132.2V197.901ZM130.6 196.701H131V196.101H130.6V195.801H133.3V196.101H132.9V196.701H133.3V197.001H130.6V196.701ZM131.1 198.301V198.801H132.8V198.301H131.1ZM131.5 196.101V196.701H132.5V196.101H131.5Z" fill="white"/>
<path d="M134.8 195.7C136.1 195.7 136.1 197.8 134.8 197.8C133.5 197.8 133.5 195.7 134.8 195.7ZM134.2 198H134.7V198.8H136.8V199.1H134.2V198ZM134.8 197.4C135.5 197.4 135.5 196.1 134.8 196.1C134.2 196.1 134.2 197.4 134.8 197.4ZM136.8 198.2H136.3V195.7H136.8V196.6H137.2V197H136.8V198.2Z" fill="white"/>
<path d="M138.5 197C138.3 197.2 137.8 197.6 137.5 197.8L137.3 197.4C137.8 197.1 138.3 196.8 138.3 196.2V196H137.5V195.7H139.6V196H138.8V196.2C138.8 196.7 139.3 197.2 139.8 197.4L139.6 197.8C139.1 197.7 138.7 197.3 138.5 197ZM137.7 198H138.2V198.8H140.4V199.1H137.7V198ZM139.9 196.8H139.4V196.5H139.9V195.7H140.4V198.2H139.9V196.8Z" fill="white"/>
<path d="M141.9 198.001C141.7 198.301 141.3 198.701 141 198.801L140.8 198.501C141.4 198.101 141.7 197.701 141.7 197.001V196.201H141V195.901H141.7V195.601H142.2V195.901H142.9V196.201H142.2V197.001C142.2 197.601 142.5 198.101 143.1 198.501L142.9 198.801C142.5 198.701 142.1 198.301 141.9 198.001ZM143.3 197.201H142.7V196.901H143.3V195.801H143.8V199.301H143.3V197.201Z" fill="white"/>
</svg>
