<svg width="104" height="64" viewBox="0 0 104 64" fill="none" xmlns="http://www.w3.org/2000/svg">
<rect width="104" height="64" fill="#FBFBFB"/>
<path d="M43.0596 19.124V29.912H44.0436V19.124H43.0596ZM38.3676 19.952C36.7716 19.952 35.6316 21.416 35.6316 23.708C35.6316 26 36.7716 27.464 38.3676 27.464C39.9636 27.464 41.1036 26 41.1036 23.708C41.1036 21.416 39.9636 19.952 38.3676 19.952ZM38.3676 20.84C39.4116 20.84 40.1556 21.968 40.1556 23.708C40.1556 25.46 39.4116 26.588 38.3676 26.588C37.3116 26.588 36.5676 25.46 36.5676 23.708C36.5676 21.968 37.3116 20.84 38.3676 20.84ZM46.8987 20.18V27.176H51.8427V20.18H46.8987ZM50.8827 20.972V26.396H47.8587V20.972H50.8827ZM54.0987 19.124V29.912H55.0827V19.124H54.0987ZM61.1537 21.044H63.6857V20.228H57.6737V21.044H60.1697V22.412C60.1697 24.272 58.8617 26.3 57.3137 27.032L57.8897 27.824C59.1137 27.2 60.1697 25.844 60.6617 24.272C61.1777 25.748 62.2337 26.984 63.4817 27.56L64.0337 26.768C62.4497 26.096 61.1537 24.236 61.1537 22.412V21.044ZM65.1377 19.136V29.888H66.1217V19.136H65.1377ZM20.9788 39.888C22.7188 39.624 24.3028 38.76 24.8908 37.512C25.4668 38.76 27.0508 39.624 28.8028 39.888L29.1628 39.096C27.2668 38.844 25.5268 37.776 25.5268 36.468V36.456H28.8748V35.664H20.9068V36.456H24.2548V36.468C24.2548 37.776 22.5148 38.844 20.6068 39.096L20.9788 39.888ZM22.2268 42.6H21.2428V45.648H28.6828V44.844H22.2268V42.6ZM19.9948 40.668V41.46H24.4708V43.644H25.4548V41.46H29.7628V40.668H19.9948ZM38.8819 35.124V45.9H39.8659V35.124H38.8819ZM31.6699 36.036V43.296H36.7339V36.036H35.7619V38.88H32.6419V36.036H31.6699ZM32.6419 39.66H35.7619V42.492H32.6419V39.66ZM42.9969 39.516C44.7609 39.3 46.3809 38.508 46.9689 37.32C47.5689 38.508 49.1769 39.3 50.9409 39.516L51.2889 38.736C49.4049 38.52 47.6889 37.596 47.6049 36.408H50.9529V35.616H42.9969V36.408H46.3329C46.2489 37.596 44.5329 38.52 42.6489 38.736L42.9969 39.516ZM49.6449 43.98C49.6449 44.7 48.6369 45.12 46.9569 45.12C45.2649 45.12 44.2689 44.7 44.2689 43.98C44.2689 43.26 45.2649 42.852 46.9569 42.852C48.6369 42.852 49.6449 43.26 49.6449 43.98ZM51.8289 40.956V40.164H42.0969V40.956H46.4649V42.108C44.4609 42.204 43.2729 42.864 43.2729 43.98C43.2729 45.204 44.6649 45.876 46.9689 45.876C49.2609 45.876 50.6409 45.204 50.6409 43.98C50.6409 42.864 49.4649 42.204 47.4609 42.108V40.956H51.8289ZM60.984 35.136V40.908H61.968V35.136H60.984ZM55.032 41.436V45.744H61.968V41.436H60.996V42.756H56.004V41.436H55.032ZM56.004 43.524H60.996V44.952H56.004V43.524ZM56.184 35.64C54.564 35.64 53.388 36.648 53.388 38.112C53.388 39.6 54.564 40.596 56.184 40.596C57.816 40.596 59.004 39.6 59.004 38.112C59.004 36.648 57.816 35.64 56.184 35.64ZM56.184 36.456C57.276 36.456 58.044 37.14 58.044 38.112C58.044 39.096 57.276 39.78 56.184 39.78C55.116 39.78 54.348 39.096 54.348 38.112C54.348 37.14 55.116 36.456 56.184 36.456ZM65.8311 36.168H64.8471V43.104H65.7351C67.4511 43.104 69.1431 42.984 71.0151 42.6L70.9071 41.76C69.1191 42.12 67.4511 42.264 65.8311 42.264V36.168ZM72.0111 35.124V45.876H72.9951V35.124H72.0111ZM76.6541 36.972H80.6741V36.156H75.6701V43.224H76.5221C78.5501 43.224 79.9661 43.152 81.6101 42.84L81.5021 42.024C79.9421 42.3 78.5621 42.384 76.6541 42.384V36.972ZM85.2701 39.372H83.4941V35.124H82.5101V45.912H83.4941V40.188H85.2701V39.372Z" fill="#9BA5AB"/>
</svg>
