<svg width="152" height="43" viewBox="0 0 152 43" fill="none" xmlns="http://www.w3.org/2000/svg">
<path d="M90.0421 19.2779V14.6112C90.0421 14.0979 89.6208 13.6779 89.1059 13.6779H68.5108C67.9959 13.6779 67.5746 14.0979 67.5746 14.6112V20.6779C67.5746 21.1912 67.9959 21.6112 68.5108 21.6112H89.574C90.4633 21.6112 91.3058 21.7512 92.1016 22.0779C94.4419 22.9646 96.1738 25.1112 96.5482 27.6779C96.5482 27.8179 96.595 28.0046 96.595 28.1446C96.595 28.2846 96.595 28.4712 96.595 28.6112V35.6113C96.595 38.0846 95.2844 40.2779 93.3186 41.5379C92.3824 42.1446 91.259 42.5179 90.0421 42.6113C89.9016 42.6113 89.7144 42.6113 89.574 42.6113H68.0427C67.9023 42.6113 67.7151 42.6113 67.5746 42.6113C63.9237 42.3779 61.0217 39.3446 61.0217 35.6113V33.1846L67.5746 30.4779V35.1446C67.5746 35.6579 67.9959 36.0779 68.5108 36.0779H89.1059C89.6208 36.0779 90.0421 35.6579 90.0421 35.1446V29.0779C90.0421 28.5646 89.6208 28.1446 89.1059 28.1446H68.0427C67.1534 28.1446 66.3109 27.9579 65.5151 27.6779C63.3152 26.8379 61.6301 24.8779 61.1621 22.5446C61.1153 22.2179 61.0685 21.9379 61.0685 21.6112C61.0685 21.4712 61.0685 21.2846 61.0685 21.1446V14.1445C61.0685 14.0045 61.0685 13.8179 61.0685 13.6779C61.0685 13.6312 61.0685 13.5845 61.0685 13.5379C61.1153 12.9312 61.2557 12.3712 61.4429 11.8112C62.3791 9.10454 65.0003 7.14453 68.0427 7.14453H89.574C89.7144 7.14453 89.9016 7.14453 90.0421 7.14453C91.6803 7.23786 93.1313 7.8912 94.2547 8.91787C95.7057 10.2245 96.595 12.0445 96.595 14.1445V16.5712L90.0421 19.2779ZM145.274 7.14453V32.7179L123.743 7.14453H116.254V42.6113H122.807V17.1312L144.245 42.6113H151.827V7.14453H145.274ZM109.701 7.14453H103.148V42.6113H109.701V7.14453ZM25.027 31.4113C24.2313 31.7379 23.3419 31.8779 22.4058 31.8779C21.6101 31.8779 20.8612 31.7379 20.1122 31.5513C19.5038 31.3646 18.8953 31.7846 18.8953 32.4379V42.6579H25.4483V31.7846C25.4483 31.5046 25.2142 31.3179 25.027 31.4113ZM47.9157 7.14453V21.6112H32.7034C31.1587 21.6112 29.8949 22.8712 29.8949 24.4112C29.8949 25.5779 29.6141 26.6979 29.146 27.6779C29.0524 27.9112 29.1928 28.1446 29.4269 28.1446H47.9157V42.6113H54.4687V7.14453H47.9157Z" fill="#0D37A4"/>
<path d="M28.2566 9.0096C26.1971 9.0096 24.5121 10.6896 24.5121 12.7429C24.5121 14.0029 25.1206 15.123 26.1035 15.7763C26.2439 15.823 26.3375 15.9163 26.478 16.0096C26.9928 16.2896 27.6013 16.4763 28.2566 16.4763C30.3161 16.4763 32.0012 14.7963 32.0012 12.7429C32.0012 10.6896 30.3161 9.0096 28.2566 9.0096ZM3.91693 5.27626C1.85742 5.27626 0.172363 6.95626 0.172363 9.0096C0.172363 11.0629 1.85742 12.7429 3.91693 12.7429C5.97644 12.7429 7.6615 11.0629 7.6615 9.0096C7.6615 6.95626 5.97644 5.27626 3.91693 5.27626ZM9.58059 14.6096C8.55084 14.6096 7.70831 15.4496 7.70831 16.4763C7.70831 17.503 8.55084 18.343 9.58059 18.343C10.6103 18.343 11.4529 17.503 11.4529 16.4763C11.4529 15.4496 10.6103 14.6096 9.58059 14.6096ZM28.4439 24.363C28.4439 27.723 25.729 30.4763 22.3121 30.4763C18.942 30.4763 16.1804 27.723 16.1804 24.363C16.1804 23.4296 16.4144 22.543 16.7889 21.703C16.8357 21.6563 16.8357 21.6096 16.8825 21.563C17.3974 20.6296 17.6782 19.5563 17.6782 18.3896C17.6782 15.543 15.9464 13.1163 13.4188 12.0896H13.372C13.3252 12.0896 13.3252 12.0896 13.2784 12.0429C13.2315 12.0429 13.1847 11.9963 13.1379 11.9963C13.1379 11.9963 13.0911 11.9963 13.0911 11.9496H13.0443C10.938 11.0629 9.48698 8.96294 9.48698 6.53626C9.48698 4.06292 11.0316 1.96292 13.1847 1.07625C13.8868 0.79625 14.6358 0.65625 15.4315 0.65625C16.2272 0.65625 16.9761 0.79625 17.6782 1.07625C19.8313 1.96292 21.376 4.06292 21.376 6.53626C21.376 7.37627 21.1888 8.1696 20.8611 8.91627V8.96294C20.8611 8.96294 20.8611 9.0096 20.8143 9.0096C20.7675 9.10294 20.7207 9.24294 20.6271 9.33627C20.2058 10.2229 20.0186 11.1563 20.0186 12.1829C20.0186 15.123 21.8909 17.643 24.5121 18.623C24.5589 18.623 24.5589 18.623 24.6057 18.6696C26.8524 19.5563 28.4439 21.7963 28.4439 24.363Z" fill="#0D37A4"/>
</svg>
