<svg width="77" height="89" viewBox="0 0 77 89" fill="none" xmlns="http://www.w3.org/2000/svg">
<g clip-path="url(#clip0_1333_96061)">
<path d="M47.4968 0H52.843C57.565 0.004461 62.092 1.89136 65.4294 5.24607C68.7668 8.60077 70.6414 13.1488 70.6414 17.8909V45.4425C70.6414 47.3664 69.8804 49.2115 68.5258 50.5718C67.1711 51.9322 65.3339 52.6965 63.4181 52.6965H36.8714C34.9615 52.6876 33.1328 51.9194 31.7854 50.56C30.438 49.2006 29.6816 47.3606 29.6816 45.4425V17.8909C29.6816 13.1459 31.5586 8.59531 34.8996 5.24012C38.2406 1.88493 42.7719 0 47.4968 0V0Z" fill="#8A402F"/>
<path d="M29.6816 26.8965V45.4101C29.6816 47.334 30.4427 49.179 31.7973 50.5394C33.1519 51.8998 34.9892 52.6641 36.9049 52.6641H63.4181C65.3339 52.6641 67.1711 51.8998 68.5257 50.5394C69.8804 49.179 70.6414 47.334 70.6414 45.4101V26.8965H29.6816Z" fill="#6D2E22"/>
<path d="M34.39 50.8457H65.931C68.7935 50.8457 71.5388 51.9877 73.5628 54.0203C75.5869 56.053 76.724 58.8099 76.724 61.6846V89.0006H23.6138V61.6678C23.6182 58.7989 24.755 56.0489 26.775 54.0203C28.7949 51.9918 31.5333 50.8502 34.39 50.8457Z" fill="#E8E8EE"/>
<path d="M53.8136 89.0001H46.5066L44.5625 50.8789H55.7577L53.8136 89.0001Z" fill="#92C6EB"/>
<path d="M55.6739 50.4575V44.752H44.6631V50.4575C44.6038 50.7001 44.5701 50.9484 44.5625 51.1981C44.5625 53.5207 47.0764 55.4225 50.1601 55.4225C53.2438 55.4225 55.8415 53.4534 55.8415 51.1307C55.8076 50.9014 55.7514 50.6759 55.6739 50.4575Z" fill="#F4A876"/>
<path d="M67.9583 36.4545H63.5003C63.3815 36.4545 63.2638 36.431 63.154 36.3854C63.0442 36.3397 62.9445 36.2727 62.8604 36.1883C62.7764 36.1039 62.7097 36.0038 62.6642 35.8935C62.6188 35.7832 62.5953 35.665 62.5953 35.5457V24.5553H67.9583C68.5186 24.5464 69.075 24.6495 69.5951 24.8587C70.1153 25.0678 70.5888 25.3788 70.9881 25.7735C71.3874 26.1683 71.7045 26.6388 71.9209 27.1579C72.1374 27.6769 72.2488 28.2339 72.2487 28.7966V32.1627C72.2555 32.7297 72.149 33.2922 71.9356 33.8171C71.7222 34.342 71.4062 34.8186 71.0062 35.2187C70.6062 35.6188 70.1304 35.9343 69.6069 36.1466C69.0834 36.3589 68.5228 36.4636 67.9583 36.4545Z" fill="#FCCCAC"/>
<path d="M32.361 24.5391H36.8693C37.1093 24.5391 37.3395 24.6348 37.5092 24.8053C37.6789 24.9757 37.7743 25.2069 37.7743 25.4479V36.4383H32.361C31.2409 36.4383 30.1667 35.9914 29.3747 35.196C28.5827 34.4006 28.1377 33.3218 28.1377 32.197V28.8309C28.1377 27.706 28.5827 26.6272 29.3747 25.8318C30.1667 25.0364 31.2409 24.5896 32.361 24.5896V24.5391Z" fill="#FCCCAC"/>
<path d="M66.0476 24.1511C66.0476 13.6151 58.9417 5.08203 50.1598 5.08203C41.3779 5.08203 34.272 13.6151 34.272 24.1511C34.272 24.7065 34.272 25.2619 34.272 25.8341C34.272 26.4063 34.272 26.743 34.272 27.1974V33.4584C34.272 37.6989 35.9494 41.7658 38.9352 44.7643C41.9211 47.7628 45.9707 49.4474 50.1933 49.4474C54.4159 49.4474 58.4656 47.7628 61.4514 44.7643C64.4372 41.7658 66.1147 37.6989 66.1147 33.4584V27.1637C66.1397 26.7096 66.1397 26.2545 66.1147 25.8004C66.0309 25.2114 66.0476 24.7065 66.0476 24.1511Z" fill="#FCCCAC"/>
<path d="M64.2227 6.09273C64.2227 6.09273 65.3791 25.8013 32.8828 20.1294L33.7375 8.34803C38.2939 5.61627 43.4222 3.98994 48.7144 3.59842C54.0067 3.2069 59.3169 4.06098 64.2227 6.09273Z" fill="#8A402F"/>
<path d="M43.5913 34.3184V36.0014C43.4818 36.8397 43.5517 37.6918 43.7963 38.5008C44.041 39.3098 44.4547 40.0571 45.01 40.6926C45.5652 41.3281 46.2492 41.8374 47.0161 42.1862C47.7829 42.5351 48.6152 42.7155 49.4571 42.7155C50.299 42.7155 51.1312 42.5351 51.8981 42.1862C52.665 41.8374 53.3489 41.3281 53.9041 40.6926C54.4594 40.0571 54.8731 39.3098 55.1178 38.5008C55.3624 37.6918 55.4323 36.8397 55.3228 36.0014V34.3184H43.5913Z" fill="#F26E61"/>
<path d="M43.5897 31.1022C44.3857 31.1022 45.031 29.678 45.031 27.9212C45.031 26.1644 44.3857 24.7402 43.5897 24.7402C42.7937 24.7402 42.1484 26.1644 42.1484 27.9212C42.1484 29.678 42.7937 31.1022 43.5897 31.1022Z" fill="#51221F"/>
<path d="M55.7582 31.1022C56.5542 31.1022 57.1995 29.678 57.1995 27.9212C57.1995 26.1644 56.5542 24.7402 55.7582 24.7402C54.9622 24.7402 54.3169 26.1644 54.3169 27.9212C54.3169 29.678 54.9622 31.1022 55.7582 31.1022Z" fill="#51221F"/>
<path d="M50.8152 32.771C50.7661 32.7865 50.7135 32.7865 50.6644 32.771C50.6128 32.7524 50.5655 32.7235 50.5254 32.6859C50.4853 32.6484 50.4533 32.603 50.4313 32.5525C50.4094 32.5021 50.3979 32.4477 50.3976 32.3926C50.3974 32.3376 50.4083 32.283 50.4298 32.2324L51.5024 29.3712H49.508C49.3883 29.3704 49.2738 29.322 49.1896 29.2365C49.1496 29.191 49.12 29.1374 49.1026 29.0793C49.0853 29.0212 49.0806 28.96 49.089 28.8999L49.6253 24.7091C49.6314 24.6543 49.6486 24.6012 49.6758 24.5533C49.7031 24.5053 49.7398 24.4635 49.7838 24.4304C49.8277 24.3973 49.878 24.3736 49.9315 24.3607C49.9849 24.3479 50.0404 24.3461 50.0946 24.3557C50.1507 24.3596 50.2054 24.3752 50.2551 24.4017C50.3048 24.4281 50.3484 24.4647 50.3831 24.5091C50.4179 24.5535 50.443 24.6047 50.4568 24.6595C50.4706 24.7142 50.4728 24.7713 50.4633 24.8269L49.9773 28.5802H52.1057C52.1725 28.5806 52.2381 28.5978 52.2966 28.6301C52.3551 28.6625 52.4047 28.7089 52.4409 28.7653C52.4732 28.8247 52.4901 28.8912 52.4901 28.9588C52.4901 29.0265 52.4732 29.093 52.4409 29.1524L51.1504 32.5185C51.1202 32.5855 51.0736 32.6437 51.015 32.6878C50.9564 32.732 50.8877 32.7606 50.8152 32.771Z" fill="#F9AD86"/>
<path d="M39.8691 22.5712C39.9401 21.6637 40.1492 20.7726 40.4892 19.9288C40.8073 18.9864 41.4334 18.1797 42.2657 17.6398C42.5337 17.5249 42.8247 17.4741 43.1156 17.4917C43.4064 17.5092 43.6893 17.5945 43.9417 17.7408C44.3601 18.0055 44.7242 18.3483 45.0142 18.7507C45.2321 19.1714 45.4835 19.5585 45.6679 19.9793C45.8522 20.4001 45.9863 20.8376 46.1036 21.2752C45.5505 20.5347 45.0645 19.811 44.4277 19.1714C43.7908 18.5319 43.1707 18.1111 42.5841 18.414C41.9398 18.8575 41.4203 19.4604 41.0758 20.1644C40.6401 20.9555 40.2714 21.8475 39.8691 22.5712Z" fill="#51221F"/>
<path d="M59.7312 22.5704C59.329 21.7625 58.9603 20.8873 58.5245 20.1973C58.1558 19.5034 57.62 18.9132 56.9659 18.4805C56.3793 18.1776 55.7257 18.632 55.1224 19.2379C54.5191 19.8438 54.0833 20.6012 53.5303 21.3417C53.6476 20.9041 53.8152 20.4834 53.966 20.0458C54.1168 19.6082 54.4017 19.2379 54.6196 18.8171C54.9053 18.411 55.2702 18.0675 55.6922 17.8073C55.9437 17.6584 56.2267 17.5717 56.5181 17.5541C56.8094 17.5365 57.1008 17.5887 57.3682 17.7063C58.2099 18.2358 58.8389 19.0463 59.1446 19.9953C59.4739 20.8173 59.6719 21.6863 59.7312 22.5704Z" fill="#51221F"/>
<path d="M55.6577 48.9766L54.0488 84.5395L66.0485 69.9474L61.7078 64.9319L66.6351 56.8701L55.6577 48.9766Z" fill="white"/>
<path d="M44.5477 48.9766L46.1733 84.5395L34.1569 69.9474L38.4975 64.9319L33.5703 56.8701L44.5477 48.9766Z" fill="white"/>
<path d="M37.5395 44.6016H6.13255C5.3458 44.6016 4.70801 45.2421 4.70801 46.0322V87.2334C4.70801 88.0235 5.3458 88.664 6.13255 88.664H37.5395C38.3263 88.664 38.9641 88.0235 38.9641 87.2334V46.0322C38.9641 45.2421 38.3263 44.6016 37.5395 44.6016Z" fill="#2681B5"/>
<path d="M13.2217 44.6016H6.11579C5.74089 44.606 5.38284 44.7587 5.1193 45.0265C4.85576 45.2943 4.70798 45.6556 4.70801 46.0322V87.2334C4.70798 87.6099 4.85576 87.9712 5.1193 88.2391C5.38284 88.5069 5.74089 88.6595 6.11579 88.664H13.2217V44.6016Z" fill="#1D769F"/>
<path d="M30.5508 42.0762H13.1211V47.2432H30.5508V42.0762Z" fill="#E8E8EE"/>
<path d="M7.80984 65.1348H3.67029C1.64324 65.1348 0 66.785 0 68.8207V76.1756C0 78.2113 1.64324 79.8615 3.67029 79.8615H7.80984C9.83688 79.8615 11.4801 78.2113 11.4801 76.1756V68.8207C11.4801 66.785 9.83688 65.1348 7.80984 65.1348Z" fill="#FCCCAC"/>
<path d="M11.4962 69.2754H5.3623V70.1169H11.4962V69.2754Z" fill="#F9AD86"/>
<path d="M11.4962 72.0684H5.3623V72.9099H11.4962V72.0684Z" fill="#F9AD86"/>
<path d="M11.4962 74.8633H5.3623V75.7048H11.4962V74.8633Z" fill="#F9AD86"/>
</g>
<defs>
<clipPath id="clip0_1333_96061">
<rect width="76.7241" height="89" fill="white"/>
</clipPath>
</defs>
</svg>
