<svg width="209" height="27" viewBox="0 0 209 27" fill="none" xmlns="http://www.w3.org/2000/svg">
<path d="M30.4816 23.8696L24.8989 16.7128L25.5369 16.2187C27.9775 14.1703 30.1407 11.8028 31.9703 9.1777H26.9649C25.4064 11.6409 23.4852 13.8463 21.2682 15.7169L20.7137 16.126V11.4938C20.7078 11.2927 20.7471 11.0928 20.8287 10.9095C20.9103 10.7262 21.0321 10.5643 21.1847 10.4361C21.6635 10.1318 22.2235 9.98614 22.7873 10.0192V9.20858H15.1918V10.0192C15.7589 9.9678 16.327 10.1061 16.8096 10.413C16.9495 10.5651 17.0563 10.7454 17.1231 10.9423C17.1898 11.1392 17.215 11.3481 17.197 11.5556V18.5039C9.82933 22.8968 4.16305 22.4413 1.64133 18.7664C-1.13864 14.7441 3.3959 6.73034 10.8092 0.5C3.85923 5.64177 -2.12607 14.4353 0.760243 20.1329C3.48704 24.3173 9.42676 25.2052 17.1894 21.538V24.2633C17.204 24.4674 17.1678 24.672 17.0842 24.8582C17.0006 25.0444 16.8722 25.2062 16.7109 25.3287C16.236 25.5511 15.7132 25.6467 15.1918 25.6066V26.3787H22.7114V25.6066C22.1905 25.6369 21.67 25.5417 21.1923 25.3287C21.0232 25.2128 20.888 25.0526 20.8011 24.8651C20.7142 24.6776 20.6788 24.4696 20.6986 24.2633V19.855L21.5037 19.0829L22.1873 18.6352L26.4408 24.2479C26.7978 24.7497 26.7978 25.1125 26.4408 25.3364C25.9855 25.5512 25.4822 25.6391 24.9824 25.5912V26.3632H33.2616V25.5912C32.7177 25.6024 32.1848 25.4345 31.7425 25.1125C31.2729 24.7532 30.8493 24.3357 30.4816 23.8696Z" fill="#064485"/>
<path d="M43.668 9.99597C44.1997 9.94622 44.7329 10.0736 45.1871 10.3588C45.3549 10.5112 45.4845 10.702 45.5651 10.9155C45.6457 11.1291 45.675 11.359 45.6504 11.5864V17.145H39.498V11.7408C39.479 11.4958 39.5112 11.2495 39.5923 11.018C39.6735 10.7865 39.8018 10.575 39.969 10.3974C40.3811 10.0904 40.8873 9.94257 41.3969 9.98053V9.2085H33.9761V9.98053C34.4888 9.94903 34.9978 10.0872 35.4268 10.3743C35.6109 10.5347 35.7545 10.7375 35.8457 10.9658C35.9368 11.1941 35.9729 11.4413 35.9509 11.6867V23.9544C35.972 24.1907 35.9352 24.4285 35.8437 24.6468C35.7522 24.865 35.609 25.0569 35.4268 25.2051C34.994 25.4809 34.4854 25.6081 33.9761 25.568V26.3786H41.3665V25.5448C40.8661 25.6046 40.3609 25.4844 39.9386 25.2051C39.7735 25.0466 39.6476 24.8507 39.571 24.6334C39.4945 24.416 39.4695 24.1834 39.498 23.9544V18.1487H45.6504V24.0702C45.6732 24.2924 45.6398 24.5167 45.5534 24.7221C45.467 24.9274 45.3305 25.107 45.1567 25.2437C44.7054 25.4737 44.2022 25.5776 43.6984 25.5448V26.3554H51.1192V25.5448C50.6324 25.579 50.1459 25.4747 49.7141 25.2437C49.5291 25.088 49.3832 24.89 49.2881 24.6659C49.193 24.4418 49.1516 24.1979 49.1672 23.9544V11.5323C49.1565 11.3094 49.201 11.0873 49.2965 10.8864C49.3921 10.6854 49.5356 10.512 49.7141 10.382C50.1334 10.1122 50.6233 9.97769 51.1192 9.99597V9.22394H43.668V9.99597Z" fill="#064485"/>
<path d="M63.1498 17.8709C62.5402 17.0992 61.7593 16.4853 60.8712 16.0797L57.8785 14.6823C57.2039 14.3968 56.5743 14.0118 56.01 13.5397C55.7871 13.3679 55.6047 13.1479 55.476 12.8955C55.3472 12.6431 55.2754 12.3647 55.2657 12.0806C55.2422 11.7709 55.292 11.46 55.4109 11.174C55.5299 10.8879 55.7145 10.6349 55.9493 10.4361C56.8273 9.93675 57.848 9.76081 58.8389 9.93805C59.8298 10.1153 60.7301 10.6349 61.3877 11.4089C62.1079 12.3932 62.5988 13.531 62.8232 14.7364H63.5068V9.06963H62.7928C62.7943 9.16119 62.7753 9.25189 62.7371 9.33484C62.699 9.41778 62.6427 9.49078 62.5726 9.5483C62.4006 9.66097 62.1999 9.72001 61.9953 9.71814C61.8274 9.7163 61.6608 9.68765 61.5016 9.63322C61.3877 9.63322 61.1978 9.51741 60.9775 9.43249C60.6221 9.27827 60.2567 9.14928 59.8837 9.04647C59.2788 8.90357 58.659 8.83616 58.038 8.84574C56.0632 8.84574 54.6048 9.46337 53.701 10.6369C53.0838 11.4723 52.7626 12.4953 52.7895 13.5397C52.7589 14.2987 52.9019 15.0545 53.2073 15.7478C53.7917 16.9253 54.7768 17.8471 55.9796 18.3418L58.8659 19.801C59.6078 20.1946 60.2762 20.7171 60.8408 21.345C61.2436 21.8911 61.4476 22.5623 61.418 23.2442C61.4198 23.7762 61.2338 24.2912 60.894 24.6957C60.539 25.0701 60.105 25.3578 59.6248 25.537C59.1446 25.7162 58.6306 25.7822 58.1216 25.7302C57.4629 25.752 56.8084 25.6151 56.2118 25.3306C55.6151 25.0461 55.0931 24.6222 54.6884 24.0935C53.8915 22.9193 53.4098 21.5542 53.2908 20.1329H52.63V26.6644H53.2376V26.5254C53.2764 26.3386 53.343 26.159 53.4351 25.9927C53.4949 25.9096 53.5724 25.8415 53.6619 25.7933C53.7514 25.7452 53.8504 25.7183 53.9516 25.7148C54.1583 25.726 54.3626 25.765 54.5593 25.8306C54.769 25.886 54.9708 25.969 55.1593 26.0776C55.5272 26.2503 55.9051 26.3999 56.2911 26.5254C56.8639 26.6769 57.4537 26.7522 58.0456 26.7493C60.1673 26.7493 61.7523 26.1625 62.8004 24.989C63.6844 24.0193 64.1589 22.7359 64.1221 21.4145C64.1801 20.1579 63.8393 18.9156 63.1498 17.8709Z" fill="#064485"/>
<path d="M78.8343 24.6263C78.3642 24.0149 78.0018 23.3253 77.7633 22.5881L72.7655 8.84583L71.3983 8.99251L71.0185 10.0579L66.4611 22.8737C66.2215 23.6069 65.8363 24.2822 65.3294 24.8579C64.94 25.2492 64.425 25.4849 63.8787 25.5218V26.3325H69.2867V25.545C68.7777 25.577 68.2734 25.4298 67.8587 25.1281C67.7326 24.9691 67.6389 24.7862 67.5828 24.59C67.5267 24.3939 67.5095 24.1884 67.5321 23.9855C67.5564 23.4632 67.6379 22.9453 67.7752 22.4414C67.9119 22.0477 68.1094 21.4918 68.3524 20.7352H73.6693C73.92 21.6308 74.1099 22.2793 74.2162 22.7734C74.3699 23.2443 74.4718 23.7311 74.52 24.2248C74.5393 24.4102 74.5118 24.5975 74.44 24.7691C74.3682 24.9407 74.2546 25.0908 74.1099 25.2053C73.6495 25.4071 73.1529 25.5097 72.6515 25.5064V26.317H80.6193V25.5218C80.2776 25.503 79.9433 25.414 79.6365 25.26C79.3297 25.1061 79.0568 24.8905 78.8343 24.6263ZM70.9805 19.801H68.6411L70.9805 13.0997L71.064 12.9299L73.3427 19.801H70.9805Z" fill="#064485"/>
<path d="M30.3228 8.04262C30.7845 8.03805 31.2345 7.89472 31.6162 7.63067C31.9979 7.36662 32.2942 6.99367 32.4678 6.55879C32.6414 6.12391 32.6845 5.64654 32.5917 5.18682C32.4988 4.72709 32.2743 4.30556 31.9462 3.97532C31.6181 3.64508 31.2013 3.4209 30.7481 3.33101C30.2949 3.24112 29.8257 3.28955 29.3996 3.47018C28.9734 3.65082 28.6094 3.95559 28.3533 4.34611C28.0972 4.73663 27.9606 5.19544 27.9606 5.66475C27.9646 6.29816 28.2155 6.90411 28.6583 7.34983C29.101 7.79555 29.6996 8.04468 30.3228 8.04262Z" fill="#064485"/>
<path d="M96.8595 16.157H89.6285V14.9912H92.5832V13.4471H93.92V14.9912H96.8595V16.157ZM93.2516 21.7851C92.8154 21.7969 92.3806 21.7289 91.968 21.5844C91.6308 21.4685 91.3188 21.2876 91.0489 21.0517C90.8149 20.8349 90.6263 20.5723 90.4944 20.2797C90.3747 20.0049 90.3126 19.7078 90.3121 19.4073V19.029C90.3129 18.7173 90.3813 18.4097 90.5127 18.1281C90.644 17.8465 90.8349 17.5979 91.0717 17.4C91.345 17.1691 91.6561 16.9888 91.9908 16.8673C92.8262 16.5995 93.7226 16.5995 94.5581 16.8673C94.8943 16.9889 95.2058 17.1721 95.4771 17.4077C95.7127 17.6231 95.9016 17.886 96.0316 18.1797C96.1514 18.4518 96.2135 18.7464 96.2139 19.0444V19.4613C96.2134 19.7618 96.1514 20.059 96.0316 20.3337C95.8997 20.6263 95.7111 20.8889 95.4771 21.1058C95.2072 21.3416 94.8952 21.5225 94.5581 21.6385C94.1349 21.7674 93.6922 21.8171 93.2516 21.7851ZM93.2516 20.6889C93.509 20.6967 93.7658 20.6602 94.0112 20.5808C94.2032 20.5155 94.3812 20.4133 94.5353 20.2797C94.6669 20.1603 94.7707 20.0126 94.8391 19.8473C94.9075 19.6918 94.9437 19.5236 94.9454 19.3532V19.0753C94.943 18.905 94.9069 18.7369 94.8391 18.5812C94.7704 18.4183 94.6666 18.2732 94.5353 18.1566C94.3829 18.0246 94.2078 17.9225 94.0188 17.8555C93.543 17.7113 93.0362 17.7113 92.5604 17.8555C92.3714 17.9225 92.1963 18.0246 92.0439 18.1566C91.9126 18.2732 91.8088 18.4183 91.7401 18.5812C91.6723 18.7369 91.6362 18.905 91.6338 19.0753V19.3532C91.6355 19.5236 91.6717 19.6918 91.7401 19.8473C91.8085 20.0126 91.9123 20.1603 92.0439 20.2797C92.198 20.4133 92.376 20.5155 92.568 20.5808C92.7891 20.6519 93.0197 20.6884 93.2516 20.6889ZM93.0845 25.0509H99.7762V26.2475H91.7325V22.7039H93.0845V25.0509ZM101.219 18.5812H99.4344V22.8892H98.09V13.6247H99.4344V17.4309H101.219V18.5812Z" fill="#032D59"/>
<path d="M103.065 22.0244H106.635V19.801H101.576V18.6352H109.711C109.829 18.1399 109.912 17.6369 109.961 17.1297C110.007 16.6356 110.03 16.1878 110.03 15.7709V15.2537H103.095V14.0879H111.397V15.825C111.397 16.2187 111.397 16.6588 111.329 17.1529C111.284 17.6505 111.213 18.1453 111.116 18.6352H113.174V19.801H108.032V22.0244H111.564V26.51H110.204V23.1902H103.095L103.065 22.0244Z" fill="#032D59"/>
<path d="M122.866 22.719V18.1486H119.706C119.565 18.4511 119.372 18.7256 119.136 18.9592C118.839 19.2494 118.513 19.5081 118.164 19.7313C117.689 20.0405 117.197 20.3215 116.691 20.5728C116.113 20.8584 115.422 21.175 114.632 21.5147L114.1 20.4029C115.073 19.9706 115.863 19.5923 116.455 19.2758C116.947 19.0227 117.413 18.7201 117.845 18.3725C118.126 18.1474 118.352 17.8594 118.506 17.531C118.617 17.2273 118.671 16.9052 118.665 16.5813V15.5623H114.617V14.3965H120.01V16.813C120.014 16.8643 120.014 16.916 120.01 16.9674H122.896V13.5781H124.233V22.719H122.866ZM117.686 25.0352H124.461V26.2318H116.326V22.0396H117.686V25.0352Z" fill="#032D59"/>
<path d="M130.56 15.5314H126.542V14.3965H131.858V16.4115C131.871 16.886 131.791 17.3584 131.623 17.8012C131.439 18.2339 131.152 18.6133 130.787 18.9052C130.284 19.3225 129.733 19.6775 129.147 19.9629C128.456 20.318 127.574 20.7349 126.496 21.1904L125.995 20.0787C126.959 19.6772 127.734 19.3066 128.326 19.0055C128.817 18.7635 129.28 18.4684 129.709 18.1254C129.991 17.9016 130.217 17.6133 130.37 17.2839C130.48 16.9747 130.534 16.6477 130.529 16.3189L130.56 15.5314ZM128.182 23.7459C128.181 23.4136 128.27 23.0875 128.44 22.804C128.633 22.4918 128.893 22.2279 129.2 22.0319C129.568 21.789 129.974 21.6115 130.4 21.5069C130.918 21.3675 131.452 21.3 131.988 21.3062C132.526 21.3005 133.062 21.368 133.583 21.5069C134.009 21.613 134.414 21.7904 134.783 22.0319C135.09 22.2279 135.349 22.4918 135.542 22.804C135.709 23.0889 135.799 23.4141 135.8 23.7459V24.3017C135.797 24.6357 135.708 24.9631 135.542 25.2513C135.35 25.564 135.09 25.8281 134.783 26.0234C134.413 26.2644 134.008 26.4442 133.583 26.5561C133.062 26.6919 132.525 26.7568 131.988 26.7491C131.452 26.7577 130.918 26.6927 130.4 26.5561C129.974 26.4456 129.569 26.2657 129.2 26.0234C128.892 25.8281 128.633 25.564 128.44 25.2513C128.271 24.9646 128.182 24.6362 128.182 24.3017V23.7459ZM134.456 23.8308C134.452 23.6477 134.394 23.4702 134.289 23.3212C134.158 23.1379 133.989 22.9852 133.795 22.8735C133.557 22.7316 133.302 22.6225 133.036 22.5492C132.698 22.4651 132.351 22.4236 132.003 22.4257C131.655 22.4245 131.308 22.466 130.97 22.5492C130.703 22.6217 130.448 22.7308 130.21 22.8735C130.016 22.9852 129.848 23.1379 129.716 23.3212C129.612 23.4702 129.553 23.6477 129.549 23.8308V24.2168C129.552 24.4 129.611 24.5779 129.716 24.7263C129.847 24.9121 130.016 25.0674 130.21 25.1818C130.45 25.3185 130.705 25.4248 130.97 25.4984C131.307 25.5854 131.655 25.6269 132.003 25.6219C132.351 25.6278 132.698 25.5863 133.036 25.4984C133.3 25.4242 133.555 25.3179 133.795 25.1818C133.99 25.0674 134.158 24.9121 134.289 24.7263C134.395 24.5779 134.453 24.4 134.456 24.2168V23.8308ZM137.494 17.6545H135.732V21.1055H134.388V13.5781H135.732V16.4964H137.517L137.494 17.6545Z" fill="#032D59"/>
<path d="M138.407 22.4952C139.167 22.0628 139.759 21.6768 140.261 21.3371C140.699 21.0487 141.123 20.7369 141.529 20.4029C141.808 20.1734 142.063 19.9146 142.289 19.6309C142.469 19.3961 142.615 19.1361 142.721 18.8589C142.815 18.6112 142.874 18.3512 142.896 18.0868C142.896 17.8243 142.934 17.5232 142.934 17.1835V15.9406H138.627V14.7593H144.317V17.2144C144.317 17.6313 144.317 17.9865 144.317 18.3493C144.295 18.6762 144.228 18.9984 144.119 19.3066C143.997 19.6235 143.834 19.9222 143.633 20.1945C143.366 20.5408 143.063 20.8566 142.729 21.1364C142.342 21.4683 141.856 21.8312 141.278 22.2327C140.701 22.6341 139.995 23.0819 139.167 23.5914L138.407 22.4952ZM146.967 26.3553V13.5781H148.319V26.3862L146.967 26.3553Z" fill="#032D59"/>
<path d="M161.543 19.5773V20.7431H149.975V19.5773H161.543ZM153.066 14.0187V17.1068H159.902V18.2572H151.729V14.0187H153.066ZM155.763 26.7496C155.211 26.7541 154.66 26.6945 154.122 26.572C153.686 26.4795 153.268 26.3152 152.884 26.0856C152.574 25.8935 152.313 25.6288 152.124 25.3136C151.946 25.0442 151.851 24.7271 151.851 24.4026V23.9702C151.85 23.6407 151.945 23.3184 152.124 23.0438C152.321 22.7469 152.58 22.4988 152.884 22.3181C153.27 22.0945 153.687 21.933 154.122 21.8394C154.66 21.7169 155.211 21.6574 155.763 21.6618C156.309 21.6573 156.855 21.7169 157.388 21.8394C157.823 21.9367 158.24 22.1007 158.626 22.3258C158.927 22.5107 159.186 22.758 159.386 23.0515C159.573 23.3195 159.672 23.6414 159.667 23.9702V24.4335C159.667 24.7557 159.572 25.0706 159.393 25.3367C159.2 25.6483 158.94 25.912 158.634 26.1088C158.247 26.3341 157.83 26.5006 157.396 26.6029C156.859 26.7146 156.311 26.7638 155.763 26.7496ZM155.763 22.789C155.408 22.7885 155.055 22.8221 154.707 22.8894C154.423 22.9468 154.147 23.0401 153.887 23.1673C153.683 23.2637 153.501 23.4032 153.355 23.5765C153.232 23.705 153.161 23.876 153.157 24.0552V24.3563C153.161 24.5354 153.232 24.7064 153.355 24.8349C153.501 25.0082 153.683 25.1477 153.887 25.2441C154.147 25.3713 154.423 25.4647 154.707 25.522C155.402 25.6559 156.116 25.6559 156.811 25.522C157.095 25.4647 157.37 25.3713 157.631 25.2441C157.834 25.1456 158.015 25.0064 158.163 24.8349C158.286 24.7064 158.356 24.5354 158.36 24.3563V24.0552C158.356 23.876 158.286 23.705 158.163 23.5765C158.015 23.405 157.834 23.2658 157.631 23.1673C157.37 23.0401 157.095 22.9468 156.811 22.8894C156.465 22.8224 156.114 22.7888 155.763 22.789Z" fill="#032D59"/>
<path d="M166.009 17.9556C165.933 18.1408 165.822 18.3088 165.682 18.4497C165.5 18.6658 165.302 18.8666 165.097 19.0673C164.892 19.268 164.482 19.6309 164.095 19.9552C163.707 20.2794 163.335 20.5882 162.978 20.8816L162.173 19.9088C162.386 19.7467 162.606 19.5769 162.818 19.3993L163.434 18.882C163.631 18.7199 163.813 18.5578 163.973 18.4034C164.133 18.249 164.284 18.1177 164.398 17.9942C164.553 17.8363 164.696 17.6659 164.824 17.4846C164.935 17.3295 165.027 17.161 165.097 16.9828C165.167 16.8066 165.215 16.6226 165.241 16.4347C165.267 16.2195 165.28 16.0029 165.279 15.7862V14.1031H166.647V15.7321C166.647 15.9406 166.647 16.1336 166.647 16.3034C166.657 16.4656 166.685 16.6262 166.73 16.7821C166.784 16.9366 166.855 17.0843 166.943 17.2221C167.055 17.3855 167.188 17.5334 167.338 17.6622C167.657 17.9556 168.006 18.2644 168.394 18.5809C168.781 18.8975 169.153 19.214 169.594 19.5074L168.834 20.4647C168.477 20.2022 168.135 19.9243 167.801 19.6463L166.814 18.8125C166.632 18.6616 166.459 18.4991 166.297 18.3262C166.192 18.2157 166.103 18.091 166.031 17.9556H166.009ZM164.178 21.6922H172.48V26.5097H171.128V22.8889H164.178V21.6922ZM171.136 13.5781H172.48V21.0206H171.136V13.5781Z" fill="#032D59"/>
<path d="M185.741 19.4534V20.6191H180.637V22.0397H184.086V26.3708H175.829V22.0397H179.255V20.6191H174.151V19.4534H185.741ZM175.457 17.4075H177.151V15.1686H175.525V14.0723H184.329V15.1686H182.703V17.4075H184.397V18.5346H175.457V17.4075ZM182.718 23.19H177.136V25.205H182.718V23.19ZM178.495 17.4075H181.389V15.1686H178.495V17.4075Z" fill="#032D59"/>
<path d="M193.688 16.0645H186.396V14.9064H189.328V13.4087H190.65V14.9064H193.688V16.0645ZM190.012 20.9129C189.544 20.9259 189.077 20.8607 188.629 20.7199C188.302 20.6137 187.996 20.449 187.725 20.2335C187.514 20.0561 187.345 19.8315 187.232 19.5773C187.138 19.3578 187.089 19.1215 187.087 18.8824V18.5196C187.091 18.2807 187.14 18.0447 187.232 17.8247C187.347 17.5717 187.515 17.3476 187.725 17.1685C187.992 16.9473 188.299 16.782 188.629 16.6821C189.078 16.5487 189.544 16.4862 190.012 16.4968C190.486 16.4902 190.958 16.5632 191.409 16.713C191.734 16.8191 192.038 16.9838 192.305 17.1994C192.519 17.372 192.688 17.5945 192.799 17.8479C192.893 18.0674 192.945 18.3033 192.951 18.5427V18.9056C192.946 19.1452 192.895 19.3814 192.799 19.6004C192.689 19.8563 192.52 20.0815 192.305 20.2567C192.038 20.4722 191.734 20.637 191.409 20.743C190.951 20.8789 190.473 20.9363 189.996 20.9129H190.012ZM190.012 19.8166C190.269 19.8192 190.525 19.7828 190.771 19.7085C190.954 19.6537 191.126 19.5675 191.28 19.4537C191.392 19.3654 191.485 19.2551 191.554 19.1295C191.603 19.026 191.629 18.9125 191.629 18.7975V18.6045C191.627 18.4947 191.601 18.3868 191.554 18.288C191.5 18.155 191.41 18.04 191.295 17.956C191.141 17.8367 190.965 17.7477 190.779 17.6935C190.519 17.619 190.251 17.5852 189.981 17.5931C189.709 17.5858 189.438 17.6197 189.176 17.6935C188.993 17.7457 188.823 17.835 188.675 17.956C188.56 18.04 188.471 18.155 188.417 18.288C188.369 18.3868 188.343 18.4947 188.341 18.6045V18.7975C188.341 18.9125 188.367 19.026 188.417 19.1295C188.474 19.2606 188.566 19.3729 188.682 19.4537C188.834 19.5675 189.003 19.6537 189.184 19.7085C189.448 19.7823 189.722 19.8136 189.996 19.8012L190.012 19.8166ZM196.848 21.4533V26.3866H188.941V21.4533H190.277V22.7581H195.465V21.4533H196.848ZM195.465 25.2054V23.9161H190.277V25.2054H195.465ZM195.465 20.8125V19.9092H193.612V18.7589H195.465V17.7012H193.612V16.5509H195.465V13.5785H196.787V20.828L195.465 20.8125Z" fill="#032D59"/>
<path d="M207.056 23.746L205.384 23.885C204.853 23.9236 204.268 23.9545 203.63 23.9853C202.992 24.0162 202.285 24.0317 201.488 24.0394H198.685V22.889H200.561C201.123 22.889 201.655 22.889 202.149 22.889V21.592C201.788 21.5532 201.436 21.4622 201.101 21.3218C200.824 21.1974 200.568 21.0307 200.341 20.8277C200.138 20.6482 199.975 20.4272 199.863 20.1792C199.748 19.9387 199.691 19.6742 199.695 19.4072V18.8822C199.698 18.5965 199.768 18.3157 199.9 18.0638C200.046 17.7892 200.252 17.5516 200.501 17.369C200.79 17.1479 201.117 16.983 201.465 16.8826C201.884 16.7535 202.319 16.691 202.756 16.6973C203.194 16.6899 203.629 16.7524 204.048 16.8826C204.396 16.983 204.723 17.1479 205.012 17.369C205.261 17.5516 205.466 17.7892 205.612 18.0638C205.745 18.3157 205.815 18.5965 205.817 18.8822V19.4072C205.814 19.6611 205.759 19.9115 205.656 20.1427C205.553 20.3739 205.403 20.5809 205.217 20.7505C204.742 21.1841 204.144 21.4542 203.508 21.5225V22.7732C204.169 22.7732 204.762 22.7192 205.309 22.6806L206.972 22.5339L207.056 23.746ZM206.296 16.2032H199.004V15.022H202.042V13.4779H203.387V15.022H206.311L206.296 16.2032ZM202.711 20.4957C202.968 20.5014 203.224 20.4676 203.47 20.3954C203.67 20.3443 203.858 20.2552 204.025 20.1329C204.165 20.0396 204.28 19.9122 204.359 19.7623C204.433 19.6304 204.472 19.4816 204.473 19.3299V19.0289C204.473 18.876 204.431 18.7263 204.351 18.5965C204.268 18.45 204.154 18.3237 204.017 18.2259C203.854 18.1021 203.668 18.0128 203.47 17.9634C202.973 17.8281 202.449 17.8281 201.951 17.9634C201.755 18.0161 201.569 18.1051 201.404 18.2259C201.268 18.3237 201.154 18.45 201.07 18.5965C201.002 18.7302 200.966 18.8783 200.964 19.0289V19.3377C200.965 19.4893 201.004 19.6381 201.078 19.77C201.162 19.9165 201.276 20.0429 201.412 20.1406C201.575 20.2645 201.761 20.3537 201.959 20.4031C202.211 20.4743 202.472 20.5055 202.734 20.4957H202.711ZM207.663 26.3864V13.5783H209V26.3864H207.663Z" fill="#032D59"/>
</svg>
