<svg width="220" height="24" viewBox="0 0 220 24" fill="none" xmlns="http://www.w3.org/2000/svg">
<path d="M103.957 7.42358V16.4161H102.38V12.1581H99.345L99.3152 12.2176C99.1665 12.4856 98.9879 12.7536 98.7201 12.9918C98.4523 13.23 98.125 13.498 97.7085 13.7362C97.2919 14.0042 96.7861 14.2722 96.191 14.5402C95.6256 14.8082 94.9413 15.1357 94.1677 15.4633L93.5131 14.1829C94.4355 13.766 95.2091 13.4385 95.8042 13.1407C96.3993 12.8429 96.8753 12.5452 97.2026 12.2772C97.5299 12.0092 97.768 11.7114 97.887 11.4137C98.006 11.1159 98.0655 10.7883 98.0655 10.4013V9.53773H94.0486V8.22755H99.6425V10.8479H102.38V7.42358H103.957Z" fill="#2C2F31"/>
<path d="M104.165 18.7089V20.0191H95.834V15.9397H97.4407V18.7089H104.165Z" fill="#2C2F31"/>
<path d="M117.525 10.3119V11.6519H115.799V14.8678H114.222V7.42358H115.799V10.3119H117.525Z" fill="#2C2F31"/>
<path d="M115.591 16.565C115.412 16.2672 115.145 15.9993 114.817 15.7908C114.49 15.5824 114.074 15.4037 113.597 15.2846C113.121 15.1655 112.586 15.106 111.991 15.106C111.396 15.106 110.86 15.1655 110.384 15.2846C109.908 15.4037 109.491 15.5824 109.164 15.7908C108.837 15.9993 108.569 16.2672 108.39 16.565C108.212 16.8628 108.123 17.1903 108.123 17.5476V18.1432C108.123 18.5005 108.212 18.828 108.39 19.1258C108.569 19.4236 108.837 19.6916 109.164 19.9C109.491 20.1084 109.908 20.2871 110.384 20.4062C110.86 20.5253 111.396 20.5849 111.991 20.5849C112.586 20.5849 113.121 20.5253 113.597 20.4062C114.074 20.2871 114.49 20.1084 114.817 19.9C115.145 19.6916 115.412 19.4236 115.591 19.1258C115.77 18.828 115.859 18.5005 115.859 18.1432V17.5476C115.859 17.1903 115.77 16.8628 115.591 16.565ZM114.312 17.9943C114.312 18.1432 114.252 18.3218 114.133 18.4707C114.014 18.6196 113.865 18.7685 113.657 18.8876C113.449 19.0067 113.211 19.096 112.913 19.1854C112.616 19.2449 112.288 19.3045 111.931 19.3045C111.574 19.3045 111.247 19.2747 110.949 19.1854C110.652 19.096 110.414 19.0067 110.205 18.8876C109.997 18.7685 109.848 18.6196 109.729 18.4707C109.61 18.3218 109.551 18.173 109.551 17.9943V17.637C109.551 17.4881 109.61 17.3094 109.729 17.1605C109.848 17.0117 109.997 16.8926 110.205 16.7437C110.414 16.6246 110.652 16.5352 110.949 16.4459C111.247 16.3864 111.574 16.3268 111.931 16.3268C112.288 16.3268 112.616 16.3566 112.913 16.4459C113.211 16.5055 113.449 16.6246 113.657 16.7437C113.865 16.8628 114.014 17.0117 114.133 17.1605C114.252 17.3094 114.312 17.4881 114.312 17.637V17.9943Z" fill="#2C2F31"/>
<path d="M111.872 8.19775V10.3417C111.872 10.699 111.842 11.0265 111.783 11.3243C111.723 11.5923 111.604 11.8901 111.455 12.1283C111.306 12.3665 111.098 12.6047 110.83 12.8429C110.563 13.0811 110.235 13.3193 109.819 13.5576C109.402 13.7958 108.926 14.034 108.361 14.302C107.825 14.5402 107.171 14.838 106.486 15.1357L105.861 13.8553C106.813 13.4682 107.587 13.1109 108.152 12.8429C108.748 12.5452 109.224 12.2772 109.551 12.0092C109.878 11.7412 110.086 11.4732 110.206 11.1754C110.295 10.9074 110.354 10.5799 110.354 10.1928V9.50793H106.397V8.19775H111.872Z" fill="#2C2F31"/>
<path d="M124.637 8.58495V11.0564C124.637 11.5031 124.607 11.9199 124.577 12.307C124.518 12.6644 124.428 13.0217 124.309 13.3492C124.19 13.6768 123.982 13.9745 123.744 14.2723C123.506 14.5701 123.179 14.8976 122.792 15.1954C122.405 15.5229 121.929 15.8802 121.364 16.2376C120.828 16.5949 120.174 17.0118 119.43 17.4584L118.597 16.2376C119.251 15.8505 119.846 15.4931 120.322 15.1656C120.798 14.8381 121.245 14.5403 121.572 14.2723C121.899 14.0043 122.167 13.7363 122.375 13.4683C122.584 13.2301 122.732 12.9621 122.822 12.6941C122.911 12.4261 123 12.1582 123.03 11.8902C123.06 11.6222 123.06 11.2946 123.06 10.9373V9.89513H118.805V8.55518L124.637 8.58495Z" fill="#2C2F31"/>
<path d="M128.802 7.42358H127.196V20.1382H128.802V7.42358Z" fill="#2C2F31"/>
<path d="M140.02 16.833C139.811 16.5352 139.514 16.297 139.127 16.1184C138.74 15.9397 138.324 15.7908 137.818 15.7015C137.312 15.6122 136.776 15.5526 136.211 15.5526C135.646 15.5526 135.11 15.6122 134.604 15.7015C134.098 15.7908 133.652 15.9397 133.295 16.1184C132.938 16.297 132.64 16.5352 132.402 16.833C132.194 17.101 132.075 17.4583 132.075 17.8454V18.2623C132.075 18.6494 132.194 18.9769 132.402 19.2747C132.611 19.5725 132.908 19.8107 133.295 19.9893C133.682 20.168 134.098 20.3169 134.604 20.4062C135.616 20.6146 136.806 20.6146 137.818 20.4062C138.324 20.3169 138.77 20.168 139.127 19.9893C139.484 19.8107 139.782 19.5725 140.02 19.2747C140.228 19.0067 140.347 18.6494 140.347 18.2623V17.8454C140.317 17.4285 140.228 17.101 140.02 16.833ZM138.77 18.1432C138.77 18.3516 138.681 18.5005 138.532 18.6494C138.383 18.7983 138.175 18.9174 137.937 19.0067C137.699 19.096 137.431 19.1854 137.133 19.2151C136.836 19.2747 136.538 19.3045 136.211 19.3045C135.884 19.3045 135.586 19.2747 135.289 19.2151C134.991 19.1556 134.723 19.096 134.485 19.0067C134.247 18.9174 134.039 18.7983 133.89 18.6494C133.741 18.5005 133.652 18.3218 133.652 18.1432V17.9347C133.652 17.7561 133.741 17.5774 133.89 17.4285C134.039 17.2797 134.247 17.1606 134.485 17.0712C134.723 16.9819 134.991 16.8926 135.289 16.8628C135.884 16.7735 136.538 16.7735 137.133 16.8628C137.431 16.9223 137.699 16.9819 137.937 17.0712C138.175 17.1606 138.383 17.2797 138.532 17.4285C138.681 17.5774 138.77 17.7561 138.77 17.9347V18.1432Z" fill="#2C2F31"/>
<path d="M140.377 10.9074V12.1581H132.016V7.84045H133.592V10.9074H140.377Z" fill="#2C2F31"/>
<path d="M142.073 13.4087H130.32V14.6593H142.073V13.4087Z" fill="#2C2F31"/>
<path d="M153.32 7.42358H151.743V14.7784H153.32V7.42358Z" fill="#2C2F31"/>
<path d="M153.32 15.5526V20.2871H151.743V16.833H144.869V15.5526H153.32Z" fill="#2C2F31"/>
<path d="M150.374 13.1705L149.481 14.2425C149.243 14.0638 148.976 13.8554 148.678 13.6469C148.351 13.4087 148.023 13.1407 147.726 12.9025C147.488 12.6941 147.28 12.5452 147.101 12.3963C146.952 12.2474 146.833 12.1283 146.803 12.039L146.774 11.9794H146.625L146.595 12.039C146.565 12.1283 146.476 12.2772 146.327 12.4261C146.179 12.6048 145.97 12.7834 145.762 12.9621C145.435 13.2598 145.137 13.5278 144.81 13.8256C144.512 14.0936 144.155 14.3616 143.739 14.6891L142.757 13.5576C143.084 13.2896 143.441 13.0216 143.798 12.7239C144.185 12.3963 144.542 12.0688 144.869 11.771C145.197 11.4435 145.465 11.0861 145.613 10.7586C145.762 10.4311 145.851 10.0142 145.851 9.53775V7.92981H147.458V9.4782C147.458 9.74619 147.458 9.95462 147.488 10.1631C147.518 10.3715 147.577 10.5502 147.637 10.699C147.696 10.8777 147.815 11.0266 147.934 11.1755C148.053 11.3244 148.202 11.4732 148.41 11.6519C148.738 11.9497 149.095 12.2177 149.452 12.4856C149.749 12.6941 150.047 12.9323 150.374 13.1705Z" fill="#2C2F31"/>
<path d="M166.769 14.6594V13.4386H155.016V14.6594H160.104V15.8803H156.682V20.1384H165.103V15.8803H161.681V14.6594H166.769V14.6594ZM163.526 17.1011V18.9473H158.229V17.1011H163.526Z" fill="#2C2F31"/>
<path d="M163.823 11.2052V9.03152H165.311V7.84045H156.444V9.03152H157.932V11.2052H156.355V12.3963H165.4V11.2052H163.823ZM162.276 11.2052H159.509V9.03152H162.276V11.2052Z" fill="#2C2F31"/>
<path d="M180.813 16.565C180.605 16.2673 180.337 16.029 179.98 15.8206C179.623 15.6122 179.206 15.4633 178.7 15.3442C178.224 15.2251 177.689 15.1655 177.123 15.1655C176.558 15.1655 176.022 15.2251 175.517 15.3442C175.041 15.4633 174.624 15.6122 174.267 15.8206C173.91 16.029 173.642 16.2673 173.434 16.565C173.225 16.8628 173.136 17.1903 173.136 17.5477V18.1432C173.136 18.5005 173.225 18.8578 173.434 19.1258C173.642 19.4236 173.91 19.6618 174.267 19.8702C174.624 20.0787 175.041 20.2276 175.517 20.3467C175.993 20.4658 176.528 20.4956 177.123 20.4956C177.689 20.4956 178.224 20.436 178.7 20.3467C179.176 20.2276 179.623 20.0787 179.98 19.8702C180.337 19.6618 180.605 19.4236 180.813 19.1258C181.021 18.8281 181.11 18.5005 181.11 18.1432V17.5477C181.11 17.1903 181.021 16.8628 180.813 16.565ZM179.563 18.0241C179.563 18.2027 179.474 18.3814 179.355 18.5601C179.206 18.709 179.028 18.8578 178.819 18.9472C178.611 19.0663 178.343 19.1556 178.046 19.2152C177.748 19.2747 177.451 19.3045 177.153 19.3045C176.826 19.3045 176.528 19.2747 176.26 19.2152C175.963 19.1556 175.725 19.0663 175.487 18.9472C175.249 18.8281 175.07 18.709 174.951 18.5601C174.802 18.4112 174.743 18.2325 174.743 18.0241V17.6965C174.743 17.5179 174.832 17.3392 174.951 17.1606C175.1 17.0117 175.279 16.8926 175.487 16.7735C175.695 16.6544 175.963 16.565 176.26 16.5055C176.826 16.3864 177.51 16.3864 178.076 16.5055C178.373 16.565 178.611 16.6544 178.849 16.7735C179.057 16.8926 179.266 17.0117 179.385 17.1606C179.533 17.3094 179.593 17.4881 179.593 17.6965L179.563 18.0241Z" fill="#0349C3"/>
<path d="M178.046 13.4683L177.213 14.5403C176.618 14.1532 176.052 13.7661 175.576 13.4088C175.279 13.2003 175.041 13.0217 174.862 12.8728C174.624 12.6941 174.594 12.6048 174.565 12.575L174.535 12.5155H174.386L174.356 12.575C174.356 12.6048 174.297 12.7239 174.059 12.9324C173.88 13.111 173.613 13.3194 173.285 13.5874C172.988 13.8257 172.69 14.0639 172.363 14.3021C172.065 14.5105 171.768 14.7487 171.44 14.9572L170.518 13.8257C170.935 13.5577 171.321 13.2599 171.708 12.9621C172.095 12.6644 172.452 12.3666 172.75 12.0986C172.988 11.8902 173.196 11.6222 173.345 11.3542C173.494 11.0862 173.553 10.7587 173.553 10.4013V9.44848H171.024V8.13831H177.57V9.44848H175.13V10.4013C175.13 10.58 175.13 10.7289 175.16 10.8778C175.19 11.0266 175.249 11.1755 175.309 11.2946C175.368 11.4435 175.487 11.5626 175.606 11.6817C175.725 11.8008 175.874 11.9497 176.082 12.0986C176.38 12.3368 176.707 12.5453 177.034 12.7835C177.391 13.0515 177.719 13.2599 178.046 13.4683Z" fill="#0349C3"/>
<path d="M181.081 7.42358V14.9273H179.504V11.9199H177.421V10.6097H179.504V7.42358H181.081Z" fill="#0349C3"/>
<path d="M189.442 17.2201V14.9273H192.923V8.31689H191.346V10.3715H185.961V8.31689H184.384V14.9273H187.865V17.2201H182.777V18.5303H194.53V17.2201C194.53 17.2201 189.442 17.2201 189.442 17.2201ZM185.961 13.6469V11.6817H191.346V13.6469H185.961Z" fill="#0349C3"/>
<path d="M201.79 17.2498V14.8677H205.658V13.5873H204.022V9.71632H205.539V8.4657H196.434V9.7461H198.011V13.6171H196.345V14.8975H200.213V17.2796H195.125V18.56H206.878V17.2796H201.79V17.2498ZM199.588 13.5873V9.71632H202.445V13.5873H199.588Z" fill="#0349C3"/>
<path d="M218.482 19.096V20.2871H210.121V16.833H216.578V15.7312H210.032V14.5402H218.096V17.9645H211.639V19.096H218.482Z" fill="#0349C3"/>
<path d="M214.912 13.3789C214.525 13.4087 214.138 13.4385 213.722 13.4682C213.275 13.498 212.74 13.5278 212.174 13.5278C211.609 13.5278 210.954 13.5576 210.27 13.5576C209.586 13.5576 208.842 13.5576 208.009 13.5576V7.84045H213.9V9.03152H209.556V10.1035H213.603V11.2945H209.556V12.3665H209.645C210.597 12.3665 211.52 12.3665 212.323 12.3367C213.127 12.307 213.96 12.2772 214.793 12.1878L214.912 13.3789Z" fill="#0349C3"/>
<path d="M217.947 7.63208V13.9745H216.37V11.3542H214.317V10.1631H216.37V7.63208H217.947Z" fill="#0349C3"/>
<path d="M51.1681 10.6484V8.01806C51.1681 7.72872 50.9316 7.49198 50.6425 7.49198H39.0774C38.7882 7.49198 38.5517 7.72872 38.5517 8.01806V11.4376C38.5517 11.7269 38.7882 11.9636 39.0774 11.9636H50.9053C51.4047 11.9636 51.8778 12.0425 52.3247 12.2267C53.6389 12.7264 54.6114 13.9364 54.8217 15.3831C54.8217 15.462 54.848 15.5673 54.848 15.6462C54.848 15.7251 54.848 15.8303 54.848 15.9092V19.8548C54.848 21.2489 54.112 22.4852 53.0081 23.1954C52.4824 23.5373 51.8515 23.7477 51.1681 23.8004C51.0893 23.8004 50.9842 23.8004 50.9053 23.8004H38.8145C38.7357 23.8004 38.6305 23.8004 38.5517 23.8004C36.5015 23.6688 34.8719 21.9591 34.8719 19.8548V18.487L38.5517 16.9614V19.5917C38.5517 19.8811 38.7882 20.1178 39.0774 20.1178H50.6425C50.9316 20.1178 51.1681 19.8811 51.1681 19.5917V16.1722C51.1681 15.8829 50.9316 15.6462 50.6425 15.6462H38.8145C38.3151 15.6462 37.842 15.541 37.3952 15.3831C36.1598 14.9097 35.2135 13.8049 34.9507 12.4897C34.9244 12.3056 34.8981 12.1478 34.8981 11.9636C34.8981 11.8847 34.8981 11.7795 34.8981 11.7006V7.75502C34.8981 7.67611 34.8981 7.57089 34.8981 7.49198C34.8981 7.46568 34.8981 7.43938 34.8981 7.41307C34.9244 7.07112 35.0033 6.75548 35.1084 6.43983C35.6341 4.91421 37.106 3.80945 38.8145 3.80945H50.9053C50.9842 3.80945 51.0893 3.80945 51.1681 3.80945C52.0881 3.86206 52.9029 4.23031 53.5337 4.80899C54.3486 5.5455 54.848 6.57135 54.848 7.75502V9.12282L51.1681 10.6484ZM82.1837 3.80945V18.2239L70.0929 3.80945H65.8874V23.8004H69.5672V9.43847L81.6054 23.8004H85.8635V3.80945H82.1837V3.80945ZM62.2076 3.80945H58.5278V23.8004H62.2076V3.80945ZM14.6592 17.4874C14.2124 17.6716 13.713 17.7505 13.1873 17.7505C12.7404 17.7505 12.3199 17.6716 11.8993 17.5663C11.5576 17.4611 11.2159 17.6979 11.2159 18.0661V23.8267H14.8958V17.6979C14.8958 17.54 14.7643 17.4348 14.6592 17.4874ZM27.5122 3.80945V11.9636H18.9698C18.1024 11.9636 17.3928 12.6738 17.3928 13.5419C17.3928 14.1995 17.2351 14.8307 16.9722 15.3831C16.9196 15.5146 16.9985 15.6462 17.1299 15.6462H27.5122V23.8004H31.192V3.80945H27.5122V3.80945Z" fill="url(#paint0_linear_900:93097)"/>
<path d="M16.4728 4.8617C15.3162 4.8617 14.37 5.80864 14.37 6.96601C14.37 7.67621 14.7117 8.3075 15.2637 8.67576C15.3425 8.70206 15.3951 8.75467 15.474 8.80728C15.7631 8.9651 16.1048 9.07031 16.4728 9.07031C17.6293 9.07031 18.5755 8.12338 18.5755 6.96601C18.5755 5.80864 17.6293 4.8617 16.4728 4.8617ZM2.8049 2.7574C1.64838 2.7574 0.702148 3.70433 0.702148 4.8617C0.702148 6.01907 1.64838 6.96601 2.8049 6.96601C3.96141 6.96601 4.90764 6.01907 4.90764 4.8617C4.90764 3.70433 3.96141 2.7574 2.8049 2.7574ZM5.9853 8.01816C5.40705 8.01816 4.93393 8.49163 4.93393 9.07031C4.93393 9.649 5.40705 10.1225 5.9853 10.1225C6.56356 10.1225 7.03668 9.649 7.03668 9.07031C7.03668 8.49163 6.56356 8.01816 5.9853 8.01816ZM16.5779 13.5157C16.5779 15.4095 15.0534 16.9615 13.1346 16.9615C11.2422 16.9615 9.69139 15.4095 9.69139 13.5157C9.69139 12.9896 9.82282 12.4898 10.0331 12.0163C10.0594 11.99 10.0594 11.9637 10.0857 11.9374C10.3748 11.4114 10.5325 10.8064 10.5325 10.1488C10.5325 8.54424 9.55997 7.17644 8.14062 6.59776H8.11433C8.08805 6.59776 8.08805 6.59775 8.06177 6.57145C8.03548 6.57145 8.0092 6.54515 7.98291 6.54515C7.98291 6.54515 7.95663 6.54515 7.95663 6.51884H7.93034C6.74755 6.01907 5.93273 4.8354 5.93273 3.4676C5.93273 2.0735 6.80012 0.889827 8.0092 0.390055C8.40346 0.232232 8.82401 0.15332 9.27085 0.15332C9.71768 0.15332 10.1382 0.232232 10.5325 0.390055C11.7416 0.889827 12.609 2.0735 12.609 3.4676C12.609 3.94107 12.5038 4.38823 12.3198 4.8091V4.8354C12.3198 4.8354 12.3198 4.8617 12.2935 4.8617C12.2673 4.91431 12.241 4.99322 12.1884 5.04583C11.9519 5.5456 11.8467 6.07168 11.8467 6.65036C11.8467 8.3075 12.8981 9.72791 14.37 10.2803C14.3963 10.2803 14.3963 10.2803 14.4226 10.3066C15.6842 10.8064 16.5779 12.0689 16.5779 13.5157Z" fill="url(#paint1_linear_900:93097)"/>
<defs>
<linearGradient id="paint0_linear_900:93097" x1="-0.530874" y1="-1.94651" x2="109.558" y2="33.3391" gradientUnits="userSpaceOnUse">
<stop stop-color="#072A83"/>
<stop offset="0.858" stop-color="#0349C3"/>
</linearGradient>
<linearGradient id="paint1_linear_900:93097" x1="1.96469" y1="-0.140678" x2="22.2173" y2="17.5958" gradientUnits="userSpaceOnUse">
<stop offset="0.2191" stop-color="#D5FF92"/>
<stop offset="0.6543" stop-color="#35D6C6"/>
</linearGradient>
</defs>
</svg>
