<svg width="283" height="31" viewBox="0 0 283 31" fill="none" xmlns="http://www.w3.org/2000/svg">
<path d="M134.278 9.58887V21.2043H132.241V15.7043H128.32L128.282 15.7812C128.09 16.1273 127.859 16.4735 127.513 16.7812C127.168 17.0889 126.745 17.435 126.207 17.7427C125.669 18.0889 125.015 18.435 124.247 18.7812C123.516 19.1273 122.632 19.5504 121.633 19.9735L120.788 18.3196C121.979 17.7812 122.978 17.3581 123.747 16.9735C124.516 16.5889 125.131 16.2043 125.553 15.8581C125.976 15.5119 126.284 15.1273 126.437 14.7427C126.591 14.3581 126.668 13.935 126.668 13.435V12.3196H121.479V10.6273H128.705V14.0119H132.241V9.58887H134.278Z" fill="#646C70"/>
<path d="M134.547 24.1658V25.8581H123.786V20.5889H125.861V24.1658H134.547Z" fill="#646C70"/>
<path d="M151.803 13.3196V15.0504H149.574V19.2042H147.537V9.58887H149.574V13.3196H151.803Z" fill="#646C70"/>
<path d="M149.305 21.3966C149.074 21.012 148.728 20.6658 148.306 20.3966C147.883 20.1273 147.345 19.8966 146.73 19.7427C146.115 19.5889 145.423 19.512 144.655 19.512C143.886 19.512 143.194 19.5889 142.579 19.7427C141.964 19.8966 141.426 20.1273 141.003 20.3966C140.581 20.6658 140.235 21.012 140.004 21.3966C139.774 21.7812 139.658 22.2043 139.658 22.6658V23.435C139.658 23.8966 139.774 24.3197 140.004 24.7043C140.235 25.0889 140.581 25.435 141.003 25.7043C141.426 25.9735 141.964 26.2043 142.579 26.3581C143.194 26.512 143.886 26.5889 144.655 26.5889C145.423 26.5889 146.115 26.512 146.73 26.3581C147.345 26.2043 147.883 25.9735 148.306 25.7043C148.728 25.435 149.074 25.0889 149.305 24.7043C149.536 24.3197 149.651 23.8966 149.651 23.435V22.6658C149.651 22.2043 149.536 21.7812 149.305 21.3966ZM147.652 23.2427C147.652 23.435 147.575 23.6658 147.422 23.8581C147.268 24.0504 147.076 24.2427 146.807 24.3966C146.538 24.5504 146.23 24.6658 145.846 24.7812C145.462 24.8581 145.039 24.935 144.578 24.935C144.116 24.935 143.694 24.8966 143.309 24.7812C142.925 24.6658 142.618 24.5504 142.349 24.3966C142.079 24.2427 141.887 24.0504 141.734 23.8581C141.58 23.6658 141.503 23.4735 141.503 23.2427V22.7812C141.503 22.5889 141.58 22.3581 141.734 22.1658C141.887 21.9735 142.079 21.8197 142.349 21.6273C142.618 21.4735 142.925 21.3581 143.309 21.2427C143.694 21.1658 144.116 21.0889 144.578 21.0889C145.039 21.0889 145.462 21.1273 145.846 21.2427C146.23 21.3197 146.538 21.4735 146.807 21.6273C147.076 21.7812 147.268 21.9735 147.422 22.1658C147.575 22.3581 147.652 22.5889 147.652 22.7812V23.2427Z" fill="#646C70"/>
<path d="M144.501 10.5889V13.3581C144.501 13.8196 144.462 14.2427 144.385 14.6273C144.309 14.9735 144.155 15.3581 143.963 15.6658C143.771 15.9735 143.502 16.2812 143.156 16.5889C142.81 16.8966 142.387 17.2043 141.849 17.5119C141.311 17.8196 140.696 18.1273 139.966 18.4735C139.274 18.7812 138.428 19.1658 137.544 19.5504L136.737 17.8966C137.967 17.3966 138.966 16.935 139.697 16.5889C140.465 16.2043 141.08 15.8581 141.503 15.5119C141.926 15.1658 142.195 14.8196 142.349 14.435C142.464 14.0889 142.541 13.6658 142.541 13.1658V12.2812H137.429V10.5889H144.501Z" fill="#646C70"/>
<path d="M160.989 11.0888V14.2811C160.989 14.858 160.95 15.3964 160.912 15.8964C160.835 16.358 160.72 16.8195 160.566 17.2426C160.412 17.6657 160.143 18.0503 159.836 18.4349C159.528 18.8195 159.106 19.2426 158.606 19.6272C158.106 20.0503 157.492 20.5118 156.761 20.9734C156.069 21.4349 155.224 21.9734 154.263 22.5503L153.187 20.9734C154.033 20.4734 154.801 20.0118 155.416 19.5888C156.031 19.1657 156.608 18.7811 157.03 18.4349C157.453 18.0888 157.799 17.7426 158.068 17.3964C158.337 17.0888 158.529 16.7426 158.645 16.3964C158.76 16.0503 158.875 15.7041 158.914 15.358C158.952 15.0118 158.952 14.5888 158.952 14.1272V12.7811H153.456V11.0503L160.989 11.0888Z" fill="#646C70"/>
<path d="M166.369 9.58887H164.294V26.0119H166.369V9.58887Z" fill="#646C70"/>
<path d="M180.858 21.7427C180.589 21.3581 180.205 21.0504 179.705 20.8196C179.206 20.5889 178.668 20.3966 178.014 20.2812C177.361 20.1658 176.669 20.0889 175.939 20.0889C175.209 20.0889 174.517 20.1658 173.863 20.2812C173.21 20.3966 172.634 20.5889 172.172 20.8196C171.711 21.0504 171.327 21.3581 171.019 21.7427C170.75 22.0889 170.597 22.5504 170.597 23.0504V23.5889C170.597 24.0889 170.75 24.5119 171.019 24.8966C171.288 25.2812 171.673 25.5889 172.172 25.8196C172.672 26.0504 173.21 26.2427 173.863 26.3581C175.17 26.6273 176.708 26.6273 178.014 26.3581C178.668 26.2427 179.244 26.0504 179.705 25.8196C180.167 25.5889 180.551 25.2812 180.858 24.8966C181.127 24.5504 181.281 24.0889 181.281 23.5889V23.0504C181.243 22.5119 181.127 22.0889 180.858 21.7427ZM179.244 23.435C179.244 23.7043 179.129 23.8966 178.937 24.0889C178.744 24.2812 178.475 24.435 178.168 24.5504C177.861 24.6658 177.515 24.7812 177.13 24.8196C176.746 24.8966 176.362 24.935 175.939 24.935C175.516 24.935 175.132 24.8966 174.747 24.8196C174.363 24.7427 174.017 24.6658 173.71 24.5504C173.402 24.435 173.133 24.2812 172.941 24.0889C172.749 23.8966 172.634 23.6658 172.634 23.435V23.1658C172.634 22.935 172.749 22.7042 172.941 22.5119C173.133 22.3196 173.402 22.1658 173.71 22.0504C174.017 21.935 174.363 21.8196 174.747 21.7812C175.516 21.6658 176.362 21.6658 177.13 21.7812C177.515 21.8581 177.861 21.935 178.168 22.0504C178.475 22.1658 178.744 22.3196 178.937 22.5119C179.129 22.7042 179.244 22.935 179.244 23.1658V23.435Z" fill="#646C70"/>
<path d="M181.32 14.0887V15.7041H170.52V10.1272H172.557V14.0887H181.32Z" fill="#646C70"/>
<path d="M183.51 17.3196H168.329V18.935H183.51V17.3196Z" fill="#646C70"/>
<path d="M198.038 9.58887H196.001V19.0889H198.038V9.58887Z" fill="#646C70"/>
<path d="M198.038 20.0889V26.2042H196.001V21.7427H187.123V20.0889H198.038Z" fill="#646C70"/>
<path d="M194.233 17.0119L193.08 18.3965C192.773 18.1658 192.427 17.8965 192.042 17.6273C191.62 17.3196 191.197 16.9734 190.813 16.6658C190.505 16.3965 190.236 16.2042 190.006 16.0119C189.813 15.8196 189.66 15.6658 189.621 15.5504L189.583 15.4734H189.391L189.352 15.5504C189.314 15.6658 189.198 15.8581 189.006 16.0504C188.814 16.2811 188.545 16.5119 188.276 16.7427C187.853 17.1273 187.469 17.4734 187.046 17.8581C186.662 18.2042 186.201 18.5504 185.663 18.9735L184.394 17.5119C184.817 17.1658 185.278 16.8196 185.739 16.435C186.239 16.0119 186.7 15.5888 187.123 15.2042C187.546 14.7811 187.892 14.3196 188.084 13.8965C188.276 13.4734 188.391 12.935 188.391 12.3196V10.2427H190.467V12.2427C190.467 12.5888 190.467 12.8581 190.505 13.1273C190.544 13.3965 190.62 13.6273 190.697 13.8196C190.774 14.0504 190.928 14.2427 191.082 14.435C191.235 14.6273 191.428 14.8196 191.697 15.0504C192.119 15.435 192.581 15.7811 193.042 16.1273C193.426 16.3965 193.81 16.7042 194.233 17.0119Z" fill="#646C70"/>
<path d="M215.41 18.9351V17.3582H200.229V18.9351H206.801V20.512H202.381V26.012H213.258V20.512H208.838V18.9351H215.41ZM211.221 22.0889V24.4735H204.38V22.0889H211.221Z" fill="#646C70"/>
<path d="M211.605 14.4733V11.6657H213.527V10.1272H202.074V11.6657H203.995V14.4733H201.958V16.0118H213.642V14.4733H211.605ZM209.606 14.4733H206.032V11.6657H209.606V14.4733Z" fill="#646C70"/>
<path d="M233.55 21.3966C233.281 21.0119 232.935 20.7043 232.474 20.435C232.013 20.1658 231.475 19.9735 230.821 19.8196C230.206 19.6658 229.515 19.5889 228.784 19.5889C228.054 19.5889 227.362 19.6658 226.709 19.8196C226.094 19.9735 225.556 20.1658 225.095 20.435C224.634 20.7043 224.288 21.0119 224.019 21.3966C223.75 21.7812 223.634 22.2043 223.634 22.6658V23.435C223.634 23.8966 223.75 24.3581 224.019 24.7043C224.288 25.0889 224.634 25.3966 225.095 25.6658C225.556 25.935 226.094 26.1273 226.709 26.2812C227.324 26.435 228.016 26.4735 228.784 26.4735C229.515 26.4735 230.206 26.3966 230.821 26.2812C231.436 26.1273 232.013 25.935 232.474 25.6658C232.935 25.3966 233.281 25.0889 233.55 24.7043C233.819 24.3196 233.934 23.8966 233.934 23.435V22.6658C233.934 22.2043 233.819 21.7812 233.55 21.3966ZM231.936 23.2812C231.936 23.5119 231.821 23.7427 231.667 23.9735C231.475 24.1658 231.244 24.3581 230.975 24.4735C230.706 24.6273 230.36 24.7427 229.976 24.8196C229.591 24.8966 229.207 24.935 228.823 24.935C228.4 24.935 228.016 24.8966 227.67 24.8196C227.285 24.7427 226.978 24.6273 226.67 24.4735C226.363 24.3196 226.132 24.1658 225.979 23.9735C225.787 23.7812 225.71 23.5504 225.71 23.2812V22.8581C225.71 22.6273 225.825 22.3966 225.979 22.1658C226.171 21.9735 226.401 21.8196 226.67 21.6658C226.94 21.5119 227.285 21.3966 227.67 21.3196C228.4 21.1658 229.284 21.1658 230.014 21.3196C230.398 21.3966 230.706 21.5119 231.013 21.6658C231.282 21.8196 231.551 21.9735 231.705 22.1658C231.897 22.3581 231.974 22.5889 231.974 22.8581L231.936 23.2812Z" fill="#646C70"/>
<path d="M229.976 17.3966L228.9 18.7812C228.131 18.2812 227.401 17.7812 226.786 17.3197C226.401 17.0504 226.094 16.8197 225.863 16.6274C225.556 16.3966 225.518 16.2812 225.479 16.2427L225.441 16.1658H225.248L225.21 16.2427C225.21 16.2812 225.133 16.435 224.826 16.7043C224.595 16.935 224.249 17.2043 223.826 17.5504C223.442 17.8581 223.058 18.1658 222.635 18.4735C222.251 18.7427 221.866 19.0504 221.444 19.3197L220.252 17.8581C220.79 17.512 221.29 17.1274 221.79 16.7427C222.289 16.3581 222.75 15.9735 223.135 15.6273C223.442 15.3581 223.711 15.012 223.903 14.6658C224.096 14.3197 224.172 13.8966 224.172 13.435V12.2043H220.906V10.512H229.361V12.2043H226.209V13.435C226.209 13.6658 226.209 13.8581 226.248 14.0504C226.286 14.2427 226.363 14.435 226.44 14.5889C226.517 14.7812 226.671 14.935 226.824 15.0889C226.978 15.2427 227.17 15.435 227.439 15.6273C227.823 15.935 228.246 16.2043 228.669 16.512C229.13 16.8581 229.553 17.1274 229.976 17.3966Z" fill="#646C70"/>
<path d="M233.896 9.58887V19.2812H231.859V15.3966H229.169V13.7043H231.859V9.58887H233.896Z" fill="#646C70"/>
<path d="M244.696 22.2427V19.2811H249.192V10.7427H247.155V13.3965H240.199V10.7427H238.162V19.2811H242.659V22.2427H236.087V23.935H251.268V22.2427H244.696ZM240.199 17.6273V15.0888H247.155V17.6273H240.199Z" fill="#646C70"/>
<path d="M260.645 22.2812V19.2043H265.642V17.5504H263.528V12.5504H265.488V10.9351H253.727V12.5889H255.764V17.5889H253.612V19.2428H258.608V22.3197H252.036V23.9735H267.217V22.3197H260.645V22.2812ZM257.801 17.5504V12.5504H261.491V17.5504H257.801Z" fill="#646C70"/>
<path d="M282.206 24.6659V26.2043H271.407V21.7428H279.747V20.3197H271.292V18.7812H281.707V23.2043H273.367V24.6659H282.206Z" fill="#646C70"/>
<path d="M277.594 17.281C277.095 17.3195 276.595 17.358 276.057 17.3964C275.48 17.4349 274.789 17.4734 274.058 17.4734C273.328 17.4734 272.483 17.5118 271.599 17.5118C270.715 17.5118 269.754 17.5118 268.678 17.5118V10.1272H276.287V11.6657H270.676V13.0503H275.903V14.5887H270.676V15.9733H270.792C272.021 15.9733 273.213 15.9734 274.251 15.9349C275.288 15.8964 276.364 15.858 277.44 15.7426L277.594 17.281Z" fill="#646C70"/>
<path d="M281.515 9.85815V18.0505H279.478V14.6658H276.826V13.1274H279.478V9.85815H281.515Z" fill="#646C70"/>
<path d="M66.092 13.7544V10.3568C66.092 9.98304 65.7864 9.67726 65.413 9.67726H50.4747C50.1013 9.67726 49.7957 9.98304 49.7957 10.3568V14.7736C49.7957 15.1474 50.1013 15.4531 50.4747 15.4531H65.7525C66.3976 15.4531 67.0087 15.5551 67.5858 15.7929C69.2834 16.4384 70.5395 18.0013 70.8111 19.87C70.8111 19.9719 70.8451 20.1078 70.8451 20.2097C70.8451 20.3117 70.8451 20.4476 70.8451 20.5495V25.6459C70.8451 27.4466 69.8945 29.0434 68.4685 29.9608C67.7895 30.4025 66.9747 30.6743 66.092 30.7422C65.9901 30.7422 65.8543 30.7422 65.7525 30.7422H50.1352C50.0334 30.7422 49.8976 30.7422 49.7957 30.7422C47.1476 30.5724 45.0426 28.3639 45.0426 25.6459V23.8791L49.7957 21.9085V25.3061C49.7957 25.6798 50.1013 25.9856 50.4747 25.9856H65.413C65.7864 25.9856 66.092 25.6798 66.092 25.3061V20.8893C66.092 20.5155 65.7864 20.2097 65.413 20.2097H50.1352C49.4901 20.2097 48.879 20.0738 48.3019 19.87C46.7062 19.2584 45.484 17.8314 45.1445 16.1327C45.1105 15.8948 45.0766 15.691 45.0766 15.4531C45.0766 15.3512 45.0766 15.2153 45.0766 15.1134V10.017C45.0766 9.91509 45.0766 9.77919 45.0766 9.67726C45.0766 9.64329 45.0766 9.60931 45.0766 9.57533C45.1105 9.13365 45.2124 8.72594 45.3482 8.31823C46.0272 6.34764 47.9284 4.92065 50.1352 4.92065H65.7525C65.8543 4.92065 65.9901 4.92065 66.092 4.92065C67.2803 4.98861 68.3327 5.46427 69.1476 6.21173C70.2 7.16306 70.8451 8.48811 70.8451 10.017V11.7838L66.092 13.7544ZM106.154 4.92065V23.5394L90.5364 4.92065H85.1043V30.7422H89.8574V12.1915L105.407 30.7422H110.907V4.92065H106.154ZM80.3513 4.92065H75.5982V30.7422H80.3513V4.92065ZM18.9346 22.5881C18.3574 22.8259 17.7124 22.9278 17.0334 22.9278C16.4562 22.9278 15.913 22.8259 15.3698 22.69C14.9284 22.5541 14.4871 22.8599 14.4871 23.3355V30.7762H19.2401V22.8599C19.2401 22.656 19.0704 22.5201 18.9346 22.5881ZM35.5364 4.92065V15.4531H24.5025C23.3821 15.4531 22.4655 16.3705 22.4655 17.4917C22.4655 18.3411 22.2618 19.1565 21.9222 19.87C21.8543 20.0399 21.9562 20.2097 22.1259 20.2097H35.5364V30.7422H40.2895V4.92065H35.5364Z" fill="#646C70"/>
<path d="M21.2771 6.27966C19.7833 6.27966 18.5611 7.50279 18.5611 8.99772C18.5611 9.91506 19.0024 10.7305 19.7154 11.2061C19.8172 11.2401 19.8851 11.3081 19.987 11.376C20.3604 11.5799 20.8018 11.7158 21.2771 11.7158C22.7709 11.7158 23.9932 10.4927 23.9932 8.99772C23.9932 7.50279 22.7709 6.27966 21.2771 6.27966ZM3.62279 3.5616C2.12896 3.5616 0.906738 4.78473 0.906738 6.27966C0.906738 7.77459 2.12896 8.99772 3.62279 8.99772C5.11661 8.99772 6.33884 7.77459 6.33884 6.27966C6.33884 4.78473 5.11661 3.5616 3.62279 3.5616ZM7.73081 10.3568C6.9839 10.3568 6.37279 10.9683 6.37279 11.7158C6.37279 12.4632 6.9839 13.0748 7.73081 13.0748C8.47773 13.0748 9.08884 12.4632 9.08884 11.7158C9.08884 10.9683 8.47773 10.3568 7.73081 10.3568ZM21.4129 17.4577C21.4129 19.9039 19.4438 21.9085 16.9654 21.9085C14.5209 21.9085 12.5178 19.9039 12.5178 17.4577C12.5178 16.7782 12.6876 16.1326 12.9592 15.5211C12.9932 15.4871 12.9932 15.4531 13.0271 15.4191C13.4006 14.7396 13.6043 13.9582 13.6043 13.1088C13.6043 11.0363 12.3481 9.26953 10.5148 8.52206H10.4808C10.4469 8.52206 10.4469 8.52206 10.4129 8.48808C10.379 8.48808 10.345 8.45411 10.3111 8.45411C10.3111 8.45411 10.2771 8.45411 10.2771 8.42013H10.2432C8.71538 7.77459 7.66291 6.24568 7.66291 4.47894C7.66291 2.67823 8.78328 1.14932 10.345 0.50378C10.8543 0.299925 11.3975 0.197998 11.9746 0.197998C12.5518 0.197998 13.095 0.299925 13.6043 0.50378C15.166 1.14932 16.2864 2.67823 16.2864 4.47894C16.2864 5.09051 16.1506 5.6681 15.9129 6.21171V6.24568C15.9129 6.24568 15.9129 6.27966 15.879 6.27966C15.845 6.34761 15.8111 6.44954 15.7432 6.51749C15.4376 7.16303 15.3018 7.84254 15.3018 8.59001C15.3018 10.7305 16.6598 12.5652 18.5611 13.2787C18.595 13.2787 18.595 13.2787 18.629 13.3126C20.2586 13.9582 21.4129 15.589 21.4129 17.4577Z" fill="#646C70"/>
</svg>
